<?xml version="1.0" encoding="UTF-8"?>
<svg id="b" data-name="圖層 2" xmlns="http://www.w3.org/2000/svg" width="113.33" height="71.38" viewBox="0 0 113.33 71.38">
  <defs>
    <style>
      .d {
        fill: #0c131b;
      }

      .e {
        fill: none;
        stroke: #0c131b;
        stroke-miterlimit: 10;
        stroke-width: 3px;
      }
    </style>
  </defs>
  <g id="c" data-name="b">
    <g>
      <line class="e" x1="3.66" y1="16.32" x2="37.27" y2="16.32"/>
      <path class="d" d="M15.09,31.9c-.48-.75-.26-1.76,.5-2.24l20.94-13.33L15.59,2.99c-.76-.48-.98-1.49-.5-2.24,.48-.75,1.49-.97,2.24-.5l23.09,14.7c.47,.3,.75,.81,.75,1.37s-.29,1.07-.75,1.37l-23.09,14.7c-.27,.17-.57,.25-.87,.25-.54,0-1.06-.27-1.37-.75Z"/>
    </g>
    <g>
      <path d="M0,58.21c0-1.92,.26-3.75,.77-5.47,.52-1.73,1.27-3.27,2.27-4.63,1-1.36,2.05-2.32,3.17-2.87l.6,1.77c-1.17,.89-2.12,2.25-2.85,4.07-.73,1.83-1.13,3.92-1.19,6.27v1.07c-.01,2.52,.34,4.77,1.05,6.75,.71,1.97,1.71,3.48,2.99,4.51l-.6,1.69c-1.12-.55-2.17-1.51-3.18-2.88-1-1.37-1.76-2.91-2.27-4.63-.51-1.72-.77-3.6-.77-5.66Z"/>
      <path d="M26.05,60.92c0-.8-.28-1.41-.84-1.85-.56-.43-1.57-.87-3.04-1.31s-2.63-.93-3.49-1.47c-1.66-1.04-2.48-2.4-2.48-4.07,0-1.46,.6-2.67,1.79-3.62,1.19-.95,2.74-1.42,4.65-1.42,1.26,0,2.39,.23,3.38,.7s1.77,1.13,2.33,1.99c.57,.86,.85,1.82,.85,2.86h-3.15c0-.95-.3-1.69-.89-2.23-.6-.54-1.45-.8-2.55-.8-1.03,0-1.83,.22-2.4,.66s-.85,1.06-.85,1.85c0,.66,.31,1.22,.92,1.67s1.63,.88,3.05,1.3c1.41,.42,2.55,.9,3.41,1.44,.86,.54,1.48,1.15,1.88,1.85s.6,1.51,.6,2.44c0,1.51-.58,2.72-1.74,3.61-1.16,.89-2.73,1.34-4.72,1.34-1.31,0-2.52-.24-3.63-.73-1.1-.49-1.96-1.16-2.57-2.01-.61-.86-.92-1.86-.92-3h3.16c0,1.03,.34,1.83,1.02,2.4,.68,.57,1.66,.85,2.93,.85,1.1,0,1.92-.22,2.48-.67s.83-1.03,.83-1.77Z"/>
      <path d="M40.37,64.28c-.89,1.05-2.15,1.57-3.79,1.57-1.46,0-2.57-.43-3.33-1.29-.75-.86-1.13-2.1-1.13-3.72v-8.75h3.03v8.71c0,1.71,.71,2.57,2.13,2.57s2.47-.53,2.98-1.59v-9.7h3.03v13.5h-2.86l-.07-1.32Z"/>
      <path d="M58.76,58.98c0,2.1-.47,3.76-1.4,5-.94,1.24-2.22,1.86-3.86,1.86s-2.81-.57-3.69-1.71l-.15,1.46h-2.75v-19.17h3.03v6.97c.87-1.03,2.05-1.55,3.53-1.55,1.65,0,2.94,.61,3.88,1.84,.94,1.22,1.41,2.93,1.41,5.13v.18Zm-3.03-.26c0-1.46-.26-2.56-.77-3.29-.52-.73-1.26-1.1-2.25-1.1-1.31,0-2.24,.58-2.77,1.72v5.57c.54,1.17,1.47,1.76,2.8,1.76,.95,0,1.68-.36,2.2-1.06,.52-.71,.78-1.78,.8-3.21v-.39Z"/>
      <path d="M64.66,52.09l.09,1.41c.95-1.11,2.25-1.66,3.89-1.66,1.81,0,3.04,.69,3.71,2.07,.98-1.38,2.36-2.07,4.14-2.07,1.49,0,2.6,.41,3.33,1.24,.73,.82,1.1,2.04,1.12,3.64v8.87h-3.03v-8.79c0-.86-.19-1.49-.56-1.89-.37-.4-.99-.6-1.86-.6-.69,0-1.25,.19-1.69,.56-.44,.37-.74,.85-.92,1.45v9.26h-3.02v-8.89c-.04-1.59-.85-2.38-2.43-2.38-1.22,0-2.08,.5-2.58,1.49v9.78h-3.03v-13.5h2.86Z"/>
      <path d="M84.57,48.59c0-.47,.15-.85,.44-1.16s.72-.46,1.27-.46,.97,.15,1.27,.46,.45,.69,.45,1.16-.15,.84-.45,1.14-.72,.46-1.27,.46-.97-.15-1.27-.46-.44-.68-.44-1.14Zm3.22,17.01h-3.03v-13.5h3.03v13.5Z"/>
      <path d="M95.4,48.81v3.28h2.38v2.24h-2.38v7.54c0,.52,.1,.89,.31,1.12,.2,.23,.57,.34,1.09,.34,.35,0,.7-.04,1.06-.13v2.35c-.69,.19-1.36,.29-2,.29-2.33,0-3.49-1.29-3.49-3.86v-7.65h-2.22v-2.24h2.22v-3.28h3.03Z"/>
      <path d="M113.33,58.41c0,1.85-.25,3.63-.76,5.35-.51,1.72-1.28,3.28-2.31,4.69-1.03,1.41-2.11,2.39-3.23,2.93l-.6-1.69c1.25-.96,2.24-2.44,2.96-4.43,.73-1.98,1.09-4.25,1.09-6.8v-.29c0-2.31-.32-4.42-.95-6.32-.63-1.9-1.54-3.43-2.72-4.57l-.39-.35,.6-1.7c1.07,.52,2.1,1.43,3.1,2.75,1,1.32,1.76,2.79,2.3,4.41,.53,1.63,.83,3.3,.9,5.03v.97Z"/>
    </g>
  </g>
</svg>