<?xml version="1.0" encoding="UTF-8"?>
<svg id="b" data-name="圖層 2" xmlns="http://www.w3.org/2000/svg" width="145.23" height="154.57" viewBox="0 0 145.23 154.57">
  <g id="c" data-name="圖層 3">
    <g id="d" data-name="c">
      <path d="M145.01,62.16c-.06-.3-.11-.6-.11-.6-.19-1-.5-2.46-1.35-6.36-4.8-21.9-9.32-40.05-12.95-53.81-28.91-3.24-52.19-.22-67.71,3.03C39.86,9.24,21.29,13.64,9.59,30.19-1.11,45.32-.45,62.97,.47,71.33c2,9.94,6.84,25.44,19.33,37.89,0,0,11.72,11.68,31.01,20.1,.11,.05,5.98,2.61,5.98,2.61,.84,.23,3.44,.87,3.44,.87,.5,.91,1.13,1.97,1.9,3.1,.41,.61,1.04,1.49,1.85,2.51,.41,.52,1.57,1.94,3.29,3.63,2.61,2.57,5.04,4.3,6.3,5.15,2.4,1.62,4.7,2.83,6.77,3.75,4.33,1.61,11.08,3.55,19.5,3.62,2.49,.02,6.19,.04,10.92-.99,2.29-.5,12.64-2.93,21.17-11.17,2.61-2.52,4.34-4.91,4.88-5.66,1.03-1.45,2.92-4.31,4.5-8.25,1.91-4.77,2.53-9.34,2.7-10.7,.96-7.5,1.58-28.09,1.01-55.64Z"/>
    </g>
  </g>
</svg>