<?xml version="1.0" encoding="UTF-8"?>
<svg id="b" data-name="圖層 2" xmlns="http://www.w3.org/2000/svg" width="33.7" height="30.65" viewBox="0 0 33.7 30.65">
  <defs>
    <style>
      .d {
        fill: #000;
      }

    </style>
  </defs>
  <g id="c" data-name="layout">
    <g>
      <g>
        <path class="d" d="M140.18,62.16c-.06-.3-.11-.6-.11-.6-.19-1-.5-2.46-1.35-6.36-4.8-21.9-9.32-40.05-12.95-53.81-28.91-3.24-52.19-.22-67.71,3.03C33.44,9.59,13.92,13.68,4.76,30.19c-8.38,15.1-3.68,32.64-1.01,40.42,17.12,9.29,24.47,19.77,27.91,28.19,2.13,5.2,8.99,27.51,14.31,30.53,3.34,1.9,5.98,2.61,5.98,2.61,.84,.23,3.44,.87,3.44,.87h0c.5,.91,1.13,1.97,1.9,3.1,.41,.61,1.04,1.49,1.85,2.51,.41,.52,1.57,1.94,3.29,3.63,2.61,2.57,5.04,4.3,6.3,5.15,2.4,1.62,4.7,2.83,6.77,3.75,4.33,1.61,11.08,3.55,19.5,3.62,2.49,.02,6.19,.04,10.92-.99,2.29-.5,12.64-2.93,21.17-11.17,2.61-2.52,4.34-4.91,4.88-5.66,1.03-1.45,2.92-4.31,4.5-8.25,1.89-4.69,2.43-8.61,2.7-10.7,4.21-32.11,1.45-53.16,.99-55.65Z"/>
      </g>
    </g>
  </g>
</svg>