<?xml version="1.0" encoding="UTF-8"?>
<svg id="b" data-name="圖層 2" xmlns="http://www.w3.org/2000/svg" width="33.7" height="30.65" viewBox="0 0 33.7 30.65">
  <defs>
    <style>
      .d {
        fill: #fff;
      }

      .e {
        fill: #0d131a;
      }
    </style>
  </defs>
  <g id="c" data-name="layout">
    <g>
      <g>
        <path class="d" d="M24.97,1.81c-.62-.58-1.33-1.03-2.16-1.34-.82-.31-1.72-.47-2.71-.47s-1.88,.16-2.71,.48c-.82,.32-1.54,.77-2.16,1.35-.62,.58-1.09,1.26-1.43,2.03-.34,.78-.51,1.63-.51,2.56s.17,1.77,.51,2.56c.34,.78,.81,1.46,1.43,2.04,.62,.58,1.34,1.03,2.17,1.35,.83,.32,1.73,.48,2.72,.48s1.87-.16,2.69-.47c.82-.31,1.54-.76,2.16-1.34,.62-.58,1.09-1.26,1.43-2.05,.34-.79,.51-1.64,.51-2.56s-.17-1.79-.51-2.57c-.34-.78-.81-1.46-1.43-2.04Zm-1.27,6.22c-.2,.48-.47,.9-.83,1.26-.36,.36-.77,.64-1.23,.83-.47,.2-.98,.29-1.54,.29s-1.07-.1-1.54-.29c-.47-.2-.88-.47-1.23-.83-.35-.36-.62-.78-.82-1.26-.2-.48-.29-1.01-.29-1.61s.1-1.13,.29-1.61c.2-.48,.47-.9,.82-1.26,.35-.36,.76-.64,1.23-.83,.47-.2,.99-.29,1.54-.29s1.07,.1,1.54,.29c.47,.2,.88,.47,1.23,.83,.35,.36,.63,.78,.83,1.26s.29,1.01,.29,1.61-.1,1.13-.29,1.61Z"/>
        <rect class="d" x="29.07" y=".21" width="2.89" height="12.43"/>
        <path class="d" d="M8.3,5.67L12.22,.21h-3.31l-3.33,4.63c-.48-.06-.99-.1-1.53-.1-.26,0-.51,.01-.76,.03V.21H.43V12.64H3.29V7.11c.25-.03,.5-.04,.76-.04,2.94,0,5.19,1.83,5.19,5.58h2.91c0-2.42-.95-5.47-3.85-6.97Z"/>
        <polygon class="d" points="0 20.36 3.98 20.36 3.98 30.44 6.86 30.44 6.86 20.36 10.84 20.36 10.84 18.01 0 18.01 0 20.36"/>
        <path class="d" d="M17.8,20.7c-.96,0-1.84,.3-2.56,.82v-3.51h-2.77v12.43h2.77v-5.32c0-1.17,.95-2.12,2.12-2.12s2.12,.95,2.12,2.12v.03h0v5.3h2.77v-5.3c0-2.45-1.99-4.44-4.44-4.44Z"/>
        <g>
          <path class="d" d="M33.68,24.2c-.16-1.83-1.72-3.56-4.96-3.4-3.17,.16-5.02,2.2-5.02,4.92,0,.27,.02,.53,.06,.78,.09,.64,.3,1.22,.62,1.75,.45,.74,1.08,1.32,1.9,1.75,.82,.43,1.77,.64,2.86,.64,.87,0,1.63-.13,2.29-.4,.66-.27,1.21-.65,1.65-1.15l-1.48-1.6c-.32,.31-.67,.54-1.06,.69-.39,.15-.83,.23-1.32,.23-.58,0-1.08-.1-1.49-.31-.41-.21-.74-.51-.98-.9-.13-.21-.22-.46-.28-.71h5.12c1.6,0,2.19-1.04,2.08-2.31Zm-2.91,.59h-4.31s.32-1.79,2.4-1.94c1.63-.11,2.37,.59,2.52,1.06,.13,.41,.04,.87-.61,.87Z"/>
          <path class="d" d="M27.32,19.03s-.05,.05-.06,.06c-.02,.03-.03,.06,0,.07,.02,.01,.07,.02,.11,.02,.03,0,.07-.02,.11-.02,.04,0,.07,0,.11-.01,.04,0,.07-.02,.1-.02,.04,0,.07,0,.11-.01,.04,0,.07,0,.11-.01s.07-.01,.11-.01c.03,0,.06-.05,.09-.06,.03-.01,.08,0,.1,.05,0,.02-.02,.05-.02,.08,0,.02,0,.04,0,.06-.01,.02-.02,.03-.06,.05-.02,0-.05,.02-.08,.03-.03,0-.05,.02-.03,.05,.03,.04,.06,.04,.09,.03,.03,0,.07-.01,.1-.02,.03,0,.06-.04,.09-.05,.03,0,.07,0,.1-.01s.07,0,.1,0c.03,0,.06-.03,.09-.03,.03,0,.07,0,.1,0,.03,0,.07,.01,.1,0,.03,0,.07,0,.1,0,.03,0,.06-.02,.1-.03,.03,0,.07,0,.1-.01,.03,0,.07-.01,.1-.02s.07,0,.1,0c.03,0,.07,0,.1-.01,.03,0,.07,.02,.1,.01,.03,0,.07,0,.1,0,.03,0,.07,.02,.1,.02,.03,0,.07,0,.1,0,.03,0,.07-.02,.1-.02,.03,0,.07,.02,.1,.02,.03,0,.07,0,.1,0,.03,0,.07-.02,.1-.02,.03,0,.07,0,.1,0s.06-.03,.1-.04c.03,0,.07-.01,.1-.02,.03,0,.06-.02,.1-.03s.07-.01,.1-.02c.03,0,.06-.02,.1-.03,.03,0,.06-.03,.09-.04s.07,0,.1-.01c.03-.01,.06-.03,.09-.05,.03-.01,.07,0,.1-.02,.03-.01,.06-.04,.09-.05,.03-.02,.06-.04,.09-.05,.03-.02,.07-.02,.1-.04,.03-.02,.06-.03,.09-.05,.03-.02,.04-.07,.07-.09,.03-.02,.09,0,.12-.01,.03-.02,.06-.03,.09-.05,.03-.02,.06-.05,.09-.07,.03-.02,.05-.06,.08-.08,.03-.02,.06-.04,.09-.06,.03-.02,.07-.03,.1-.05,.03-.03,.03-.08,.05-.11,.02-.03,.04-.06,.06-.1,.02-.03,.04-.07,.06-.1,.02-.04,.06-.06,.08-.1,.01-.04,0-.08,0-.12,0-.04,.03-.07,.03-.1,0-.04-.02-.06-.03-.09-.02-.02-.05-.03-.08-.05-.03-.01-.06-.02-.08-.03-.03-.01-.05-.04-.07-.05-.04-.03-.07-.03-.09-.01-.02,.02-.05,.06-.07,.09-.01,.04-.01,.07-.04,.08-.03,.02-.03,.07-.06,.09-.02,.02-.09,0-.09,0,0,0,0-.05,.02-.08,.01-.03,.01-.07,.03-.1,.01-.03,.07-.05,.08-.09,.01-.03,0-.07,0-.1,0-.03-.01-.05-.03-.08-.01-.02-.03-.04-.06-.06-.02-.01-.03-.05-.07-.06-.03-.01,0-.03,0-.06,.01-.03,.02-.06,.03-.09,.01-.03-.01-.06-.03-.1-.01-.03-.01-.06-.03-.09-.02-.02-.03-.06-.05-.08-.02-.02-.07-.02-.09-.03-.03-.03-.05-.05-.06-.06-.04-.03-.07-.03-.08,0-.02,.03-.01,.08-.04,.09-.03,.01-.07,.01-.11,.03-.03,.02-.06,.05-.09,.07-.03,.02-.07,.03-.1,.05-.03,.02-.07,.04-.1,.06-.03,.02-.05,.06-.08,.09-.03,.02-.08,.02-.11,.04-.03,.02-.06,.04-.09,.07-.03,.02-.04,.08-.06,.1-.03,.02-.07,.04-.1,.06-.03,.02-.05,.05-.08,.08-.03,.02-.07,0-.11,.01-.03,.01-.06,.03-.09,.04-.03,.01-.06,.01-.09,.02-.03,.01-.06,.03-.09,.04-.04,.01-.08,.03-.11,.04-.04,.02-.06,.05-.1,.07-.03,.02-.08,0-.12,.02-.03,.02-.06,.07-.1,.08-.03,.01-.07,0-.1,.02-.03,.01-.07,0-.1,.02-.03,.01-.07,.02-.1,.03-.03,.01-.07,0-.11,.01-.03,.01-.06,.05-.09,.06-.03,0-.07,0-.11,0-.03,0-.06,.03-.1,.04-.03,0-.07,.01-.1,.02-.03,0-.07,.03-.1,.04-.03,0-.07,.02-.1,.03-.03,0-.06,.03-.1,.04s-.07,0-.1,.01c-.03,0-.07,.03-.1,.04-.03,0-.07,.02-.1,.03-.03,0-.07,0-.1,.02-.03,0-.07,0-.11,0-.03,0-.07,.01-.1,.02-.03,0-.06,.03-.1,.05-.03,.01-.06,.04-.09,.05-.03,.01-.07,0-.11,.02s-.06,.03-.09,.04c-.03,.01-.06,.03-.09,.05-.03,.01-.07,.01-.1,.03-.03,.01-.07,.02-.1,.04-.03,.02-.04,.04-.07,.06-.03,.02-.04,.04-.07,.06-.03,.02-.06,.03-.09,.04-.02,.02-.05,.03-.08,.03-.03,0-.06,.01-.09,.02-.02,.01-.03,.03-.04,.05-.01,.02,0,.03,0,.05,0,.02,0,.03,.01,.05,0,.02,0,.04,.02,.05,.02,.02,.02,.04,.04,.05,.02,.01,.05,.03,.07,.04,.02,.01,.07,0,.1,.01,.03,0,.05,.02,.08,.03l.1,.02Z"/>
        </g>
      </g>
      <g>
        <path class="e" d="M24.97,1.81c-.62-.58-1.33-1.03-2.16-1.34-.82-.31-1.72-.47-2.71-.47s-1.88,.16-2.71,.48c-.82,.32-1.54,.77-2.16,1.35-.62,.58-1.09,1.26-1.43,2.03-.34,.78-.51,1.63-.51,2.56s.17,1.77,.51,2.56c.34,.78,.81,1.46,1.43,2.04,.62,.58,1.34,1.03,2.17,1.35,.83,.32,1.73,.48,2.72,.48s1.87-.16,2.69-.47c.82-.31,1.54-.76,2.16-1.34,.62-.58,1.09-1.26,1.43-2.05,.34-.79,.51-1.64,.51-2.56s-.17-1.79-.51-2.57c-.34-.78-.81-1.46-1.43-2.04Zm-1.27,6.22c-.2,.48-.47,.9-.83,1.26-.36,.36-.77,.64-1.23,.83-.47,.2-.98,.29-1.54,.29s-1.07-.1-1.54-.29c-.47-.2-.88-.47-1.23-.83-.35-.36-.62-.78-.82-1.26-.2-.48-.29-1.01-.29-1.61s.1-1.13,.29-1.61c.2-.48,.47-.9,.82-1.26,.35-.36,.76-.64,1.23-.83,.47-.2,.99-.29,1.54-.29s1.07,.1,1.54,.29c.47,.2,.88,.47,1.23,.83,.35,.36,.63,.78,.83,1.26s.29,1.01,.29,1.61-.1,1.13-.29,1.61Z"/>
        <rect class="e" x="29.07" y=".21" width="2.89" height="12.43"/>
        <path class="e" d="M8.3,5.67L12.22,.21h-3.31l-3.33,4.63c-.48-.06-.99-.1-1.53-.1-.26,0-.51,.01-.76,.03V.21H.43V12.64H3.29V7.11c.25-.03,.5-.04,.76-.04,2.94,0,5.19,1.83,5.19,5.58h2.91c0-2.42-.95-5.47-3.85-6.97Z"/>
        <polygon class="e" points="0 20.36 3.98 20.36 3.98 30.44 6.86 30.44 6.86 20.36 10.84 20.36 10.84 18.01 0 18.01 0 20.36"/>
        <path class="e" d="M17.8,20.7c-.96,0-1.84,.3-2.56,.82v-3.51h-2.77v12.43h2.77v-5.32c0-1.17,.95-2.12,2.12-2.12s2.12,.95,2.12,2.12v.03h0v5.3h2.77v-5.3c0-2.45-1.99-4.44-4.44-4.44Z"/>
        <g>
          <path class="e" d="M33.68,24.2c-.16-1.83-1.72-3.56-4.96-3.4-3.17,.16-5.02,2.2-5.02,4.92,0,.27,.02,.53,.06,.78,.09,.64,.3,1.22,.62,1.75,.45,.74,1.08,1.32,1.9,1.75,.82,.43,1.77,.64,2.86,.64,.87,0,1.63-.13,2.29-.4,.66-.27,1.21-.65,1.65-1.15l-1.48-1.6c-.32,.31-.67,.54-1.06,.69-.39,.15-.83,.23-1.32,.23-.58,0-1.08-.1-1.49-.31-.41-.21-.74-.51-.98-.9-.13-.21-.22-.46-.28-.71h5.12c1.6,0,2.19-1.04,2.08-2.31Zm-2.91,.59h-4.31s.32-1.79,2.4-1.94c1.63-.11,2.37,.59,2.52,1.06,.13,.41,.04,.87-.61,.87Z"/>
          <path class="e" d="M27.32,19.03s-.05,.05-.06,.06c-.02,.03-.03,.06,0,.07,.02,.01,.07,.02,.11,.02,.03,0,.07-.02,.11-.02,.04,0,.07,0,.11-.01,.04,0,.07-.02,.1-.02,.04,0,.07,0,.11-.01,.04,0,.07,0,.11-.01s.07-.01,.11-.01c.03,0,.06-.05,.09-.06,.03-.01,.08,0,.1,.05,0,.02-.02,.05-.02,.08,0,.02,0,.04,0,.06-.01,.02-.02,.03-.06,.05-.02,0-.05,.02-.08,.03-.03,0-.05,.02-.03,.05,.03,.04,.06,.04,.09,.03,.03,0,.07-.01,.1-.02,.03,0,.06-.04,.09-.05,.03,0,.07,0,.1-.01s.07,0,.1,0c.03,0,.06-.03,.09-.03,.03,0,.07,0,.1,0,.03,0,.07,.01,.1,0,.03,0,.07,0,.1,0,.03,0,.06-.02,.1-.03,.03,0,.07,0,.1-.01,.03,0,.07-.01,.1-.02s.07,0,.1,0c.03,0,.07,0,.1-.01,.03,0,.07,.02,.1,.01,.03,0,.07,0,.1,0,.03,0,.07,.02,.1,.02,.03,0,.07,0,.1,0,.03,0,.07-.02,.1-.02,.03,0,.07,.02,.1,.02,.03,0,.07,0,.1,0,.03,0,.07-.02,.1-.02,.03,0,.07,0,.1,0s.06-.03,.1-.04c.03,0,.07-.01,.1-.02,.03,0,.06-.02,.1-.03s.07-.01,.1-.02c.03,0,.06-.02,.1-.03,.03,0,.06-.03,.09-.04s.07,0,.1-.01c.03-.01,.06-.03,.09-.05,.03-.01,.07,0,.1-.02,.03-.01,.06-.04,.09-.05,.03-.02,.06-.04,.09-.05,.03-.02,.07-.02,.1-.04,.03-.02,.06-.03,.09-.05,.03-.02,.04-.07,.07-.09,.03-.02,.09,0,.12-.01,.03-.02,.06-.03,.09-.05,.03-.02,.06-.05,.09-.07,.03-.02,.05-.06,.08-.08,.03-.02,.06-.04,.09-.06,.03-.02,.07-.03,.1-.05,.03-.03,.03-.08,.05-.11,.02-.03,.04-.06,.06-.1,.02-.03,.04-.07,.06-.1,.02-.04,.06-.06,.08-.1,.01-.04,0-.08,0-.12,0-.04,.03-.07,.03-.1,0-.04-.02-.06-.03-.09-.02-.02-.05-.03-.08-.05-.03-.01-.06-.02-.08-.03-.03-.01-.05-.04-.07-.05-.04-.03-.07-.03-.09-.01-.02,.02-.05,.06-.07,.09-.01,.04-.01,.07-.04,.08-.03,.02-.03,.07-.06,.09-.02,.02-.09,0-.09,0,0,0,0-.05,.02-.08,.01-.03,.01-.07,.03-.1,.01-.03,.07-.05,.08-.09,.01-.03,0-.07,0-.1,0-.03-.01-.05-.03-.08-.01-.02-.03-.04-.06-.06-.02-.01-.03-.05-.07-.06-.03-.01,0-.03,0-.06,.01-.03,.02-.06,.03-.09,.01-.03-.01-.06-.03-.1-.01-.03-.01-.06-.03-.09-.02-.02-.03-.06-.05-.08-.02-.02-.07-.02-.09-.03-.03-.03-.05-.05-.06-.06-.04-.03-.07-.03-.08,0-.02,.03-.01,.08-.04,.09-.03,.01-.07,.01-.11,.03-.03,.02-.06,.05-.09,.07-.03,.02-.07,.03-.1,.05-.03,.02-.07,.04-.1,.06-.03,.02-.05,.06-.08,.09-.03,.02-.08,.02-.11,.04-.03,.02-.06,.04-.09,.07-.03,.02-.04,.08-.06,.1-.03,.02-.07,.04-.1,.06-.03,.02-.05,.05-.08,.08-.03,.02-.07,0-.11,.01-.03,.01-.06,.03-.09,.04-.03,.01-.06,.01-.09,.02-.03,.01-.06,.03-.09,.04-.04,.01-.08,.03-.11,.04-.04,.02-.06,.05-.1,.07-.03,.02-.08,0-.12,.02-.03,.02-.06,.07-.1,.08-.03,.01-.07,0-.1,.02-.03,.01-.07,0-.1,.02-.03,.01-.07,.02-.1,.03-.03,.01-.07,0-.11,.01-.03,.01-.06,.05-.09,.06-.03,0-.07,0-.11,0-.03,0-.06,.03-.1,.04-.03,0-.07,.01-.1,.02-.03,0-.07,.03-.1,.04-.03,0-.07,.02-.1,.03-.03,0-.06,.03-.1,.04s-.07,0-.1,.01c-.03,0-.07,.03-.1,.04-.03,0-.07,.02-.1,.03-.03,0-.07,0-.1,.02-.03,0-.07,0-.11,0-.03,0-.07,.01-.1,.02-.03,0-.06,.03-.1,.05-.03,.01-.06,.04-.09,.05-.03,.01-.07,0-.11,.02s-.06,.03-.09,.04c-.03,.01-.06,.03-.09,.05-.03,.01-.07,.01-.1,.03-.03,.01-.07,.02-.1,.04-.03,.02-.04,.04-.07,.06-.03,.02-.04,.04-.07,.06-.03,.02-.06,.03-.09,.04-.02,.02-.05,.03-.08,.03-.03,0-.06,.01-.09,.02-.02,.01-.03,.03-.04,.05-.01,.02,0,.03,0,.05,0,.02,0,.03,.01,.05,0,.02,0,.04,.02,.05,.02,.02,.02,.04,.04,.05,.02,.01,.05,.03,.07,.04,.02,.01,.07,0,.1,.01,.03,0,.05,.02,.08,.03l.1,.02Z"/>
        </g>
      </g>
    </g>
  </g>
</svg>