<?xml version="1.0" encoding="UTF-8"?>
<svg id="b" data-name="圖層 2" xmlns="http://www.w3.org/2000/svg" width="55.43" height="9.78" viewBox="0 0 55.43 9.78">
  <defs>
    <style>
      .d {
        fill: #35201c;
      }
    </style>
  </defs>
  <g id="c" data-name="layout">
    <g>
      <path class="d" d="M17.02,2.13c-.43-.4-.92-.71-1.49-.93-.57-.22-1.19-.33-1.87-.33s-1.3,.11-1.87,.33c-.57,.22-1.07,.53-1.49,.93-.43,.4-.76,.87-.99,1.41-.23,.54-.35,1.13-.35,1.78s.12,1.23,.35,1.77c.23,.54,.56,1.01,.99,1.41,.43,.4,.93,.71,1.5,.93,.57,.22,1.2,.33,1.88,.33s1.29-.11,1.86-.33c.57-.22,1.07-.53,1.49-.93,.43-.4,.76-.87,.99-1.42,.23-.54,.35-1.14,.35-1.78s-.12-1.24-.35-1.78c-.23-.54-.56-1.01-.99-1.41Zm-.88,4.31c-.14,.33-.33,.62-.57,.87-.25,.25-.53,.44-.85,.58-.32,.14-.68,.2-1.06,.2s-.74-.07-1.07-.2c-.33-.14-.61-.33-.85-.58-.24-.25-.43-.54-.57-.87-.14-.33-.2-.7-.2-1.11s.07-.78,.2-1.11c.14-.33,.32-.62,.57-.87,.24-.25,.53-.44,.85-.58,.33-.14,.68-.2,1.07-.2s.74,.07,1.06,.2c.32,.14,.61,.33,.85,.58,.25,.25,.44,.54,.57,.87,.14,.33,.2,.7,.2,1.11s-.07,.78-.2,1.11Z"/>
      <rect class="d" x="19.91" y="1.05" width="1.99" height="8.56"/>
      <path class="d" d="M5.84,1.05l-2.29,3.19c-.33-.04-.68-.07-1.05-.07-.18,0-.35,0-.52,.02V1.05H0V9.61H1.97v-3.81c.17-.02,.35-.03,.52-.03,2.02,0,3.57,1.26,3.57,3.84h2c0-1.67-.66-3.76-2.65-4.8l2.7-3.76h-2.28Z"/>
      <path class="d" d="M55.42,5.17c-.11-1.28-1.2-2.48-3.46-2.37-2.21,.11-3.5,1.54-3.5,3.43,0,.19,.01,.37,.04,.55,.06,.44,.21,.85,.43,1.22,.31,.52,.76,.92,1.33,1.22,.57,.3,1.23,.45,1.99,.45,.6,0,1.14-.09,1.6-.28,.46-.19,.85-.45,1.15-.8l-1.03-1.12c-.22,.22-.47,.38-.74,.48-.27,.11-.58,.16-.92,.16-.4,0-.75-.07-1.04-.22-.29-.14-.52-.35-.68-.63-.09-.15-.15-.32-.19-.5h3.57c1.12,0,1.53-.72,1.45-1.61Zm-2.03,.41h-3s.22-1.25,1.67-1.35c1.14-.08,1.65,.41,1.75,.74,.09,.28,.03,.61-.42,.61Z"/>
      <path class="d" d="M50.75,1.54s.02,.02,.03,.03c.01,0,.03,.02,.05,.03,.02,0,.05,0,.07,0,.02,0,.03,.02,.05,.02h.07s-.03,.04-.04,.06c-.01,.02-.02,.04,0,.05,.02,0,.05,.01,.08,.01,.02,0,.05-.01,.07-.02,.02,0,.05,0,.07,0,.02,0,.05-.01,.07-.01,.02,0,.05,0,.07,0,.02,0,.05,0,.07,0,.02,0,.05,0,.07-.01,.02,0,.04-.03,.07-.04,.02,0,.06,0,.07,.04,0,.01-.01,.03-.01,.05,0,.02,0,.03,0,.04,0,.01-.01,.02-.04,.03-.01,0-.04,.01-.05,.02-.02,0-.04,.01-.02,.03,.02,.03,.04,.03,.06,.02,.02,0,.05,0,.07-.01,.02,0,.04-.03,.06-.03,.02,0,.05,0,.07,0,.02,0,.05,0,.07,0,.02,0,.04-.02,.07-.02,.02,0,.05,0,.07,0,.02,0,.05,0,.07,0,.02,0,.05,0,.07,0,.02,0,.04-.02,.07-.02,.02,0,.05,0,.07,0,.02,0,.05,0,.07-.01h.07s.05-.01,.07-.01c.02,0,.05,.01,.07,0,.02,0,.05,0,.07,0s.05,.01,.07,.01c.02,0,.05,0,.07,0,.02,0,.05-.02,.07-.02,.02,0,.05,.01,.07,.01,.02,0,.05,0,.07,0,.02,0,.05-.01,.07-.02,.02,0,.05,0,.07,0,.02,0,.04-.02,.07-.03,.02,0,.05,0,.07-.01,.02,0,.04-.01,.07-.02,.02,0,.05,0,.07-.02,.02,0,.04-.02,.07-.02,.02,0,.04-.02,.07-.03,.02,0,.05,0,.07,0,.02,0,.04-.02,.06-.03,.02,0,.05,0,.07-.01,.02,0,.04-.03,.06-.04,.02-.01,.04-.03,.06-.04,.02-.01,.05-.02,.07-.03,.02-.01,.04-.02,.06-.03,.02-.01,.03-.05,.05-.06,.02-.01,.06,0,.08,0,.02-.01,.04-.02,.07-.04,.02-.01,.04-.03,.06-.05,.02-.01,.04-.04,.06-.05,.02-.01,.04-.02,.06-.04,.02-.02,.05-.02,.07-.04,.02-.02,.02-.05,.04-.07,.02-.02,.03-.04,.04-.07,.01-.02,.03-.05,.04-.07,.01-.02,.04-.04,.05-.07,.01-.03,0-.06,0-.09,0-.03,.02-.05,.02-.07,0-.03-.01-.04-.02-.06-.01-.02-.03-.02-.05-.03-.02-.01-.04-.01-.06-.02-.02,0-.04-.03-.05-.04-.03-.02-.05-.02-.06,0-.02,.01-.04,.04-.05,.06,0,.02,0,.05-.03,.06-.02,.01-.02,.05-.04,.06-.02,.01-.06,0-.06,0,0,0,0-.04,.01-.06,0-.02,0-.05,.02-.07,.01-.02,.05-.04,.05-.06,0-.02,0-.05,0-.07,0-.02,0-.04-.02-.06-.01-.02-.02-.03-.04-.04-.02-.01-.02-.03-.05-.04-.02,0,0-.02,0-.04,0-.02,.02-.04,.02-.06,0-.02-.01-.04-.02-.07,0-.02,0-.04-.02-.06-.01-.02-.02-.04-.04-.05-.02-.02-.05-.01-.06-.02-.02-.02-.03-.04-.04-.04-.03-.02-.05-.02-.06,0-.01,.02,0,.06-.03,.06-.02,0-.05,0-.07,.02-.02,.01-.04,.04-.06,.05-.02,.01-.05,.02-.07,.04-.02,.01-.05,.03-.07,.04-.02,.02-.03,.04-.05,.06-.02,.02-.05,.01-.08,.03-.02,.02-.04,.03-.06,.05-.02,.02-.02,.05-.04,.07-.02,.02-.05,.03-.07,.04s-.04,.04-.06,.05c-.02,.01-.05,0-.07,0-.02,0-.04,.02-.06,.03-.02,0-.04,0-.06,.02-.02,0-.04,.02-.06,.03-.03,0-.05,.02-.08,.03-.02,.01-.04,.04-.07,.05-.02,.01-.06,0-.08,.02-.02,.01-.04,.05-.07,.06-.02,0-.05,0-.07,.01s-.05,0-.07,.01c-.02,0-.05,.02-.07,.02s-.05,0-.07,0c-.02,0-.04,.04-.06,.04-.02,0-.05,0-.07,0-.02,0-.04,.02-.07,.03-.02,0-.05,0-.07,.02-.02,0-.05,.02-.07,.02-.02,0-.05,.01-.07,.02-.02,0-.04,.02-.07,.03-.02,0-.05,0-.07,0-.02,0-.05,.02-.07,.02s-.05,.01-.07,.02c-.02,0-.05,0-.07,.01-.02,0-.05,0-.07,0-.02,0-.05,.01-.07,.02-.02,0-.04,.02-.07,.03-.02,0-.04,.02-.06,.03-.02,0-.05,0-.07,.01-.02,0-.04,.02-.06,.03s-.04,.02-.06,.03c-.02,0-.05,0-.07,.02-.02,0-.05,.01-.07,.03-.02,.01-.03,.03-.05,.04-.02,.01-.03,.03-.05,.04-.02,.01-.04,.02-.06,.03-.02,.01-.04,.02-.06,.02-.02,0-.04,0-.06,.02-.02,0-.02,.02-.03,.03,0,.01,0,.02,0,.04,0,.01,0,.02,0,.04,0,.01,0,.03,.01,.04Z"/>
      <path class="d" d="M30.51,3.46c.24-.24,.52-.42,.84-.55,.32-.13,.68-.2,1.07-.2,.41,0,.79,.08,1.14,.25,.35,.17,.67,.41,.94,.73l1.24-1.14c-.39-.48-.88-.85-1.47-1.1-.58-.25-1.24-.37-1.95-.37-.64,0-1.23,.1-1.78,.31-.55,.21-1.03,.51-1.43,.89-.41,.39-.72,.84-.95,1.36-.23,.52-.34,1.09-.34,1.72s.11,1.2,.34,1.72c.22,.52,.54,.98,.94,1.36,.4,.39,.88,.68,1.43,.89,.55,.21,1.14,.31,1.78,.31,.73,0,1.38-.13,1.97-.38s1.07-.62,1.47-1.1l-1.24-1.14c-.28,.32-.59,.57-.94,.74-.35,.17-.73,.25-1.14,.25-.39,0-.74-.07-1.07-.2-.32-.13-.6-.31-.84-.55-.24-.24-.42-.52-.55-.84-.13-.32-.2-.68-.2-1.08s.06-.75,.2-1.08c.13-.32,.31-.6,.55-.84Z"/>
      <path class="d" d="M41.68,3.74c-.54-.46-1.29-.69-2.26-.69-.51,0-1,.07-1.49,.2-.49,.13-.91,.32-1.26,.57l.65,1.29c.24-.18,.52-.33,.85-.43,.33-.11,.66-.16,1-.16,.5,0,.87,.11,1.11,.33,.24,.22,.36,.53,.36,.92h-1.46c-.65,.01-1.18,.09-1.59,.25-.4,.16-.7,.38-.88,.67-.19,.29-.28,.62-.28,.99s.1,.69,.29,.98c.19,.29,.47,.52,.82,.69,.36,.17,.78,.25,1.27,.25,.56,0,1.02-.11,1.37-.33,.24-.15,.43-.34,.57-.57v.8h1.73v-3.63c0-.97-.27-1.69-.81-2.14Zm-1.57,4.42c-.25,.14-.53,.21-.85,.21s-.57-.07-.75-.21c-.19-.14-.28-.33-.28-.56,0-.21,.08-.39,.24-.53,.16-.14,.46-.21,.89-.21h1.27v.65c-.1,.29-.28,.51-.53,.65Z"/>
      <path class="d" d="M46.39,2.32c.15-.15,.35-.22,.62-.22,.14,0,.28,.02,.4,.06,.13,.04,.24,.09,.34,.17l.49-1.35c-.17-.11-.39-.19-.64-.25-.25-.06-.51-.08-.77-.08-.79,0-1.4,.21-1.82,.64-.43,.43-.64,1-.64,1.73v.28h-.98v1.42h.98v4.81h1.86V4.71h1.57v-1.42h-1.63v-.26c0-.32,.07-.56,.22-.71Z"/>
    </g>
  </g>
</svg>