<?xml version="1.0" encoding="UTF-8"?>
<svg id="b" data-name="圖層 2" xmlns="http://www.w3.org/2000/svg" width="230.31" height="35.43" viewBox="0 0 230.31 35.43">
  <defs>
    <style>
      .d {
        fill: #231815;
      }
    </style>
  </defs>
  <g id="c" data-name="說明">
    <g>
      <g>
        <g>
          <path class="d" d="M57.6,17.56c-.55-.31-1.15-.55-1.79-.72-.64-.17-1.29-.3-1.94-.39-.66-.09-1.26-.19-1.8-.28-.55-.09-.99-.24-1.32-.44-.34-.2-.51-.48-.51-.86,0-.41,.23-.75,.68-1.01,.45-.26,1.18-.39,2.2-.39,.68,0,1.39,.08,2.13,.25,.74,.17,1.47,.46,2.18,.87l1.49-3.13c-.73-.41-1.63-.74-2.69-.97-1.06-.23-2.12-.35-3.17-.35-1.47,0-2.72,.21-3.75,.62-1.03,.41-1.83,.99-2.4,1.73-.56,.74-.85,1.59-.85,2.55,0,.86,.16,1.57,.49,2.11,.33,.55,.77,.97,1.32,1.28,.55,.31,1.16,.55,1.8,.72,.65,.17,1.3,.3,1.96,.39,.66,.09,1.25,.19,1.79,.28,.54,.09,.97,.23,1.3,.41,.33,.18,.49,.45,.49,.8,0,.43-.21,.77-.63,1.01-.42,.24-1.14,.37-2.16,.37-.92,0-1.86-.14-2.8-.41-.95-.27-1.78-.62-2.49-1.03l-1.44,3.13c.71,.47,1.66,.86,2.85,1.17,1.18,.31,2.42,.47,3.72,.47,1.52,0,2.81-.21,3.87-.62,1.06-.41,1.87-.98,2.44-1.7,.56-.72,.85-1.55,.85-2.47,0-.86-.16-1.57-.49-2.11-.33-.54-.77-.97-1.32-1.28Z"/>
          <path class="d" d="M64.32,3.25c-.83,0-1.49,.24-2,.7-.51,.47-.76,1.05-.76,1.75s.25,1.28,.76,1.75c.51,.47,1.17,.7,2,.7s1.49-.24,2-.72c.51-.48,.76-1.09,.76-1.82,0-.69-.26-1.26-.77-1.7-.52-.44-1.18-.66-1.99-.66Z"/>
          <rect class="d" x="62.12" y="10.36" width="4.4" height="15.16"/>
          <path class="d" d="M82.07,12.29c-.45-.58-.99-1.04-1.62-1.38-.97-.52-2.11-.77-3.42-.77s-2.63,.3-3.78,.9c-1.15,.6-2.06,1.45-2.73,2.55-.68,1.1-1.01,2.39-1.01,3.87s.34,2.75,1.01,3.85c.68,1.1,1.59,1.95,2.73,2.56,1.15,.61,2.4,.92,3.78,.92s2.46-.26,3.42-.79c.54-.3,1.01-.69,1.42-1.16v.71c0,1.37-.36,2.4-1.07,3.1-.71,.69-1.84,1.04-3.38,1.04-1,0-1.98-.16-2.94-.47-.97-.31-1.78-.74-2.44-1.28l-1.75,3.18c.88,.69,1.99,1.22,3.31,1.56,1.32,.35,2.7,.52,4.13,.52,2.74,0,4.85-.67,6.31-2.01,1.47-1.34,2.2-3.41,2.2-6.21V10.36h-4.17v1.93Zm-.68,7.12c-.34,.56-.81,1.01-1.41,1.32-.6,.32-1.29,.48-2.06,.48s-1.43-.16-2.04-.48c-.61-.32-1.09-.76-1.44-1.32-.35-.56-.52-1.21-.52-1.94s.17-1.4,.52-1.96c.35-.55,.83-.98,1.44-1.28,.61-.3,1.29-.45,2.04-.45s1.46,.15,2.06,.45c.6,.3,1.07,.73,1.41,1.28,.34,.55,.51,1.21,.51,1.96s-.17,1.38-.51,1.94Z"/>
          <path class="d" d="M102.77,10.86c-.95-.48-2.02-.72-3.23-.72-1.3,0-2.45,.27-3.47,.82-.6,.32-1.11,.74-1.55,1.23v-1.82h-4.2v15.16h4.4v-7.5c0-.96,.16-1.73,.47-2.31,.31-.58,.74-1.02,1.3-1.32,.55-.3,1.18-.45,1.87-.45,.98,0,1.73,.29,2.27,.87,.54,.58,.8,1.48,.8,2.71v8h4.4v-8.68c0-1.54-.27-2.8-.82-3.79-.55-.99-1.29-1.72-2.24-2.2Z"/>
          <path class="d" d="M121.3,11.77c-1.28-1.09-3.07-1.63-5.38-1.63-1.2,0-2.39,.15-3.55,.46-1.17,.31-2.16,.77-2.99,1.37l1.55,3.07c.56-.43,1.24-.77,2.01-1.03,.78-.25,1.57-.38,2.38-.38,1.18,0,2.06,.26,2.63,.79,.57,.53,.86,1.26,.86,2.2v.03h-3.47c-1.56,0-2.82,.19-3.78,.56-.96,.38-1.66,.91-2.1,1.59-.44,.69-.66,1.47-.66,2.35s.23,1.64,.69,2.34c.46,.7,1.11,1.24,1.96,1.65,.85,.4,1.85,.61,3.02,.61,1.33,0,2.42-.26,3.27-.77,.58-.35,1.02-.81,1.35-1.36v1.91h4.11v-8.65c0-2.31-.64-4.01-1.92-5.1Zm-3.73,10.51c-.59,.34-1.26,.51-2.01,.51s-1.35-.16-1.79-.49c-.44-.33-.66-.77-.66-1.34,0-.51,.19-.93,.58-1.27,.38-.34,1.09-.51,2.13-.51h3.02v1.55c-.24,.7-.66,1.21-1.25,1.55Z"/>
          <path class="d" d="M133.98,22.26c-.56,0-1.01-.18-1.34-.54-.33-.36-.49-.85-.49-1.49v-6.14h3.75v-3.38h-3.75v-3.69h-4.42v3.69h-2.34v3.38h2.34v6.23c0,1.8,.5,3.16,1.49,4.07,1,.91,2.39,1.37,4.17,1.37,.68,0,1.33-.08,1.96-.24,.63-.16,1.16-.4,1.59-.72l-1.16-3.1c-.49,.38-1.09,.56-1.8,.56Z"/>
          <path class="d" d="M150.36,17.89c0,.9-.16,1.65-.47,2.25-.31,.6-.73,1.05-1.25,1.35-.53,.3-1.13,.45-1.8,.45-.98,0-1.73-.3-2.27-.89-.54-.59-.8-1.53-.8-2.8v-7.89h-4.4v8.57c0,1.54,.27,2.82,.82,3.83,.54,1.01,1.31,1.77,2.28,2.25,.98,.49,2.1,.73,3.38,.73,1.16,0,2.24-.27,3.21-.8,.58-.32,1.07-.74,1.49-1.24v1.82h4.17V10.36h-4.37v7.52Z"/>
          <path class="d" d="M163.01,12.38v-2.02h-4.2v15.16h4.4v-7.16c0-1.45,.37-2.52,1.1-3.21,.73-.69,1.72-1.04,2.96-1.04,.15,0,.31,0,.47,.03,.16,.02,.32,.05,.49,.08v-4.09c-1.43,0-2.64,.28-3.64,.83-.64,.36-1.16,.84-1.58,1.41Z"/>
          <path class="d" d="M184.51,13.8c-.7-1.16-1.64-2.07-2.83-2.71-1.19-.64-2.53-.96-4.02-.96s-2.93,.33-4.16,1c-1.23,.67-2.19,1.59-2.87,2.78-.69,1.18-1.03,2.53-1.03,4.03s.36,2.84,1.07,4.02c.71,1.17,1.72,2.1,3.02,2.78,1.3,.68,2.81,1.01,4.54,1.01,1.37,0,2.58-.21,3.64-.63,1.05-.42,1.93-1.03,2.62-1.82l-2.34-2.54c-.51,.49-1.07,.86-1.68,1.1-.61,.24-1.31,.37-2.1,.37-.92,0-1.71-.16-2.37-.49-.66-.33-1.17-.8-1.55-1.42-.21-.34-.35-.72-.44-1.13h11.46c.02-.19,.04-.39,.06-.61,.02-.22,.03-.41,.03-.58,0-1.63-.35-3.03-1.04-4.2Zm-8.81,.15c.57-.33,1.24-.49,1.99-.49s1.41,.16,1.97,.49c.56,.33,1,.78,1.32,1.37,.21,.39,.34,.82,.4,1.3h-7.44c.07-.47,.21-.9,.41-1.28,.32-.59,.77-1.05,1.34-1.38Z"/>
        </g>
        <g>
          <path class="d" d="M222,12.27c-.73-.68-1.57-1.21-2.54-1.58-.97-.37-2.03-.55-3.19-.55s-2.22,.19-3.19,.57c-.97,.38-1.82,.91-2.54,1.59-.73,.68-1.29,1.48-1.68,2.4-.4,.91-.6,1.92-.6,3.02s.2,2.09,.6,3.01c.4,.92,.96,1.72,1.68,2.41,.73,.68,1.58,1.21,2.55,1.59,.98,.38,2.04,.57,3.2,.57s2.2-.19,3.17-.55c.97-.37,1.82-.9,2.54-1.58,.73-.68,1.29-1.49,1.68-2.42,.4-.93,.6-1.94,.6-3.02s-.2-2.11-.6-3.03c-.4-.92-.96-1.72-1.68-2.41Zm-1.5,7.34c-.23,.57-.55,1.06-.97,1.49-.42,.43-.9,.75-1.45,.98-.55,.23-1.15,.35-1.81,.35s-1.26-.12-1.82-.35c-.56-.23-1.04-.56-1.45-.98-.41-.43-.73-.92-.96-1.49-.23-.57-.35-1.2-.35-1.89s.12-1.33,.35-1.89c.23-.57,.55-1.06,.96-1.49,.41-.43,.9-.75,1.45-.98,.56-.23,1.16-.35,1.82-.35s1.26,.12,1.81,.35c.55,.23,1.04,.56,1.45,.98,.42,.43,.74,.92,.97,1.49,.23,.57,.35,1.2,.35,1.89s-.12,1.33-.35,1.89Z"/>
          <rect class="d" x="226.92" y="10.43" width="3.39" height="14.57"/>
          <path class="d" d="M202.24,16.83l4.59-6.4h-3.88l-3.9,5.43c-.56-.08-1.16-.12-1.8-.12-.31,0-.6,.01-.89,.03v-5.34h-3.35v14.57h3.35v-6.49c.29-.03,.59-.05,.89-.05,3.44,0,6.08,2.15,6.08,6.54h3.41c0-2.84-1.12-6.41-4.52-8.17Z"/>
        </g>
      </g>
      <path class="d" d="M17.72,0C7.95,0,0,7.95,0,17.72c0,5.62,2.72,10.96,7.27,14.3,.74,.54,1.54,1.03,2.36,1.46,2.52,1.3,5.24,1.96,8.08,1.96,9.77,0,17.72-7.95,17.72-17.72S27.49,0,17.72,0ZM8.47,6.02s.09-.05,.15-.05c.04,0,.07,0,.1,.02,.08,.04,.13,.12,.13,.21v15.48h2.8V4.55c0-.28,.17-.54,.42-.64,1.8-.74,3.7-1.11,5.64-1.11,2.2,0,4.31,.47,6.29,1.39,.12,.06,.13,.17,.13,.21,0,.03,0,.15-.13,.21l-7.12,3.56c-1.51,.75-2.44,2.27-2.44,3.95s.94,3.2,2.44,3.95l7.85,3.93c.55,.28,.89,.83,.89,1.45s-.34,1.17-.89,1.45l-14.33,7.17c-.38,.19-.84,.16-1.2-.09-4.02-2.8-6.42-7.38-6.42-12.25,0-4.58,2.07-8.84,5.68-11.7Zm5.08,25.6l12.45-6.22c1.51-.75,2.44-2.27,2.44-3.95s-.94-3.2-2.44-3.95l-7.85-3.93c-.55-.28-.89-.83-.89-1.45s.34-1.17,.89-1.45l8.31-4.15c.17-.08,.34-.12,.52-.12,.29,0,.57,.1,.79,.3,3.54,3.23,5.29,7.82,4.79,12.6-.71,6.83-6.16,12.39-12.97,13.22-2.04,.25-4.06,.09-6-.47-.14-.04-.16-.16-.16-.2,0-.04,0-.17,.13-.23Z"/>
    </g>
  </g>
</svg>