<?xml version="1.0" encoding="UTF-8"?>
<svg id="b" data-name="圖層 2" xmlns="http://www.w3.org/2000/svg" width="188.27" height="42.41" viewBox="0 0 188.27 42.41">
  <defs>
    <style>
      .d {
        fill: #ca6d4f;
      }

      .e {
        fill: none;
        stroke: #2d2a26;
        stroke-linecap: square;
        stroke-miterlimit: 10;
        stroke-width: .6px;
      }

      .f {
        fill: #2d2a26;
      }
    </style>
  </defs>
  <g id="c" data-name="說明">
    <g>
      <g>
        <path class="f" d="M65.67,25.05c-1.79-3.06-3.71-4.03-5.37-4.03-1.19,0-2.21,.5-2.88,1.07-.63,.47-1.15,1.58-1.37,2.65V13.43c0-1.42,.17-2.31,1.64-2.31v-.25c-1.52,.1-2.41,.15-3.33,.15-.87,0-1.72-.05-3.14-.15v.25c1.47,0,1.64,.94,1.64,2.39v15.45c0,.4,.03,.77-.05,1.07-.12,1.19-.55,1.77-1.92,1.77v.25c.32-.03,.67-.03,1.07-.05,.67-.03,1.59-.05,2.66-.05s2.24,.03,3.41,.1v-.25c-1.64,0-1.99-.82-1.99-2.59v-2.31c.12-1.57,.3-2.83,.87-3.81,.41-.71,.85-1.05,1.62-1.05s1.62,.4,2.39,1.37c.87,1.12,1.52,2.36,2.24,3.56,1.22,2.09,2.26,3.81,3.08,5.07,.72-.07,3.76,0,4.55,0v-.25c-1.12-.65-3.16-3.38-5.13-6.74Z"/>
        <path class="f" d="M80.37,10.87c-5.97,0-10.4,4.45-10.4,10.52s4.4,10.65,10.45,10.65,10.42-4.75,10.42-10.65-4.4-10.52-10.47-10.52Zm5.35,19.42c-4.44,2.66-8.85-.64-11.55-5.14-2.75-4.59-3.6-9.83,.93-12.54,4.5-2.7,8.83,.6,11.53,5.1,2.62,4.38,3.47,9.96-.9,12.58Z"/>
        <path class="f" d="M97.78,29.2V13.43c0-1.42,.17-2.31,1.64-2.31v-.25c-1.52,.1-2.41,.15-3.33,.15-.87,0-1.72-.05-3.14-.15v.25c1.47,0,1.64,.94,1.64,2.39v15.7c0,1.82-.2,2.59-1.97,2.59v.25c.32-.03,.67-.03,1.07-.05,.67-.03,1.59-.05,2.66-.05s2.24,.03,3.41,.1v-.25c-1.64,0-1.99-.82-1.99-2.59Z"/>
        <path class="f" d="M121.93,10.87h-9.36v.25c1.92,0,1.97,1.34,1.97,2.84v15.45c0,.5,0,1.29-.27,1.72-.3,.55-.8,.67-1.37,.67v.25c.42-.03,.9-.07,1.42-.1,.52-.03,1.04-.03,1.62-.03,1.15,0,2.29,.05,3.43,.13v-.25c-.55,0-1.02-.13-1.32-.6-.27-.37-.32-1.07-.32-1.52V11.14h3.28c2.09,0,3.98,.57,4.93,2.56,.27,.62,.4,1.42,.37,2.36-.07,2.39-1.59,3.41-3.68,3.98-1.74,.54-3.22,1.29-4.16,2.64v.57c1.1-1.76,3.18-2.22,5.48-2.63,.7-.12,1.37-.25,2.04-.4,2.31-.52,3.51-1.82,3.51-4.15,0-4.58-3.95-5.2-7.56-5.2Z"/>
        <path class="f" d="M174.61,15.49c0-2.81,2.61-4.35,5.52-4.35,3.18,0,5.65,2.44,5.77,5.72l.25,.03,1.24-4.3c-2.36-1.17-4.53-1.72-7.24-1.72-4.08,0-8.36,1.49-8.36,5.57,0,7.64,13.56,5.08,13.56,10.9,0,3.08-2.69,4.45-5.95,4.45-3.66,0-5.95-2.59-6.47-6.17l-.2-.03-1.12,4.33c2.41,1.49,4.95,2.12,7.81,2.12,4.68,0,8.83-1.47,8.83-6.07,0-7.81-13.66-5-13.66-10.47Z"/>
        <path class="d" d="M57.59,20.22s1.45-2.03,5.75-2.11c4.58-.08,5.2-4.47,4.12-7.74h-.15s.42,3.58-4.38,4.58c-4.27,.88-5.32,4.25-5.49,5.2l.14,.07Z"/>
        <path class="f" d="M134.6,31.92l.11,.12s.6-.38,1.74-.52v-1.46c-1.01,.68-1.62,1.48-1.85,1.87Z"/>
        <path class="f" d="M166.28,10.87v.25c1.47,0,1.64,.94,1.64,2.39v11.89c-.07,3.66-2.34,5.57-5.9,6.17-.4,.07-.8,.1-1.17,.1-3.46,0-5.87-2.56-5.87-6.04V13.43c0-.7,.1-1.24,.27-1.67,.17-.4,.57-.62,1.25-.65h.13v-.25s-.07,0-.1,0c-.07,.02-.12,.02-.2,.02h-.2c-1.19,.07-1.96,.13-2.84,.13s-1.72-.05-3.14-.15v.25c1.47,0,1.64,.94,1.64,2.39v12.12c0,4.53,4.08,6.42,7.81,6.42h.37c2.61-.1,8.21-.8,8.21-6.89V13.5c0-1.44,.17-2.39,1.64-2.39v-.25c-.52,.05-1.07,.07-1.64,.07-.77,0-1.39-.03-1.92-.07Z"/>
        <path class="f" d="M131.3,11.12v-.25c1.62,.07,2.56,.12,3.53,.12s1.94-.05,3.61-.12v.25c-1.64,0-1.99,.82-1.99,2.59V31.77h3.28c4.7,0,6.62-1.04,9.08-4.45,.07,0,.15,.07,.2,.1l-.85,4.55v.07h-16.55v-.25c1.47,0,1.64-.94,1.64-2.39V13.95c0-1.44-.15-2.31-.95-2.66-.27-.12-.6-.17-1.02-.17Z"/>
        <g>
          <path class="f" d="M82.16,21.45h0v-.2c-1.1,0-1.61-.51-1.61-1.61h-.4c0,1.1-.51,1.61-1.61,1.61v.4c1.1,0,1.61,.51,1.61,1.61h.4c0-1.1,.51-1.61,1.61-1.61v-.2h0Z"/>
          <rect class="f" x="78.21" y="21.25" width="4.27" height=".41"/>
          <rect class="f" x="76.83" y="21.25" width="7.03" height=".41" transform="translate(101.8 -58.89) rotate(90)"/>
        </g>
      </g>
      <g>
        <path class="f" d="M16.96,1.41c10.47,0,15.55,6.48,15.55,19.79s-5.09,19.79-15.55,19.79S1.41,34.52,1.41,21.21,6.5,1.41,16.96,1.41m0-1.41C4.85,0,0,8.23,0,21.21s4.85,21.21,16.96,21.21,16.96-8.23,16.96-21.21S29.08,0,16.96,0h0Z"/>
        <g>
          <path class="f" d="M17.32,6.55h-4.86v.13c1,0,1.02,.7,1.02,1.47v8.03c0,.26,0,.67-.14,.89-.15,.28-.41,.35-.71,.35v.13c.22-.01,.47-.04,.74-.05,.27-.01,.54-.01,.84-.01,.6,0,1.19,.03,1.78,.07v-.13c-.28,0-.53-.07-.69-.31-.14-.19-.17-.56-.17-.79V6.69h1.71c1.09,0,2.07,.3,2.56,1.33,.14,.32,.21,.74,.19,1.23-.04,1.24-.83,1.77-1.91,2.07-.91,.28-1.67,.67-2.16,1.37v.29c.57-.91,1.65-1.16,2.85-1.37,.36-.06,.71-.13,1.06-.21,1.2-.27,1.82-.94,1.82-2.16,0-2.38-2.06-2.7-3.93-2.7Z"/>
          <g>
            <path class="f" d="M20.13,32.31c-.93-1.59-1.93-2.09-2.79-2.09-.62,0-1.15,.26-1.5,.56-.33,.24-.6,.82-.71,1.38v-5.88c0-.74,.09-1.2,.85-1.2v-.13c-.79,.05-1.25,.08-1.73,.08-.45,0-.89-.03-1.63-.08v.13c.76,0,.85,.49,.85,1.24v8.03c0,.21,.01,.4-.03,.56-.06,.62-.28,.92-1,.92v.13c.17-.01,.35-.01,.56-.03,.35-.01,.83-.03,1.38-.03s1.16,.01,1.77,.05v-.13c-.85,0-1.03-.43-1.03-1.35v-1.2c.06-.81,.16-1.47,.45-1.98,.21-.37,.44-.54,.84-.54s.84,.21,1.24,.71c.45,.58,.79,1.23,1.16,1.85,.63,1.09,1.18,1.98,1.6,2.64,.38-.04,1.95,0,2.37,0v-.13c-.58-.34-1.64-1.76-2.66-3.51Z"/>
            <path class="d" d="M15.94,29.8s.75-1.06,2.99-1.09c2.38-.04,2.7-2.32,2.14-4.03h-.08s.22,1.86-2.28,2.38c-2.22,.46-2.77,2.21-2.85,2.7l.07,.04Z"/>
          </g>
          <line class="e" x1="6.9" y1="21.25" x2="27.03" y2="21.25"/>
          <g>
            <path class="f" d="M23.45,6.64h0v-.09c-.49,0-.72-.23-.72-.72h-.18c0,.49-.23,.72-.72,.72v.18c.49,0,.72,.23,.72,.72h.18c0-.49,.23-.72,.72-.72v-.09h0Z"/>
            <rect class="f" x="21.67" y="6.55" width="1.92" height=".18"/>
            <rect class="f" x="21.05" y="6.55" width="3.16" height=".18" transform="translate(29.28 -15.99) rotate(90)"/>
          </g>
        </g>
      </g>
    </g>
  </g>
</svg>