<?xml version="1.0" encoding="UTF-8"?>
<svg id="b" data-name="圖層 2" xmlns="http://www.w3.org/2000/svg" width="102.08" height="51.04" viewBox="0 0 102.08 51.04">
  <defs>
    <style>
      .e {
        fill: #b4cdbd;
      }

      .f {
        fill: #231815;
      }
    </style>
  </defs>
  <g id="c" data-name="b">
    <g id="d" data-name="c">
      <g>
        <path class="e" d="M65.11,14.73c-.02,.33-.04,.66-.09,1-.03,.16-.05,.33-.08,.49l-.05,.25-.06,.27c-.3,1.45-.39,2.92-.36,4.37,.03,1.45,.18,2.91,.48,4.34,.3,1.43,.75,2.85,1.47,4.18,.36,.66,.8,1.3,1.36,1.86,.56,.56,1.25,1.02,2.04,1.27h0c.22,.07,.47,.02,.64-.16,1.07-1.08,2.09-2.23,3-3.48,.9-1.25,1.71-2.6,2.25-4.07,.56-1.47,.83-3.04,.81-4.61,0-.78-.08-1.56-.22-2.33-.14-.76-.32-1.51-.56-2.25-.24-.73-.51-1.45-.83-2.15-.15-.35-.32-.69-.48-1.03-.16-.34-.32-.69-.51-1.03-.73-1.36-1.67-2.58-2.68-3.71s-2.11-2.18-3.26-3.15c-1.15-.98-2.35-1.9-3.59-2.73,1.19,.92,2.31,1.92,3.39,2.96,1.08,1.04,2.11,2.13,3.05,3.28,.93,1.15,1.79,2.39,2.43,3.7,.16,.33,.3,.67,.45,1.01,.15,.34,.3,.69,.44,1.03,.28,.69,.52,1.38,.72,2.09,.21,.7,.36,1.42,.47,2.14,.11,.72,.16,1.44,.15,2.16-.02,1.44-.32,2.86-.84,4.2-.53,1.34-1.29,2.59-2.17,3.75-.8,1.06-1.7,2.04-2.64,3.01-.42-.2-.82-.47-1.17-.83-.45-.44-.82-.99-1.13-1.57-.63-1.17-1.04-2.48-1.32-3.82-.27-1.35-.42-2.72-.46-4.1-.03-1.38,.05-2.76,.32-4.08l.05-.25,.05-.28c.04-.19,.07-.37,.09-.56,.05-.37,.08-.75,.1-1.12,.03-.75-.01-1.49-.1-2.22-.19-1.46-.56-2.87-.99-4.24s-.94-2.71-1.45-4.03c-.18-.46-.36-.93-.54-1.38,.45,.57,.89,1.14,1.3,1.74,.94,1.35,1.75,2.79,2.45,4.28,.69,1.49,1.25,3.06,1.65,4.66,.2,.8,.35,1.62,.47,2.44s.19,1.65,.16,2.48c.16-1.66,0-3.35-.3-4.99-.3-1.65-.8-3.27-1.43-4.83-.64-1.56-1.42-3.06-2.33-4.49-.9-1.43-1.93-2.78-3.05-4.04-.13-.14-.33-.2-.52-.14-.26,.08-.4,.36-.32,.62h0c.44,1.37,.93,2.71,1.4,4.04,.48,1.33,.95,2.66,1.36,3.99,.4,1.33,.72,2.69,.87,4.04,.08,.68,.11,1.35,.08,2.02h0Z"/>
        <path class="e" d="M102.07,28.58c-.03-.51-.16-.99-.34-1.44-.36-.89-.92-1.65-1.57-2.29-.65-.65-1.42-1.17-2.24-1.54-.83-.36-1.74-.54-2.61-.49,.87,.13,1.69,.44,2.41,.88,.72,.44,1.36,1.02,1.89,1.66,.53,.64,.95,1.37,1.2,2.13,.12,.38,.19,.76,.19,1.12v.07c-1.09-1.26-2.28-2.45-3.61-3.49l-.61-.46-.3-.23c-.1-.08-.21-.14-.32-.21l-.64-.42c-.21-.14-.44-.26-.66-.39-.44-.27-.91-.48-1.37-.71-.23-.1-.47-.2-.71-.3-.12-.05-.23-.1-.36-.14l-.36-.13c-1.94-.69-4.07-.91-6.1-.6-.26,.04-.51,.09-.76,.14-.25,.06-.5,.12-.74,.19-.49,.15-.97,.32-1.43,.53-.92,.41-1.8,.94-2.54,1.61,.85-.52,1.77-.88,2.7-1.16,.47-.14,.94-.25,1.42-.33,.24-.04,.48-.08,.71-.11,.24-.02,.48-.05,.72-.06,1.92-.11,3.82,.23,5.59,.94l.33,.13c.11,.04,.22,.1,.33,.15l.65,.3c.42,.22,.86,.43,1.26,.69,.83,.47,1.61,1.05,2.37,1.63,.03,.02,.06,.05,.09,.08-.5-.21-.99-.39-1.5-.54-1.45-.45-2.96-.71-4.48-.88-1.51-.16-3.04-.2-4.56-.18-1.51,.04-3.76,.11-6.44,.71-.63,.18-1.24,.4-1.82,.68-.02,0-.03,.02-.05,.03,.43-.41,.86-.83,1.27-1.25l4.68-4.62c.9-.88,1.81-1.75,2.71-2.63,1.15,.33,2.39,.41,3.6,.18,.73-.14,1.44-.39,2.1-.74,.66-.34,1.27-.79,1.83-1.29,.56-.5,1.05-1.07,1.48-1.67,.44-.6,.82-1.24,1.15-1.89,.67-1.31,1.14-2.7,1.52-4.1,.02-.05,.02-.12,.02-.18,0-.36-.3-.65-.67-.65h0c-1.44,.02-2.89,.2-4.29,.58-1.4,.38-2.76,.97-3.96,1.81l-.44,.32c-.07,.05-.15,.1-.22,.16l-.21,.18c-.27,.24-.56,.46-.8,.74-.25,.27-.5,.52-.71,.82-.22,.29-.45,.56-.63,.88-.77,1.21-1.3,2.55-1.59,3.93,.57-1.29,1.24-2.5,2.11-3.55,.86-1.06,1.9-1.93,3.04-2.61,1.15-.67,2.41-1.15,3.71-1.46,1.01-.24,2.05-.38,3.1-.44-.11,.38-.23,.75-.36,1.12-.22,.65-.48,1.29-.77,1.9-.57,1.24-1.31,2.39-2.22,3.37-.46,.49-.98,.91-1.54,1.28-.56,.37-1.18,.66-1.82,.86-1.05,.34-2.18,.43-3.31,.33,.63-.6,1.25-1.2,1.9-1.79,.81-.74,1.61-1.48,2.45-2.18s1.68-1.41,2.63-1.97c-.54,.14-1.05,.38-1.55,.63-.5,.25-.99,.53-1.46,.82-.95,.58-1.86,1.24-2.74,1.91-1.76,1.36-3.41,2.85-5,4.39-.78,.79-1.56,1.57-2.31,2.38-.37,.41-.75,.82-1.12,1.23l-.55,.62c-.18,.21-.36,.42-.54,.63-.71,.85-1.42,1.69-2.09,2.57-.14,.18-.27,.36-.41,.54-.41,.29-.81,.59-1.19,.91-.48,.42-.94,.87-1.37,1.33-.42,.48-.83,.96-1.2,1.48-.45,.62-.86,1.27-1.24,1.93-.34,.53-.66,1.07-.96,1.61-.8,1.42-1.51,2.89-2.16,4.37-.33,.75-.63,1.5-.93,2.25-.15,.38-.29,.76-.42,1.14s-.27,.75-.41,1.11c-.28,.71-.62,1.36-1.11,1.84,0,0-.34,.31-.39,.39-.1,.15-.15,.31-.15,.5,.01,.18,.07,.34,.19,.49,.06,.08,.3,.32,.3,.32,.03,.03,1.63,.89,1.73,.91,.19,.05,.38,.06,.56,.01,.37-.1,.62-.44,.72-.82l.17-.63,.15-.59,.19-.77s.68-3.82,1.72-7.33c.3-1.02,.77-1.99,1.18-2.97,.56-1.06,1.19-2.06,1.91-3,.35-.48,.74-.92,1.14-1.36,.41-.42,.82-.84,1.27-1.22,.89-.76,1.87-1.42,2.92-1.91,.52-.25,.38-.25,1.62-.63,1.25-.38,3.19-.56,3.92-.64,.74-.09,1.48-.15,2.22-.2,1.48-.1,2.96-.13,4.44-.07s2.96,.22,4.41,.52c.8,.17,1.6,.39,2.37,.66,1.2,1.02,2.33,2.13,3.4,3.31l.03,.03s.08,.08,.13,.11c.27,.16,.62,.07,.77-.21,.29-.5,.39-1.07,.35-1.58v-.02Zm-35.95,17.85h0Zm2.08-5.66h0v0h0Z"/>
      </g>
      <g>
        <path class="f" d="M14.05,24.2c-.1,.47-.2,.93-.29,1.41-.12,.57-.46,.91-1.04,1.03-.45,.09-.9,.19-1.44,.29-.11,.1,.18,.14,.25,.15,.6,.13,1.2,.25,1.81,.37,.18,.03,.28,.1,.32,.3,.1,.6,.24,1.2,.37,1.8,.02,.06,.08,.28,.15,.18,.03-.04,.17-.75,.26-1.12,.07-.29,.14-.58,.19-.87,.03-.21,.13-.27,.32-.3,.59-.11,1.18-.25,1.77-.38,.06-.01,.25-.06,.25-.11,0-.04-.31-.09-.43-.12-.52-.11-1.04-.22-1.56-.33-.2-.04-.31-.11-.35-.34-.11-.6-.27-1.2-.4-1.8-.01-.05-.03-.12-.05-.17-.02-.02-.06-.04-.09,0"/>
        <path class="f" d="M4.47,17.81v-.05h-.08s0,.02,.08,.05Z"/>
        <path class="f" d="M5.02,17.73c-.08-.05-.2-.05-.35-.05-.03,.03,0,.03-.08,.05,.08,.05,.25,0,.42,0Z"/>
        <path class="f" d="M5.72,17.68h.05v-.08h-.55s-.08,.02-.15,.02v.1c.28,0,.53,.05,.65-.05h0Z"/>
        <path class="f" d="M29.42,46.35c.1-.47,.25-.95,.18-1.5-.05-.55,.18-.98,.18-1.48l.03-.88c.05-.25,.03-.73-.02-.98-.08-.28,.05-.6,.08-.75,.05-.22-.05-.48-.07-.63-.05-.25,.05-.53,.03-.78,0-.63-.02-1.05-.15-1.63-.13-.48,.03-.9-.35-1.26-.02-.05-.02-.1-.02-.15l.02,.1c-.1-.5,.18-.58,.43-.85,.25-.38,.58-.68,.86-1.05,.25-.25,.33-.63,.58-.88,0-.02,0-.05-.03-.08-.23,.13-.4,.38-.63,.53-.56,.5-1.15,.68-1.41,1.33-.15-.38-.07-.58-.3-1.03-.13-.28-.2-.68-.3-1-.08-.25,.03-.42-.13-.58-.13-.15-.35-.23-.42-.43,.03-.3-.05-.5-.17-.86-.08-.17,.1-.35,0-.5-.1-.2-.35-.2-.45-.43-2.35-1.8-4.77,.16-4.77,.16-.28,.1-.56,.22-.81,.4l-.23,.15c-.13,.1-.28,.17-.35,.27-.13,.1-.53,.47-.56,.48-.01,.01-.02,.03-.03,.04h0c-.19,.15-.42,.33-.68,.56l-1.03,.93-1.38,1.05c-.2,.1-.6,.38-.81,.5-.1,.05-.58,.22-.65,.27-.17,.1-.5,.15-.45,.05-.63-1.33-.57-3.41-1.17-4.19-.15-.2-.47-.2-.88-.2-.1,.08-.22,.02-.35,.08-.25,.15-.6,.38-.88,.62v-.09c-.4,.08-1.31,1.02-1.58,1.23-.3,.22-.58,.4-.88,.63-.23,.15-.38,.45-.56,.63-.3,.3-.68,.52-.98,.85-.47-1.06-1.42-2.57-2.3-3.55-.53-.45-.5-.9-.8-1.31-.08-.08-.17-.13-.25-.17l-.08-.25c-.22-.33-.55-.58-.77-.9-.08-.1-.1-.28-.2-.38-.28-.28-1.65-2.01-1.8-2.06-.17-.38-.4-.7-.68-1.18-.47-.78-1.1-1.86-.84-3.09,.46-2.18,.74-2.98,2.72-3.83,.3-.13,.53-.33,.93-.38v-.08c-1.66,.37-3.04,1.3-3.59,2.73-.15,.4-.2,.7-.33,1.11-.2,.63-.3,.72-.33,1.5l.05,.81c.67,2.79,2.24,4.92,3.19,7.48,.38,1.03,.8,2.84,.67,3.87-.03,.2,.1,.45,0,.63-.18,1.75-.23,2.18-1.01,4.44-.05,.17-.18,.93-.3,.95-.18,.48-.15,.7-.1,1,.03,0,.05,.42,.17,.6,.13,.25,.4,.35,.6,.43,.08-.03,.15,.15,.25,.13,.2,.05,.4,.23,.58,.3,.15,.05,.35,0,.48,.08l.5,.13c.08-.03,.25,.05,.38-.03,.05-.08,0-.02,0-.13,.1-.05,.2-.1,.3-.13,.03-.05-.02-.15,.03-.17,.13-.08,.22,.08,.35,0,.1-.15,.23-.28,.33-.42,.58-.38,.75-.58,1.11-1.18h.2v-.17c.33-.25,1.11-1.28,.93-1.73,.08-.03,.1-.03,.23-.38,.25-.53,.08-1.63-.04-2.73-.02-.22-.02-.48-.17-.78,0-.23,.35-1,.43-1.11,.45-.47,1.01-.95,1.54-1.35,.35-.25,1.29-1.38,1.66-1.63v-.09c.23-.11,.49-.29,.7-.46,.15-.1,.35-.1,.48-.25,.28,0,.38,.1,.55,.28,.05,.28,.15,.38,.17,.63,.05,.35,.02,.58,.02,1,0,1.48,.17,2.06,.17,2.09,0,.22,.1,.42,.1,.63,.25,.13,.38,.42,.65,.53,.13,.08,.6,.08,.68,.05,.13-.08,.22-.15,.38-.2,.05-.03,.45-.17,.53-.27,.05,0,.05-.1,.53-.5,.17-.13,.6-.55,1.08-1.03,.1-.1,.2-.2,.38-.3-.03-.08,.05-.13,.1-.2,.38-.38,.7-.7,.88-.93,0,0,.5-.4,.88-.77,.08-.05,.15-.15,.2-.2h0c.23-.21,.6-.55,.73-.63,.2-.13,.48-.25,.6-.3h.17c.05,.42-.28,.68-.45,.97-.28,.4-1.03,2-.86,2.66,.15,.53,.3,.95,.63,1.33,.17,.22,.47,.23,.75,.35,1.15,.4,2.06-.07,2.84-.59,.17-.1,.35-.13,.5-.25,.25-.22,.48-.48,.73-.7,0-.25-.02-.5,.08-.65,.1-.17,.25-.1,.48-.08,.35,.68,.52,1.13,.87,1.68,.05,.05,.05,.13,.1,.17,.17,.58-.53,1.08-.78,1.5-.4,.6-.93,1.38-1.33,1.96-.13,.17-.2,.35-.28,.55-.6,.9-1.36,2.18-1.89,3.51-.13,.13-.15,.35-.22,.55-.2,.52-.33,1.03-.51,1.66-.23,.86-.53,2.71-.16,3.71,.13,.38,.5,.65,.7,.95,.08,.13,.13,.3,.22,.38,.13,.13,1.03,.33,1.38,.23,.3-.1,.58-.05,.93-.17,.65-.22,1.26-.77,1.63-1.25,.08-.1,.28-.1,.35-.17l.08-.38c.05-.08,.2-.1,.25-.17,.23-.33,.33-.68,.56-1,.05-.05,.13-.1,.17-.13v-.3l.33-1.1h.01Zm-6.82-10.63c-.28,.1-.54,.15-.68,.05-.07-.03-.1-.05-.14-.08-.03-.03-.07-.06-.11-.09-.02-.02-.04-.04-.05-.07-.12-.17-.1-.49-.02-.89,.08-.33,.4-.83,.56-1.03,.25-.4,.63-.98,.86-1.38,.05-.1,.22-.1,.3-.17,.08-.1,.38-.7,.38-.75,1.39-.45,1.74-.17,1.8,.13-.04,.47-.43,4.01-2.89,4.28Zm5.08,12.52c-.38,.52-.58,.77-.91,1.15-.13,.25-.28,.2-.48,.42-.33,.33-1.61,.68-2.48,.57-.28-.3-.68-.63-.85-1.06-.47-1.23,.03-3.46,.44-4.47,.17-.42,.2-.93,.4-1.28,.33-.85,.83-1.86,1.34-2.68,.08-.15,.3-.5,.58-.93l.03-.13c.48-.75,1.11-1.43,1.63-2.03l.17-.2c.13-.22,.68-.7,.75-.58l.1,.17,.08,.28c.15,.25,.02,.6,.07,.8,.1,.35,.15,.9,.25,1.31v.55c.05,.15,.13,.58,.17,.73-.02,.1,.05,.7,.05,.83,.08,.4,.15,.9,.07,1.23-.08,.38-.05,1-.05,1.3,0,.17,0,.33-.03,.5-.33,1.63-.58,1.91-.74,2.23v.22c-.13,.28-.45,.83-.6,1.03h.02Z"/>
        <path class="f" d="M59.8,31.19c-.36,.46-.61,.64-1.17,1.12-.54,.45-1.44,1.21-1.96,1.63-.3,.3-.4,.53-.86,.47-.2-.25-.72-.38-.7-.78-.25-.13-.4-.35-.63-.5,.08-.1,.1-.17,.13-.3,0-.03-.15-.08-.15-.1-.05-.22,.1-.38,.03-.55-.05-.1-.2-.13-.22-.28-.27-1.43-1.52-2.71-3.51-2.37h-.48c-.55,.15-.98,.57-1.43,.95l-.5,.3c-.35,.39-.59,.82-.72,1.26-.34,.2-1.26,1-1.45,1.09-.65,.45-.96,.85-1.58,1.27-.13,.1-.33,.3-.5,.38-.6,.2-1.36-.53-1.61-.73-.35-.33-.7-.68-.85-1.2,0-.08,.03-.15,.03-.25-.03,0-.05-.03-.08-.03,0-.25-.08-.25-.1-.53l-.08-.08c-.05-.22,.05-.5-.02-.8-.03-.05-.1-.08-.08-.2,0-.05,.08,0,.08-.05-.1-.65-.47-1.33-.72-2.09-.53-.25-.88-.18-1.31,.3h-.1l-.13,.2c-.15,.17-.28,.17-.43,.33-.4,.4-.45,.5-.83,1.08-.6,.88-.99,1.88-1.39,3.01-.13,.35-.33,.78-.4,1.2h-.13c0-.4-.13-.68-.22-.98-.3-1.13-.62-2.06-1.35-2.44-.95-.51-1.56,.32-2.06,.75-.17,.15-.35,.33-.45,.53h-.03s0,.03,.03,.05c.33-.13,.38-.33,.6-.5,.38-.3,.95-.8,1.56-.68,.22,.05,.4,.13,.63,.4,.5,.63,.55,1.53,.87,2.66,.08,.28-.13,.42-.15,.6-.13,.47,.07,.98,.42,1.28,.42,.03,.76-1.35,.93-1.8,.17-.42,.35-1,.53-1.45,.13-.3,.1-.58,.25-.83,.68-1.1,1.01-1.78,1.81-2.28,.42,.05,.33,.23,.42,.65,.17,.65,.1,.78,.27,1.53,.02,.3-.03,.58,.13,.83l.02,.08c.02,1,.22,1.36,.52,2.04,.05,.15,.17,.15,.22,.28h.13c-.03,.08,0,.08-.05,.1,.1,.22,.2,.13,.38,.2,.13,.05,.28,.17,.4,.2,.33,.08,.93-.17,1.31-.2v-.1c.75-.35,1.36-.75,2.04-1.15,.23-.15,.35-.4,.65-.45,.05-.4,.73-.85,.96-1.13,.06-.11,.5-.56,.83-.82-.13,.7,0,1.41,.35,2,.08,.03,.2,.08,.25,.15,.17,.17,.4,.4,.6,.58l.33,.15c.3,.28,.85,1.13,1.5,.86,.15,0,.28-.1,.4-.22,.25-.25,.28-1.13,.51-1.61,.38-.8,.58-1.81,.78-2.98,.13-.78,.15-.78,.05,.03,.03,.05,0,0,.08,.08,.35,1.56,.67,3.77,1.39,4.35,.42,.35,1.25,.38,2.13,.23,.28-.05,.65-.32,.83-.58,0-.1,.03-.2,.05-.3,.13-.2,.68-1.41,.88-1.53,.3-.33,.6-.68,1.38-1.45h-.01c.11-.09,.22-.19,.34-.3,.2-.2,.28-.35,.5-.47-.08-.13,0-.05-.13-.1l.02-.03Zm-8.84,2.89c-.33-.03-.58-.05-.95-.13-.2-.33-.42-.7-.42-1.15,0-.42,.4-.8,.56-1,.48-.63,1.06-1.23,2.09-.8,.02,.07,.03,.13,.02,.2-.05,0-.08,0-.13-.03-.3,1-.78,1.98-1.16,2.91h0Z"/>
        <path class="f" d="M61.26,29.66c-.03,.05-.06,.11-.08,.17l.05-.03c.1-.08,.05-.05,.03-.15h0Z"/>
        <path class="f" d="M60.96,29.91c-.02,.05-.03,.11-.03,.17l.05,.03c0-.08,.05-.08,.08-.08-.05-.13,.03-.05-.1-.13Z"/>
        <path class="f" d="M61.36,29.47v.13h.13s.03-.02,.05-.02v-.13l-.17,.02Z"/>
        <path class="f" d="M60.55,30.36c-.1,.15-.28,.4-.43,.5v.08h.05c.1-.15,.3-.4,.48-.5-.08-.1,0-.03-.1-.08Z"/>
        <path class="f" d="M66.3,38.71c-.02-.38,.2-.77,.28-1.15,.05-.22,.1-.22,.17-.45,.1-.33-.05-.83,.18-.98,0-.15,.08-.38,.08-.55,0-.33,0-.63,.05-1.06,.4-.15,1.56,.1,2.01-.2,.13,0,.28-.05,.4-.05-.22-.23-.85-.43-1.23-.53-.4-.1-.7-.15-1.08-.26-.02-.78,0-1.45,0-2.11,0-.4-.04-.93-.1-1.25-.1-.27,.05-.88-.02-1.15,.02-.1,.05-1.11-.1-1.5-.05-.05-.1-.53-.13-.56,0-.08,.02-.15,.03-.22l-.15-.13c-.07-.15,.1-.15,.05-.33-.08-.33-.35-.58-.45-.86,0-.15-.13-.28-.15-.42l-.15-.25s-1.15,0-1.28,.1c-.13,.08-.28,.25-.3,.4-.13,.23,.1,.43,.02,.68-.08,.17-.47,.68-.6,.85-.1,.1-.28,.17-.38,.3-.27,.27-.45,.72-.73,1.02-.05,.05-.15,.05-.21,.13-.3,.38-.63,.7-.93,1.08,0,.05,.02,.08,.02,.13,.38-.28,.66-.65,.93-.95,.78-.77,1.84-1.45,2.39-2.43h.08c.3,.63-.13,1.88-.26,2.41-.15,.63-.25,1.13-.38,1.63-.23,.9-.35,1.38-.51,2.05-.08,.3-.23,.63-.25,1.03-.9,.05-2.21,.52-2.74,.12h-.1c-.08,.03-.13,.1-.13,.17,.78,.51,1.55,1.01,2.71,1.11l.03,.05c-.03,.45-.08,1.26,.02,1.58,.02,.08,.1,.68,.08,.83,.02,.17,.13,.5,.13,.63,0,.48,.35,.93,.27,1.03,.05,.08,.02,.05,.08,.1l.27,.5c.3,.45,1.96,1.61,2.61,1.16,.08-.25-.55-1.28-.55-1.71h-.01Z"/>
        <path class="f" d="M60.05,30.99s-.08,.03-.1,.13l.05,.05c.08-.08,.1-.08,.13-.1l-.03-.05-.05-.03h0Z"/>
        <path class="f" d="M90.9,38.22c.1-.3-.03-.35-.02-.48,.1-.33-.25-.55-.17-.7-.13-.22-.07-1.15-.07-1.66,.1-.08,.03-1.13,.03-1.15-.05-.1,.03-.08,.05-.13,0-.1-.13-.08-.08-.22,.03-.15,.1-.38-.1-1.33-.03,0-.05-.03-.05-.03-.08-.13,.08-.33-.02-.48,0-.08-.15-.17-.2-.22-.05-.15-.02-.25-.05-.38-.05-.03-.17-.13-.2-.17,0-.05,0-.1-.02-.15-.05-.03-.17-.03-.22-.05,0-.05,0-.15-.08-.17-.25-.1-1-.1-1.33,0-.15,.05-.42,.15-.63,.17-.48,0-.78,.13-.86,.13-.45-.03-.93-.33-1.15-.6-.08-.05,.17-.4,.2-.5,.15-.25,.48-1.13,.33-1.28,.03-.25-.02-.3-.13-.38-.68,.25-1.18,.95-1.18,1.75,.03,.33,.05,.78,.13,.88,.02,.15-.48,.9-.6,1-.05,.05-.09,.08-.14,.11,0-.04,0-.08-.02-.09-.43,.33-1.06,.95-1.38,1.27-.33,.38-.65,.55-1.03,.83-.05,.05-.13,.2-.25,.28-.15,0-.33,.13-.45,.15-.08,0-.15,.17-.28,.28l-.45,.2c-.53,.05-.53-.38-.68-.76-.27-.7-.07-1.63,.18-2.43,.13-.45,.05-1.41-.02-1.58-.02-.9-1.75-.51-2.11-.18-.2,.17-.58,.83-.71,1.13-.05,.3-.08,.6-.1,.88-.33,.9-.6,1.91-1.03,2.73-.33,.63-1.16,1.43-1.51,1.43-.38-.25-.27-1.38-.37-1.66-.08-.05-.03-.03-.13,0-.08-.3,.08-.35,.03-.5-.03-.1-.05-.05-.03-.17-.03-.03-.08-.03-.13-.05,.03-.1,.03-.22,.08-.33-.08-.35-.2-1.15-.15-1.31-.1-.15-.03-.28-.15-.33-.03-.17-.05-.33-.13-.47-.1-.3-.15-.3-.38-.58l-.2-.17c-.27-.78-1.27-1.18-2.43-1.03-.4,.05-.3,.3-.15,.6,.15,.88,.2,1.98,.37,2.81,.13,.38,.02,.63,.13,.98,.08,.3,.25,.78,.38,1.08,.1,.15,.28,.35,.35,.5,.27,.65,.38,.95,.88,1.41,.68,.58,.78,.78,1.93,.71,.17,0,.28,.08,.5,0,.4-.15,1.01-.55,1.18-1-.03-.1-.05-.2-.02-.3,.05-.1,.13-.17,.15-.4l-.05-.08s.13-.03,.17-.05c.03-.03,.3-.55,.3-.55,.03-.15-.13-.13-.08-.28,0-.08,.15-.08,.17-.13,.05-.1-.08-.25,.08-.38,.08-.05,.2,0,.25-.1,.08-.13,.05-.22,.1-.33,.33-.48,.63-1.13,.98-1.61,.2-.28,.33-.73,.58-.93v-.05s.05,0,.08,.03c-.08,1.31,0,1.76,.29,2.69-.03,.13,0,.25,.02,.4,0,.05,.5,.73,.52,.75,.05,.1,.1,.08,.17,.17,.28,.03,.5,.15,.75,.05,.3-.13,1.01-.65,1.21-.82,.25-.1,.45-.42,.7-.6,.15-.15,.35-.22,.56-.42,.2-.17,.45-.5,.7-.75,.15-.15,.28-.15,.4-.35,.1-.1,.15-.3,.18-.38-.01-.02,0-.07,0-.13,.41-.16,.77-.51,.93-.85,.28,0,.42,.28,.65,.33,.08,0,.47,.1,.55,.13,.2,.05,.38-.05,.53,.03,.22,.23,.08,.45,.17,.63v.35c0,.55-.03,1.41,.02,1.88,.3,1.61,.65,2.26,1.42,3.24v.08c.1-.02,.2-.05,.25-.02,.1,.08,.13,.28,.25,.33,.17,.05,.3,.03,.48,.08l.28,.2c.2,.08,.58-.02,.73,.13,.25-.1,.1-.1,.17-.33,0-.05,.13-.15,.15-.22v-.03Zm-5.3-8s-.05,0-.05-.02c.03-.2-.02-.45,.05-.58,.03-.17,.05-.2,.08-.3,.05,0,.1,0,.17-.03,.03,.08,.05,.13,.08,.15-.03,.23-.15,.53-.3,.7-.03,.05-.03,.02-.03,.08h0Z"/>
        <path class="f" d="M99.74,36.08c-.1-.03-.28-.03-.33-.13-.28,.1-.33,.42-.6,.47-1,.25-2.08-.16-2.46-.81-.13-.2-.13-.48-.25-.7,.05-.35,.56-.68,.73-.88,.22-.28,.28-.6,.48-.93,.1-.25,.15-.35,.13-.45l-.02-.22c.08-.53,.48-.63,.76-.95,.2-.28,.08-.63,.1-1.03-.08,.02-.05,.02-.13,.08,0-.1,0-.08,.03-.2-.05-.03-.13-.03-.15-.08-.08-.13-.05-.3-.1-.4-.08-.1-.13-.03-.22-.1,.03-.05,.03-.08,.03-.1-.17-.22-.48-.23-.75-.35-.15-.05-.33-.28-.45-.33-.13-.08-.28-.03-.4-.03-.03-.03-.03-.05-.05-.1-.2-.08-.93,.27-1.06,.35-.15,.08-.15,.25-.25,.3-.43,.53-.86,1.03-1.13,1.73-.1,.25-.03,.38-.08,.58-.03,.13-.13,.42-.1,.58-.03,.38-.08,.78-.1,1.18,.08,.25,.1,.53,.1,.8,.08,.5,.22,.86,.4,1.11,.38,.53,.8,.98,1.33,1.31,.28,.23,.75,.33,1.08,.43,.63,.23,1.11-.1,1.5,.08,.23-.05,.35-.08,.42-.13,.23-.15,.28-.2,.5-.25,.05,0,.13,0,.2,.03,.28-.17,.6-.4,.88-.52-.03-.13,0-.22-.02-.33h0Zm-3.08-2.76c-.13,.28-.45,.45-.53,.72h-.17c-.08-.08-.05-.2-.08-.25,.03-.13,.05-.15,.13-.68l.1-.5c-.05-.17,.15-.42,.1-.68,.05-.22,.05-.33,.15-.4,.1-.15,.15-.17,.23-.25,.2-.17,.42,.05,.5,.28-.03,.5-.18,1.28-.43,1.75h0Z"/>
      </g>
      <g>
        <path class="f" d="M99.22,49.25h0l-.04-.04s-.05-.15-.05-.17c-.02-.07,0-.17,.01-.21,0-.08-.03-.89-.05-1.54-.02-.51-.03-.96-.03-1.01,0-.12,0-.69-.01-.77,0-.07-.01-.82,0-.89v-1.42s0-.1-.02-.17c-.03-.08,.13-.25,.22-.34,.03-.04,.16-.01,.27,.02,.08,.02,.15,.03,.2,.04,.04,0,.08,.01,.11,.02,.01,0,.03,.01,.04,.02,.07,.06,.04,.21,.02,.25,0,.02-.02,.18-.02,.32-.01,.19-.02,.4-.03,.49s0,.33,0,.54c.01,.28,.01,.4,0,.43-.02,.07,.02,1.07,.05,1.73,0,.03,.04,.21,0,.38-.03,.16,.07,1.55,.08,1.7,.01,.1,.04,.35,.05,.42,.01,.07,0,.13-.05,.18-.09,.11-.28,.17-.33,.16h-.05s-.11,.02-.17,0c-.05-.01-.15-.09-.2-.13"/>
        <path class="f" d="M87.4,49.21c-.04-.07-.03-.18-.02-.3v-.02c.02-.12,.03-.55,.03-.59v-.13c0-.18,.01-.51,0-.61-.01-.13,.03-.56,.04-.64h0c.01-.09,.03-.23,0-.42-.02-.14-.02-.34-.02-.5v-.22c0-.12,0-.66,0-.95v-.17s0-.09,0-.16c-.01-.21-.03-.55,0-.87,.03-.36,.02-.53,0-.64v-.05c-.01-.11,.17-.17,.23-.19,.14-.1,.42,0,.44,0,.02,.01,.03,.02,.05,.04,.04,.06,.08,.17,.06,.26-.02,.09-.03,1.21,0,1.31h0s.03,.09,.02,.13c0,.03-.06,.55-.06,.56v.22c.24-.2,1.15-.93,1.19-.97,0,0,.29-.25,.34-.26,.02,0,.16-.11,.21-.16,.05-.04,.57-.45,.66-.51,.02-.02,.08-.06,.15-.11,.25-.19,.47-.35,.54-.38,.03-.01,.08-.02,.11,.03,0,0,0,.01,.01,.02,0,.01,.01,.03,.03,.03,.03,.01,.06,.03,.08,.07,.02,.03,.03,.05,.03,.07,.01,.01,.02,.02,.03,.04,.08,.12,.09,.29,.06,.35-.01,.03-.02,.04-.04,.04-.03,.01-.29,.2-.36,.26-.07,.07-.41,.33-.47,.38-.03,.02-.08,.05-.15,.1-.11,.08-.25,.17-.31,.22-.05,.05-.27,.22-.48,.38-.18,.14-.35,.27-.38,.29-.02,.02-.06,.05-.11,.09-.15,.12-.41,.32-.61,.52-.15,.14-.23,.2-.28,.22,.01,.01,.03,.03,.04,.05,.04,.05,.11,.13,.14,.14,.05,.02,.12,.07,.13,.07,.02,.01,.04,.04,.08,.08,.09,.08,.23,.22,.32,.28,.08,.05,.17,.15,.26,.22,.04,.04,.08,.08,.1,.09,.05,.04,.72,.65,.79,.71l.23,.23c.17,.17,.39,.4,.48,.49,.05,.06,.1,.11,.14,.16,.06,.08,.11,.14,.17,.16,.07,.02,.1,.08,.09,.15-.02,.05-.06,.11-.11,.14-.05,.03-.08,.09-.11,.14-.02,.04-.04,.08-.07,.1-.09,.06-.34-.16-.36-.2s-.13-.11-.23-.21c-.15-.13-.31-.26-.35-.31-.03-.03-.14-.13-.26-.23-.15-.13-.33-.28-.41-.37-.08-.09-.19-.19-.27-.26-.06-.05-.12-.1-.16-.15-.1-.11-.66-.6-.83-.74,0,.33,.03,1.81,.03,1.9v.08c.02,.33,.01,.39-.01,.42h-.02s-.01,.03-.02,.03c-.04,.06-.14,.18-.31,.12-.09-.03-.19-.04-.26-.04-.09,0-.15-.01-.18-.05"/>
        <path class="f" d="M98.05,45.95s-.04-.28-.05-.35-.07-.41-.1-.5c-.01-.03-.03-.11-.05-.2-.03-.13-.07-.27-.09-.31,0-.02-.02-.03-.02-.05-.04-.09-.1-.23-.24-.44-.03-.05-.07-.1-.1-.15-.15-.22-.33-.48-.47-.6h-.01c-.17-.16-.26-.24-.66-.42,0,0-.51-.21-.9-.29,0,0-.27-.04-.4-.08-.11-.02-.26,0-.36,.01-.03,0-.05,0-.07,.01h0s-.22,.08-.29,.1c-.03,.01-.04,.01-.06,.01-.03,0-.05,0-.11,.03-.02,.01-.05,.02-.09,.04-.13,.05-.33,.13-.44,.2-.17,.11-.3,.2-.33,.22-.01,0-.03,.02-.05,.03-.03,.02-.13,.07-.15,.07-.05,0-.12,.04-.21,.13h-.01s-.06,.08-.13,.17c-.05,.07-.12,.15-.15,.18-.02,.03-.04,.04-.05,.06-.02,.03-.03,.04-.05,.04-.05,.02-.09,.04-.1,.11,0,.03-.04,.09-.1,.16-.02,.03-.07,.09-.11,.15-.03,.04-.05,.08-.08,.11,0,0-.11,.19-.15,.34-.02,.07-.04,.1-.05,.13-.01,.03-.02,.04-.01,.06,0,.01-.03,.05-.04,.07,0,.01-.01,.02-.02,.03-.02,.03-.09,.16-.11,.38-.01,.02-.04,.08-.03,.13,0,.02,0,.07-.01,.11-.01,.09-.02,.2-.01,.27,0,.03,0,.06,.01,.1,.02,.16,.03,.28,.06,.33,0,.03,.02,.16,.05,.23,.02,.04,.03,.05,.04,.06,0,0,.01,0,.02,.03s.02,.07,.02,.11c.01,.07,.03,.16,.05,.22,.02,.07,.05,.1,.07,.13,.01,.01,.01,.02,.02,.02v.02c.03,.07,.08,.23,.08,.28,0,.04,.03,.07,.04,.09,.01,.01,.02,.02,.02,.03,.02,.06,.05,.15,.1,.21,.04,.05,.16,.18,.28,.28,.05,.05,.1,.09,.14,.11,.15,.1,.43,.3,.5,.34,.06,.04,.56,.31,.75,.38,.07,.03,.14,.05,.2,.09,.1,.04,.2,.09,.28,.11h.04c.15,.05,.44,.13,.57,.14,.04,0,.08,.01,.14,.02,.14,.03,.33,.07,.57,.03,.2-.03,.28-.06,.32-.08,.02-.01,.03-.01,.04-.01h.01s.07,0,.12-.04c.02-.02,.06-.03,.1-.04,.03,0,.05-.02,.08-.03,.06-.03,.24-.13,.33-.17l.04-.03s.02-.01,.03-.01c0,0,.01,0,.03-.01,.03-.01,.07-.05,.1-.09,.02-.02,.05-.05,.06-.06,.04,0,.08-.03,.14-.09,.02-.02,.04-.04,.05-.04,.03-.02,.11-.09,.22-.21,.04-.04,.07-.07,.09-.09,.07-.06,.17-.19,.2-.28,0,0,.01-.04,.05-.08,.03-.04,.03-.07,.03-.09v-.02s.12-.25,.14-.35c.01-.05,.06-.16,.1-.26,.03-.07,.05-.13,.07-.17,.03-.1,.1-.36,.13-.45,.05-.23,.05-.45,0-.63v.02Zm-.47,.48s-.02,.09-.02,.11v.03s0,.02-.01,.04c-.01,.04-.03,.09-.04,.16,0,.07-.1,.25-.16,.35-.02,.02-.03,.04-.03,.07-.02,.03-.04,.09-.07,.15-.03,.08-.08,.19-.1,.21-.04,.04-.11,.13-.15,.26-.04,.13-.31,.36-.41,.45-.13,.11-.27,.22-.31,.25-.01,0-.02,.02-.04,.03-.05,.04-.15,.13-.21,.13-.05,0-.09,.02-.14,.04-.04,.02-.07,.04-.12,.04h-.35c-.08-.03-.29-.08-.4-.09-.11,0-.38-.05-.46-.08-.03-.01-.07-.02-.11-.03-.06-.02-.12-.03-.14-.04-.01,0-.02-.01-.03-.02-.03-.02-.07-.03-.11-.05-.01,0-.03,0-.04-.01-.05-.02-.13-.04-.19-.08-.05-.03-.11-.05-.16-.07-.02,0-.05-.02-.05-.02h-.01s-.05-.06-.11-.08c-.04-.01-.09-.04-.2-.11-.05-.04-.09-.05-.13-.07-.05-.02-.1-.04-.17-.1-.06-.05-.14-.11-.22-.18-.1-.08-.2-.16-.24-.2-.05-.04-.11-.17-.15-.27-.01-.03-.02-.05-.03-.07-.03-.05-.02-.07-.01-.08,0,0,.01-.02,.02-.03,.01-.04-.03-.1-.08-.16-.02-.02-.04-.05-.05-.07-.03-.05-.16-.41-.18-.48,0-.02-.01-.04-.02-.06-.01-.05-.03-.11-.06-.2-.04-.08-.05-.22-.05-.4,0-.13,.07-.32,.09-.36,.02-.04,.04-.15,.07-.27v-.05c.03-.07,.06-.15,.08-.17,.03-.03,.05-.06,.08-.1l.05-.08c.04-.07,.11-.18,.15-.23,.04-.06,.13-.17,.13-.17,.04-.07,.2-.25,.27-.32,.04-.04,.11-.12,.14-.12h.03s.04,0,.08-.01c.01,0,.03-.02,.04-.03,.03-.03,.08-.06,.11-.06,.04,0,.08-.02,.15-.04,.04-.02,.08-.03,.13-.05,.16-.05,.32-.12,.37-.14h.01c.08-.04,.31-.13,.42-.15,.06-.01,.09-.02,.11-.03s.05-.02,.13-.03c.05,0,.11-.02,.17-.03,.12-.02,.24-.04,.32-.03,.07,.01,.15,.02,.22,.02,.05,0,.11,0,.14,.01,.03,0,.06,.02,.08,.04s.05,.03,.07,.02c0,0,.04,0,.11,.04,.02,.01,.05,.03,.08,.05,.04,.03,.09,.07,.15,.09,.05,.02,.22,.16,.36,.28,.08,.07,.15,.13,.21,.17,.01,0,.02,.02,.03,.03,.15,.14,.29,.38,.3,.4,0,0,0,.02,0,.03,.01,.04,.03,.12,.12,.21,.11,.11,.21,.27,.21,.28,.02,.02,.09,.22,.09,.28,0,.06,.03,.13,.05,.17h0s.02,.03,.03,.04c.02,.03,.04,.07,.05,.14,.01,.09,.06,.36,.07,.42-.03,.05-.02,.08,0,.11,0,.02,.01,.03,.01,.05s0,.04,.01,.07c.01,.07,.04,.22,.02,.26h0Z"/>
      </g>
    </g>
  </g>
</svg>