<?xml version="1.0" encoding="UTF-8"?>
<svg id="b" data-name="圖層 2" xmlns="http://www.w3.org/2000/svg" width="1021.41" height="100.08" viewBox="0 0 1021.41 100.08">
  <g id="c" data-name="設計">
    <g>
      <path d="M42.62,99.58c-8.36,0-15.78-2.02-22.08-6-6.3-3.99-11.26-9.62-14.76-16.75-3.51-7.15-5.29-15.65-5.29-25.25,0-10.25,1.97-19.3,5.84-26.92,3.86-7.59,9.34-13.58,16.29-17.8C29.58,2.64,37.81,.5,47.1,.5c5.36,0,10.79,.95,16.12,2.81,4.95,1.73,9.09,4.06,12.33,6.93l-11.23,13.88c-2.56-2.07-5.3-3.63-8.14-4.63-3.13-1.11-6.75-1.67-10.76-1.67-5.51,0-10.23,1.38-14.02,4.11-3.79,2.72-6.69,6.69-8.61,11.8-1.9,5.03-2.86,11.28-2.86,18.55v3.16l1.82-2.59c2.98-4.24,6.63-7.58,10.87-9.92,4.22-2.33,8.72-3.51,13.38-3.51,6.25,0,11.84,1.24,16.63,3.67,4.76,2.42,8.54,5.84,11.23,10.14,2.69,4.3,4.05,9.3,4.05,14.87,0,5.94-1.52,11.34-4.53,16.05-3.02,4.73-7.23,8.52-12.5,11.27-5.29,2.76-11.42,4.16-18.23,4.16Zm-.28-45.36c-4.13,0-8.01,.78-11.53,2.32-3.51,1.54-6.66,3.73-9.35,6.52l-.39,.4,.13,.54c.96,3.83,2.39,7.2,4.27,10.04,1.9,2.87,4.25,5.12,6.99,6.69,2.75,1.57,5.79,2.37,9.04,2.37s6.15-.62,8.69-1.85c2.57-1.23,4.65-2.97,6.19-5.15,1.56-2.22,2.35-4.77,2.35-7.58s-.71-5.31-2.12-7.48c-1.4-2.15-3.35-3.85-5.79-5.04-2.42-1.18-5.27-1.78-8.49-1.78Z" style="fill: none; stroke: #0c131b; stroke-miterlimit: 10;"/>
      <path d="M136.7,99.58c-8.64,0-16.3-2.07-22.78-6.15-6.48-4.08-11.59-9.9-15.17-17.3-3.6-7.43-5.43-16.21-5.43-26.09s1.83-18.78,5.43-26.16c3.59-7.36,8.69-13.15,15.17-17.23,6.48-4.08,14.14-6.15,22.78-6.15s16.3,2.07,22.78,6.15c6.48,4.08,11.59,9.88,15.17,17.23,3.6,7.39,5.43,16.19,5.43,26.16s-1.83,18.66-5.43,26.09c-3.59,7.4-8.69,13.22-15.17,17.3-6.48,4.08-14.14,6.15-22.78,6.15Zm0-81.48c-4.77,0-8.95,1.31-12.43,3.91-3.45,2.58-6.15,6.3-8.03,11.08-1.86,4.72-2.8,10.42-2.8,16.96s.94,12.12,2.8,16.88c1.88,4.82,4.58,8.57,8.03,11.15,3.47,2.59,7.65,3.91,12.43,3.91s8.95-1.31,12.43-3.91c3.45-2.58,6.15-6.33,8.03-11.15,1.86-4.76,2.8-10.44,2.8-16.88s-.94-12.24-2.8-16.96c-1.88-4.77-4.58-8.5-8.03-11.08-3.48-2.59-7.66-3.91-12.43-3.91Z" style="fill: none; stroke: #0c131b; stroke-miterlimit: 10;"/>
      <path d="M237.36,99.58c-8.64,0-16.3-2.07-22.78-6.15-6.48-4.08-11.59-9.9-15.17-17.3-3.6-7.43-5.43-16.21-5.43-26.09s1.83-18.78,5.43-26.16c3.58-7.35,8.69-13.15,15.17-17.23,6.48-4.08,14.14-6.15,22.78-6.15s16.3,2.07,22.78,6.15c6.48,4.08,11.59,9.88,15.17,17.23,3.6,7.39,5.43,16.19,5.43,26.16s-1.83,18.66-5.43,26.09c-3.59,7.4-8.69,13.22-15.17,17.3-6.48,4.08-14.14,6.15-22.78,6.15Zm0-81.48c-4.77,0-8.95,1.31-12.43,3.91-3.45,2.58-6.15,6.3-8.03,11.08-1.86,4.72-2.8,10.42-2.8,16.96s.94,12.12,2.8,16.88c1.88,4.82,4.58,8.58,8.03,11.15,3.47,2.59,7.65,3.91,12.43,3.91s8.95-1.31,12.43-3.91c3.45-2.58,6.15-6.33,8.03-11.15,1.86-4.76,2.8-10.44,2.8-16.88s-.94-12.24-2.8-16.96c-1.88-4.77-4.58-8.5-8.03-11.08-3.48-2.59-7.66-3.91-12.43-3.91Z" style="fill: none; stroke: #0c131b; stroke-miterlimit: 10;"/>
      <polygon points="354.55 80.82 354.55 56.46 331.73 56.46 331.73 41.66 354.55 41.66 354.55 17.3 369.91 17.3 369.91 41.66 392.73 41.66 392.73 56.46 369.91 56.46 369.91 80.82 354.55 80.82" style="fill: none; stroke: #0c131b; stroke-miterlimit: 10;"/>
      <path d="M482.77,99.44c-7.78,0-15.57-1.44-23.17-4.28-7.29-2.72-13.91-6.51-19.69-11.26l12.23-15.93c5.71,4.56,11.08,7.9,15.96,9.93,5.14,2.14,10.69,3.23,16.48,3.23,3.81,0,7.11-.39,9.8-1.16,2.77-.79,4.95-1.99,6.46-3.56,1.58-1.63,2.38-3.59,2.38-5.81,0-3.03-1.17-5.42-3.49-7.11-2.2-1.6-5.78-2.8-10.92-3.68l-21.56-3.78c-7.68-1.36-13.66-4.31-17.78-8.79-4.1-4.45-6.18-10.21-6.18-17.1,0-6.11,1.56-11.42,4.65-15.8,3.09-4.39,7.61-7.8,13.42-10.15,5.88-2.37,12.98-3.57,21.12-3.57,7.13,0,14.42,1.23,21.66,3.66,6.89,2.31,12.99,5.52,18.13,9.53l-11.59,16.17c-9.94-7.44-19.99-11.2-29.89-11.2-3.34,0-6.29,.37-8.75,1.09-2.53,.74-4.51,1.82-5.89,3.19-1.45,1.45-2.18,3.22-2.18,5.26,0,2.76,1.06,4.91,3.15,6.41,1.96,1.41,5,2.47,9.29,3.25l20.32,3.36c9.18,1.46,16.23,4.52,20.96,9.11,4.67,4.54,7.05,10.52,7.05,17.76,0,6.38-1.68,11.96-4.99,16.57-3.33,4.63-8.17,8.26-14.4,10.79-6.29,2.55-13.89,3.85-22.58,3.85Z" style="fill: none; stroke: #0c131b; stroke-miterlimit: 10;"/>
      <polygon points="565.67 98.04 565.67 21.32 533.61 21.32 533.61 2.04 619.81 2.04 619.81 21.32 587.75 21.32 587.75 98.04 565.67 98.04" style="fill: none; stroke: #0c131b; stroke-miterlimit: 10;"/>
      <path d="M678.21,99.58c-7.21,0-14.01-1.27-20.21-3.78-6.2-2.5-11.69-6.06-16.34-10.57-4.65-4.51-8.32-9.82-10.91-15.78-2.59-5.96-3.91-12.49-3.91-19.41s1.31-13.45,3.91-19.41c2.59-5.96,6.27-11.27,10.91-15.78,4.64-4.51,10.14-8.06,16.34-10.57,6.2-2.51,13-3.78,20.21-3.78s14,1.27,20.2,3.78c6.2,2.51,11.7,6.07,16.34,10.57,4.64,4.51,8.31,9.82,10.91,15.78,2.59,5.96,3.91,12.49,3.91,19.41s-1.31,13.45-3.91,19.41c-2.59,5.96-6.26,11.27-10.91,15.78-4.64,4.51-10.14,8.07-16.34,10.57-6.2,2.51-13,3.78-20.2,3.78Zm0-78.96c-4.04,0-7.85,.76-11.32,2.25-3.47,1.5-6.52,3.57-9.07,6.17-2.55,2.6-4.58,5.72-6.02,9.28-1.44,3.56-2.17,7.45-2.17,11.58s.73,8.18,2.17,11.78c1.44,3.61,3.47,6.76,6.02,9.36,2.55,2.6,5.6,4.68,9.07,6.17,3.47,1.49,7.27,2.25,11.32,2.25s7.85-.76,11.32-2.25c3.46-1.49,6.51-3.57,9.07-6.17,2.55-2.6,4.58-5.75,6.02-9.36,1.44-3.6,2.17-7.52,2.17-11.64s-.73-8.16-2.17-11.72c-1.44-3.56-3.47-6.68-6.02-9.28-2.55-2.6-5.6-4.67-9.07-6.17-3.47-1.49-7.28-2.25-11.32-2.25Z" style="fill: none; stroke: #0c131b; stroke-miterlimit: 10;"/>
      <path d="M808.32,98.04l-18.48-35.7h-19.95v35.7h-22.08V2.04h49.12c6.53,0,12.4,1.31,17.47,3.88,5.04,2.56,9.03,6.16,11.85,10.7,2.83,4.53,4.26,9.79,4.26,15.64s-1.64,11.29-4.86,15.95c-3.24,4.68-7.58,8.29-12.89,10.72l-.98,.45,21.13,38.66h-24.59Zm-38.43-53.3h24.8c3.97,0,7.23-1.12,9.7-3.34,2.5-2.24,3.76-5.18,3.76-8.72s-1.27-6.48-3.76-8.72c-2.47-2.21-5.73-3.34-9.7-3.34h-24.8v24.12Z" style="fill: none; stroke: #0c131b; stroke-miterlimit: 10;"/>
      <polygon points="848.33 98.04 848.33 2.04 923.61 2.04 923.61 20.9 870.41 20.9 870.41 40.54 905.55 40.54 905.55 58.7 870.41 58.7 870.41 79.18 924.17 79.18 924.17 98.04 848.33 98.04" style="fill: none; stroke: #0c131b; stroke-miterlimit: 10;"/>
      <path d="M978.93,99.44c-7.78,0-15.57-1.44-23.17-4.28-7.29-2.72-13.91-6.51-19.69-11.26l12.23-15.93c5.71,4.56,11.08,7.9,15.96,9.93,5.14,2.14,10.69,3.23,16.48,3.23,3.82,0,7.11-.39,9.8-1.16,2.77-.79,4.95-1.99,6.46-3.56,1.58-1.63,2.38-3.59,2.38-5.81,0-3.03-1.17-5.42-3.49-7.11-2.2-1.6-5.78-2.8-10.92-3.68l-21.55-3.78c-7.68-1.36-13.66-4.31-17.78-8.79-4.1-4.45-6.18-10.21-6.18-17.1,0-6.11,1.56-11.42,4.65-15.8,3.09-4.39,7.61-7.8,13.42-10.15,5.88-2.37,12.98-3.57,21.12-3.57,7.13,0,14.42,1.23,21.66,3.66,6.89,2.31,12.99,5.52,18.13,9.53l-11.59,16.17c-9.94-7.44-19.99-11.2-29.88-11.2-3.34,0-6.29,.37-8.75,1.09-2.53,.74-4.51,1.82-5.88,3.19-1.45,1.45-2.18,3.22-2.18,5.26,0,2.76,1.06,4.91,3.15,6.41,1.96,1.41,5,2.47,9.29,3.25l20.32,3.36c9.18,1.46,16.23,4.52,20.96,9.11,4.67,4.54,7.05,10.52,7.05,17.76,0,6.38-1.68,11.96-4.99,16.57-3.33,4.63-8.17,8.26-14.4,10.79-6.29,2.55-13.89,3.85-22.58,3.85Z" style="fill: none; stroke: #0c131b; stroke-miterlimit: 10;"/>
    </g>
  </g>
</svg>