<?xml version="1.0" encoding="UTF-8"?>
<svg id="_層_2" data-name="圖層 2" xmlns="http://www.w3.org/2000/svg" width="166.82" height="137.24" viewBox="0 0 166.82 137.24">
  <defs>
    <style>
      .cls-1, .cls-2 {
        fill: #e8b78a;
      }

      .cls-2 {
        stroke: #2d2a26;
        stroke-linecap: round;
        stroke-linejoin: round;
        stroke-width: 2.89px;
      }

      .cls-3 {
        fill: #2d2a26;
      }
    </style>
  </defs>
  <g id="layout">
    <g>
      <g>
        <g>
          <path class="cls-1" d="M52.05,60.52c-.22,0-.44-.05-.65-.15-.14-.07-13.82-6.99-32.5-22.23C9.9,30.79-3.5,15.7,3.41,5.71,5.37,2.88,8.07,1.44,11.44,1.44c7.36,0,16.48,6.92,24.45,13.41,9.82,7.99,20.98,12.48,21.09,12.53,.62,.25,.99,.89,.89,1.55l-4.4,30.36c-.07,.46-.35,.86-.76,1.07-.21,.11-.44,.16-.67,.16Z"/>
          <path class="cls-3" d="M11.44,2.89c7,0,16.24,7.14,23.54,13.08,10.12,8.23,21.47,12.75,21.47,12.75l-4.4,30.36s-13.46-6.75-32.23-22.06C12.03,30.67-1.88,15.89,4.59,6.53c1.79-2.59,4.15-3.65,6.85-3.65m0-2.89C7.63,0,4.44,1.69,2.22,4.89c-9.24,13.36,13.18,32.25,15.77,34.36,18.81,15.34,32.2,22.12,32.77,22.4,.41,.2,.85,.31,1.29,.31s.92-.11,1.34-.33c.82-.43,1.39-1.23,1.52-2.14l4.4-30.36c.19-1.32-.55-2.6-1.79-3.1-.11-.04-11.08-4.46-20.71-12.3C28.64,7.09,19.28,0,11.44,0h0Z"/>
        </g>
        <g>
          <path class="cls-1" d="M152.74,90.58c-8.62,0-12.75-12.17-15.75-21.06-.4-1.19-.79-2.32-1.15-3.33-3.24-8.97-8.33-33.52-8.54-34.56-.08-.37,0-.75,.2-1.07l7.09-11.07c.23-.36,.62-.61,1.05-.66,.06,0,.11,0,.17,0,.37,0,.73,.14,1,.41,.69,.67,17.02,16.63,23.84,34.07,3.5,8.96,6.88,21.4,3.07,29.74-1.54,3.36-4.1,5.69-7.61,6.94-1.14,.4-2.27,.61-3.36,.61Z"/>
          <path class="cls-3" d="M135.8,20.26s16.72,16.22,23.5,33.56c6.44,16.48,7.01,31-3.68,34.79-1.01,.36-1.97,.53-2.88,.53-8.68,0-12.62-15.31-15.55-23.44-3.24-8.98-8.49-34.36-8.49-34.36l7.09-11.07m0-2.89c-.11,0-.22,0-.33,.02-.86,.1-1.63,.58-2.1,1.31l-7.09,11.07c-.41,.63-.55,1.4-.4,2.14,.22,1.04,5.33,25.69,8.6,34.76,.36,1,.74,2.12,1.14,3.31,3.15,9.3,7.46,22.04,17.12,22.04,1.25,0,2.54-.23,3.84-.69,3.89-1.38,6.73-3.97,8.43-7.7,4.02-8.8,.57-21.64-3.03-30.86-6.93-17.72-23.48-33.9-24.18-34.58-.54-.53-1.26-.81-2.01-.81h0Z"/>
        </g>
      </g>
      <path class="cls-1" d="M97.37,120.59c-1.17,0-1.96-.04-2.27-.05-.31,.02-1.11,.05-2.27,.05-8.71,0-37.73-2.02-45.31-28.08-4.47-15.39-2.94-33.24-.86-45.5,2.24-13.21,5.47-22.7,5.6-23.1l.49-1.44h84.69l.49,1.44c.14,.4,3.37,9.88,5.6,23.1,2.07,12.26,3.6,30.1-.87,45.5-7.57,26.05-36.59,28.08-45.3,28.08Z"/>
      <path class="cls-2" d="M143.86,48.98c1.9,12.14,3.06,28.94-1.18,43.54-1.89,6.51-5.29,11.51-9.43,15.37h-.01l-.58,7.71c-.02,.3-.49,7.61-1.9,12.67l-.05,.18c-1.23,4.19-5.22,7.17-9.71,7.24-2.49,.04-6.6,.1-10.04,.1-4.29,0-5.47-.1-5.98-.16-4.67-.59-6.18-5.41-6.67-6.99-.46-1.47-.8-4.58-1.02-8.1-.77,.02-1.43,.04-2,.04-.66,0-1.45-.01-2.35-.05-.24,3.52-.58,6.64-1.04,8.11-.49,1.58-2,6.4-6.67,6.99-.51,.06-1.67,.16-5.98,.16-3.43,0-7.53-.06-10.02-.1-4.49-.07-8.48-3.05-9.71-7.24l-.06-.18c-1.4-5.06-1.87-12.37-1.89-12.67l-.58-7.7c-4.16-3.84-7.55-8.86-9.46-15.39-4.24-14.6-2.96-31.01-1.05-43.15"/>
      <path class="cls-2" d="M89.39,120.08h.08c3.81,.58,7.68,.58,11.49,0h0"/>
    </g>
  </g>
</svg>