<?xml version="1.0" encoding="UTF-8"?>
<svg id="b" data-name="圖層 2" xmlns="http://www.w3.org/2000/svg" width="32.73" height="40.48" viewBox="0 0 32.73 40.48">
  <defs>
    <style>
      .d {
        fill: #e8b78a;
      }

      .e {
        fill: #fce9d4;
      }

      .f {
        fill: #f18a00;
      }

      .g {
        fill: #2d2a26;
      }
    </style>
  </defs>
  <g id="c" data-name=" 層 2">
    <g>
      <path class="e" d="M31.47,12.73c-.43-.7-4.58-2.4-12.78-3.43-8.26-1.04-12.71-.4-13.24,.17l.59,26.06c0,.06,.01,.12,0,.18-.07,.58,2.56,2.47,8.91,3.27,6.26,.79,9.28-.34,9.44-.93h0s0-.09,.02-.14l7.05-25.18h.01Z"/>
      <path class="g" d="M18.84,8.07c-1.43-.18-13.84-1.66-14.6,1.07-.03,.07-.04,.15-.04,.23l.6,26.27v.02c-.05,1.02,.96,1.97,3.01,2.83,1.84,.77,4.32,1.38,6.99,1.72s5.23,.36,7.19,.07c2.28-.34,3.5-1.05,3.64-2.11l7.04-25.13c.02-.06,.04-.12,.05-.18,.37-2.92-12.42-4.61-13.88-4.8h0Zm5.55,29.99c-.16,.59-3.18,1.72-9.44,.93-6.35-.8-8.98-2.69-8.91-3.27v-.18l-.59-26.06c.54-.57,4.98-1.21,13.24-.17,8.2,1.03,12.35,2.73,12.78,3.43l-7.05,25.18s-.02,.09-.02,.13h0Z"/>
    </g>
    <path class="f" d="M31.68,11.11c-.21-.69-.65-1.15-1.24-1.41-.15-.07-.31-.12-.49-.14h0c0-.23-.03-.46-.1-.67-.21-.69-.66-1.15-1.24-1.41-.29-.13-.63-.2-.98-.2,.02-.29,0-.57-.09-.85-.21-.69-.66-1.15-1.24-1.41s-1.4-.27-2-.03c-.18,.07-.34,.17-.49,.29-.23-.6-.64-1.02-1.18-1.26-.58-.26-1.4-.27-2-.03-.26,.1-.5,.28-.7,.49-.24-.43-.6-.73-1.03-.93-.58-.26-1.4-.27-2-.03-.42,.17-.78,.51-1.02,.9-.22-.62-.64-1.05-1.19-1.29-.58-.26-1.4-.27-2-.03-.65,.26-1.18,.91-1.3,1.58-.02,.09-.02,.18-.02,.27-.34,0-.67,.05-.96,.17-.65,.26-1.18,.91-1.3,1.58-.03,.17-.04,.34-.04,.5h0c-.12-.08-.26-.16-.4-.22-.58-.27-1.4-.27-2-.04-.66,.26-1.18,.91-1.31,1.59-.04,.22-.06,.45-.04,.67h0c.52,.55,1.28,1.11,3.1,1.67,.16,.11,1.39,.38,1.39,.38,1.32,.37,4.89,.94,4.89,.94,.67,.13,4.9,.58,9.31,.64,3.96,.06,7.56-.33,7.74-.59,.06-.37,.04-.75-.07-1.11v-.02Zm-4.6,.5h.02v.02s0-.02-.02-.02Z"/>
    <path class="g" d="M4.87,9.45c1.18,1.12,2.77,1.59,4.32,1.93,1.76,.39,3.54,.71,5.32,.99,3.56,.56,7.17,.9,10.78,.88,2.08-.01,4.16-.13,6.23-.4,.85-.11,.66-1.44-.19-1.32-7,.91-14.08,.13-20.96-1.27-1.66-.34-3.41-.67-4.68-1.87-.26-.25-.73-.14-.94,.12-.24,.31-.14,.69,.12,.94h0Z"/>
    <path class="g" d="M9.42,8.42s.05,.07,.07,.11c-.04-.07,0,0,0,.01l.03,.06c.04,.08,.07,.17,.1,.26,.01,.04,0,.03,0,0,0,.02,.01,.04,.02,.06l.03,.15s.01,.09,.02,.13c0,.03,0,.17,0,.08,0,.09,0,.18-.02,.27,0,.05-.01,.1-.02,.15,0,.02-.01,.04-.01,.06-.01,.06,.02-.06,0,0-.03,.09-.06,.18-.1,.26,0,.02-.02,.04-.03,.06,0,0-.05,.09-.02,.04,.02-.04-.01,.02-.02,.03-.01,.02-.03,.05-.05,.07-.12,.17-.11,.43,.07,.55,.17,.12,.43,.11,.55-.07,.57-.83,.56-1.94-.01-2.77-.12-.17-.4-.2-.55-.07-.17,.14-.2,.37-.07,.55h.01Z"/>
    <path class="g" d="M13.04,8.16c.28-.38,.71-.64,1.16-.73,.49-.1,.95-.04,1.39,.22,.16,.09,.37-.03,.44-.18,.08-.18-.02-.35-.18-.44-1.09-.63-2.6-.28-3.35,.72-.26,.35,.27,.75,.53,.41h.01Z"/>
    <path class="g" d="M16.49,8.52s.09,.07,.13,.12l-.06-.06c.1,.1,.18,.21,.25,.32,.03,.04,.06,.06,.1,.08,.04,.03,.08,.04,.12,.04,.05,0,.09,0,.13-.01,.04,0,.08-.03,.12-.06,.07-.06,.12-.13,.13-.22v-.09c0-.06-.03-.11-.07-.16-.12-.19-.27-.36-.44-.5-.04-.03-.07-.05-.12-.05-.04-.02-.09-.02-.13-.01-.04,0-.08,.02-.12,.05-.04,.02-.07,.05-.1,.08-.05,.07-.08,.16-.07,.25,.02,.09,.06,.16,.13,.22h0Z"/>
    <path class="g" d="M30.11,8.75c-.03-1.32-1.17-2.1-2.44-2.23-.04-.85-.52-1.64-1.34-2.05-.83-.42-1.74-.32-2.54,.04-.55-1.23-2.59-1.76-3.77-.98-.88-1.23-2.68-1.47-3.84-.51-1.31-1.75-5.04-1.14-5.4,.88-1.18-.09-2.26,.73-2.52,1.88-1.61-.35-3.26,.71-3.36,2.59-.04,.85,1.28,1.03,1.33,.17,.06-1.21,1.21-1.96,2.29-1.24,.45,.3,1.2-.01,1.07-.63-.23-1.08,.65-1.71,1.59-1.27,.13,.06,.63,.36,.77,.43,.3,.14,.61,.26,.93,.36,.21,.07,.45,.04,.51-.21,.07-.27-.2-.42-.41-.52-.29-.13-.56-.31-.71-.61-.12-.23-.22-.52-.12-.78,.07-.17,.2-.3,.35-.4,.36-.26,.83-.37,1.27-.37s.92,.11,1.22,.45c.2,.23,.3,.53,.31,.83,.02,.67,1.07,.76,1.28,.16,.52-1.45,2.41-1.27,2.59,.28,.09,.77,1.2,.72,1.33-.01,.16-.95,2.47-.55,2.01,.46-.27,.6,.52,1.23,1.03,.79,.46-.4,1.02-.76,1.66-.71,.68,.06,1.36,.65,1.1,1.4-.16,.47,.19,.99,.71,.92,.84-.12,1.89,.16,1.72,1.2-.5,0-1.01,.23-1.3,.64-.1,.14-.09,.36,.06,.47,.14,.1,.36,.09,.47-.06,.43-.62,1.27-.36,1.78,0,.21,.15,.38,.34,.5,.57,.18,.35,.22,.76,.15,1.15-.15,.85,1.22,.98,1.37,.14,.24-1.33-.48-2.62-1.67-3.21l.02-.02Z"/>
    <path class="g" d="M5.62,34.72c2.43,2.26,6.1,2.86,9.27,3.3,3.39,.47,6.87,.41,10.13-.72,.41-.14,.14-.76-.26-.62-3.15,1.09-6.51,1.12-9.78,.67-3.07-.42-6.6-.97-8.95-3.16-.32-.29-.72,.24-.41,.53h0Z"/>
    <g>
      <path class="e" d="M25.73,1.85c-.26,.11-.51,.16-.75,.13-.05,0-.1-.02-.15-.03-.21-.05-.37-.16-.5-.28-.32,2.45-.63,5.58-.84,8.46l1.45-.13v-.07l.79-8.07h0Z"/>
      <path class="e" d="M24.94,1.57c.24,.06,.51,0,.81-.17-.04-.31-.29-.56-.62-.6-.3-.03-.58,.14-.7,.4,.1,.14,.26,.31,.5,.37h.01Z"/>
      <path class="g" d="M26.55,1.63c.08-.81-.52-1.55-1.33-1.62-.8-.08-1.52,.48-1.62,1.29-.33,2.52-.67,5.83-.89,8.84-.02,.21,.14,.39,.34,.42h.02c.22,.02,.41-.15,.42-.36v-.07c.22-2.87,.53-6,.85-8.46-.25-.22-.36-.48-.37-.5-.04-.1,0-.22,.1-.26,.1-.04,.22,0,.26,.1,0,0,.04,.08,.11,.18,.12-.26,.4-.43,.7-.4,.32,.04,.58,.29,.62,.6,.1-.06,.19-.12,.29-.2,.09-.07,.21-.05,.28,.03,.07,.09,.05,.21-.03,.28-.19,.15-.38,.26-.56,.34l-.79,8.07v.07c.02,.18,.15,.33,.35,.36,.22,.02,.41-.14,.43-.35l.82-8.37h0Z"/>
      <path class="g" d="M24.99,1.98c.24,.03,.48,0,.75-.13,.18-.08,.37-.19,.56-.34,.09-.07,.1-.19,.03-.28-.07-.09-.19-.1-.28-.03-.1,.08-.2,.14-.29,.2-.3,.17-.57,.23-.81,.17-.24-.06-.41-.24-.5-.37-.07-.1-.11-.17-.11-.18-.04-.1-.16-.15-.26-.1-.1,.04-.15,.16-.1,.26,0,.02,.12,.28,.37,.5,.13,.12,.29,.22,.5,.28l.15,.03h0Z"/>
    </g>
    <path class="g" d="M22.61,12.18c-.17-.02-.31-.15-.34-.33-.19-1.17,.61-2.27,1.78-2.46s2.27,.61,2.46,1.78c.03,.22-.11,.42-.33,.45-.22,.04-.42-.11-.45-.33-.12-.74-.81-1.24-1.55-1.12s-1.24,.81-1.12,1.55c.03,.22-.11,.42-.33,.45h-.12Z"/>
    <path class="g" d="M16.06,10.75c-.2-.03-.36-.21-.34-.42,.07-1.18,1.09-2.08,2.27-2.01s2.08,1.09,2.01,2.27c-.01,.22-.2,.38-.42,.37s-.38-.2-.37-.42c.04-.74-.52-1.39-1.27-1.43-.74-.04-1.39,.52-1.43,1.27-.01,.22-.2,.38-.42,.37h-.03Z"/>
    <path class="g" d="M12.83,10.52s-.09-.02-.13-.04c-.19-.1-.27-.34-.17-.53,.14-.27,.17-.59,.08-.88s-.3-.53-.57-.68c-.57-.29-1.26-.07-1.56,.49-.1,.19-.34,.27-.53,.17s-.27-.34-.17-.53c.49-.95,1.67-1.33,2.62-.83,.46,.24,.8,.64,.96,1.14s.11,1.02-.13,1.48c-.08,.15-.24,.23-.4,.21Z"/>
    <path class="g" d="M18.58,9.27c-.17-.02-.32-.16-.34-.34-.16-1.18,.57-2.01,1.37-2.31,.79-.3,1.89-.17,2.55,.81,.12,.18,.07,.43-.11,.55-.18,.12-.43,.07-.55-.11-.45-.66-1.15-.69-1.61-.52-.47,.18-.98,.67-.87,1.47,.03,.22-.12,.42-.34,.44h-.1Z"/>
    <path class="g" d="M15.19,7.33c-.13-.02-.24-.12-.26-.25-.11-.83,.4-1.41,.96-1.63,.67-.26,1.39-.03,1.79,.57,.09,.14,.06,.32-.08,.41-.14,.09-.32,.05-.41-.08-.3-.45-.78-.47-1.09-.35-.32,.12-.66,.45-.59,.99,.02,.16-.09,.31-.25,.33h-.07Z"/>
    <g>
      <path class="g" d="M19.55,29.61h.01c.32-.04,.63-.1,.79-.15,.07-.01,.12-.07,.15-.13,.96-3.42,1.43-5.09,2.36-8.53,0-.04,0-.1-.03-.13-.03-.04-.07-.06-.13-.06h0c-.22,0-.55,.01-.73,.03-.09,0-.16,.06-.17,.15-.95,3.46-1.41,5.16-2.39,8.63,0,.04,0,.1,.03,.13s.07,.06,.12,.06Z"/>
      <path class="g" d="M20.51,23.47c.1-.99-.63-1.89-1.61-1.99-1-.12-1.91,.61-2.02,1.6-.06,.48,.09,.95,.38,1.32,.31,.38,.74,.63,1.24,.68h.19c.42,0,.83-.13,1.15-.39,.38-.31,.63-.73,.67-1.21h.01Zm-.97-.12c-.04,.47-.48,.8-.95,.74-.23-.03-.44-.13-.58-.32-.15-.17-.2-.39-.17-.61,.04-.44,.42-.76,.86-.76h.09c.23,.03,.44,.13,.57,.31,.15,.17,.2,.39,.19,.63h0Z"/>
      <path class="g" d="M19.87,31.15s.13-.07,.15-.13l.2-.71s0-.1-.03-.15-.09-.06-.15-.04c-1.05,.22-2.25,.25-3.51,.12-1.27-.15-2.43-.45-3.39-.87-.04-.01-.1-.01-.15,0-.04,.03-.07,.07-.06,.13l.03,.73c0,.07,.04,.13,.12,.17,.96,.42,2.11,.71,3.33,.84,.48,.06,.95,.09,1.4,.09,.73,0,1.41-.06,2.05-.17Z"/>
      <path class="g" d="M12.61,18.86c1.19,.35,2.78,.67,4.48,.89-1,1.32-1.51,1.99-2.56,3.33-.28-.12-.55-.22-.84-.31l-.12-2.91c0-.09-.06-.16-.15-.17-.2-.06-.49-.13-.71-.19-.04,0-.1,0-.13,.03-.04,.03-.06,.07-.06,.12,.15,3.54,.22,5.31,.38,8.85,0,.07,.04,.13,.1,.16,.22,.1,.52,.23,.73,.32,.04,.01,.1,0,.15-.01,.04-.03,.06-.07,.06-.13-.09-1.98-.13-2.97-.2-4.92,1.05,.38,1.98,1.08,2.62,1.98,.76,1.06,1.12,2.36,1,3.64,0,.04,0,.09,.04,.13,.03,.03,.07,.06,.12,.06h.74c.09,0,.16-.07,.17-.16,.13-1.57-.33-3.14-1.29-4.41-.47-.61-1.02-1.13-1.66-1.54,1.15-1.48,1.7-2.21,2.87-3.71,1.7,.16,3.33,.22,4.6,.15,.09,0,.15-.06,.17-.15l.17-.67s0-.1-.03-.13c-.03-.04-.07-.06-.13-.06-1.12,.07-2.57,.04-4.1-.07,.58-.77,.89-1.18,1.48-1.98,.03-.04,.04-.1,.01-.15-.01-.04-.07-.09-.13-.09l-.86-.09s-.13,.01-.17,.07c-.63,.84-.95,1.27-1.59,2.09h-.01c-1.96-.22-3.78-.57-5.14-.97-.04,0-.1,0-.13,.03-.04,.03-.06,.07-.06,.12l.03,.7c0,.09,.06,.15,.13,.17h.01Z"/>
    </g>
    <g>
      <path class="d" d="M5.41,28.36h-.26c-1.39-.1-2.61-1.01-3.44-2.54-.78-1.44-1.12-3.28-.98-5.19,.29-3.93,2.6-7.01,5.25-7.01h.26c1.39,.1,2.61,1.01,3.44,2.54,.78,1.44,1.12,3.28,.98,5.19-.29,3.93-2.6,7.01-5.25,7.01Z"/>
      <path class="g" d="M5.99,14.31h.2c2.35,.17,4.04,3.3,3.77,6.98-.26,3.58-2.28,6.36-4.55,6.36h-.2c-2.35-.17-4.04-3.3-3.77-6.98,.26-3.58,2.28-6.36,4.55-6.36m0-1.41h0c-3.08,0-5.63,3.29-5.96,7.66-.33,4.53,1.89,8.25,5.07,8.49,.1,0,.21,.01,.31,.01,3.07,0,5.63-3.29,5.95-7.66,.33-4.53-1.89-8.25-5.07-8.49-.1,0-.21-.01-.31-.01h0Z"/>
    </g>
  </g>
</svg>