<?xml version="1.0" encoding="UTF-8"?>
<svg id="b" data-name="圖層 2" xmlns="http://www.w3.org/2000/svg" width="55.13" height="68.19" viewBox="0 0 55.13 68.19">
  <defs>
    <style>
      .d {
        fill: #e8b78a;
      }

      .e {
        fill: #f18a00;
      }

      .f {
        fill: #fae7d3;
      }

      .g {
        fill: #2d2a26;
      }
    </style>
  </defs>
  <g id="c" data-name="圖層 1">
    <g>
      <g>
        <g>
          <path class="f" d="M53,21.45c-.73-1.17-7.71-4.04-21.52-5.78-13.91-1.75-21.4-.68-22.3,.28l1,43.89c.02,.1,.02,.2,0,.3-.12,.98,4.3,4.16,15.01,5.51,10.54,1.33,15.63-.58,15.89-1.57h0c0-.08,.02-.16,.04-.23l11.88-42.41Z"/>
          <path class="g" d="M31.74,13.59c-2.42-.3-23.31-2.79-24.6,1.8-.05,.12-.07,.26-.07,.39l1.01,44.25v.04c-.08,1.71,1.62,3.32,5.07,4.76,3.09,1.3,7.27,2.32,11.77,2.89,4.5,.57,8.8,.61,12.12,.12,3.84-.57,5.9-1.76,6.13-3.55l11.86-42.33c.04-.1,.07-.2,.08-.3,.62-4.92-20.91-7.77-23.37-8.08Zm9.34,50.49c-.27,.99-5.35,2.9-15.89,1.57-10.7-1.35-15.13-4.53-15.01-5.51,.01-.1,.01-.2,0-.3l-1-43.89c.9-.96,8.39-2.04,22.3-.28,13.81,1.74,20.8,4.6,21.52,5.78l-11.88,42.41c-.02,.07-.03,.15-.04,.22h0Z"/>
        </g>
        <path class="e" d="M53.36,18.71c-.36-1.17-1.1-1.93-2.09-2.37-.26-.11-.52-.2-.82-.24h0c0-.39-.05-.77-.16-1.14-.35-1.16-1.1-1.94-2.09-2.38-.48-.22-1.06-.33-1.65-.34,.03-.48,0-.97-.15-1.43-.35-1.16-1.1-1.94-2.09-2.38-.98-.44-2.35-.46-3.37-.06-.3,.12-.58,.29-.83,.49-.38-1.01-1.08-1.72-1.98-2.13-.98-.44-2.35-.46-3.37-.06-.45,.18-.84,.48-1.19,.83-.41-.72-1.01-1.24-1.74-1.57-.98-.44-2.35-.46-3.37-.06-.71,.28-1.31,.85-1.72,1.52-.38-1.04-1.08-1.77-2-2.18-.98-.44-2.35-.46-3.37-.06-1.1,.43-1.99,1.53-2.2,2.67-.03,.15-.03,.3-.04,.45-.56,0-1.13,.09-1.61,.28-1.1,.43-1.99,1.53-2.2,2.67-.05,.28-.07,.57-.07,.85h0c-.2-.14-.43-.27-.67-.38-.98-.45-2.35-.46-3.36-.07-1.11,.44-1.99,1.53-2.2,2.67-.07,.37-.1,.76-.07,1.13h0c.87,.93,2.16,1.86,5.23,2.81,.28,.18,2.34,.65,2.34,.65,2.23,.62,8.24,1.58,8.24,1.58,1.14,.22,8.25,.97,15.69,1.08,6.67,.09,12.74-.56,13.04-.99,.11-.62,.06-1.27-.12-1.87Zm-7.75,.85h.03v.04s-.01-.03-.03-.04Z"/>
        <path class="g" d="M8.2,15.92c1.99,1.88,4.67,2.67,7.28,3.25,2.96,.66,5.96,1.2,8.96,1.67,6,.95,12.07,1.52,18.15,1.49,3.51-.02,7.01-.23,10.49-.68,1.44-.19,1.12-2.42-.32-2.23-11.79,1.53-23.71,.22-35.3-2.13-2.79-.57-5.74-1.13-7.88-3.16-.44-.42-1.24-.24-1.58,.21-.4,.53-.23,1.16,.21,1.58h0Z"/>
        <path class="g" d="M15.86,14.18c.04,.06,.08,.12,.12,.19-.07-.11,0,0,.01,.02,.02,.03,.03,.07,.05,.1,.07,.14,.12,.29,.17,.44,.02,.06,.01,.05,0,0,0,.04,.02,.07,.03,.11,.02,.08,.03,.16,.05,.25,.01,.07,.02,.15,.03,.22,0,.05,0,.28,.01,.13,0,.15-.01,.3-.03,.45-.01,.08-.02,.17-.04,.25,0,.04-.02,.07-.02,.11-.02,.1,.03-.11,0-.01-.05,.15-.1,.3-.17,.44-.02,.03-.03,.07-.05,.1,0,.02-.08,.15-.04,.07,.04-.07-.02,.03-.03,.05-.03,.04-.05,.08-.08,.12-.2,.29-.18,.72,.12,.93,.28,.2,.72,.18,.93-.12,.96-1.39,.95-3.28-.02-4.66-.2-.29-.67-.34-.93-.12-.29,.24-.33,.63-.12,.93h0Z"/>
        <path class="g" d="M21.97,13.75c.48-.64,1.2-1.07,1.96-1.22,.83-.17,1.6-.06,2.35,.37,.26,.15,.63-.05,.74-.3,.13-.31-.04-.58-.3-.74-1.84-1.05-4.39-.47-5.64,1.21-.43,.58,.46,1.27,.89,.69h0Z"/>
        <path class="g" d="M27.78,14.35c.08,.06,.15,.13,.22,.19l-.1-.1c.16,.16,.31,.35,.43,.54,.04,.06,.1,.11,.17,.14,.06,.04,.13,.07,.21,.08,.08,.01,.15,0,.22-.02,.07-.01,.14-.04,.19-.09,.11-.09,.2-.23,.21-.37v-.15c-.02-.1-.05-.19-.11-.26-.2-.32-.46-.6-.75-.84-.06-.05-.13-.08-.2-.09-.07-.03-.15-.03-.22-.02-.07,0-.14,.03-.2,.08-.07,.03-.12,.08-.16,.14-.08,.12-.14,.27-.11,.42,.03,.15,.1,.27,.21,.37h0Z"/>
        <path class="g" d="M50.72,14.75c-.05-2.22-1.98-3.54-4.1-3.75-.07-1.43-.88-2.76-2.26-3.45-1.4-.7-2.92-.54-4.28,.07-.93-2.06-4.36-2.96-6.36-1.65-1.48-2.07-4.52-2.47-6.46-.86-2.2-2.95-8.48-1.92-9.1,1.48-1.99-.15-3.8,1.23-4.24,3.17-2.72-.58-5.49,1.19-5.66,4.36-.07,1.44,2.16,1.73,2.24,.28,.1-2.04,2.03-3.3,3.85-2.09,.75,.5,2.03-.02,1.8-1.06-.39-1.82,1.1-2.88,2.68-2.15,.22,.1,1.07,.61,1.3,.72,.51,.23,1.04,.44,1.57,.61,.35,.11,.75,.06,.86-.35,.12-.46-.33-.71-.68-.87-.49-.22-.94-.53-1.2-1.02-.21-.39-.38-.87-.2-1.31,.12-.28,.34-.5,.59-.68,.61-.43,1.4-.62,2.14-.63,.74,0,1.55,.19,2.06,.76,.35,.38,.5,.88,.51,1.39,.03,1.12,1.8,1.27,2.16,.27,.87-2.44,4.07-2.15,4.37,.47,.15,1.3,2.03,1.2,2.23-.02,.27-1.6,4.15-.92,3.38,.77-.46,1,.88,2.06,1.73,1.32,.78-.68,1.72-1.29,2.8-1.2,1.15,.1,2.29,1.09,1.85,2.35-.28,.8,.31,1.68,1.2,1.55,1.41-.2,3.19,.26,2.9,2.02-.85-.02-1.71,.38-2.19,1.07-.17,.24-.15,.61,.1,.79,.24,.17,.61,.15,.79-.1,.73-1.04,2.14-.61,3,0,.35,.24,.65,.57,.84,.95,.31,.59,.37,1.28,.26,1.94-.26,1.43,2.05,1.66,2.31,.23,.4-2.25-.81-4.42-2.81-5.4Zm-29.51-5.71h-.02s0-.01,.02,0Z"/>
        <path class="g" d="M9.46,58.48c4.09,3.81,10.27,4.82,15.62,5.55,5.71,.78,11.57,.69,17.06-1.21,.69-.24,.24-1.27-.44-1.04-5.3,1.83-10.97,1.88-16.48,1.12-5.18-.71-11.12-1.64-15.07-5.33-.53-.5-1.21,.4-.69,.89h0Z"/>
        <g>
          <path class="f" d="M43.34,3.12c-.44,.19-.86,.27-1.26,.22-.08-.01-.16-.03-.24-.05-.35-.09-.62-.27-.84-.47-.54,4.13-1.06,9.41-1.42,14.24l2.44-.22s-.02-.08-.01-.12l1.34-13.6Z"/>
          <path class="f" d="M42.01,2.64c.4,.1,.86,0,1.37-.29-.07-.52-.49-.95-1.04-1.01-.51-.05-.97,.23-1.18,.68,.16,.23,.44,.52,.85,.63Z"/>
          <path class="g" d="M44.71,2.75c.13-1.37-.88-2.61-2.24-2.74-1.35-.14-2.56,.82-2.74,2.17-.56,4.25-1.12,9.82-1.5,14.89-.03,.35,.23,.66,.58,.71h.03c.37,.03,.69-.24,.71-.61v-.11c.37-4.84,.9-10.11,1.43-14.24-.42-.37-.61-.81-.63-.84-.07-.17,0-.36,.18-.44,.17-.07,.36,0,.44,.17,0,0,.06,.13,.18,.3,.21-.44,.67-.73,1.18-.68,.55,.07,.97,.49,1.04,1.01,.16-.09,.33-.2,.5-.34,.15-.11,.35-.09,.47,.06,.11,.15,.09,.35-.06,.47-.32,.25-.64,.44-.95,.58l-1.34,13.6s0,.08,.01,.12c.03,.31,.26,.55,.58,.6,.37,.04,.69-.23,.73-.6l1.38-14.09Z"/>
          <path class="g" d="M42.09,3.33c.4,.05,.82-.02,1.26-.22,.31-.13,.62-.32,.95-.58,.15-.11,.17-.32,.06-.47-.11-.15-.32-.17-.47-.06-.17,.13-.34,.24-.5,.34-.51,.29-.97,.39-1.37,.29-.41-.1-.69-.4-.85-.63-.12-.16-.18-.29-.18-.3-.07-.17-.27-.25-.44-.17-.17,.07-.25,.27-.18,.44,.01,.03,.21,.47,.63,.84,.22,.2,.49,.38,.84,.47,.08,.02,.16,.04,.24,.05Z"/>
        </g>
        <path class="g" d="M38.08,20.51c-.29-.04-.53-.26-.57-.56-.31-1.97,1.03-3.82,3-4.14,1.97-.32,3.82,1.03,4.14,3,.06,.36-.19,.7-.55,.76-.36,.06-.7-.19-.76-.55-.2-1.24-1.37-2.09-2.61-1.89-1.24,.2-2.09,1.37-1.89,2.61,.06,.36-.19,.7-.55,.76-.06,.01-.13,.01-.19,0Z"/>
        <path class="g" d="M27.05,18.11c-.34-.04-.6-.35-.58-.7,.12-1.99,1.83-3.51,3.82-3.39,1.99,.11,3.51,1.83,3.39,3.82-.02,.37-.34,.65-.7,.62-.37-.02-.65-.34-.62-.7,.08-1.25-.88-2.34-2.14-2.41-1.25-.08-2.34,.88-2.41,2.14-.02,.37-.34,.65-.7,.62-.01,0-.03,0-.04,0Z"/>
        <path class="g" d="M21.6,17.72c-.08,0-.15-.03-.22-.07-.33-.17-.45-.57-.28-.9,.24-.46,.28-.99,.13-1.48-.16-.5-.5-.9-.96-1.14-.95-.49-2.13-.12-2.62,.83-.17,.33-.57,.45-.9,.28-.33-.17-.45-.57-.28-.9,.83-1.6,2.81-2.23,4.42-1.4,.78,.4,1.35,1.08,1.62,1.92,.26,.83,.19,1.72-.21,2.5-.13,.25-.41,.39-.67,.35Z"/>
        <path class="g" d="M31.29,15.61c-.29-.04-.53-.27-.58-.57-.27-1.98,.97-3.38,2.31-3.89,1.34-.51,3.18-.28,4.29,1.37,.21,.31,.12,.72-.18,.92-.3,.2-.72,.12-.92-.18-.75-1.12-1.93-1.17-2.72-.87-.79,.3-1.65,1.13-1.46,2.47,.05,.36-.21,.7-.57,.75-.06,0-.12,0-.17,0Z"/>
        <path class="g" d="M25.58,12.35c-.22-.03-.4-.2-.43-.43-.19-1.39,.68-2.38,1.62-2.74,1.13-.43,2.34-.04,3.02,.96,.15,.23,.09,.54-.14,.69-.23,.15-.54,.09-.69-.14-.51-.76-1.31-.79-1.83-.59-.53,.2-1.11,.76-.99,1.67,.04,.27-.15,.52-.43,.56-.04,0-.09,0-.13,0Z"/>
        <g>
          <path class="g" d="M32.6,50.53s.02,0,.03,0c.51-.06,1.01-.17,1.26-.23,.11-.03,.2-.11,.23-.22,1.53-5.47,2.27-8.13,3.76-13.6,.02-.07,0-.15-.04-.21-.05-.06-.12-.09-.2-.09h0c-.36,.02-.89,.03-1.17,.04-.14,0-.25,.09-.29,.23-1.51,5.54-2.25,8.24-3.81,13.78-.02,.08,0,.16,.05,.22,.05,.05,.11,.08,.18,.08Z"/>
          <path class="g" d="M34.13,40.74c.17-1.58-.99-3.01-2.58-3.18-1.6-.18-3.04,.97-3.22,2.55-.09,.76,.13,1.51,.61,2.11,.49,.61,1.19,1,1.97,1.08,.1,.01,.2,.02,.31,.02,.67,0,1.31-.22,1.84-.64,.61-.48,.99-1.17,1.07-1.94Zm-1.55-.17c-.08,.74-.76,1.27-1.51,1.19-.37-.04-.69-.22-.92-.5-.22-.28-.33-.63-.29-.98,.08-.69,.67-1.2,1.36-1.2,.05,0,.09,0,.14,0,.36,.04,.69,.22,.91,.5,.23,.28,.33,.63,.29,.99Z"/>
          <path class="g" d="M33.12,52.98c.12-.02,.21-.11,.24-.22l.32-1.13c.02-.08,0-.16-.05-.23-.06-.06-.14-.09-.23-.07-1.67,.34-3.61,.4-5.61,.18-2.02-.22-3.89-.71-5.41-1.4-.08-.03-.17-.03-.24,.02-.07,.05-.11,.12-.1,.21l.05,1.17c0,.12,.08,.22,.18,.27,1.53,.66,3.37,1.13,5.33,1.35,.76,.08,1.5,.13,2.23,.13,1.15,0,2.26-.08,3.27-.27Z"/>
          <path class="g" d="M21.52,33.38c1.91,.56,4.44,1.06,7.14,1.41-1.61,2.12-2.42,3.18-4.08,5.33-.43-.19-.89-.36-1.36-.49l-.19-4.66c0-.14-.1-.25-.23-.28-.32-.08-.78-.2-1.13-.3-.07-.02-.15,0-.21,.04-.06,.05-.09,.12-.09,.2,.23,5.64,.35,8.47,.6,14.11,0,.11,.07,.21,.17,.26,.34,.16,.84,.38,1.17,.5,.08,.03,.16,.02,.23-.03,.06-.05,.1-.12,.1-.2-.14-3.15-.2-4.74-.34-7.85,1.67,.61,3.15,1.73,4.19,3.17,1.22,1.69,1.79,3.75,1.61,5.81,0,.07,.02,.15,.07,.2,.05,.06,.12,.09,.19,.09,.25,.01,.66,.02,.95,.02,.09,0,.17,0,.23,0,.14,0,.26-.11,.27-.25,.2-2.51-.53-5.01-2.07-7.04-.73-.97-1.62-1.8-2.65-2.47,1.83-2.37,2.72-3.53,4.57-5.93,2.72,.27,5.32,.35,7.34,.23,.13,0,.24-.1,.28-.23l.29-1.07c.02-.07,0-.15-.05-.21-.05-.06-.12-.09-.2-.09-1.79,.12-4.11,.08-6.55-.13,.93-1.23,1.42-1.88,2.38-3.15,.05-.07,.06-.16,.03-.24-.03-.08-.11-.13-.22-.14l-1.37-.15c-.1-.01-.21,.03-.28,.12-1.01,1.34-1.51,2.01-2.52,3.35,0,0-.02,.01-.03,.01-3.14-.36-6.05-.91-8.19-1.57-.07-.02-.15,0-.21,.04-.06,.05-.09,.12-.09,.2l.05,1.11c0,.13,.09,.24,.22,.28Z"/>
        </g>
      </g>
      <g>
        <path class="d" d="M9.11,47.77c-.14,0-.29,0-.43-.02-4.69-.35-7.96-6.07-7.44-13.03,.49-6.62,4.37-11.81,8.84-11.81,.14,0,.29,0,.43,.02,2.33,.17,4.39,1.69,5.79,4.28,1.31,2.42,1.89,5.52,1.65,8.75-.49,6.62-4.37,11.81-8.84,11.81Z"/>
        <path class="g" d="M10.08,24.09c.11,0,.23,0,.35,.01,3.96,.29,6.81,5.56,6.35,11.76-.44,6.02-3.84,10.72-7.66,10.72-.11,0-.23,0-.35-.01-3.96-.29-6.81-5.56-6.35-11.76,.44-6.02,3.84-10.72,7.66-10.72m0-2.37h0c-5.17,0-9.48,5.55-10.02,12.91-.25,3.45,.38,6.78,1.79,9.4,1.57,2.91,4.03,4.7,6.74,4.9,.17,.01,.35,.02,.52,.02,5.17,0,9.48-5.55,10.02-12.91,.25-3.45-.38-6.78-1.79-9.4-1.57-2.91-4.03-4.7-6.74-4.9-.17-.01-.35-.02-.52-.02h0Z"/>
      </g>
    </g>
  </g>
</svg>