<?xml version="1.0" encoding="UTF-8"?>
<svg id="_層_2" data-name="圖層 2" xmlns="http://www.w3.org/2000/svg" width="139.81" height="129.04" viewBox="0 0 139.81 129.04">
  <defs>
    <style>
      .cls-1 {
        fill: #e8b78a;
      }

      .cls-2 {
        fill: #fce9d4;
      }

      .cls-3 {
        fill: #f18a00;
      }

      .cls-4 {
        fill: #2d2a26;
      }
    </style>
  </defs>
  <g id="layout">
    <g>
      <g>
        <path class="cls-1" d="M64.81,127.59c-33.21,0-57.77-18.77-62.57-47.81-1.83-11.1-.52-21.58,3.89-31.15,.35-.76,1.05-2.15,2.46-4.6-1.23-.71-2.35-1.64-3.34-2.76-2.73-3.08-3.82-6.79-3.16-10.75,.61-3.63,2.73-7.2,5.96-10.07,3.45-3.06,7.48-4.75,11.37-4.75,1.11,0,2.21,.14,3.25,.41,2.44,.64,4.59,1.99,6.38,4,.67,.76,1.25,1.57,1.73,2.42,8.75-5.13,18.76-8.65,29.77-10.47,5.16-.85,10.32-1.28,15.33-1.28,5.57,0,11,.53,16.16,1.58,.18-.97,.47-1.92,.87-2.87,1.04-2.48,2.64-4.45,4.75-5.84,2.18-1.44,4.85-2.2,7.73-2.2,2.47,0,5,.54,7.52,1.6,8.64,3.64,12.48,11.38,9.35,18.81-.58,1.37-1.33,2.59-2.25,3.66,9.48,8.02,15.39,18.75,17.56,31.9,2.8,16.98-1.67,32.71-12.95,45.5-10.65,12.07-26.69,20.4-45.17,23.46-4.91,.81-9.84,1.22-14.64,1.22h0Z"/>
        <path class="cls-4" d="M105.41,2.89c2.25,0,4.62,.5,6.95,1.48,7.37,3.11,11.56,9.86,8.58,16.92-.74,1.76-1.78,3.2-3.05,4.33-.02-.02-.03-.02-.03-.02l.04,.04s0,0-.03-.02h0c9.56,7.6,15.99,18.2,18.28,32.03,5.7,34.47-20.35,61.25-56.94,67.29-4.88,.81-9.7,1.2-14.41,1.2-30.56,0-56.21-16.74-61.15-46.61-1.84-11.16-.34-21.38,3.78-30.31,.97-2.11,3.17-5.81,3.17-5.81h0c-1.56-.66-3.01-1.69-4.28-3.11-5.09-5.73-3.3-13.47,2.68-18.79,3.17-2.81,6.87-4.38,10.42-4.38,.98,0,1.95,.12,2.89,.37,2.08,.54,4.02,1.71,5.67,3.56,.98,1.1,1.7,2.28,2.2,3.51,8.76-5.39,19.17-9.21,30.62-11.1,5.12-.85,10.18-1.27,15.1-1.27,6.05,0,11.89,.63,17.41,1.88h-.02c.08-1.33,.39-2.69,.96-4.05,.96-2.29,2.43-4.01,4.22-5.2,1.99-1.32,4.38-1.96,6.93-1.96M105.41,0h0c-3.16,0-6.11,.84-8.52,2.44-2.35,1.55-4.13,3.74-5.29,6.48-.24,.58-.45,1.16-.62,1.75-4.84-.89-9.9-1.34-15.07-1.34-5.09,0-10.33,.44-15.57,1.3-10.68,1.77-20.44,5.11-29.06,9.96-.35-.49-.73-.97-1.14-1.44-1.98-2.23-4.37-3.72-7.09-4.44-1.17-.31-2.38-.46-3.62-.46-4.24,0-8.62,1.82-12.33,5.11-3.47,3.09-5.75,6.96-6.42,10.91-.73,4.34,.51,8.58,3.5,11.95,.77,.86,1.6,1.62,2.5,2.27-.82,1.47-1.45,2.67-1.85,3.53C.29,57.86-1.06,68.63,.82,80.01c2.49,15.05,10.13,27.62,22.11,36.36,11.35,8.28,25.83,12.66,41.88,12.66,4.89,0,9.89-.42,14.88-1.24,18.81-3.11,35.15-11.6,46.02-23.93,11.41-12.94,16.13-29.52,13.29-46.69-2.15-13.02-7.87-23.72-17-31.86,.63-.89,1.16-1.86,1.6-2.9,1.75-4.15,1.56-8.56-.53-12.44-1.9-3.53-5.31-6.46-9.59-8.27C110.8,.58,108.08,0,105.41,0h0Z"/>
      </g>
      <g>
        <g>
          <path class="cls-3" d="M115.93,19.24c1.86-4.42-.76-8.65-5.37-10.59-3.12-1.31-6.35-1.25-8.69,.3-1.12,.74-2.04,1.82-2.64,3.25-.47,1.12-.66,2.24-.6,3.32,5.36,1.67,10.34,3.97,14.82,6.88,1.05-.76,1.91-1.81,2.48-3.16Z"/>
          <path class="cls-3" d="M10.29,36.69c-3.19-3.59-2.06-8.43,1.68-11.75,2.53-2.25,5.61-3.23,8.32-2.51,1.3,.34,2.52,1.07,3.55,2.23,.81,.91,1.35,1.91,1.64,2.95-4.53,3.31-8.51,7.09-11.82,11.28-1.24-.38-2.39-1.1-3.37-2.2Z"/>
        </g>
        <path class="cls-2" d="M51.86,85.56c-1.49,2.91-2.06,6.24-1.47,9.85,1.84,11.15,13.45,16.51,26.33,14.38,12.88-2.13,22.15-10.93,20.31-22.08-1.84-11.15-13.39-16.11-26.27-13.98-8.71,1.44-15.8,5.75-18.91,11.84"/>
        <path class="cls-4" d="M74.87,100.12c-.69,0-1.3-.49-1.42-1.19l-1.67-9.49c-.14-.78,.39-1.53,1.17-1.67,.78-.14,1.53,.39,1.67,1.17l1.67,9.49c.14,.78-.39,1.53-1.17,1.67-.08,.02-.17,.02-.25,.02Z"/>
        <path class="cls-4" d="M78.54,84.16c.41,2.51-1.88,4.98-5.13,5.52-3.25,.54-6.22-1.06-6.64-3.58-.42-2.51,1.88-4.98,5.13-5.52,3.25-.54,6.22,1.06,6.64,3.58Z"/>
        <path class="cls-4" d="M93.4,65.77c-1.95,.32-3.27,2.17-2.95,4.12,.32,1.95,2.17,3.27,4.12,2.95,1.95-.32,3.27-2.17,2.95-4.12-.32-1.95-2.17-3.27-4.12-2.95Z"/>
        <path class="cls-4" d="M43.82,77.57c.32,1.95,2.17,3.28,4.12,2.96,1.95-.32,3.28-2.17,2.96-4.12-.32-1.95-2.17-3.28-4.12-2.96-1.95,.32-3.28,2.17-2.96,4.12Z"/>
      </g>
    </g>
  </g>
</svg>