<?xml version="1.0" encoding="UTF-8"?>
<svg id="b" data-name="圖層 2" xmlns="http://www.w3.org/2000/svg" width="14.56" height="9.76" viewBox="0 0 14.56 9.76">
  <g id="c" data-name="設計">
    <g>
      <path d="M14.48,.22c.14,.23,.08,.53-.15,.67l-6.26,3.99,6.26,3.99c.23,.14,.29,.44,.15,.67s-.45,.29-.67,.15L6.91,5.29c-.14-.09-.22-.24-.22-.41s.09-.32,.22-.41L13.81,.08C13.9,.02,13.99,0,14.07,0,14.23,0,14.39,.08,14.48,.22Z"/>
      <path d="M.08,9.53c-.14-.23-.08-.53,.15-.67l6.26-3.99L.23,.89C0,.75-.07,.45,.08,.22S.52-.07,.75,.08L7.65,4.47c.14,.09,.22,.24,.22,.41s-.09,.32-.22,.41L.75,9.68c-.08,.05-.17,.08-.26,.08-.16,0-.32-.08-.41-.22Z"/>
    </g>
  </g>
</svg>