<?xml version="1.0" encoding="UTF-8"?>
<svg id="b" data-name="圖層 2" xmlns="http://www.w3.org/2000/svg" width="147.34" height="27.75" viewBox="0 0 147.34 27.75">
  <g id="c" data-name="footer">
    <g>
      <polygon points="80.06 7.34 87.93 7.34 87.93 27.26 93.62 27.26 93.62 7.34 101.49 7.34 101.49 2.7 80.06 2.7 80.06 7.34" style="fill: #0d131a;"/>
      <path d="M48.85,5.81c-1.22-1.15-2.65-2.04-4.28-2.66-1.63-.62-3.43-.93-5.38-.93s-3.74,.32-5.38,.95c-1.63,.63-3.06,1.53-4.28,2.68-1.22,1.15-2.17,2.5-2.84,4.04-.67,1.54-1,3.24-1,5.1s.34,3.53,1,5.08c.67,1.55,1.62,2.9,2.84,4.06,1.22,1.15,2.66,2.05,4.3,2.68,1.65,.64,3.44,.95,5.4,.95s3.71-.31,5.34-.93c1.63-.62,3.06-1.51,4.28-2.66,1.22-1.15,2.17-2.51,2.84-4.07,.67-1.56,1-3.26,1-5.1s-.33-3.56-1-5.11c-.67-1.55-1.62-2.9-2.84-4.06Zm-2.52,12.36c-.39,.95-.93,1.79-1.64,2.5-.71,.72-1.52,1.27-2.45,1.66-.93,.39-1.95,.58-3.05,.58s-2.13-.19-3.07-.58c-.94-.39-1.76-.94-2.45-1.66-.69-.72-1.23-1.55-1.62-2.5-.39-.95-.58-2.02-.58-3.19s.19-2.24,.58-3.19c.39-.95,.93-1.79,1.62-2.5,.69-.72,1.51-1.27,2.45-1.66,.94-.39,1.96-.58,3.07-.58s2.12,.19,3.05,.58c.93,.39,1.75,.94,2.45,1.66,.71,.72,1.25,1.55,1.64,2.5,.39,.95,.58,2.02,.58,3.19s-.19,2.24-.58,3.19Z" style="fill: #0d131a;"/>
      <rect x="57.15" y="2.7" width="5.72" height="24.56" style="fill: #0d131a;"/>
      <path d="M115.51,8.01c-1.89,0-3.63,.6-5.07,1.62V2.7h-5.48V27.26h5.48v-10.52c0-2.31,1.87-4.18,4.18-4.18s4.18,1.87,4.18,4.18v.05h0v10.47h5.48v-10.47c0-4.85-3.93-8.78-8.78-8.78Z" style="fill: #0d131a;"/>
      <path d="M15.54,13.48L23.29,2.7h-6.53l-6.57,9.15c-.95-.13-1.95-.2-3.03-.2-.52,0-1.02,.02-1.51,.05V2.7H0V27.26H5.65v-10.93c.49-.06,.99-.09,1.51-.09,5.8,0,10.25,3.62,10.25,11.02h5.75c0-4.78-1.89-10.8-7.61-13.77Z" style="fill: #0d131a;"/>
      <path d="M147.32,14.83c-.32-3.67-3.44-7.12-9.92-6.8-6.35,.32-10.04,4.41-10.04,9.86,0,.53,.04,1.06,.11,1.57,.18,1.27,.59,2.44,1.24,3.5,.9,1.48,2.17,2.65,3.8,3.51,1.64,.85,3.54,1.28,5.72,1.28,1.73,0,3.26-.27,4.59-.8,1.33-.53,2.43-1.3,3.31-2.3l-2.95-3.2c-.64,.62-1.35,1.08-2.12,1.39-.77,.31-1.65,.46-2.65,.46-1.16,0-2.16-.21-2.99-.62-.83-.41-1.48-1.01-1.96-1.8-.26-.43-.44-.91-.56-1.43h10.25c3.21,0,4.38-2.08,4.16-4.62Zm-5.82,1.18h-8.62s.64-3.58,4.8-3.87c3.26-.23,4.73,1.19,5.03,2.13,.26,.82,.07,1.75-1.21,1.75Z" style="fill: #0d131a;"/>
      <path d="M134.67,4.72s-.1,.09-.12,.12c-.04,.06-.06,.12-.02,.14,.04,.02,.14,.04,.22,.04,.07,0,.14-.04,.21-.05,.07,0,.14-.02,.21-.03,.07,0,.14-.03,.21-.04,.07-.01,.14-.01,.21-.02s.14,0,.21-.02,.14-.02,.21-.03c.06,0,.12-.09,.19-.11,.07-.02,.17,0,.2,.1,.01,.04-.04,.1-.03,.15,0,.05,.01,.08-.01,.12-.02,.04-.04,.07-.11,.1-.04,.02-.1,.04-.16,.05-.06,.01-.11,.03-.07,.1,.05,.08,.11,.08,.17,.06,.07-.02,.15-.03,.21-.04,.06-.01,.11-.08,.17-.09,.06-.01,.13-.01,.2-.02,.06,0,.14,.01,.2,0s.12-.06,.19-.06c.07,0,.13,0,.2-.01s.14,.03,.2,.02c.07,0,.13,0,.2,0,.07,0,.13-.05,.19-.05,.07,0,.13-.02,.2-.02,.07,0,.13-.03,.2-.03s.13,0,.2-.01c.07,0,.13-.02,.2-.02,.07,0,.13,.03,.2,.03,.07,0,.13-.01,.2-.01,.07,0,.13,.04,.2,.04,.07,0,.13,0,.2-.01,.07,0,.13-.04,.2-.05,.07,0,.13,.03,.2,.03,.07,0,.14,0,.2,0,.07,0,.13-.04,.2-.05,.07,0,.14,0,.2,0,.07,0,.13-.06,.19-.07,.07-.01,.13-.02,.2-.03,.07-.01,.13-.04,.19-.05,.07-.01,.13-.03,.2-.04,.07-.02,.13-.04,.19-.06,.06-.02,.12-.05,.19-.07,.06-.02,.14,0,.21-.02,.06-.02,.12-.07,.18-.09,.06-.03,.14,0,.21-.04,.06-.03,.12-.07,.18-.1,.06-.03,.12-.07,.18-.11,.06-.03,.13-.04,.19-.08,.06-.03,.13-.06,.18-.09,.06-.04,.07-.15,.13-.18,.06-.04,.17,.01,.23-.02,.06-.04,.13-.07,.19-.1,.06-.04,.11-.1,.17-.13,.06-.04,.11-.11,.17-.15,.06-.04,.13-.07,.19-.11,.06-.04,.15-.05,.2-.1,.05-.05,.06-.15,.11-.21,.05-.06,.08-.12,.12-.19,.04-.07,.08-.13,.12-.21,.04-.07,.12-.12,.15-.2,.03-.07-.01-.16,0-.25,.02-.08,.07-.14,.06-.19,0-.07-.03-.13-.07-.17-.04-.05-.1-.06-.15-.09-.05-.03-.11-.04-.16-.06-.06-.02-.1-.07-.15-.1-.08-.05-.14-.06-.18-.03-.04,.04-.11,.11-.14,.18-.03,.07-.02,.13-.08,.17-.05,.03-.06,.14-.12,.18-.05,.03-.17,.01-.17,0,0,0,0-.1,.04-.17,.03-.06,.02-.14,.05-.2,.03-.06,.13-.11,.15-.17,.02-.07-.01-.14-.01-.2,0-.06-.03-.11-.06-.16-.03-.04-.07-.08-.12-.11-.04-.03-.07-.1-.13-.12-.06-.02-.02-.06,.01-.12,.02-.06,.05-.12,.07-.18,.02-.05-.03-.12-.06-.19-.02-.05-.03-.13-.07-.18-.04-.05-.06-.11-.1-.15-.04-.05-.14-.03-.18-.07-.06-.05-.1-.1-.12-.12-.08-.06-.13-.05-.16,0-.03,.05-.03,.17-.08,.18-.07,.03-.14,.03-.21,.06-.07,.03-.12,.11-.18,.14-.07,.04-.13,.07-.2,.11-.06,.04-.13,.07-.19,.12-.06,.04-.1,.12-.16,.17-.06,.05-.16,.04-.22,.09-.06,.05-.12,.09-.18,.13-.06,.05-.07,.15-.13,.19-.06,.05-.13,.07-.19,.12s-.11,.11-.17,.15c-.05,.03-.15,0-.21,.02-.06,.03-.11,.06-.17,.08-.06,.02-.12,.02-.18,.04-.06,.02-.12,.06-.18,.08-.08,.02-.15,.06-.22,.09-.07,.03-.12,.11-.19,.14-.07,.04-.16,.02-.24,.05-.07,.03-.12,.14-.19,.16-.07,.02-.14,.02-.2,.04-.07,.02-.14,.02-.21,.04-.07,.02-.13,.05-.2,.07s-.14,0-.21,.02c-.07,.02-.12,.1-.19,.12-.07,.02-.14-.01-.21,0s-.13,.06-.2,.08c-.07,.02-.14,.03-.2,.05-.07,.02-.13,.05-.2,.07-.07,.02-.13,.03-.2,.05-.07,.02-.13,.06-.2,.08-.07,.02-.14,0-.21,.02-.07,.02-.13,.05-.2,.07-.07,.02-.13,.04-.2,.06-.07,.02-.14,.02-.2,.04-.07,.02-.14,0-.21,.02-.07,.02-.14,.03-.2,.05-.07,.02-.12,.07-.19,.09s-.12,.07-.18,.09c-.07,.02-.14,.01-.21,.04s-.12,.06-.18,.09c-.06,.03-.11,.07-.17,.09-.06,.03-.15,.02-.21,.05-.06,.03-.14,.04-.19,.07-.06,.03-.08,.09-.14,.12-.06,.03-.09,.08-.14,.11-.05,.03-.12,.05-.17,.09-.04,.03-.1,.05-.16,.07-.06,.02-.12,.02-.17,.05-.05,.02-.06,.05-.08,.1-.02,.04-.01,.07,0,.11,0,.04,0,.07,.03,.1,.02,.03,.01,.08,.04,.11,.03,.03,.05,.07,.09,.1,.04,.03,.09,.05,.14,.08,.05,.02,.14,0,.2,.02,.05,.02,.09,.05,.15,.06,.06,.01,.19,.04,.19,.04Z" style="fill: #0d131a;"/>
    </g>
  </g>
</svg>