<?xml version="1.0" encoding="UTF-8"?>
<svg id="b" data-name="圖層 2" xmlns="http://www.w3.org/2000/svg" width="130.26" height="219.39" viewBox="0 0 130.26 219.39">
  <g id="c" data-name="footer">
    <path d="M93.4,219.39c-19.79,0-34.73-4.42-44.82-13.27-10.1-8.85-15.15-21.92-15.15-39.2V95.39H0V53.22H33.42V0h50.6V53.22h46.23v42.17h-46.23v61.53c0,7.29,1.61,12.45,4.84,15.46,3.23,3.02,8.9,4.53,17.02,4.53,4.16,0,7.96-.26,11.4-.78,3.44-.52,7.23-1.4,11.4-2.66v40.92c-4.59,1.46-10.41,2.66-17.49,3.59-7.08,.94-13.02,1.4-17.81,1.4Z" style="fill: #000;"/>
  </g>
</svg>