<?xml version="1.0" encoding="UTF-8"?>
<svg id="b" data-name="圖層 2" xmlns="http://www.w3.org/2000/svg" width="39.09" height="45.59" viewBox="0 0 39.09 45.59">
  <defs>
    <style>
      .d {
        fill: #211815;
      }

      .e {
        fill: #da5e29;
      }

      .f {
        fill: #ecae4b;
      }
    </style>
  </defs>
  <g id="c" data-name="layout">
    <g>
      <path class="e" d="M30.35,0c-4.82,0-8.74,3.92-8.74,8.74h1.96c0-.9,.18-1.77,.5-2.55l5.83,3.37,5.81,3.36c-1.24,1.59-3.18,2.62-5.35,2.62v1.96c4.82,0,8.74-3.92,8.74-8.74S35.17,0,30.35,0Zm5.37,4.6l-4.45,2.57V2.02c1.81,.25,3.39,1.2,4.45,2.58Zm-6.29-2.58V7.17l-4.45-2.57c1.07-1.38,2.65-2.34,4.45-2.58Zm2.75,6.74l4.45-2.57c.32,.79,.5,1.65,.5,2.55s-.18,1.79-.51,2.58l-4.44-2.56Z"/>
      <path class="f" d="M26.33,12.99c-6.06,.45-14.31,.44-20.39,.02l4.33,27.1c3.76,.85,8.1,.85,11.73,.03l4.33-27.15Z"/>
      <g>
        <path class="d" d="M31.1,12.44c-.66,.1-1.65,.23-2.17,.3-.14,.02-.25,.13-.27,.26l-4.27,26.51c-.02,.14,.1,.25,.23,.22,.75-.18,1.58-.44,2.24-.67,.11-.04,.19-.13,.21-.25l4.25-26.15c.02-.13-.09-.24-.22-.22Z"/>
        <path class="d" d="M5.56,41.8l.36,2.17c.02,.12,.1,.22,.22,.25,2.89,.89,6.35,1.36,9.93,1.36s7.03-.48,9.93-1.37c.12-.04,.2-.13,.22-.25l.36-2.17c.02-.14-.11-.26-.25-.21-2.97,.96-6.54,1.48-10.27,1.48s-7.29-.51-10.26-1.48c-.14-.04-.27,.07-.25,.21Z"/>
        <path class="d" d="M.34,9.8c.02,.13,.12,.24,.26,.26,3.98,.67,9.49,1.09,15.59,1.09,6.01,0,11.39-.4,15.34-1.05,.14-.02,.24-.13,.26-.26l.33-2.05c.02-.13-.09-.24-.22-.22-3.98,.68-9.55,1.11-15.71,1.11S4.22,8.23,.22,7.52c-.13-.02-.24,.09-.22,.22l.33,2.05Z"/>
        <path class="d" d="M7.76,39.5L3.48,12.96c-.02-.15-.14-.26-.29-.28-.23-.03-1.4-.18-2.17-.3-.07-.01-.13,.01-.18,.06-.05,.05-.07,.11-.06,.18l4.26,26.18c.02,.12,.1,.22,.22,.26,.45,.16,1.34,.46,2.24,.67,.02,0,.03,0,.05,0,.05,0,.1-.02,.14-.06,.05-.05,.08-.12,.06-.19Z"/>
      </g>
    </g>
  </g>
</svg>