<?xml version="1.0" encoding="UTF-8"?>
<svg id="b" data-name="圖層 2" xmlns="http://www.w3.org/2000/svg" width="3306.2" height="661.94" viewBox="0 0 3306.2 661.94">
  <defs>
    <style>
      .d {
        fill: #0d131a;
      }
    </style>
  </defs>
  <g id="c" data-name="layout">
    <rect class="d" x="1364.64" y="62.94" width="136.55" height="586.4"/>
    <path class="d" d="M371.12,320.42L556.05,62.94h-156.05l-156.93,218.49c-22.59-3.05-46.58-4.77-72.25-4.77-12.4,0-24.28,.51-35.95,1.25V62.94H0V649.34H134.88V388.29c11.7-1.37,23.69-2.1,35.95-2.1,138.57,0,244.81,86.54,244.81,263.15h137.3c0-114.11-45.06-257.95-181.81-328.93Z"/>
    <g>
      <polygon class="d" points="1701.14 175.08 1888.88 175.08 1888.88 650.23 2024.67 650.23 2024.67 175.08 2212.42 175.08 2212.42 64.44 1701.14 64.44 1701.14 175.08"/>
      <path class="d" d="M2546.71,191.16c-45.05,0-86.66,14.36-120.82,38.55V64.44h-130.76V650.23h130.76v-250.93c0-55.09,44.66-99.74,99.74-99.74s99.74,44.66,99.74,99.74v1.28h0v249.65h130.76v-249.65c0-115.66-93.76-209.42-209.42-209.42Z"/>
      <path class="d" d="M3305.57,353.81c-7.67-87.52-82.08-169.85-236.66-162.14-151.36,7.54-239.53,105.28-239.53,235.14,0,12.76,.88,25.18,2.7,37.39,4.37,30.39,14.14,58.27,29.52,83.58,21.48,35.37,51.73,63.24,90.74,83.61,39.02,20.38,84.52,30.57,136.55,30.57,41.26,0,77.73-6.37,109.4-19.1,31.66-12.74,57.95-30.99,78.87-54.75l-70.39-76.4c-15.27,14.72-32.1,25.76-50.46,33.1-18.38,7.36-39.44,11.04-63.18,11.04-27.71,0-51.46-4.95-71.24-14.86-19.8-9.89-35.34-24.19-46.65-42.86-6.21-10.25-10.54-21.74-13.34-34.03l244.45-.21c76.5,0,104.52-49.35,99.2-110.07Zm-138.84,28.03l-205.61,.31s15.36-85.8,114.47-92.71c77.76-5.42,112.94,28.3,120.04,50.71,6.18,19.5,1.74,41.68-28.9,41.68Z"/>
      <path class="d" d="M3003.95,112.57c.04,.12-2.31,2.14-2.78,2.91-.86,1.4-1.53,2.83-.4,3.4,1.05,.53,3.41,.84,5.34,.92,1.58,.06,3.4-.99,5.09-1.12,1.71-.12,3.32-.45,5-.67,1.68-.22,3.24-.71,4.91-.99,1.66-.28,3.4-.29,5.06-.59,1.66-.3,3.45-.2,5.12-.48,1.67-.28,3.35-.49,5.04-.71,1.43-.18,2.81-2.15,4.46-2.69,1.6-.52,4,.21,4.75,2.41,.32,.96-.97,2.37-.75,3.56,.2,1.13,.34,1.84-.32,2.9-.57,.91-.89,1.61-2.62,2.27-1.01,.39-2.4,.93-3.73,1.18-1.36,.27-2.58,.83-1.66,2.31,1.2,1.93,2.73,1.82,4.1,1.46,1.55-.4,3.5-.62,4.96-.86,1.53-.26,2.61-1.96,4.15-2.21,1.54-.25,3.16-.26,4.71-.49,1.54-.23,3.3,.35,4.85,.14,1.55-.21,2.9-1.34,4.46-1.53,1.55-.19,3.18-.09,4.74-.27,1.56-.18,3.28,.6,4.84,.44,1.56-.16,3.16,0,4.72-.14,1.56-.14,3.01-1.17,4.58-1.3,1.57-.13,3.12-.39,4.69-.51,1.57-.11,3.11-.61,4.67-.72,1.57-.11,3.15-.16,4.72-.26,1.57-.09,3.13-.45,4.7-.53,1.57-.08,3.18,.72,4.76,.65,1.57-.07,3.13-.25,4.7-.31,1.57-.06,3.17,.93,4.74,.88,1.57-.05,3.13-.23,4.7-.27,1.57-.04,3.14-1.07,4.71-1.11,1.58-.04,3.16,.83,4.74,.8,1.61-.03,3.26,.15,4.86,.07,1.61-.08,3.19-.95,4.79-1.08,1.6-.14,3.26,.01,4.85-.18,1.59-.19,3.03-1.51,4.61-1.76,1.59-.25,3.16-.48,4.74-.78,1.57-.3,3.07-.87,4.64-1.23,1.57-.36,3.13-.63,4.69-1.05,1.55-.41,3.02-1.05,4.56-1.52,1.54-.46,2.95-1.21,4.48-1.72,1.53-.51,3.42,.02,4.93-.54,1.51-.56,2.83-1.59,4.33-2.2,1.5-.62,3.44-.21,4.92-.87,1.48-.66,2.77-1.76,4.23-2.47,1.46-.71,2.75-1.77,4.19-2.53,1.44-.76,3.13-1.07,4.55-1.87,1.42-.81,3.01-1.36,4.41-2.21,1.4-.86,1.76-3.47,3.14-4.37,1.42-.93,4.1,.3,5.58-.57,1.47-.86,2.99-1.57,4.48-2.42,1.49-.84,2.68-2.32,4.16-3.19,1.49-.87,2.52-2.63,3.97-3.56,1.46-.94,3.04-1.66,4.43-2.7,1.4-1.05,3.5-1.26,4.79-2.45,1.3-1.2,1.44-3.68,2.59-5.06,1.12-1.36,1.83-2.93,2.78-4.5,1-1.65,2-3.22,2.91-4.91,.91-1.68,2.96-2.83,3.7-4.65,.7-1.74-.35-3.92,.1-5.87,.43-1.86,1.58-3.26,1.43-4.62-.19-1.71-.72-3.06-1.56-4.16-.87-1.13-2.31-1.46-3.56-2.18-1.22-.7-2.61-1.01-3.91-1.54-1.37-.57-2.41-1.79-3.52-2.45-2.01-1.18-3.46-1.5-4.4-.67-1.05,.92-2.6,2.65-3.3,4.38-.67,1.67-.53,3.14-1.79,4-1.21,.82-1.41,3.42-2.74,4.38-1.09,.78-4.04,.26-4.1,.19-.17-.19,.22-2.48,.88-4.02,.64-1.5,.55-3.31,1.23-4.81,.7-1.54,3.11-2.56,3.6-4.07,.52-1.62-.25-3.3-.3-4.82-.05-1.46-.65-2.53-1.53-3.84-.69-1.03-1.62-1.79-2.98-2.7-1.03-.69-1.65-2.33-3.14-2.93-1.47-.59-.4-1.33,.27-2.93,.58-1.38,1.11-2.97,1.64-4.19,.56-1.25-.71-2.84-1.52-4.51-.58-1.18-.64-3.04-1.6-4.25-.87-1.1-1.46-2.64-2.46-3.65-1.06-1.08-3.39-.71-4.36-1.57-1.39-1.22-2.3-2.46-2.93-2.94-1.8-1.35-3.12-1.2-3.81-.12-.81,1.27-.68,3.94-1.83,4.41-1.66,.67-3.43,.66-5,1.44-1.61,.8-2.84,2.53-4.37,3.42-1.56,.9-3.17,1.56-4.65,2.54-1.5,.99-3.14,1.73-4.59,2.78-1.46,1.05-2.28,2.97-3.7,4.06-1.42,1.09-3.74,.95-5.14,2.06-1.39,1.11-2.88,2.1-4.27,3.21-1.38,1.11-1.68,3.55-3.07,4.64-1.39,1.09-3.11,1.77-4.52,2.82-1.41,1.05-2.51,2.58-3.95,3.57-1.2,.83-3.48-.11-4.99,.58-1.35,.62-2.64,1.42-4.13,1.95-1.43,.51-2.95,.59-4.41,1.05-1.48,.48-2.86,1.49-4.27,1.94-1.82,.58-3.62,1.32-5.29,2.12-1.7,.81-2.95,2.54-4.62,3.42-1.64,.86-3.9,.38-5.62,1.17-1.65,.76-2.81,3.31-4.63,3.86-1.6,.48-3.29,.47-4.88,.95-1.59,.49-3.31,.38-4.9,.86-1.59,.48-3.14,1.16-4.73,1.64-1.59,.48-3.4,0-4.99,.48-1.59,.49-2.84,2.5-4.43,2.97-1.59,.47-3.45-.27-5.04,.2-1.59,.47-3.07,1.46-4.66,1.92-1.59,.46-3.24,.65-4.83,1.1-1.59,.45-3.1,1.27-4.7,1.71-1.59,.44-3.2,.82-4.79,1.24-1.59,.43-3.06,1.49-4.66,1.9-1.6,.42-3.33,.17-4.93,.57-1.6,.4-3.11,1.28-4.71,1.67-1.6,.39-3.18,.96-4.79,1.33-1.6,.37-3.24,.44-4.85,.84-1.59,.4-3.4-.03-5,.41-1.59,.44-3.27,.69-4.85,1.16-1.58,.47-2.93,1.64-4.5,2.14-1.57,.5-2.8,1.7-4.36,2.23-1.55,.53-3.45,.34-4.98,.91-1.53,.57-2.87,1.43-4.37,2.03-1.5,.6-2.65,1.61-4.12,2.25-1.47,.64-3.54,.54-4.97,1.21-1.43,.67-3.24,1.02-4.61,1.74-1.38,.71-1.99,2.08-3.3,2.83-1.31,.75-2.08,1.82-3.32,2.6-1.24,.78-2.95,1.24-4.11,2.06-1.06,.75-2.48,1.26-3.82,1.65-1.38,.41-2.91,.56-4.11,1.08-1.15,.5-1.43,1.26-1.98,2.27-.5,.91-.24,1.64-.2,2.56,.04,.88,.15,1.61,.63,2.47,.45,.81,.25,1.81,1.03,2.57,.74,.73,1.09,1.7,2.08,2.36,.96,.64,2.14,1.25,3.3,1.8,1.15,.55,3.37,.11,4.67,.54,1.3,.44,2.2,1.16,3.61,1.45,1.42,.3,4.57,.94,4.57,.94Z"/>
    </g>
  </g>
</svg>