<?xml version="1.0" encoding="UTF-8"?>
<svg id="b" data-name="圖層 2" xmlns="http://www.w3.org/2000/svg" width="427.97" height="23.83" viewBox="0 0 427.97 23.83">
  <defs>
    <style>
      .d {
        fill: #0d131a;
      }
    </style>
  </defs>
  <g id="c" data-name="b">
    <g>
      <path class="d" d="M12.28,23.79c-1.72,0-3.32-.3-4.82-.91-1.5-.61-2.8-1.45-3.91-2.52s-1.98-2.34-2.61-3.78c-.63-1.44-.94-3-.94-4.67s.31-3.26,.94-4.7,1.5-2.7,2.62-3.78S5.99,1.51,7.47,.91s3.09-.91,4.8-.91c1.28,0,2.51,.18,3.7,.53,1.19,.35,2.29,.85,3.32,1.48,1.02,.64,1.9,1.41,2.62,2.31l-3.23,3.2c-.84-1.03-1.8-1.81-2.89-2.34-1.09-.53-2.26-.79-3.51-.79-1.03,0-2,.19-2.9,.58-.9,.38-1.68,.91-2.34,1.58-.66,.67-1.18,1.46-1.55,2.38-.37,.91-.56,1.91-.56,2.99s.19,2.04,.56,2.95c.37,.91,.9,1.71,1.58,2.38,.68,.67,1.48,1.19,2.39,1.57s1.91,.56,2.99,.56c1.21,0,2.34-.25,3.4-.76s1.99-1.23,2.81-2.18l3.13,3.1c-.73,.88-1.6,1.64-2.61,2.28-1.01,.64-2.11,1.13-3.28,1.47-1.18,.34-2.38,.51-3.61,.51h0Z"/>
      <path class="d" d="M25.41,23.46V.36h4.78V9.67h10.63V.36h4.78V23.46h-4.78V13.99h-10.63v9.47h-4.78Z"/>
      <path class="d" d="M50.62,23.46V.36h17.75V4.52h-12.97v5.28h8.55v4.03h-8.55v5.48h13.1v4.16h-17.88Z"/>
      <path class="d" d="M76.39,23.46L71.27,.36h4.92l3.14,15.64L83.82,.36h4.52l4.49,15.61L95.96,.36h4.75l-5.08,23.1h-5.05l-4.55-16.1-4.62,16.1h-5.02Z"/>
      <path class="d" d="M111.97,23.46V14.62L102.53,.36h5.51l6.47,10.03L121.01,.36h5.21l-9.47,14.29v8.81h-4.78Z"/>
      <path class="d" d="M147.74,23.83c-1.72,0-3.31-.3-4.79-.91-1.47-.6-2.77-1.45-3.89-2.54-1.12-1.09-2-2.35-2.62-3.79-.63-1.44-.94-3-.94-4.67s.31-3.23,.94-4.67,1.49-2.71,2.59-3.79c1.1-1.09,2.39-1.94,3.88-2.54,1.48-.6,3.07-.91,4.77-.91,1.91,0,3.72,.38,5.41,1.14,1.69,.76,3.09,1.82,4.19,3.18l-3.33,3.07c-.79-.99-1.73-1.74-2.8-2.24-1.08-.51-2.23-.76-3.46-.76-1.03,0-1.99,.19-2.87,.58-.88,.38-1.65,.91-2.31,1.58s-1.17,1.46-1.53,2.38c-.36,.91-.54,1.91-.54,2.99s.19,2.08,.56,3c.37,.92,.9,1.72,1.57,2.39,.67,.67,1.45,1.2,2.34,1.58s1.86,.58,2.92,.58,2.09-.2,2.97-.61,1.62-.98,2.23-1.72,1.01-1.57,1.2-2.49h-6.83v-4.16h11.95v1.45c0,1.72-.29,3.29-.87,4.74-.58,1.44-1.39,2.7-2.43,3.76-1.03,1.07-2.26,1.9-3.66,2.49-1.41,.59-2.95,.89-4.62,.89h-.03Z"/>
      <path class="d" d="M174.73,23.83c-1.72,0-3.31-.3-4.79-.91-1.47-.6-2.77-1.45-3.88-2.54-1.11-1.09-1.98-2.35-2.61-3.79s-.94-3-.94-4.67,.31-3.23,.94-4.67,1.5-2.71,2.61-3.79,2.4-1.94,3.88-2.54c1.47-.6,3.07-.91,4.79-.91s3.32,.3,4.8,.91,2.78,1.45,3.89,2.54,1.97,2.35,2.59,3.79,.92,3,.92,4.67-.31,3.23-.92,4.67c-.62,1.44-1.48,2.71-2.59,3.79-1.11,1.09-2.41,1.94-3.89,2.54-1.49,.61-3.09,.91-4.8,.91Zm0-4.39c1.06,0,2.02-.19,2.9-.58s1.65-.91,2.31-1.58,1.18-1.47,1.55-2.39c.37-.92,.56-1.91,.56-2.97s-.19-2.07-.56-2.99c-.37-.91-.89-1.71-1.55-2.38s-1.43-1.2-2.31-1.58-1.85-.58-2.9-.58-1.99,.19-2.87,.58c-.88,.39-1.65,.91-2.31,1.58s-1.18,1.46-1.55,2.38c-.37,.91-.56,1.9-.56,2.95s.19,2.08,.56,3,.89,1.72,1.55,2.39,1.43,1.2,2.31,1.58,1.84,.58,2.87,.58h0Z"/>
      <path class="d" d="M191.07,23.46V.36h4.78V19.24h12.64v4.22h-17.42Z"/>
      <path class="d" d="M212.62,23.46V.36h8.88c1.74,0,3.34,.29,4.82,.87,1.47,.58,2.76,1.4,3.86,2.46s1.96,2.29,2.59,3.7c.63,1.41,.94,2.93,.94,4.55s-.31,3.17-.92,4.55c-.62,1.39-1.48,2.6-2.59,3.65s-2.4,1.86-3.88,2.44c-1.47,.58-3.08,.87-4.82,.87h-8.88Zm4.78-4.25h4.03c1.03,0,2-.18,2.89-.54s1.67-.87,2.34-1.53,1.19-1.43,1.55-2.31,.54-1.84,.54-2.87-.19-2-.56-2.89-.89-1.67-1.55-2.33-1.44-1.18-2.33-1.55-1.85-.56-2.89-.56h-4.03v14.59h.01Z"/>
      <path class="d" d="M237.79,23.46V.36h17.75V4.52h-12.97v5.28h8.55v4.03h-8.55v5.48h13.1v4.16h-17.88Z"/>
      <path class="d" d="M259.9,23.46V.36h4.55l11.48,14.92V.36h4.49V23.46h-4.22l-11.78-15.44v15.44h-4.52Z"/>
      <path class="d" d="M292.9,23.46V.36h10.86c1.56,0,2.93,.26,4.11,.79,1.18,.53,2.09,1.27,2.74,2.23s.97,2.06,.97,3.32c0,1.01-.26,1.94-.78,2.79-.52,.85-1.22,1.53-2.1,2.06,1.12,.53,2.01,1.24,2.67,2.15s.99,1.92,.99,3.07c0,1.32-.34,2.49-1.01,3.5s-1.62,1.8-2.84,2.36c-1.22,.56-2.63,.84-4.24,.84h-11.37Zm4.78-13.67h5.78c1.03,0,1.85-.25,2.46-.74,.6-.5,.91-1.16,.91-2s-.3-1.5-.91-2c-.61-.5-1.42-.74-2.46-.74h-5.78v5.48Zm0,9.7h6.24c1.1,0,1.98-.27,2.64-.81,.66-.54,.99-1.26,.99-2.16s-.33-1.66-.99-2.19c-.66-.54-1.54-.81-2.64-.81h-6.24v5.97Z"/>
      <path class="d" d="M326.4,23.79c-2.09,0-3.9-.42-5.43-1.25-1.53-.84-2.71-2.03-3.55-3.58s-1.25-3.37-1.25-5.46V.36h4.79V13.49c0,1.19,.23,2.23,.68,3.12,.45,.89,1.09,1.57,1.91,2.05,.83,.47,1.79,.71,2.89,.71s2.06-.24,2.87-.71,1.45-1.15,1.9-2.05c.45-.89,.68-1.93,.68-3.12V.36h4.75V13.49c0,2.07-.42,3.88-1.25,5.43-.84,1.55-2.02,2.75-3.55,3.6s-3.34,1.27-5.43,1.27h-.01Z"/>
      <path class="d" d="M341.28,23.46V.36h10.86c1.56,0,2.93,.26,4.11,.79,1.18,.53,2.09,1.27,2.74,2.23s.97,2.06,.97,3.32c0,1.01-.26,1.94-.78,2.79-.52,.85-1.22,1.53-2.1,2.06,1.12,.53,2.01,1.24,2.67,2.15s.99,1.92,.99,3.07c0,1.32-.34,2.49-1.01,3.5s-1.62,1.8-2.84,2.36c-1.22,.56-2.63,.84-4.24,.84h-11.37Zm4.78-13.67h5.78c1.03,0,1.85-.25,2.46-.74,.6-.5,.91-1.16,.91-2s-.3-1.5-.91-2c-.61-.5-1.42-.74-2.46-.74h-5.78v5.48Zm0,9.7h6.24c1.1,0,1.98-.27,2.64-.81,.66-.54,.99-1.26,.99-2.16s-.33-1.66-.99-2.19c-.66-.54-1.54-.81-2.64-.81h-6.24v5.97Z"/>
      <path class="d" d="M364.91,23.46V.36h10.86c1.56,0,2.93,.26,4.11,.79,1.18,.53,2.09,1.27,2.74,2.23s.97,2.06,.97,3.32c0,1.01-.26,1.94-.78,2.79-.52,.85-1.22,1.53-2.1,2.06,1.12,.53,2.01,1.24,2.67,2.15s.99,1.92,.99,3.07c0,1.32-.34,2.49-1.01,3.5s-1.62,1.8-2.84,2.36c-1.22,.56-2.63,.84-4.24,.84h-11.37Zm4.78-13.67h5.78c1.03,0,1.85-.25,2.46-.74,.6-.5,.91-1.16,.91-2s-.3-1.5-.91-2c-.61-.5-1.42-.74-2.46-.74h-5.78v5.48Zm0,9.7h6.24c1.1,0,1.98-.27,2.64-.81,.66-.54,.99-1.26,.99-2.16s-.33-1.66-.99-2.19c-.66-.54-1.54-.81-2.64-.81h-6.24v5.97Z"/>
      <path class="d" d="M388.54,23.46V.36h4.78V19.24h12.64v4.22h-17.42Z"/>
      <path class="d" d="M410.09,23.46V.36h17.75V4.52h-12.97v5.28h8.55v4.03h-8.55v5.48h13.1v4.16h-17.88Z"/>
    </g>
  </g>
</svg>