<?xml version="1.0" encoding="UTF-8"?>
<svg id="uuid-bf1ec408-80b2-44fb-868f-f9d9a1c9bfd6" data-name="圖層 2" xmlns="http://www.w3.org/2000/svg" width="292.77" height="294.64" viewBox="0 0 292.77 294.64">
  <defs>
    <style>
      .uuid-dc5bf075-adc5-41a4-8543-85b5c469a176 {
        fill: #0d131a;
      }

      .uuid-613506a8-8040-4548-8a6a-2645c4dc313f {
        fill: #54c0e8;
      }
    </style>
  </defs>
  <g id="uuid-9a613d9e-9221-4fc0-87bc-347f51816c02" data-name="layout">
    <g>
      <path class="uuid-dc5bf075-adc5-41a4-8543-85b5c469a176" d="M18.9,114.73v-24.66H8.59v-6.84h28.35v6.84h-10.3v24.66h-7.74Z"/>
      <path class="uuid-dc5bf075-adc5-41a4-8543-85b5c469a176" d="M41.49,114.73v-31.5h7.74v12.1h12.96v-12.1h7.74v31.5h-7.74v-12.33h-12.96v12.33h-7.74Z"/>
      <path class="uuid-dc5bf075-adc5-41a4-8543-85b5c469a176" d="M76.27,114.73v-31.5h24.84v6.71h-17.1v5.67h11.29v6.48h-11.29v5.94h17.28v6.71h-25.02Z"/>
      <path class="uuid-dc5bf075-adc5-41a4-8543-85b5c469a176" d="M128.47,115.18c-2.55,0-5.07-.46-7.56-1.4-2.49-.93-4.71-2.22-6.66-3.87l4.32-5.62c1.92,1.56,3.69,2.68,5.31,3.35,1.62,.67,3.34,1.01,5.17,1.01,1.2,0,2.22-.12,3.06-.36,.84-.24,1.48-.59,1.94-1.06,.45-.46,.67-1.01,.67-1.64,0-.87-.33-1.54-.99-2.02-.66-.48-1.79-.85-3.38-1.12l-6.93-1.22c-2.55-.45-4.52-1.42-5.89-2.93-1.38-1.5-2.07-3.4-2.07-5.71,0-2.04,.52-3.79,1.55-5.27,1.04-1.47,2.52-2.59,4.46-3.38,1.94-.78,4.24-1.17,6.91-1.17,2.34,0,4.7,.4,7.06,1.19,2.37,.8,4.43,1.9,6.17,3.31l-4.1,5.71c-3.24-2.49-6.46-3.73-9.68-3.73-1.05,0-1.96,.11-2.72,.34-.76,.23-1.35,.54-1.75,.95-.41,.41-.61,.89-.61,1.46,0,.78,.29,1.38,.88,1.8,.59,.42,1.54,.75,2.86,.99l6.53,1.08c3.03,.48,5.33,1.48,6.91,3.01,1.57,1.53,2.36,3.51,2.36,5.94,0,2.13-.55,3.97-1.66,5.51-1.11,1.55-2.7,2.74-4.77,3.58-2.07,.84-4.53,1.26-7.38,1.26Z"/>
      <path class="uuid-dc5bf075-adc5-41a4-8543-85b5c469a176" d="M162.67,115.23c-2.37,0-4.57-.41-6.62-1.24-2.04-.82-3.82-1.98-5.36-3.47-1.53-1.48-2.72-3.21-3.58-5.18-.86-1.96-1.28-4.09-1.28-6.37s.43-4.4,1.28-6.37c.85-1.96,2.05-3.69,3.58-5.18,1.53-1.49,3.31-2.64,5.36-3.47,2.04-.82,4.24-1.24,6.62-1.24s4.57,.41,6.62,1.24c2.04,.83,3.82,1.98,5.36,3.47,1.53,1.48,2.72,3.21,3.58,5.18,.86,1.97,1.28,4.09,1.28,6.37s-.43,4.4-1.28,6.37c-.85,1.97-2.05,3.69-3.58,5.18-1.53,1.49-3.32,2.64-5.36,3.47-2.04,.82-4.25,1.24-6.62,1.24Zm0-7.11c1.26,0,2.43-.23,3.51-.7,1.08-.46,2.02-1.1,2.81-1.91,.79-.81,1.42-1.78,1.87-2.9,.45-1.12,.68-2.33,.68-3.62s-.22-2.53-.68-3.65c-.45-1.11-1.07-2.07-1.87-2.88-.79-.81-1.73-1.45-2.81-1.91-1.08-.46-2.25-.7-3.51-.7s-2.43,.23-3.51,.7c-1.08,.47-2.02,1.1-2.81,1.91-.79,.81-1.42,1.77-1.87,2.88-.45,1.11-.68,2.31-.68,3.6s.22,2.54,.68,3.67c.45,1.12,1.07,2.09,1.87,2.9,.79,.81,1.73,1.45,2.81,1.91,1.08,.47,2.25,.7,3.51,.7Z"/>
      <path class="uuid-dc5bf075-adc5-41a4-8543-85b5c469a176" d="M198.58,115.18c-2.91,0-5.44-.58-7.58-1.73-2.15-1.15-3.8-2.8-4.97-4.93-1.17-2.13-1.76-4.64-1.76-7.52v-17.77h7.74v17.77c0,1.41,.27,2.65,.81,3.71,.54,1.07,1.31,1.88,2.32,2.45,1.01,.57,2.17,.85,3.49,.85s2.51-.28,3.49-.85c.97-.57,1.73-1.39,2.27-2.45,.54-1.06,.81-2.3,.81-3.71v-17.77h7.74v17.77c0,2.85-.59,5.34-1.78,7.47-1.19,2.13-2.85,3.78-5,4.95-2.14,1.17-4.67,1.75-7.58,1.75Z"/>
      <path class="uuid-dc5bf075-adc5-41a4-8543-85b5c469a176" d="M218.83,114.73v-31.5h7.29l14.31,18.27v-18.27h7.29v31.5h-6.84l-14.76-18.99v18.99h-7.29Z"/>
      <path class="uuid-dc5bf075-adc5-41a4-8543-85b5c469a176" d="M254.07,114.73v-31.5h12.78c2.34,0,4.51,.41,6.53,1.22,2.01,.81,3.77,1.93,5.29,3.38,1.51,1.44,2.7,3.12,3.55,5.04,.86,1.92,1.28,3.99,1.28,6.21s-.43,4.23-1.28,6.12c-.86,1.89-2.04,3.55-3.55,4.97-1.52,1.43-3.28,2.54-5.29,3.35-2.01,.81-4.19,1.22-6.53,1.22h-12.78Zm7.74-6.84h4.86c1.23,0,2.38-.22,3.44-.67,1.06-.45,2-1.08,2.81-1.89,.81-.81,1.44-1.75,1.89-2.81,.45-1.06,.68-2.21,.68-3.44s-.23-2.44-.68-3.53c-.45-1.09-1.08-2.05-1.89-2.86-.81-.81-1.75-1.45-2.81-1.91-1.06-.46-2.21-.7-3.44-.7h-4.86v17.82Z"/>
      <path class="uuid-dc5bf075-adc5-41a4-8543-85b5c469a176" d="M16.83,164.98c-2.37,0-4.57-.41-6.62-1.24-2.04-.82-3.82-1.98-5.36-3.47-1.53-1.48-2.72-3.21-3.58-5.18-.86-1.96-1.28-4.09-1.28-6.37s.43-4.4,1.28-6.37c.85-1.96,2.05-3.69,3.58-5.18,1.53-1.49,3.31-2.64,5.36-3.47,2.04-.82,4.24-1.24,6.62-1.24s4.57,.41,6.62,1.24c2.04,.83,3.82,1.98,5.36,3.47,1.53,1.48,2.72,3.21,3.58,5.18,.86,1.97,1.28,4.09,1.28,6.37s-.43,4.4-1.28,6.37c-.85,1.97-2.05,3.69-3.58,5.18-1.53,1.49-3.32,2.64-5.36,3.47-2.04,.82-4.25,1.24-6.62,1.24Zm0-7.11c1.26,0,2.43-.23,3.51-.7,1.08-.46,2.02-1.1,2.81-1.91,.79-.81,1.42-1.78,1.87-2.9,.45-1.12,.68-2.33,.68-3.62s-.22-2.53-.68-3.65c-.45-1.11-1.07-2.07-1.87-2.88-.79-.81-1.73-1.45-2.81-1.91-1.08-.46-2.25-.7-3.51-.7s-2.43,.23-3.51,.7c-1.08,.47-2.02,1.1-2.81,1.91-.79,.81-1.42,1.77-1.87,2.88-.45,1.11-.68,2.31-.68,3.6s.22,2.54,.68,3.67c.45,1.12,1.07,2.09,1.87,2.9,.79,.81,1.73,1.45,2.81,1.91,1.08,.47,2.25,.7,3.51,.7Z"/>
      <path class="uuid-dc5bf075-adc5-41a4-8543-85b5c469a176" d="M38.88,164.49v-31.5h25.02v6.71h-17.28v5.9h11.52v6.48h-11.52v12.42h-7.74Z"/>
      <path class="uuid-dc5bf075-adc5-41a4-8543-85b5c469a176" d="M90.85,164.94c-2.55,0-5.07-.46-7.56-1.4-2.49-.93-4.71-2.22-6.66-3.87l4.32-5.62c1.92,1.56,3.69,2.68,5.31,3.35,1.62,.67,3.35,1.01,5.18,1.01,1.2,0,2.22-.12,3.06-.36,.84-.24,1.48-.59,1.93-1.06,.45-.46,.68-1.01,.68-1.64,0-.87-.33-1.54-.99-2.02-.66-.48-1.79-.85-3.38-1.12l-6.93-1.22c-2.55-.45-4.52-1.42-5.89-2.93-1.38-1.5-2.07-3.4-2.07-5.71,0-2.04,.52-3.79,1.55-5.27,1.04-1.47,2.52-2.59,4.46-3.38,1.93-.78,4.24-1.17,6.91-1.17,2.34,0,4.7,.4,7.07,1.19,2.37,.8,4.42,1.9,6.16,3.31l-4.1,5.71c-3.24-2.49-6.46-3.73-9.67-3.73-1.05,0-1.96,.11-2.72,.34-.77,.23-1.35,.54-1.76,.95-.4,.41-.61,.89-.61,1.46,0,.78,.29,1.38,.88,1.8,.58,.42,1.54,.75,2.86,.99l6.52,1.08c3.03,.48,5.33,1.48,6.91,3.01s2.36,3.51,2.36,5.94c0,2.13-.56,3.97-1.67,5.51-1.11,1.55-2.7,2.74-4.77,3.58-2.07,.84-4.53,1.26-7.38,1.26Z"/>
      <path class="uuid-dc5bf075-adc5-41a4-8543-85b5c469a176" d="M109.35,164.49v-31.5h7.74v12.1h12.96v-12.1h7.74v31.5h-7.74v-12.33h-12.96v12.33h-7.74Z"/>
      <path class="uuid-dc5bf075-adc5-41a4-8543-85b5c469a176" d="M141.21,164.49l12.92-31.5h8.87l12.73,31.5h-8.37l-2.88-7.6h-12.29l-2.92,7.6h-8.06Zm13.32-13.77h7.65l-3.78-10.08-3.87,10.08Z"/>
      <path class="uuid-dc5bf075-adc5-41a4-8543-85b5c469a176" d="M179.14,164.49v-31.5h7.74v13.77l12.73-13.77h9.36l-14.58,14.8,15.39,16.7h-10.26l-12.64-14.45v14.45h-7.74Z"/>
      <path class="uuid-dc5bf075-adc5-41a4-8543-85b5c469a176" d="M211.72,164.49v-31.5h7.74v31.5h-7.74Z"/>
      <path class="uuid-dc5bf075-adc5-41a4-8543-85b5c469a176" d="M225.81,164.49v-31.5h7.29l14.31,18.27v-18.27h7.29v31.5h-6.84l-14.76-18.99v18.99h-7.29Z"/>
      <path class="uuid-dc5bf075-adc5-41a4-8543-85b5c469a176" d="M276.79,164.98c-2.37,0-4.58-.41-6.62-1.24-2.04-.82-3.83-1.98-5.38-3.47-1.54-1.48-2.74-3.21-3.6-5.18-.86-1.96-1.28-4.09-1.28-6.37s.43-4.4,1.28-6.37c.86-1.96,2.04-3.69,3.55-5.18,1.52-1.49,3.29-2.64,5.33-3.47,2.04-.82,4.23-1.24,6.57-1.24,2.67,0,5.19,.55,7.56,1.64,2.37,1.1,4.3,2.6,5.8,4.52l-5.45,4.91c-1.02-1.32-2.2-2.31-3.53-2.97-1.34-.66-2.8-.99-4.39-.99-1.26,0-2.42,.23-3.49,.7-1.07,.47-2,1.1-2.79,1.91-.79,.81-1.41,1.77-1.84,2.88-.44,1.11-.65,2.33-.65,3.65s.22,2.54,.67,3.67c.45,1.12,1.09,2.1,1.91,2.93,.83,.83,1.79,1.47,2.88,1.94,1.1,.47,2.29,.7,3.58,.7s2.35-.21,3.35-.63c1.01-.42,1.87-1,2.59-1.75,.72-.75,1.23-1.6,1.53-2.57h-8.5v-6.7h16.88v2.25c0,2.37-.4,4.55-1.19,6.55-.79,2-1.9,3.74-3.33,5.22-1.42,1.49-3.11,2.63-5.06,3.44-1.95,.81-4.08,1.22-6.39,1.22Z"/>
    </g>
    <g>
      <path class="uuid-dc5bf075-adc5-41a4-8543-85b5c469a176" d="M91.07,184.57h3.46v13.6c0,6.05-.8,12.73-6.05,16.35-.51-.8-1.7-2.14-2.5-2.75,3.04-1.7,4.26-4.67,4.73-7.87-1.09,.9-2.14,1.79-3.17,2.59l-2.05-3.49,.06-.03h-1.73v4.29c1.12-.29,2.21-.54,3.33-.83l.45,3.17c-4,1.12-8.26,2.27-11.55,3.14l-.77-3.46,1.6-.35v-10.34h2.62v9.73l1.28-.32v-11.39h-3.84v-10.46h9.66v3.97l2.66-1.18c.67,1.09,1.28,2.37,1.79,3.58v-7.94Zm-11.04,8.9h3.39v-4.16h-3.39v4.16Zm6.78,8.86c1.25-.67,2.72-1.47,4.22-2.37,.03-.61,.03-1.22,.03-1.79v-2.02l-2.18,.96c-.26-1.73-1.22-4.29-2.27-6.34v5.82h-2.78v3.04h2.98v2.69Zm15.01,8.35c.51,0,.61-.8,.71-3.55,.8,.64,2.11,1.28,3.13,1.5-.35,3.87-1.25,5.41-3.55,5.41h-2.46c-2.72,0-3.49-1.06-3.49-4.99v-24.48h3.55v9.38c.8-1.73,1.57-3.71,2.05-5.31l3.55,1.7c-1.31,2.3-2.66,5.02-3.81,6.75l-1.79-.99v3.2l.64-.64c1.73,1.38,4.16,3.39,5.34,4.74l-2.5,2.69c-.77-.96-2.11-2.3-3.49-3.55v6.56c0,1.41,.1,1.6,.64,1.6h1.47Z"/>
      <path class="uuid-dc5bf075-adc5-41a4-8543-85b5c469a176" d="M141.24,191.51s-.03,1.25-.03,1.73c-.32,12.9-.67,17.57-1.73,19.04-.77,1.12-1.5,1.44-2.65,1.66-.99,.16-2.62,.16-4.29,.1-.06-1.09-.48-2.66-1.12-3.71,1.5,.13,2.88,.13,3.55,.13,.54,0,.87-.1,1.19-.54,.7-.9,1.02-4.74,1.31-14.75h-3.29c-.45,8.03-1.79,14.81-6.3,19.29-.61-.96-1.89-2.3-2.81-2.91,.93-.93,1.73-1.98,2.4-3.07l-3.04,.93c-.1-.45-.22-.96-.38-1.5-7.9,2.05-9.28,2.53-10.21,3.1-.19-.74-.8-2.46-1.21-3.39,.61-.22,1.05-.96,1.57-2.11,.42-.96,1.54-4.19,2.24-7.58h-3.94v-3.46h14.11v3.46h-6.27c-.67,2.72-1.63,5.6-2.69,8.06l5.44-1.25c-.48-1.38-.96-2.75-1.44-3.97l3.04-.83c1.12,2.59,2.4,5.95,2.98,8.19,1.86-3.49,2.56-7.9,2.78-12.96h-3.46v-3.65h3.58c.03-2.02,.03-4.16,.03-6.34h3.78c0,2.18-.03,4.29-.06,6.34h6.94Zm-15.23-1.09h-12.51v-3.36h12.51v3.36Z"/>
      <path class="uuid-dc5bf075-adc5-41a4-8543-85b5c469a176" d="M156.51,201.14c-1.47,3.07-3.23,6.43-4.89,9.25l-3.27-2.34c1.47-2.21,3.62-5.86,5.28-9.25l2.88,2.34Zm-2.27-7.26c-1.18-1.25-3.84-3.07-5.86-4.26l2.24-2.82c1.92,1.02,4.67,2.72,5.98,3.9l-2.37,3.17Zm10.49-.99c-.96,8.38-3.49,14.62-7.9,18.14-.51-.9-1.6-2.4-2.46-3.14,3.11-2.18,5.28-6.66,6.3-11.74h-4.58v-3.74h5.73l.64-.06,2.27,.54Zm13.18-.48c-1.82,2.37-4.16,4.9-6.11,6.66,1.66,3.65,3.94,6.62,7.13,8.42-.83,.74-2.08,2.27-2.69,3.36-3.29-2.34-5.47-6.02-7.04-10.43v9.34c0,2.02-.42,3.07-1.6,3.74-1.15,.7-2.88,.86-5.18,.86-.19-1.12-.93-2.94-1.54-4,1.63,.06,3.13,.06,3.68,.06,.51,0,.7-.16,.7-.67v-25.15h3.94v6.08c.35,1.7,.77,3.36,1.28,4.93,1.5-1.6,3.07-3.55,4.1-5.15l3.33,1.95Z"/>
      <path class="uuid-dc5bf075-adc5-41a4-8543-85b5c469a176" d="M196,204.79c-3.33,1.63-6.88,3.33-9.76,4.67l-1.54-3.84c1.12-.38,2.5-.93,4-1.5v-8.54h-3.42v-3.62h3.42v-6.94h3.55v6.94h3.1v3.62h-3.1v7.07l2.85-1.22,.9,3.36Zm10.97-2.27c1.5,3.9,4,7.04,7.78,8.64-.86,.77-2.05,2.37-2.65,3.39-3.9-2.05-6.37-5.6-8-10.21-1.12,4-3.68,7.65-9.05,10.21-.51-.86-1.76-2.24-2.59-2.88,5.09-2.34,7.33-5.57,8.22-9.15h-4.8v-3.58h5.38c.06-.93,.1-1.79,.1-2.72v-3.01h-4.67v-3.55h4.67v-4.74h3.68v4.74h7.1v9.28h2.02v3.58h-7.17Zm-1.95-6.27c0,.9-.03,1.79-.06,2.69h3.62v-5.73h-3.55v3.04Z"/>
    </g>
    <g>
      <path class="uuid-613506a8-8040-4548-8a6a-2645c4dc313f" d="M66.01,265.3l2.77,16.82c.15,.93,.81,1.69,1.71,1.97,22.4,6.87,49.18,10.56,76.82,10.56s54.45-3.72,76.85-10.6c.89-.27,1.55-1.04,1.7-1.96l2.82-16.79c.18-1.09-.85-1.98-1.9-1.64-22.97,7.41-50.58,11.44-79.46,11.44s-56.4-3.91-79.38-11.43c-1.06-.35-2.09,.54-1.91,1.64Z"/>
      <path class="uuid-613506a8-8040-4548-8a6a-2645c4dc313f" d="M25.56,17.6c.17,1.04,.97,1.86,2.01,2.04,30.77,5.2,73.47,8.42,120.67,8.42,46.55,0,88.12-3.09,118.69-8.09,1.05-.17,1.85-.99,2.02-2.04l2.58-15.88c.16-1-.69-1.86-1.69-1.69-30.83,5.29-73.92,8.58-121.6,8.58S55.63,5.52,24.68,.02c-1-.18-1.87,.68-1.71,1.69l2.59,15.89Z"/>
    </g>
  </g>
</svg>