<?xml version="1.0" encoding="UTF-8"?>
<svg id="b" data-name="圖層 2" xmlns="http://www.w3.org/2000/svg" width="3022.9" height="169.43" viewBox="0 0 3022.9 169.43">
  <defs>
    <style>
      .d {
        fill: #211815;
      }

      .e {
        fill: #008e67;
      }

      .f {
        fill: #0d131a;
      }
    </style>
  </defs>
  <g id="c" data-name="b">
    <g>
      <path class="f" d="M39.16,140.26v-35.25L0,45.72H26.74l24.71,38.76,24.85-38.76h25.25l-39.16,59.29v35.25h-23.23Z"/>
      <path class="f" d="M126.27,141.61c-7.29,0-13.87-1.64-19.72-4.93s-10.49-7.72-13.91-13.3-5.13-11.84-5.13-18.77,1.71-13.21,5.13-18.84,8.06-10.08,13.91-13.37c5.85-3.29,12.42-4.93,19.72-4.93s13.86,1.64,19.72,4.93c5.85,3.29,10.49,7.74,13.91,13.37,3.42,5.63,5.13,11.91,5.13,18.84s-1.71,13.19-5.13,18.77-8.06,10.02-13.91,13.3c-5.85,3.29-12.42,4.93-19.72,4.93Zm0-18.91c3.33,0,6.3-.81,8.91-2.43s4.68-3.8,6.21-6.55c1.53-2.75,2.3-5.78,2.3-9.12s-.77-6.5-2.3-9.25-3.63-4.93-6.28-6.55c-2.66-1.62-5.6-2.43-8.85-2.43s-6.19,.81-8.85,2.43c-2.66,1.62-4.75,3.8-6.28,6.55s-2.3,5.83-2.3,9.25,.76,6.37,2.3,9.12c1.53,2.75,3.62,4.93,6.28,6.55,2.65,1.62,5.6,2.43,8.85,2.43h0Z"/>
      <path class="f" d="M206.62,141.61c-5.58,0-10.51-1.22-14.79-3.65s-7.63-5.83-10.06-10.2c-2.43-4.37-3.65-9.34-3.65-14.92v-44.03h21.88v41.06c0,3.87,1.19,7,3.58,9.39,2.38,2.39,5.51,3.58,9.39,3.58,2.79,0,5.27-.49,7.43-1.49,2.16-.99,3.96-2.38,5.4-4.19v-48.35h21.88v71.44h-21.88v-4.86c-5.4,4.14-11.8,6.21-19.18,6.21h0Z"/>
      <path class="f" d="M264.56,140.26V68.81h21.88v7.16c2.34-2.88,5.09-5.06,8.24-6.55,3.15-1.49,6.66-2.23,10.53-2.23,3.87,.09,6.62,.67,8.24,1.76v19.04c-1.44-.72-3.06-1.26-4.86-1.62s-3.65-.54-5.54-.54c-3.42,0-6.6,.79-9.52,2.36-2.93,1.58-5.29,3.8-7.09,6.68v45.38h-21.88Z"/>
      <path class="f" d="M357.07,140.26V45.72h38.35c7.02,0,13.55,1.21,19.58,3.65,6.03,2.43,11.32,5.81,15.87,10.13s8.1,9.37,10.67,15.13,3.85,11.97,3.85,18.64-1.28,12.69-3.85,18.37c-2.57,5.67-6.12,10.65-10.67,14.92-4.55,4.28-9.84,7.63-15.87,10.06-6.03,2.43-12.56,3.65-19.58,3.65h-38.35Zm23.23-20.54h14.58c3.69,0,7.13-.68,10.33-2.03,3.19-1.35,6.01-3.24,8.44-5.67s4.32-5.24,5.67-8.44c1.35-3.19,2.03-6.64,2.03-10.33s-.68-7.31-2.03-10.6-3.24-6.14-5.67-8.58c-2.43-2.43-5.25-4.34-8.44-5.74-3.2-1.39-6.64-2.09-10.33-2.09h-14.58v53.48Z"/>
      <path class="f" d="M481.45,141.47c-5.04,0-9.52-.95-13.44-2.84s-6.98-4.5-9.18-7.83c-2.21-3.33-3.31-7.16-3.31-11.48,0-6.84,2.59-12.13,7.77-15.87,5.18-3.74,12.4-5.6,21.68-5.6,5.58,0,10.98,.67,16.21,2.03v-3.51c0-3.6-1.15-6.28-3.44-8.04-2.3-1.75-5.7-2.63-10.2-2.63-2.79,0-5.92,.45-9.39,1.35s-7.54,2.34-12.22,4.32l-7.83-16.07c5.85-2.61,11.5-4.57,16.95-5.87s10.92-1.96,16.41-1.96c9.9,0,17.6,2.36,23.09,7.09,5.49,4.73,8.24,11.37,8.24,19.92v45.78h-21.61v-4.32c-2.88,1.98-5.92,3.4-9.12,4.25-3.2,.85-6.73,1.28-10.6,1.28h0Zm-5.13-22.55c0,2.25,.99,4.01,2.97,5.27,1.98,1.26,4.73,1.89,8.24,1.89,2.61,0,5.06-.27,7.36-.81s4.39-1.4,6.28-2.57v-9.18c-2.07-.54-4.19-.95-6.35-1.21-2.16-.27-4.37-.41-6.62-.41-3.78,0-6.71,.61-8.78,1.82-2.07,1.22-3.11,2.95-3.11,5.2h.01Z"/>
      <path class="f" d="M550.05,62.2c-3.33,0-6.17-1.17-8.51-3.51s-3.51-5.18-3.51-8.51,1.17-6.17,3.51-8.51c2.34-2.34,5.18-3.51,8.51-3.51s6.17,1.17,8.51,3.51,3.51,5.18,3.51,8.51-1.17,6.17-3.51,8.51c-2.34,2.34-5.18,3.51-8.51,3.51Zm-10.94,78.06V68.81h21.88v71.44h-21.88Z"/>
      <path class="f" d="M577.87,140.26V45.72l21.88-3.38v97.91h-21.88Z"/>
      <path class="f" d="M625.14,169.43c-1.71,0-3.38-.07-5-.2-1.62-.13-2.97-.34-4.05-.61v-18.64c1.8,.36,4.05,.54,6.75,.54,7.02,0,11.75-3.06,14.18-9.18v-.13l-27.42-72.39h24.17l15.8,44.97,18.37-44.97h23.63l-32.01,75.09c-2.61,6.21-5.49,11.19-8.64,14.92-3.15,3.74-6.8,6.44-10.94,8.1-4.14,1.67-9.09,2.5-14.86,2.5h.02Z"/>
      <path class="f" d="M732.23,140.26V45.72h46.86c6.48,0,12.18,1.13,17.08,3.38,4.91,2.25,8.75,5.38,11.55,9.39,2.79,4.01,4.19,8.62,4.19,13.84,0,3.87-.97,7.5-2.9,10.87-1.94,3.38-4.57,6.24-7.9,8.58,4.23,2.25,7.58,5.18,10.06,8.78s3.71,7.56,3.71,11.88c0,5.49-1.4,10.33-4.19,14.52s-6.71,7.45-11.75,9.79-10.9,3.51-17.56,3.51h-49.15Zm23.23-56.86h22.15c3.42,0,6.12-.85,8.1-2.57,1.98-1.71,2.97-3.96,2.97-6.75s-.99-5.15-2.97-6.82-4.68-2.5-8.1-2.5h-22.15v18.64Zm0,37.81h24.17c3.6,0,6.46-.9,8.58-2.7,2.11-1.8,3.17-4.23,3.17-7.29s-1.06-5.49-3.17-7.29c-2.12-1.8-4.98-2.7-8.58-2.7h-24.17v19.99h0Z"/>
      <path class="f" d="M864.04,141.61c-7.29,0-13.89-1.64-19.78-4.93-5.9-3.29-10.56-7.72-13.98-13.3s-5.13-11.84-5.13-18.77,1.64-13.19,4.93-18.77,7.77-10.01,13.44-13.3,11.97-4.93,18.91-4.93,13.23,1.69,18.64,5.06c5.4,3.38,9.66,7.99,12.76,13.84,3.11,5.85,4.66,12.56,4.66,20.12v5.4h-50.91c.99,2.25,2.32,4.23,3.98,5.94s3.67,3.04,6.01,3.98c2.34,.95,4.86,1.42,7.56,1.42,2.97,0,5.67-.47,8.1-1.42s4.5-2.27,6.21-3.98l14.45,12.83c-4.5,3.78-9.12,6.53-13.84,8.24-4.73,1.71-10.06,2.57-16,2.57h0Zm-16.88-44.84h29.85c-.72-2.34-1.82-4.34-3.31-6.01-1.49-1.67-3.22-2.97-5.2-3.92-1.98-.95-4.14-1.42-6.48-1.42s-4.64,.45-6.62,1.35-3.67,2.18-5.06,3.85c-1.4,1.67-2.45,3.71-3.17,6.14h-.01Z"/>
      <path class="f" d="M934.94,141.47c-5.04,0-9.52-.95-13.44-2.84s-6.98-4.5-9.18-7.83c-2.21-3.33-3.31-7.16-3.31-11.48,0-6.84,2.59-12.13,7.76-15.87,5.18-3.74,12.4-5.6,21.68-5.6,5.58,0,10.98,.67,16.21,2.03v-3.51c0-3.6-1.15-6.28-3.44-8.04-2.3-1.75-5.7-2.63-10.2-2.63-2.79,0-5.92,.45-9.39,1.35-3.47,.9-7.54,2.34-12.22,4.32l-7.83-16.07c5.85-2.61,11.5-4.57,16.95-5.87s10.92-1.96,16.41-1.96c9.9,0,17.6,2.36,23.09,7.09,5.49,4.73,8.24,11.37,8.24,19.92v45.78h-21.61v-4.32c-2.88,1.98-5.92,3.4-9.12,4.25s-6.73,1.28-10.6,1.28h0Zm-5.13-22.55c0,2.25,.99,4.01,2.97,5.27,1.98,1.26,4.73,1.89,8.24,1.89,2.61,0,5.06-.27,7.36-.81s4.39-1.4,6.28-2.57v-9.18c-2.07-.54-4.19-.95-6.35-1.21-2.16-.27-4.37-.41-6.62-.41-3.78,0-6.71,.61-8.78,1.82-2.07,1.22-3.11,2.95-3.11,5.2h.01Z"/>
      <path class="f" d="M1026.63,141.2c-8.55,0-15.01-1.91-19.38-5.74s-6.55-9.47-6.55-16.95v-31.47h-14.45v-18.23h14.45v-18.37l21.88-4.73v23.09h19.99v18.23h-19.99v27.14c0,3.15,.7,5.38,2.09,6.68,1.39,1.31,3.85,1.96,7.36,1.96,1.8,0,3.44-.11,4.93-.34,1.49-.22,3.13-.61,4.93-1.15v17.69c-1.98,.63-4.5,1.15-7.56,1.55-3.06,.41-5.63,.61-7.7,.61v.03Z"/>
      <path class="f" d="M1204.08,140.26V45.72h23.23v36.33h38.89V45.72h23.23v94.53h-23.23v-37h-38.89v37h-23.23Z"/>
      <path class="f" d="M1328.87,141.47c-5.04,0-9.52-.95-13.44-2.84-3.92-1.89-6.98-4.5-9.18-7.83-2.21-3.33-3.31-7.16-3.31-11.48,0-6.84,2.59-12.13,7.77-15.87,5.18-3.74,12.4-5.6,21.67-5.6,5.58,0,10.98,.67,16.21,2.03v-3.51c0-3.6-1.15-6.28-3.44-8.04-2.3-1.75-5.7-2.63-10.2-2.63-2.79,0-5.92,.45-9.39,1.35s-7.54,2.34-12.22,4.32l-7.83-16.07c5.85-2.61,11.5-4.57,16.95-5.87s10.92-1.96,16.41-1.96c9.9,0,17.6,2.36,23.09,7.09,5.49,4.73,8.24,11.37,8.24,19.92v45.78h-21.61v-4.32c-2.88,1.98-5.92,3.4-9.12,4.25s-6.73,1.28-10.6,1.28h0Zm-5.13-22.55c0,2.25,.99,4.01,2.97,5.27,1.98,1.26,4.73,1.89,8.24,1.89,2.61,0,5.06-.27,7.36-.81,2.3-.54,4.39-1.4,6.28-2.57v-9.18c-2.07-.54-4.19-.95-6.35-1.21-2.16-.27-4.37-.41-6.62-.41-3.78,0-6.71,.61-8.78,1.82-2.07,1.22-3.11,2.95-3.11,5.2h.01Z"/>
      <path class="f" d="M1405.98,140.26l-30.52-71.44h23.77l17.69,43.76,17.69-43.76h23.23l-30.52,71.44h-21.34Z"/>
      <path class="f" d="M1501.33,141.61c-7.29,0-13.89-1.64-19.78-4.93-5.9-3.29-10.56-7.72-13.98-13.3-3.42-5.58-5.13-11.84-5.13-18.77s1.64-13.19,4.93-18.77,7.77-10.01,13.44-13.3c5.67-3.29,11.97-4.93,18.91-4.93s13.23,1.69,18.64,5.06c5.4,3.38,9.66,7.99,12.76,13.84,3.11,5.85,4.66,12.56,4.66,20.12v5.4h-50.91c.99,2.25,2.32,4.23,3.98,5.94,1.67,1.71,3.67,3.04,6.01,3.98,2.34,.95,4.86,1.42,7.56,1.42,2.97,0,5.67-.47,8.1-1.42s4.5-2.27,6.21-3.98l14.45,12.83c-4.5,3.78-9.12,6.53-13.84,8.24-4.73,1.71-10.06,2.57-16,2.57h-.01Zm-16.88-44.84h29.85c-.72-2.34-1.82-4.34-3.31-6.01-1.49-1.67-3.22-2.97-5.2-3.92s-4.14-1.42-6.48-1.42-4.64,.45-6.62,1.35-3.67,2.18-5.06,3.85c-1.4,1.67-2.45,3.71-3.17,6.14h0Z"/>
      <path class="f" d="M1601.93,141.47c-5.04,0-9.52-.95-13.44-2.84-3.92-1.89-6.98-4.5-9.18-7.83-2.21-3.33-3.31-7.16-3.31-11.48,0-6.84,2.59-12.13,7.77-15.87,5.18-3.74,12.4-5.6,21.67-5.6,5.58,0,10.98,.67,16.21,2.03v-3.51c0-3.6-1.15-6.28-3.44-8.04-2.3-1.75-5.7-2.63-10.2-2.63-2.79,0-5.92,.45-9.39,1.35s-7.54,2.34-12.22,4.32l-7.83-16.07c5.85-2.61,11.5-4.57,16.95-5.87s10.92-1.96,16.41-1.96c9.9,0,17.6,2.36,23.09,7.09,5.49,4.73,8.24,11.37,8.24,19.92v45.78h-21.61v-4.32c-2.88,1.98-5.92,3.4-9.12,4.25s-6.73,1.28-10.6,1.28h0Zm-5.13-22.55c0,2.25,.99,4.01,2.97,5.27,1.98,1.26,4.73,1.89,8.24,1.89,2.61,0,5.06-.27,7.36-.81,2.3-.54,4.39-1.4,6.28-2.57v-9.18c-2.07-.54-4.19-.95-6.35-1.21-2.16-.27-4.37-.41-6.62-.41-3.78,0-6.71,.61-8.78,1.82-2.07,1.22-3.11,2.95-3.11,5.2h.01Z"/>
      <path class="f" d="M1690.39,140.26V45.72h21.88l42.95,54.83V45.72h21.88v94.53h-20.53l-44.3-56.99v56.99h-21.88Z"/>
      <path class="f" d="M1805.99,62.2c-3.33,0-6.17-1.17-8.51-3.51s-3.51-5.18-3.51-8.51,1.17-6.17,3.51-8.51c2.34-2.34,5.18-3.51,8.51-3.51s6.17,1.17,8.51,3.51,3.51,5.18,3.51,8.51-1.17,6.17-3.51,8.51-5.18,3.51-8.51,3.51Zm-10.94,78.06V68.81h21.88v71.44h-21.88Z"/>
      <path class="f" d="M1868.38,141.61c-7.11,0-13.53-1.62-19.25-4.86s-10.24-7.67-13.57-13.3c-3.33-5.63-5-11.91-5-18.84s1.66-13.32,5-18.91c3.33-5.58,7.85-10.01,13.57-13.3s12.13-4.93,19.25-4.93c5.85,0,11.43,1.15,16.75,3.44,5.31,2.3,9.81,5.56,13.5,9.79l-13.37,13.91c-2.52-2.88-5.09-4.97-7.7-6.28-2.61-1.3-5.49-1.96-8.64-1.96s-5.99,.79-8.51,2.36c-2.52,1.58-4.5,3.74-5.94,6.48-1.44,2.75-2.16,5.88-2.16,9.39s.74,6.51,2.23,9.25c1.49,2.75,3.53,4.91,6.14,6.48,2.61,1.58,5.54,2.36,8.78,2.36,2.97,0,5.72-.63,8.24-1.89s4.95-3.19,7.29-5.81l12.96,13.5c-3.6,4.14-8.01,7.36-13.23,9.66s-10.67,3.44-16.34,3.44v.02Z"/>
      <path class="f" d="M1943.61,141.61c-7.29,0-13.89-1.64-19.78-4.93-5.9-3.29-10.56-7.72-13.98-13.3-3.42-5.58-5.13-11.84-5.13-18.77s1.64-13.19,4.93-18.77,7.77-10.01,13.44-13.3c5.67-3.29,11.97-4.93,18.91-4.93s13.23,1.69,18.64,5.06c5.4,3.38,9.66,7.99,12.76,13.84,3.11,5.85,4.66,12.56,4.66,20.12v5.4h-50.91c.99,2.25,2.32,4.23,3.98,5.94,1.67,1.71,3.67,3.04,6.01,3.98,2.34,.95,4.86,1.42,7.56,1.42,2.97,0,5.67-.47,8.1-1.42s4.5-2.27,6.21-3.98l14.45,12.83c-4.5,3.78-9.12,6.53-13.84,8.24-4.73,1.71-10.06,2.57-16,2.57h-.01Zm-16.88-44.84h29.85c-.72-2.34-1.82-4.34-3.31-6.01-1.49-1.67-3.22-2.97-5.2-3.92s-4.14-1.42-6.48-1.42-4.64,.45-6.62,1.35-3.67,2.18-5.06,3.85c-1.4,1.67-2.45,3.71-3.17,6.14h0Z"/>
      <path class="f" d="M2048,140.26V66.25h-30.93v-20.53h85.08v20.53h-30.93v74.01h-23.22Z"/>
      <path class="f" d="M2114.71,140.26V45.72l21.88-4.73v32.68c5.4-4.14,11.79-6.21,19.18-6.21,5.58,0,10.51,1.22,14.79,3.65,4.27,2.43,7.63,5.81,10.06,10.13s3.65,9.32,3.65,14.99v44.03h-21.88v-41.05c0-3.96-1.17-7.11-3.51-9.45s-5.49-3.51-9.45-3.51c-2.79,0-5.25,.5-7.36,1.49-2.12,.99-3.94,2.39-5.47,4.19v48.35h-21.88v-.02Z"/>
      <path class="f" d="M2236.25,141.61c-7.29,0-13.89-1.64-19.78-4.93-5.9-3.29-10.56-7.72-13.98-13.3s-5.13-11.84-5.13-18.77,1.64-13.19,4.93-18.77,7.77-10.01,13.44-13.3,11.97-4.93,18.91-4.93,13.23,1.69,18.64,5.06c5.4,3.38,9.66,7.99,12.76,13.84,3.11,5.85,4.66,12.56,4.66,20.12v5.4h-50.91c.99,2.25,2.32,4.23,3.98,5.94,1.67,1.71,3.67,3.04,6.01,3.98,2.34,.95,4.86,1.42,7.56,1.42,2.97,0,5.67-.47,8.1-1.42s4.5-2.27,6.21-3.98l14.45,12.83c-4.5,3.78-9.12,6.53-13.84,8.24-4.73,1.71-10.06,2.57-16,2.57h0Zm-16.88-44.84h29.85c-.72-2.34-1.82-4.34-3.31-6.01-1.49-1.67-3.22-2.97-5.2-3.92s-4.14-1.42-6.48-1.42-4.64,.45-6.62,1.35c-1.98,.9-3.67,2.18-5.06,3.85-1.4,1.67-2.45,3.71-3.17,6.14h-.01Zm3.11-39.02l11.88-18.37h24.44l-18.91,18.37h-17.41Z"/>
      <path class="f" d="M2327.81,140.26l-19.45-71.44h20.66l10.53,42,12.83-42h18.1l12.83,42.14,10.4-42.14h20.39l-19.58,71.44h-20.93l-12.42-41.33-12.29,41.33h-21.07Z"/>
      <path class="f" d="M2436.26,62.2c-3.33,0-6.17-1.17-8.51-3.51s-3.51-5.18-3.51-8.51,1.17-6.17,3.51-8.51c2.34-2.34,5.18-3.51,8.51-3.51s6.17,1.17,8.51,3.51,3.51,5.18,3.51,8.51-1.17,6.17-3.51,8.51-5.18,3.51-8.51,3.51Zm-10.94,78.06V68.81h21.88v71.44h-21.88Z"/>
      <path class="f" d="M2500.13,141.2c-8.55,0-15.01-1.91-19.38-5.74-4.37-3.83-6.55-9.47-6.55-16.95v-31.47h-14.45v-18.23h14.45v-18.37l21.88-4.73v23.09h19.99v18.23h-19.99v27.14c0,3.15,.7,5.38,2.09,6.68,1.39,1.31,3.85,1.96,7.36,1.96,1.8,0,3.44-.11,4.93-.34,1.49-.22,3.13-.61,4.93-1.15v17.69c-1.98,.63-4.5,1.15-7.56,1.55-3.06,.41-5.63,.61-7.7,.61v.03Z"/>
      <path class="f" d="M2527.95,140.26V45.72l21.88-4.73v32.68c5.4-4.14,11.79-6.21,19.18-6.21,5.58,0,10.51,1.22,14.79,3.65,4.27,2.43,7.63,5.81,10.06,10.13s3.65,9.32,3.65,14.99v44.03h-21.88v-41.05c0-3.96-1.17-7.11-3.51-9.45s-5.49-3.51-9.45-3.51c-2.79,0-5.25,.5-7.36,1.49-2.12,.99-3.94,2.39-5.47,4.19v48.35h-21.88v-.02Z"/>
      <path class="f" d="M2644.63,140.26V45.72h23.23v41.33l38.22-41.33h28.09l-43.76,44.43,46.19,50.1h-30.79l-37.95-43.35v43.35h-23.23Z"/>
      <path class="f" d="M2793.59,141.74c-7.11,0-13.73-1.24-19.85-3.71s-11.48-5.94-16.07-10.4-8.17-9.63-10.74-15.53-3.85-12.27-3.85-19.11,1.28-13.21,3.85-19.11,6.14-11.07,10.74-15.53c4.59-4.46,9.95-7.92,16.07-10.4,6.12-2.48,12.74-3.71,19.85-3.71s13.73,1.24,19.85,3.71c6.12,2.48,11.48,5.94,16.07,10.4,4.59,4.46,8.17,9.63,10.74,15.53s3.85,12.27,3.85,19.11-1.28,13.21-3.85,19.11-6.15,11.07-10.74,15.53-9.95,7.92-16.07,10.4-12.74,3.71-19.85,3.71Zm0-21.34c3.78,0,7.29-.7,10.53-2.09s6.05-3.31,8.44-5.74c2.38-2.43,4.25-5.33,5.6-8.71s2.03-7,2.03-10.87-.67-7.61-2.03-10.94c-1.35-3.33-3.22-6.21-5.6-8.64-2.39-2.43-5.2-4.34-8.44-5.74-3.24-1.39-6.75-2.09-10.53-2.09s-7.29,.7-10.53,2.09c-3.24,1.4-6.06,3.31-8.44,5.74-2.39,2.43-4.25,5.31-5.6,8.64s-2.03,6.93-2.03,10.8,.67,7.63,2.03,11.01c1.35,3.38,3.22,6.28,5.6,8.71,2.38,2.43,5.2,4.35,8.44,5.74,3.24,1.4,6.75,2.09,10.53,2.09Z"/>
      <path class="f" d="M2859.77,140.26V45.72h23.23v94.53h-23.23Z"/>
    </g>
    <g>
      <g>
        <path class="e" d="M1086.01,126.84l1.26,7.69c.07,.42,.37,.77,.78,.9,10.24,3.14,22.48,4.82,35.11,4.82s24.88-1.7,35.12-4.84c.41-.13,.71-.47,.78-.9l1.29-7.68c.08-.5-.39-.91-.87-.75-10.5,3.39-23.12,5.23-36.32,5.23s-25.78-1.79-36.28-5.22c-.48-.16-.96,.25-.87,.75h0Z"/>
        <path class="e" d="M1067.52,13.63c.08,.48,.44,.85,.92,.93,14.06,2.38,33.58,3.85,55.15,3.85s40.28-1.41,54.25-3.7c.48-.08,.85-.45,.92-.93l1.18-7.26c.07-.46-.32-.85-.77-.77-14.09,2.42-33.79,3.92-55.58,3.92s-42.32-1.57-56.47-4.08c-.46-.08-.85,.31-.78,.77l1.18,7.26h0Z"/>
      </g>
      <g>
        <path class="d" d="M1100.57,69.28c.18-.06,.2-.2,.27-.33-.18,.07-.26,.18-.27,.33Z"/>
        <path class="d" d="M1118.29,65.34c-.16-.47-.35-.88-.54-1.22-.06-.51-.42-1.08-.67-1.51,.1,.26-.05,.25-.16,.07-.07-.1-.12-.16-.17-.23,.04-.69,.07-1.21,.06-1.31,.14,0,.29-.02,.33,0-.05-.08-.33-.1-.48-.03v.2c-.34,.11-.1-.11-.43-.06-.04-.16,.27-.23,.54-.28-.25,0-.5-.09-.59,.1-.24-.04,0-.21-.28-.25-.19,.07-.44,.26-.67,.19v-.03h-.11c-.23-.2-.48-.41-.77-.63-.64-.49-1.44-.98-2.27-1.38-.83-.4-1.69-.7-2.44-.9-.74-.19-1.36-.3-1.7-.36-.75,.17-1.66,0-2.36,.22l.07-.06c-.09,.02-.25,.05-.44,.07l-.32,.04c-.12,.02-.24,.04-.37,.06s-.27,.05-.41,.07c-.14,.03-.29,.07-.44,.1-.31,.06-.62,.16-.94,.25-1.28,.39-2.46,1.07-2.8,1.36l.12-.04c-.29,.27-.44,.36-.59,.4-.15,.05-.31,.05-.58,.22,.23,.16-.19,.69-.35,.88l-.03-.05c-.25,.29-.68,1.05-1.02,1.56l-.1-.11c-.11,.24-.3,.56-.5,.84-.19,.29-.38,.57-.46,.73-.12,.18-.25,.37-.4,.59-.14,.22-.29,.46-.43,.71-.27,.51-.5,1.1-.55,1.68-.19,.2-.4,.42-.58,.64l.02,.12s.29,.14,.75,.3c.46,.17,1.1,.37,1.77,.51,.68,.15,1.39,.26,2.02,.28,.62,.03,1.15,0,1.45-.13l.14,.04c0-.05,.01-.1,.02-.15,.12-.16-.03-.29,.11-.23l-.08,.24c.09-.17,.13-.02,.19,.06,.03-.07,.07-.13,.12-.18-.05-.05-.06,0-.1,.03-.03-.11-.12-.28-.01-.37,.07-.17,.22,.06,.31-.13,.51-1.01,1.31-1.81,2.13-2.52,.06,.03,.03,.05,.03,.09,.11-.13,.23-.22,.34-.32,.12-.08,.23-.19,.35-.28,.1,.02,.16,.08,.21,.13-.02-.02,.04-.09,.17-.16,.06-.04,.13-.08,.21-.13,.08-.04,.17-.08,.26-.12,.19-.07,.38-.14,.54-.17,.15-.04,.26-.05,.27-.05l-.03-.26c.33-.06,.14,.27,.43,.17,.04-.19,.16-.2,.29-.18,.13,.03,.25,.07,.3-.03,0,.03,.15,.04,.14,.16,.05-.2,.15-.05,.25-.1,.04-.05-.02-.06-.05-.12,.07-.02,.15-.04,.23-.06,.08,.07,.09,.19,0,.21,.12,.02,.34,.07,.61,.13-.22,.52-.4,1.1-.53,1.72-.14,.68-.21,1.4-.22,2.12,0,1.44,.24,2.87,.8,3.9,.07,.13,.14,.24,.23,.38,.13,.2,.28,.4,.44,.59,.17,.19,.35,.36,.52,.51,.18,.15,.38,.29,.56,.41,.38,.23,.75,.4,1.07,.5,.08,.03,.16,.05,.24,.07l.22,.05c.14,.03,.27,.05,.39,.07h-.17c.78,.13,1.56,.07,2.26-.11,.71-.18,1.37-.48,2-.91,.32-.21,.63-.48,.93-.78,.25-.27,.46-.52,.67-.8,.4-.56,.72-1.18,.95-1.81,.46-1.26,.57-2.54,.43-3.68-.07-.57-.19-1.11-.35-1.6v.06Z"/>
        <path class="d" d="M1142.28,58.93c.03,.18,.17,.23,.29,.3-.05-.18-.14-.27-.29-.3Z"/>
        <path class="d" d="M1154.99,66.75c.1-.28,.13-.43,.14-.51,0-.08,0-.09-.02-.11-.04-.03-.06-.07,0-.62,.01-.32,.05-.86,.03-1.48-.02-.63-.12-1.36-.28-2.01-.16-.67-.39-1.3-.61-1.81-.22-.51-.43-.91-.53-1.13-.48-.3-.72-.9-1.16-1.17h.07c-.2-.17-.77-.83-1.41-1.4-.65-.58-1.34-1.06-1.6-1.17l.05,.07c-.5-.13-.3-.32-.6-.58-.09,.25-.52,.19-.66,.14l.03-.05c-.23-.07-.8-.09-1.14-.2l.07-.13c-.35,0-.85-.26-1.05-.32-.43-.24-1.06-.73-1.72-.74l-.26-.52-.07,.02s-.53,1.14-.99,2.45c-.47,1.3-.87,2.77-.68,3.38l-.06,.13,.14,.03c.14,.12,.27,0,.21,.12l-.22-.09c.15,.09,.01,.13-.07,.19,.06,.04,.13,.07,.17,.13,.05-.04,0-.06-.02-.1,.1-.02,.27-.11,.35,0,.16,.07-.06,.23,.12,.31,.77,.36,1.43,.75,2.06,1.1-.07,.07-.16,.16-.24,.25-.09,.1-.18,.2-.26,.3-.16,.21-.33,.43-.46,.66-.29,.46-.51,.96-.68,1.48-.33,1.03-.44,2.16-.25,3.21,.02,.13,.05,.26,.07,.38,.03,.13,.07,.25,.1,.37,.06,.24,.16,.46,.25,.67,.08,.2,.19,.39,.28,.56,.09,.16,.18,.31,.26,.42l-.07-.06c.13,.18,.27,.37,.43,.55,.17,.18,.35,.37,.55,.55,.41,.35,.91,.69,1.46,.92,1.1,.48,2.3,.57,3.37,.38s2.05-.64,2.85-1.3c.2-.16,.38-.34,.56-.52,.17-.18,.29-.34,.42-.51,.24-.34,.43-.66,.56-.96,.35-.27,.53-.8,.7-1.16-.13,.19-.22,.08-.16-.08l-.03-.04Z"/>
      </g>
      <g>
        <path class="d" d="M1076.95,87.26c.06,.39,.39,.93,.68,1.45-.12-.47-.32-.91-.68-1.45Z"/>
        <path class="d" d="M1173.23,82.6c-.09,.11-.19,.23-.3,.35,.11-.11,.21-.23,.3-.35Z"/>
        <path class="d" d="M1097.62,110.9l.22-.18c.67,.38,.73,.5,.78,.61,.03,.05,.05,.1,.15,.18,.09,.08,.27,.18,.6,.32,.34-.04,.86,.23,1.38,.52,.13,.07,.25,.15,.38,.21s.25,.12,.36,.17c.23,.1,.42,.17,.56,.18-.02,.02,.62,.31,.54,.4,.27-.1,.69,.21,1.13,.32,.17,0-.09-.1-.18-.2,.32,.09,.65,.19,.97,.28,.35,.18,.41,.32,0,.21,.31,.11,.77,.26,1.35,.46,.29,.1,.61,.18,.95,.28,.34,.09,.71,.21,1.09,.3,1.55,.4,3.41,.75,5.29,.98,3.76,.48,7.52,.35,8.87,.23-.18-.07-.48-.06-.77-.07-.3-.01-.59-.04-.75-.15,.72-.15,1.06,0,1.37-.15,.15,.17,.54,.17,.97,.17,.43-.01,.89-.03,1.18,.13l.19-.22,.37,.09c1.56-.27,1.73-.31,1.87-.33,.13-.01,.23,.02,1.61-.14,1.58-.29,2.29-.69,3.18-.73-.13,.02-.5-.04-.1-.16,.05,.08,.32,.01,.6-.08,.28-.09,.57-.19,.69-.12,.39-.11,1.68-.36,1.2-.5,.24,.07,1.4-.13,.74,.12,.39-.08,.77-.11,1.04-.24-.17,.02-.34,.04-.51,.05,1.29-.35,2.04-.37,2.82-.79l-.5,.03c.77-.22,1.41-.4,1.77-.26-.25,.11-.51,.19-.77,.29,.64-.16,1.14-.34,1.62-.51,.47-.17,.92-.35,1.42-.57l-.38,.11c.16-.08,.41-.19,.72-.32,.31-.13,.69-.27,1.11-.46,.83-.36,1.83-.78,2.83-1.21,1.96-.92,3.89-1.85,4.4-2.29l-.61,.08,.93-.61c-.12,.05-.23,.77-.35,.76,.27-.13,.67-.32,1.19-.57,.26-.12,.54-.26,.84-.4l.47-.23c.16-.08,.32-.17,.49-.26,.67-.36,1.41-.75,2.18-1.17,.19-.1,.39-.21,.58-.31l.58-.34,1.17-.69,1.17-.69,.29-.17c.09-.06,.19-.12,.28-.18,.19-.12,.37-.24,.55-.36,.73-.47,1.43-.92,2.05-1.33,1.24-.84,2.2-1.53,2.66-1.81,.78-.43,.3,.15,.31,.18,.42-.34,.48-.45,.53-.54,.05-.09,.1-.16,.46-.43,.22-.13,.05,.15-.05,.26,.3-.26,.64-.44,.61-.53-.44,.25-.41-.06-.67-.05l.94-.7,.05,.15c.21-.16,.28-.71,1.23-1.37,.76-.61,1.53-1.26,2.29-1.92,.39-.32,.75-.68,1.12-1.02s.73-.68,1.09-1.01c.04,.08-.23,.4-.49,.72,.19-.18,.47-.47,.69-.59-.45,.21,.53-.64,.21-.43,.41-.61,.96-1.21,1.52-1.77,.56-.57,1.12-1.11,1.46-1.65-.08-.15-.64-1.58-1.25-2.98s-1.26-2.75-1.41-2.87c.24-.27,.49-.53,.59-.59-.13,.01-.63,.52-.84,.83l.11,.18c-.52,.7-.23,.07-.78,.72-.15-.08,.34-.69,.78-1.21-.42,.45-.92,.83-.95,1.14-.43,.39-.11-.18-.62,.29-.07,.1-.15,.21-.22,.33-.08,.12-.17,.23-.26,.35-.18,.24-.38,.47-.62,.64v-.03c-.56,.44-.88,.86-1.2,1.28-.08,.1-.16,.21-.24,.31-.09,.1-.17,.2-.27,.29-.19,.19-.4,.38-.66,.57l.06-.13c-.39,.24-.95,.94-1.61,1.41,.19-.13,.42-.18,.08,.17-.78,.53-1.19,1.02-1.79,1.36l-.39,.55c-.16,.13-.33,.29-.55,.46-.22,.17-.46,.36-.72,.56-.52,.42-1.13,.9-1.8,1.43-.69,.5-1.45,1.05-2.23,1.62-.2,.14-.39,.29-.59,.43-.21,.14-.41,.27-.62,.41-.42,.28-.84,.55-1.25,.83-.83,.58-1.7,1.08-2.53,1.58-.42,.25-.82,.5-1.22,.74-.4,.23-.8,.44-1.18,.64-.76,.41-1.44,.79-2.04,1.1-.61,.29-1.11,.53-1.48,.71l.11-.08c-2.22,1.14-5.75,2.59-9.39,3.77-.91,.29-1.82,.61-2.73,.84-.45,.13-.9,.25-1.34,.37l-.66,.18c-.22,.06-.43,.12-.65,.17-.86,.2-1.68,.4-2.44,.58l-.56,.14c-.18,.04-.37,.07-.54,.11-.35,.07-.69,.14-1,.2-.81-.03-1.89,.2-2.72,.25,.47,0,.32,.14-.03,.18-.63,.08-.95,.12-1.12,.14s-.19,.05-.21,.07-.04,.05-.22,.09c-.17,.04-.5,.1-1.14,.17-.36,.05-.86,.11-1.45,.15-.3,.02-.62,.04-.96,.06l-1.07,.03c-1.5,.03-3.25,0-4.96-.17-1.71-.16-3.38-.46-4.76-.79-.34-.09-.67-.16-.98-.24-.3-.09-.58-.17-.84-.25-.52-.15-.93-.31-1.22-.42-.17-.02-.34-.05-.51-.09-.17-.04-.34-.09-.52-.14-.35-.11-.7-.23-1.05-.37-.34-.14-.68-.29-1.02-.42s-.65-.29-.96-.39h.14c-.66-.24-2.72-1.36-4.65-2.8-.24-.18-.48-.37-.71-.55-.24-.18-.48-.35-.69-.55-.44-.38-.87-.74-1.26-1.07-.38-.35-.72-.66-1-.92-.29-.26-.52-.46-.68-.61l.14,.19c-.57-.47-.78-.71-.94-.95-.16-.24-.27-.46-.63-.92-.09,.29-1.07-.53-1.41-.89l.06-.02c-.26-.27-.7-.68-1.19-1.14-.48-.46-.99-1-1.39-1.46l.14-.05c-.76-.71-1.88-2.3-2.32-2.9-.96-1.42-2.23-3.73-3.64-5.57l-.46-1.48-.15-.16s-1.38,.16-2.67,.71c-1.29,.55-2.49,1.49-2.09,3.1l-.15,.04,.35,.51c.35,.66,.68,.86,.53,.9l-.54-.87c.37,.65,.02,.25-.2,.06,.16,.27,.31,.53,.41,.77,.13,.09,0-.12-.05-.24,.26,.31,.68,.71,.9,1.16,.41,.65-.17,.17,.32,.93,1.27,2.01,2.57,3.99,3.99,5.92l.53,.72,.55,.72c.38,.47,.73,.96,1.13,1.42,.4,.47,.79,.93,1.19,1.4,.42,.45,.85,.91,1.27,1.37,.03,.12-.06,.02-.17-.06,.13,.13,.26,.27,.39,.4l.4,.38c.26,.25,.52,.5,.77,.74,.49,.49,1.02,.94,1.56,1.39,.24,.31,.26,.45,.31,.57-.01-.03,.07,.03,.22,.15,.16,.12,.39,.3,.67,.52,.28,.22,.61,.49,.97,.78,.36,.28,.77,.57,1.17,.87,.79,.61,1.66,1.15,2.3,1.58,.16,.11,.31,.2,.44,.29l.36,.21c.2,.12,.32,.19,.33,.2l-.04-.03Z"/>
      </g>
      <g>
        <path class="d" d="M1086.3,0c-.71,.08-1.86,.57-2.81,1.19,.8-.38,1.64-.78,2.81-1.19Z"/>
        <path class="d" d="M1170.84,24.17s.04,.09,.05,.14c0,.05,.03,.1,.04,.15,0-.05-.02-.1-.03-.15,0-.05-.03-.1-.05-.15h-.01Z"/>
        <path class="d" d="M1103.37,32.35l.15-.21c1.05,.09,1.2,.15,1.33,.22s.23,.13,1.22,.16c.39-.13,1.22-.08,2.06-.03,.84,.05,1.7,.07,2.06-.03,0,0,.25,0,.5,0,.26,0,.51,0,.48,.06,.31-.19,1.1-.14,1.78-.3,.24-.09-.19-.02-.38-.05,.52-.09,1.04-.21,1.56-.35,.31-.04,.52-.07,.56-.04,.04,.02-.08,.09-.42,.18,.52-.13,1.29-.31,2.24-.68,.99-.38,2.12-.97,3.23-1.83l.42-.33c.14-.12,.27-.24,.41-.37,.28-.24,.54-.53,.81-.8,.13-.14,.26-.3,.39-.45l.19-.23c.06-.08,.12-.16,.18-.25,.12-.17,.24-.33,.36-.51l.33-.55c.11-.18,.21-.38,.31-.58,.1-.2,.2-.39,.28-.61,.09-.21,.17-.42,.25-.64,.07-.22,.14-.45,.2-.67,.24-.91,.37-1.89,.32-2.88,0-.12-.02-.26-.03-.4s-.03-.28-.05-.41-.04-.27-.07-.4l-.09-.39c-.14-.52-.32-1.01-.54-1.47-.44-.92-1.02-1.72-1.68-2.4-.66-.68-1.41-1.25-2.22-1.68-.81-.44-1.7-.75-2.62-.9-.93-.14-1.89-.13-2.78,.09-.89,.2-1.69,.58-2.31,1-.32,.2-.59,.43-.84,.66s-.46,.46-.65,.67c-.18,.22-.35,.43-.49,.64-.13,.2-.26,.39-.35,.56,.13-.16,.3-.38,.48-.63,.1-.12,.21-.25,.32-.38,.06-.06,.11-.13,.17-.2l.19-.19c.49-.51,1.11-.91,1.49-1.03-.17,.13-.34,.25-.49,.37l-.4,.35c-.13,.11-.23,.21-.34,.32l-.28,.29c-.17,.18-.31,.36-.43,.52s-.2,.33-.28,.49c-.15,.09-.34,.33-.53,.65-.19,.33-.37,.74-.52,1.18-.31,.87-.44,1.82-.61,2.38,.05,.15,.1,.29,.16,.43-.03,.25-.06,.49-.07,.74,.08,.82,.26,1.46,.41,1.93,.15,.45,.28,.76,.38,.99,.21,.45,.27,.59,.33,.7,.06,.11,.09,.22,.27,.57,.09,.18,.22,.42,.41,.74,.19,.32,.46,.72,.83,1.2,.43,.55,.84,.97,1.21,1.32s.7,.64,1,.89c.6,.5,1.11,.89,1.61,1.37-.16-.13-.5-.57,0-.18,0,.09,.35,.34,.72,.61,.37,.26,.78,.52,.86,.68,.13,.09,.33,.23,.56,.38,.23,.15,.47,.32,.69,.44,.45,.25,.76,.39,.52,.12,.23,.29,1.86,1.23,.84,.76,.54,.32,1.09,.62,1.53,.78l-.71-.41c.49,.23,.91,.45,1.32,.62,.2,.09,.39,.18,.58,.26,.18,.08,.37,.15,.55,.22,.36,.13,.69,.26,1.04,.34,.17,.04,.35,.08,.52,.12,.17,.03,.35,.07,.54,.08l-.2-.06-.19-.07-.39-.15c.64,.19,1.26,.29,1.76,.41,.52,.09,.93,.19,1.19,.32l-.71-.06c-.24-.02-.48-.03-.71-.08,.28,.06,.55,.08,.81,.12,.26,.03,.51,.07,.75,.08,.25,0,.48,.02,.71,.02s.46,.02,.68,0c.9-.04,1.75-.16,2.71-.43-.23,.05-.46,.11-.69,.14,.25-.05,.6-.16,1.04-.29,.44-.11,.94-.32,1.5-.53,1.1-.47,2.35-1.2,3.48-2.11s2.14-1.99,2.97-3.03l.04-.05v-.02l.03-.02s.02-.03,.03-.05c.02-.03,.04-.07,.06-.1,.04-.07,.08-.13,.12-.2,.08-.14,.15-.28,.22-.42,.12-.26,.23-.5,.29-.69-.04-.02-.09-.03-.15-.03l.34-.77s-.09,.36-.14,.64c-.05,.29-.09,.54-.1,.51,.06-.1,.15-.26,.27-.46l.04-.08,.02-.04v-.02s.02-.02,.03,0c0,.06-.01,.12-.01,.18,0,.13,0,.27,.02,.41,.04,.29,.12,.62,.27,.94l.12,.24,.08,.15c.04,.08,.09,.16,.14,.24,.1,.16,.19,.33,.29,.48,.4,.64,.85,1.25,1.33,1.83,.97,1.15,2.08,2.17,3.25,2.99,.59,.41,1.18,.78,1.78,1.1s1.19,.59,1.77,.82c2.32,.88,4.22,1.11,5.09,1.2,.18,.03,.31,.05,.41,.08,.1,.02,.17,.03,.22,.05,.09,.03,.07,.06,.01,.08-.06,.02-.16,.05-.26,.06-.09,0-.17,.02-.17,.02,.87,.03,1.06-.02,1.22-.04,.16-.02,.28-.05,1.01-.06,.4,.02-.08,.12-.31,.15,.32-.02,.63,0,.87-.02,.23,0,.4-.03,.42-.07-.8,0-.47-.22-.81-.33,.31,0,.62-.03,.93-.05s.62-.04,.92-.08l-.07,.13c.21-.02,.46-.14,.88-.27,.21-.07,.46-.16,.77-.23,.15-.04,.32-.07,.51-.12,.18-.04,.38-.09,.6-.13,1.47-.32,2.96-.8,4.4-1.41,.36-.15,.72-.3,1.07-.48,.35-.17,.7-.33,1.04-.52,.67-.34,1.4-.75,2.04-1.19,0,.09-.52,.5-1.09,.87,.38-.21,.91-.57,1.27-.75-.35,.16-.09-.04,.19-.25,.28-.22,.58-.44,.32-.29,.84-.81,1.81-1.68,2.68-2.68,.43-.5,.83-1.02,1.17-1.55,.34-.54,.61-1.09,.78-1.62-.02-.04-.07-.16-.15-.34-.08-.18-.2-.43-.34-.7-.29-.55-.72-1.2-1.24-1.71-.25-.25-.54-.47-.8-.65-.28-.17-.53-.3-.78-.39-.23-.09-.44-.14-.6-.16-.16-.03-.26-.03-.3-.02-.04-.25-.14-.5-.15-.59-.03,.05,.02,.2,.05,.36l.1,.48,.17,.03c.05,.33,0,.38-.03,.41-.04,.04-.06,.06-.12,.41-.07,0-.08-.16-.08-.37s-.02-.46-.07-.68c.03,.2,0,.41-.01,.6,0,.09-.03,.18-.02,.26,0,.08,0,.15,.03,.21-.18,.46-.13-.1-.38,.46-.1,.42-.31,1.1-.77,1.57v-.02c-.53,.58-.94,1.08-1.37,1.55s-.9,.91-1.6,1.29c.04-.04,.08-.09,.12-.13-.25,.12-.59,.35-1,.58-.23,.12-.47,.25-.72,.38s-.51,.23-.77,.33c.3-.11,.59-.14,0,.17-.3,.12-.57,.21-.83,.32-.25,.11-.49,.19-.72,.28-.46,.18-.89,.3-1.34,.4-.27,.13-.54,.25-.81,.37-.26,.08-.58,.13-.94,.22-.18,.05-.37,.07-.57,.11-.2,.03-.41,.08-.63,.11-.87,.13-1.9,.22-3,.19-1.1-.02-2.28-.17-3.45-.5l-.44-.13c-.07-.02-.15-.04-.22-.06l-.21-.07c-.28-.1-.55-.21-.83-.34-.55-.25-1.09-.55-1.6-.89-1.03-.68-1.95-1.54-2.68-2.47-.37-.46-.69-.94-.95-1.43l-.09-.16c-.04-.07-.07-.14-.11-.22l-.11-.23-.09-.24-.18-.48-.09-.24c-.03-.07-.05-.18-.07-.26-.04-.18-.08-.36-.13-.54l-.06-.27s-.02-.08-.03-.14v-.18c-.03-.47-.04-.94-.07-1.4-.05-.46-.1-.91-.15-1.35v-.06l-.04-.05-.05-.1-.1-.19-.2-.38-.05-.09s-.03-.04-.05-.06l-.1-.12c-.07-.08-.13-.15-.2-.23l-.1-.11s-.06-.05-.09-.08l-.17-.14c-.44-.36-.74-.48-.88-.59l-.06-.04-.04-.03s-.06-.04-.08-.06l-.04-.05-.02-.02h-.1l-.32,.04c-.05,0-.09,0-.15,.02l-.17,.04,.14-.06c-.14,.03-.29,.07-.44,.1l-.12,.03s-.04,0-.06,.02l-.08,.03-.32,.14c-.11,.05-.22,.1-.34,.15l-.09,.04s-.03,.02-.05,.04l-.05,.05c-.07,.06-.15,.13-.22,.19-.15,.13-.31,.27-.47,.41l-.25,.21s-.04,.05-.06,.08l-.07,.1-.13,.2-.81,1.36c-.28,.44-.56,.89-.85,1.34-.07,.11-.14,.23-.22,.34l-.23,.32c-.15,.21-.31,.43-.46,.64-.16,.21-.31,.44-.47,.65-.08,.1-.16,.21-.25,.31l-.22,.27c-.64,.76-1.34,1.49-2.11,2.1s-1.6,1.09-2.49,1.41c-.89,.31-1.82,.47-2.8,.45-1.96-.03-4.04-.76-5.84-1.77-.9-.5-1.74-1.05-2.5-1.62-.76-.57-1.44-1.13-2.04-1.68-.35-.43-.78-.9-1.16-1.37-.38-.47-.71-.93-.92-1.34,.22,.47,.05,.37-.16,.02-.34-.62-.43-.93-.5-1.09-.06-.17-.08-.18-.1-.2s-.04-.03-.1-.18c-.04-.15-.14-.45-.13-1.06,0-.34,.08-.81,.28-1.25,.1-.21,.23-.41,.38-.57,.15-.15,.33-.29,.5-.36,.09-.03,.18-.06,.29-.07s.22-.01,.35,0c.26,.03,.58,.12,.91,.3,.65,.34,1.27,1.01,1.51,1.66,.07,.16,.1,.32,.13,.47,.02,.08,.02,.15,.03,.22v.29c-.02,.39-.09,.78-.22,1.16-.15,.38-.34,.76-.58,1.11-.25,.35-.52,.67-.82,.96-.59,.58-1.25,1-1.83,1.28-.14,.08-.28,.13-.41,.19l-.19,.08-.2,.07c-.26,.1-.49,.15-.68,.21-.8,.34-1.81,.54-2.88,.62-1.06,.09-2.18,.06-3.18,.09l.2-.04c-.27,0-.7-.01-1.25-.05-.56-.03-1.25-.08-2.01-.14-1.53-.13-3.37-.32-5.16-.63s-3.54-.73-4.93-1.2c-1.4-.46-2.46-.95-3-1.18,.09,.06,.18,.11,.27,.16-.25-.09-.43-.19-.61-.27-.17-.08-.32-.15-.44-.22-.25-.15-.42-.26-.57-.38-.15-.12-.28-.24-.46-.39l-.31-.24c-.11-.1-.24-.2-.4-.32,.02,.15-.35,.01-.76-.25-.11-.06-.22-.13-.33-.2-.11-.08-.21-.16-.31-.23-.2-.15-.39-.29-.51-.41l.05-.02c-.09-.08-.2-.18-.32-.28-.06-.05-.12-.11-.19-.16l-.2-.19-.43-.41c-.14-.15-.29-.31-.44-.47-.6-.65-1.17-1.43-1.55-2.13h.14c-.36-.56-.76-1.43-.99-2.29-.05-.22-.1-.43-.14-.64l-.03-.15-.02-.14c-.01-.1-.03-.19-.04-.28-.02-.18-.04-.35-.05-.5s-.02-.29-.02-.4c0-.52,.06-1.11,.19-1.74,.13-.63,.34-1.29,.62-1.93,.56-1.3,1.43-2.51,2.38-3.39,.51-.26,1.03-.45,1.54-.56,.06-.05,.13-.08,.19-.12l.1-.75c.05-.46,.16-1.05,.17-1.66,.01-.3-.02-.6-.1-.88-.09-.28-.2-.54-.44-.74-.24-.2-.58-.36-1.04-.41-.24-.03-.49,0-.79,.02-.29,.05-.62,.12-.97,.26l.02-.15c-.17,.1-.34,.19-.51,.3-.16,.11-.33,.21-.49,.33-.6,.37-.96,.73-1.2,.95-.23,.22-.32,.33-.33,.25,.46-.43,.95-.84,1.48-1.2-.3,.19-.46,.31-.54,.36-.08,.05-.09,.04-.04-.02,.05-.05,.14-.15,.25-.25s.24-.21,.34-.3c-.5,.32-.96,.68-1.33,.96-.18,.22,.19-.1,.37-.22-.56,.52-1.2,1.34-1.79,2.01-.43,.55-.47,.55-.54,.56-.07,.02-.17,.05-.6,.74-.56,.92-1.01,1.89-1.34,2.9-.34,1-.57,2.05-.69,3.1-.12,1.06-.11,2.14,.01,3.22l.06,.41,.03,.2,.04,.19,.16,.77c.05,.26,.13,.51,.2,.76,.08,.25,.14,.51,.23,.75,.69,1.96,1.72,3.78,3,5.33,.63,.79,1.34,1.5,2.06,2.19l.56,.49,.28,.24,.29,.23,.59,.46,.61,.43c.12,.15-.06,.02-.26-.09,.5,.35,1,.65,1.49,.95,.5,.28,.98,.56,1.48,.8,.5,.26,.99,.47,1.47,.68,.25,.1,.49,.2,.74,.29,.25,.1,.5,.19,.75,.27,.53,.25,.66,.38,.81,.48-.07-.06,.58,.16,1.61,.44s2.44,.6,3.86,.84c1.42,.25,2.84,.42,3.91,.54,1.07,.11,1.8,.18,1.84,.19l-.03,.06Z"/>
      </g>
    </g>
    <g>
      <g>
        <path class="e" d="M2928.96,126.84l1.26,7.69c.07,.42,.37,.77,.78,.9,10.24,3.14,22.48,4.82,35.11,4.82s24.88-1.7,35.12-4.84c.41-.13,.71-.47,.78-.9l1.29-7.68c.08-.5-.39-.91-.87-.75-10.5,3.39-23.12,5.23-36.32,5.23s-25.78-1.79-36.28-5.22c-.48-.16-.96,.25-.87,.75h0Z"/>
        <path class="e" d="M2910.47,13.63c.08,.48,.44,.85,.92,.93,14.06,2.38,33.58,3.85,55.15,3.85s40.28-1.41,54.25-3.7c.48-.08,.85-.45,.92-.93l1.18-7.26c.07-.46-.32-.85-.77-.77-14.09,2.42-33.79,3.92-55.58,3.92s-42.32-1.57-56.47-4.08c-.46-.08-.85,.31-.78,.77l1.18,7.26h0Z"/>
      </g>
      <g>
        <path class="d" d="M2943.52,69.28c.18-.06,.2-.2,.27-.33-.18,.07-.26,.18-.27,.33Z"/>
        <path class="d" d="M2961.24,65.34c-.16-.47-.35-.88-.54-1.22-.06-.51-.42-1.08-.67-1.51,.1,.26-.05,.25-.16,.07-.07-.1-.12-.16-.17-.23,.04-.69,.07-1.21,.06-1.31,.14,0,.29-.02,.33,0-.05-.08-.33-.1-.48-.03v.2c-.34,.11-.1-.11-.43-.06-.04-.16,.27-.23,.54-.28-.25,0-.5-.09-.59,.1-.24-.04,0-.21-.28-.25-.19,.07-.44,.26-.67,.19v-.03h-.11c-.23-.2-.48-.41-.77-.63-.64-.49-1.44-.98-2.27-1.38-.83-.4-1.69-.7-2.44-.9-.74-.19-1.36-.3-1.7-.36-.75,.17-1.66,0-2.36,.22l.07-.06c-.09,.02-.25,.05-.44,.07l-.32,.04c-.12,.02-.24,.04-.37,.06s-.27,.05-.41,.07c-.14,.03-.29,.07-.44,.1-.31,.06-.62,.16-.94,.25-1.28,.39-2.46,1.07-2.8,1.36l.12-.04c-.29,.27-.44,.36-.59,.4-.15,.05-.31,.05-.58,.22,.23,.16-.19,.69-.35,.88l-.03-.05c-.25,.29-.68,1.05-1.02,1.56l-.1-.11c-.11,.24-.3,.56-.5,.84-.19,.29-.38,.57-.46,.73-.12,.18-.25,.37-.4,.59-.14,.22-.29,.46-.43,.71-.27,.51-.5,1.1-.55,1.68-.19,.2-.4,.42-.58,.64l.02,.12s.29,.14,.75,.3c.46,.17,1.1,.37,1.77,.51,.68,.15,1.39,.26,2.02,.28,.62,.03,1.15,0,1.45-.13l.14,.04c0-.05,.01-.1,.02-.15,.12-.16-.03-.29,.11-.23l-.08,.24c.09-.17,.13-.02,.19,.06,.03-.07,.07-.13,.12-.18-.05-.05-.06,0-.1,.03-.03-.11-.12-.28-.01-.37,.07-.17,.22,.06,.31-.13,.51-1.01,1.31-1.81,2.13-2.52,.06,.03,.03,.05,.03,.09,.11-.13,.23-.22,.34-.32,.12-.08,.23-.19,.35-.28,.1,.02,.16,.08,.21,.13-.02-.02,.04-.09,.17-.16,.06-.04,.13-.08,.21-.13,.08-.04,.17-.08,.26-.12,.19-.07,.38-.14,.54-.17,.15-.04,.26-.05,.27-.05l-.03-.26c.33-.06,.14,.27,.43,.17,.04-.19,.16-.2,.29-.18,.13,.03,.25,.07,.3-.03,0,.03,.15,.04,.14,.16,.05-.2,.15-.05,.25-.1,.04-.05-.02-.06-.05-.12,.07-.02,.15-.04,.23-.06,.08,.07,.09,.19,0,.21,.12,.02,.34,.07,.61,.13-.22,.52-.4,1.1-.53,1.72-.14,.68-.21,1.4-.22,2.12,0,1.44,.24,2.87,.8,3.9,.07,.13,.14,.24,.23,.38,.13,.2,.28,.4,.44,.59,.17,.19,.35,.36,.52,.51,.18,.15,.38,.29,.56,.41,.38,.23,.75,.4,1.07,.5,.08,.03,.16,.05,.24,.07l.22,.05c.14,.03,.27,.05,.39,.07h-.17c.78,.13,1.56,.07,2.26-.11,.71-.18,1.37-.48,2-.91,.32-.21,.63-.48,.93-.78,.25-.27,.46-.52,.67-.8,.4-.56,.72-1.18,.95-1.81,.46-1.26,.57-2.54,.43-3.68-.07-.57-.19-1.11-.35-1.6v.06Z"/>
        <path class="d" d="M2985.23,58.93c.03,.18,.17,.23,.29,.3-.05-.18-.14-.27-.29-.3Z"/>
        <path class="d" d="M2997.94,66.75c.1-.28,.13-.43,.14-.51,0-.08,0-.09-.02-.11-.04-.03-.06-.07,0-.62,.01-.32,.05-.86,.03-1.48-.02-.63-.12-1.36-.28-2.01-.16-.67-.39-1.3-.61-1.81-.22-.51-.43-.91-.53-1.13-.48-.3-.72-.9-1.16-1.17h.07c-.2-.17-.77-.83-1.41-1.4-.65-.58-1.34-1.06-1.6-1.17l.05,.07c-.5-.13-.3-.32-.6-.58-.09,.25-.52,.19-.66,.14l.03-.05c-.23-.07-.8-.09-1.14-.2l.07-.13c-.35,0-.85-.26-1.05-.32-.43-.24-1.06-.73-1.72-.74l-.26-.52-.07,.02s-.53,1.14-.99,2.45c-.47,1.3-.87,2.77-.68,3.38l-.06,.13,.14,.03c.14,.12,.27,0,.21,.12l-.22-.09c.15,.09,.01,.13-.07,.19,.06,.04,.13,.07,.17,.13,.05-.04,0-.06-.02-.1,.1-.02,.27-.11,.35,0,.16,.07-.06,.23,.12,.31,.77,.36,1.43,.75,2.06,1.1-.07,.07-.16,.16-.24,.25-.09,.1-.18,.2-.26,.3-.16,.21-.33,.43-.46,.66-.29,.46-.51,.96-.68,1.48-.33,1.03-.44,2.16-.25,3.21,.02,.13,.05,.26,.07,.38,.03,.13,.07,.25,.1,.37,.06,.24,.16,.46,.25,.67,.08,.2,.19,.39,.28,.56,.09,.16,.18,.31,.26,.42l-.07-.06c.13,.18,.27,.37,.43,.55,.17,.18,.35,.37,.55,.55,.41,.35,.91,.69,1.46,.92,1.1,.48,2.3,.57,3.37,.38s2.05-.64,2.85-1.3c.2-.16,.38-.34,.56-.52,.17-.18,.29-.34,.42-.51,.24-.34,.43-.66,.56-.96,.35-.27,.53-.8,.7-1.16-.13,.19-.22,.08-.16-.08l-.03-.04Z"/>
      </g>
      <g>
        <path class="d" d="M2919.9,87.26c.06,.39,.39,.93,.68,1.45-.12-.47-.32-.91-.68-1.45Z"/>
        <path class="d" d="M3016.18,82.6c-.09,.11-.19,.23-.3,.35,.11-.11,.21-.23,.3-.35Z"/>
        <path class="d" d="M2940.57,110.9l.22-.18c.67,.38,.73,.5,.78,.61,.03,.05,.05,.1,.15,.18,.09,.08,.27,.18,.6,.32,.34-.04,.86,.23,1.38,.52,.13,.07,.25,.15,.38,.21s.25,.12,.36,.17c.23,.1,.42,.17,.56,.18-.02,.02,.62,.31,.54,.4,.27-.1,.69,.21,1.13,.32,.17,0-.09-.1-.18-.2,.32,.09,.65,.19,.97,.28,.35,.18,.41,.32,0,.21,.31,.11,.77,.26,1.35,.46,.29,.1,.61,.18,.95,.28,.34,.09,.71,.21,1.09,.3,1.55,.4,3.41,.75,5.29,.98,3.76,.48,7.52,.35,8.87,.23-.18-.07-.48-.06-.77-.07-.3-.01-.59-.04-.75-.15,.72-.15,1.06,0,1.37-.15,.15,.17,.54,.17,.97,.17,.43-.01,.89-.03,1.18,.13l.19-.22,.37,.09c1.56-.27,1.73-.31,1.87-.33,.13-.01,.23,.02,1.61-.14,1.58-.29,2.29-.69,3.18-.73-.13,.02-.5-.04-.1-.16,.05,.08,.32,.01,.6-.08,.28-.09,.57-.19,.69-.12,.39-.11,1.68-.36,1.2-.5,.24,.07,1.4-.13,.74,.12,.39-.08,.77-.11,1.04-.24-.17,.02-.34,.04-.51,.05,1.29-.35,2.04-.37,2.82-.79l-.5,.03c.77-.22,1.41-.4,1.77-.26-.25,.11-.51,.19-.77,.29,.64-.16,1.14-.34,1.62-.51,.47-.17,.92-.35,1.42-.57l-.38,.11c.16-.08,.41-.19,.72-.32,.31-.13,.69-.27,1.11-.46,.83-.36,1.83-.78,2.83-1.21,1.96-.92,3.89-1.85,4.4-2.29l-.61,.08,.93-.61c-.12,.05-.23,.77-.35,.76,.27-.13,.67-.32,1.19-.57,.26-.12,.54-.26,.84-.4l.47-.23c.16-.08,.32-.17,.49-.26,.67-.36,1.41-.75,2.18-1.17,.19-.1,.39-.21,.58-.31l.58-.34,1.17-.69,1.17-.69,.29-.17c.09-.06,.19-.12,.28-.18,.19-.12,.37-.24,.55-.36,.73-.47,1.43-.92,2.05-1.33,1.24-.84,2.2-1.53,2.66-1.81,.78-.43,.3,.15,.31,.18,.42-.34,.48-.45,.53-.54,.05-.09,.1-.16,.46-.43,.22-.13,.05,.15-.05,.26,.3-.26,.64-.44,.61-.53-.44,.25-.41-.06-.67-.05l.94-.7,.05,.15c.21-.16,.28-.71,1.23-1.37,.76-.61,1.53-1.26,2.29-1.92,.39-.32,.75-.68,1.12-1.02s.73-.68,1.09-1.01c.04,.08-.23,.4-.49,.72,.19-.18,.47-.47,.69-.59-.45,.21,.53-.64,.21-.43,.41-.61,.96-1.21,1.52-1.77,.56-.57,1.12-1.11,1.46-1.65-.08-.15-.64-1.58-1.25-2.98s-1.26-2.75-1.41-2.87c.24-.27,.49-.53,.59-.59-.13,.01-.63,.52-.84,.83l.11,.18c-.52,.7-.23,.07-.78,.72-.15-.08,.34-.69,.78-1.21-.42,.45-.92,.83-.95,1.14-.43,.39-.11-.18-.62,.29-.07,.1-.15,.21-.22,.33-.08,.12-.17,.23-.26,.35-.18,.24-.38,.47-.62,.64v-.03c-.56,.44-.88,.86-1.2,1.28-.08,.1-.16,.21-.24,.31-.09,.1-.17,.2-.27,.29-.19,.19-.4,.38-.66,.57l.06-.13c-.39,.24-.95,.94-1.61,1.41,.19-.13,.42-.18,.08,.17-.78,.53-1.19,1.02-1.79,1.36l-.39,.55c-.16,.13-.33,.29-.55,.46-.22,.17-.46,.36-.72,.56-.52,.42-1.13,.9-1.8,1.43-.69,.5-1.45,1.05-2.23,1.62-.2,.14-.39,.29-.59,.43-.21,.14-.41,.27-.62,.41-.42,.28-.84,.55-1.25,.83-.83,.58-1.7,1.08-2.53,1.58-.42,.25-.82,.5-1.22,.74-.4,.23-.8,.44-1.18,.64-.76,.41-1.44,.79-2.04,1.1-.61,.29-1.11,.53-1.48,.71l.11-.08c-2.22,1.14-5.75,2.59-9.39,3.77-.91,.29-1.82,.61-2.73,.84-.45,.13-.9,.25-1.34,.37l-.66,.18c-.22,.06-.43,.12-.65,.17-.86,.2-1.68,.4-2.44,.58l-.56,.14c-.18,.04-.37,.07-.54,.11-.35,.07-.69,.14-1,.2-.81-.03-1.89,.2-2.72,.25,.47,0,.32,.14-.03,.18-.63,.08-.95,.12-1.12,.14s-.19,.05-.21,.07-.04,.05-.22,.09c-.17,.04-.5,.1-1.14,.17-.36,.05-.86,.11-1.45,.15-.3,.02-.62,.04-.96,.06l-1.07,.03c-1.5,.03-3.25,0-4.96-.17-1.71-.16-3.38-.46-4.76-.79-.34-.09-.67-.16-.98-.24-.3-.09-.58-.17-.84-.25-.52-.15-.93-.31-1.22-.42-.17-.02-.34-.05-.51-.09-.17-.04-.34-.09-.52-.14-.35-.11-.7-.23-1.05-.37-.34-.14-.68-.29-1.02-.42s-.65-.29-.96-.39h.14c-.66-.24-2.72-1.36-4.65-2.8-.24-.18-.48-.37-.71-.55-.24-.18-.48-.35-.69-.55-.44-.38-.87-.74-1.26-1.07-.38-.35-.72-.66-1-.92-.29-.26-.52-.46-.68-.61l.14,.19c-.57-.47-.78-.71-.94-.95-.16-.24-.27-.46-.63-.92-.09,.29-1.07-.53-1.41-.89l.06-.02c-.26-.27-.7-.68-1.19-1.14-.48-.46-.99-1-1.39-1.46l.14-.05c-.76-.71-1.88-2.3-2.32-2.9-.96-1.42-2.23-3.73-3.64-5.57l-.46-1.48-.15-.16s-1.38,.16-2.67,.71c-1.29,.55-2.49,1.49-2.09,3.1l-.15,.04,.35,.51c.35,.66,.68,.86,.53,.9l-.54-.87c.37,.65,.02,.25-.2,.06,.16,.27,.31,.53,.41,.77,.13,.09,0-.12-.05-.24,.26,.31,.68,.71,.9,1.16,.41,.65-.17,.17,.32,.93,1.27,2.01,2.57,3.99,3.99,5.92l.53,.72,.55,.72c.38,.47,.73,.96,1.13,1.42,.4,.47,.79,.93,1.19,1.4,.42,.45,.85,.91,1.27,1.37,.03,.12-.06,.02-.17-.06,.13,.13,.26,.27,.39,.4l.4,.38c.26,.25,.52,.5,.77,.74,.49,.49,1.02,.94,1.56,1.39,.24,.31,.26,.45,.31,.57-.01-.03,.07,.03,.22,.15,.16,.12,.39,.3,.67,.52,.28,.22,.61,.49,.97,.78,.36,.28,.77,.57,1.17,.87,.79,.61,1.66,1.15,2.3,1.58,.16,.11,.31,.2,.44,.29l.36,.21c.2,.12,.32,.19,.33,.2l-.04-.03Z"/>
      </g>
      <g>
        <path class="d" d="M2929.25,0c-.71,.08-1.86,.57-2.81,1.19,.8-.38,1.64-.78,2.81-1.19Z"/>
        <path class="d" d="M3013.79,24.17s.04,.09,.05,.14c0,.05,.03,.1,.04,.15,0-.05-.02-.1-.03-.15,0-.05-.03-.1-.05-.15h-.01Z"/>
        <path class="d" d="M2946.32,32.35l.15-.21c1.05,.09,1.2,.15,1.33,.22s.23,.13,1.22,.16c.39-.13,1.22-.08,2.06-.03,.84,.05,1.7,.07,2.06-.03,0,0,.25,0,.5,0,.26,0,.51,0,.48,.06,.31-.19,1.1-.14,1.78-.3,.24-.09-.19-.02-.38-.05,.52-.09,1.04-.21,1.56-.35,.31-.04,.52-.07,.56-.04,.04,.02-.08,.09-.42,.18,.52-.13,1.29-.31,2.24-.68,.99-.38,2.12-.97,3.23-1.83l.42-.33c.14-.12,.27-.24,.41-.37,.28-.24,.54-.53,.81-.8,.13-.14,.26-.3,.39-.45l.19-.23c.06-.08,.12-.16,.18-.25,.12-.17,.24-.33,.36-.51l.33-.55c.11-.18,.21-.38,.31-.58,.1-.2,.2-.39,.28-.61,.09-.21,.17-.42,.25-.64,.07-.22,.14-.45,.2-.67,.24-.91,.37-1.89,.32-2.88,0-.12-.02-.26-.03-.4s-.03-.28-.05-.41-.04-.27-.07-.4l-.09-.39c-.14-.52-.32-1.01-.54-1.47-.44-.92-1.02-1.72-1.68-2.4-.66-.68-1.41-1.25-2.22-1.68-.81-.44-1.7-.75-2.62-.9-.93-.14-1.89-.13-2.78,.09-.89,.2-1.69,.58-2.31,1-.32,.2-.59,.43-.84,.66s-.46,.46-.65,.67c-.18,.22-.35,.43-.49,.64-.13,.2-.26,.39-.35,.56,.13-.16,.3-.38,.48-.63,.1-.12,.21-.25,.32-.38,.06-.06,.11-.13,.17-.2l.19-.19c.49-.51,1.11-.91,1.49-1.03-.17,.13-.34,.25-.49,.37l-.4,.35c-.13,.11-.23,.21-.34,.32l-.28,.29c-.17,.18-.31,.36-.43,.52s-.2,.33-.28,.49c-.15,.09-.34,.33-.53,.65-.19,.33-.37,.74-.52,1.18-.31,.87-.44,1.82-.61,2.38,.05,.15,.1,.29,.16,.43-.03,.25-.06,.49-.07,.74,.08,.82,.26,1.46,.41,1.93,.15,.45,.28,.76,.38,.99,.21,.45,.27,.59,.33,.7,.06,.11,.09,.22,.27,.57,.09,.18,.22,.42,.41,.74,.19,.32,.46,.72,.83,1.2,.43,.55,.84,.97,1.21,1.32s.7,.64,1,.89c.6,.5,1.11,.89,1.61,1.37-.16-.13-.5-.57,0-.18,0,.09,.35,.34,.72,.61,.37,.26,.78,.52,.86,.68,.13,.09,.33,.23,.56,.38,.23,.15,.47,.32,.69,.44,.45,.25,.76,.39,.52,.12,.23,.29,1.86,1.23,.84,.76,.54,.32,1.09,.62,1.53,.78l-.71-.41c.49,.23,.91,.45,1.32,.62,.2,.09,.39,.18,.58,.26,.18,.08,.37,.15,.55,.22,.36,.13,.69,.26,1.04,.34,.17,.04,.35,.08,.52,.12,.17,.03,.35,.07,.54,.08l-.2-.06-.19-.07-.39-.15c.64,.19,1.26,.29,1.76,.41,.52,.09,.93,.19,1.19,.32l-.71-.06c-.24-.02-.48-.03-.71-.08,.28,.06,.55,.08,.81,.12,.26,.03,.51,.07,.75,.08,.25,0,.48,.02,.71,.02s.46,.02,.68,0c.9-.04,1.75-.16,2.71-.43-.23,.05-.46,.11-.69,.14,.25-.05,.6-.16,1.04-.29,.44-.11,.94-.32,1.5-.53,1.1-.47,2.35-1.2,3.48-2.11s2.14-1.99,2.97-3.03l.04-.05v-.02l.03-.02s.02-.03,.03-.05c.02-.03,.04-.07,.06-.1,.04-.07,.08-.13,.12-.2,.08-.14,.15-.28,.22-.42,.12-.26,.23-.5,.29-.69-.04-.02-.09-.03-.15-.03l.34-.77s-.09,.36-.14,.64c-.05,.29-.09,.54-.1,.51,.06-.1,.15-.26,.27-.46l.04-.08,.02-.04v-.02s.02-.02,.03,0c0,.06-.01,.12-.01,.18,0,.13,0,.27,.02,.41,.04,.29,.12,.62,.27,.94l.12,.24,.08,.15c.04,.08,.09,.16,.14,.24,.1,.16,.19,.33,.29,.48,.4,.64,.85,1.25,1.33,1.83,.97,1.15,2.08,2.17,3.25,2.99,.59,.41,1.18,.78,1.78,1.1s1.19,.59,1.77,.82c2.32,.88,4.22,1.11,5.09,1.2,.18,.03,.31,.05,.41,.08,.1,.02,.17,.03,.22,.05,.09,.03,.07,.06,.01,.08-.06,.02-.16,.05-.26,.06-.09,0-.17,.02-.17,.02,.87,.03,1.06-.02,1.22-.04,.16-.02,.28-.05,1.01-.06,.4,.02-.08,.12-.31,.15,.32-.02,.63,0,.87-.02,.23,0,.4-.03,.42-.07-.8,0-.47-.22-.81-.33,.31,0,.62-.03,.93-.05s.62-.04,.92-.08l-.07,.13c.21-.02,.46-.14,.88-.27,.21-.07,.46-.16,.77-.23,.15-.04,.32-.07,.51-.12,.18-.04,.38-.09,.6-.13,1.47-.32,2.96-.8,4.4-1.41,.36-.15,.72-.3,1.07-.48,.35-.17,.7-.33,1.04-.52,.67-.34,1.4-.75,2.04-1.19,0,.09-.52,.5-1.09,.87,.38-.21,.91-.57,1.27-.75-.35,.16-.09-.04,.19-.25,.28-.22,.58-.44,.32-.29,.84-.81,1.81-1.68,2.68-2.68,.43-.5,.83-1.02,1.17-1.55,.34-.54,.61-1.09,.78-1.62-.02-.04-.07-.16-.15-.34-.08-.18-.2-.43-.34-.7-.29-.55-.72-1.2-1.24-1.71-.25-.25-.54-.47-.8-.65-.28-.17-.53-.3-.78-.39-.23-.09-.44-.14-.6-.16-.16-.03-.26-.03-.3-.02-.04-.25-.14-.5-.15-.59-.03,.05,.02,.2,.05,.36l.1,.48,.17,.03c.05,.33,0,.38-.03,.41-.04,.04-.06,.06-.12,.41-.07,0-.08-.16-.08-.37s-.02-.46-.07-.68c.03,.2,0,.41-.01,.6,0,.09-.03,.18-.02,.26,0,.08,0,.15,.03,.21-.18,.46-.13-.1-.38,.46-.1,.42-.31,1.1-.77,1.57v-.02c-.53,.58-.94,1.08-1.37,1.55s-.9,.91-1.6,1.29c.04-.04,.08-.09,.12-.13-.25,.12-.59,.35-1,.58-.23,.12-.47,.25-.72,.38s-.51,.23-.77,.33c.3-.11,.59-.14,0,.17-.3,.12-.57,.21-.83,.32-.25,.11-.49,.19-.72,.28-.46,.18-.89,.3-1.34,.4-.27,.13-.54,.25-.81,.37-.26,.08-.58,.13-.94,.22-.18,.05-.37,.07-.57,.11-.2,.03-.41,.08-.63,.11-.87,.13-1.9,.22-3,.19-1.1-.02-2.28-.17-3.45-.5l-.44-.13c-.07-.02-.15-.04-.22-.06l-.21-.07c-.28-.1-.55-.21-.83-.34-.55-.25-1.09-.55-1.6-.89-1.03-.68-1.95-1.54-2.68-2.47-.37-.46-.69-.94-.95-1.43l-.09-.16c-.04-.07-.07-.14-.11-.22l-.11-.23-.09-.24-.18-.48-.09-.24c-.03-.07-.05-.18-.07-.26-.04-.18-.08-.36-.13-.54l-.06-.27s-.02-.08-.03-.14v-.18c-.03-.47-.04-.94-.07-1.4-.05-.46-.1-.91-.15-1.35v-.06l-.04-.05-.05-.1-.1-.19-.2-.38-.05-.09s-.03-.04-.05-.06l-.1-.12c-.07-.08-.13-.15-.2-.23l-.1-.11s-.06-.05-.09-.08l-.17-.14c-.44-.36-.74-.48-.88-.59l-.06-.04-.04-.03s-.06-.04-.08-.06l-.04-.05-.02-.02h-.1l-.32,.04c-.05,0-.09,0-.15,.02l-.17,.04,.14-.06c-.14,.03-.29,.07-.44,.1l-.12,.03s-.04,0-.06,.02l-.08,.03-.32,.14c-.11,.05-.22,.1-.34,.15l-.09,.04s-.03,.02-.05,.04l-.05,.05c-.07,.06-.15,.13-.22,.19-.15,.13-.31,.27-.47,.41l-.25,.21s-.04,.05-.06,.08l-.07,.1-.13,.2-.81,1.36c-.28,.44-.56,.89-.85,1.34-.07,.11-.14,.23-.22,.34l-.23,.32c-.15,.21-.31,.43-.46,.64-.16,.21-.31,.44-.47,.65-.08,.1-.16,.21-.25,.31l-.22,.27c-.64,.76-1.34,1.49-2.11,2.1s-1.6,1.09-2.49,1.41c-.89,.31-1.82,.47-2.8,.45-1.96-.03-4.04-.76-5.84-1.77-.9-.5-1.74-1.05-2.5-1.62-.76-.57-1.44-1.13-2.04-1.68-.35-.43-.78-.9-1.16-1.37-.38-.47-.71-.93-.92-1.34,.22,.47,.05,.37-.16,.02-.34-.62-.43-.93-.5-1.09-.06-.17-.08-.18-.1-.2s-.04-.03-.1-.18c-.04-.15-.14-.45-.13-1.06,0-.34,.08-.81,.28-1.25,.1-.21,.23-.41,.38-.57,.15-.15,.33-.29,.5-.36,.09-.03,.18-.06,.29-.07s.22-.01,.35,0c.26,.03,.58,.12,.91,.3,.65,.34,1.27,1.01,1.51,1.66,.07,.16,.1,.32,.13,.47,.02,.08,.02,.15,.03,.22v.29c-.02,.39-.09,.78-.22,1.16-.15,.38-.34,.76-.58,1.11-.25,.35-.52,.67-.82,.96-.59,.58-1.25,1-1.83,1.28-.14,.08-.28,.13-.41,.19l-.19,.08-.2,.07c-.26,.1-.49,.15-.68,.21-.8,.34-1.81,.54-2.88,.62-1.06,.09-2.18,.06-3.18,.09l.2-.04c-.27,0-.7-.01-1.25-.05-.56-.03-1.25-.08-2.01-.14-1.53-.13-3.37-.32-5.16-.63s-3.54-.73-4.93-1.2c-1.4-.46-2.46-.95-3-1.18,.09,.06,.18,.11,.27,.16-.25-.09-.43-.19-.61-.27-.17-.08-.32-.15-.44-.22-.25-.15-.42-.26-.57-.38-.15-.12-.28-.24-.46-.39l-.31-.24c-.11-.1-.24-.2-.4-.32,.02,.15-.35,.01-.76-.25-.11-.06-.22-.13-.33-.2-.11-.08-.21-.16-.31-.23-.2-.15-.39-.29-.51-.41l.05-.02c-.09-.08-.2-.18-.32-.28-.06-.05-.12-.11-.19-.16l-.2-.19-.43-.41c-.14-.15-.29-.31-.44-.47-.6-.65-1.17-1.43-1.55-2.13h.14c-.36-.56-.76-1.43-.99-2.29-.05-.22-.1-.43-.14-.64l-.03-.15-.02-.14c-.01-.1-.03-.19-.04-.28-.02-.18-.04-.35-.05-.5s-.02-.29-.02-.4c0-.52,.06-1.11,.19-1.74,.13-.63,.34-1.29,.62-1.93,.56-1.3,1.43-2.51,2.38-3.39,.51-.26,1.03-.45,1.54-.56,.06-.05,.13-.08,.19-.12l.1-.75c.05-.46,.16-1.05,.17-1.66,.01-.3-.02-.6-.1-.88-.09-.28-.2-.54-.44-.74-.24-.2-.58-.36-1.04-.41-.24-.03-.49,0-.79,.02-.29,.05-.62,.12-.97,.26l.02-.15c-.17,.1-.34,.19-.51,.3-.16,.11-.33,.21-.49,.33-.6,.37-.96,.73-1.2,.95-.23,.22-.32,.33-.33,.25,.46-.43,.95-.84,1.48-1.2-.3,.19-.46,.31-.54,.36-.08,.05-.09,.04-.04-.02,.05-.05,.14-.15,.25-.25s.24-.21,.34-.3c-.5,.32-.96,.68-1.33,.96-.18,.22,.19-.1,.37-.22-.56,.52-1.2,1.34-1.79,2.01-.43,.55-.47,.55-.54,.56-.07,.02-.17,.05-.6,.74-.56,.92-1.01,1.89-1.34,2.9-.34,1-.57,2.05-.69,3.1-.12,1.06-.11,2.14,.01,3.22l.06,.41,.03,.2,.04,.19,.16,.77c.05,.26,.13,.51,.2,.76,.08,.25,.14,.51,.23,.75,.69,1.96,1.72,3.78,3,5.33,.63,.79,1.34,1.5,2.06,2.19l.56,.49,.28,.24,.29,.23,.59,.46,.61,.43c.12,.15-.06,.02-.26-.09,.5,.35,1,.65,1.49,.95,.5,.28,.98,.56,1.48,.8,.5,.26,.99,.47,1.47,.68,.25,.1,.49,.2,.74,.29,.25,.1,.5,.19,.75,.27,.53,.25,.66,.38,.81,.48-.07-.06,.58,.16,1.61,.44s2.44,.6,3.86,.84c1.42,.25,2.84,.42,3.91,.54,1.07,.11,1.8,.18,1.84,.19l-.03,.06Z"/>
      </g>
    </g>
  </g>
</svg>