<?xml version="1.0" encoding="UTF-8"?>
<svg id="b" data-name="圖層 2" xmlns="http://www.w3.org/2000/svg" width="457.52" height="23.82" viewBox="0 0 457.52 23.82">
  <defs>
    <style>
      .d {
        fill: #0d131a;
      }
    </style>
  </defs>
  <g id="c" data-name="b">
    <g>
      <path class="d" d="M0,23.46V.36H11.58c1.52,0,2.85,.31,4.01,.92,1.16,.62,2.07,1.47,2.74,2.56,.67,1.09,1.01,2.35,1.01,3.78s-.34,2.58-1.01,3.66-1.59,1.92-2.76,2.54c-1.17,.62-2.5,.92-3.99,.92H4.78v8.71H0ZM4.78,10.79h6.27c1.03,0,1.86-.29,2.49-.86s.94-1.33,.94-2.28-.31-1.74-.94-2.31c-.63-.57-1.46-.86-2.49-.86H4.78v6.3h0Z"/>
      <path class="d" d="M23.3,23.46V.36h11.29c1.56,0,2.94,.3,4.14,.91,1.2,.61,2.14,1.45,2.82,2.52,.68,1.08,1.02,2.32,1.02,3.73s-.41,2.77-1.24,3.89c-.82,1.12-1.92,1.96-3.28,2.51l5.11,9.54h-5.35l-4.52-8.84h-5.21v8.84h-4.78Zm4.78-12.77h6.07c1.08,0,1.94-.29,2.59-.86s.97-1.32,.97-2.24-.32-1.67-.97-2.24c-.65-.57-1.51-.86-2.59-.86h-6.07v6.2Z"/>
      <path class="d" d="M57.85,23.82c-1.72,0-3.31-.3-4.79-.91-1.47-.6-2.77-1.45-3.88-2.54s-1.98-2.35-2.61-3.79-.94-3-.94-4.67,.31-3.23,.94-4.67c.63-1.44,1.5-2.71,2.61-3.79s2.4-1.94,3.88-2.54c1.47-.6,3.07-.91,4.79-.91s3.32,.3,4.8,.91,2.78,1.45,3.89,2.54,1.97,2.35,2.59,3.79c.62,1.44,.92,3,.92,4.67s-.31,3.23-.92,4.67c-.62,1.44-1.48,2.71-2.59,3.79-1.11,1.09-2.41,1.94-3.89,2.54-1.49,.61-3.09,.91-4.8,.91Zm0-4.39c1.06,0,2.02-.19,2.9-.58s1.65-.91,2.31-1.58,1.18-1.47,1.55-2.39,.56-1.91,.56-2.97-.19-2.07-.56-2.99c-.37-.91-.89-1.71-1.55-2.38s-1.43-1.2-2.31-1.58-1.85-.58-2.9-.58-1.99,.19-2.87,.58c-.88,.39-1.65,.91-2.31,1.58s-1.18,1.46-1.55,2.38c-.37,.91-.56,1.9-.56,2.95s.19,2.08,.56,3c.37,.92,.89,1.72,1.55,2.39s1.43,1.2,2.31,1.58,1.84,.58,2.87,.58h0Z"/>
      <path class="d" d="M74.18,23.46V.36h17.85V4.52h-13.07v5.45h8.68v4.03h-8.68v9.47h-4.78Z"/>
      <path class="d" d="M96.1,23.46V.36h17.75V4.52h-12.97v5.28h8.55v4.03h-8.55v5.48h13.1v4.16h-17.88Z"/>
      <path class="d" d="M126.46,23.79c-1.87,0-3.7-.35-5.48-1.04-1.78-.69-3.37-1.68-4.75-2.95l2.74-3.43c1.34,1.17,2.63,2.02,3.88,2.56,1.24,.54,2.56,.81,3.94,.81,.97,0,1.8-.12,2.51-.35,.7-.23,1.25-.57,1.63-1.01s.58-.96,.58-1.55c0-.79-.29-1.4-.86-1.83s-1.55-.76-2.94-1.01l-4.59-.79c-1.96-.33-3.45-1.02-4.47-2.08-1.02-1.06-1.53-2.42-1.53-4.09,0-1.43,.37-2.67,1.11-3.73s1.78-1.86,3.13-2.43c1.35-.56,2.96-.84,4.83-.84,1.69,0,3.38,.29,5.07,.86,1.68,.57,3.17,1.36,4.47,2.38l-2.57,3.56c-2.42-1.85-4.85-2.77-7.29-2.77-.86,0-1.61,.11-2.24,.33-.64,.22-1.13,.52-1.47,.91-.34,.38-.51,.84-.51,1.37,0,.7,.25,1.25,.76,1.63s1.35,.68,2.54,.87l4.36,.73c2.31,.38,4.04,1.11,5.18,2.2s1.72,2.52,1.72,4.31c0,1.5-.4,2.8-1.19,3.91-.79,1.11-1.92,1.97-3.38,2.57s-3.18,.91-5.16,.91h-.02Z"/>
      <path class="d" d="M148.43,23.79c-1.87,0-3.7-.35-5.48-1.04-1.78-.69-3.37-1.68-4.75-2.95l2.74-3.43c1.34,1.17,2.63,2.02,3.88,2.56,1.24,.54,2.56,.81,3.94,.81,.97,0,1.8-.12,2.51-.35,.7-.23,1.25-.57,1.63-1.01s.58-.96,.58-1.55c0-.79-.29-1.4-.86-1.83s-1.55-.76-2.94-1.01l-4.59-.79c-1.96-.33-3.45-1.02-4.47-2.08s-1.53-2.42-1.53-4.09c0-1.43,.37-2.67,1.11-3.73s1.78-1.86,3.13-2.43c1.35-.56,2.96-.84,4.83-.84,1.69,0,3.38,.29,5.07,.86,1.68,.57,3.17,1.36,4.47,2.38l-2.57,3.56c-2.42-1.85-4.85-2.77-7.29-2.77-.86,0-1.61,.11-2.24,.33-.64,.22-1.13,.52-1.47,.91-.34,.38-.51,.84-.51,1.37,0,.7,.25,1.25,.76,1.63s1.35,.68,2.54,.87l4.36,.73c2.31,.38,4.04,1.11,5.18,2.2s1.72,2.52,1.72,4.31c0,1.5-.4,2.8-1.19,3.91-.79,1.11-1.92,1.97-3.38,2.57s-3.18,.91-5.16,.91h-.02Z"/>
      <path class="d" d="M161.83,23.46V.36h4.78V23.46h-4.78Z"/>
      <path class="d" d="M182.95,23.82c-1.72,0-3.31-.3-4.79-.91-1.47-.6-2.77-1.45-3.88-2.54s-1.98-2.35-2.61-3.79-.94-3-.94-4.67,.31-3.23,.94-4.67,1.5-2.71,2.61-3.79,2.4-1.94,3.88-2.54c1.47-.6,3.07-.91,4.79-.91s3.32,.3,4.8,.91,2.78,1.45,3.89,2.54,1.97,2.35,2.59,3.79,.92,3,.92,4.67-.31,3.23-.92,4.67c-.62,1.44-1.48,2.71-2.59,3.79-1.11,1.09-2.41,1.94-3.89,2.54-1.49,.61-3.09,.91-4.8,.91Zm0-4.39c1.06,0,2.02-.19,2.9-.58s1.65-.91,2.31-1.58,1.18-1.47,1.55-2.39c.37-.92,.56-1.91,.56-2.97s-.19-2.07-.56-2.99c-.37-.91-.89-1.71-1.55-2.38s-1.43-1.2-2.31-1.58-1.85-.58-2.9-.58-1.99,.19-2.87,.58c-.88,.39-1.65,.91-2.31,1.58s-1.18,1.46-1.55,2.38c-.37,.91-.56,1.9-.56,2.95s.19,2.08,.56,3,.89,1.72,1.55,2.39,1.43,1.2,2.31,1.58,1.84,.58,2.87,.58h0Z"/>
      <path class="d" d="M199.28,23.46V.36h4.55l11.48,14.92V.36h4.49V23.46h-4.22l-11.78-15.44v15.44h-4.52Z"/>
      <path class="d" d="M222.62,23.46L232.12,.36h5.51l9.41,23.1h-5.18l-2.34-6.07h-9.54l-2.38,6.07h-4.98Zm8.84-9.9h6.6l-3.3-8.51-3.3,8.51Z"/>
      <path class="d" d="M249.81,23.46V.36h4.78V19.24h12.64v4.22h-17.42Z"/>
      <path class="d" d="M278.81,23.46V.36h4.55l11.48,14.92V.36h4.49V23.46h-4.22l-11.78-15.44v15.44h-4.52Z"/>
      <path class="d" d="M304.35,23.46V.36h17.75V4.52h-12.97v5.28h8.55v4.03h-8.55v5.48h13.1v4.16h-17.88Z"/>
      <path class="d" d="M324.62,23.46L334.12,.36h5.51l9.41,23.1h-5.18l-2.34-6.07h-9.54l-2.38,6.07h-4.98Zm8.84-9.9h6.6l-3.3-8.51-3.3,8.51h0Z"/>
      <path class="d" d="M353.85,23.46V4.58h-7.79V.36h20.33V4.58h-7.75V23.46h-4.79Z"/>
      <path class="d" d="M369.89,23.46V.36h4.55l11.48,14.92V.36h4.49V23.46h-4.22l-11.78-15.44v15.44h-4.52Z"/>
      <path class="d" d="M395.43,23.46V.36h17.75V4.52h-12.97v5.28h8.55v4.03h-8.55v5.48h13.1v4.16h-17.88Z"/>
      <path class="d" d="M425.79,23.79c-1.87,0-3.7-.35-5.48-1.04-1.78-.69-3.37-1.68-4.75-2.95l2.74-3.43c1.34,1.17,2.63,2.02,3.88,2.56,1.24,.54,2.56,.81,3.94,.81,.97,0,1.8-.12,2.51-.35,.7-.23,1.25-.57,1.63-1.01s.58-.96,.58-1.55c0-.79-.29-1.4-.86-1.83-.57-.43-1.55-.76-2.94-1.01l-4.59-.79c-1.96-.33-3.45-1.02-4.47-2.08s-1.53-2.42-1.53-4.09c0-1.43,.37-2.67,1.11-3.73s1.78-1.86,3.13-2.43c1.35-.56,2.96-.84,4.83-.84,1.69,0,3.38,.29,5.07,.86,1.68,.57,3.17,1.36,4.47,2.38l-2.57,3.56c-2.42-1.85-4.85-2.77-7.29-2.77-.86,0-1.61,.11-2.24,.33-.64,.22-1.13,.52-1.47,.91-.34,.38-.51,.84-.51,1.37,0,.7,.25,1.25,.76,1.63s1.35,.68,2.54,.87l4.36,.73c2.31,.38,4.04,1.11,5.18,2.2,1.14,1.09,1.72,2.52,1.72,4.31,0,1.5-.4,2.8-1.19,3.91s-1.92,1.97-3.38,2.57-3.18,.91-5.16,.91h-.02Z"/>
      <path class="d" d="M447.77,23.79c-1.87,0-3.7-.35-5.48-1.04-1.78-.69-3.37-1.68-4.75-2.95l2.74-3.43c1.34,1.17,2.63,2.02,3.88,2.56,1.24,.54,2.56,.81,3.94,.81,.97,0,1.8-.12,2.51-.35,.7-.23,1.25-.57,1.63-1.01s.58-.96,.58-1.55c0-.79-.29-1.4-.86-1.83-.57-.43-1.55-.76-2.94-1.01l-4.59-.79c-1.96-.33-3.45-1.02-4.47-2.08s-1.53-2.42-1.53-4.09c0-1.43,.37-2.67,1.11-3.73s1.78-1.86,3.13-2.43c1.35-.56,2.96-.84,4.83-.84,1.69,0,3.38,.29,5.07,.86,1.68,.57,3.17,1.36,4.47,2.38l-2.57,3.56c-2.42-1.85-4.85-2.77-7.29-2.77-.86,0-1.61,.11-2.24,.33-.64,.22-1.13,.52-1.47,.91-.34,.38-.51,.84-.51,1.37,0,.7,.25,1.25,.76,1.63s1.35,.68,2.54,.87l4.36,.73c2.31,.38,4.04,1.11,5.18,2.2,1.14,1.09,1.72,2.52,1.72,4.31,0,1.5-.4,2.8-1.19,3.91s-1.92,1.97-3.38,2.57-3.18,.91-5.16,.91h-.02Z"/>
    </g>
  </g>
</svg>