<?xml version="1.0" encoding="UTF-8"?>
<svg id="uuid-8b206eb5-5ae9-40f5-8556-25f039f12aac" data-name="圖層 2" xmlns="http://www.w3.org/2000/svg" width="403.55" height="294.64" viewBox="0 0 403.55 294.64">
  <defs>
    <style>
      .uuid-76c908a8-e67d-453e-a64a-b835b6e3d23d {
        fill: #ecae4b;
      }

      .uuid-bb588003-0e23-4944-b35c-027f463042c1 {
        fill: #0d131a;
      }
    </style>
  </defs>
  <g id="uuid-10ee8ab7-05f1-4ff9-86bf-463298357ac2" data-name="layout">
    <g>
      <path class="uuid-bb588003-0e23-4944-b35c-027f463042c1" d="M75.87,114.73v-31.5h12.78c2.34,0,4.51,.41,6.53,1.22,2.01,.81,3.77,1.94,5.29,3.38,1.51,1.44,2.7,3.12,3.55,5.04,.86,1.92,1.28,3.99,1.28,6.21s-.43,4.23-1.28,6.12c-.86,1.89-2.04,3.55-3.55,4.97-1.52,1.43-3.28,2.54-5.29,3.35-2.01,.81-4.19,1.21-6.53,1.21h-12.78Zm7.74-6.84h4.86c1.23,0,2.38-.22,3.44-.67s2-1.08,2.81-1.89c.81-.81,1.44-1.75,1.89-2.81,.45-1.06,.68-2.21,.68-3.44s-.23-2.44-.68-3.53c-.45-1.09-1.08-2.05-1.89-2.86-.81-.81-1.75-1.45-2.81-1.91s-2.21-.7-3.44-.7h-4.86v17.82Z"/>
      <path class="uuid-bb588003-0e23-4944-b35c-027f463042c1" d="M110.52,114.73v-31.5h24.84v6.71h-17.1v5.67h11.29v6.48h-11.29v5.94h17.28v6.71h-25.02Z"/>
      <path class="uuid-bb588003-0e23-4944-b35c-027f463042c1" d="M141.21,114.73v-31.5h7.74v24.66h16.61v6.84h-24.35Z"/>
      <path class="uuid-bb588003-0e23-4944-b35c-027f463042c1" d="M171,114.73v-31.5h7.74v31.5h-7.74Z"/>
      <path class="uuid-bb588003-0e23-4944-b35c-027f463042c1" d="M200.88,115.18c-2.4,0-4.63-.41-6.68-1.24-2.06-.83-3.85-1.97-5.38-3.44-1.53-1.47-2.72-3.19-3.58-5.15-.86-1.96-1.28-4.09-1.28-6.37s.43-4.45,1.28-6.41c.85-1.96,2.05-3.68,3.6-5.15s3.34-2.62,5.4-3.44c2.05-.82,4.27-1.24,6.64-1.24,1.74,0,3.45,.26,5.13,.77,1.68,.51,3.23,1.22,4.66,2.14,1.43,.92,2.62,2,3.58,3.26l-5.22,5.13c-1.11-1.41-2.35-2.46-3.71-3.15-1.37-.69-2.84-1.04-4.43-1.04-1.26,0-2.44,.23-3.53,.7-1.09,.47-2.05,1.1-2.86,1.91-.81,.81-1.44,1.77-1.89,2.88-.45,1.11-.68,2.33-.68,3.64s.23,2.48,.7,3.58c.46,1.1,1.11,2.06,1.94,2.88,.82,.83,1.8,1.46,2.93,1.91s2.35,.67,3.67,.67c1.53,0,2.95-.33,4.25-.99,1.3-.66,2.48-1.63,3.53-2.93l5.09,5c-.96,1.23-2.15,2.3-3.55,3.22-1.41,.92-2.94,1.62-4.59,2.12-1.65,.49-3.32,.74-5,.74Z"/>
      <path class="uuid-bb588003-0e23-4944-b35c-027f463042c1" d="M218.43,114.73v-31.5h7.74v31.5h-7.74Z"/>
      <path class="uuid-bb588003-0e23-4944-b35c-027f463042c1" d="M248.22,115.23c-2.37,0-4.57-.41-6.62-1.24-2.04-.83-3.82-1.98-5.36-3.46-1.53-1.49-2.72-3.21-3.58-5.18-.86-1.96-1.28-4.09-1.28-6.37s.43-4.4,1.28-6.37c.85-1.96,2.05-3.69,3.58-5.17,1.53-1.49,3.31-2.64,5.36-3.47,2.04-.82,4.24-1.24,6.62-1.24s4.57,.41,6.62,1.24c2.04,.83,3.82,1.98,5.36,3.47,1.53,1.48,2.72,3.21,3.58,5.17,.86,1.96,1.28,4.09,1.28,6.37s-.43,4.4-1.28,6.37c-.85,1.97-2.05,3.69-3.58,5.18-1.53,1.48-3.32,2.64-5.36,3.46-2.04,.82-4.25,1.24-6.62,1.24Zm0-7.11c1.26,0,2.43-.23,3.51-.7,1.08-.46,2.02-1.1,2.81-1.91,.79-.81,1.42-1.78,1.87-2.9,.45-1.12,.68-2.33,.68-3.62s-.22-2.53-.68-3.64c-.45-1.11-1.07-2.07-1.87-2.88-.79-.81-1.73-1.45-2.81-1.91-1.08-.46-2.25-.7-3.51-.7s-2.43,.23-3.51,.7c-1.08,.47-2.02,1.1-2.81,1.91-.79,.81-1.42,1.77-1.87,2.88-.45,1.11-.68,2.31-.68,3.6s.22,2.54,.68,3.67c.45,1.12,1.07,2.09,1.87,2.9,.79,.81,1.73,1.45,2.81,1.91,1.08,.47,2.25,.7,3.51,.7Z"/>
      <path class="uuid-bb588003-0e23-4944-b35c-027f463042c1" d="M284.13,115.18c-2.91,0-5.44-.58-7.58-1.73-2.15-1.15-3.8-2.8-4.97-4.93-1.17-2.13-1.76-4.63-1.76-7.51v-17.78h7.74v17.78c0,1.41,.27,2.65,.81,3.71,.54,1.06,1.31,1.88,2.32,2.45,1.01,.57,2.17,.85,3.49,.85s2.51-.28,3.49-.85c.97-.57,1.73-1.39,2.27-2.45,.54-1.06,.81-2.3,.81-3.71v-17.78h7.74v17.78c0,2.85-.59,5.34-1.78,7.47-1.19,2.13-2.85,3.78-5,4.95s-4.67,1.75-7.58,1.75Z"/>
      <path class="uuid-bb588003-0e23-4944-b35c-027f463042c1" d="M315.99,115.18c-2.55,0-5.07-.46-7.56-1.4-2.49-.93-4.71-2.22-6.66-3.87l4.32-5.62c1.92,1.56,3.69,2.68,5.31,3.35,1.62,.67,3.34,1.01,5.17,1.01,1.2,0,2.22-.12,3.06-.36s1.48-.59,1.94-1.06c.45-.46,.67-1.01,.67-1.64,0-.87-.33-1.54-.99-2.02-.66-.48-1.79-.85-3.38-1.12l-6.93-1.22c-2.55-.45-4.52-1.42-5.89-2.92-1.38-1.5-2.07-3.4-2.07-5.71,0-2.04,.52-3.79,1.55-5.27,1.04-1.47,2.52-2.59,4.46-3.38,1.94-.78,4.24-1.17,6.91-1.17,2.34,0,4.7,.4,7.06,1.19,2.37,.8,4.43,1.9,6.17,3.31l-4.1,5.71c-3.24-2.49-6.46-3.73-9.68-3.73-1.05,0-1.96,.11-2.72,.34-.76,.23-1.35,.54-1.75,.94-.41,.41-.61,.89-.61,1.46,0,.78,.29,1.38,.88,1.8,.59,.42,1.54,.75,2.86,.99l6.53,1.08c3.03,.48,5.33,1.48,6.91,3.01,1.57,1.53,2.36,3.51,2.36,5.94,0,2.13-.55,3.97-1.66,5.51-1.11,1.55-2.7,2.74-4.77,3.58-2.07,.84-4.53,1.26-7.38,1.26Z"/>
      <path class="uuid-bb588003-0e23-4944-b35c-027f463042c1" d="M16.88,164.99c-2.37,0-4.57-.41-6.62-1.24s-3.83-1.98-5.38-3.47c-1.54-1.48-2.75-3.21-3.6-5.17-.86-1.96-1.28-4.09-1.28-6.37s.43-4.4,1.28-6.37c.85-1.96,2.04-3.69,3.55-5.18,1.51-1.48,3.29-2.64,5.33-3.46,2.04-.82,4.23-1.24,6.57-1.24,2.67,0,5.19,.55,7.56,1.64,2.37,1.1,4.3,2.6,5.8,4.52l-5.45,4.9c-1.02-1.32-2.2-2.31-3.53-2.97-1.33-.66-2.8-.99-4.39-.99-1.26,0-2.42,.23-3.49,.7-1.06,.47-1.99,1.1-2.79,1.91-.79,.81-1.41,1.77-1.85,2.88-.44,1.11-.65,2.33-.65,3.65s.22,2.54,.68,3.67c.45,1.12,1.09,2.1,1.91,2.93,.82,.83,1.79,1.47,2.88,1.94,1.09,.47,2.29,.7,3.58,.7s2.35-.21,3.35-.63c1-.42,1.87-1,2.59-1.75,.72-.75,1.23-1.6,1.53-2.57H15.97v-6.7h16.88v2.25c0,2.37-.4,4.55-1.19,6.55-.79,2-1.91,3.74-3.33,5.22-1.43,1.49-3.11,2.63-5.06,3.44-1.95,.81-4.08,1.22-6.39,1.22Z"/>
      <path class="uuid-bb588003-0e23-4944-b35c-027f463042c1" d="M53.78,164.99c-2.37,0-4.58-.41-6.62-1.24-2.04-.82-3.83-1.98-5.36-3.47-1.53-1.48-2.72-3.21-3.58-5.17-.86-1.96-1.28-4.09-1.28-6.37s.43-4.4,1.28-6.37c.86-1.96,2.05-3.69,3.58-5.18,1.53-1.48,3.31-2.64,5.36-3.46,2.04-.82,4.24-1.24,6.62-1.24s4.57,.41,6.61,1.24c2.04,.83,3.83,1.98,5.36,3.46,1.53,1.49,2.72,3.21,3.58,5.18,.86,1.97,1.28,4.09,1.28,6.37s-.43,4.4-1.28,6.37c-.86,1.97-2.05,3.69-3.58,5.17-1.53,1.49-3.31,2.64-5.36,3.47-2.04,.82-4.24,1.24-6.61,1.24Zm0-7.11c1.26,0,2.43-.23,3.51-.7,1.08-.46,2.02-1.1,2.81-1.91,.79-.81,1.42-1.78,1.87-2.9,.45-1.12,.67-2.33,.67-3.62s-.22-2.54-.67-3.65c-.45-1.11-1.07-2.07-1.87-2.88-.8-.81-1.73-1.45-2.81-1.91-1.08-.46-2.25-.7-3.51-.7s-2.43,.23-3.51,.7c-1.08,.47-2.02,1.1-2.81,1.91-.79,.81-1.42,1.77-1.87,2.88-.45,1.11-.67,2.31-.67,3.6s.22,2.54,.67,3.67c.45,1.12,1.07,2.09,1.87,2.9,.79,.81,1.73,1.45,2.81,1.91,1.08,.47,2.25,.7,3.51,.7Z"/>
      <path class="uuid-bb588003-0e23-4944-b35c-027f463042c1" d="M75.82,164.49v-31.5h7.74v24.66h16.61v6.84h-24.35Z"/>
      <path class="uuid-bb588003-0e23-4944-b35c-027f463042c1" d="M105.62,164.49v-31.5h12.78c2.34,0,4.51,.4,6.53,1.21,2.01,.81,3.77,1.93,5.29,3.38,1.51,1.44,2.7,3.12,3.55,5.04s1.28,3.99,1.28,6.21-.43,4.23-1.28,6.12c-.86,1.89-2.04,3.55-3.55,4.97-1.52,1.42-3.28,2.54-5.29,3.35-2.01,.81-4.19,1.22-6.53,1.22h-12.78Zm7.74-6.84h4.86c1.23,0,2.38-.23,3.44-.67,1.06-.45,2-1.08,2.81-1.89,.81-.81,1.44-1.75,1.89-2.81,.45-1.06,.68-2.21,.68-3.44s-.23-2.44-.68-3.53-1.08-2.05-1.89-2.86c-.81-.81-1.75-1.45-2.81-1.91-1.06-.46-2.21-.7-3.44-.7h-4.86v17.82Z"/>
      <path class="uuid-bb588003-0e23-4944-b35c-027f463042c1" d="M140.26,164.49v-31.5h24.84v6.71h-17.1v5.67h11.29v6.48h-11.29v5.94h17.28v6.71h-25.02Z"/>
      <path class="uuid-bb588003-0e23-4944-b35c-027f463042c1" d="M170.95,164.49v-31.5h7.29l14.31,18.27v-18.27h7.29v31.5h-6.84l-14.76-18.99v18.99h-7.29Z"/>
      <path class="uuid-bb588003-0e23-4944-b35c-027f463042c1" d="M216.09,164.49v-31.5h15.61c2.16,0,4.06,.38,5.69,1.12s2.92,1.79,3.85,3.13c.93,1.34,1.39,2.87,1.39,4.61,0,1.29-.32,2.5-.97,3.62-.65,1.12-1.52,2.08-2.63,2.86,1.41,.75,2.53,1.73,3.35,2.92,.83,1.2,1.24,2.52,1.24,3.96,0,1.83-.46,3.44-1.39,4.84-.93,1.39-2.24,2.48-3.92,3.26s-3.63,1.17-5.85,1.17h-16.38Zm7.74-18.95h7.38c1.14,0,2.04-.28,2.7-.85,.66-.57,.99-1.32,.99-2.25s-.33-1.72-.99-2.27c-.66-.55-1.56-.83-2.7-.83h-7.38v6.21Zm0,12.6h8.06c1.2,0,2.15-.3,2.86-.9,.7-.6,1.06-1.41,1.06-2.43s-.35-1.83-1.06-2.43c-.71-.6-1.66-.9-2.86-.9h-8.06v6.66Z"/>
      <path class="uuid-bb588003-0e23-4944-b35c-027f463042c1" d="M262.8,164.94c-2.91,0-5.44-.58-7.58-1.73-2.15-1.15-3.8-2.8-4.97-4.93s-1.76-4.64-1.76-7.52v-17.77h7.74v17.77c0,1.41,.27,2.65,.81,3.71,.54,1.07,1.31,1.88,2.32,2.45,1.01,.57,2.17,.86,3.49,.86s2.51-.29,3.49-.86c.97-.57,1.73-1.39,2.27-2.45,.54-1.06,.81-2.3,.81-3.71v-17.77h7.74v17.77c0,2.85-.59,5.34-1.78,7.47-1.19,2.13-2.85,3.78-5,4.95-2.14,1.17-4.67,1.75-7.58,1.75Z"/>
      <path class="uuid-bb588003-0e23-4944-b35c-027f463042c1" d="M283.05,164.49v-31.5h15.61c2.16,0,4.06,.38,5.69,1.12s2.92,1.79,3.85,3.13c.93,1.34,1.39,2.87,1.39,4.61,0,1.29-.32,2.5-.97,3.62-.65,1.12-1.52,2.08-2.63,2.86,1.41,.75,2.53,1.73,3.35,2.92,.83,1.2,1.24,2.52,1.24,3.96,0,1.83-.46,3.44-1.39,4.84-.93,1.39-2.24,2.48-3.92,3.26s-3.63,1.17-5.85,1.17h-16.38Zm7.74-18.95h7.38c1.14,0,2.04-.28,2.7-.85,.66-.57,.99-1.32,.99-2.25s-.33-1.72-.99-2.27c-.66-.55-1.56-.83-2.7-.83h-7.38v6.21Zm0,12.6h8.06c1.2,0,2.15-.3,2.86-.9,.7-.6,1.06-1.41,1.06-2.43s-.35-1.83-1.06-2.43c-.71-.6-1.66-.9-2.86-.9h-8.06v6.66Z"/>
      <path class="uuid-bb588003-0e23-4944-b35c-027f463042c1" d="M315.9,164.49v-31.5h15.61c2.16,0,4.06,.38,5.69,1.12s2.92,1.79,3.85,3.13c.93,1.34,1.39,2.87,1.39,4.61,0,1.29-.32,2.5-.97,3.62-.65,1.12-1.52,2.08-2.63,2.86,1.41,.75,2.53,1.73,3.35,2.92,.83,1.2,1.24,2.52,1.24,3.96,0,1.83-.46,3.44-1.39,4.84-.93,1.39-2.24,2.48-3.92,3.26s-3.63,1.17-5.85,1.17h-16.38Zm7.74-18.95h7.38c1.14,0,2.04-.28,2.7-.85,.66-.57,.99-1.32,.99-2.25s-.33-1.72-.99-2.27c-.66-.55-1.56-.83-2.7-.83h-7.38v6.21Zm0,12.6h8.06c1.2,0,2.15-.3,2.86-.9,.7-.6,1.06-1.41,1.06-2.43s-.35-1.83-1.06-2.43c-.71-.6-1.66-.9-2.86-.9h-8.06v6.66Z"/>
      <path class="uuid-bb588003-0e23-4944-b35c-027f463042c1" d="M348.75,164.49v-31.5h7.74v24.66h16.61v6.84h-24.34Z"/>
      <path class="uuid-bb588003-0e23-4944-b35c-027f463042c1" d="M378.54,164.49v-31.5h24.84v6.71h-17.1v5.67h11.29v6.48h-11.29v5.94h17.28v6.71h-25.02Z"/>
    </g>
    <g>
      <path class="uuid-bb588003-0e23-4944-b35c-027f463042c1" d="M149.15,206.58c3.84,1.34,8.89,3.3,11.55,4.7l-1.79,3.26c-2.82-1.6-8.67-4.06-12.8-5.57l1.44-2.4h-1.15c-1.54,3.94-4.96,6.46-13.5,7.87-.26-1.02-1.15-2.62-1.89-3.42,6.43-.86,9.44-2.3,10.94-4.45h-9.54v-3.23h10.78c.1-.51,.19-1.09,.26-1.66h-11.78v-3.3h12.29v-1.7h-9.47v-3.2h9.47v-1.63h-11.29v-3.36h6.08c-.48-.96-1.15-1.98-1.79-2.82l3.39-1.34c.99,1.12,1.98,2.66,2.4,3.74l-.93,.42h7.04c.8-1.25,1.76-2.91,2.27-4.16l4.1,1.06c-.71,1.12-1.44,2.18-2.14,3.1h6.14v3.36h-11.33v1.63h9.79v3.2h-9.79v1.7h12.73v3.3h-13.15c-.06,.58-.16,1.12-.26,1.66h12.48v3.23h-10.56Z"/>
      <path class="uuid-bb588003-0e23-4944-b35c-027f463042c1" d="M172,206.49v2.56h-3.49v-21.66h9.6v19.1h-6.11Zm0-15.45v11.74h2.69v-11.74h-2.69Zm18.65,9.57c1.66,3.49,4.26,6.91,7.01,8.83-.86,.74-2.14,2.14-2.82,3.17-1.89-1.7-3.65-4.16-5.15-6.91v8.74h-3.84v-8.96c-1.82,2.94-4.1,5.44-6.69,7.07-.58-.9-1.76-2.27-2.59-3.01,3.46-1.79,6.46-5.22,8.25-8.93h-5.86v-3.62h6.88v-3.97h-5.86v-3.62h5.86v-4.54h3.84v4.54h6.56v3.62h-6.56v3.97h7.58v3.62h-6.62Z"/>
      <path class="uuid-bb588003-0e23-4944-b35c-027f463042c1" d="M215.58,208.28c-3.71,1.09-7.71,2.14-10.88,3.04l-.7-3.65c1.12-.22,2.43-.54,3.87-.9v-7.68h-3.46v-3.49h3.46v-5.63h-3.68v-3.55h10.91v3.55h-3.68v5.63h2.91v3.49h-2.91v6.75l3.71-.99,.45,3.42Zm10.94-22.78c-.19,.45-.42,.93-.64,1.34,2.24,2.72,5.79,5.41,8.99,6.98-.89,.67-2.11,2.08-2.72,3.07-2.72-1.66-5.7-4.32-8.06-7.1-2.18,3.07-5.02,5.57-8.38,7.46-.51-.8-1.73-2.18-2.5-2.82,4.42-2.21,8.06-5.98,9.86-9.98l3.46,1.06Zm6.59,17.95c-3.2,5.73-8.77,9.09-15.81,11.04-.45-1.02-1.34-2.37-2.21-3.3,6.49-1.41,11.94-4.26,14.62-9.09l3.39,1.34Zm-6.4-8.58c-2.02,2.59-5.09,4.96-7.87,6.43-.54-.74-1.5-1.86-2.4-2.53,2.62-1.15,5.73-3.14,7.33-5.15l2.95,1.25Zm3.23,4.06c-2.69,3.81-6.88,6.94-11.1,8.93-.51-.86-1.5-2.05-2.4-2.82,3.97-1.54,8.19-4.32,10.37-7.49l3.13,1.38Z"/>
      <path class="uuid-bb588003-0e23-4944-b35c-027f463042c1" d="M251.84,208.37c-3.62,1.02-7.52,2.08-10.59,2.94l-.7-3.65c1.12-.26,2.43-.58,3.87-.9v-7.68h-3.49v-3.49h3.49v-5.63h-3.71v-3.55h11.01v3.55h-3.68v5.63h3.14v3.49h-3.14v6.72c1.12-.29,2.21-.58,3.33-.9l.48,3.46Zm12.45-7.01c1.66,3.3,4.26,6.56,6.85,8.42-.8,.7-2.05,2.05-2.69,2.98-2.02-1.79-3.94-4.54-5.5-7.55v9.25h-3.65v-9.09c-1.86,3.2-4.32,5.98-7.01,7.78-.58-.9-1.73-2.24-2.5-2.91,3.26-1.82,6.24-5.25,8.06-8.86h-6.08v-3.42h7.52v-4.38h-3.26c-.54,1.44-1.15,2.78-1.86,3.84-.61-.54-2.14-1.47-2.98-1.92,1.63-2.21,2.56-5.79,3.04-9.34l3.46,.61c-.19,1.15-.38,2.27-.64,3.39h2.24v-5.5h3.65v5.5h6.05v3.42h-6.05v4.38h7.46v3.42h-6.11Z"/>
    </g>
    <g>
      <path class="uuid-76c908a8-e67d-453e-a64a-b835b6e3d23d" d="M121.63,265.3l2.77,16.82c.15,.93,.81,1.69,1.71,1.97,22.4,6.87,49.18,10.56,76.82,10.56s54.45-3.72,76.85-10.6c.89-.27,1.55-1.04,1.7-1.96l2.82-16.79c.18-1.09-.85-1.98-1.9-1.64-22.97,7.41-50.58,11.44-79.46,11.44s-56.4-3.91-79.38-11.43c-1.06-.35-2.09,.54-1.91,1.64Z"/>
      <path class="uuid-76c908a8-e67d-453e-a64a-b835b6e3d23d" d="M81.18,17.6c.17,1.04,.97,1.86,2.01,2.04,30.77,5.2,73.47,8.42,120.67,8.42,46.55,0,88.12-3.09,118.69-8.09,1.05-.17,1.85-.99,2.02-2.04l2.58-15.88c.16-1-.69-1.86-1.69-1.69-30.83,5.29-73.92,8.58-121.6,8.58S111.25,5.52,80.3,.02c-1-.18-1.87,.68-1.71,1.69l2.59,15.89Z"/>
    </g>
  </g>
</svg>