<svg xmlns="http://www.w3.org/2000/svg" width="37.92" height="44.2" viewBox="0 0 37.92 44.2">
  <defs>
    <style>
      .a {
        fill: #008f67;
      }

      .b {
        fill: #f7e0c0;
      }

      .c {
        fill: #211815;
      }
    </style>
  </defs>
  <g>
    <path class="a" d="M28.66,17.33V15.42a6,6,0,0,0,5.41-3.51A21.16,21.16,0,0,0,36,1.91c-5.72,0-9.24,1.5-10.65,2.61a6.06,6.06,0,0,0-2.62,5H20.83a7.83,7.83,0,0,1,2.64-5.86,10.75,10.75,0,0,1,4.29-2.39A27.25,27.25,0,0,1,36.67,0a1.22,1.22,0,0,1,.88.37,1.22,1.22,0,0,1,.37.88v.5a23.78,23.78,0,0,1-2.14,11A7.61,7.61,0,0,1,28.66,17.33Z"/>
    <path class="b" d="M12.73,36.25c4.67-.11,3.47-7.57,8.51-7.56a2,2,0,0,1,1.69.78l2.72-17a155,155,0,0,1-19.87,0L9.06,33C9.47,35,10.71,36.3,12.73,36.25Z"/>
    <g>
      <path class="c" d="M30.31,11.9c-.65.1-1.61.23-2.12.29a.31.31,0,0,0-.26.26L23.76,38.28a.19.19,0,0,0,.23.21c.73-.18,1.54-.43,2.18-.66a.32.32,0,0,0,.21-.24l4.14-25.48A.19.19,0,0,0,30.31,11.9Z"/>
      <path class="c" d="M5.42,40.5l.35,2.12a.32.32,0,0,0,.21.25,33.86,33.86,0,0,0,9.68,1.33,33.48,33.48,0,0,0,9.67-1.34.3.3,0,0,0,.21-.24l.36-2.12a.19.19,0,0,0-.24-.21,33,33,0,0,1-10,1.44,32.94,32.94,0,0,1-10-1.43A.18.18,0,0,0,5.42,40.5Z"/>
      <path class="c" d="M.33,9.32a.32.32,0,0,0,.25.26,96.71,96.71,0,0,0,15.19,1.06,96.76,96.76,0,0,0,14.94-1A.32.32,0,0,0,31,9.36l.32-2a.18.18,0,0,0-.21-.21A96.4,96.4,0,0,1,15.77,8.23,94.52,94.52,0,0,1,.22,7.11.18.18,0,0,0,0,7.32Z"/>
      <path class="c" d="M7.56,38.27,3.39,12.41a.34.34,0,0,0-.28-.28c-.22,0-1.36-.17-2.12-.29a.18.18,0,0,0-.17.06.18.18,0,0,0-.06.17L4.91,37.58a.33.33,0,0,0,.22.26,20.52,20.52,0,0,0,2.18.66h.05a.24.24,0,0,0,.14,0A.21.21,0,0,0,7.56,38.27Z"/>
    </g>
  </g>
</svg>
