<svg xmlns="http://www.w3.org/2000/svg" width="32.11" height="44.2" viewBox="0 0 32.11 44.2">
  <defs>
    <style>
      .a {
        fill: #c8c8c9;
      }

      .b {
        fill: #211815;
      }

      .c {
        fill: #008f67;
      }
    </style>
  </defs>
  <g>
    <path class="a" d="M17,1.81a13.28,13.28,0,0,1,6,2.64l.2.17A4.72,4.72,0,0,1,24.7,7.08a4.14,4.14,0,0,1,.05,1.54l-.52,3.68c-2.66.25-5.4.38-8.19.38s-5.57-.13-8.25-.39L7.33,9.5A4.18,4.18,0,0,1,9.11,5.28a4,4,0,0,1,2.35-.61h.19A6.62,6.62,0,0,0,17,1.84s0,0,0,0M17,0a1.84,1.84,0,0,0-1.51.79,4.85,4.85,0,0,1-3.89,2.06,6,6,0,0,0-3.47.9A6,6,0,0,0,5.54,9.8L6.23,14a86.65,86.65,0,0,0,9.81.54A86.29,86.29,0,0,0,25.83,14l.72-5.08a5.93,5.93,0,0,0-.09-2.22,6.52,6.52,0,0,0-2.09-3.4v0A15.15,15.15,0,0,0,17.29,0L17,0Z"/>
    <g>
      <path class="b" d="M31.1,11.05c-.66.11-1.65.24-2.17.31a.3.3,0,0,0-.27.26l-4.28,26.5a.2.2,0,0,0,.24.22c.75-.18,1.58-.44,2.24-.67a.3.3,0,0,0,.2-.25l4.26-26.15A.19.19,0,0,0,31.1,11.05Z"/>
      <path class="b" d="M5.56,40.41l.36,2.17a.3.3,0,0,0,.22.25,34.42,34.42,0,0,0,9.92,1.37A34.44,34.44,0,0,0,26,42.83a.33.33,0,0,0,.22-.26l.37-2.17a.19.19,0,0,0-.25-.21,34,34,0,0,1-10.27,1.48A33.33,33.33,0,0,1,5.81,40.19.2.2,0,0,0,5.56,40.41Z"/>
      <path class="b" d="M.34,8.41a.31.31,0,0,0,.26.26A98.78,98.78,0,0,0,16.18,9.76a99,99,0,0,0,15.34-1,.32.32,0,0,0,.26-.26l.33-2a.19.19,0,0,0-.22-.22A98.52,98.52,0,0,1,16.18,7.29a96.89,96.89,0,0,1-16-1.15A.18.18,0,0,0,0,6.35Z"/>
      <path class="b" d="M7.76,38.11,3.48,11.58a.33.33,0,0,0-.29-.28L1,11a.2.2,0,0,0-.18.06.21.21,0,0,0-.06.18L5,37.41a.35.35,0,0,0,.22.27c.45.15,1.34.45,2.24.67h0a.24.24,0,0,0,.14-.05A.23.23,0,0,0,7.76,38.11Z"/>
    </g>
    <path class="c" d="M16.06,16.17a89.32,89.32,0,0,1-9.53-.5L10.19,38.6a27.78,27.78,0,0,0,11.73,0l3.67-23A89.46,89.46,0,0,1,16.06,16.17Z"/>
  </g>
</svg>
