<?xml version="1.0" encoding="UTF-8"?>
<svg id="b" data-name="圖層 2" xmlns="http://www.w3.org/2000/svg" width="453.28" height="23.77" viewBox="0 0 453.28 23.77">
  <defs>
    <style>
      .d {
        fill: #0d131a;
      }
    </style>
  </defs>
  <g id="c" data-name="b">
    <g>
      <path class="d" d="M0,23.43V.33H4.78V9.64H15.41V.33h4.78V23.43h-4.78V13.96H4.78v9.47H0Z"/>
      <path class="d" d="M23,23.43L32.5,.33h5.51l9.41,23.1h-5.18l-2.34-6.07h-9.54l-2.38,6.07h-4.98Zm8.84-9.9h6.6l-3.3-8.51-3.3,8.51Z"/>
      <path class="d" d="M50.19,23.43V.33h4.55l11.48,14.92V.33h4.49V23.43h-4.22l-11.78-15.44v15.44h-4.52Z"/>
      <path class="d" d="M75.73,23.43V.33h8.88c1.74,0,3.34,.29,4.82,.87,1.47,.58,2.76,1.4,3.86,2.46s1.96,2.29,2.59,3.7,.94,2.93,.94,4.55-.31,3.17-.92,4.55c-.62,1.39-1.48,2.6-2.59,3.65s-2.4,1.86-3.88,2.44c-1.47,.58-3.08,.87-4.82,.87h-8.88Zm4.78-4.25h4.03c1.03,0,2-.18,2.89-.54s1.67-.87,2.34-1.53,1.19-1.43,1.55-2.31,.54-1.84,.54-2.87-.19-2-.56-2.89c-.37-.89-.89-1.67-1.55-2.33s-1.44-1.18-2.33-1.55-1.85-.56-2.89-.56h-4.03v14.59h.01Z"/>
      <path class="d" d="M100.52,15.94v-3.83h12.41v3.83h-12.41Z"/>
      <path class="d" d="M117.18,23.43V.33h6.14l6.34,12.44L136,.33h6.14V23.43h-4.52V6.44l-8.02,15.34-7.99-15.41V23.43h-4.43Z"/>
      <path class="d" d="M144.9,23.43L154.4,.33h5.51l9.41,23.1h-5.18l-2.34-6.07h-9.54l-2.38,6.07h-4.98Zm8.84-9.9h6.6l-3.3-8.51-3.3,8.51Z"/>
      <path class="d" d="M172.09,23.43V.33h8.88c1.74,0,3.34,.29,4.82,.87,1.47,.58,2.76,1.4,3.86,2.46s1.96,2.29,2.59,3.7c.63,1.41,.94,2.93,.94,4.55s-.31,3.17-.92,4.55c-.62,1.39-1.48,2.6-2.59,3.65s-2.4,1.86-3.88,2.44c-1.47,.58-3.08,.87-4.82,.87h-8.88Zm4.78-4.25h4.03c1.03,0,2-.18,2.89-.54s1.67-.87,2.34-1.53,1.19-1.43,1.55-2.31,.54-1.84,.54-2.87-.19-2-.56-2.89-.89-1.67-1.55-2.33-1.44-1.18-2.33-1.55-1.85-.56-2.89-.56h-4.03v14.59h.01Z"/>
      <path class="d" d="M197.27,23.43V.33h17.75V4.49h-12.97v5.28h8.55v4.03h-8.55v5.48h13.1v4.16h-17.88Z"/>
      <path class="d" d="M224.63,23.43L234.13,.33h5.51l9.41,23.1h-5.18l-2.34-6.07h-9.54l-2.38,6.07h-4.98Zm8.84-9.9h6.6l-3.3-8.51-3.3,8.51Z"/>
      <path class="d" d="M251.82,23.43V.33h11.29c1.56,0,2.94,.3,4.14,.91,1.2,.61,2.14,1.45,2.82,2.52,.68,1.08,1.02,2.32,1.02,3.73s-.41,2.77-1.24,3.89c-.82,1.12-1.92,1.96-3.28,2.51l5.11,9.54h-5.35l-4.52-8.84h-5.21v8.84h-4.78Zm4.78-12.77h6.07c1.08,0,1.94-.29,2.59-.86s.97-1.32,.97-2.24-.32-1.67-.97-2.24c-.65-.57-1.51-.86-2.59-.86h-6.07v6.2Z"/>
      <path class="d" d="M281.12,23.43V4.55h-7.79V.33h20.33V4.55h-7.75V23.43h-4.79Z"/>
      <path class="d" d="M297.16,23.43V.33h4.78V23.43h-4.78Z"/>
      <path class="d" d="M315.21,23.76c-1.87,0-3.7-.35-5.48-1.04-1.78-.69-3.37-1.68-4.75-2.95l2.74-3.43c1.34,1.17,2.63,2.02,3.88,2.56,1.24,.54,2.56,.81,3.94,.81,.97,0,1.8-.12,2.51-.35,.7-.23,1.25-.57,1.63-1.01s.58-.96,.58-1.55c0-.79-.29-1.4-.86-1.83-.57-.43-1.55-.76-2.94-1.01l-4.59-.79c-1.96-.33-3.45-1.02-4.47-2.08s-1.53-2.42-1.53-4.09c0-1.43,.37-2.67,1.11-3.73s1.78-1.86,3.13-2.43c1.35-.56,2.96-.84,4.83-.84,1.69,0,3.38,.29,5.07,.86,1.68,.57,3.17,1.36,4.47,2.38l-2.57,3.56c-2.42-1.85-4.85-2.77-7.29-2.77-.86,0-1.61,.11-2.24,.33-.64,.22-1.13,.52-1.47,.91-.34,.38-.51,.84-.51,1.37,0,.7,.25,1.25,.76,1.63s1.35,.68,2.54,.87l4.36,.73c2.31,.38,4.04,1.11,5.18,2.2,1.14,1.09,1.72,2.52,1.72,4.31,0,1.5-.4,2.8-1.19,3.91s-1.92,1.97-3.38,2.57-3.18,.91-5.16,.91h-.02Z"/>
      <path class="d" d="M326.07,23.43L335.57,.33h5.51l9.41,23.1h-5.18l-2.34-6.07h-9.54l-2.38,6.07h-4.98Zm8.84-9.9h6.6l-3.3-8.51-3.3,8.51h0Z"/>
      <path class="d" d="M353.26,23.43V.33h4.55l11.48,14.92V.33h4.49V23.43h-4.22l-11.78-15.44v15.44h-4.52Z"/>
      <path class="d" d="M392.56,23.43V4.55h-7.79V.33h20.33V4.55h-7.75V23.43h-4.79Z"/>
      <path class="d" d="M408.6,23.43V.33h17.75V4.49h-12.97v5.28h8.55v4.03h-8.55v5.48h13.1v4.16h-17.88Z"/>
      <path class="d" d="M428.86,23.43L438.36,.33h5.51l9.41,23.1h-5.18l-2.34-6.07h-9.54l-2.38,6.07h-4.98Zm8.84-9.9h6.6l-3.3-8.51-3.3,8.51h0Z"/>
    </g>
  </g>
</svg>