<?xml version="1.0" encoding="UTF-8"?>
<svg id="uuid-7324e526-e440-4f1f-bedb-8b616c5c514d" data-name="圖層 2" xmlns="http://www.w3.org/2000/svg" width="337.36" height="294.64" viewBox="0 0 337.36 294.64">
  <defs>
    <style>
      .uuid-f2e0e64f-fa88-47a9-a7a5-b85622e59ec6 {
        fill: #439779;
      }

      .uuid-8cf4cd28-7080-411d-a57b-ef5b81e75802 {
        fill: #0d131a;
      }
    </style>
  </defs>
  <g id="uuid-acd78d59-270a-406c-854c-8872dd08fb36" data-name="layout">
    <g>
      <path class="uuid-8cf4cd28-7080-411d-a57b-ef5b81e75802" d="M26.33,114.73v-31.5h25.02v6.71h-17.28v5.9h11.52v6.48h-11.52v12.42h-7.74Z"/>
      <path class="uuid-8cf4cd28-7080-411d-a57b-ef5b81e75802" d="M56.79,114.73v-31.5h16.11c2.16,0,4.08,.43,5.76,1.28,1.68,.85,2.99,2.04,3.94,3.55,.94,1.52,1.42,3.25,1.42,5.2s-.54,3.75-1.62,5.31c-1.08,1.56-2.5,2.75-4.27,3.55l6.88,12.6h-8.64l-5.94-11.48h-5.9v11.48h-7.74Zm7.74-17.77h7.65c1.2,0,2.17-.33,2.9-.99,.74-.66,1.1-1.51,1.1-2.57s-.37-1.9-1.1-2.56c-.74-.66-1.7-.99-2.9-.99h-7.65v7.11Z"/>
      <path class="uuid-8cf4cd28-7080-411d-a57b-ef5b81e75802" d="M86.62,114.73l12.92-31.5h8.87l12.74,31.5h-8.37l-2.88-7.6h-12.29l-2.92,7.6h-8.06Zm13.32-13.77h7.65l-3.78-10.08-3.87,10.08Z"/>
      <path class="uuid-8cf4cd28-7080-411d-a57b-ef5b81e75802" d="M138.51,115.23c-2.37,0-4.58-.41-6.62-1.24-2.04-.82-3.83-1.98-5.38-3.47-1.54-1.48-2.75-3.21-3.6-5.18-.86-1.96-1.28-4.09-1.28-6.37s.43-4.4,1.28-6.37c.85-1.96,2.04-3.69,3.55-5.18,1.51-1.49,3.29-2.64,5.33-3.47,2.04-.82,4.23-1.24,6.57-1.24,2.67,0,5.19,.55,7.56,1.64,2.37,1.1,4.3,2.6,5.8,4.52l-5.45,4.91c-1.02-1.32-2.2-2.31-3.53-2.97-1.33-.66-2.8-.99-4.39-.99-1.26,0-2.42,.23-3.49,.7-1.07,.47-2,1.1-2.79,1.91-.79,.81-1.41,1.77-1.84,2.88-.44,1.11-.65,2.33-.65,3.65s.22,2.54,.67,3.67,1.09,2.1,1.91,2.93c.83,.83,1.79,1.47,2.88,1.94,1.09,.47,2.29,.7,3.58,.7s2.35-.21,3.35-.63c1-.42,1.87-1,2.59-1.75,.72-.75,1.23-1.6,1.53-2.57h-8.5v-6.7h16.88v2.25c0,2.37-.4,4.55-1.19,6.55-.79,2-1.91,3.74-3.33,5.22-1.42,1.49-3.11,2.63-5.06,3.44s-4.08,1.22-6.39,1.22Z"/>
      <path class="uuid-8cf4cd28-7080-411d-a57b-ef5b81e75802" d="M159.7,114.73v-31.5h16.11c2.16,0,4.08,.43,5.76,1.28,1.68,.85,2.99,2.04,3.94,3.55,.94,1.52,1.42,3.25,1.42,5.2s-.54,3.75-1.62,5.31c-1.08,1.56-2.5,2.75-4.27,3.55l6.88,12.6h-8.64l-5.94-11.48h-5.9v11.48h-7.74Zm7.74-17.77h7.65c1.2,0,2.17-.33,2.9-.99,.74-.66,1.1-1.51,1.1-2.57s-.37-1.9-1.1-2.56c-.74-.66-1.7-.99-2.9-.99h-7.65v7.11Z"/>
      <path class="uuid-8cf4cd28-7080-411d-a57b-ef5b81e75802" d="M189.54,114.73l12.92-31.5h8.87l12.74,31.5h-8.37l-2.88-7.6h-12.29l-2.92,7.6h-8.06Zm13.32-13.77h7.65l-3.78-10.08-3.87,10.08Z"/>
      <path class="uuid-8cf4cd28-7080-411d-a57b-ef5b81e75802" d="M227.47,114.73v-31.5h7.29l14.31,18.27v-18.27h7.29v31.5h-6.84l-14.76-18.99v18.99h-7.29Z"/>
      <path class="uuid-8cf4cd28-7080-411d-a57b-ef5b81e75802" d="M278.5,115.18c-2.4,0-4.63-.41-6.68-1.24-2.06-.82-3.85-1.97-5.38-3.44-1.53-1.47-2.72-3.19-3.58-5.15-.86-1.96-1.28-4.09-1.28-6.37s.43-4.45,1.28-6.41c.85-1.96,2.05-3.68,3.6-5.15,1.54-1.47,3.34-2.62,5.4-3.44,2.05-.82,4.27-1.24,6.64-1.24,1.74,0,3.45,.26,5.13,.77,1.68,.51,3.23,1.22,4.66,2.14,1.42,.92,2.62,2,3.58,3.26l-5.22,5.13c-1.11-1.41-2.35-2.46-3.71-3.15-1.37-.69-2.84-1.03-4.43-1.03-1.26,0-2.44,.23-3.53,.7-1.09,.47-2.05,1.1-2.86,1.91-.81,.81-1.44,1.77-1.89,2.88-.45,1.11-.67,2.33-.67,3.65s.23,2.48,.7,3.58c.46,1.1,1.11,2.06,1.93,2.88,.83,.83,1.8,1.46,2.93,1.91,1.12,.45,2.35,.67,3.67,.67,1.53,0,2.95-.33,4.25-.99,1.3-.66,2.48-1.63,3.53-2.93l5.08,5c-.96,1.23-2.15,2.3-3.55,3.22-1.41,.92-2.94,1.62-4.59,2.11-1.65,.49-3.32,.74-5,.74Z"/>
      <path class="uuid-8cf4cd28-7080-411d-a57b-ef5b81e75802" d="M296.05,114.73v-31.5h24.84v6.71h-17.1v5.67h11.29v6.48h-11.29v5.94h17.28v6.71h-25.02Z"/>
      <path class="uuid-8cf4cd28-7080-411d-a57b-ef5b81e75802" d="M16.83,164.99c-2.37,0-4.58-.41-6.62-1.24-2.04-.82-3.83-1.98-5.36-3.47-1.53-1.48-2.72-3.21-3.58-5.18-.86-1.96-1.28-4.09-1.28-6.37s.43-4.4,1.28-6.37c.85-1.96,2.05-3.69,3.58-5.18,1.53-1.49,3.31-2.64,5.36-3.47,2.04-.82,4.24-1.24,6.62-1.24s4.57,.41,6.61,1.24c2.04,.83,3.83,1.98,5.36,3.47,1.53,1.48,2.72,3.21,3.58,5.18,.86,1.97,1.28,4.09,1.28,6.37s-.43,4.4-1.28,6.37c-.85,1.97-2.05,3.69-3.58,5.18-1.53,1.49-3.32,2.64-5.36,3.47-2.04,.82-4.25,1.24-6.61,1.24Zm0-7.11c1.26,0,2.43-.23,3.51-.7,1.08-.46,2.02-1.1,2.81-1.91,.79-.81,1.42-1.78,1.87-2.9s.67-2.33,.67-3.62-.22-2.53-.67-3.65c-.45-1.11-1.07-2.07-1.87-2.88-.8-.81-1.73-1.45-2.81-1.91-1.08-.46-2.25-.7-3.51-.7s-2.43,.23-3.51,.7c-1.08,.47-2.02,1.1-2.81,1.91-.79,.81-1.42,1.77-1.87,2.88-.45,1.11-.67,2.31-.67,3.6s.22,2.54,.67,3.67,1.07,2.09,1.87,2.9c.79,.81,1.73,1.45,2.81,1.91,1.08,.47,2.25,.7,3.51,.7Z"/>
      <path class="uuid-8cf4cd28-7080-411d-a57b-ef5b81e75802" d="M38.88,164.49v-31.5h25.02v6.71h-17.28v5.9h11.52v6.48h-11.52v12.42h-7.74Z"/>
      <path class="uuid-8cf4cd28-7080-411d-a57b-ef5b81e75802" d="M87.75,164.49v-24.66h-10.31v-6.84h28.35v6.84h-10.3v24.66h-7.74Z"/>
      <path class="uuid-8cf4cd28-7080-411d-a57b-ef5b81e75802" d="M110.34,164.49v-31.5h24.84v6.71h-17.1v5.67h11.29v6.48h-11.29v5.94h17.28v6.71h-25.02Z"/>
      <path class="uuid-8cf4cd28-7080-411d-a57b-ef5b81e75802" d="M138.55,164.49l12.92-31.5h8.87l12.74,31.5h-8.37l-2.88-7.6h-12.29l-2.92,7.6h-8.06Zm13.32-13.77h7.65l-3.78-10.08-3.87,10.08Z"/>
      <path class="uuid-8cf4cd28-7080-411d-a57b-ef5b81e75802" d="M186.39,164.49v-31.5h7.74v24.66h16.61v6.84h-24.34Z"/>
      <path class="uuid-8cf4cd28-7080-411d-a57b-ef5b81e75802" d="M213.7,164.49l12.92-31.5h8.87l12.74,31.5h-8.37l-2.88-7.6h-12.29l-2.92,7.6h-8.06Zm13.32-13.77h7.65l-3.78-10.08-3.87,10.08Z"/>
      <path class="uuid-8cf4cd28-7080-411d-a57b-ef5b81e75802" d="M256.05,164.49l-12.74-31.5h8.37l8.96,23.45,9.13-23.45h8.06l-12.92,31.5h-8.87Z"/>
      <path class="uuid-8cf4cd28-7080-411d-a57b-ef5b81e75802" d="M281.25,164.49v-31.5h24.84v6.71h-17.1v5.67h11.29v6.48h-11.29v5.94h17.28v6.71h-25.02Z"/>
      <path class="uuid-8cf4cd28-7080-411d-a57b-ef5b81e75802" d="M323.55,164.94c-2.55,0-5.07-.46-7.56-1.4-2.49-.93-4.71-2.22-6.66-3.87l4.32-5.62c1.92,1.56,3.69,2.68,5.31,3.35,1.62,.67,3.34,1.01,5.17,1.01,1.2,0,2.22-.12,3.06-.36,.84-.24,1.48-.59,1.93-1.06,.45-.46,.67-1.01,.67-1.64,0-.87-.33-1.54-.99-2.02-.66-.48-1.79-.85-3.38-1.12l-6.93-1.22c-2.55-.45-4.52-1.42-5.89-2.93-1.38-1.5-2.07-3.4-2.07-5.71,0-2.04,.52-3.79,1.55-5.27,1.04-1.47,2.52-2.59,4.46-3.38,1.93-.78,4.24-1.17,6.91-1.17,2.34,0,4.7,.4,7.07,1.19,2.37,.8,4.42,1.9,6.17,3.31l-4.1,5.71c-3.24-2.49-6.46-3.73-9.67-3.73-1.05,0-1.96,.11-2.72,.34-.76,.23-1.35,.54-1.75,.95s-.61,.89-.61,1.46c0,.78,.29,1.38,.88,1.8,.58,.42,1.54,.75,2.86,.99l6.52,1.08c3.03,.48,5.33,1.48,6.91,3.01,1.57,1.53,2.36,3.51,2.36,5.94,0,2.13-.56,3.97-1.67,5.51-1.11,1.55-2.7,2.74-4.77,3.58-2.07,.84-4.53,1.26-7.38,1.26Z"/>
    </g>
    <g>
      <path class="uuid-8cf4cd28-7080-411d-a57b-ef5b81e75802" d="M107.26,200.18c-1.02-1.09-3.36-2.72-5.02-3.78l2.24-2.56c1.7,.93,4.06,2.43,5.22,3.46l-2.43,2.88Zm-4.77,11.77c1.18-2.34,2.88-6.08,4.13-9.6l3.3,1.44c-1.15,3.33-2.5,6.78-3.71,9.57l-3.71-1.41Zm6.27-20.29c-1.06-1.06-3.36-2.75-5.02-3.87l2.4-2.5c1.63,.99,3.97,2.53,5.15,3.55l-2.53,2.82Zm23.01,8.26c-1.63,1.12-3.55,2.3-5.25,3.26,1.5,3.2,3.49,5.76,6.27,7.39-.83,.74-2.05,2.21-2.62,3.17-5.47-3.68-8.1-10.24-9.6-18.65-.67,1.57-1.44,2.98-2.34,4.29v9.86l4.74-1.5c.03,1.06,.26,2.5,.45,3.3-6.94,2.4-8.19,2.98-8.93,3.58-.26-.86-.99-2.4-1.57-3.14,.74-.38,1.79-1.25,1.79-2.62v-5.41c-.93,.8-1.89,1.54-2.94,2.21-.54-.7-1.98-2.08-2.85-2.72,4.13-2.27,6.94-5.73,8.74-10.3h-3.07v2.85h-3.39v-6.11h7.52c.38-1.38,.67-2.82,.93-4.35l3.68,.54c-.19,1.34-.48,2.59-.8,3.81h9.21v6.11h-3.58v-2.85h-4.51c.42,2.69,.99,5.22,1.76,7.58,1.41-.96,2.91-2.14,3.94-3.04l2.43,2.75Z"/>
      <path class="uuid-8cf4cd28-7080-411d-a57b-ef5b81e75802" d="M148.7,185.34c-.22,.93-.45,1.82-.7,2.75h7.81v3.46h-8.96c-.32,.83-.64,1.63-1.02,2.43h8.74v16.7c0,1.6-.29,2.5-1.31,3.04-1.02,.51-2.43,.61-4.48,.58-.13-.9-.58-2.3-1.06-3.2,1.22,.06,2.53,.06,2.94,.06,.38,0,.51-.13,.51-.51v-3.17h-5.76c-.35,2.59-1.12,5.22-2.72,7.04-.48-.74-1.89-2.14-2.59-2.59,1.98-2.43,2.11-5.89,2.11-8.83v-3.17c-.51,.64-1.06,1.18-1.6,1.73-.35-.8-1.47-2.56-2.14-3.39,1.89-1.7,3.36-4.03,4.54-6.72h-3.71v-3.46h4.96c.35-1.15,.64-2.27,.9-3.49l3.55,.74Zm2.46,18.94v-1.98h-5.47v.83c0,.38,0,.77-.03,1.15h5.5Zm0-7.14h-5.47v1.95h5.47v-1.95Zm17.54-9.15c-1.15,3.14-2.56,6.78-3.84,9.54,2.72,2.85,3.23,5.38,3.23,7.49,0,2.37-.51,3.9-1.73,4.74-.58,.45-1.34,.67-2.21,.8-.7,.1-1.6,.13-2.46,.06-.03-.99-.38-2.56-.93-3.62,.7,.06,1.34,.06,1.79,.03,.45,0,.86-.06,1.22-.32,.54-.32,.74-1.06,.74-2.14,0-1.76-.7-4.06-3.26-6.59,.93-2.3,1.95-5.54,2.72-7.97h-3.74v24.48h-3.58v-28.06h8.8l.54-.16,2.72,1.73Z"/>
      <path class="uuid-8cf4cd28-7080-411d-a57b-ef5b81e75802" d="M193.15,192.53c-.19,.29-.42,.58-.64,.86,3.04,2.4,8.13,4.51,12.89,5.5-.8,.77-1.86,2.21-2.4,3.14-4.48-1.22-9.22-3.58-12.64-6.43-3.3,3.04-7.78,5.15-12.83,6.56-.42-.9-1.54-2.43-2.24-3.14,6.21-1.44,11.77-4.16,14.46-7.84l3.39,1.34Zm-7.14,14.59c-1.66,2.62-4.45,5.02-6.94,6.5-.74-.67-2.3-1.86-3.23-2.43,2.53-1.15,5.02-3.14,6.33-5.18l3.84,1.12Zm-4.06-16.29h-6.02v-3.42h6.02v-2.78h3.84v2.78h3.65v3.42h-3.65v3.01h-3.84v-3.01Zm10.33,14.43v9.22h-3.97v-9.22h-8.83v-3.49h8.83v-3.26h3.97v3.26h8.45v3.49h-8.45Zm2.72-14.46h-4.16v-3.39h4.16v-2.78h3.84v2.78h5.76v3.39h-5.76v3.04h-3.84v-3.04Zm2.14,14.97c2.37,1.57,5.44,3.97,6.91,5.66l-3.17,2.18c-1.34-1.63-4.32-4.19-6.72-5.92l2.98-1.92Z"/>
      <path class="uuid-8cf4cd28-7080-411d-a57b-ef5b81e75802" d="M224.8,200.92v-4.54c-2.02,2.08-4.54,3.9-7.23,5.28h19.42v12.8h-4v-.96h-12.06v.99h-3.81v-12.61c-.99,.48-1.95,.9-2.98,1.22-.58-.9-1.76-2.43-2.59-3.23,3.42-.93,6.88-2.62,9.47-4.61h-8.48v-3.39h12.25v-2.24c-2.91,.26-5.82,.42-8.64,.48-.1-.93-.54-2.37-.93-3.23,7.01-.26,14.98-1.02,19.78-2.21l2.69,3.04c-2.66,.67-5.73,1.15-8.93,1.54v2.62h12.32v3.39h-7.68c3.17,1.76,6.4,3.78,8.29,5.31l-2.27,2.91c-2.27-2.05-6.75-4.96-10.66-7.1v4.54h-3.97Zm-3.87,3.62v1.73h12.06v-1.73h-12.06Zm12.06,6.08v-1.76h-12.06v1.76h12.06Z"/>
    </g>
    <g>
      <path class="uuid-f2e0e64f-fa88-47a9-a7a5-b85622e59ec6" d="M92.99,265.3l2.77,16.82c.15,.93,.81,1.69,1.71,1.97,22.4,6.87,49.18,10.56,76.82,10.56s54.45-3.72,76.85-10.6c.89-.27,1.55-1.04,1.7-1.96l2.82-16.79c.18-1.09-.85-1.98-1.9-1.64-22.97,7.41-50.58,11.44-79.46,11.44s-56.4-3.91-79.38-11.43c-1.06-.35-2.09,.54-1.91,1.64Z"/>
      <path class="uuid-f2e0e64f-fa88-47a9-a7a5-b85622e59ec6" d="M52.54,17.6c.17,1.04,.97,1.86,2.01,2.04,30.77,5.2,73.47,8.42,120.67,8.42,46.55,0,88.12-3.09,118.69-8.09,1.05-.17,1.85-.99,2.02-2.04l2.58-15.88c.16-1-.69-1.86-1.69-1.69-30.83,5.29-73.92,8.58-121.6,8.58S82.61,5.52,51.66,.02c-1-.18-1.87,.68-1.71,1.69l2.59,15.89Z"/>
    </g>
  </g>
</svg>