<?xml version="1.0" encoding="UTF-8"?>
<svg id="b" data-name="圖層 2" xmlns="http://www.w3.org/2000/svg" width="317.83" height="23.82" viewBox="0 0 317.83 23.82">
  <defs>
    <style>
      .d {
        fill: #0d131a;
      }
    </style>
  </defs>
  <g id="c" data-name="b">
    <g>
      <path class="d" d="M0,23.45V.35H17.85V4.51H4.78v5.45H13.46v4.03H4.78v9.47H0Z"/>
      <path class="d" d="M21.91,23.45V.35h4.78V23.45h-4.78Z"/>
      <path class="d" d="M31.71,23.45V.35h4.55l11.48,14.92V.35h4.49V23.45h-4.22l-11.78-15.44v15.44h-4.52Z"/>
      <path class="d" d="M57.25,23.45V.35h17.75V4.51h-12.97v5.28h8.55v4.03h-8.55v5.48h13.1v4.16h-17.88Z"/>
      <path class="d" d="M86.82,23.45V.35h4.78V23.45h-4.78Z"/>
      <path class="d" d="M96.62,23.45V.35h4.55l11.48,14.92V.35h4.49V23.45h-4.22l-11.78-15.44v15.44h-4.52Z"/>
      <path class="d" d="M133.52,23.82c-1.72,0-3.31-.3-4.79-.91-1.47-.6-2.77-1.45-3.89-2.54s-2-2.35-2.62-3.79c-.63-1.44-.94-3-.94-4.67s.31-3.23,.94-4.67c.63-1.44,1.49-2.71,2.59-3.79,1.1-1.09,2.39-1.94,3.88-2.54,1.48-.6,3.07-.91,4.77-.91,1.91,0,3.72,.38,5.41,1.14,1.69,.76,3.09,1.82,4.19,3.18l-3.33,3.07c-.79-.99-1.73-1.74-2.8-2.24-1.08-.51-2.23-.76-3.46-.76-1.03,0-1.99,.19-2.87,.58-.88,.38-1.65,.91-2.31,1.58s-1.17,1.46-1.53,2.38c-.36,.91-.54,1.91-.54,2.99s.19,2.08,.56,3c.37,.92,.9,1.72,1.57,2.39s1.45,1.2,2.34,1.58,1.86,.58,2.92,.58,2.09-.2,2.97-.61,1.62-.98,2.23-1.72,1.01-1.57,1.2-2.49h-6.83v-4.16h11.95v1.45c0,1.72-.29,3.29-.87,4.74-.58,1.44-1.39,2.7-2.43,3.76-1.03,1.07-2.26,1.9-3.66,2.49-1.41,.59-2.95,.89-4.62,.89h-.03Z"/>
      <path class="d" d="M149.19,23.45V.35h11.29c1.56,0,2.94,.3,4.14,.91,1.2,.61,2.14,1.45,2.82,2.52,.68,1.08,1.02,2.32,1.02,3.73s-.41,2.77-1.24,3.89c-.82,1.12-1.92,1.96-3.28,2.51l5.11,9.54h-5.35l-4.52-8.84h-5.21v8.84h-4.78Zm4.78-12.77h6.07c1.08,0,1.94-.29,2.59-.86s.97-1.32,.97-2.24-.32-1.67-.97-2.24c-.65-.57-1.51-.86-2.59-.86h-6.07v6.2Z"/>
      <path class="d" d="M172.42,23.45V.35h17.75V4.51h-12.97v5.28h8.55v4.03h-8.55v5.48h13.1v4.16h-17.88Z"/>
      <path class="d" d="M194.53,23.45V.35h8.88c1.74,0,3.34,.29,4.82,.87,1.47,.58,2.76,1.4,3.86,2.46s1.96,2.29,2.59,3.7c.63,1.41,.94,2.93,.94,4.55s-.31,3.17-.92,4.55c-.62,1.39-1.48,2.6-2.59,3.65s-2.4,1.86-3.88,2.44c-1.47,.58-3.08,.87-4.82,.87h-8.88Zm4.78-4.25h4.03c1.03,0,2-.18,2.89-.54s1.67-.87,2.34-1.53,1.19-1.43,1.55-2.31,.54-1.84,.54-2.87-.19-2-.56-2.89-.89-1.67-1.55-2.33-1.44-1.18-2.33-1.55-1.85-.56-2.89-.56h-4.03v14.59h.01Z"/>
      <path class="d" d="M219.71,23.45V.35h4.78V23.45h-4.78Z"/>
      <path class="d" d="M229.51,23.45V.35h17.75V4.51h-12.97v5.28h8.55v4.03h-8.55v5.48h13.1v4.16h-17.88Z"/>
      <path class="d" d="M251.62,23.45V.35h4.55l11.48,14.92V.35h4.49V23.45h-4.22l-11.78-15.44v15.44h-4.52Z"/>
      <path class="d" d="M283.47,23.45V4.58h-7.79V.35h20.33V4.58h-7.75V23.45h-4.79Z"/>
      <path class="d" d="M308.08,23.78c-1.87,0-3.7-.35-5.48-1.04-1.78-.69-3.37-1.68-4.75-2.95l2.74-3.43c1.34,1.17,2.63,2.02,3.88,2.56,1.24,.54,2.56,.81,3.94,.81,.97,0,1.8-.12,2.51-.35,.7-.23,1.25-.57,1.63-1.01s.58-.96,.58-1.55c0-.79-.29-1.4-.86-1.83-.57-.43-1.55-.76-2.94-1.01l-4.59-.79c-1.96-.33-3.45-1.02-4.47-2.08s-1.53-2.42-1.53-4.09c0-1.43,.37-2.67,1.11-3.73s1.78-1.86,3.13-2.43c1.35-.56,2.96-.84,4.83-.84,1.69,0,3.38,.29,5.07,.86,1.68,.57,3.17,1.36,4.47,2.38l-2.57,3.56c-2.42-1.85-4.85-2.77-7.29-2.77-.86,0-1.61,.11-2.24,.33-.64,.22-1.13,.52-1.47,.91-.34,.38-.51,.84-.51,1.37,0,.7,.25,1.25,.76,1.63s1.35,.68,2.54,.87l4.36,.73c2.31,.38,4.04,1.11,5.18,2.2,1.14,1.09,1.72,2.52,1.72,4.31,0,1.5-.4,2.8-1.19,3.91s-1.92,1.97-3.38,2.57-3.18,.91-5.16,.91h-.02Z"/>
    </g>
  </g>
</svg>