<?xml version="1.0" encoding="UTF-8"?>
<svg id="c" data-name="圖層 2" xmlns="http://www.w3.org/2000/svg" width="184.83" height="38.89" xmlns:xlink="http://www.w3.org/1999/xlink" viewBox="0 0 184.83 38.89">
  <defs>
    <symbol id="a" data-name="KOI 橫式2" viewBox="0 0 238.8 50.25">
      <g>
        <path d="M116.37,0" style="fill: none; stroke: #eee852; stroke-miterlimit: 10; stroke-width: .13px;"/>
        <g>
          <path d="M35.28,12.65c-.75,.12-1.87,.27-2.46,.34-.16,.02-.28,.14-.31,.3l-4.85,30.07c-.02,.15,.12,.28,.27,.24,.85-.21,1.79-.5,2.54-.76,.12-.04,.21-.15,.23-.28l4.82-29.66c.02-.15-.1-.27-.25-.25Z" style="fill: #231814;"/>
          <path d="M22.75,16.92c-3.23,0-5.87,2.63-5.87,5.87s2.63,5.87,5.87,5.87,5.87-2.63,5.87-5.87-2.63-5.87-5.87-5.87Zm0,9.03c-1.74,0-3.16-1.42-3.16-3.16s1.42-3.16,3.16-3.16,3.16,1.42,3.16,3.16-1.42,3.16-3.16,3.16Z" style="fill: #231814;"/>
          <path d="M29.87,45.7c-3.37,1.09-7.41,1.68-11.65,1.68s-8.27-.57-11.63-1.68c-.15-.05-.31,.08-.28,.24l.41,2.47c.02,.14,.12,.25,.25,.29,3.28,1.01,7.21,1.55,11.26,1.55s7.98-.54,11.26-1.55c.13-.04,.23-.15,.25-.29l.41-2.46c.03-.16-.12-.29-.28-.24Z" style="fill: #231814;"/>
          <path d="M36.18,7.12c-3.71,.64-8.64,1.08-14.16,1.21-.11,0-.19-.12-.13-.22L26.32,.66c.09-.14-.02-.33-.19-.33h-2.99c-.13,0-.25,.07-.31,.18l-4.55,7.68c-.07,.11-.19,.18-.31,.18-6.98-.02-13.27-.52-17.72-1.31-.15-.03-.27,.1-.25,.25l.38,2.33c.02,.15,.14,.27,.29,.3,4.05,.68,9.52,1.13,15.6,1.22,.11,0,.18,.12,.12,.22l-7.4,12.49c-.07,.12-.21,.17-.33,.13-.95-.3-1.93-.54-2.92-.7-.12-.02-.22-.12-.24-.24l-1.58-9.81c-.03-.16-.15-.28-.31-.3-.7-.09-1.71-.23-2.47-.35-.15-.02-.27,.1-.25,.25l4.84,29.71c.02,.13,.11,.24,.24,.28,.7,.25,1.8,.58,2.53,.76,.15,.04,.29-.09,.27-.25l-2.7-16.75c-.02-.1,.08-.19,.18-.17,3.78,.86,7.26,2.9,9.87,5.82,2.98,3.33,4.68,7.65,4.81,12.12,0,.16,.14,.29,.3,.28,.66-.04,1.89-.16,2.43-.22,.15-.02,.26-.14,.25-.29-.17-5.29-2.25-10.36-5.88-14.23-1.75-1.87-3.81-3.4-6.06-4.55-.15-.08-.2-.26-.12-.4l8.11-13.62c.06-.11,.18-.17,.31-.18,6.05-.08,11.43-.51,15.48-1.17,.15-.03,.27-.15,.3-.3l.38-2.33c.02-.15-.1-.27-.25-.25Z" style="fill: #231814;"/>
        </g>
        <g>
          <polygon points="156.01 18.49 165.7 18.49 165.7 43 172.7 43 172.7 18.49 182.38 18.49 182.38 12.79 156.01 12.79 156.01 18.49" style="fill: #231814;"/>
          <path d="M117.61,16.61c-1.5-1.42-3.26-2.51-5.27-3.28-2.01-.77-4.22-1.15-6.62-1.15s-4.61,.39-6.62,1.17c-2.01,.78-3.77,1.88-5.27,3.3-1.5,1.42-2.67,3.07-3.49,4.97-.82,1.9-1.24,3.99-1.24,6.27s.41,4.34,1.24,6.25c.82,1.91,1.99,3.57,3.49,4.99,1.5,1.42,3.27,2.52,5.29,3.3,2.02,.78,4.24,1.17,6.64,1.17s4.56-.38,6.57-1.15c2.01-.77,3.77-1.86,5.27-3.28,1.5-1.42,2.67-3.09,3.49-5.01,.82-1.92,1.24-4.01,1.24-6.27s-.41-4.38-1.24-6.29c-.82-1.91-1.99-3.57-3.49-4.99Zm-3.1,15.21c-.48,1.17-1.15,2.2-2.02,3.08-.87,.88-1.87,1.56-3.02,2.04-1.14,.48-2.39,.72-3.75,.72s-2.62-.24-3.77-.72c-1.16-.48-2.16-1.16-3.02-2.04-.85-.88-1.52-1.91-2-3.08-.48-1.17-.72-2.48-.72-3.93s.24-2.76,.72-3.93c.48-1.17,1.14-2.2,2-3.08,.85-.88,1.86-1.56,3.02-2.04,1.16-.48,2.41-.72,3.77-.72s2.61,.24,3.75,.72c1.14,.48,2.15,1.16,3.02,2.04,.87,.88,1.54,1.91,2.02,3.08,.48,1.17,.72,2.48,.72,3.93s-.24,2.76-.72,3.93Z" style="fill: #231814;"/>
          <rect x="127.83" y="12.79" width="7.04" height="30.22" style="fill: #231814;"/>
          <path d="M199.63,19.32c-2.32,0-4.47,.74-6.23,1.99V12.79h-6.74v30.22h6.74v-12.94c0-2.84,2.3-5.14,5.14-5.14s5.14,2.3,5.14,5.14v.07h0v12.88h6.74v-12.88c0-5.97-4.84-10.8-10.8-10.8Z" style="fill: #231814;"/>
          <path d="M76.63,26.05l9.53-13.27h-8.04l-8.09,11.26c-1.16-.16-2.4-.25-3.72-.25-.64,0-1.25,.03-1.85,.06V12.79h-6.95v30.22h6.95v-13.45c.6-.07,1.22-.11,1.85-.11,7.14,0,12.61,4.46,12.61,13.56h7.07c0-5.88-2.32-13.29-9.37-16.95Z" style="fill: #231814;"/>
          <path d="M238.77,27.71c-.4-4.51-4.23-8.76-12.21-8.36-7.81,.39-12.35,5.43-12.35,12.13,0,.66,.05,1.3,.14,1.93,.23,1.57,.73,3.01,1.52,4.31,1.11,1.82,2.67,3.26,4.68,4.31,2.01,1.05,4.36,1.58,7.04,1.58,2.13,0,4.01-.33,5.64-.99,1.63-.66,2.99-1.6,4.07-2.82l-3.63-3.94c-.79,.76-1.66,1.33-2.6,1.71-.95,.38-2.03,.57-3.26,.57-1.43,0-2.65-.26-3.67-.77-1.02-.51-1.82-1.25-2.41-2.21-.32-.53-.54-1.12-.69-1.76h12.61c3.95-.01,5.39-2.56,5.12-5.69Zm-7.16,1.45l-10.61,.02s.79-4.43,5.9-4.78c4.01-.28,5.83,1.46,6.19,2.62,.32,1.01,.09,2.15-1.49,2.15Z" style="fill: #231814;"/>
          <path d="M223.21,15.27s-.12,.11-.14,.15c-.04,.07-.08,.15-.02,.18,.05,.03,.18,.04,.28,.05,.08,0,.18-.05,.26-.06,.09,0,.17-.02,.26-.03,.09-.01,.17-.04,.25-.05,.09-.01,.18-.01,.26-.03,.09-.02,.18-.01,.26-.02,.09-.01,.17-.03,.26-.04,.07,0,.14-.11,.23-.14,.08-.03,.21,.01,.24,.12,.02,.05-.05,.12-.04,.18,.01,.06,.02,.09-.02,.15-.03,.05-.05,.08-.14,.12-.05,.02-.12,.05-.19,.06-.07,.01-.13,.04-.09,.12,.06,.1,.14,.09,.21,.08,.08-.02,.18-.03,.26-.04,.08-.01,.13-.1,.21-.11,.08-.01,.16-.01,.24-.03s.17,.02,.25,0c.08-.01,.15-.07,.23-.08,.08-.01,.16,0,.24-.01,.08,0,.17,.03,.25,.02s.16,0,.24,0c.08,0,.16-.06,.24-.07,.08,0,.16-.02,.24-.03,.08,0,.16-.03,.24-.04,.08,0,.16,0,.24-.01,.08,0,.16-.02,.24-.03,.08,0,.16,.04,.25,.03,.08,0,.16-.01,.24-.02,.08,0,.16,.05,.24,.05,.08,0,.16-.01,.24-.01,.08,0,.16-.06,.24-.06,.08,0,.16,.04,.24,.04,.08,0,.17,0,.25,0,.08,0,.16-.05,.25-.06,.08,0,.17,0,.25,0,.08,0,.16-.08,.24-.09,.08-.01,.16-.02,.24-.04,.08-.02,.16-.04,.24-.06s.16-.03,.24-.05c.08-.02,.16-.05,.24-.08,.08-.02,.15-.06,.23-.09,.08-.03,.18,0,.25-.03,.08-.03,.15-.08,.22-.11,.08-.03,.18-.01,.25-.04,.08-.03,.14-.09,.22-.13,.08-.04,.14-.09,.22-.13,.07-.04,.16-.06,.23-.1,.07-.04,.16-.07,.23-.11,.07-.04,.09-.18,.16-.23,.07-.05,.21,.02,.29-.03,.08-.04,.15-.08,.23-.12,.08-.04,.14-.12,.21-.16,.08-.04,.13-.14,.2-.18,.08-.05,.16-.09,.23-.14,.07-.05,.18-.06,.25-.13,.07-.06,.07-.19,.13-.26,.06-.07,.09-.15,.14-.23,.05-.09,.1-.17,.15-.25,.05-.09,.15-.15,.19-.24,.04-.09-.02-.2,0-.3,.02-.1,.08-.17,.07-.24,0-.09-.04-.16-.08-.21-.04-.06-.12-.08-.18-.11-.06-.04-.13-.05-.2-.08-.07-.03-.12-.09-.18-.13-.1-.06-.18-.08-.23-.03-.05,.05-.13,.14-.17,.23-.03,.09-.03,.16-.09,.21-.06,.04-.07,.18-.14,.23-.06,.04-.21,.01-.21,0,0,0,.01-.13,.05-.21,.03-.08,.03-.17,.06-.25,.04-.08,.16-.13,.19-.21,.03-.08-.01-.17-.02-.25,0-.08-.03-.13-.08-.2-.04-.05-.08-.09-.15-.14-.05-.04-.09-.12-.16-.15-.08-.03-.02-.07,.01-.15,.03-.07,.06-.15,.08-.22,.03-.06-.04-.15-.08-.23-.03-.06-.03-.16-.08-.22-.04-.06-.08-.14-.13-.19-.05-.06-.17-.04-.22-.08-.07-.06-.12-.13-.15-.15-.09-.07-.16-.06-.2,0-.04,.07-.03,.2-.09,.23-.09,.03-.18,.03-.26,.07-.08,.04-.15,.13-.23,.18-.08,.05-.16,.08-.24,.13-.08,.05-.16,.09-.24,.14-.08,.05-.12,.15-.19,.21-.07,.06-.19,.05-.26,.11-.07,.06-.15,.11-.22,.17-.07,.06-.09,.18-.16,.24-.07,.06-.16,.09-.23,.15-.07,.05-.13,.13-.2,.18-.06,.04-.18,0-.26,.03-.07,.03-.14,.07-.21,.1-.07,.03-.15,.03-.23,.05-.08,.02-.15,.08-.22,.1-.09,.03-.19,.07-.27,.11-.09,.04-.15,.13-.24,.18-.08,.04-.2,.02-.29,.06-.09,.04-.14,.17-.24,.2-.08,.02-.17,.02-.25,.05-.08,.02-.17,.02-.25,.04-.08,.02-.16,.06-.24,.08-.08,.02-.18,0-.26,.02-.08,.02-.15,.13-.23,.15-.08,.02-.18-.01-.26,.01-.08,.02-.16,.07-.24,.1-.08,.02-.17,.03-.25,.06-.08,.02-.16,.07-.24,.09-.08,.02-.16,.04-.25,.06-.08,.02-.16,.08-.24,.1-.08,.02-.17,0-.25,.03-.08,.02-.16,.07-.24,.09-.08,.02-.16,.05-.25,.07-.08,.02-.17,.02-.25,.04-.08,.02-.18,0-.26,.02-.08,.02-.17,.04-.25,.06-.08,.02-.15,.08-.23,.11-.08,.03-.14,.09-.22,.12-.08,.03-.18,.02-.26,.05-.08,.03-.15,.07-.23,.1-.08,.03-.14,.08-.21,.12-.08,.03-.18,.03-.26,.06-.07,.03-.17,.05-.24,.09-.07,.04-.1,.11-.17,.15-.07,.04-.11,.09-.17,.13-.06,.04-.15,.06-.21,.11-.05,.04-.13,.06-.2,.09-.07,.02-.15,.03-.21,.06-.06,.03-.07,.06-.1,.12-.03,.05-.01,.08-.01,.13,0,.05,0,.08,.03,.13,.02,.04,.01,.09,.05,.13,.04,.04,.06,.09,.11,.12,.05,.03,.11,.06,.17,.09,.06,.03,.17,0,.24,.03,.07,.02,.11,.06,.19,.07,.07,.02,.24,.05,.24,.05Z" style="fill: #231814;"/>
        </g>
      </g>
    </symbol>
  </defs>
  <g id="d" data-name="設計">
    <use width="238.8" height="50.25" transform="scale(.77)" xlink:href="#a"/>
  </g>
</svg>