<?xml version="1.0" encoding="UTF-8"?>
<svg id="b" data-name="圖層 2" xmlns="http://www.w3.org/2000/svg" width="85.51" height="49.55" viewBox="0 0 85.51 49.55">
  <defs>
    <style>
      .d {
        fill: #ea5504;
      }
    </style>
  </defs>
  <g id="c" data-name="圖層 3">
    <g>
      <path class="d" d="M14.94,48.73c-1.76,.74-3.54,.97-5.34,.72-1.8-.26-3.52-1-5.15-2.23s-2.83-2.68-3.58-4.34c-.75-1.66-1.01-3.44-.78-5.32l1.68-.09c-.17,1.6,.08,3.11,.74,4.53,.66,1.42,1.69,2.65,3.09,3.71,1.39,1.05,2.86,1.69,4.41,1.94,1.55,.24,3.06,.06,4.55-.55l.39,1.65Z"/>
      <path class="d" d="M13.24,43.56L3.45,33.48l2.03-1.97,9.42,3.39-3.11-9.52,2.02-1.96,9.79,10.08-1.43,1.39-8-8.24,3.54,11.17-11.06-3.87,8,8.24-1.41,1.37Z"/>
      <path class="d" d="M25.9,31.91l-7.86-11.65,8.59-5.79,1.03,1.53-6.84,4.62,2.36,3.49,4.49-3.03,1,1.48-4.49,3.03,2.44,3.61,6.91-4.66,1.03,1.53-8.66,5.84Z"/>
      <path class="d" d="M36.41,25l-5.91-12.75,1.86-.86,11.52,6.17-4.39-9.47,1.8-.84,5.91,12.75-1.68,.78-11.81-6.39,4.53,9.76-1.82,.84Z"/>
      <path class="d" d="M55.42,17.77c-1.18,.32-2.26,.35-3.26,.09-1-.25-1.85-.77-2.56-1.54-.71-.77-1.23-1.77-1.56-3l-2.11-7.77,2.04-.55,2.1,7.77c.23,.84,.58,1.53,1.05,2.07,.47,.54,1.03,.9,1.69,1.08,.65,.18,1.35,.17,2.1-.03,.78-.21,1.39-.56,1.86-1.05,.46-.48,.77-1.08,.9-1.78s.09-1.47-.14-2.31l-2.11-7.77,2.03-.55,2.11,7.77c.33,1.23,.38,2.35,.16,3.38-.23,1.03-.71,1.9-1.44,2.63-.73,.73-1.69,1.25-2.86,1.57Z"/>
      <path class="d" d="M72.49,4.06l4.53,4.2-3.59,4.86c-.42,.56-.84,.86-1.27,.9-.34,.03-.67-.06-1-.29-.36-.18-.56-.48-.6-.91-.04-.43,.05-.78,.28-1.06l1.19-1.66-7.66,.75c-.38,.04-.72-.06-.99-.29-.33-.27-.49-.62-.49-1.05,0-.34,.11-.63,.3-.87,.23-.28,.54-.46,.92-.54l7.66-.75-1.41-1.28c-.34-.35-.52-.7-.55-1.04,0-.34,.15-.68,.42-1.01,.24-.2,.5-.35,.79-.46,.51-.09,1,.08,1.47,.5Z"/>
      <path class="d" d="M80.68,0c1.62,1.01,2.84,2.32,3.67,3.94,.83,1.62,1.22,3.45,1.16,5.5-.06,2.05-.55,3.86-1.47,5.43-.92,1.57-2.22,2.81-3.89,3.72l-1.05-1.32c1.4-.79,2.49-1.86,3.27-3.22,.78-1.36,1.19-2.91,1.24-4.66,.05-1.74-.27-3.31-.97-4.72-.7-1.41-1.72-2.54-3.07-3.39l1.12-1.27Z"/>
    </g>
  </g>
</svg>