<?xml version="1.0" encoding="UTF-8"?>
<svg id="b" data-name="圖層 2" xmlns="http://www.w3.org/2000/svg" width="92.28" height="51.3" viewBox="0 0 92.28 51.3">
  <defs>
    <style>
      .d {
        fill: #ea5504;
      }
    </style>
  </defs>
  <g id="c" data-name="圖層 3">
    <g>
      <path class="d" d="M17.09,49.4c-1.58,1.11-3.28,1.73-5.11,1.87s-3.69-.22-5.57-1.08c-1.88-.86-3.38-2.02-4.48-3.5-1.1-1.47-1.75-3.17-1.93-5.08l1.63-.46c.19,1.61,.76,3.05,1.72,4.3,.96,1.25,2.24,2.25,3.86,2.98,1.6,.73,3.19,1.04,4.77,.95,1.58-.1,3.04-.61,4.36-1.53l.75,1.54Z"/>
      <path class="d" d="M17.33,40.97c-.64,.94-1.45,1.71-2.41,2.33-.96,.62-2.01,1.03-3.14,1.24l-.5-1.92c1.06-.21,1.97-.54,2.73-1s1.38-1.05,1.88-1.77c.39-.57,.65-1.12,.78-1.66,.13-.54,.13-1.03-.01-1.47-.14-.44-.4-.79-.78-1.05-.52-.36-1.05-.45-1.58-.27-.53,.18-1.16,.64-1.89,1.39l-1.66,1.74c-.92,.94-1.82,1.5-2.68,1.69-.87,.18-1.72,0-2.55-.58-.67-.46-1.13-1.04-1.4-1.75-.26-.7-.31-1.48-.14-2.32,.17-.84,.55-1.69,1.14-2.55,.58-.85,1.29-1.59,2.13-2.22,.84-.63,1.74-1.1,2.7-1.41l.67,1.89c-1.82,.6-3.18,1.55-4.07,2.84-.35,.51-.59,1.01-.7,1.49s-.11,.91,0,1.3c.12,.39,.35,.71,.69,.94,.48,.33,.96,.42,1.43,.27s1.02-.56,1.65-1.23l1.61-1.67c1.05-1.1,2.04-1.76,2.96-1.98,.92-.22,1.84-.02,2.75,.61,.71,.49,1.21,1.11,1.48,1.88,.27,.76,.32,1.6,.14,2.5-.18,.91-.59,1.83-1.22,2.75Z"/>
      <path class="d" d="M24.2,32.42l-8.51-8.89-3.6,3.45-1.3-1.36,8.75-8.37,1.3,1.36-3.6,3.45,8.51,8.89-1.54,1.47Z"/>
      <path class="d" d="M35.71,23.74c-.88,.53-1.8,.87-2.75,1.02-.96,.14-1.9,.11-2.83-.11-.93-.22-1.78-.61-2.56-1.17-.78-.56-1.43-1.29-1.96-2.17-.53-.88-.87-1.79-1.01-2.74-.14-.95-.09-1.89,.14-2.82,.24-.93,.64-1.78,1.21-2.56,.57-.78,1.29-1.44,2.17-1.97,.88-.53,1.8-.87,2.76-1.02s1.9-.11,2.83,.11c.92,.22,1.78,.61,2.56,1.17,.78,.56,1.44,1.28,1.97,2.16,.53,.88,.87,1.8,1,2.75,.14,.95,.09,1.89-.14,2.81-.23,.92-.63,1.78-1.21,2.56-.58,.78-1.3,1.44-2.18,1.98Zm-1-1.69c.62-.38,1.13-.85,1.53-1.4,.4-.56,.67-1.16,.83-1.82,.15-.66,.18-1.33,.07-2.03-.11-.7-.36-1.37-.75-2.02-.4-.66-.88-1.2-1.45-1.61-.57-.41-1.18-.7-1.83-.87s-1.32-.2-2-.11c-.68,.09-1.33,.33-1.95,.71-.64,.39-1.16,.86-1.56,1.42-.4,.56-.68,1.17-.84,1.82-.16,.66-.18,1.33-.07,2.02,.11,.69,.36,1.36,.76,2.01,.4,.66,.88,1.2,1.45,1.62,.57,.42,1.17,.72,1.83,.88,.65,.17,1.32,.2,2,.1,.68-.1,1.34-.34,1.98-.72Z"/>
      <path class="d" d="M43.84,19.11l-4.36-13.51,6.12-1.97c.9-.29,1.74-.38,2.53-.26,.78,.12,1.46,.41,2.03,.89,.57,.48,.99,1.11,1.25,1.91,.29,.89,.28,1.73-.01,2.54-.29,.81-.82,1.49-1.58,2.04l4.89,4.86-2.24,.72-4.58-4.64-3.8,1.23,1.79,5.54-2.03,.65Zm-.31-7.89l3.94-1.27c.8-.26,1.37-.67,1.72-1.23,.35-.56,.42-1.19,.19-1.89-.22-.67-.63-1.13-1.25-1.39s-1.32-.26-2.12,0l-3.94,1.27,1.45,4.5Z"/>
      <path class="d" d="M56.51,15.37l-1.73-14.09,10.39-1.28,.23,1.85-8.27,1.02,.52,4.23,5.44-.67,.22,1.79-5.44,.67,.54,4.37,8.35-1.03,.23,1.85-10.47,1.29Z"/>
      <path class="d" d="M79.86,4.09l3.76,4.98-4.43,4.2c-.52,.48-.99,.7-1.42,.67-.35-.03-.66-.18-.94-.47-.33-.24-.47-.58-.44-1.01,.03-.43,.19-.76,.47-1l1.48-1.44-7.75-.62c-.39-.03-.7-.19-.94-.47-.28-.32-.38-.7-.3-1.13,.07-.34,.22-.61,.45-.81,.28-.24,.61-.36,1.01-.37l7.75,.62-1.18-1.52c-.27-.41-.39-.79-.36-1.13,.07-.34,.27-.65,.59-.93,.27-.15,.56-.26,.87-.32,.52,0,.98,.25,1.37,.76Z"/>
      <path class="d" d="M89.35,1.91c1.34,1.38,2.23,2.97,2.65,4.75,.42,1.79,.36,3.68-.19,5.67s-1.47,3.65-2.75,4.97c-1.28,1.32-2.85,2.22-4.71,2.71l-.71-1.54c1.57-.44,2.89-1.23,3.98-2.37,1.09-1.15,1.87-2.57,2.34-4.28,.47-1.69,.53-3.32,.19-4.86-.34-1.55-1.08-2.9-2.2-4.07l1.41-.98Z"/>
    </g>
  </g>
</svg>