<?xml version="1.0" encoding="UTF-8"?>
<svg id="b" data-name="圖層 2" xmlns="http://www.w3.org/2000/svg" width="42.06" height="24.7" viewBox="0 0 42.06 24.7">
  <defs>
    <style>
      .d {
        fill: #f4ddbe;
      }
    </style>
  </defs>
  <g id="c" data-name="圖層 3">
    <g>
      <path class="d" d="M.7,15.78c.12,1.64,.73,3.44,2.34,5.28,1.58,1.81,3.27,2.63,4.88,3.02l-.7,.61c-1.38-.29-3.2-.99-4.93-2.98C.55,19.71,.1,17.81,0,16.39l.7-.61Z"/>
      <path class="d" d="M11.99,14.33c-.76-1.02-1.67-2.25-2.28-3.2l-.03,.02c.33,1.06,.64,2.21,.95,3.51l1.1,4.57-.74,.49-3.62-2.8c-1.07-.83-2.02-1.61-2.83-2.36l-.02,.02c.6,.96,1.39,2.27,2.08,3.45l1.95,3.38-.93,.62L3.11,14.1l1.25-.83,3.73,2.81c.93,.72,1.75,1.38,2.46,2.04l.03-.02c-.32-.89-.6-1.9-.9-3.08l-1.08-4.56,1.25-.83,5.5,7.27-.96,.63-2.4-3.2Z"/>
      <path class="d" d="M19.5,10.28l-3.2,1.51,1.4,2.97,3.56-1.68,.42,.89-4.63,2.18-3.88-8.23,4.44-2.09,.42,.89-3.38,1.59,1.23,2.6,3.2-1.51,.41,.88Z"/>
      <path class="d" d="M23.14,13.33l-2.83-8.65,1.22-.4,4.2,3.47c.97,.8,1.77,1.55,2.47,2.3l.02-.02c-.48-1.12-.85-2.17-1.29-3.51l-1.18-3.62,1.05-.34,2.83,8.65-1.13,.37-4.18-3.49c-.92-.77-1.82-1.56-2.56-2.36l-.03,.03c.42,1.07,.79,2.1,1.26,3.54l1.21,3.7-1.05,.34Z"/>
      <path class="d" d="M31.22,1.55l.96,5.3c.36,2.01,1.41,2.7,2.6,2.48,1.33-.24,2.02-1.27,1.66-3.25l-.96-5.3,1.17-.21,.94,5.22c.5,2.75-.75,4.14-2.69,4.49-1.83,.33-3.41-.47-3.91-3.25l-.95-5.28,1.17-.21Z"/>
      <path class="d" d="M39.83,11.04c.83-1.42,1.41-3.23,1.19-5.65-.22-2.41-1.1-4.06-2.19-5.3l.91-.08c.96,1.02,2.02,2.66,2.26,5.31,.24,2.63-.51,4.42-1.26,5.65l-.91,.08Z"/>
    </g>
  </g>
</svg>