<?xml version="1.0" encoding="UTF-8"?>
<svg id="b" data-name="圖層 2" xmlns="http://www.w3.org/2000/svg" width="45.38" height="17.89" viewBox="0 0 45.38 17.89">
  <defs>
    <style>
      .d {
        fill: #f4ddbe;
      }
    </style>
  </defs>
  <g id="c" data-name="圖層 3">
    <g>
      <path class="d" d="M.79,8.23c-.08,1.65,.3,3.5,1.66,5.54,1.34,2,2.92,3.02,4.46,3.61l-.78,.52c-1.33-.46-3.05-1.39-4.52-3.57C.15,12.1-.06,10.16,.01,8.74l.77-.52Z"/>
      <path class="d" d="M6.39,14.08c.62,.05,1.42-.05,2.15-.42,1.07-.54,1.41-1.42,1-2.24-.38-.76-1.04-.97-2.35-.84-1.56,.2-2.73-.07-3.31-1.22-.64-1.27-.06-2.74,1.52-3.53,.83-.42,1.53-.53,2-.51l.14,1c-.34-.01-1,.02-1.74,.39-1.11,.56-1.2,1.44-.92,1.99,.38,.76,1.07,.88,2.41,.75,1.64-.16,2.68,.15,3.28,1.34,.63,1.25,.25,2.81-1.67,3.77-.78,.4-1.76,.6-2.33,.53l-.18-1.01Z"/>
      <path class="d" d="M12.24,4.18l-2.62,.88-.32-.95L15.68,1.97l.32,.95-2.64,.89,2.59,7.68-1.13,.38-2.59-7.68Z"/>
      <path class="d" d="M26.14,4.6c.5,3.09-1.11,5.04-3.4,5.41-2.37,.38-4.34-1.18-4.78-3.9-.46-2.85,1-5.01,3.4-5.39,2.45-.4,4.34,1.22,4.78,3.88Zm-6.94,1.28c.31,1.92,1.63,3.47,3.46,3.17,1.84-.3,2.6-2.16,2.27-4.2-.29-1.79-1.53-3.5-3.46-3.18-1.92,.31-2.59,2.24-2.27,4.21Z"/>
      <path class="d" d="M28.35,.21C28.94,.08,29.79,0,30.6,0c1.26-.01,2.07,.21,2.64,.72,.46,.4,.72,1.02,.73,1.72,.01,1.2-.74,2.01-1.69,2.34v.04c.71,.24,1.13,.88,1.36,1.82,.31,1.27,.54,2.14,.73,2.49h-1.21c-.15-.24-.36-1.02-.63-2.16-.28-1.25-.77-1.72-1.84-1.75h-1.11l.04,3.95h-1.17l-.09-8.97Zm1.22,4.13h1.2c1.26-.03,2.04-.72,2.04-1.76-.01-1.18-.87-1.68-2.11-1.68-.57,0-.97,.06-1.16,.12l.03,3.32Z"/>
      <path class="d" d="M40.92,5.49l-3.52-.36-.33,3.26,3.92,.4-.1,.98-5.09-.52L36.72,.21l4.89,.5-.1,.98-3.72-.38-.29,2.86,3.52,.36-.1,.96Z"/>
      <path class="d" d="M41.45,11.56c1.2-1.12,2.28-2.7,2.75-5.08,.47-2.37,.1-4.21-.59-5.71l.9,.18c.63,1.25,1.18,3.13,.66,5.74-.52,2.6-1.74,4.1-2.82,5.06l-.9-.18Z"/>
    </g>
  </g>
</svg>