<?xml version="1.0" encoding="UTF-8"?>
<svg id="b" data-name="圖層 2" xmlns="http://www.w3.org/2000/svg" width="63.93" height="35.35" viewBox="0 0 63.93 35.35">
  <defs>
    <style>
      .d {
        fill: #f4ddbe;
      }

      .e {
        fill: #fbe0bc;
      }
    </style>
  </defs>
  <g id="c" data-name="b">
    <g>
      <path class="d" d="M10.52,32.08c-.44,.95-1.08,1.7-1.9,2.26-.83,.56-1.8,.89-2.91,.99s-2.13-.05-3.05-.44-1.67-1.02-2.28-1.87l.65-.66c.52,.71,1.18,1.23,1.97,1.57,.79,.33,1.66,.46,2.62,.37,.95-.09,1.78-.37,2.5-.84,.72-.47,1.27-1.1,1.64-1.9l.77,.53Z"/>
      <path class="e" d="M0,29.16l.2-1.21,4.51-.82c.58-.09,1.17-.18,1.75-.29v-.05c-.51-.28-1.04-.54-1.56-.82L.9,23.74l.2-1.21,7.95,1.32-.16,.94-4.41-.73c-.68-.11-1.64-.35-2.32-.52v.04l1.7,.93,3.88,2.19-.11,.67-4.38,.82-1.92,.33v.04c.69,.07,1.67,.16,2.36,.27l4.41,.73-.15,.91-7.95-1.32Z"/>
      <path class="e" d="M2.74,18.29l2.23-4.09,.75,.41-1.74,3.19,2.22,1.21,1.47-2.68,.76,.42-1.47,2.68,2.58,1.41,1.8-3.29,.76,.42-2.29,4.19-7.08-3.87Z"/>
      <path class="e" d="M7.4,11l.77-.72,5.62,1.69,1.76,.62,.04-.04c-.6-.56-1.27-1.16-1.84-1.77l-2.87-3.05,.71-.66,5.52,5.87-.76,.72-5.63-1.7-1.77-.61-.03,.03c.59,.56,1.23,1.13,1.81,1.75l2.9,3.08-.71,.66-5.52-5.87Z"/>
      <path class="e" d="M17.23,8.91l-1.99-4.29,.93-.43,2,4.32c.82,1.77,1.82,1.97,2.77,1.53,.98-.45,1.49-1.36,.67-3.12l-2-4.32,.89-.41,1.99,4.29c1.09,2.35,.32,3.68-1.17,4.37-1.49,.69-2.99,.42-4.08-1.94Z"/>
      <path class="e" d="M25.9,.16l.71-.16-.91,11.15-.72,.16L25.9,.16Z"/>
      <path class="e" d="M29.05,7.34l.58-.71c.6,.58,1.43,.95,2.27,.92,1.05-.04,1.67-.59,1.64-1.38-.03-.82-.62-1.07-1.39-1.38l-1.18-.46c-.76-.29-1.67-.83-1.71-2.01-.04-1.24,1-2.18,2.46-2.23,.96-.03,1.82,.34,2.41,.91l-.52,.67c-.51-.44-1.12-.72-1.86-.69-.91,.03-1.49,.52-1.46,1.24,.03,.78,.74,1.05,1.38,1.29l1.17,.45c.95,.37,1.69,.9,1.74,2.09,.05,1.27-.97,2.32-2.65,2.38-1.14,.04-2.14-.38-2.87-1.1Z"/>
      <path class="e" d="M38.69,1.47l-2.41-.39,.14-.85,5.83,.94-.14,.85-2.41-.39-1.15,7.12-1.01-.16,1.15-7.12Z"/>
      <path class="e" d="M43.09,5.48c1.06-2.36,3-3.21,4.84-2.39,1.85,.83,2.5,2.84,1.44,5.2-1.06,2.36-3.01,3.25-4.86,2.43s-2.48-2.88-1.42-5.24Zm5.33,2.39c.83-1.85,.46-3.37-.85-3.96-1.33-.59-2.7,.15-3.53,2-.82,1.84-.49,3.41,.83,4,1.32,.59,2.72-.2,3.54-2.04Z"/>
      <path class="e" d="M52.12,15.86l.83-3.85-1.08-.97-2.29,2.54-.76-.68,5.39-5.99,1.88,1.69c1.22,1.1,1.7,2.32,.58,3.57-.84,.93-1.88,1-2.87,.46l-.82,4.01-.86-.77Zm.3-5.44l1.01,.9c.94,.85,1.79,.93,2.49,.16,.71-.79,.45-1.54-.49-2.38l-1.01-.9-2,2.22Z"/>
      <path class="e" d="M60.47,13.43l2.39,3.99-.74,.44-1.87-3.11-2.17,1.3,1.57,2.62-.75,.45-1.57-2.62-2.52,1.51,1.93,3.22-.75,.45-2.46-4.09,6.91-4.15Z"/>
      <path class="d" d="M63.93,20.64c-.24,1.02-.71,1.88-1.4,2.6-.69,.72-1.58,1.24-2.65,1.57s-2.1,.39-3.08,.19c-.98-.2-1.85-.66-2.61-1.37l.5-.77c.66,.59,1.41,.96,2.25,1.13,.84,.16,1.72,.1,2.64-.18,.91-.28,1.67-.72,2.28-1.33,.61-.61,1.01-1.34,1.22-2.19l.86,.36Z"/>
    </g>
  </g>
</svg>