<?xml version="1.0" encoding="UTF-8"?>
<svg id="b" data-name="圖層 2" xmlns="http://www.w3.org/2000/svg" width="374.94" height="456.43" viewBox="0 0 374.94 456.43">
  <defs>
    <style>
      .d {
        fill: #0c1219;
      }

      .e {
        fill: #ea5504;
      }
    </style>
  </defs>
  <g id="c" data-name="設計">
    <path class="e" d="M309.32,0H0V254.08c24.31,36.26,54.26,69.62,89.75,98.74,83.76,68.74,184.66,102.71,285.19,103.61V65.04c-14.29,.02-28.69-4.61-40.77-14.17-16.18-12.82-24.68-31.72-24.85-50.87Z"/>
    <g>
      <path class="d" d="M116.88,345.96c-.24-.57-.32-1.17-.25-1.79s.31-1.19,.7-1.7,.87-.9,1.44-1.15c.57-.25,1.17-.33,1.79-.26,.62,.07,1.19,.31,1.72,.7,.53,.4,.91,.88,1.16,1.45,.25,.57,.33,1.16,.25,1.77s-.31,1.18-.7,1.7c-.39,.52-.88,.91-1.45,1.15-.58,.25-1.17,.33-1.79,.26-.62-.07-1.19-.31-1.71-.7-.52-.39-.9-.87-1.15-1.45Zm2.92,1.59c.52,.06,1.02-.02,1.5-.23,.48-.21,.89-.54,1.22-.98s.53-.92,.6-1.43c.07-.51,0-1.01-.2-1.48-.2-.48-.53-.88-.97-1.22-.45-.34-.93-.53-1.45-.59-.52-.06-1.02,.01-1.5,.22-.48,.21-.88,.53-1.21,.98-.33,.44-.53,.92-.6,1.44-.07,.52,0,1.02,.2,1.5s.52,.89,.97,1.22,.92,.53,1.44,.58Zm-1.51-2.13c-.15-.33-.21-.67-.17-1.03,.04-.36,.18-.69,.42-1.01,.24-.31,.52-.54,.85-.68,.33-.14,.67-.18,1.04-.13,.36,.05,.7,.2,1.03,.45,.3,.22,.52,.49,.66,.78,.14,.3,.19,.6,.16,.91l-.87-.05c.03-.39-.12-.71-.46-.97-.26-.2-.54-.27-.85-.23s-.56,.21-.78,.5c-.22,.29-.3,.58-.26,.89,.04,.3,.2,.55,.46,.75,.34,.26,.69,.31,1.06,.17l.31,.81c-.29,.13-.61,.17-.93,.12-.33-.05-.64-.18-.94-.41-.33-.24-.56-.53-.72-.86Z"/>
      <path class="d" d="M127.91,353.22l-.64,.89-4.19-3.01,.51-.71,3.8-.52c.43-.06,.75-.15,.97-.27,.22-.12,.39-.27,.52-.44,.19-.26,.25-.53,.17-.8-.08-.27-.29-.53-.64-.78-.58-.42-1.17-.54-1.76-.36l-.33-1.1c.44-.14,.9-.16,1.4-.05,.49,.1,.97,.32,1.44,.66,.62,.44,1,.94,1.16,1.5s.06,1.09-.3,1.59c-.22,.31-.49,.55-.82,.73s-.79,.31-1.41,.39l-2.56,.36,2.68,1.92Z"/>
      <path class="d" d="M128.87,354.84c-.2-.48-.25-1.02-.14-1.61,.1-.59,.37-1.19,.79-1.8,.43-.61,.9-1.07,1.42-1.37s1.04-.44,1.56-.42,1.01,.19,1.47,.51,.79,.72,.99,1.21c.2,.49,.25,1.02,.15,1.62s-.37,1.19-.79,1.8c-.43,.61-.9,1.07-1.42,1.37s-1.04,.44-1.57,.42c-.53-.02-1.02-.19-1.48-.51s-.79-.72-.99-1.21Zm2.96,.45c.47-.17,.95-.6,1.42-1.27,.47-.67,.7-1.26,.7-1.77,0-.51-.21-.9-.62-1.19-.4-.28-.84-.34-1.32-.16s-.95,.6-1.42,1.27c-.47,.67-.7,1.26-.7,1.77,0,.5,.21,.9,.61,1.18,.41,.29,.85,.34,1.33,.17Z"/>
      <path class="d" d="M137.47,359.81l-.62,.91-4.27-2.89,.49-.72,3.78-.63c.43-.07,.75-.17,.97-.29s.39-.28,.51-.46c.18-.27,.23-.54,.15-.81s-.3-.52-.66-.76c-.59-.4-1.18-.5-1.77-.32l-.36-1.09c.43-.15,.9-.18,1.39-.09s.98,.3,1.46,.62c.63,.43,1.03,.92,1.2,1.47,.17,.55,.09,1.08-.26,1.6-.21,.31-.48,.57-.8,.75-.32,.19-.79,.33-1.4,.43l-2.55,.42,2.73,1.85Z"/>
      <path class="d" d="M143.09,362.92l-1.04-.68-.88,1.33-1.05-.69,.87-1.33-3.21-2.11,.49-.75,5.36-1.87,1.16,.76-5.08,1.81,1.91,1.26,.78-1.18,1.02,.67-.78,1.18,1.04,.68-.61,.92Z"/>
      <path class="d" d="M148.33,364.66l-1.55,.37-.95,1.52-1.1-.69,3.72-5.93,1.1,.69-1.91,3.04,4.84-1.2,1.24,.78-4.15,1.08,.58,4.94-1.29-.81-.53-3.79Z"/>
      <path class="d" d="M151.67,369.75c-.33-.56-.49-1.16-.49-1.8s.18-1.25,.54-1.83,.81-1.02,1.38-1.32c.56-.3,1.17-.44,1.82-.41,.65,.03,1.28,.23,1.89,.6,.61,.37,1.08,.83,1.41,1.4,.33,.56,.49,1.16,.49,1.8s-.18,1.25-.54,1.84c-.36,.59-.81,1.03-1.38,1.33-.56,.3-1.17,.43-1.82,.4-.65-.03-1.28-.23-1.89-.6-.61-.37-1.08-.83-1.41-1.4Zm3.24,.8c.43,.01,.83-.09,1.21-.3,.38-.21,.69-.52,.93-.92s.37-.82,.38-1.25c.01-.43-.09-.83-.3-1.21s-.52-.68-.92-.92c-.4-.24-.81-.37-1.24-.38s-.83,.08-1.21,.3-.69,.52-.93,.92c-.24,.4-.37,.82-.38,1.25-.01,.43,.09,.84,.3,1.21s.52,.68,.91,.92c.4,.24,.81,.37,1.24,.38Z"/>
      <path class="d" d="M160.75,367.46l1.12,.66-3.55,6.03-1.12-.66,3.55-6.03Z"/>
      <path class="d" d="M165.77,371.65l-2.02-1.15,.54-.96,5.17,2.93-.54,.96-2.02-1.15-2.91,5.13-1.13-.64,2.91-5.13Z"/>
      <path class="d" d="M172.79,376.8c.17,.54,.07,1.15-.31,1.83l-1.47,2.68-1.1-.6,1.4-2.54c.22-.41,.3-.77,.22-1.08-.08-.31-.3-.57-.65-.76-.4-.22-.79-.28-1.15-.16-.37,.11-.68,.4-.93,.86l-1.3,2.37-1.1-.6,3.57-6.5,1.1,.6-1.3,2.37c.29-.09,.59-.12,.91-.07s.65,.16,.97,.33c.59,.32,.97,.76,1.14,1.3Z"/>
      <path class="d" d="M177.56,382.22l-3.7-1.96c-.12,.38-.1,.75,.07,1.09s.45,.63,.86,.85c.52,.27,1.04,.33,1.55,.17l.23,.99c-.35,.14-.71,.19-1.11,.15-.39-.04-.79-.17-1.2-.39-.52-.28-.92-.62-1.21-1.04-.29-.42-.44-.86-.46-1.35-.02-.48,.09-.96,.34-1.42,.24-.46,.57-.82,.97-1.08s.85-.39,1.33-.4c.48,0,.95,.11,1.42,.36,.46,.24,.82,.56,1.07,.96,.25,.4,.39,.83,.39,1.31s-.12,.96-.37,1.44c-.04,.08-.1,.18-.19,.32Zm-2.43-3.3c-.36,.08-.65,.28-.89,.6l2.68,1.42c.13-.37,.14-.72,0-1.06-.13-.34-.37-.6-.73-.8-.35-.19-.71-.24-1.06-.16Zm2.91-2.3l1.3,.69-2.18,.4-.95-.51,1.83-.58Z"/>
      <path class="d" d="M184.18,386.32l-3.13-1.57-1.34,1.14-1.2-.6,5.96-4.83,1.14,.58-.33,7.67-1.21-.61,.1-1.76Zm.07-1.1l.2-3.33-2.55,2.14,2.35,1.18Z"/>
      <path class="d" d="M188.77,382.59l1.17,.57-2.58,5.31,3.29,1.6-.48,.99-4.46-2.17,3.05-6.3Z"/>
      <path class="d" d="M193.72,384.98l1.18,.55-2.51,5.34,3.31,1.55-.47,1-4.49-2.11,2.97-6.34Z"/>
      <path class="d" d="M202.09,396.5l-.47-2.45c-.06-.02-.14-.05-.25-.1l-1.44-.64-.83,1.86-1.19-.53,2.84-6.4,2.63,1.17c.55,.25,1,.55,1.33,.92,.33,.37,.53,.77,.6,1.21s0,.89-.21,1.36c-.21,.48-.51,.84-.9,1.09-.39,.24-.84,.35-1.35,.33l.54,2.76-1.28-.57Zm1.82-5.25c-.17-.34-.52-.62-1.03-.85l-1.39-.62-1.13,2.55,1.39,.62c.52,.23,.96,.29,1.33,.19,.37-.1,.64-.36,.82-.77,.18-.41,.19-.78,.02-1.12Z"/>
      <path class="d" d="M206.99,391l1.19,.51-2.77,6.43-1.19-.51,2.77-6.43Z"/>
      <path class="d" d="M212.56,397.07l1.14,.47-1.07,2.58c-.44,.13-.92,.17-1.42,.12-.5-.04-.99-.16-1.45-.36-.66-.28-1.19-.67-1.6-1.17s-.66-1.08-.75-1.71c-.09-.63,0-1.26,.26-1.9s.65-1.14,1.16-1.52,1.09-.6,1.75-.66c.65-.06,1.31,.04,1.97,.32,.54,.23,1,.52,1.37,.88,.37,.36,.63,.78,.79,1.25l-1.06,.42c-.29-.7-.78-1.19-1.47-1.48-.46-.19-.9-.26-1.33-.22-.43,.04-.82,.2-1.17,.46s-.61,.61-.79,1.06c-.18,.43-.24,.86-.18,1.29,.06,.43,.22,.81,.49,1.16,.27,.34,.63,.61,1.08,.8,.5,.21,.99,.28,1.47,.22l.84-2.01Z"/>
      <path class="d" d="M221.88,397.11l-2.58,6.51-1.21-.48,1.11-2.79-3.37-1.33-1.11,2.79-1.21-.48,2.58-6.51,1.21,.48-1.06,2.69,3.37,1.33,1.06-2.69,1.21,.48Z"/>
      <path class="d" d="M224.08,399.12l-2.17-.82,.39-1.03,5.56,2.1-.39,1.03-2.17-.82-2.09,5.52-1.22-.46,2.09-5.52Z"/>
      <path class="d" d="M226.46,406.18c-.42-.32-.73-.64-.92-.98l.77-.8c.19,.31,.46,.6,.8,.88,.34,.28,.71,.49,1.11,.63,.49,.18,.88,.23,1.18,.16,.3-.07,.49-.23,.59-.49,.07-.19,.06-.37-.03-.54-.09-.17-.23-.33-.41-.47-.18-.14-.44-.33-.76-.54-.46-.3-.82-.57-1.09-.8-.27-.23-.46-.51-.6-.85-.13-.33-.12-.72,.04-1.15,.13-.36,.35-.66,.66-.88s.69-.35,1.15-.39,.98,.06,1.56,.27c.4,.15,.78,.34,1.13,.58,.35,.24,.64,.51,.85,.8l-.73,.81c-.23-.27-.48-.51-.76-.71-.28-.2-.57-.36-.87-.46-.48-.18-.87-.22-1.16-.15-.29,.08-.49,.25-.59,.52-.07,.19-.06,.37,.04,.53,.09,.17,.23,.32,.41,.47,.18,.14,.43,.33,.76,.54,.45,.29,.81,.55,1.08,.79,.27,.24,.47,.52,.6,.85,.13,.33,.12,.71-.03,1.14-.13,.36-.35,.66-.65,.88-.3,.22-.69,.35-1.15,.38-.46,.03-.99-.06-1.56-.27-.51-.18-.97-.43-1.39-.75Z"/>
      <path class="d" d="M237.95,410.35l-.69-2.4c-.06-.01-.15-.04-.26-.08l-1.5-.51-.66,1.93-1.23-.42,2.25-6.63,2.73,.93c.57,.2,1.04,.46,1.4,.79,.36,.33,.6,.72,.7,1.15,.11,.43,.08,.89-.09,1.38-.17,.5-.44,.89-.8,1.16s-.8,.43-1.32,.45l.79,2.7-1.33-.45Zm1.34-5.4c-.2-.32-.57-.57-1.11-.76l-1.44-.49-.9,2.64,1.44,.49c.54,.18,.98,.21,1.34,.07,.36-.14,.61-.42,.75-.84s.12-.8-.08-1.12Z"/>
      <path class="d" d="M245.47,411.65l-.33,1.04-5-1.61,2.15-6.66,4.86,1.57-.33,1.04-3.63-1.17-.56,1.73,3.22,1.04-.33,1.02-3.22-1.04-.59,1.84,3.76,1.21Z"/>
      <path class="d" d="M246.74,413.05c-.44-.29-.76-.61-.96-.93l.73-.83c.21,.3,.49,.58,.85,.84,.36,.26,.73,.45,1.14,.57,.5,.15,.89,.19,1.19,.1,.29-.08,.48-.26,.56-.52,.06-.19,.04-.37-.06-.54-.1-.17-.24-.32-.43-.45-.19-.13-.45-.3-.79-.5-.47-.28-.85-.53-1.13-.74-.28-.22-.49-.49-.64-.82-.15-.33-.15-.71-.02-1.15,.11-.37,.32-.67,.61-.92,.29-.24,.67-.39,1.13-.44,.46-.05,.98,0,1.57,.19,.41,.13,.79,.3,1.16,.52,.36,.22,.66,.47,.89,.75l-.69,.85c-.24-.26-.51-.49-.8-.67-.29-.19-.59-.33-.89-.42-.49-.15-.88-.18-1.17-.09-.29,.09-.48,.28-.56,.55-.06,.19-.04,.37,.06,.53,.1,.16,.24,.31,.43,.45,.19,.13,.45,.3,.79,.5,.46,.27,.83,.51,1.11,.73,.28,.22,.5,.5,.64,.82s.16,.7,.02,1.14c-.11,.37-.32,.67-.61,.91s-.67,.38-1.13,.44c-.46,.05-.99,0-1.57-.19-.52-.16-.99-.38-1.43-.68Z"/>
      <path class="d" d="M257.06,415.13l-.3,1.05-5.04-1.47,1.96-6.72,4.91,1.43-.3,1.05-3.66-1.07-.51,1.75,3.24,.95-.3,1.03-3.24-.95-.54,1.85,3.79,1.1Z"/>
      <path class="d" d="M262.17,417.67l-.84-2.36c-.06,0-.15-.03-.26-.06l-1.52-.42-.54,1.97-1.25-.34,1.85-6.75,2.78,.76c.58,.16,1.07,.4,1.45,.71,.38,.31,.64,.68,.77,1.1,.13,.42,.13,.88,0,1.38-.14,.51-.38,.91-.73,1.21-.35,.3-.78,.47-1.29,.53l.94,2.64-1.35-.37Zm1.01-5.47c-.22-.31-.6-.54-1.15-.69l-1.46-.4-.74,2.69,1.47,.4c.55,.15,.99,.15,1.34,0,.35-.16,.58-.45,.7-.88s.07-.8-.15-1.11Z"/>
      <path class="d" d="M272.35,413.08l-4.7,6.02-1.24-.32-1.22-7.54,1.37,.35,.91,5.81,3.62-4.64,1.26,.32Z"/>
      <path class="d" d="M276.28,420.1l-.25,1.06-5.1-1.23,1.64-6.8,4.97,1.2-.26,1.06-3.7-.89-.43,1.77,3.29,.79-.25,1.04-3.29-.79-.45,1.88,3.84,.93Z"/>
      <path class="d" d="M278.54,414.56l2.99,.67c.73,.16,1.34,.45,1.85,.86s.85,.91,1.05,1.5c.2,.59,.22,1.22,.07,1.9s-.44,1.24-.87,1.69c-.43,.45-.96,.75-1.59,.91-.63,.16-1.31,.15-2.04,0l-2.99-.67,1.53-6.83Zm1.64,6.41c.5,.11,.96,.11,1.39,0,.42-.11,.78-.31,1.06-.62,.29-.31,.48-.7,.58-1.17,.11-.47,.09-.9-.03-1.3-.13-.4-.36-.74-.7-1.02-.34-.28-.76-.47-1.26-.58l-1.66-.37-1.05,4.68,1.66,.37Z"/>
      <path class="d" d="M284.22,422.81c-.12-.19-.16-.4-.11-.63,.05-.24,.17-.42,.35-.54,.18-.12,.39-.15,.62-.1,.23,.05,.4,.16,.53,.35,.12,.18,.16,.39,.11,.64-.05,.24-.17,.41-.36,.53-.19,.12-.39,.16-.62,.11-.22-.05-.39-.16-.52-.35Z"/>
    </g>
  </g>
</svg>