<?xml version="1.0" encoding="UTF-8"?>
<svg id="b" data-name="圖層 2" xmlns="http://www.w3.org/2000/svg" width="452.35" height="452.35" viewBox="0 0 452.35 452.35">
  <defs>
    <style>
      .d {
        fill: #0c131b;
      }

      .e {
        fill: #ea5504;
      }
    </style>
  </defs>
  <g id="c" data-name="b">
    <path class="e" d="M387.38,0H0C0,249.83,202.52,452.35,452.35,452.35V64.97c-35.88,0-64.97-29.09-64.97-64.97Z"/>
    <g>
      <path class="d" d="M171.6,326.86c-.24-.58-.34-1.19-.26-1.81,.08-.63,.3-1.21,.7-1.73s.88-.92,1.45-1.18,1.19-.35,1.81-.27c.63,.07,1.22,.3,1.75,.71,.54,.4,.93,.88,1.19,1.46,.25,.57,.34,1.18,.27,1.8-.08,.63-.31,1.2-.71,1.74-.39,.53-.88,.92-1.47,1.19-.58,.25-1.2,.35-1.82,.27-.63-.07-1.21-.3-1.75-.7s-.92-.88-1.18-1.46l.02-.02Zm2.97,1.6c.53,.05,1.04-.02,1.52-.24,.49-.22,.91-.55,1.24-1,.33-.46,.53-.94,.61-1.45,.06-.52,0-1.02-.21-1.5s-.54-.9-1-1.24-.95-.54-1.48-.6c-.53-.06-1.03,.01-1.52,.23-.48,.22-.9,.55-1.23,1-.33,.46-.53,.94-.6,1.46s0,1.03,.21,1.52,.54,.9,.99,1.24c.46,.33,.94,.53,1.48,.59h0Zm-1.55-2.17c-.16-.34-.21-.68-.17-1.05,.05-.36,.18-.7,.42-1.02,.23-.32,.53-.56,.86-.69,.34-.15,.69-.19,1.05-.13s.71,.2,1.05,.45c.3,.22,.53,.49,.67,.79s.19,.61,.17,.93l-.89-.04c.04-.41-.13-.74-.48-.99-.27-.2-.56-.28-.86-.23-.31,.05-.57,.21-.79,.51-.21,.29-.31,.6-.26,.9,.05,.31,.21,.56,.47,.76,.35,.26,.71,.31,1.07,.17l.31,.81c-.3,.13-.62,.17-.95,.13s-.65-.19-.95-.41c-.33-.24-.58-.54-.73-.87h.02Z"/>
      <path class="d" d="M182.83,334.24l-.65,.91-4.26-3.07,.51-.72,3.86-.53c.43-.06,.77-.15,.99-.27s.4-.27,.53-.45c.19-.27,.25-.54,.18-.81-.08-.27-.3-.53-.65-.79-.59-.43-1.19-.55-1.79-.37l-.33-1.12c.45-.14,.92-.16,1.42-.05,.51,.11,.99,.33,1.46,.68,.63,.45,1.02,.97,1.18,1.52s.05,1.1-.31,1.62c-.22,.31-.51,.56-.83,.74-.33,.18-.8,.31-1.44,.4l-2.6,.35,2.73,1.96v-.02Z"/>
      <path class="d" d="M183.8,335.89c-.2-.49-.24-1.04-.14-1.64,.11-.6,.38-1.21,.82-1.83,.44-.62,.92-1.08,1.45-1.39,.53-.31,1.06-.44,1.59-.42s1.03,.2,1.5,.53c.47,.33,.8,.75,1,1.24,.2,.5,.24,1.04,.14,1.64-.11,.6-.38,1.21-.82,1.83-.44,.62-.92,1.08-1.45,1.39-.53,.31-1.06,.44-1.6,.42s-1.03-.21-1.5-.53c-.47-.33-.8-.74-1-1.24h0Zm3,.47c.49-.17,.97-.6,1.45-1.28,.48-.68,.73-1.28,.72-1.79,0-.51-.21-.92-.62-1.21s-.86-.35-1.34-.18c-.49,.17-.97,.6-1.45,1.28-.48,.68-.73,1.28-.72,1.79s.2,.91,.61,1.21c.42,.29,.86,.36,1.34,.18h0Z"/>
      <path class="d" d="M192.5,341.02l-.64,.92-4.31-3,.5-.73,3.85-.59c.43-.07,.77-.17,.98-.29,.23-.12,.39-.27,.52-.46,.19-.27,.24-.55,.16-.81-.08-.27-.31-.53-.66-.78-.59-.42-1.2-.52-1.8-.34l-.35-1.12c.44-.15,.92-.17,1.41-.08s1,.31,1.47,.65c.63,.44,1.04,.94,1.2,1.51,.17,.57,.07,1.1-.28,1.62-.22,.32-.5,.57-.82,.75-.33,.19-.81,.32-1.43,.42l-2.59,.4,2.76,1.91h.02Z"/>
      <path class="d" d="M198.18,344.29l-1.04-.71-.91,1.34-1.06-.72,.91-1.34-3.23-2.2,.51-.76,5.48-1.82,1.17,.79-5.19,1.76,1.92,1.31,.8-1.19,1.03,.7-.8,1.19,1.04,.71-.63,.92h0Z"/>
      <path class="d" d="M203.49,346.19l-1.58,.35-1,1.52-1.1-.73,3.92-5.94,1.1,.73-2.01,3.04,4.94-1.11,1.23,.82-4.25,1.01,.48,5.03-1.29-.85-.45-3.87h0Z"/>
      <path class="d" d="M206.76,351.45c-.31-.58-.47-1.19-.45-1.84,.03-.65,.23-1.26,.59-1.85,.38-.58,.86-1.01,1.44-1.31s1.2-.41,1.87-.36,1.3,.27,1.9,.67c.61,.4,1.07,.88,1.4,1.46,.31,.58,.47,1.19,.45,1.84s-.23,1.26-.6,1.85c-.38,.58-.86,1.02-1.44,1.31s-1.2,.41-1.86,.36-1.3-.27-1.9-.67c-.61-.4-1.07-.88-1.4-1.46h0Zm3.27,.9c.43,.02,.84-.06,1.23-.27s.71-.51,.97-.91c.26-.4,.4-.81,.43-1.25,.02-.44-.06-.85-.27-1.23-.2-.39-.51-.7-.91-.96-.4-.26-.81-.4-1.25-.43-.44-.02-.84,.06-1.23,.27s-.71,.51-.97,.91c-.26,.4-.4,.81-.43,1.25-.02,.44,.06,.85,.27,1.23,.2,.39,.51,.7,.91,.96,.4,.26,.81,.4,1.25,.43Z"/>
      <path class="d" d="M216.08,349.41l1.12,.71-3.8,6.02-1.12-.71,3.8-6.02Z"/>
      <path class="d" d="M221.06,353.86l-2.01-1.24,.58-.95,5.13,3.18-.59,.95-2.01-1.24-3.16,5.1-1.12-.69,3.15-5.1h.02Z"/>
      <path class="d" d="M227.99,359.39c.15,.56,.02,1.17-.39,1.84l-1.61,2.66-1.09-.66,1.52-2.52c.25-.41,.33-.77,.27-1.09s-.27-.59-.63-.81c-.4-.24-.79-.32-1.16-.21s-.71,.38-.98,.83l-1.43,2.35-1.09-.66,3.91-6.45,1.09,.66-1.43,2.35c.29-.09,.6-.09,.93-.04,.33,.05,.65,.19,.97,.38,.58,.36,.95,.81,1.1,1.37h.01Z"/>
      <path class="d" d="M232.63,365.15l-3.67-2.18c-.14,.38-.13,.75,.02,1.11,.15,.36,.43,.66,.83,.9,.52,.3,1.03,.39,1.57,.24l.18,1.02c-.36,.12-.74,.16-1.14,.1-.4-.06-.79-.22-1.2-.45-.52-.3-.9-.67-1.17-1.11-.27-.43-.4-.9-.4-1.39s.14-.96,.41-1.42,.62-.8,1.04-1.04,.88-.35,1.37-.34c.49,.02,.96,.15,1.42,.43,.46,.27,.8,.62,1.05,1.03s.35,.87,.34,1.35c-.02,.48-.16,.96-.44,1.44-.04,.08-.12,.17-.2,.31h-.01Zm-2.31-3.46c-.36,.06-.67,.25-.94,.57l2.65,1.57c.16-.36,.17-.72,.06-1.08-.11-.36-.35-.64-.7-.84s-.71-.28-1.07-.22h0Zm3.07-2.2l1.29,.76-2.24,.3-.95-.56,1.89-.5h0Z"/>
      <path class="d" d="M239.14,369.68l-3.08-1.77-1.43,1.08-1.18-.67,6.32-4.57,1.13,.65-.76,7.77-1.2-.68,.2-1.78v-.02Zm.14-1.11l.39-3.37-2.7,2.03,2.32,1.33h0Z"/>
      <path class="d" d="M244.04,366.18l1.15,.64-2.94,5.23,3.24,1.82-.54,.98-4.39-2.47,3.48-6.2Z"/>
      <path class="d" d="M248.95,368.93l1.16,.63-2.89,5.26,3.26,1.8-.53,.98-4.42-2.43,3.43-6.23h-.02Z"/>
      <path class="d" d="M256.7,381.21l-.31-2.53c-.06-.02-.14-.07-.24-.12l-1.42-.75-.97,1.83-1.16-.62,3.34-6.28,2.58,1.38c.55,.29,.97,.63,1.28,1.03,.31,.39,.48,.81,.51,1.26,.04,.45-.07,.91-.31,1.37-.25,.47-.59,.81-1,1.04-.41,.22-.87,.3-1.4,.24l.34,2.84-1.25-.67h.01Zm2.22-5.21c-.15-.36-.48-.67-.99-.94l-1.37-.73-1.33,2.5,1.36,.73c.51,.27,.95,.36,1.33,.29,.38-.07,.67-.32,.89-.72s.25-.78,.1-1.14h0Z"/>
      <path class="d" d="M262.09,376l1.17,.61-3.29,6.31-1.17-.61,3.29-6.31Z"/>
      <path class="d" d="M267.27,382.59l1.12,.57-1.29,2.52c-.45,.09-.95,.1-1.44,.02-.51-.08-.99-.24-1.44-.47-.65-.33-1.16-.77-1.53-1.32s-.58-1.15-.62-1.79,.1-1.28,.42-1.9c.32-.62,.75-1.11,1.31-1.44s1.15-.52,1.83-.54c.66-.01,1.32,.15,1.98,.48,.53,.27,.96,.6,1.32,1,.34,.4,.57,.84,.7,1.33l-1.12,.34c-.24-.73-.69-1.27-1.38-1.62-.45-.23-.9-.34-1.34-.33s-.85,.13-1.22,.37c-.37,.23-.67,.57-.89,1.01-.22,.42-.32,.86-.29,1.29,.02,.44,.16,.84,.41,1.21,.24,.37,.59,.67,1.03,.9,.49,.25,.98,.36,1.47,.35l1.01-1.98-.02,.02Z"/>
      <path class="d" d="M276.73,383.45l-3.17,6.37-1.18-.59,1.36-2.73-3.29-1.64-1.36,2.73-1.18-.59,3.17-6.38,1.18,.59-1.31,2.63,3.29,1.64,1.31-2.63,1.18,.59h0Z"/>
      <path class="d" d="M278.83,385.71l-2.13-1.03,.49-1.01,5.44,2.64-.49,1.01-2.13-1.03-2.61,5.4-1.19-.57,2.62-5.4h0Z"/>
      <path class="d" d="M280.57,393.06c-.39-.36-.67-.72-.83-1.08l.85-.73c.17,.34,.41,.66,.73,.97s.68,.56,1.06,.75c.48,.23,.87,.32,1.18,.27,.31-.04,.52-.19,.64-.44,.09-.19,.1-.37,.02-.55s-.19-.36-.37-.52c-.17-.17-.41-.37-.72-.62-.43-.35-.77-.66-1.02-.92s-.43-.57-.52-.91c-.1-.36-.05-.73,.15-1.16,.17-.35,.42-.63,.75-.83s.73-.3,1.2-.28,.98,.15,1.55,.42c.39,.19,.75,.41,1.09,.7s.59,.58,.78,.89l-.81,.74c-.21-.3-.44-.56-.71-.79s-.54-.41-.83-.55c-.47-.22-.86-.31-1.16-.26-.3,.05-.52,.21-.64,.47-.09,.19-.1,.37-.02,.54,.07,.18,.19,.35,.37,.52,.17,.17,.4,.37,.71,.62,.43,.34,.76,.63,1.01,.91s.43,.57,.53,.91c.1,.35,.06,.73-.14,1.14-.17,.35-.42,.63-.75,.83s-.73,.29-1.2,.28-.99-.15-1.55-.42c-.5-.23-.94-.53-1.34-.89h0Z"/>
      <path class="d" d="M291.77,398.42l-.46-2.5c-.06-.02-.14-.06-.26-.1l-1.46-.67-.86,1.88-1.21-.55,2.96-6.47,2.66,1.22c.56,.26,1.01,.58,1.34,.95s.53,.78,.6,1.24-.01,.91-.23,1.38c-.22,.49-.53,.85-.93,1.09s-.86,.35-1.39,.32l.52,2.81-1.3-.59h.02Zm1.91-5.32c-.17-.35-.51-.64-1.04-.88l-1.4-.64-1.18,2.58,1.4,.64c.52,.24,.98,.31,1.34,.21,.37-.1,.66-.36,.85-.77s.2-.79,.03-1.14h0Z"/>
      <path class="d" d="M299.23,400.54l-.46,1.01-4.88-2.17,2.89-6.5,4.75,2.11-.46,1.01-3.54-1.58-.76,1.69,3.14,1.4-.44,.99-3.14-1.4-.8,1.8,3.67,1.64h.02Z"/>
      <path class="d" d="M300.35,402.09c-.4-.35-.7-.7-.86-1.05l.82-.76c.18,.33,.43,.64,.76,.94s.69,.54,1.08,.71c.48,.21,.88,.29,1.19,.24,.3-.06,.52-.21,.63-.46,.08-.19,.08-.37,0-.55-.08-.18-.21-.35-.39-.51s-.42-.36-.73-.59c-.45-.33-.79-.63-1.05-.88s-.44-.55-.55-.9-.08-.73,.11-1.17c.16-.36,.4-.64,.72-.86s.72-.32,1.2-.32,1,.12,1.57,.37c.4,.18,.76,.39,1.11,.66,.34,.27,.62,.56,.81,.86l-.8,.78c-.22-.29-.46-.55-.73-.77s-.55-.4-.85-.52c-.48-.21-.87-.28-1.17-.22-.3,.06-.51,.23-.63,.49-.08,.19-.08,.37,0,.54s.22,.34,.39,.5,.42,.36,.73,.59c.44,.32,.78,.62,1.04,.87s.45,.56,.56,.91,.08,.72-.1,1.16c-.16,.36-.4,.64-.72,.85s-.72,.31-1.2,.32c-.47,0-1-.12-1.57-.37-.5-.22-.96-.5-1.36-.85h-.03Z"/>
      <path class="d" d="M310.58,405.41l-.43,1.02-4.91-2.08,2.77-6.55,4.78,2.03-.44,1.02-3.57-1.51-.72,1.71,3.16,1.33-.43,1-3.16-1.33-.76,1.81,3.69,1.57h0Z"/>
      <path class="d" d="M315.42,408.59l-.55-2.48c-.06-.01-.15-.05-.26-.09l-1.48-.61-.79,1.92-1.22-.5,2.71-6.59,2.71,1.11c.57,.24,1.03,.54,1.37,.89,.34,.37,.56,.77,.64,1.21s.02,.91-.17,1.39c-.2,.49-.5,.87-.89,1.13s-.85,.38-1.37,.37l.63,2.78-1.32-.54h-.01Zm1.69-5.39c-.19-.34-.54-.61-1.07-.84l-1.43-.58-1.08,2.62,1.43,.58c.53,.21,.99,.27,1.35,.15s.64-.38,.82-.8,.17-.8-.02-1.14h0Z"/>
      <path class="d" d="M326.26,405.27l-5.51,5.47-1.21-.48-.26-7.76,1.33,.53,.17,5.97,4.25-4.21,1.23,.49Z"/>
      <path class="d" d="M329.33,412.89l-.4,1.03-4.98-1.92,2.56-6.64,4.84,1.87-.4,1.03-3.61-1.39-.67,1.72,3.21,1.23-.4,1.01-3.21-1.23-.7,1.83,3.75,1.45h0Z"/>
      <path class="d" d="M332.42,407.64l2.91,1.09c.71,.26,1.29,.64,1.74,1.12s.73,1.03,.85,1.65,.05,1.25-.2,1.91-.61,1.18-1.11,1.57-1.07,.62-1.72,.69c-.65,.07-1.34-.03-2.05-.29l-2.91-1.09,2.49-6.67h0Zm.76,6.69c.49,.18,.95,.25,1.39,.2,.44-.05,.83-.21,1.15-.48,.33-.28,.58-.63,.75-1.1,.17-.45,.22-.89,.15-1.31s-.25-.79-.56-1.12c-.31-.32-.69-.58-1.19-.76l-1.61-.6-1.71,4.57,1.61,.6h0Z"/>
      <path class="d" d="M336.97,416.74c-.1-.2-.1-.42-.02-.65,.09-.24,.23-.4,.43-.49s.41-.1,.64-.01,.38,.23,.48,.42c.09,.2,.1,.41,.01,.65-.08,.23-.23,.39-.43,.48s-.42,.1-.63,.02-.37-.22-.47-.43h-.01Z"/>
    </g>
  </g>
</svg>