<?xml version="1.0" encoding="UTF-8"?>
<svg id="b" data-name="圖層 2" xmlns="http://www.w3.org/2000/svg" width="171.19" height="88.04" viewBox="0 0 171.19 88.04">
  <g id="c" data-name="menu">
    <g>
      <path d="M1.59,6.57c-.42-.28-.76-.62-1.02-1.02S.15,4.74,.06,4.28c-.09-.45-.08-.91,.01-1.37s.28-.9,.56-1.31c.28-.42,.62-.75,1.01-1.01,.39-.26,.82-.43,1.27-.52,.45-.09,.91-.09,1.38,0,.46,.09,.91,.28,1.33,.57,.42,.28,.76,.62,1.02,1.02s.44,.82,.52,1.26c.08,.45,.08,.9-.01,1.36-.09,.46-.28,.9-.56,1.32-.28,.42-.62,.76-1.02,1.02-.4,.26-.82,.43-1.28,.52-.46,.09-.92,.09-1.38,0s-.9-.28-1.32-.56Zm.3-.47c.36,.24,.73,.4,1.12,.48,.39,.08,.78,.08,1.16,0,.38-.07,.74-.22,1.07-.45,.33-.23,.62-.52,.86-.87s.4-.72,.48-1.11c.08-.39,.09-.77,.02-1.14-.07-.37-.21-.73-.43-1.06-.22-.33-.5-.62-.86-.86-.36-.24-.74-.4-1.13-.48-.39-.08-.78-.08-1.15,0-.38,.08-.73,.23-1.06,.45-.33,.22-.62,.5-.86,.86-.24,.35-.4,.72-.48,1.11-.08,.39-.09,.77-.02,1.15s.21,.74,.43,1.07,.5,.61,.85,.85Zm.64-.72c-.34-.23-.6-.51-.77-.84s-.25-.67-.22-1.03c.02-.36,.15-.71,.38-1.05s.5-.58,.83-.74c.33-.16,.67-.22,1.04-.18s.72,.17,1.07,.4c.32,.22,.56,.47,.71,.77s.22,.6,.2,.91h-.89c0-.22-.04-.41-.13-.56-.09-.16-.22-.29-.39-.41-.18-.12-.37-.19-.57-.21-.2-.01-.39,.02-.58,.11s-.35,.24-.49,.45c-.14,.21-.22,.42-.23,.62-.01,.21,.02,.4,.11,.58,.09,.18,.22,.33,.4,.45,.17,.11,.34,.18,.52,.21,.18,.02,.37,0,.56-.09l.35,.8c-.29,.14-.59,.2-.93,.17-.34-.03-.66-.15-.98-.37Z" style="fill: #0c1219;"/>
      <path d="M6.91,10.1l.48-.74,3.83-.7c.32-.06,.58-.12,.77-.2,.19-.08,.34-.17,.45-.27,.11-.1,.2-.21,.27-.31,.18-.27,.22-.54,.13-.82-.09-.27-.31-.53-.68-.77-.29-.19-.58-.31-.89-.36-.3-.05-.61-.03-.91,.07l-.38-1.1c.44-.16,.91-.2,1.42-.11,.51,.09,1,.29,1.49,.61,.43,.28,.76,.6,.99,.95,.23,.35,.35,.71,.35,1.08,0,.37-.11,.73-.34,1.08-.13,.19-.28,.37-.45,.52-.17,.16-.4,.29-.68,.41-.28,.12-.64,.22-1.08,.3l-3.3,.6,.04-.57,3.48,2.28-.61,.94-4.39-2.88Z" style="fill: #0c1219;"/>
      <path d="M14.03,14.85c-.47-.3-.82-.7-1.05-1.18-.22-.48-.3-1.02-.22-1.62,.08-.6,.33-1.22,.75-1.88,.42-.66,.89-1.14,1.4-1.46s1.03-.48,1.57-.47c.53,0,1.04,.16,1.51,.46,.48,.31,.83,.7,1.05,1.18,.22,.48,.3,1.02,.22,1.62-.08,.6-.32,1.23-.75,1.88-.42,.66-.89,1.14-1.4,1.46s-1.04,.48-1.57,.47c-.53,0-1.03-.16-1.51-.47Zm.62-.97c.28,.18,.57,.26,.87,.24,.3-.02,.61-.15,.93-.39s.63-.6,.94-1.08c.31-.48,.51-.92,.59-1.31,.08-.39,.07-.72-.04-1-.11-.28-.3-.51-.58-.69-.27-.17-.55-.25-.86-.23-.31,.02-.62,.14-.93,.38-.32,.24-.63,.6-.94,1.08-.31,.48-.5,.91-.59,1.3-.08,.39-.07,.73,.04,1.01,.11,.28,.3,.51,.57,.69Z" style="fill: #0c1219;"/>
      <path d="M16.89,16.57l.47-.75,3.82-.76c.32-.06,.57-.14,.76-.22s.34-.17,.45-.28c.11-.1,.2-.21,.27-.32,.17-.28,.21-.55,.12-.82s-.32-.52-.69-.75c-.29-.18-.59-.3-.89-.35-.3-.05-.61-.02-.91,.08l-.4-1.09c.43-.17,.91-.21,1.41-.14,.51,.08,1.01,.27,1.5,.58,.44,.27,.77,.58,1.01,.93s.36,.7,.37,1.07c.01,.37-.09,.73-.32,1.08-.12,.2-.27,.37-.44,.53-.17,.16-.4,.3-.67,.42-.28,.12-.64,.23-1.08,.32l-3.29,.66,.03-.57,3.52,2.22-.6,.95-4.44-2.8Z" style="fill: #0c1219;"/>
      <path d="M22.26,18.04l.48-.78,5.39-2.06,1.2,.74-5.35,2.09-.46-.52,4.8,2.96-.59,.95-5.48-3.39Zm2.47,3.43l.85-1.38,.62-.93,.75-1.22,1.06,.65-2.19,3.55-1.09-.67Z" style="fill: #0c1219;"/>
      <path d="M29.5,24.38l3.65-6.11,1.13,.68-3.65,6.11-1.13-.68Zm1.87-.83l.74-1.38,5.19-1.41,1.27,.76-4.35,1.23-1.04,.31-1.81,.48Zm2.38,3.38l-.67-4.18,1.25-.38,.75,5.36-1.33-.79Z" style="fill: #0c1219;"/>
      <path d="M38.1,29.6c-.48-.28-.88-.62-1.19-1.01s-.53-.82-.67-1.28-.17-.93-.11-1.41c.06-.48,.22-.95,.49-1.4,.27-.46,.59-.83,.98-1.12,.39-.29,.81-.49,1.28-.6,.46-.11,.94-.13,1.44-.05s.98,.25,1.46,.53c.48,.28,.88,.62,1.18,1.01s.53,.82,.66,1.28,.17,.93,.11,1.41c-.06,.48-.22,.95-.49,1.4-.27,.46-.59,.83-.98,1.12-.39,.29-.82,.49-1.28,.6-.46,.11-.94,.12-1.43,.05-.49-.08-.98-.25-1.45-.53Zm.57-1.01c.31,.18,.63,.29,.95,.34,.33,.05,.64,.03,.95-.05,.31-.08,.59-.22,.85-.42,.26-.2,.48-.45,.67-.77,.18-.32,.3-.64,.34-.96,.04-.32,.03-.64-.05-.95-.08-.31-.22-.59-.42-.85-.2-.26-.46-.48-.77-.66-.31-.18-.63-.29-.95-.34-.32-.05-.64-.03-.95,.05-.31,.08-.6,.22-.86,.42-.26,.2-.48,.45-.67,.77-.18,.31-.29,.63-.34,.96-.05,.33-.03,.64,.05,.95,.08,.31,.22,.59,.42,.85,.2,.26,.46,.48,.77,.66Z" style="fill: #0c1219;"/>
      <path d="M42.32,31.92l3.53-6.18,1.15,.66-3.53,6.18-1.15-.66Z" style="fill: #0c1219;"/>
      <path d="M48.11,35.2l2.92-5.24-2.06-1.15,.54-.98,5.27,2.94-.54,.98-2.06-1.15-2.92,5.24-1.15-.64Z" style="fill: #0c1219;"/>
      <path d="M57.07,33.88c.38,.21,.68,.47,.9,.78,.22,.31,.33,.67,.34,1.07s-.12,.84-.39,1.32l-1.49,2.73-1.12-.61,1.41-2.59c.23-.42,.3-.79,.22-1.11-.09-.32-.31-.57-.66-.77-.26-.14-.52-.22-.78-.22-.26,0-.5,.07-.73,.22-.23,.15-.43,.39-.6,.71l-1.32,2.41-1.12-.61,3.62-6.62,1.12,.61-1.72,3.14-.03-.52c.33-.21,.7-.31,1.11-.3,.41,0,.82,.13,1.24,.36Z" style="fill: #0c1219;"/>
      <path d="M59.71,41.62c-.53-.28-.94-.64-1.22-1.06-.28-.42-.44-.88-.46-1.37s.1-.97,.35-1.44c.25-.48,.59-.84,1-1.1,.41-.25,.86-.39,1.34-.4s.97,.11,1.45,.37c.47,.25,.83,.57,1.08,.97,.26,.4,.39,.84,.4,1.32,.01,.48-.12,.97-.39,1.48-.03,.05-.06,.1-.09,.16-.04,.06-.07,.11-.1,.16l-3.99-2.13,.4-.74,3.4,1.81h-.56c.15-.27,.23-.55,.22-.82,0-.27-.08-.52-.23-.75s-.35-.42-.62-.56c-.28-.15-.55-.22-.82-.21-.27,0-.52,.09-.75,.24-.23,.15-.42,.37-.57,.66l-.1,.18c-.15,.29-.22,.58-.21,.87s.11,.56,.28,.81c.18,.25,.42,.45,.73,.62,.27,.14,.53,.23,.79,.26,.26,.03,.52,0,.78-.09l.23,1.01c-.35,.14-.72,.18-1.12,.15-.4-.04-.81-.17-1.22-.39Zm1.99-6.01l1.87-.58,1.32,.7-2.22,.4-.97-.52Z" style="fill: #0c1219;"/>
      <path d="M64.02,43.83l6.11-4.85,1.16,.6-.41,7.8-1.23-.63,.5-6.96,.47,.24-5.38,4.44-1.21-.62Zm2.07-.79l.79-.76,3.41,1.76-.16,1.08-4.05-2.09Z" style="fill: #0c1219;"/>
      <path d="M71.31,47.58l3.2-6.35,1.18,.59-2.7,5.36,3.32,1.67-.5,1-4.5-2.27Z" style="fill: #0c1219;"/>
      <path d="M76.39,50.14l3.15-6.38,1.19,.58-2.65,5.38,3.34,1.65-.49,1-4.52-2.23Z" style="fill: #0c1219;"/>
      <path d="M83.63,53.68l3.06-6.42,2.64,1.26c.57,.27,1.01,.59,1.33,.97,.32,.38,.51,.79,.56,1.24,.06,.45-.03,.91-.25,1.38-.22,.47-.53,.82-.91,1.06-.38,.23-.82,.35-1.31,.33-.49-.01-1.02-.16-1.59-.43l-1.98-.94,.79-.29-1.15,2.41-1.19-.57Zm2.28-1.72l-.26-.82,1.93,.92c.53,.25,.98,.33,1.35,.23s.66-.35,.85-.76c.2-.41,.21-.79,.05-1.13-.16-.35-.5-.65-1.03-.9l-1.93-.92,.81-.33-1.77,3.72Zm1.92,3.72l-.51-3.1,1.28,.61,.52,3.11-1.29-.61Z" style="fill: #0c1219;"/>
      <path d="M89.97,56.68l3.01-6.45,1.2,.56-3.01,6.45-1.2-.56Z" style="fill: #0c1219;"/>
      <path d="M95.49,59.35c-.51-.23-.93-.53-1.28-.88-.35-.36-.61-.76-.79-1.2-.18-.44-.26-.91-.25-1.39,.01-.49,.13-.97,.35-1.45,.22-.48,.51-.88,.87-1.21,.36-.33,.77-.57,1.22-.72s.93-.21,1.43-.18c.5,.03,1,.16,1.51,.39,.55,.25,1,.57,1.36,.95,.36,.38,.61,.81,.75,1.3l-1.1,.39c-.14-.37-.32-.68-.56-.93-.24-.25-.53-.46-.88-.62-.34-.15-.68-.24-1.02-.26s-.66,.02-.96,.13c-.3,.11-.57,.27-.81,.5-.24,.22-.44,.5-.59,.84-.15,.33-.23,.65-.24,.98-.01,.33,.04,.65,.15,.95,.12,.3,.29,.57,.52,.81,.23,.24,.52,.44,.87,.6,.32,.15,.65,.24,1,.27s.71,0,1.09-.12l.27,1.21c-.46,.12-.95,.14-1.46,.08-.51-.07-.99-.2-1.45-.41Zm1.84-.34l1.11-2.42,1.14,.52-1.18,2.58-1.06-.68Z" style="fill: #0c1219;"/>
      <path d="M100.48,61.5l-1.21-.54,2.88-6.51,1.21,.54-2.88,6.5Zm4.69-1.25l-3.56-1.58,.46-1.03,3.56,1.58-.46,1.03Zm1.56-3.76l1.21,.54-2.88,6.51-1.21-.54,2.88-6.5Z" style="fill: #0c1219;"/>
      <path d="M107.76,64.69l2.37-5.51-2.17-.93,.44-1.03,5.54,2.39-.44,1.03-2.17-.93-2.37,5.51-1.21-.52Z" style="fill: #0c1219;"/>
      <path d="M113.58,67.29c-.51-.21-.97-.5-1.38-.84-.41-.34-.7-.69-.88-1.04l.82-.77c.18,.32,.43,.62,.76,.92,.33,.3,.7,.54,1.1,.71,.34,.14,.64,.22,.88,.24,.24,.01,.44-.02,.6-.11,.15-.09,.27-.21,.33-.37,.08-.2,.08-.39-.01-.57-.09-.18-.24-.36-.44-.52-.2-.17-.42-.34-.67-.52-.25-.18-.5-.37-.74-.57-.24-.2-.45-.42-.62-.65s-.28-.49-.33-.77,0-.6,.15-.95c.15-.36,.38-.64,.7-.86,.32-.22,.71-.33,1.17-.35,.47-.01,1,.11,1.6,.36,.39,.17,.76,.38,1.11,.64,.35,.26,.62,.55,.83,.86l-.78,.79c-.22-.3-.47-.56-.75-.77-.28-.22-.56-.38-.85-.5-.34-.14-.63-.22-.87-.22-.24,0-.44,.04-.59,.12-.15,.09-.26,.22-.33,.39-.08,.2-.08,.39,0,.57,.09,.18,.23,.35,.43,.52,.2,.17,.43,.34,.68,.52,.25,.18,.5,.38,.75,.57,.24,.2,.45,.41,.62,.64,.17,.23,.28,.48,.33,.77,.05,.28,0,.6-.15,.94-.15,.35-.38,.63-.69,.85-.32,.22-.71,.33-1.18,.34-.47,.01-1-.11-1.6-.36Z" style="fill: #0c1219;"/>
      <path d="M119.31,69.56l2.67-6.6,2.71,1.1c.58,.24,1.05,.53,1.39,.89,.34,.36,.55,.76,.64,1.2,.08,.44,.03,.91-.17,1.39-.2,.48-.48,.85-.84,1.11-.37,.26-.8,.39-1.29,.41-.49,.02-1.03-.09-1.62-.33l-2.04-.82,.77-.33-1,2.48-1.23-.5Zm2.17-1.85l-.31-.81,1.98,.8c.54,.22,.99,.27,1.36,.14,.37-.12,.63-.39,.8-.8,.17-.42,.16-.8-.02-1.14s-.54-.61-1.08-.83l-1.98-.8,.79-.38-1.54,3.82Zm2.14,3.6l-.7-3.07,1.31,.53,.71,3.07-1.32-.53Z" style="fill: #0c1219;"/>
      <path d="M127.44,71.63l3.74,1.47-.41,1.03-4.97-1.95,2.6-6.62,4.84,1.9-.41,1.03-3.61-1.42-1.79,4.56Zm1.02-2.88l3.29,1.29-.4,1.01-3.29-1.29,.4-1.01Z" style="fill: #0c1219;"/>
      <path d="M133.77,75.38c-.52-.2-.99-.46-1.41-.79s-.72-.67-.91-1.01l.79-.8c.19,.31,.45,.61,.79,.9,.34,.29,.71,.51,1.13,.67,.35,.13,.64,.2,.89,.21,.24,0,.44-.04,.59-.13,.15-.09,.26-.22,.32-.38,.08-.2,.07-.39-.03-.57-.1-.18-.25-.35-.45-.51-.2-.16-.43-.33-.69-.5-.26-.17-.51-.35-.76-.55-.25-.19-.46-.4-.64-.63-.18-.22-.3-.48-.36-.76s-.02-.6,.12-.96c.14-.36,.36-.66,.67-.88,.31-.23,.69-.36,1.16-.38s1,.07,1.61,.3c.4,.15,.77,.35,1.13,.61,.35,.25,.64,.53,.86,.83l-.76,.81c-.23-.29-.49-.54-.77-.75-.28-.21-.57-.37-.86-.48-.34-.13-.63-.2-.88-.19-.24,0-.44,.05-.59,.15-.15,.1-.26,.23-.32,.4-.08,.2-.07,.39,.03,.57,.09,.18,.25,.35,.45,.5,.21,.16,.44,.33,.7,.5,.26,.18,.51,.36,.76,.55,.25,.19,.47,.4,.65,.62,.18,.22,.3,.47,.35,.76s.02,.6-.12,.95c-.13,.35-.36,.65-.67,.87-.31,.23-.7,.35-1.16,.38s-1.01-.07-1.61-.31Z" style="fill: #0c1219;"/>
      <path d="M138.98,76.06l3.76,1.4-.38,1.04-5-1.86,2.47-6.67,4.87,1.81-.39,1.04-3.63-1.35-1.7,4.59Zm.96-2.9l3.32,1.23-.38,1.02-3.32-1.23,.38-1.02Z" style="fill: #0c1219;"/>
      <path d="M143.32,78.84l2.41-6.7,2.75,.99c.59,.21,1.07,.49,1.42,.84,.35,.34,.58,.74,.68,1.17s.06,.91-.11,1.4c-.18,.49-.44,.87-.8,1.14-.36,.27-.78,.43-1.27,.46-.49,.04-1.03-.05-1.63-.27l-2.07-.74,.76-.37-.9,2.52-1.24-.45Zm2.1-1.94l-.34-.79,2.01,.72c.55,.2,1,.23,1.37,.09,.36-.14,.62-.42,.77-.84,.15-.43,.13-.81-.06-1.14-.2-.33-.57-.59-1.12-.79l-2.01-.72,.77-.41-1.39,3.88Zm2.28,3.51l-.82-3.04,1.33,.48,.83,3.04-1.34-.48Z" style="fill: #0c1219;"/>
      <path d="M151.91,81.89l-.61-7.74,1.35,.47,.51,6.99-.78-.27,4.76-5.16,1.25,.43-5.26,5.71-1.23-.43Z" style="fill: #0c1219;"/>
      <path d="M157.99,82.81l3.81,1.28-.35,1.05-5.06-1.7,2.26-6.75,4.92,1.65-.35,1.05-3.67-1.23-1.56,4.65Zm.87-2.92l3.35,1.13-.35,1.03-3.35-1.13,.35-1.03Z" style="fill: #0c1219;"/>
      <path d="M162.46,85.47l2.19-6.77,2.96,.96c.74,.24,1.33,.59,1.8,1.05s.77,1,.92,1.6c.15,.6,.11,1.25-.11,1.93-.22,.68-.57,1.22-1.04,1.62-.47,.41-1.03,.66-1.68,.77s-1.34,.04-2.07-.2l-2.96-.96Zm1.6-.66l1.64,.53c.51,.17,.98,.21,1.41,.14,.43-.07,.81-.25,1.12-.53,.32-.28,.55-.66,.7-1.12,.15-.47,.18-.91,.09-1.32-.09-.41-.29-.77-.6-1.09-.31-.31-.72-.55-1.23-.72l-1.64-.53-1.5,4.64Z" style="fill: #0c1219;"/>
      <path d="M170.09,88c-.22-.07-.38-.2-.49-.41-.11-.2-.12-.42-.05-.65,.08-.25,.22-.42,.42-.51,.2-.1,.41-.11,.63-.04s.38,.2,.49,.4,.13,.41,.05,.66c-.07,.23-.21,.4-.41,.5-.2,.1-.42,.12-.63,.05Z" style="fill: #0c1219;"/>
    </g>
  </g>
</svg>