<?xml version="1.0" encoding="UTF-8"?>
<svg id="b" data-name="圖層 2" xmlns="http://www.w3.org/2000/svg" width="452.35" height="452.35" viewBox="0 0 452.35 452.35">
  <defs>
    <style>
      .d {
        fill: #0c131b;
      }

      .e {
        fill: #ea5504;
      }
    </style>
  </defs>
  <g id="c" data-name="menu">
    <path class="e" d="M0,0C0,249.83,202.52,452.35,452.35,452.35V0H0Z"/>
    <g>
      <path class="d" d="M185.3,339.63c-.27-.57-.39-1.17-.34-1.8,.05-.63,.25-1.22,.62-1.76,.37-.54,.84-.96,1.4-1.24s1.17-.4,1.8-.35c.63,.04,1.23,.25,1.78,.63,.56,.38,.97,.84,1.25,1.41,.28,.56,.39,1.16,.35,1.79-.05,.63-.26,1.21-.63,1.77-.37,.55-.84,.96-1.42,1.25-.57,.28-1.18,.4-1.81,.35-.63-.04-1.22-.25-1.78-.62s-.96-.84-1.24-1.41Zm3.04,1.47c.53,.03,1.04-.07,1.51-.31,.48-.24,.88-.59,1.19-1.05,.31-.47,.49-.96,.54-1.48,.04-.52-.05-1.02-.28-1.49-.23-.47-.58-.87-1.05-1.19-.47-.32-.97-.5-1.51-.53-.53-.04-1.03,.06-1.51,.3-.47,.24-.87,.59-1.18,1.05-.31,.47-.49,.96-.53,1.49-.04,.53,.05,1.03,.28,1.51s.58,.87,1.04,1.19c.47,.31,.96,.49,1.5,.52Zm-1.64-2.09c-.17-.33-.24-.67-.22-1.04,.03-.36,.15-.71,.37-1.04,.22-.33,.5-.58,.83-.73,.33-.16,.68-.22,1.04-.18s.72,.17,1.07,.4c.31,.21,.55,.47,.7,.76s.22,.6,.21,.92h-.89c.02-.41-.16-.73-.52-.97-.28-.19-.57-.25-.87-.19-.31,.06-.56,.24-.77,.54-.2,.3-.28,.61-.22,.91,.06,.31,.23,.55,.5,.74,.36,.24,.72,.28,1.08,.12l.35,.8c-.29,.14-.61,.2-.94,.17-.33-.03-.66-.16-.97-.37-.34-.23-.6-.51-.77-.84Z"/>
      <path class="d" d="M196.85,346.5l-.61,.94-4.39-2.88,.48-.74,3.83-.7c.43-.08,.76-.18,.98-.31,.22-.13,.39-.29,.51-.47,.18-.28,.23-.55,.14-.82-.09-.27-.32-.52-.68-.76-.61-.4-1.21-.5-1.8-.29l-.38-1.1c.44-.16,.91-.2,1.42-.11,.51,.09,1,.29,1.49,.61,.65,.42,1.06,.92,1.25,1.47s.1,1.1-.24,1.63c-.21,.32-.48,.58-.8,.78-.32,.19-.79,.35-1.42,.46l-2.58,.47,2.81,1.84Z"/>
      <path class="d" d="M197.89,348.11c-.22-.48-.29-1.03-.21-1.63,.08-.6,.33-1.23,.74-1.86,.41-.64,.87-1.12,1.39-1.45,.52-.33,1.04-.49,1.57-.49,.53,0,1.04,.15,1.52,.46,.48,.31,.83,.71,1.05,1.19,.22,.49,.29,1.03,.21,1.63-.08,.6-.33,1.23-.74,1.86-.41,.64-.87,1.12-1.39,1.45-.52,.33-1.04,.49-1.58,.49-.54,0-1.04-.16-1.52-.46-.48-.31-.83-.7-1.05-1.19Zm3.02,.34c.48-.19,.94-.64,1.39-1.34,.45-.7,.67-1.31,.64-1.82-.02-.51-.25-.91-.67-1.18-.42-.27-.87-.31-1.35-.12-.48,.19-.94,.64-1.39,1.34-.45,.7-.67,1.31-.64,1.82s.24,.9,.66,1.18c.43,.27,.88,.32,1.35,.12Z"/>
      <path class="d" d="M206.81,352.85l-.6,.95-4.44-2.8,.47-.75,3.82-.76c.43-.09,.76-.2,.97-.33,.22-.13,.38-.29,.5-.48,.18-.28,.22-.56,.12-.82-.09-.27-.33-.52-.69-.75-.61-.39-1.22-.47-1.81-.26l-.4-1.1c.43-.17,.91-.21,1.41-.14s1.01,.27,1.5,.58c.65,.41,1.08,.89,1.27,1.45,.2,.56,.12,1.1-.21,1.63-.21,.33-.47,.59-.79,.79-.32,.2-.79,.36-1.41,.48l-2.57,.52,2.84,1.79Z"/>
      <path class="d" d="M212.63,355.86l-1.07-.66-.85,1.38-1.09-.67,.85-1.38-3.32-2.05,.48-.78,5.39-2.06,1.2,.74-5.11,1.99,1.98,1.22,.75-1.22,1.06,.65-.75,1.22,1.07,.66-.59,.95Z"/>
      <path class="d" d="M218.02,357.52l-1.56,.42-.93,1.56-1.13-.68,3.65-6.11,1.13,.68-1.87,3.13,4.89-1.33,1.27,.76-4.2,1.2,.7,5-1.33-.79-.62-3.85Z"/>
      <path class="d" d="M221.52,362.63c-.34-.57-.52-1.17-.53-1.82,0-.65,.17-1.27,.51-1.87,.35-.6,.81-1.05,1.38-1.37,.57-.32,1.18-.46,1.85-.44s1.31,.21,1.93,.58c.63,.37,1.11,.83,1.46,1.4,.34,.57,.52,1.17,.53,1.82s-.17,1.27-.52,1.88c-.35,.6-.81,1.06-1.38,1.37-.57,.31-1.18,.46-1.84,.44-.66-.02-1.31-.21-1.93-.58-.63-.37-1.11-.83-1.46-1.4Zm3.31,.76c.43,0,.84-.1,1.22-.32,.38-.22,.69-.54,.93-.95,.24-.41,.36-.83,.37-1.27,0-.44-.1-.85-.32-1.22-.22-.38-.54-.68-.95-.92-.41-.24-.83-.36-1.27-.37-.44,0-.84,.1-1.22,.32-.38,.22-.69,.54-.93,.95-.24,.41-.36,.83-.37,1.27,0,.44,.1,.85,.32,1.22,.22,.38,.54,.68,.95,.92,.41,.24,.83,.36,1.27,.37Z"/>
      <path class="d" d="M230.74,360.18l1.15,.66-3.53,6.18-1.15-.66,3.53-6.18Z"/>
      <path class="d" d="M235.92,364.4l-2.06-1.15,.54-.98,5.27,2.95-.55,.98-2.06-1.15-2.93,5.24-1.15-.64,2.92-5.24Z"/>
      <path class="d" d="M243.09,369.62c.17,.55,.07,1.17-.31,1.86l-1.49,2.73-1.12-.61,1.41-2.59c.23-.42,.3-.78,.22-1.1s-.3-.58-.67-.78c-.41-.22-.8-.28-1.17-.16-.37,.12-.69,.41-.94,.87l-1.32,2.41-1.12-.61,3.62-6.62,1.12,.61-1.32,2.41c.29-.1,.6-.12,.93-.08,.33,.04,.66,.16,.99,.34,.6,.33,.99,.77,1.16,1.32Z"/>
      <path class="d" d="M247.98,375.16l-3.76-2.01c-.12,.39-.1,.76,.07,1.11,.17,.35,.46,.64,.87,.86,.53,.28,1.05,.34,1.58,.17l.23,1.01c-.35,.14-.73,.19-1.13,.15-.4-.04-.8-.18-1.22-.4-.53-.28-.93-.63-1.22-1.06-.29-.42-.44-.88-.46-1.37-.02-.49,.1-.97,.35-1.44,.25-.47,.58-.83,.99-1.09,.41-.26,.86-.39,1.35-.4,.49,0,.97,.11,1.44,.37,.47,.25,.83,.58,1.09,.98s.39,.85,.4,1.33c0,.48-.12,.97-.38,1.46-.04,.08-.11,.18-.19,.32Zm-2.46-3.36c-.36,.08-.66,.28-.91,.61l2.72,1.45c.14-.37,.14-.73,.01-1.08-.13-.35-.38-.62-.74-.81-.36-.19-.72-.25-1.08-.17Zm2.97-2.33l1.32,.7-2.22,.4-.97-.52,1.87-.58Z"/>
      <path class="d" d="M254.68,379.4l-3.16-1.63-1.38,1.14-1.21-.62,6.11-4.85,1.16,.6-.41,7.8-1.23-.63,.12-1.79Zm.09-1.12l.24-3.38-2.61,2.15,2.38,1.23Z"/>
      <path class="d" d="M259.42,375.68l1.18,.59-2.7,5.36,3.32,1.67-.5,1-4.5-2.27,3.2-6.35Z"/>
      <path class="d" d="M264.45,378.21l1.19,.58-2.65,5.38,3.34,1.65-.49,1-4.52-2.23,3.15-6.38Z"/>
      <path class="d" d="M272.74,390.13l-.42-2.51c-.06-.02-.14-.06-.25-.11l-1.45-.69-.89,1.87-1.19-.57,3.06-6.42,2.64,1.26c.56,.27,1,.59,1.32,.97,.33,.38,.52,.79,.57,1.24,.06,.45-.03,.91-.25,1.38-.23,.48-.55,.84-.95,1.08-.4,.24-.86,.34-1.39,.3l.47,2.82-1.28-.61Zm1.99-5.29c-.17-.35-.51-.65-1.03-.89l-1.4-.67-1.22,2.56,1.39,.67c.52,.25,.97,.32,1.34,.23,.38-.09,.66-.35,.86-.76s.21-.79,.05-1.14Z"/>
      <path class="d" d="M277.89,384.69l1.2,.56-3.01,6.45-1.2-.56,3.01-6.45Z"/>
      <path class="d" d="M283.36,391.04l1.14,.52-1.18,2.58c-.45,.11-.94,.14-1.44,.08-.51-.06-1-.2-1.46-.41-.66-.3-1.19-.72-1.59-1.25-.4-.53-.63-1.12-.7-1.76s.04-1.28,.33-1.92c.29-.63,.7-1.14,1.24-1.5s1.13-.57,1.8-.62c.66-.04,1.33,.09,2,.39,.54,.25,.99,.56,1.36,.94,.36,.38,.61,.81,.76,1.3l-1.1,.39c-.27-.72-.75-1.24-1.45-1.56-.46-.21-.91-.3-1.35-.27-.44,.03-.84,.17-1.2,.42-.36,.25-.64,.6-.84,1.05-.2,.43-.28,.87-.23,1.3,.04,.44,.2,.83,.46,1.19,.26,.36,.62,.64,1.07,.85,.5,.23,1,.32,1.48,.28l.92-2.02Z"/>
      <path class="d" d="M292.85,391.48l-2.88,6.5-1.21-.54,1.24-2.79-3.36-1.49-1.24,2.79-1.21-.54,2.88-6.51,1.21,.54-1.19,2.69,3.36,1.49,1.19-2.69,1.21,.54Z"/>
      <path class="d" d="M295.05,393.64l-2.17-.93,.44-1.03,5.55,2.39-.44,1.03-2.17-.93-2.37,5.51-1.21-.52,2.38-5.51Z"/>
      <path class="d" d="M297.12,400.91c-.41-.34-.7-.69-.88-1.04l.82-.77c.18,.33,.44,.64,.77,.94s.7,.53,1.09,.7c.49,.21,.88,.28,1.19,.22,.31-.05,.51-.21,.62-.47,.08-.19,.08-.37,0-.55-.08-.18-.21-.35-.39-.5-.18-.16-.43-.35-.75-.59-.45-.33-.8-.62-1.06-.87-.26-.25-.45-.55-.56-.89-.12-.35-.08-.73,.1-1.17,.15-.36,.39-.65,.71-.86s.72-.33,1.19-.33c.47,0,.99,.11,1.57,.35,.4,.17,.77,.38,1.12,.65s.62,.55,.82,.85l-.78,.78c-.22-.29-.46-.54-.74-.76-.28-.22-.56-.39-.85-.51-.48-.2-.87-.27-1.17-.21-.3,.06-.51,.23-.62,.5-.08,.19-.08,.37,0,.54,.08,.18,.21,.34,.39,.5,.18,.16,.42,.35,.74,.59,.44,.32,.79,.6,1.05,.86s.45,.55,.57,.89c.12,.34,.09,.73-.09,1.15-.15,.36-.39,.65-.71,.86s-.72,.32-1.19,.33-1-.11-1.57-.35c-.51-.21-.96-.49-1.38-.83Z"/>
      <path class="d" d="M308.54,405.76l-.57-2.48c-.06-.02-.14-.05-.26-.09l-1.49-.6-.78,1.92-1.23-.5,2.67-6.6,2.71,1.1c.57,.23,1.03,.53,1.38,.89s.56,.76,.65,1.21,.03,.91-.17,1.39c-.2,.5-.49,.87-.88,1.13-.39,.26-.84,.39-1.37,.38l.64,2.78-1.32-.53Zm1.67-5.4c-.19-.34-.54-.62-1.08-.83l-1.43-.58-1.06,2.63,1.43,.58c.53,.22,.99,.27,1.35,.15,.37-.12,.64-.39,.81-.81s.16-.8-.02-1.14Z"/>
      <path class="d" d="M316.09,407.55l-.41,1.03-4.97-1.95,2.6-6.62,4.84,1.9-.41,1.03-3.61-1.42-.68,1.72,3.2,1.26-.4,1.01-3.2-1.26-.72,1.83,3.74,1.47Z"/>
      <path class="d" d="M317.28,409.05c-.42-.33-.73-.67-.91-1.01l.79-.8c.19,.32,.46,.62,.8,.91,.34,.29,.71,.51,1.11,.66,.49,.19,.89,.25,1.2,.19,.3-.07,.51-.23,.61-.49,.07-.19,.06-.37-.02-.55-.09-.18-.23-.34-.41-.49-.18-.15-.44-.34-.76-.56-.46-.31-.82-.59-1.09-.83s-.46-.53-.59-.87c-.13-.34-.11-.73,.06-1.17,.14-.37,.37-.66,.68-.89s.71-.35,1.18-.37c.47-.02,1,.08,1.58,.3,.41,.16,.78,.36,1.14,.61,.35,.25,.64,.53,.85,.82l-.76,.81c-.23-.28-.48-.53-.76-.74-.28-.21-.57-.37-.87-.48-.49-.19-.88-.24-1.18-.17-.3,.07-.5,.25-.61,.52-.07,.19-.06,.37,.03,.54,.09,.17,.23,.33,.41,.48s.44,.34,.76,.56c.45,.3,.81,.58,1.08,.82s.47,.54,.6,.88c.13,.34,.11,.72-.05,1.16-.14,.37-.37,.66-.68,.88s-.71,.34-1.18,.37c-.47,.02-1-.08-1.58-.3-.51-.2-.98-.46-1.4-.79Z"/>
      <path class="d" d="M327.65,411.91l-.38,1.04-5-1.86,2.47-6.67,4.87,1.81-.39,1.04-3.63-1.35-.64,1.74,3.22,1.19-.38,1.02-3.22-1.19-.68,1.84,3.76,1.4Z"/>
      <path class="d" d="M332.62,414.87l-.66-2.45c-.06-.01-.15-.04-.26-.08l-1.51-.54-.7,1.95-1.24-.45,2.41-6.7,2.76,.99c.58,.21,1.05,.49,1.41,.83,.36,.35,.59,.74,.69,1.18,.1,.44,.06,.91-.11,1.4-.18,.5-.46,.89-.84,1.17-.38,.28-.83,.42-1.35,.43l.75,2.75-1.34-.48Zm1.45-5.46c-.2-.33-.57-.59-1.11-.79l-1.45-.52-.96,2.67,1.45,.52c.54,.19,1,.23,1.36,.09s.62-.41,.78-.84,.13-.81-.07-1.14Z"/>
      <path class="d" d="M343.31,411.07l-5.26,5.71-1.23-.43-.61-7.74,1.35,.47,.44,5.96,4.06-4.4,1.25,.43Z"/>
      <path class="d" d="M346.71,418.54l-.35,1.05-5.06-1.7,2.26-6.75,4.92,1.65-.35,1.05-3.67-1.23-.59,1.75,3.26,1.09-.35,1.03-3.26-1.09-.62,1.86,3.81,1.28Z"/>
      <path class="d" d="M349.56,413.16l2.96,.96c.72,.23,1.32,.58,1.79,1.04s.78,1,.92,1.61c.14,.61,.11,1.25-.11,1.92s-.56,1.21-1.04,1.62c-.48,.41-1.04,.67-1.69,.77-.65,.1-1.34,.03-2.06-.2l-2.96-.96,2.19-6.77Zm1.06,6.64c.5,.16,.96,.21,1.4,.14,.44-.07,.82-.25,1.13-.53,.32-.29,.55-.66,.7-1.13,.15-.46,.18-.9,.09-1.32-.09-.42-.29-.78-.61-1.09-.32-.31-.72-.55-1.22-.71l-1.64-.53-1.5,4.64,1.64,.53Z"/>
      <path class="d" d="M354.52,422.05c-.11-.2-.12-.42-.05-.65,.08-.24,.21-.41,.41-.51,.2-.1,.41-.12,.64-.04s.39,.21,.5,.4c.1,.2,.12,.41,.04,.65-.07,.23-.21,.4-.41,.5-.2,.1-.42,.12-.63,.05s-.38-.2-.49-.41Z"/>
    </g>
  </g>
</svg>