<?xml version="1.0" encoding="UTF-8"?>
<svg id="b" data-name="圖層 2" xmlns="http://www.w3.org/2000/svg" width="374.94" height="456.43" viewBox="0 0 374.94 456.43">
  <defs>
    <style>
      .d {
        fill: #0c131b;
      }

      .e {
        fill: #ea5504;
      }
    </style>
  </defs>
  <g id="c" data-name="menu">
    <path class="e" d="M309.31,0H0V254.08c24.31,36.26,54.26,69.62,89.75,98.74,83.76,68.74,184.66,102.71,285.19,103.61V65.57c-14.29,.02-28.69-4.61-40.77-14.17-16.33-12.94-24.85-32.07-24.86-51.4Z"/>
    <g>
      <path class="d" d="M152.04,369.89c-.3-.55-.44-1.13-.42-1.75,.01-.62,.19-1.21,.52-1.76,.33-.55,.77-.98,1.32-1.28,.54-.3,1.13-.45,1.75-.44,.62,.01,1.22,.19,1.78,.53,.56,.34,1,.78,1.3,1.32,.3,.54,.44,1.12,.43,1.74s-.19,1.21-.53,1.77-.78,.99-1.33,1.29c-.55,.3-1.14,.45-1.76,.44-.62-.01-1.22-.19-1.77-.52s-.99-.78-1.28-1.33Zm3.06,1.29c.52,0,1.01-.12,1.47-.38,.46-.26,.83-.62,1.12-1.09s.44-.97,.45-1.48-.1-1-.35-1.45c-.25-.45-.61-.83-1.09-1.11-.48-.29-.98-.44-1.5-.45-.52,0-1.01,.11-1.47,.37-.45,.26-.82,.62-1.11,1.09s-.44,.97-.45,1.49,.1,1.01,.35,1.47c.25,.46,.61,.83,1.08,1.12,.47,.29,.97,.43,1.49,.44Zm-1.71-1.97c-.18-.31-.27-.65-.27-1.01s.11-.71,.31-1.04c.2-.34,.46-.59,.78-.76,.31-.17,.65-.25,1.02-.23,.36,.02,.72,.13,1.07,.34,.32,.19,.56,.43,.73,.72,.17,.28,.25,.58,.25,.89l-.87,.03c0-.39-.19-.7-.55-.92-.28-.17-.57-.22-.87-.14-.3,.07-.54,.26-.73,.57-.19,.31-.24,.61-.17,.91,.07,.3,.25,.53,.53,.7,.37,.22,.72,.24,1.07,.06l.39,.77c-.28,.16-.59,.23-.92,.21-.33-.02-.65-.12-.97-.31-.35-.21-.61-.47-.8-.79Z"/>
      <path class="d" d="M163.74,376.02l-.55,.95-4.47-2.58,.43-.75,3.73-.9c.42-.1,.73-.22,.94-.36s.37-.3,.48-.49c.16-.28,.19-.55,.09-.81-.1-.26-.34-.5-.71-.71-.62-.36-1.21-.42-1.79-.19l-.44-1.06c.42-.18,.88-.24,1.38-.19s1,.23,1.5,.51c.66,.38,1.09,.84,1.31,1.38s.16,1.08-.15,1.61c-.19,.33-.44,.6-.74,.81s-.76,.39-1.37,.53l-2.51,.61,2.86,1.65Z"/>
      <path class="d" d="M164.86,377.54c-.25-.46-.35-.99-.3-1.59,.04-.6,.25-1.22,.61-1.87,.36-.65,.79-1.15,1.27-1.5,.49-.35,.99-.54,1.51-.58,.52-.03,1.03,.09,1.52,.36s.86,.64,1.11,1.1c.25,.46,.35,.99,.31,1.59-.04,.6-.25,1.22-.61,1.87-.36,.65-.79,1.15-1.27,1.5-.49,.35-.99,.54-1.52,.57-.53,.03-1.03-.09-1.52-.36-.49-.27-.86-.64-1.1-1.1Zm2.99,.15c.45-.22,.88-.69,1.28-1.4,.4-.72,.57-1.33,.52-1.83-.05-.5-.3-.88-.73-1.12-.43-.24-.87-.25-1.33-.03-.45,.22-.88,.69-1.28,1.4-.4,.72-.57,1.33-.52,1.83,.05,.5,.29,.87,.72,1.11,.44,.24,.88,.26,1.34,.04Z"/>
      <path class="d" d="M173.91,381.62l-.52,.97-4.54-2.45,.41-.77,3.7-1c.42-.11,.73-.24,.93-.39,.2-.14,.36-.31,.46-.51,.16-.29,.18-.56,.07-.82-.11-.26-.35-.49-.73-.69-.63-.34-1.22-.39-1.79-.14l-.47-1.05c.41-.19,.87-.27,1.38-.23,.5,.04,1.01,.2,1.51,.47,.67,.36,1.12,.81,1.34,1.34,.23,.53,.19,1.07-.1,1.62-.18,.33-.42,.61-.72,.83-.3,.22-.75,.41-1.35,.57l-2.49,.68,2.9,1.57Z"/>
      <path class="d" d="M179.81,384.15l-1.1-.57-.74,1.41-1.12-.58,.74-1.41-3.4-1.78,.42-.8,5.15-2.4,1.23,.64-4.88,2.31,2.03,1.06,.65-1.25,1.08,.57-.65,1.25,1.1,.57-.51,.97Z"/>
      <path class="d" d="M185.2,385.36l-1.5,.53-.8,1.6-1.16-.58,3.11-6.27,1.16,.58-1.6,3.22,4.7-1.68,1.31,.65-4.02,1.5,1.07,4.85-1.36-.68-.91-3.72Z"/>
      <path class="d" d="M189.01,390.09c-.38-.53-.61-1.11-.67-1.74-.06-.64,.06-1.26,.35-1.88,.29-.61,.7-1.1,1.23-1.46,.53-.36,1.12-.55,1.77-.59,.65-.03,1.3,.1,1.94,.41,.64,.31,1.16,.72,1.54,1.25,.38,.53,.61,1.11,.67,1.74,.06,.63-.06,1.26-.35,1.88-.29,.62-.71,1.11-1.24,1.46-.53,.35-1.12,.55-1.77,.58-.65,.03-1.3-.1-1.94-.41s-1.16-.72-1.54-1.25Zm3.31,.48c.43-.03,.82-.17,1.17-.42,.35-.25,.63-.58,.83-1.01,.2-.42,.28-.85,.25-1.28-.03-.43-.17-.82-.42-1.17s-.58-.62-1-.83c-.42-.2-.85-.29-1.27-.26-.43,.03-.82,.17-1.17,.42s-.63,.58-.83,1.01-.29,.85-.25,1.28c.03,.43,.17,.82,.42,1.17,.25,.35,.58,.62,1,.83,.42,.2,.85,.29,1.27,.26Z"/>
      <path class="d" d="M197.83,386.9l1.18,.54-2.92,6.36-1.18-.54,2.92-6.36Z"/>
      <path class="d" d="M203.23,390.55l-2.12-.94,.44-1.01,5.43,2.4-.44,1.01-2.12-.94-2.38,5.4-1.19-.52,2.38-5.4Z"/>
      <path class="d" d="M210.72,394.97c.22,.52,.18,1.14-.12,1.85l-1.2,2.82-1.15-.49,1.13-2.67c.18-.43,.22-.8,.11-1.1-.11-.3-.35-.54-.73-.69-.42-.18-.81-.19-1.17-.04-.35,.15-.63,.47-.83,.94l-1.05,2.49-1.15-.49,2.9-6.83,1.15,.49-1.05,2.49c.28-.12,.58-.18,.9-.17,.32,.01,.66,.09,1,.24,.62,.26,1.04,.66,1.26,1.18Z"/>
      <path class="d" d="M216.02,399.89l-3.88-1.58c-.08,.39-.02,.75,.18,1.08,.2,.33,.51,.58,.94,.76,.54,.22,1.06,.22,1.56,0l.33,.97c-.33,.18-.69,.26-1.09,.26-.4,0-.81-.09-1.23-.26-.54-.22-.98-.52-1.3-.91s-.52-.82-.59-1.29c-.07-.48,0-.96,.2-1.45,.2-.48,.48-.87,.86-1.17,.38-.3,.8-.47,1.28-.53,.48-.06,.96,.01,1.45,.21,.48,.2,.87,.48,1.16,.85s.47,.79,.52,1.26-.02,.96-.23,1.47c-.03,.08-.09,.19-.16,.34Zm-2.75-3.04c-.35,.11-.62,.34-.82,.68l2.81,1.14c.1-.38,.06-.73-.1-1.06s-.43-.56-.81-.72c-.37-.15-.73-.17-1.07-.05Zm2.67-2.58l1.36,.55-2.13,.61-1-.41,1.77-.76Z"/>
      <path class="d" d="M223.02,403.3l-3.27-1.25-1.22,1.27-1.25-.48,5.45-5.41,1.2,.46,.45,7.67-1.27-.49-.07-1.76Zm-.04-1.11l-.14-3.33-2.32,2.39,2.46,.94Z"/>
      <path class="d" d="M227.23,399.14l1.22,.45-2.03,5.54,3.44,1.26-.38,1.03-4.66-1.71,2.41-6.57Z"/>
      <path class="d" d="M232.41,401.03l1.23,.43-1.96,5.57,3.45,1.21-.36,1.04-4.68-1.64,2.32-6.6Z"/>
      <path class="d" d="M241.92,411.66l-.72-2.39c-.06-.01-.15-.04-.26-.07l-1.5-.49-.64,1.94-1.23-.41,2.19-6.65,2.74,.9c.58,.19,1.05,.45,1.41,.78,.37,.33,.6,.71,.71,1.14,.11,.43,.09,.89-.07,1.38-.16,.5-.43,.89-.79,1.17-.36,.28-.8,.44-1.32,.46l.81,2.69-1.33-.44Zm1.28-5.41c-.2-.32-.58-.57-1.11-.75l-1.44-.47-.87,2.65,1.44,.47c.54,.18,.98,.2,1.34,.06,.35-.14,.6-.42,.74-.85,.14-.42,.11-.8-.1-1.12Z"/>
      <path class="d" d="M246.26,405.69l1.24,.39-2.11,6.67-1.24-.39,2.11-6.67Z"/>
      <path class="d" d="M252.38,411.16l1.18,.36-.81,2.67c-.43,.17-.89,.26-1.4,.27-.5,0-1-.06-1.48-.21-.68-.21-1.25-.54-1.71-1.01-.46-.46-.76-1-.92-1.62-.15-.62-.13-1.26,.07-1.91,.2-.66,.53-1.2,1.01-1.63s1.03-.71,1.67-.84c.64-.13,1.31-.09,2,.12,.56,.17,1.04,.42,1.45,.74,.4,.32,.71,.71,.91,1.16l-1.02,.53c-.36-.67-.89-1.11-1.61-1.33-.47-.14-.92-.17-1.35-.09-.43,.09-.8,.28-1.11,.57-.32,.29-.54,.67-.68,1.13-.14,.45-.15,.88-.05,1.3s.3,.79,.61,1.1c.3,.32,.69,.54,1.16,.69,.52,.16,1.02,.18,1.48,.07l.63-2.09Z"/>
      <path class="d" d="M261.66,410.28l-1.91,6.73-1.25-.36,.82-2.89-3.48-.99-.82,2.89-1.25-.36,1.91-6.73,1.25,.36-.79,2.78,3.48,.99,.79-2.78,1.25,.36Z"/>
      <path class="d" d="M264.06,412.06l-2.24-.6,.28-1.06,5.74,1.53-.28,1.06-2.24-.6-1.52,5.7-1.26-.34,1.52-5.7Z"/>
      <path class="d" d="M267.12,418.83c-.45-.27-.79-.57-1.01-.88l.68-.87c.22,.29,.52,.56,.89,.8s.76,.41,1.16,.52c.5,.13,.9,.14,1.19,.04,.29-.1,.47-.28,.54-.55,.05-.19,.02-.37-.09-.53-.11-.16-.26-.3-.45-.43-.2-.12-.47-.28-.81-.46-.49-.25-.87-.48-1.16-.69-.29-.2-.52-.47-.68-.79s-.19-.7-.08-1.15c.1-.37,.28-.69,.56-.95,.28-.26,.65-.42,1.11-.5s.98-.04,1.58,.11c.41,.1,.81,.26,1.18,.46,.37,.2,.68,.44,.92,.71l-.65,.88c-.25-.25-.53-.46-.83-.63-.3-.17-.6-.3-.91-.37-.5-.13-.89-.14-1.17-.03-.29,.11-.46,.3-.53,.58-.05,.19-.02,.37,.09,.53,.11,.16,.26,.3,.45,.42s.47,.28,.81,.46c.47,.24,.86,.47,1.15,.68,.29,.21,.52,.47,.68,.79,.16,.32,.19,.69,.08,1.13-.09,.37-.28,.69-.56,.94-.28,.25-.65,.42-1.11,.49s-.99,.04-1.58-.11c-.52-.13-1.01-.33-1.46-.61Z"/>
      <path class="d" d="M278.95,421.83l-.93-2.32c-.06,0-.15-.02-.27-.05l-1.54-.36-.46,1.99-1.27-.29,1.58-6.82,2.81,.65c.59,.14,1.08,.35,1.48,.65,.39,.3,.66,.65,.81,1.07,.15,.42,.17,.88,.05,1.38-.12,.51-.35,.93-.68,1.24-.34,.31-.76,.51-1.27,.58l1.05,2.6-1.36-.32Zm.79-5.5c-.23-.3-.62-.51-1.18-.64l-1.48-.34-.63,2.72,1.48,.34c.55,.13,1,.11,1.34-.07,.34-.17,.56-.47,.66-.91,.1-.44,.04-.8-.2-1.1Z"/>
      <path class="d" d="M286.56,422.37l-.23,1.07-5.13-1.1,1.47-6.84,5,1.07-.23,1.07-3.72-.8-.38,1.78,3.3,.71-.22,1.05-3.3-.71-.41,1.89,3.86,.83Z"/>
      <path class="d" d="M287.95,423.63c-.46-.25-.81-.53-1.05-.83l.64-.9c.24,.28,.55,.53,.93,.75s.78,.37,1.19,.46c.51,.1,.91,.1,1.19-.02,.28-.11,.45-.3,.51-.57,.04-.2,0-.37-.11-.53-.12-.16-.27-.29-.47-.41s-.48-.26-.83-.42c-.5-.23-.9-.44-1.2-.63-.3-.19-.54-.44-.72-.75-.18-.31-.22-.69-.13-1.14,.08-.38,.25-.7,.52-.97,.27-.27,.63-.45,1.08-.55,.45-.1,.98-.09,1.58,.03,.42,.08,.82,.22,1.2,.4,.38,.19,.7,.41,.96,.66l-.6,.91c-.27-.24-.55-.43-.86-.59-.31-.16-.62-.27-.92-.33-.5-.1-.89-.09-1.17,.03-.28,.12-.45,.32-.5,.6-.04,.2,0,.37,.11,.52,.12,.15,.27,.29,.48,.4,.2,.11,.48,.26,.83,.42,.49,.22,.88,.43,1.18,.62,.3,.19,.54,.44,.72,.75,.18,.31,.23,.68,.14,1.13-.08,.38-.25,.7-.51,.97-.27,.27-.63,.45-1.08,.55-.46,.1-.98,.09-1.58-.03-.53-.11-1.03-.28-1.49-.53Z"/>
      <path class="d" d="M298.45,424.66l-.2,1.07-5.16-.96,1.27-6.88,5.02,.93-.2,1.07-3.75-.69-.33,1.79,3.32,.62-.19,1.05-3.32-.61-.35,1.9,3.88,.72Z"/>
      <path class="d" d="M303.78,426.68l-1.07-2.26c-.06,0-.15-.02-.27-.03l-1.56-.26-.34,2.01-1.28-.22,1.17-6.9,2.84,.48c.6,.1,1.1,.29,1.51,.56,.41,.27,.7,.61,.88,1.02s.22,.87,.13,1.37c-.09,.52-.29,.94-.61,1.28-.32,.33-.73,.55-1.23,.65l1.2,2.54-1.38-.23Zm.46-5.54c-.25-.29-.65-.48-1.21-.57l-1.5-.25-.46,2.75,1.5,.25c.56,.09,1,.05,1.33-.14,.33-.19,.53-.51,.61-.95,.07-.44-.01-.8-.26-1.09Z"/>
      <path class="d" d="M313.45,421.1l-4.07,6.46-1.27-.19-1.97-7.38,1.39,.21,1.49,5.69,3.14-4.98,1.29,.2Z"/>
      <path class="d" d="M318.06,427.68l-.15,1.08-5.2-.71,.95-6.94,5.06,.69-.15,1.08-3.77-.52-.25,1.8,3.35,.46-.15,1.06-3.35-.46-.26,1.91,3.91,.54Z"/>
      <path class="d" d="M319.77,421.95l3.04,.36c.74,.09,1.38,.31,1.92,.67,.54,.36,.94,.82,1.19,1.38,.25,.56,.34,1.19,.26,1.88-.08,.69-.31,1.28-.69,1.76-.38,.49-.88,.84-1.49,1.06-.61,.22-1.29,.28-2.03,.19l-3.04-.36,.83-6.95Zm2.28,6.22c.51,.06,.97,.02,1.38-.13,.41-.15,.74-.39,.99-.73,.25-.34,.41-.74,.46-1.22,.06-.48,0-.91-.16-1.29-.17-.39-.43-.7-.79-.94s-.8-.39-1.31-.45l-1.69-.2-.57,4.77,1.69,.2Z"/>
      <path class="d" d="M326.25,429.59c-.14-.17-.2-.38-.17-.62,.03-.25,.13-.44,.3-.57,.17-.14,.37-.19,.61-.17,.23,.03,.42,.12,.56,.29,.14,.17,.2,.38,.17,.62-.03,.24-.13,.43-.3,.57-.18,.14-.38,.2-.6,.17-.23-.02-.41-.12-.55-.3Z"/>
    </g>
  </g>
</svg>