<?xml version="1.0" encoding="UTF-8"?>
<svg id="b" data-name="圖層 2" xmlns="http://www.w3.org/2000/svg" width="67.47" height="74.44" viewBox="0 0 67.47 74.44">
  <defs>
    <style>
      .d {
        fill: #ea5504;
      }
    </style>
  </defs>
  <g id="c" data-name="layout">
    <g>
      <g>
        <path class="d" d="M4.63,74.44c-1.48-.86-2.61-2.01-3.39-3.44-.79-1.43-1.18-3.06-1.18-4.9s.39-3.47,1.18-4.91c.79-1.43,1.92-2.58,3.39-3.43l.97,1.15c-1.24,.75-2.18,1.73-2.84,2.97s-.99,2.64-.99,4.21,.33,2.96,.99,4.2,1.61,2.23,2.84,2.96l-.97,1.17Z"/>
        <path class="d" d="M13.29,57.31h4.11c2.72,0,4.68,.86,4.68,3.26,0,1.26-.7,2.47-1.89,2.86v.09c1.51,.32,2.61,1.35,2.61,3.15,0,2.63-2.14,3.89-5.08,3.89h-4.43v-13.25Zm3.87,5.53c2.02,0,2.86-.76,2.86-2,0-1.39-.94-1.91-2.81-1.91h-1.84v3.91h1.78Zm.32,6.09c2.07,0,3.26-.74,3.26-2.36,0-1.49-1.15-2.14-3.26-2.14h-2.11v4.5h2.11Z"/>
        <path class="d" d="M25.35,67.94c0-2.12,1.8-3.22,5.92-3.67-.02-1.15-.43-2.16-1.89-2.16-1.04,0-2.02,.47-2.86,1.01l-.77-1.4c1.03-.65,2.41-1.3,4-1.3,2.47,0,3.6,1.57,3.6,4.2v5.96h-1.69l-.18-1.13h-.05c-.9,.77-1.96,1.37-3.15,1.37-1.71,0-2.92-1.12-2.92-2.86Zm5.92,.07v-2.43c-2.93,.36-3.92,1.1-3.92,2.21,0,.97,.67,1.37,1.55,1.37s1.57-.41,2.38-1.15Z"/>
        <path class="d" d="M36.39,65.63c0-3.31,2.29-5.22,4.9-5.22,1.26,0,2.18,.5,2.9,1.13l-1.03,1.35c-.54-.49-1.1-.77-1.78-.77-1.66,0-2.84,1.4-2.84,3.51s1.13,3.48,2.79,3.48c.83,0,1.57-.4,2.16-.9l.85,1.37c-.9,.81-2.07,1.22-3.21,1.22-2.68,0-4.74-1.89-4.74-5.17Z"/>
        <path class="d" d="M47.2,56.22h2.02v9.25h.05l3.89-4.81h2.29l-3.37,4.02,3.75,5.89h-2.25l-2.68-4.48-1.67,1.93v2.56h-2.02v-14.35Z"/>
        <path class="d" d="M62.9,57.7c1.48,.86,2.61,2.01,3.39,3.44,.79,1.43,1.18,3.06,1.18,4.9s-.39,3.47-1.18,4.91-1.92,2.58-3.39,3.43l-.97-1.15c1.24-.75,2.18-1.73,2.84-2.97,.66-1.24,.99-2.64,.99-4.21s-.33-2.96-.99-4.2c-.66-1.24-1.61-2.23-2.84-2.96l.97-1.17Z"/>
      </g>
      <g>
        <rect class="d" x="5.63" y="21.23" width="48.52" height="4.68"/>
        <path class="d" d="M37.65,1.08c.7,1.09,.37,2.54-.72,3.23L6.7,23.57l30.23,19.25c1.09,.7,1.42,2.15,.72,3.23s-2.15,1.4-3.24,.72L1.08,25.55c-.67-.43-1.08-1.18-1.08-1.98s.41-1.55,1.08-1.98L34.41,.37c.39-.25,.83-.37,1.26-.37,.77,0,1.53,.38,1.98,1.08Z"/>
      </g>
    </g>
  </g>
</svg>