<?xml version="1.0" encoding="UTF-8"?>
<svg id="b" data-name="圖層 2" xmlns="http://www.w3.org/2000/svg" width="37.73" height="36.5" viewBox="0 0 37.73 36.5">
  <defs>
    <style>
      .d {
        fill: #9e9e9f;
      }
    </style>
  </defs>
  <g id="c" data-name="layout">
    <path class="d" d="M34.58,7.13S23.9-6.04,7.28,3.42c0,0-10.1,5.85-6.51,17.17,0,0,3.21,8.75,14.45,10.26,0,0,3.19,.12,2.07,3.42-1.12,3.29,1.57,1.97,1.57,1.97,0,0,9.87-4.73,15.71-12.32,5.85-7.56,2.16-14.13,0-16.79ZM11.3,20.92h-3.98c-.44,0-.8-.36-.8-.8v-7.47c0-.51,.41-.9,.91-.9s.9,.39,.9,.9v6.43c0,.07,.04,.12,.12,.12h2.84c.46,0,.86,.39,.86,.87s-.39,.86-.86,.86Zm3.64-.58c0,.49-.41,.9-.9,.9s-.9-.41-.9-.9v-7.7c0-.49,.41-.88,.9-.88s.9,.39,.9,.88v7.7Zm9.08-.32c0,.67-.55,1.22-1.23,1.22-.32,0-.61-.16-.8-.44l-3.63-5.57c-.04-.07-.15-.04-.15,.03v5.08c0,.49-.41,.9-.9,.9s-.91-.41-.91-.9v-7.34c0-.7,.57-1.25,1.26-1.25,.3,0,.58,.15,.74,.39l3.66,5.63c.04,.07,.15,.04,.15-.03v-5.09c0-.51,.41-.9,.9-.9s.91,.39,.91,.9v7.37Zm3.48-4.45h2.71c.48,0,.87,.39,.87,.87s-.39,.87-.87,.87h-2.71s-.07,.03-.07,.09v1.74s.03,.09,.07,.09h2.7c.48,0,.89,.39,.89,.88s-.41,.89-.89,.89h-3.8c-.42,0-.77-.35-.77-.77v-7.57c0-.42,.35-.77,.77-.77h3.8c.48,0,.89,.39,.89,.89s-.41,.88-.89,.88h-2.7s-.07,.04-.07,.09v1.74c0,.06,.03,.09,.07,.09Z"/>
  </g>
</svg>