<?xml version="1.0" encoding="UTF-8"?>
<svg id="b" data-name="圖層 2" xmlns="http://www.w3.org/2000/svg" width="53.45" height="53.02" viewBox="0 0 53.45 53.02">
  <defs>
    <style>
      .d {
        fill: none;
        stroke: #ea5504;
        stroke-miterlimit: 10;
        stroke-width: 3px;
      }

      .e {
        fill: #ea5504;
      }
    </style>
  </defs>
  <g id="c" data-name="layout">
    <g>
      <path class="e" d="M3.56,53.02c-1.15-.67-2.03-1.56-2.64-2.67C.31,49.24,0,47.97,0,46.54s.31-2.7,.92-3.82c.61-1.12,1.49-2,2.64-2.67l.76,.9c-.96,.58-1.7,1.35-2.21,2.31-.51,.96-.77,2.05-.77,3.28s.26,2.3,.77,3.27,1.25,1.73,2.21,2.3l-.76,.91Z"/>
      <path class="e" d="M10.29,39.7h1.86l1.89,5.21c.24,.69,.45,1.39,.69,2.09h.07c.24-.7,.43-1.4,.67-2.09l1.86-5.21h1.88v10.31h-1.51v-5.1c0-.92,.13-2.25,.21-3.19h-.06l-.83,2.38-1.79,4.92h-1.01l-1.81-4.92-.81-2.38h-.06c.07,.94,.2,2.27,.2,3.19v5.1h-1.46v-10.31Z"/>
      <path class="e" d="M21.85,46.18c0-2.58,1.72-4.06,3.63-4.06s3.63,1.49,3.63,4.06-1.72,4.02-3.63,4.02-3.63-1.47-3.63-4.02Zm5.6,0c0-1.64-.76-2.73-1.98-2.73s-1.96,1.09-1.96,2.73,.76,2.7,1.96,2.7,1.98-1.08,1.98-2.7Z"/>
      <path class="e" d="M31.63,42.31h1.32l.13,1.39h.04c.55-.99,1.36-1.58,2.19-1.58,.38,0,.63,.06,.87,.17l-.29,1.4c-.27-.08-.46-.13-.77-.13-.63,0-1.39,.43-1.88,1.65v4.8h-1.6v-7.7Z"/>
      <path class="e" d="M37.28,46.18c0-2.51,1.71-4.06,3.52-4.06,2.04,0,3.14,1.47,3.14,3.66,0,.31-.03,.63-.07,.81h-5c.13,1.47,1.05,2.35,2.38,2.35,.69,0,1.27-.21,1.83-.58l.56,1.02c-.71,.48-1.6,.81-2.61,.81-2.09,0-3.75-1.48-3.75-4.02Zm5.27-.7c0-1.33-.6-2.1-1.72-2.1-.97,0-1.82,.74-1.98,2.1h3.7Z"/>
      <path class="e" d="M49.9,40c1.15,.67,2.03,1.56,2.64,2.67s.92,2.38,.92,3.81-.31,2.7-.92,3.82-1.49,2-2.64,2.67l-.76-.9c.96-.58,1.7-1.35,2.21-2.31s.77-2.05,.77-3.28-.26-2.3-.77-3.27-1.25-1.73-2.21-2.3l.76-.91Z"/>
    </g>
    <g>
      <line class="d" y1="15.09" x2="31.07" y2="15.09"/>
      <path class="e" d="M10.57,29.49c-.45-.7-.24-1.63,.46-2.07L30.38,15.09,11.03,2.76c-.7-.45-.91-1.37-.46-2.07C11.01,0,11.95-.21,12.64,.23l21.34,13.59c.43,.28,.69,.75,.69,1.27s-.26,.99-.69,1.27L12.64,29.95c-.25,.16-.53,.23-.81,.23-.5,0-.98-.25-1.27-.69Z"/>
    </g>
  </g>
</svg>