<?xml version="1.0" encoding="UTF-8"?>
<svg id="b" data-name="圖層 2" xmlns="http://www.w3.org/2000/svg" width="43.17" height="42.67" viewBox="0 0 43.17 42.67">
  <defs>
    <style>
      .d {
        fill: none;
        stroke: #000;
        stroke-miterlimit: 10;
        stroke-width: 2.35px;
      }

      .e {
        fill: #585757;
      }
    </style>
  </defs>
  <g id="c" data-name="layout">
    <g>
      <line class="d" x1="32.19" y1="11.84" x2="7.81" y2="11.84"/>
      <path d="M23.9,.54c.35,.55,.19,1.28-.36,1.63L8.35,11.84l15.19,9.67c.55,.35,.71,1.08,.36,1.63-.35,.55-1.08,.71-1.63,.36L5.52,12.84c-.34-.22-.54-.59-.54-.99s.21-.78,.54-.99L22.27,.18C22.47,.06,22.69,0,22.91,0c.39,0,.77,.19,1,.54Z"/>
    </g>
    <g>
      <path class="e" d="M3.3,42.67c-1.07-.62-1.88-1.45-2.45-2.48-.57-1.03-.85-2.21-.85-3.54s.28-2.51,.85-3.54c.57-1.04,1.38-1.86,2.45-2.48l.7,.83c-.89,.54-1.58,1.25-2.05,2.15s-.71,1.91-.71,3.04,.24,2.14,.71,3.04,1.16,1.61,2.05,2.14l-.7,.84Z"/>
      <path class="e" d="M12.53,35.06c-.3,1.22-.74,2.5-1.26,3.48,.21,.13,.44,.31,.78,.52,.88,.55,2.08,.62,3.59,.62,1.59,0,3.76-.12,5.2-.3-.14,.34-.35,.92-.36,1.25-1,.07-3.35,.14-4.89,.14-1.69,0-2.8-.14-3.74-.69-.52-.3-.99-.75-1.26-.75-.29,0-.74,.84-1.08,1.64l-.82-1.13c.53-.7,1.08-1.26,1.55-1.47,.35-.68,.69-1.57,.91-2.44h-1.77c.32-.75,.71-1.79,1.05-2.78h-1.55v-1.09h3.03c-.3,.9-.69,1.94-1.03,2.82h.92l.18-.05,.55,.23Zm-2.16-3.48c-.16-.56-.48-1.44-.69-2.12l1.1-.3c.23,.66,.55,1.5,.71,2.04l-1.13,.38Zm4.04,1.73c-.05,1.79-.29,4.07-1.14,5.69-.23-.2-.75-.48-1.05-.6,.95-1.77,1.04-4.24,1.04-5.93v-2.85h6.56v1.09h-5.39v1.51h4.5l.22-.04,.75,.26c-.32,1.46-.9,2.69-1.64,3.69,.82,.73,1.56,1.44,2.04,2.01l-.9,.83c-.44-.55-1.12-1.25-1.88-1.98-.84,.87-1.83,1.53-2.91,1.99-.14-.31-.46-.78-.69-1.03,1-.36,1.94-.96,2.73-1.77-.66-.58-1.34-1.16-1.95-1.65l.79-.7c.58,.46,1.22,.97,1.86,1.51,.45-.61,.8-1.3,1.09-2.05h-4.03Z"/>
      <path class="e" d="M33.81,29.47v11.44h-1.3v-.7h-8.31v.7h-1.25v-11.44h10.86Zm-1.3,9.61v-8.37h-8.31v8.37h8.31Zm-1.61-6.59v4.77h-5.12v-4.77h5.12Zm-1.21,1.07h-2.77v2.65h2.77v-2.65Z"/>
      <path class="e" d="M39.87,30.58c1.07,.62,1.88,1.45,2.45,2.48,.57,1.03,.85,2.21,.85,3.54s-.28,2.51-.85,3.54c-.57,1.04-1.38,1.86-2.45,2.48l-.7-.83c.89-.54,1.58-1.25,2.05-2.15s.71-1.91,.71-3.04-.24-2.14-.71-3.04-1.16-1.61-2.05-2.14l.7-.84Z"/>
    </g>
  </g>
</svg>