<?xml version="1.0" encoding="UTF-8"?>
<svg id="b" data-name="圖層 2" xmlns="http://www.w3.org/2000/svg" width="606.07" height="294.65" viewBox="0 0 606.07 294.65">
  <defs>
    <style>
      .d {
        fill: #0c131b;
      }

      .e {
        fill: #f7e0c0;
      }
    </style>
  </defs>
  <g id="c" data-name="b">
    <g>
      <path class="d" d="M14.96,137.55c-2.11,0-4.07-.37-5.88-1.1-1.81-.73-3.4-1.76-4.76-3.08s-2.42-2.85-3.18-4.6-1.14-3.63-1.14-5.66,.38-3.91,1.14-5.66,1.82-3.28,3.18-4.6,2.95-2.35,4.76-3.08c1.81-.73,3.77-1.1,5.88-1.1s4.07,.37,5.88,1.1c1.81,.73,3.4,1.76,4.76,3.08s2.42,2.85,3.18,4.6,1.14,3.63,1.14,5.66-.38,3.91-1.14,5.66-1.82,3.28-3.18,4.6-2.95,2.35-4.76,3.08-3.77,1.1-5.88,1.1Zm0-6.32c1.12,0,2.16-.21,3.12-.62s1.79-.98,2.5-1.7c.71-.72,1.26-1.58,1.66-2.58s.6-2.07,.6-3.22-.2-2.25-.6-3.24-.95-1.84-1.66-2.56-1.54-1.29-2.5-1.7c-.96-.41-2-.62-3.12-.62s-2.16,.21-3.12,.62-1.79,.98-2.5,1.7c-.71,.72-1.26,1.57-1.66,2.56-.4,.99-.6,2.05-.6,3.2s.2,2.26,.6,3.26c.4,1,.95,1.86,1.66,2.58s1.54,1.29,2.5,1.7c.96,.41,2,.62,3.12,.62Z"/>
      <path class="d" d="M41.68,137.11l-11.32-28h7.44l7.96,20.84,8.12-20.84h7.16l-11.48,28h-7.88Z"/>
      <path class="d" d="M64.08,137.11v-28h22.08v5.96h-15.2v5.04h10.04v5.76h-10.04v5.28h15.36v5.96h-22.24Z"/>
      <path class="d" d="M91.36,137.11v-28h14.32c1.92,0,3.63,.38,5.12,1.14,1.49,.76,2.66,1.81,3.5,3.16,.84,1.35,1.26,2.89,1.26,4.62s-.48,3.33-1.44,4.72-2.23,2.44-3.8,3.16l6.12,11.2h-7.68l-5.28-10.2h-5.24v10.2h-6.88Zm6.88-15.8h6.8c1.07,0,1.93-.29,2.58-.88s.98-1.35,.98-2.28-.33-1.69-.98-2.28-1.51-.88-2.58-.88h-6.8v6.32Z"/>
      <path class="d" d="M130.8,137.51c-2.27,0-4.51-.41-6.72-1.24-2.21-.83-4.19-1.97-5.92-3.44l3.84-5c1.71,1.39,3.28,2.38,4.72,2.98,1.44,.6,2.97,.9,4.6,.9,1.07,0,1.97-.11,2.72-.32s1.32-.53,1.72-.94,.6-.9,.6-1.46c0-.77-.29-1.37-.88-1.8-.59-.43-1.59-.76-3-1l-6.16-1.08c-2.27-.4-4.01-1.27-5.24-2.6-1.23-1.33-1.84-3.03-1.84-5.08,0-1.81,.46-3.37,1.38-4.68s2.24-2.31,3.96-3,3.77-1.04,6.14-1.04c2.08,0,4.17,.35,6.28,1.06s3.93,1.69,5.48,2.94l-3.64,5.08c-2.88-2.21-5.75-3.32-8.6-3.32-.93,0-1.74,.1-2.42,.3s-1.2,.48-1.56,.84c-.36,.36-.54,.79-.54,1.3,0,.69,.26,1.23,.78,1.6,.52,.37,1.37,.67,2.54,.88l5.8,.96c2.69,.43,4.74,1.32,6.14,2.68s2.1,3.12,2.1,5.28c0,1.89-.49,3.53-1.48,4.9-.99,1.37-2.4,2.43-4.24,3.18-1.84,.75-4.03,1.12-6.56,1.12h0Z"/>
      <path class="d" d="M147.24,137.11v-28h22.08v5.96h-15.2v5.04h10.04v5.76h-10.04v5.28h15.36v5.96h-22.24Z"/>
      <path class="d" d="M172.32,137.11l11.48-28h7.88l11.32,28h-7.44l-2.56-6.76h-10.92l-2.6,6.76h-7.16Zm11.84-12.24h6.8l-3.36-8.96-3.44,8.96Z"/>
      <path class="d" d="M216.96,137.51c-2.27,0-4.51-.41-6.72-1.24-2.21-.83-4.19-1.97-5.92-3.44l3.84-5c1.71,1.39,3.28,2.38,4.72,2.98,1.44,.6,2.97,.9,4.6,.9,1.07,0,1.97-.11,2.72-.32s1.32-.53,1.72-.94,.6-.9,.6-1.46c0-.77-.29-1.37-.88-1.8-.59-.43-1.59-.76-3-1l-6.16-1.08c-2.27-.4-4.01-1.27-5.24-2.6-1.23-1.33-1.84-3.03-1.84-5.08,0-1.81,.46-3.37,1.38-4.68s2.24-2.31,3.96-3,3.77-1.04,6.14-1.04c2.08,0,4.17,.35,6.28,1.06s3.93,1.69,5.48,2.94l-3.64,5.08c-2.88-2.21-5.75-3.32-8.6-3.32-.93,0-1.74,.1-2.42,.3s-1.2,.48-1.56,.84c-.36,.36-.54,.79-.54,1.3,0,.69,.26,1.23,.78,1.6,.52,.37,1.37,.67,2.54,.88l5.8,.96c2.69,.43,4.74,1.32,6.14,2.68s2.1,3.12,2.1,5.28c0,1.89-.49,3.53-1.48,4.9-.99,1.37-2.4,2.43-4.24,3.18-1.84,.75-4.03,1.12-6.56,1.12h0Z"/>
      <path class="d" d="M256.24,137.51c-2.13,0-4.11-.37-5.94-1.1-1.83-.73-3.42-1.75-4.78-3.06s-2.42-2.83-3.18-4.58-1.14-3.63-1.14-5.66,.38-3.95,1.14-5.7,1.83-3.27,3.2-4.58c1.37-1.31,2.97-2.33,4.8-3.06,1.83-.73,3.79-1.1,5.9-1.1,1.55,0,3.07,.23,4.56,.68s2.87,1.09,4.14,1.9c1.27,.81,2.33,1.78,3.18,2.9l-4.64,4.56c-.99-1.25-2.09-2.19-3.3-2.8s-2.53-.92-3.94-.92c-1.12,0-2.17,.21-3.14,.62s-1.82,.98-2.54,1.7c-.72,.72-1.28,1.57-1.68,2.56s-.6,2.07-.6,3.24,.21,2.21,.62,3.18c.41,.97,.99,1.83,1.72,2.56,.73,.73,1.6,1.3,2.6,1.7,1,.4,2.09,.6,3.26,.6,1.36,0,2.62-.29,3.78-.88s2.21-1.45,3.14-2.6l4.52,4.44c-.85,1.09-1.91,2.05-3.16,2.86s-2.61,1.44-4.08,1.88-2.95,.66-4.44,.66h0Z"/>
      <path class="d" d="M285.2,137.55c-2.11,0-4.07-.37-5.88-1.1-1.81-.73-3.4-1.76-4.76-3.08-1.36-1.32-2.42-2.85-3.18-4.6-.76-1.75-1.14-3.63-1.14-5.66s.38-3.91,1.14-5.66,1.82-3.28,3.18-4.6,2.95-2.35,4.76-3.08,3.77-1.1,5.88-1.1,4.07,.37,5.88,1.1c1.81,.73,3.4,1.76,4.76,3.08,1.36,1.32,2.42,2.85,3.18,4.6,.76,1.75,1.14,3.63,1.14,5.66s-.38,3.91-1.14,5.66-1.82,3.28-3.18,4.6-2.95,2.35-4.76,3.08-3.77,1.1-5.88,1.1Zm0-6.32c1.12,0,2.16-.21,3.12-.62s1.79-.98,2.5-1.7c.71-.72,1.26-1.58,1.66-2.58s.6-2.07,.6-3.22-.2-2.25-.6-3.24-.95-1.84-1.66-2.56-1.54-1.29-2.5-1.7c-.96-.41-2-.62-3.12-.62s-2.16,.21-3.12,.62-1.79,.98-2.5,1.7c-.71,.72-1.26,1.57-1.66,2.56s-.6,2.05-.6,3.2,.2,2.26,.6,3.26,.95,1.86,1.66,2.58,1.54,1.29,2.5,1.7c.96,.41,2,.62,3.12,.62Z"/>
      <path class="d" d="M304.8,137.11v-28h6.88v21.92h14.76v6.08h-21.64Z"/>
      <path class="d" d="M331.28,137.11v-28h6.88v21.92h14.76v6.08h-21.64Z"/>
      <path class="d" d="M355.56,137.11l11.48-28h7.88l11.32,28h-7.44l-2.56-6.76h-10.92l-2.6,6.76h-7.16Zm11.84-12.24h6.8l-3.36-8.96-3.44,8.96Z"/>
      <path class="d" d="M389.28,137.11v-28h13.88c1.92,0,3.61,.33,5.06,1s2.59,1.59,3.42,2.78,1.24,2.55,1.24,4.1c0,1.15-.29,2.22-.86,3.22s-1.35,1.85-2.34,2.54c1.25,.67,2.25,1.53,2.98,2.6s1.1,2.24,1.1,3.52c0,1.63-.41,3.06-1.24,4.3-.83,1.24-1.99,2.21-3.48,2.9-1.49,.69-3.23,1.04-5.2,1.04h-14.56Zm6.88-16.84h6.56c1.01,0,1.81-.25,2.4-.76s.88-1.17,.88-2-.29-1.53-.88-2.02-1.39-.74-2.4-.74h-6.56v5.52Zm0,11.2h7.16c1.07,0,1.91-.27,2.54-.8,.63-.53,.94-1.25,.94-2.16s-.31-1.63-.94-2.16c-.63-.53-1.47-.8-2.54-.8h-7.16v5.92h0Z"/>
      <path class="d" d="M432.04,137.55c-2.11,0-4.07-.37-5.88-1.1-1.81-.73-3.4-1.76-4.76-3.08-1.36-1.32-2.42-2.85-3.18-4.6-.76-1.75-1.14-3.63-1.14-5.66s.38-3.91,1.14-5.66,1.82-3.28,3.18-4.6,2.95-2.35,4.76-3.08,3.77-1.1,5.88-1.1,4.07,.37,5.88,1.1c1.81,.73,3.4,1.76,4.76,3.08,1.36,1.32,2.42,2.85,3.18,4.6,.76,1.75,1.14,3.63,1.14,5.66s-.38,3.91-1.14,5.66-1.82,3.28-3.18,4.6-2.95,2.35-4.76,3.08-3.77,1.1-5.88,1.1Zm0-6.32c1.12,0,2.16-.21,3.12-.62s1.79-.98,2.5-1.7c.71-.72,1.26-1.58,1.66-2.58s.6-2.07,.6-3.22-.2-2.25-.6-3.24-.95-1.84-1.66-2.56-1.54-1.29-2.5-1.7c-.96-.41-2-.62-3.12-.62s-2.16,.21-3.12,.62-1.79,.98-2.5,1.7c-.71,.72-1.26,1.57-1.66,2.56s-.6,2.05-.6,3.2,.2,2.26,.6,3.26,.95,1.86,1.66,2.58,1.54,1.29,2.5,1.7c.96,.41,2,.62,3.12,.62Z"/>
      <path class="d" d="M451.64,137.11v-28h14.32c1.92,0,3.63,.38,5.12,1.14s2.66,1.81,3.5,3.16c.84,1.35,1.26,2.89,1.26,4.62s-.48,3.33-1.44,4.72-2.23,2.44-3.8,3.16l6.12,11.2h-7.68l-5.28-10.2h-5.24v10.2h-6.88Zm6.88-15.8h6.8c1.07,0,1.93-.29,2.58-.88s.98-1.35,.98-2.28-.33-1.69-.98-2.28c-.65-.59-1.51-.88-2.58-.88h-6.8v6.32Z"/>
      <path class="d" d="M478.16,137.11l11.48-28h7.88l11.32,28h-7.44l-2.56-6.76h-10.92l-2.6,6.76h-7.16Zm11.84-12.24h6.8l-3.36-8.96-3.44,8.96Z"/>
      <path class="d" d="M514.24,137.11v-21.92h-9.16v-6.08h25.2v6.08h-9.16v21.92h-6.88Z"/>
      <path class="d" d="M534.32,137.11v-28h6.88v28h-6.88Z"/>
      <path class="d" d="M560.79,137.55c-2.11,0-4.07-.37-5.88-1.1-1.81-.73-3.4-1.76-4.76-3.08s-2.42-2.85-3.18-4.6-1.14-3.63-1.14-5.66,.38-3.91,1.14-5.66,1.82-3.28,3.18-4.6,2.95-2.35,4.76-3.08,3.77-1.1,5.88-1.1,4.07,.37,5.88,1.1c1.81,.73,3.4,1.76,4.76,3.08s2.42,2.85,3.18,4.6,1.14,3.63,1.14,5.66-.38,3.91-1.14,5.66-1.82,3.28-3.18,4.6-2.95,2.35-4.76,3.08-3.77,1.1-5.88,1.1Zm0-6.32c1.12,0,2.16-.21,3.12-.62s1.79-.98,2.5-1.7c.71-.72,1.26-1.58,1.66-2.58,.4-1,.6-2.07,.6-3.22s-.2-2.25-.6-3.24c-.4-.99-.95-1.84-1.66-2.56-.71-.72-1.54-1.29-2.5-1.7-.96-.41-2-.62-3.12-.62s-2.16,.21-3.12,.62-1.79,.98-2.5,1.7c-.71,.72-1.26,1.57-1.66,2.56-.4,.99-.6,2.05-.6,3.2s.2,2.26,.6,3.26,.95,1.86,1.66,2.58c.71,.72,1.54,1.29,2.5,1.7,.96,.41,2,.62,3.12,.62Z"/>
      <path class="d" d="M580.39,137.11v-28h6.48l12.72,16.24v-16.24h6.48v28h-6.08l-13.12-16.88v16.88h-6.48Z"/>
      <path class="d" d="M93,185.55l11.48-28h7.88l11.32,28h-7.44l-2.56-6.76h-10.92l-2.6,6.76h-7.16Zm11.84-12.24h6.8l-3.36-8.96-3.44,8.96Z"/>
      <path class="d" d="M126.72,185.55v-28h14.76c1.84,0,3.47,.39,4.9,1.18s2.55,1.86,3.38,3.22,1.24,2.92,1.24,4.68-.41,3.19-1.24,4.54c-.83,1.35-1.96,2.41-3.4,3.18-1.44,.77-3.07,1.16-4.88,1.16h-7.88v10.04h-6.88Zm6.88-15.72h7.08c1.01,0,1.83-.29,2.44-.88,.61-.59,.92-1.35,.92-2.28s-.31-1.74-.92-2.34-1.43-.9-2.44-.9h-7.08v6.4Z"/>
      <path class="d" d="M155.52,185.55v-28h14.76c1.84,0,3.47,.39,4.9,1.18s2.55,1.86,3.38,3.22,1.24,2.92,1.24,4.68-.41,3.19-1.24,4.54c-.83,1.35-1.96,2.41-3.4,3.18-1.44,.77-3.07,1.16-4.88,1.16h-7.88v10.04h-6.88Zm6.88-15.72h7.08c1.01,0,1.83-.29,2.44-.88,.61-.59,.92-1.35,.92-2.28s-.31-1.74-.92-2.34-1.43-.9-2.44-.9h-7.08v6.4Z"/>
      <path class="d" d="M184.32,185.55v-28h6.88v21.92h14.76v6.08h-21.64Z"/>
      <path class="d" d="M210.8,185.55v-28h6.88v28h-6.88Z"/>
      <path class="d" d="M237.36,185.95c-2.13,0-4.11-.37-5.94-1.1-1.83-.73-3.42-1.75-4.78-3.06s-2.42-2.83-3.18-4.58-1.14-3.63-1.14-5.66,.38-3.95,1.14-5.7,1.83-3.27,3.2-4.58,2.97-2.33,4.8-3.06,3.79-1.1,5.9-1.1c1.55,0,3.07,.23,4.56,.68,1.49,.45,2.87,1.09,4.14,1.9s2.33,1.78,3.18,2.9l-4.64,4.56c-.99-1.25-2.09-2.19-3.3-2.8s-2.53-.92-3.94-.92c-1.12,0-2.17,.21-3.14,.62-.97,.41-1.82,.98-2.54,1.7-.72,.72-1.28,1.57-1.68,2.56-.4,.99-.6,2.07-.6,3.24s.21,2.21,.62,3.18c.41,.97,.99,1.83,1.72,2.56s1.6,1.3,2.6,1.7,2.09,.6,3.26,.6c1.36,0,2.62-.29,3.78-.88,1.16-.59,2.21-1.45,3.14-2.6l4.52,4.44c-.85,1.09-1.91,2.05-3.16,2.86s-2.61,1.44-4.08,1.88-2.95,.66-4.44,.66h0Z"/>
      <path class="d" d="M250.36,185.55l11.48-28h7.88l11.32,28h-7.44l-2.56-6.76h-10.92l-2.6,6.76h-7.16Zm11.84-12.24h6.8l-3.36-8.96-3.44,8.96Z"/>
      <path class="d" d="M286.44,185.55v-21.92h-9.16v-6.08h25.2v6.08h-9.16v21.92h-6.88Z"/>
      <path class="d" d="M306.52,185.55v-28h6.88v28h-6.88Z"/>
      <path class="d" d="M333,185.99c-2.11,0-4.07-.37-5.88-1.1-1.81-.73-3.4-1.76-4.76-3.08-1.36-1.32-2.42-2.85-3.18-4.6-.76-1.75-1.14-3.63-1.14-5.66s.38-3.91,1.14-5.66,1.82-3.28,3.18-4.6,2.95-2.35,4.76-3.08,3.77-1.1,5.88-1.1,4.07,.37,5.88,1.1c1.81,.73,3.4,1.76,4.76,3.08,1.36,1.32,2.42,2.85,3.18,4.6,.76,1.75,1.14,3.63,1.14,5.66s-.38,3.91-1.14,5.66-1.82,3.28-3.18,4.6-2.95,2.35-4.76,3.08-3.77,1.1-5.88,1.1Zm0-6.32c1.12,0,2.16-.21,3.12-.62,.96-.41,1.79-.98,2.5-1.7s1.26-1.58,1.66-2.58,.6-2.07,.6-3.22-.2-2.25-.6-3.24-.95-1.84-1.66-2.56-1.54-1.29-2.5-1.7-2-.62-3.12-.62-2.16,.21-3.12,.62c-.96,.41-1.79,.98-2.5,1.7s-1.26,1.57-1.66,2.56c-.4,.99-.6,2.05-.6,3.2s.2,2.26,.6,3.26,.95,1.86,1.66,2.58,1.54,1.29,2.5,1.7,2,.62,3.12,.62h0Z"/>
      <path class="d" d="M352.6,185.55v-28h6.48l12.72,16.24v-16.24h6.48v28h-6.08l-13.12-16.88v16.88h-6.48Z"/>
      <path class="d" d="M392.72,185.55v-28h22.24v5.96h-15.36v5.24h10.24v5.76h-10.24v11.04h-6.88Z"/>
      <path class="d" d="M431.96,185.99c-2.11,0-4.07-.37-5.88-1.1-1.81-.73-3.4-1.76-4.76-3.08-1.36-1.32-2.42-2.85-3.18-4.6-.76-1.75-1.14-3.63-1.14-5.66s.38-3.91,1.14-5.66,1.82-3.28,3.18-4.6,2.95-2.35,4.76-3.08,3.77-1.1,5.88-1.1,4.07,.37,5.88,1.1c1.81,.73,3.4,1.76,4.76,3.08,1.36,1.32,2.42,2.85,3.18,4.6,.76,1.75,1.14,3.63,1.14,5.66s-.38,3.91-1.14,5.66-1.82,3.28-3.18,4.6-2.95,2.35-4.76,3.08-3.77,1.1-5.88,1.1Zm0-6.32c1.12,0,2.16-.21,3.12-.62,.96-.41,1.79-.98,2.5-1.7s1.26-1.58,1.66-2.58,.6-2.07,.6-3.22-.2-2.25-.6-3.24-.95-1.84-1.66-2.56-1.54-1.29-2.5-1.7-2-.62-3.12-.62-2.16,.21-3.12,.62c-.96,.41-1.79,.98-2.5,1.7s-1.26,1.57-1.66,2.56c-.4,.99-.6,2.05-.6,3.2s.2,2.26,.6,3.26,.95,1.86,1.66,2.58,1.54,1.29,2.5,1.7,2,.62,3.12,.62h0Z"/>
      <path class="d" d="M451.55,185.55v-28h14.32c1.92,0,3.63,.38,5.12,1.14s2.66,1.81,3.5,3.16,1.26,2.89,1.26,4.62-.48,3.33-1.44,4.72-2.23,2.44-3.8,3.16l6.12,11.2h-7.68l-5.28-10.2h-5.24v10.2h-6.88Zm6.88-15.8h6.8c1.07,0,1.93-.29,2.58-.88,.65-.59,.98-1.35,.98-2.28s-.33-1.69-.98-2.28c-.65-.59-1.51-.88-2.58-.88h-6.8v6.32Z"/>
      <path class="d" d="M480.28,185.55v-28h8.68l6.92,13.2,6.92-13.2h8.68v28h-6.48v-19.08l-9.2,17.08-9.2-17.16v19.16h-6.32Z"/>
    </g>
    <g>
      <path class="e" d="M223.18,265.3l2.77,16.82c.15,.93,.81,1.69,1.71,1.97,22.4,6.87,49.18,10.56,76.82,10.56s54.45-3.72,76.85-10.6c.89-.27,1.55-1.04,1.7-1.96l2.82-16.79c.18-1.09-.85-1.98-1.9-1.64-22.97,7.41-50.58,11.44-79.46,11.44s-56.4-3.91-79.38-11.43c-1.06-.35-2.09,.54-1.91,1.64h-.02Z"/>
      <path class="e" d="M182.72,17.6c.17,1.04,.97,1.86,2.01,2.04,30.77,5.2,73.47,8.42,120.67,8.42s88.12-3.09,118.69-8.09c1.05-.17,1.85-.99,2.02-2.04l2.58-15.88c.16-1-.69-1.86-1.69-1.69-30.83,5.29-73.92,8.58-121.6,8.58S212.8,5.52,181.84,.02c-1-.18-1.87,.68-1.71,1.69l2.59,15.89h0Z"/>
    </g>
  </g>
</svg>