<?xml version="1.0" encoding="UTF-8"?>
<svg id="b" data-name="圖層 2" xmlns="http://www.w3.org/2000/svg" width="467.96" height="162.09" viewBox="0 0 467.96 162.09">
  <defs>
    <style>
      .d {
        fill: #fff;
      }

      .e {
        fill: #009265;
      }
    </style>
  </defs>
  <g id="c" data-name="layoyt">
    <g>
      <path class="d" d="M16.7,77.75c-.37,1.33-.78,2.62-1.1,3.86h17.99l.87-.28,4.23,2.44c-3.13,3.31-7.13,7.31-11,11.09,2.48,.97,4.74,1.93,6.4,2.81l-3.17,4.78c-4.78-2.76-14.68-6.44-21.94-8.37l2.9-4.14c3.04,.74,6.62,1.75,10.17,2.94,2.12-2.07,4.32-4.19,6.26-6.17H7.91c.92-2.53,1.93-5.66,2.94-8.97H0v-5.25H12.38c.37-1.33,.74-2.58,1.06-3.91H3.82v-5.2H14.81c.32-1.47,.64-2.81,.97-4.19h5.8c-.32,1.38-.69,2.76-1.06,4.19h17.07v5.2H19.23l-1.06,3.91h22.68v5.25H16.7Z"/>
      <path class="d" d="M97.29,94.54v5.47H56.17v-5.47h11.87V59.76h5.66v34.78h6.03V59.76h5.66v25.35c2.3-4.37,5.06-10.9,6.58-16.15l4.92,2.35c-2.02,5.8-4.92,12.28-7.31,16.7l-4.19-2.12v8.65h11.92Zm-35.06-6.81c-1.01-4.42-3.4-11.78-5.52-17.44l5.01-1.47c2.16,5.38,4.83,12.61,5.98,16.98l-5.47,1.93Z"/>
      <path class="d" d="M126.13,61c-1.24,3.22-2.76,6.53-4.51,9.71v31.38h-5.29v-23.23c-.97,1.2-1.93,2.35-2.9,3.4-.51-1.38-2.02-4.37-2.94-5.7,4.14-4.14,8.14-10.63,10.44-17.21l5.2,1.66Zm9.94,16.65c-.37,1.33-.74,2.62-1.1,3.87h13.16l.83-.28,3.82,2.48c-2.9,3.27-6.62,7.22-10.21,10.9,1.79,1.24,3.36,2.48,4.46,3.5l-3.86,4.14c-2.62-2.67-8.1-6.76-12.65-9.48l3.82-3.31c1.29,.69,2.58,1.47,3.86,2.3,1.7-1.75,3.4-3.5,4.92-5.15h-15.46c.83-2.53,1.84-5.61,2.81-8.97h-7.08v-5.06h8.56c.32-1.2,.64-2.39,.97-3.59h-6.9v-4.97h8.1c.37-1.52,.69-2.94,1.01-4.37l5.43,.69-.92,3.68h12.05v4.97h-13.3l-.92,3.59h16.61v5.06h-17.99Z"/>
      <path class="d" d="M181.61,71.17c-1.56,12.01-5.43,21.76-10.63,26.91-.78-1.24-2.81-3.36-4-4.14,4.19-3.96,7.22-10.72,8.69-18.82h-7.08v-4.92h8.69l1.01-.23,3.31,1.2Zm10.31,16.38h7.04v4.6h-7.04v3.63c0,2.81-.6,4.19-2.48,5.01-1.84,.87-4.51,.97-8.23,.97-.28-1.52-1.15-3.77-1.84-5.2,2.44,.09,5.11,.09,5.89,.09,.83-.05,1.1-.23,1.1-.97v-3.54h-7.54v-4.6h7.54v-2.71h-5.52v-4.6h5.52v-2.39h-4.55v-4.6h4.55v-3.45c2.44-1.1,4.97-2.81,7.13-4.51h-18.72v-4.97h24.01l1.24-.28,3.68,2.76c-3.04,3.31-7.27,6.72-11.78,9.2v1.24h4.14v4.6h-4.14v2.39h4.97v4.6h-4.97v2.71Zm17.67-16.56c-2.25,2.02-4.92,4.23-7.27,5.84,1.47,7.13,4.19,13.57,8.6,16.98-1.29,1.01-2.99,3.04-3.82,4.51-5.57-4.83-8.33-13.34-9.94-23.19,2.58-1.93,6.12-5.15,8.19-7.64l4.23,3.5Z"/>
      <path class="d" d="M233.54,74.76c3.22,0,5.89,2.67,5.89,5.89s-2.67,5.89-5.89,5.89-5.89-2.67-5.89-5.89,2.67-5.89,5.89-5.89Z"/>
      <path class="d" d="M299.6,73.93v3.91h-26.13v-3.91h10.21v-2.02h-8.37v-3.63h8.37v-1.84h-9.52v-1.75c-1.2,3.04-2.48,6.3-3.45,8.47l-3.04-1.15v2.44h4.92v5.06h-4.92v3.22l1.93-1.33c.92,1.06,4.05,5.57,4.79,6.67l-3.45,3.96c-.69-1.79-2.12-4.83-3.27-6.99v17.11h-4.79v-15.23c-1.01,3.91-2.48,7.78-4.42,10.03-.46-1.61-1.47-4.05-2.25-5.61,1.84-2.35,3.59-6.58,4.23-10.08l2.44,.87v-2.62h-5.89v-5.06h5.89v-15.23h4.79v11.78c.92-2.58,1.89-6.16,2.39-8.74l4.09,1.29v-1.01h9.52v-3.36h5.29v3.36h10.03v3.91h-10.03v1.84h9.11v3.63h-9.11v2.02h10.63Zm-40.71-1.01c-.28-2.67-1.15-6.76-1.98-9.84l3.77-.92c.87,3.08,1.84,7.13,2.21,9.75l-4,1.01Zm38.51,24.25c0,2.3-.41,3.5-2.02,4.19-1.52,.69-3.68,.78-6.58,.74-.18-1.29-.83-3.13-1.43-4.32,1.7,.05,3.63,.05,4.19,.05,.6,0,.78-.18,.78-.69v-1.93h-12.47c-.55,2.67-1.61,5.29-3.36,7.31-.78-.97-2.81-2.85-3.82-3.45,2.67-3.22,2.94-7.54,2.94-11.13v-8.19h21.76v17.44Zm-5.06-5.52v-2.21h-11.78l-.14,2.21h11.92Zm-11.78-7.91v2.16h11.78v-2.16h-11.78Z"/>
      <path class="d" d="M318.46,74.48c-1.01-2.94-3.5-7.73-5.52-11.27l4.92-2.21c2.12,3.4,4.74,8,5.98,10.9l-5.38,2.58Zm-5.47,23.19c1.98-3.82,4.65-9.94,6.72-15.73l5.11,2.48c-1.89,5.43-4.09,11.04-6.07,15.64l-5.75-2.39Zm42.79,1.52h-23.42v2.99h-5.01v-23.92c-1.06,1.38-2.16,2.71-3.27,3.86-.83-1.06-2.76-3.08-3.82-4,4.74-4.32,8.7-11.36,10.9-18.63l5.06,1.24c-.74,2.16-1.56,4.28-2.48,6.35h8.24c-.83-1.79-2.07-3.96-3.13-5.66l4.69-2.12c1.47,2.02,3.08,4.74,3.91,6.53l-2.39,1.24h9.98v4.74h-9.06v4.37h8.19v4.69h-8.19v4.28h8.1v4.69h-8.1v4.46h9.8v4.88Zm-15.14-27.37h-8.28v4.37h8.28v-4.37Zm0,9.06h-8.28v4.28h8.28v-4.28Zm-8.28,13.43h8.28v-4.46h-8.28v4.46Z"/>
      <path class="d" d="M411.24,81.75c-6.49,13.99-21.58,18.82-39.1,20.47-.41-1.52-1.33-3.91-2.21-5.29,7.27-.51,14.12-1.56,19.92-3.63-1.29-1.33-3.13-2.9-4.78-4.28-1.84,.92-3.82,1.79-5.93,2.53-.64-1.24-2.21-3.27-3.36-4.23,9.48-2.94,15.83-7.45,19.32-11.92l5.93,1.38c-.92,1.06-1.79,2.07-2.81,3.08h8.24l1.01-.28,3.77,2.16Zm-6.07-16.93c-5.93,10.58-19,16.29-32.25,18.77-.51-1.38-1.56-3.63-2.53-4.83,4.65-.69,9.34-1.84,13.57-3.5-1.24-1.29-2.9-2.81-4.51-4.14-1.33,.74-2.71,1.43-4.19,2.07-.83-1.24-2.53-3.13-3.73-3.91,7.41-2.76,12.88-6.67,15.96-10.26l5.89,1.38c-.78,.83-1.61,1.66-2.48,2.48h9.71l.97-.23,3.59,2.16Zm-20.15,2.9c-.41,.32-.87,.6-1.33,.92,1.93,1.38,3.86,3.04,5.2,4.46,2.94-1.52,5.57-3.36,7.59-5.38h-11.46Zm7.41,16.98c-.88,.6-1.79,1.2-2.67,1.79,1.89,1.38,3.96,3.08,5.38,4.55,3.13-1.7,5.75-3.82,7.73-6.35h-10.44Z"/>
      <path class="d" d="M460.88,96.24c1.52,0,1.79-1.2,2.02-7.82,1.2,.97,3.54,1.93,5.06,2.3-.55,8.24-1.93,10.63-6.62,10.63h-5.52c-5.2,0-6.53-1.75-6.53-7.13v-14.08h-6.9c-.83,9.57-2.94,17.44-13.94,21.9-.64-1.38-2.16-3.4-3.4-4.46,9.57-3.59,10.86-9.8,11.41-17.44h-10.4v-5.34h41.04v5.34h-12.15v14.08c0,1.75,.28,2.02,1.79,2.02h4.14Zm1.98-28.57h-32.66v-5.29h32.66v5.29Z"/>
    </g>
    <g>
      <path class="e" d="M189.11,144.64l1.87,11.4c12.47,3.93,27.49,6.05,43.01,6.05s30.55-2.13,43.02-6.07l1.91-11.38c-12.87,4.34-28.53,6.71-44.93,6.71s-32.01-2.3-44.89-6.71Z"/>
      <path class="e" d="M167.26,10.82c16.97,2.95,40.83,4.79,67.25,4.79,26.07,0,49.29-1.76,66.17-4.61l1.76-10.81c-17.01,3.02-41.15,4.91-67.93,4.91s-51.95-1.97-69.01-5.11l1.76,10.82Z"/>
    </g>
  </g>
</svg>