<?xml version="1.0" encoding="UTF-8"?>
<svg id="b" data-name="圖層 2" xmlns="http://www.w3.org/2000/svg" width="155.72" height="162.09" viewBox="0 0 155.72 162.09">
  <defs>
    <style>
      .d {
        fill: #fff;
      }

      .e {
        fill: #ea5406;
      }
    </style>
  </defs>
  <g id="c" data-name="layoyt">
    <g>
      <path class="d" d="M15.78,71.31c-1.1,1.89-2.39,3.82-3.82,5.66v25.12H6.72v-19.09c-1.43,1.43-2.81,2.67-4.19,3.77-.37-1.24-1.75-4.32-2.53-5.66,4-2.85,8.46-7.36,11.04-11.82l4.74,2.02Zm-.74-9.94c-2.99,4.23-7.64,8.74-11.92,11.5-.55-1.24-1.84-3.45-2.71-4.65,3.63-2.16,7.59-5.93,9.48-8.97l5.15,2.12Zm22.59,20.61h5.61v4.97h-5.61v9.48c0,2.71-.51,4.05-2.44,4.83-1.89,.78-4.55,.88-8.1,.83-.23-1.52-1.01-3.63-1.7-5.11,2.3,.14,4.92,.14,5.66,.09,.78,0,.97-.18,.97-.78v-9.34H13.66v-4.97h18.36v-2.62h5.61v2.62Zm5.8-17.53v5.01h-12.28v3.73h10.26v4.97H15.5v-4.97h10.03v-3.73H13.94v-5.01h11.59v-5.06h5.61v5.06h12.28Zm-22.59,23c1.93,2.25,4.55,5.47,5.8,7.5l-4.83,2.71c-1.1-2.12-3.59-5.47-5.47-7.87l4.51-2.35Z"/>
      <path class="d" d="M66.75,85.02v10.72c0,2.53-.41,3.86-1.79,4.69-1.38,.92-3.4,1.1-6.35,1.06-.14-1.33-.74-3.59-1.43-5.01,1.7,.05,3.27,.05,3.82,0,.55,0,.78-.18,.78-.78v-9.2c-1.52,.41-2.9,.83-4.23,1.2l-1.24-5.29c1.56-.32,3.4-.83,5.47-1.33v-8.14h-4.97v-5.06h4.97v-8.7h4.97v8.7h4.6v5.06h-4.6v6.81l4.14-1.1,.74,4.92-4.88,1.47Zm20.93,11.59c1.06,.09,2.07,.14,3.22,.14,1.56,0,7.27,0,9.25-.05-.64,1.1-1.29,3.4-1.47,4.78h-8c-6.03,0-10.67-1.1-13.8-6.67-1.2,2.9-2.81,5.34-4.83,7.22-.83-.87-2.9-2.58-4-3.27,3.82-3.04,5.71-8.14,6.39-14.4l4.97,.6c-.23,1.66-.51,3.22-.87,4.65,1.01,2.67,2.35,4.32,4,5.38v-12.01h-10.81v-4.42h27.19v4.42h-11.23v4.05h8.79v4.28h-8.79v5.29Zm8.92-20.15h-22.63v-15.87h22.63v15.87Zm-5.24-12.05h-12.38v2.3h12.38v-2.3Zm0,5.84h-12.38v2.35h12.38v-2.35Z"/>
      <path class="d" d="M127.65,60.86c-1.2,3.17-2.71,6.44-4.37,9.57v31.65h-5.38v-23.32c-.97,1.24-1.93,2.35-2.9,3.4-.51-1.38-1.98-4.37-2.94-5.71,4.14-4.14,8.19-10.63,10.49-17.21l5.11,1.61Zm10.72,30.46c-2.3,4-5.98,8.05-9.15,10.67-1.01-1.01-3.08-2.71-4.28-3.45,3.22-2.16,6.44-5.52,8.33-8.79l5.11,1.56Zm17.34-8.79v5.34h-29.86v-5.34h6.16v-9.16h-5.01v-5.24h5.01v-8.6h5.34v8.6h6.67v-8.65h5.34v8.65h5.98v5.24h-5.98v9.16h6.35Zm-18.36,0h6.67v-9.16h-6.67v9.16Zm10.31,7.18c2.99,2.9,6.16,6.81,7.82,9.48l-4.6,2.9c-1.47-2.76-4.69-6.99-7.59-9.94l4.37-2.44Z"/>
    </g>
    <g>
      <path class="e" d="M32.66,144.64l1.87,11.4c12.47,3.93,27.49,6.05,43.01,6.05s30.55-2.13,43.02-6.07l1.91-11.38c-12.87,4.34-28.53,6.71-44.93,6.71s-32.01-2.3-44.89-6.71Z"/>
      <path class="e" d="M10.81,10.82c16.97,2.95,40.83,4.79,67.25,4.79,26.07,0,49.29-1.76,66.17-4.61l1.76-10.81c-17.01,3.02-41.15,4.91-67.93,4.91S26.11,3.14,9.05,0l1.76,10.82Z"/>
    </g>
  </g>
</svg>