<?xml version="1.0" encoding="UTF-8"?>
<svg xmlns="http://www.w3.org/2000/svg" width="168.9" height="246.29" viewBox="0 0 168.9 246.29">
  <defs>
    <style>
      .d {
        fill: #e8b78a;
      }

      .e {
        fill: #fce9d4;
      }

      .f {
        isolation: isolate;
      }

      .g {
        fill: #f18a00;
      }

      .h {
        fill: none;
      }

      .i, .j {
        fill: #2d2a26;
      }

      .j {
        mix-blend-mode: multiply;
        opacity: .3;
      }
    </style>
  </defs>
  <g class="f">
    <g id="b" data-name="圖層 2">
      <g id="c" data-name="layoyt">
        <g>
          <ellipse class="j" cx="96.79" cy="235.3" rx="63.52" ry="10.99"/>
          <g>
            <g>
              <path class="d" d="M152.49,188.25c-4.16,0-7.81-1.51-10.57-4.36-4.28-4.43-6.36-12.06-6.02-22.05,.32-9.24-14-32.84-14.15-33.07-.35-.58-.27-1.33,.2-1.82l8.94-9.35c.29-.31,.69-.46,1.08-.46,.32,0,.64,.1,.91,.3,.91,.69,22.38,17.08,29.3,32.05,4.52,9.79,7.3,23.32,3.3,31.49-1.75,3.56-4.6,5.83-8.5,6.73-1.54,.36-3.06,.54-4.5,.54Z"/>
              <path class="i" d="M131.98,118.63s22,16.68,28.84,31.48c5.62,12.17,9.3,33.02-4.18,36.13-1.43,.33-2.83,.5-4.17,.5-9.08,0-15.68-7.73-15.08-24.86,.34-9.8-14.36-33.91-14.36-33.91l8.94-9.35m0-3c-.79,0-1.58,.31-2.17,.93l-8.94,9.35c-.94,.98-1.1,2.48-.39,3.64,3.96,6.49,14.18,24.94,13.93,32.24-.37,10.56,1.8,18.34,6.44,23.14,3.04,3.15,7.07,4.82,11.64,4.82,1.56,0,3.19-.19,4.84-.58,4.29-.99,7.58-3.6,9.51-7.53,4.22-8.61,1.39-22.67-3.28-32.78-7.07-15.31-28.83-31.92-29.76-32.62-.54-.41-1.18-.61-1.81-.61h0Z"/>
            </g>
            <g>
              <path class="d" d="M56.26,162.28c-.27,0-.55-.07-.79-.21-1.09-.6-26.76-14.91-34.71-22.53-.58-.56-1.21-1.15-1.88-1.78-8.39-7.9-22.44-21.12-15.3-33.48,2.28-3.95,5.5-5.96,9.56-5.96,7.84,0,17.19,7.61,25.34,14.75,10.37,9.09,22.22,13.73,22.33,13.77,.7,.27,1.12,.98,1.03,1.72l-3.97,32.26c-.07,.54-.4,1.01-.88,1.26-.23,.12-.49,.18-.74,.18Z"/>
              <path class="i" d="M13.14,99.97c7.38,0,16.78,7.79,24.26,14.35,10.73,9.4,22.82,14.07,22.82,14.07l-3.97,32.26s-26.49-14.72-34.37-22.28c-7.58-7.26-23.92-21.08-16.89-33.26,2.12-3.67,4.94-5.14,8.15-5.14m0-3.27c-3.22,0-7.74,1.17-10.98,6.77-3.48,6.02-2.76,12.92,2.12,20.51,3.77,5.85,9.37,11.12,13.47,14.98,.66,.63,1.29,1.22,1.87,1.77,8.09,7.76,33.95,22.17,35.05,22.78,.49,.27,1.04,.41,1.59,.41,.51,0,1.02-.12,1.48-.36,.97-.49,1.63-1.44,1.76-2.51l3.97-32.26c.18-1.49-.67-2.91-2.07-3.45-.11-.04-11.71-4.6-21.85-13.48-8.37-7.33-18-15.16-26.41-15.16h0Z"/>
            </g>
            <g>
              <path class="h" d="M64.09,216.38c0-.09-.01-.17-.02-.26,0,.09,.01,.17,.02,.26Z"/>
              <path class="h" d="M64.19,217.91c0-.07,0-.15-.01-.22,0,.07,0,.15,.01,.22Z"/>
              <path class="h" d="M64.24,218.56c0-.06-.01-.14-.02-.21,0,.07,.01,.14,.02,.21Z"/>
              <path class="h" d="M64.04,215.45v0Z"/>
              <path class="h" d="M64.28,219.09s0-.1-.01-.15c0,.05,0,.1,.01,.15Z"/>
              <path class="h" d="M64.14,217.17c0-.07,0-.15-.01-.23v.23Z"/>
              <path class="h" d="M63.77,210.29v0Z"/>
              <path class="h" d="M129.87,214.82c.05-2.29,.12-5.1,.03-7.58,.09,2.48,.02,5.29-.03,7.58Z"/>
              <path class="h" d="M63.75,209.79c0-.06,0-.11,0-.16,0,.05,0,.11,0,.16Z"/>
              <path class="d" d="M49.41,143.94c0,.14-.01,.27-.05,.41-5.01,17.58-6.06,31.46-3.2,42.43,4.32,16.63,16.38,20.66,16.5,20.7,.6,.19,1.01,.73,1.04,1.36,0,.02,.01,.32,.04,.79,0,.05,0,.11,0,.16,0,.14,.01,.29,.02,.46v.04c.06,1.28,.16,3.21,.26,5v.16c.02,.23,.03,.45,.05,.67,0,.09,.01,.17,.02,.26,.01,.19,.02,.38,.03,.57,0,.08,0,.15,.01,.23,.01,.18,.02,.35,.03,.52,0,.07,0,.15,.01,.22,.01,.16,.02,.3,.03,.44,0,.07,.01,.14,.02,.21,.01,.14,.02,.26,.03,.38,0,.05,0,.1,.01,.15,.01,.15,.03,.29,.04,.4,.06,.5-.14,1-.52,1.32-1.92,1.62-2.65,5.8-1.6,9.13,.38,1.22,1.33,3.29,3.37,3.47,5.66,.51,21.65,.31,21.81,.3,.08,0,3.81,.03,6.29-2.62,1.82-1.95,2.59-4.91,2.26-8.81l-.41-8.35c-1.9-.05-3.8-.27-5.87-.67-.81-.16-1.34-.95-1.18-1.76,.16-.81,.94-1.35,1.76-1.18,4.84,.95,8.5,.86,13.95-.34,.81-.18,1.61,.33,1.79,1.14,.18,.81-.33,1.61-1.14,1.79-2.31,.51-4.35,.82-6.29,.96l.5,8.27c.96,9.39,2.69,10.25,4.37,11.09,1.44,.69,11.57,.57,23.55-.28,2.3-.16,3.5-1.86,4.1-3.25,1.36-3.14,.95-7.69-.88-9.94-.2-.25-.32-.56-.34-.88-.04-.88,0-2.28,.04-4.05,.05-2.29,.12-5.1,.03-7.58,0-.12,0-.26,0-.38-.02-.55,.26-1.07,.73-1.35,7-4.18,11.74-11.1,13-19,1.88-11.8,.5-26.38-3.99-42.15-.04-.14-.05-.27-.05-.41,0-.65,.42-1.24,1.07-1.44-3.6-12.18-7.71-20.67-7.71-20.67H56.04s-4.1,8.49-7.7,20.67c.65,.19,1.07,.79,1.07,1.44Z"/>
              <path class="i" d="M142.52,143.53c-.23-.8-1.06-1.26-1.85-1.03h-.01c-.65,.2-1.07,.79-1.07,1.44,0,.14,.01,.27,.05,.41,4.49,15.77,5.87,30.35,3.99,42.15-1.26,7.9-6,14.83-13,19-.47,.28-.75,.8-.73,1.35,0,.12,0,.25,0,.38,.09,2.48,.02,5.29-.03,7.58-.04,1.78-.08,3.18-.04,4.05,.02,.32,.13,.63,.34,.88,1.83,2.25,2.24,6.8,.88,9.94-.6,1.39-1.8,3.08-4.1,3.25-11.98,.86-22.1,.98-23.55,.28-1.68-.84-3.41-1.7-4.37-11.09l-.5-8.27c1.95-.14,3.98-.46,6.29-.96,.81-.18,1.32-.98,1.14-1.79-.18-.81-.98-1.32-1.79-1.14-5.46,1.2-9.11,1.29-13.95,.34-.82-.17-1.6,.37-1.76,1.18-.16,.81,.37,1.6,1.18,1.76,2.07,.41,3.97,.62,5.87,.67l.41,8.35c.32,3.89-.44,6.86-2.26,8.81-2.47,2.65-6.21,2.62-6.29,2.62-.16,0-16.15,.2-21.81-.3-2.04-.18-2.99-2.25-3.37-3.47-1.05-3.32-.32-7.5,1.6-9.13,.38-.33,.58-.82,.52-1.32-.01-.11-.03-.24-.04-.4,0-.04,0-.1-.01-.15,0-.12-.02-.24-.03-.38,0-.06-.01-.14-.02-.21-.01-.14-.02-.29-.03-.44,0-.07,0-.15-.01-.22-.01-.17-.02-.34-.03-.52v-.23c-.03-.18-.04-.37-.05-.57,0-.09-.01-.17-.02-.26-.01-.22-.03-.44-.04-.67v-.16c-.11-1.79-.21-3.72-.27-5v-.04c0-.17-.02-.32-.02-.46,0-.06,0-.11,0-.16-.02-.48-.04-.78-.04-.79-.03-.63-.44-1.17-1.04-1.36-.12-.04-12.18-4.07-16.5-20.7-2.85-10.96-1.8-24.84,3.2-42.43,.04-.14,.05-.27,.05-.41,0-.65-.42-1.25-1.07-1.44h0c-.79-.23-1.63,.23-1.85,1.03-5.16,18.11-6.21,32.51-3.22,44,4.04,15.54,14.24,21.03,17.5,22.42,.1,2.09,.34,6.93,.52,9.13-2.65,2.86-3.1,8.06-1.93,11.75,1.04,3.28,3.21,5.31,5.97,5.55,3.27,.29,9.65,.36,14.72,.36,3.94,0,7.08-.04,7.35-.04,.21,0,5.05,.08,8.47-3.54,.71-.76,1.31-1.61,1.78-2.56,1.15,3.33,2.69,4.42,4.45,5.3,2.87,1.43,18.51,.49,25.11,.02,2.96-.21,5.32-2,6.64-5.05,1.73-4,1.28-9.41-.98-12.6-.01-.81,.02-2.02,.05-3.39,.05-2.18,.12-4.84,.05-7.28,7.35-4.67,12.31-12.15,13.67-20.64,1.98-12.41,.61-27.03-4.07-43.45Z"/>
            </g>
            <g>
              <g>
                <path class="d" d="M85.96,131.03c-11.52,0-22.17-2.16-31.66-6.42-18.77-8.43-30.67-24.12-33.51-44.19-1.62-11.43-.02-22.16,4.75-31.9,.67-1.38,1.84-3.35,2.63-4.66-1.23-.76-2.36-1.74-3.35-2.91-2.74-3.22-3.77-7.07-2.99-11.12,.72-3.71,2.98-7.34,6.37-10.21,3.51-2.97,7.59-4.61,11.49-4.61,1.25,0,2.48,.17,3.65,.5,2.49,.72,4.67,2.15,6.47,4.27,.67,.79,1.25,1.63,1.72,2.51,9.12-5.06,19.48-8.44,30.84-10.05,5.17-.85,10.39-1.28,15.46-1.28,5.83,0,11.52,.57,16.94,1.69,.19-.98,.49-1.96,.89-2.91,1.09-2.56,2.74-4.58,4.9-6,2.24-1.47,4.98-2.25,7.93-2.25,2.55,0,5.16,.56,7.75,1.65,4.09,1.73,7.33,4.52,9.12,7.85,1.96,3.64,2.12,7.62,.46,11.51-.6,1.41-1.38,2.68-2.33,3.77,1.15,1.01,2.84,2.55,3.9,3.66,7.46,7.88,12.18,17.65,14.03,29.04,3.27,20-3.42,38.53-18.82,52.17-11,9.74-25.63,16.23-42.32,18.77-4.81,.73-9.64,1.11-14.33,1.11Z"/>
                <path class="i" d="M128.5,3c2.32,0,4.76,.52,7.16,1.53,7.57,3.21,11.86,10.15,8.79,17.39-.77,1.81-1.84,3.28-3.14,4.44,0,0,3.35,2.88,4.99,4.61,6.94,7.34,11.77,16.79,13.64,28.25,3.32,20.33-4.07,38.17-18.33,50.8-10.59,9.37-24.96,15.88-41.55,18.41-4.79,.73-9.51,1.09-14.11,1.09-11.3,0-21.87-2.17-31.04-6.29-17.39-7.81-29.75-22.64-32.64-43.03-1.63-11.5,.16-21.96,4.61-31.03,1.05-2.14,3.39-5.89,3.39-5.89-1.59-.72-3.05-1.81-4.32-3.31-5.09-6-3.06-13.91,3.21-19.22,3.23-2.74,6.97-4.25,10.52-4.25,1.1,0,2.19,.15,3.24,.45,2.12,.61,4.09,1.86,5.74,3.8,.97,1.15,1.7,2.38,2.19,3.65,9.13-5.33,19.92-9,31.72-10.67,5.17-.85,10.28-1.26,15.25-1.26,6.33,0,12.44,.68,18.21,2,.09-1.36,.41-2.75,1-4.14,1-2.35,2.51-4.12,4.35-5.34,2.04-1.34,4.49-2,7.11-2m0-3h0c-3.25,0-6.27,.86-8.76,2.49-2.42,1.59-4.26,3.84-5.46,6.67-.24,.58-.45,1.16-.63,1.75-5.09-.95-10.39-1.44-15.82-1.44-5.15,0-10.43,.44-15.7,1.3-11,1.56-21.09,4.76-30.05,9.52-.34-.51-.72-1-1.12-1.48-1.99-2.35-4.41-3.94-7.2-4.74-1.31-.37-2.67-.56-4.07-.56-4.26,0-8.68,1.76-12.46,4.96-3.65,3.09-6.09,7.03-6.87,11.07-.86,4.45,.32,8.85,3.31,12.38,.76,.9,1.59,1.69,2.49,2.37-.69,1.17-1.46,2.52-1.97,3.56-4.9,10.01-6.55,21.04-4.88,32.77,2.91,20.59,15.12,36.7,34.38,45.35,9.68,4.35,20.54,6.55,32.27,6.55,4.77,0,9.67-.38,14.56-1.12,16.97-2.59,31.87-9.2,43.09-19.13,15.8-13.99,22.66-33,19.31-53.53-1.91-11.69-6.76-21.73-14.42-29.83-.79-.84-1.93-1.9-2.94-2.81,.65-.92,1.21-1.92,1.67-3.01,1.81-4.27,1.62-8.81-.52-12.8-1.95-3.63-5.45-6.66-9.86-8.52-2.78-1.18-5.58-1.77-8.33-1.77h0Z"/>
              </g>
              <path class="e" d="M72.39,87.51c-1.58,2.97-2.23,6.37-1.69,10.09,1.69,11.5,13.52,17.21,26.8,15.26,13.28-1.95,22.97-10.83,21.28-22.32-1.69-11.5-13.46-16.8-26.74-14.85-8.98,1.32-16.34,5.62-19.65,11.82"/>
              <g>
                <path class="i" d="M95.85,102.9c-.73,0-1.37-.53-1.48-1.27l-1.49-9.8c-.12-.82,.44-1.58,1.26-1.71,.82-.12,1.58,.44,1.71,1.26l1.49,9.8c.12,.82-.44,1.58-1.26,1.71-.08,.01-.15,.02-.23,.02Z"/>
                <path class="i" d="M99.8,86.59c.37,2.59-2.06,5.08-5.41,5.55-3.35,.47-6.37-1.24-6.74-3.83-.37-2.59,2.06-5.08,5.41-5.55,3.35-.47,6.37,1.24,6.74,3.83Z"/>
              </g>
              <g>
                <path class="i" d="M115.3,67.68c-2.01,.3-3.41,2.17-3.11,4.18,.3,2.01,2.17,3.41,4.18,3.11,2.01-.3,3.41-2.17,3.11-4.18-.3-2.01-2.17-3.41-4.18-3.11Z"/>
                <path class="i" d="M64.21,79.43c.29,2.01,2.17,3.41,4.18,3.11,2.01-.29,3.41-2.17,3.11-4.18-.29-2.01-2.17-3.41-4.18-3.11-2.01,.29-3.41,2.17-3.11,4.18Z"/>
              </g>
              <path class="g" d="M30.11,36.37c-3.19-3.76-1.92-8.71,2.01-12.03,2.65-2.25,5.84-3.18,8.61-2.38,1.33,.38,2.56,1.16,3.59,2.37,.81,.96,1.34,2,1.61,3.07-4.74,3.29-8.92,7.07-12.42,11.31-1.26-.42-2.43-1.19-3.41-2.34Z"/>
              <path class="g" d="M139.24,19.74c1.92-4.54-.76-8.88-5.5-10.89-3.2-1.36-6.52-1.29-8.93,.29-1.15,.76-2.1,1.87-2.72,3.34-.49,1.15-.68,2.3-.63,3.41,5.5,1.73,10.62,4.1,15.22,7.09,1.08-.77,1.96-1.86,2.55-3.25Z"/>
            </g>
          </g>
        </g>
      </g>
    </g>
  </g>
</svg>