<?xml version="1.0" encoding="UTF-8"?>
<svg id="b" data-name="圖層 2" xmlns="http://www.w3.org/2000/svg" width="50.73" height="59.12" viewBox="0 0 50.73 59.12">
  <defs>
    <style>
      .d {
        fill: #fff;
      }

      .e {
        fill: #231814;
      }

      .f {
        fill: #54c0e8;
      }

      .g {
        fill: #009877;
      }
    </style>
  </defs>
  <g id="c" data-name="設計">
    <g>
      <path class="g" d="M38.34,23.18v-2.55c4.04-.17,6.26-2.58,7.24-4.69,1.22-2.63,2.64-6.32,2.59-13.39-7.65,.06-12.36,2.01-14.25,3.49-2.31,1.81-3.53,4-3.5,6.66h-2.55c0-3,1.29-5.85,3.53-7.84,.56-.58,2.19-1.99,5.74-3.19C40.55,.52,44.56-.05,49.06,0c.44,0,.86,.17,1.17,.49,.32,.32,.49,.74,.49,1.19v.67c.08,7.69-1.69,12.36-2.85,14.72-1.72,3.48-4.59,5.98-9.53,6.12Z"/>
      <path class="f" d="M34.32,16.62c-7.9,.59-18.66,.57-26.58,.02l5.64,35.32c4.9,1.11,10.55,1.11,15.3,.04l5.65-35.38Z"/>
      <g>
        <path class="e" d="M40.54,15.92c-.86,.13-2.15,.31-2.83,.39-.18,.02-.33,.16-.36,.35l-5.57,34.55c-.03,.18,.13,.32,.31,.28,.98-.24,2.05-.57,2.92-.88,.14-.05,.25-.17,.27-.32l5.54-34.08c.03-.17-.12-.31-.28-.29Z"/>
        <path class="e" d="M7.25,54.18l.47,2.83c.03,.16,.14,.29,.29,.33,3.77,1.16,8.28,1.78,12.94,1.78s9.17-.63,12.94-1.79c.15-.05,.26-.17,.29-.33l.47-2.83c.03-.18-.14-.33-.32-.28-3.87,1.25-8.52,1.93-13.38,1.93s-9.5-.66-13.37-1.93c-.18-.06-.35,.09-.32,.28Z"/>
        <path class="e" d="M.44,12.47c.03,.18,.16,.31,.34,.34,5.18,.88,12.37,1.42,20.32,1.42,7.84,0,14.84-.52,19.99-1.36,.18-.03,.31-.17,.34-.34l.44-2.67c.03-.17-.12-.31-.29-.28-5.19,.89-12.45,1.45-20.48,1.45S5.5,10.43,.29,9.51c-.17-.03-.32,.12-.29,.28l.44,2.68Z"/>
        <path class="e" d="M10.11,51.19L4.53,16.6c-.03-.19-.18-.34-.38-.37-.3-.04-1.82-.24-2.83-.39-.09-.01-.17,.01-.24,.08-.06,.06-.09,.15-.08,.24L6.57,50.28c.03,.16,.14,.29,.29,.34,.59,.21,1.75,.59,2.92,.88,.02,0,.04,0,.07,0,.07,0,.13-.03,.19-.07,.07-.06,.1-.15,.08-.24Z"/>
      </g>
      <path class="d" d="M21.92,44.63c-.88,0-1.8-.15-2.72-.56-2.64-1.17-4.39-4.08-5.2-8.64-.1-.55,.25-1.08,.79-1.21,1.82-.44,6.67-1.62,9.76,.86,1.83,1.47,2.72,3.92,2.66,7.3,0,.36-.19,.68-.49,.87-.12,.07-2.23,1.37-4.79,1.37Zm-5.65-8.59c.72,3.25,1.99,5.3,3.77,6.09,1.94,.87,4.1,.05,5.05-.41-.05-2.37-.68-4.05-1.87-5.01-1.9-1.52-5.05-1.09-6.96-.68Zm9.88,6.32h0Z"/>
    </g>
  </g>
</svg>