<?xml version="1.0" encoding="UTF-8"?>
<svg id="b" data-name="圖層 2" xmlns="http://www.w3.org/2000/svg" width="51.39" height="59.93" viewBox="0 0 51.39 59.93">
  <defs>
    <style>
      .d {
        fill: #ffb71b;
      }

      .e {
        fill: #ff4d00;
      }

      .f {
        fill: #231815;
      }
    </style>
  </defs>
  <g id="c" data-name="設計">
    <g>
      <path class="e" d="M39.89,0c-6.34,0-11.49,5.16-11.49,11.49h2.57c0-1.19,.23-2.32,.66-3.36l7.66,4.42,7.64,4.41c-1.63,2.09-4.18,3.45-7.04,3.45v2.57c6.34,0,11.49-5.16,11.49-11.49S46.23,0,39.89,0Zm7.06,6.05l-5.86,3.38V2.65c2.37,.32,4.45,1.58,5.86,3.39Zm-8.27-3.39v6.77l-5.86-3.38c1.4-1.81,3.48-3.07,5.86-3.39Zm3.62,8.86l5.85-3.38c.42,1.04,.66,2.17,.66,3.36s-.24,2.35-.67,3.39l-5.84-3.37Z"/>
      <path class="d" d="M34.61,17.07c-7.97,.6-18.82,.57-26.81,.02l5.69,35.62c4.94,1.12,10.64,1.12,15.43,.04l5.7-35.68Z"/>
      <g>
        <path class="f" d="M40.89,16.36c-.87,.14-2.16,.31-2.85,.4-.18,.02-.33,.17-.36,.35l-5.62,34.84c-.03,.18,.13,.33,.31,.28,.99-.24,2.07-.58,2.94-.88,.14-.05,.25-.18,.27-.33l5.59-34.37c.03-.17-.12-.31-.29-.29Z"/>
        <path class="f" d="M7.31,54.94l.47,2.86c.03,.16,.14,.29,.29,.33,3.8,1.17,8.35,1.79,13.05,1.79s9.25-.63,13.05-1.8c.15-.05,.26-.18,.29-.33l.48-2.85c.03-.19-.14-.34-.32-.28-3.9,1.26-8.59,1.94-13.5,1.94s-9.58-.66-13.48-1.94c-.18-.06-.36,.09-.32,.28Z"/>
        <path class="f" d="M.44,12.88c.03,.18,.16,.32,.34,.35,5.23,.88,12.48,1.43,20.49,1.43,7.91,0,14.97-.52,20.16-1.37,.18-.03,.31-.17,.34-.35l.44-2.7c.03-.17-.12-.32-.29-.29-5.24,.9-12.56,1.46-20.65,1.46S5.55,10.82,.29,9.89c-.17-.03-.32,.12-.29,.29l.44,2.7Z"/>
        <path class="f" d="M10.2,51.93L4.57,17.04c-.03-.19-.18-.34-.38-.37-.3-.04-1.84-.24-2.85-.4-.09-.01-.17,.01-.24,.08-.06,.06-.09,.15-.08,.24L6.63,51.01c.03,.16,.14,.29,.29,.35,.59,.21,1.76,.6,2.94,.88,.02,0,.04,0,.07,0,.07,0,.14-.03,.19-.07,.07-.06,.1-.15,.08-.24Z"/>
      </g>
    </g>
  </g>
</svg>