<?xml version="1.0" encoding="UTF-8"?>
<svg id="b" data-name="圖層 2" xmlns="http://www.w3.org/2000/svg" width="50.73" height="59.12" viewBox="0 0 50.73 59.12">
  <defs>
    <style>
      .d {
        fill: #231814;
      }

      .e {
        fill: #f7e0c0;
      }

      .f {
        fill: #009877;
      }
    </style>
  </defs>
  <g id="c" data-name="設計">
    <g>
      <path class="f" d="M38.34,23.18v-2.55c4.04-.17,6.26-2.58,7.24-4.69,1.22-2.63,2.64-6.32,2.59-13.39-7.65,.06-12.36,2.01-14.25,3.49-2.31,1.81-3.53,4-3.5,6.66h-2.55c0-3,1.29-5.85,3.53-7.84,.56-.58,2.19-1.99,5.74-3.19C40.55,.52,44.56-.05,49.06,0c.44,0,.86,.17,1.17,.49,.32,.32,.49,.74,.49,1.19v.67c.08,7.69-1.69,12.36-2.85,14.72-1.72,3.48-4.59,5.98-9.53,6.12Z"/>
      <path class="e" d="M17.03,48.49c6.24-.16,4.64-10.13,11.38-10.11,1.02,0,1.75,.39,2.27,1.04l3.64-22.8c-7.9,.59-18.66,.57-26.58,.02l4.39,27.49c.54,2.69,2.2,4.43,4.91,4.36Z"/>
      <g>
        <path class="d" d="M40.54,15.92c-.86,.13-2.15,.31-2.83,.39-.18,.02-.33,.16-.36,.35l-5.57,34.55c-.03,.18,.13,.32,.31,.28,.98-.24,2.05-.57,2.92-.88,.14-.05,.25-.17,.27-.32l5.54-34.08c.03-.17-.12-.31-.28-.29Z"/>
        <path class="d" d="M7.25,54.18l.47,2.83c.03,.16,.14,.28,.29,.33,3.77,1.16,8.28,1.78,12.94,1.78s9.17-.63,12.94-1.79c.15-.05,.26-.17,.29-.33l.47-2.83c.03-.18-.14-.33-.32-.28-3.87,1.25-8.52,1.93-13.38,1.93s-9.5-.66-13.37-1.93c-.18-.06-.35,.09-.32,.28Z"/>
        <path class="d" d="M.44,12.47c.03,.18,.16,.31,.34,.34,5.18,.88,12.37,1.42,20.32,1.42,7.84,0,14.84-.52,19.99-1.36,.18-.03,.31-.17,.34-.34l.44-2.67c.03-.17-.12-.31-.29-.28-5.19,.89-12.45,1.45-20.48,1.45S5.5,10.43,.29,9.51c-.17-.03-.32,.12-.29,.28l.44,2.68Z"/>
        <path class="d" d="M10.11,51.19L4.53,16.6c-.03-.19-.18-.34-.38-.37-.3-.04-1.82-.24-2.83-.39-.09-.01-.17,.01-.24,.08-.06,.06-.09,.15-.08,.24L6.57,50.28c.03,.16,.14,.29,.29,.34,.59,.21,1.75,.59,2.92,.88,.02,0,.04,0,.07,0,.07,0,.13-.03,.19-.07,.07-.06,.1-.15,.08-.24Z"/>
      </g>
    </g>
  </g>
</svg>