<?xml version="1.0" encoding="UTF-8"?>
<svg id="b" data-name="圖層 2" xmlns="http://www.w3.org/2000/svg" width="46.49" height="55.27" viewBox="0 0 46.49 55.27">
  <g id="c" data-name="footer">
    <g>
      <path d="M3.56,55.27c-1.15-.67-2.03-1.56-2.64-2.67-.61-1.11-.92-2.38-.92-3.81s.31-2.7,.92-3.81c.61-1.12,1.49-2,2.64-2.67l.76,.9c-.96,.58-1.7,1.35-2.21,2.31-.51,.96-.77,2.05-.77,3.28s.26,2.3,.77,3.27c.51,.96,1.25,1.73,2.21,2.3l-.76,.91Z" style="fill: #0b1118;"/>
      <path d="M22.15,52.02v.95H9.79v-.95h1.74v-5.74h3.32c.03-.22,.07-.45,.1-.7h-5v-.98h5.16c.03-.24,.06-.48,.08-.7h-4.62v-2.88h10.87v2.88h-4.92c-.04,.22-.07,.46-.13,.7h5.42v.98h-5.6c-.03,.25-.08,.48-.14,.7h4.27v5.74h1.82Zm-8.42-10.1h-1.93v1.06h1.93v-1.06Zm-.98,5.2v.67h6.29v-.67h-6.29Zm6.29,1.37h-6.29v.69h6.29v-.69Zm-6.29,2.1h6.29v-.7h-6.29v.7Zm0,1.43h6.29v-.7h-6.29v.7Zm2.17-9.04h1.99v-1.06h-1.99v1.06Zm3.18,0h2.03v-1.06h-2.03v1.06Z" style="fill: #0b1118;"/>
      <path d="M27.62,42.66v8.7c0,.73-.15,1.11-.62,1.32-.45,.22-1.16,.27-2.24,.27-.07-.36-.28-.97-.48-1.32,.8,.03,1.51,.03,1.74,.01,.24-.01,.31-.07,.31-.28v-8.7h-2.14v-1.22h5.13v1.22h-1.7Zm6.32,5.48c0,1.75-.67,3.87-4.09,5.21-.15-.28-.53-.76-.81-1.01,3.39-1.08,3.63-2.83,3.63-4.22v-2.68h1.27v2.69Zm-1.79-4.66c.11-.39,.21-.84,.29-1.25h-2.84v-1.13h7.38v1.13h-3.15c-.15,.42-.29,.87-.45,1.25h3.08v6.57h-1.26v-5.38h-3.84v5.41h-1.21v-6.6h1.99Zm2.09,6.72c.95,.63,2.21,1.58,2.83,2.21l-.88,.98c-.57-.66-1.82-1.65-2.79-2.33l.84-.87Z" style="fill: #0b1118;"/>
      <path d="M42.94,42.25c1.15,.67,2.03,1.56,2.64,2.67,.61,1.11,.92,2.38,.92,3.81s-.31,2.7-.92,3.82-1.49,2-2.64,2.67l-.76-.9c.96-.58,1.7-1.35,2.21-2.31,.51-.96,.77-2.05,.77-3.28s-.26-2.3-.77-3.27c-.51-.97-1.25-1.73-2.21-2.3l.76-.91Z" style="fill: #0b1118;"/>
    </g>
    <g>
      <line x1="31.3" y1="34.68" x2="31.3" y2="3.61" style="fill: none; stroke: #0b1118; stroke-miterlimit: 10; stroke-width: 3px;"/>
      <path d="M45.7,24.11c-.7,.45-1.63,.24-2.07-.46L31.3,4.29l-12.33,19.36c-.45,.7-1.37,.91-2.07,.46s-.9-1.38-.46-2.07L30.04,.69c.28-.43,.75-.69,1.27-.69s.99,.26,1.27,.69l13.59,21.34c.16,.25,.23,.53,.23,.81,0,.5-.25,.98-.69,1.27Z" style="fill: #0b1118;"/>
    </g>
  </g>
</svg>