<?xml version="1.0" encoding="UTF-8"?>
<svg id="b" data-name="圖層 2" xmlns="http://www.w3.org/2000/svg" width="297.33" height="297.33" viewBox="0 0 297.33 297.33">
  <g id="c" data-name="b">
    <rect width="297.33" height="297.33" style="fill: none;"/>
    <path d="M22.02,70.72l-11.25-1.81,.92-1.48,9.52,1.63-5.61-7.9,.88-1.42,6.54,9.36-1.01,1.61h.01Z" style="fill: #fff;"/>
    <path d="M32.88,55.74c-.49,.59-1.07,1.03-1.73,1.29-.67,.26-1.34,.35-2.05,.25-.7-.1-1.33-.37-1.91-.84-.57-.46-.97-1.01-1.21-1.67-.25-.64-.31-1.32-.2-2,.1-.69,.38-1.31,.84-1.88,.46-.57,1.01-.96,1.65-1.17s1.29-.26,1.97-.13c.68,.13,1.32,.42,1.9,.9l.33,.27-3.91,4.81c.38,.2,.77,.31,1.18,.33s.8-.06,1.19-.23c.39-.17,.71-.43,.99-.77,.25-.3,.43-.62,.56-.96,.14-.34,.19-.68,.17-1l1.36-.17c-.03,.58-.14,1.1-.32,1.59-.18,.48-.45,.96-.83,1.41v-.02Zm-5.18-.91l2.94-3.61c-.35-.21-.71-.32-1.09-.34s-.73,.04-1.07,.18-.63,.36-.88,.65c-.25,.31-.4,.64-.48,1s-.07,.73,.03,1.09,.28,.71,.56,1.02Z" style="fill: #fff;"/>
    <path d="M20.05,56.98c-.15,.21-.35,.33-.61,.37-.26,.04-.49-.02-.69-.17-.21-.15-.33-.35-.36-.61-.03-.25,.03-.48,.19-.69,.16-.22,.36-.35,.61-.39s.48,0,.69,.17c.2,.15,.32,.35,.36,.61,.04,.26-.02,.49-.17,.71h0Zm6.69,5.87l-6.15-4.52,.92-1.25,6.15,4.52-.92,1.25Z" style="fill: #fff;"/>
    <path d="M37.01,50.42l-7.1-3.56,1.02-1.1,5.16,2.68-2.91-5.12,.9-.98,5.34,2.48-3.09-4.93,.98-1.07,4.12,6.8-1.01,1.09-5.31-2.5,2.91,5.1-1.02,1.1h.01Z" style="fill: #fff;"/>
    <path d="M48.6,38.54l-4.9-5.85,1.18-.99,.47,.56c.07-.83,.45-1.53,1.13-2.1,.41-.34,.85-.56,1.32-.65s.92-.07,1.36,.07c-.02-.53,.08-1.03,.28-1.48,.2-.45,.52-.85,.94-1.21,.45-.38,.92-.61,1.42-.7s.99-.04,1.47,.14,.91,.5,1.29,.95l3.08,3.68-1.18,.99-2.92-3.48c-.39-.46-.81-.72-1.28-.77-.47-.06-.92,.09-1.35,.45-.29,.25-.5,.53-.63,.86s-.17,.7-.11,1.11c.08,.06,.16,.13,.24,.21s.15,.16,.22,.24l3.08,3.68-1.17,.98-2.92-3.48c-.39-.46-.81-.72-1.28-.77-.47-.06-.92,.09-1.35,.45-.28,.24-.49,.51-.62,.82-.13,.31-.18,.65-.14,1.03l3.56,4.26-1.19,.99h0Z" style="fill: #fff;"/>
    <path d="M63.62,26.91c-.62,.44-1.29,.69-2,.76s-1.39-.04-2.03-.32c-.64-.29-1.17-.73-1.59-1.34-.42-.61-.66-1.26-.71-1.96s.08-1.37,.39-2.02c.31-.65,.77-1.19,1.4-1.63,.63-.44,1.31-.69,2.02-.76,.71-.06,1.38,.05,2.02,.33,.64,.29,1.17,.73,1.59,1.34s.66,1.26,.71,1.96c.05,.7-.08,1.37-.39,2.01s-.78,1.18-1.41,1.62h0Zm-.75-1.07c.4-.28,.69-.62,.88-1.04,.19-.42,.26-.85,.21-1.31-.04-.46-.21-.89-.49-1.3-.28-.4-.63-.7-1.04-.89s-.85-.27-1.31-.25c-.45,.02-.88,.17-1.28,.45-.4,.28-.69,.62-.87,1.04-.18,.42-.25,.86-.21,1.31,.04,.46,.19,.89,.47,1.29,.29,.41,.64,.71,1.05,.91,.42,.2,.85,.28,1.31,.25,.46-.03,.88-.19,1.28-.46Z" style="fill: #fff;"/>
    <path d="M69.64,22.73l-3.97-6.52,1.32-.8,.51,.83c.02-.44,.14-.84,.34-1.2,.21-.37,.51-.67,.9-.91,.28-.16,.53-.26,.74-.29l.7,1.15c-.15,.02-.3,.07-.45,.12-.14,.06-.28,.13-.42,.21-.39,.24-.67,.55-.85,.93-.18,.38-.24,.82-.18,1.31l2.66,4.37-1.32,.8h.02Z" style="fill: #fff;"/>
    <path d="M79.1,17.43c-.68,.36-1.38,.54-2.09,.52-.72-.02-1.38-.2-1.98-.56-.61-.36-1.08-.86-1.43-1.52-.34-.64-.5-1.31-.47-2,.03-.69,.22-1.33,.58-1.93,.36-.59,.86-1.06,1.51-1.41s1.3-.49,1.97-.45c.67,.05,1.29,.26,1.87,.64s1.05,.9,1.41,1.57l.2,.37-5.47,2.91c.27,.33,.59,.59,.96,.76s.76,.26,1.19,.25c.42,0,.83-.12,1.22-.33,.34-.18,.63-.4,.89-.67s.44-.55,.55-.86l1.32,.37c-.25,.52-.55,.97-.91,1.34-.35,.38-.79,.7-1.31,.98v.02Zm-4.43-2.85l4.1-2.19c-.24-.32-.53-.57-.87-.73-.34-.17-.69-.25-1.06-.25s-.72,.09-1.06,.27c-.35,.18-.62,.43-.84,.73-.21,.31-.34,.64-.39,1.02-.05,.37-.01,.76,.12,1.15Z" style="fill: #fff;"/>
  </g>
</svg>