<?xml version="1.0" encoding="UTF-8"?>
<svg id="b" data-name="圖層 2" xmlns="http://www.w3.org/2000/svg" width="51.94" height="25.97" viewBox="0 0 51.94 25.97">
  <defs>
    <style>
      .d {
        fill: #0d131a;
      }
    </style>
  </defs>
  <g id="c" data-name="layout">
    <g>
      <g>
        <polygon class="d" points="0 10.76 2.52 10.76 2.52 6.84 7.84 6.84 7.84 4.84 2.52 4.84 2.52 2 8.64 2 8.64 0 0 0 0 10.76"/>
        <rect class="d" x="11.44" width="2.52" height="10.76"/>
        <polygon class="d" points="17.69 10.76 20.21 10.76 20.21 6.84 25.53 6.84 25.53 4.84 20.21 4.84 20.21 2 26.33 2 26.33 0 17.69 0 17.69 10.76"/>
        <polygon class="d" points="28.62 2.03 32.55 2.03 32.55 10.76 35.05 10.76 35.05 2.03 38.98 2.03 38.98 0 28.62 0 28.62 2.03"/>
        <polygon class="d" points="51.94 0 49.49 0 46.33 4.6 43.17 0 40.49 0 44.97 6.93 44.97 10.76 47.49 10.76 47.49 6.92 51.94 0"/>
      </g>
      <g>
        <path class="d" d="M0,25.97V15.21H2.54v8.73h6.29v2.03H0Z"/>
        <polygon class="d" points="32.56 15.21 32.56 21.81 26.87 15.21 24.78 15.21 24.78 25.97 27.28 25.97 27.28 19.37 32.96 25.97 35.05 25.97 35.05 15.21 32.56 15.21"/>
        <path class="d" d="M20.19,25.97h2.65l-4.9-10.76h-2.49l-4.85,10.76h2.59l.97-2.31h5.06l.97,2.31Zm-5.23-4.2l1.73-4.1,1.73,4.1h-3.46Z"/>
      </g>
    </g>
  </g>
</svg>