<?xml version="1.0" encoding="UTF-8"?>
<svg id="b" data-name="圖層 2" xmlns="http://www.w3.org/2000/svg" width="58.37" height="18.25" viewBox="0 0 58.37 18.25">
  <defs>
    <style>
      .d {
        fill: #231815;
      }
    </style>
  </defs>
  <g id="c" data-name="layout">
    <g>
      <g>
        <g>
          <path class="d" d="M5.08,10.33L1.31,5.14,4.98,.27h1.76L2.93,4.89l4.06,5.43h-1.9ZM.06,10.33V.27H1.46V5.5l.02-.02-.02,4.85H.06Z"/>
          <path class="d" d="M11.54,10.6c-1.44,0-2.64-.52-3.57-1.54-.94-1.03-1.41-2.29-1.41-3.75s.48-2.73,1.42-3.76C8.91,.52,10.11,0,11.54,0s2.62,.52,3.55,1.55c.94,1.04,1.41,2.3,1.41,3.76s-.47,2.72-1.4,3.75c-.93,1.03-2.13,1.54-3.56,1.54Zm0-9.23c-1.06,0-1.92,.38-2.56,1.13-.63,.74-.94,1.65-.94,2.71s.34,2,1,2.8c.67,.81,1.52,1.22,2.51,1.22,1.06,0,1.92-.39,2.56-1.17,.63-.77,.95-1.73,.95-2.85s-.32-1.98-.95-2.72c-.64-.74-1.5-1.12-2.56-1.12Z"/>
          <rect class="d" x="18.51" y=".27" width="1.41" height="10.05"/>
          <path class="d" d="M29.63,10.33V.27h2.58c2.31,0,3.44,1,3.44,3.05,0,1.04-.26,1.83-.78,2.34-.52,.51-1.31,.77-2.37,.77h-1.47v3.89h-1.41Zm1.41-4.94h1.05c1.39,0,2.12-.71,2.12-2.07s-.75-2-2.17-2h-1V5.39Z"/>
          <polygon class="d" points="37.62 10.33 37.62 .27 39.02 .27 39.02 9.19 42.16 9.19 42.16 10.33 37.62 10.33"/>
          <path class="d" d="M47.14,10.6c-2.48,0-3.69-1.4-3.69-4.28V.27h1.41V5.93c0,2.35,.77,3.54,2.29,3.54s2.29-1.19,2.29-3.54V.27h1.39V6.32c0,2.88-1.21,4.28-3.69,4.28Z"/>
          <path class="d" d="M55.12,10.6c-1.25,0-2.22-.59-2.96-1.81l.83-.82c.17,.33,.43,.64,.77,.93,.43,.36,.88,.54,1.35,.54,.55,0,1-.19,1.33-.58,.32-.38,.48-.84,.48-1.37,0-.4-.12-.75-.37-1.05-.15-.19-.55-.52-2.27-1.29-1.19-.53-1.77-1.25-1.77-2.21,0-.83,.27-1.53,.82-2.1,.54-.56,1.23-.85,2.04-.85,1.09,0,1.97,.34,2.62,1l-.6,.89c-.45-.54-1.02-.82-1.69-.82-.48,0-.89,.15-1.22,.44-.34,.3-.51,.7-.51,1.19s.56,1.08,1.71,1.73c1.12,.63,1.48,.83,1.62,.9,.72,.54,1.07,1.15,1.07,1.88,0,1.01-.29,1.84-.87,2.46-.57,.62-1.37,.93-2.38,.93Z"/>
        </g>
        <g>
          <path class="d" d="M22.95,7.58c.35,0,.68,.14,.92,.39,.24,.25,.37,.57,.37,.9,0,.36-.13,.7-.37,.96-.24,.26-.57,.4-.92,.4-.72,0-1.3-.61-1.3-1.36,0-.7,.59-1.3,1.3-1.3Zm-1.49,1.3c0,.86,.67,1.55,1.49,1.55,.4,0,.78-.16,1.06-.46,.28-.29,.43-.68,.43-1.09,0-.38-.16-.76-.43-1.04-.28-.29-.66-.45-1.06-.45-.81,0-1.49,.68-1.49,1.49Z"/>
          <path class="d" d="M22.95,7.91h.06c.18,0,.31,0,.46,.06,.24,.1,.33,.27,.33,.49,0,.25-.18,.55-.55,.55,.19,.13,.36,.36,.43,.49l.24,.42h-.48l-.24-.42c-.12-.18-.18-.24-.24-.3v-.43h.24c.16,0,.18-.18,.18-.24s-.03-.24-.24-.24h-.18v-.36Zm-.79,2v-2h.79v.36h-.37v.48h.37v.43h0l-.12-.12h-.24v.85h-.42Z"/>
        </g>
      </g>
      <g>
        <path class="d" d="M2.34,15.08h-.12c-.06-.25-.18-.46-.38-.64-.19-.18-.41-.27-.66-.27-.17,0-.31,.05-.44,.15-.13,.1-.19,.23-.19,.38,0,.2,.16,.4,.49,.59l.91,.53c.33,.22,.49,.47,.49,.72s-.1,.47-.31,.65c-.21,.17-.49,.26-.84,.26-.16,0-.33-.03-.52-.08-.19-.06-.3-.08-.33-.08-.11,0-.17,.05-.17,.16h-.12l-.17-1.05H.11c.25,.61,.63,.91,1.14,.91,.21,0,.39-.06,.53-.19,.14-.12,.21-.27,.21-.42s-.07-.3-.21-.42c-.14-.12-.39-.28-.77-.48-.37-.2-.61-.35-.7-.47-.1-.12-.15-.27-.15-.45,0-.26,.1-.46,.29-.61,.19-.15,.43-.23,.7-.23,.11,0,.36,.06,.76,.17,.1,0,.16-.06,.19-.17h.12l.12,1.05Z"/>
        <path class="d" d="M4.06,17.31c.18,0,.31-.03,.38-.08,.07-.05,.1-.17,.1-.36v-1.15c0-.2-.08-.31-.24-.31-.05,0-.12,0-.22,.02v-.06c.31-.09,.58-.18,.8-.26l.02,.02v1.74c0,.17,.03,.29,.09,.35,.06,.06,.18,.09,.37,.09v.06h-1.3v-.06Zm.62-3.29c.17,0,.25,.08,.25,.23s-.08,.23-.25,.23-.25-.08-.25-.23,.08-.23,.25-.23Z"/>
        <path class="d" d="M7.18,15.7c0-.22-.08-.33-.24-.33-.06,0-.12,0-.17,.02v-.07c.24-.06,.48-.13,.72-.21h.04v.4c.35-.28,.65-.42,.89-.42,.28,0,.46,.14,.54,.42,.27-.28,.58-.42,.93-.42,.4,0,.6,.29,.6,.88v1.02c0,.21,.14,.31,.43,.31v.06h-1.2v-.06c.19-.02,.31-.06,.35-.12,.04-.06,.06-.14,.06-.25v-1.04c0-.36-.15-.54-.44-.54s-.51,.1-.66,.31v1.24c0,.27,.15,.41,.44,.41v.06h-1.22v-.06c.28,0,.42-.12,.42-.36v-1.08c0-.34-.14-.52-.43-.52-.16,0-.31,.04-.46,.13-.15,.09-.22,.15-.22,.18v1.37c0,.18,.14,.27,.43,.27v.06h-1.22v-.06c.29,0,.43-.12,.43-.36v-1.25Z"/>
        <path class="d" d="M12.54,15.66c0-.19-.08-.29-.24-.29h-.17v-.06c.2-.05,.45-.14,.75-.25h.03v.37h.01c.21-.24,.49-.37,.83-.37,.25,0,.47,.1,.64,.29,.17,.19,.26,.45,.26,.77,0,.34-.11,.64-.32,.89-.21,.25-.49,.37-.83,.37-.24,0-.44-.07-.6-.21v.62c0,.15,.04,.26,.11,.31,.07,.05,.21,.08,.42,.08v.08h-1.32v-.07c.28,0,.43-.12,.43-.35v-2.16Zm.37,1.25c0,.06,.06,.13,.2,.2,.13,.07,.27,.11,.41,.11,.51,0,.76-.32,.76-.95,0-.27-.07-.49-.2-.66-.14-.17-.33-.26-.58-.26-.1,0-.22,.03-.36,.1-.13,.07-.21,.14-.22,.23v1.24Z"/>
        <path class="d" d="M16.1,17.31c.31,0,.47-.12,.47-.37v-2.36c0-.2-.09-.31-.28-.31h-.2v-.06c.16-.04,.43-.11,.82-.22h.02v2.97c0,.24,.15,.35,.45,.35v.06h-1.29v-.06Z"/>
        <path class="d" d="M21.26,15.21c-.12,.02-.21,.09-.26,.23l-.79,1.82c-.16,.39-.31,.66-.44,.8-.14,.14-.3,.21-.48,.21-.26,0-.39-.09-.39-.26,0-.13,.09-.2,.27-.2,.06,0,.13,.01,.2,.04,.07,.03,.13,.04,.16,.04,.08,0,.19-.13,.34-.4,.14-.26,.22-.43,.22-.49s-.11-.27-.34-.61l-.68-1.02c-.06-.09-.17-.15-.33-.17v-.06h1.13v.06c-.23,0-.34,.07-.34,.21,0,.05,.02,.11,.06,.17l.68,1.05,.38-.9c.04-.1,.06-.17,.08-.21,.03-.08,.05-.12,.05-.13,0-.14-.09-.21-.26-.21v-.06h.74v.06Z"/>
        <path class="d" d="M27.28,14.17c-.23,0-.38,.04-.46,.11-.08,.07-.12,.19-.12,.36v2.39c0,.08,.02,.14,.07,.16,.05,.02,.21,.04,.48,.04,.52,0,.88-.05,1.08-.16,.2-.11,.36-.29,.48-.55h.12l-.26,.86h-2.95v-.08c.36,0,.55-.15,.55-.46v-2.2c0-.31-.18-.46-.55-.46v-.08h1.54v.08Z"/>
        <path class="d" d="M32.8,17.19c-.14,.03-.27,.07-.37,.1-.14,.05-.26,.09-.34,.12v-.46c-.33,.31-.61,.46-.87,.46-.4,0-.6-.21-.6-.64v-1.24c0-.22-.13-.33-.39-.33v-.06h.76v1.62c0,.25,.15,.37,.45,.37,.14,0,.28-.04,.41-.13s.2-.2,.2-.33v-1.13c0-.21-.15-.32-.45-.32v-.07h.82v1.7c0,.2,.13,.3,.38,.3v.06Z"/>
        <path class="d" d="M35.32,16.38l-.44,.6c-.07,.11-.1,.17-.1,.21,0,.08,.06,.12,.19,.12v.06h-.79v-.06c.17,0,.32-.08,.43-.23l.63-.87-.52-.74c-.12-.17-.29-.26-.5-.26v-.06h1.13v.06h-.03c-.16,0-.23,.05-.23,.15,0,.08,.11,.26,.33,.54,.25-.32,.37-.52,.37-.58,0-.08-.07-.12-.2-.12v-.06h.87v.06c-.2,0-.35,.07-.45,.2l-.49,.66,.69,.98c.11,.16,.27,.25,.49,.26v.06h-1.1v-.06c.16,0,.23-.04,.23-.12,0-.05-.03-.12-.09-.21l-.42-.6Z"/>
        <path class="d" d="M40.61,17.19c-.14,.03-.27,.07-.37,.1-.14,.05-.26,.09-.34,.12v-.46c-.33,.31-.61,.46-.87,.46-.4,0-.6-.21-.6-.64v-1.24c0-.22-.13-.33-.39-.33v-.06h.76v1.62c0,.25,.15,.37,.45,.37,.14,0,.28-.04,.41-.13s.2-.2,.2-.33v-1.13c0-.21-.15-.32-.45-.32v-.07h.82v1.7c0,.2,.13,.3,.38,.3v.06Z"/>
        <path class="d" d="M42.35,15.72c0-.2-.08-.31-.23-.31-.06,0-.12,0-.19,.02v-.07c.27-.08,.53-.17,.76-.25h.02v.5c.26-.34,.5-.51,.7-.51s.31,.09,.31,.27c0,.12-.07,.18-.2,.18-.07,0-.15-.04-.25-.11-.05-.04-.09-.05-.13-.05-.07,0-.15,.06-.26,.19-.11,.12-.16,.23-.16,.3v1.05c0,.26,.17,.38,.51,.38v.06h-1.31v-.06c.2-.03,.32-.07,.37-.12,.04-.05,.06-.13,.06-.23v-1.24Z"/>
        <path class="d" d="M44.96,17.31c.18,0,.31-.03,.38-.08,.07-.05,.1-.17,.1-.36v-1.15c0-.2-.08-.31-.24-.31-.05,0-.12,0-.22,.02v-.06c.31-.09,.58-.18,.8-.26l.02,.02v1.74c0,.17,.03,.29,.09,.35,.06,.06,.18,.09,.37,.09v.06h-1.3v-.06Zm.62-3.29c.17,0,.25,.08,.25,.23s-.08,.23-.25,.23-.25-.08-.25-.23,.08-.23,.25-.23Z"/>
        <path class="d" d="M50.12,16.24c0,.31-.11,.58-.33,.82-.22,.24-.51,.36-.86,.36s-.64-.11-.87-.33c-.23-.22-.34-.5-.34-.83s.11-.61,.33-.83c.22-.22,.5-.33,.85-.33,.36,0,.66,.1,.89,.31,.23,.21,.34,.49,.34,.84Zm-.4,.14c0-.32-.08-.6-.25-.82-.17-.22-.37-.33-.63-.33-.21,0-.38,.07-.52,.21-.14,.14-.22,.33-.22,.56,0,.37,.08,.67,.23,.91,.16,.24,.37,.36,.64,.36,.21,0,.39-.08,.53-.24,.14-.16,.21-.38,.21-.66Z"/>
        <path class="d" d="M54.08,17.19c-.14,.03-.27,.07-.37,.1-.14,.05-.26,.09-.34,.12v-.46c-.33,.31-.61,.46-.87,.46-.4,0-.6-.21-.6-.64v-1.24c0-.22-.13-.33-.39-.33v-.06h.76v1.62c0,.25,.15,.37,.45,.37,.14,0,.28-.04,.41-.13,.13-.09,.2-.2,.2-.33v-1.13c0-.21-.15-.32-.45-.32v-.07h.82v1.7c0,.2,.13,.3,.38,.3v.06Z"/>
        <path class="d" d="M57.01,15.82c-.08-.4-.29-.61-.62-.61-.14,0-.25,.04-.33,.12-.08,.08-.13,.16-.13,.25,0,.14,.08,.25,.25,.34l.59,.32c.32,.19,.48,.38,.48,.56s-.08,.34-.24,.45c-.16,.12-.34,.18-.55,.18-.1,0-.22-.02-.36-.06-.15-.04-.24-.06-.28-.06s-.08,.03-.13,.08h-.06v-.77h.08c.12,.46,.36,.7,.72,.7,.32,0,.48-.13,.48-.4,0-.14-.1-.26-.29-.36l-.31-.16c-.31-.17-.5-.29-.57-.39-.07-.09-.11-.2-.11-.31,0-.17,.07-.32,.21-.43,.14-.12,.32-.17,.55-.17,.09,0,.26,.04,.5,.12,.04,0,.08-.02,.11-.07h.05l.02,.68h-.07Z"/>
      </g>
    </g>
  </g>
</svg>