<?xml version="1.0" encoding="UTF-8"?>
<svg id="b" data-name="圖層 2" xmlns="http://www.w3.org/2000/svg" width="328.38" height="143.93" viewBox="0 0 328.38 143.93">
  <defs>
    <style>
      .d {
        fill: #0c131b;
      }

      .e {
        fill: #54c0e8;
      }
    </style>
  </defs>
  <g id="c" data-name="設計">
    <g>
      <path class="e" d="M126.57,130.37l1.28,7.78c.07,.43,.37,.78,.79,.91,10.35,3.17,22.73,4.88,35.5,4.88s25.16-1.72,35.51-4.9c.41-.13,.72-.48,.79-.91l1.3-7.76c.08-.51-.39-.92-.88-.76-10.62,3.43-23.38,5.29-36.72,5.29s-26.07-1.81-36.69-5.28c-.49-.16-.97,.25-.88,.76Z"/>
      <path class="e" d="M107.87,8.14c.08,.48,.45,.86,.93,.94,14.22,2.4,33.95,3.89,55.76,3.89,21.51,0,40.73-1.43,54.85-3.74,.48-.08,.86-.46,.93-.94l1.19-7.34c.08-.46-.32-.86-.78-.78-14.25,2.45-34.16,3.97-56.2,3.97S121.77,2.55,107.47,.01c-.46-.08-.86,.32-.79,.78l1.2,7.34Z"/>
    </g>
    <g>
      <path class="d" d="M0,86.39V49.99H18.04c2.5,0,4.69,.43,6.58,1.3,1.89,.87,3.37,2.07,4.45,3.61,1.07,1.54,1.61,3.32,1.61,5.33,0,1.49-.37,2.89-1.12,4.19-.75,1.3-1.76,2.4-3.04,3.3,1.63,.87,2.92,1.99,3.87,3.38,.95,1.39,1.43,2.91,1.43,4.58,0,2.11-.54,3.98-1.61,5.59-1.07,1.61-2.58,2.87-4.52,3.77-1.94,.9-4.2,1.35-6.76,1.35H0Zm8.94-21.89h8.53c1.32,0,2.36-.33,3.12-.99,.76-.66,1.14-1.53,1.14-2.6s-.38-1.98-1.14-2.63c-.76-.64-1.8-.96-3.12-.96H8.94v7.18Zm0,14.56h9.31c1.39,0,2.49-.35,3.3-1.04,.81-.69,1.22-1.63,1.22-2.81s-.41-2.11-1.22-2.81c-.82-.69-1.92-1.04-3.3-1.04H8.94v7.7Z"/>
      <path class="d" d="M37.96,86.39V49.99h18.62c2.5,0,4.71,.49,6.66,1.48,1.94,.99,3.46,2.36,4.55,4.11,1.09,1.75,1.64,3.75,1.64,6.01s-.62,4.33-1.87,6.14c-1.25,1.8-2.89,3.17-4.94,4.11l7.96,14.56h-9.98l-6.86-13.26h-6.81v13.26h-8.94Zm8.94-20.54h8.84c1.39,0,2.5-.38,3.35-1.14,.85-.76,1.27-1.75,1.27-2.96s-.42-2.2-1.27-2.96c-.85-.76-1.97-1.14-3.35-1.14h-8.84v8.22Z"/>
      <path class="d" d="M72.43,86.39l14.92-36.4h10.24l14.72,36.4h-9.67l-3.33-8.79h-14.2l-3.38,8.79h-9.31Zm15.39-15.91h8.84l-4.37-11.65-4.47,11.65Z"/>
      <path class="d" d="M116.27,86.39V49.99h8.42l16.54,21.11v-21.11h8.42v36.4h-7.9l-17.06-21.94v21.94h-8.42Z"/>
      <path class="d" d="M156.99,86.39V49.99h14.77c2.7,0,5.22,.47,7.54,1.4,2.32,.94,4.36,2.24,6.11,3.9s3.12,3.61,4.11,5.82,1.48,4.61,1.48,7.18-.49,4.89-1.48,7.07-2.36,4.1-4.11,5.75-3.79,2.94-6.11,3.87c-2.32,.94-4.84,1.4-7.54,1.4h-14.77Zm8.94-7.9h5.62c1.42,0,2.75-.26,3.98-.78s2.31-1.25,3.25-2.18,1.66-2.02,2.18-3.25c.52-1.23,.78-2.56,.78-3.98s-.26-2.82-.78-4.08c-.52-1.26-1.25-2.37-2.18-3.3-.94-.94-2.02-1.67-3.25-2.21s-2.56-.81-3.98-.81h-5.62v20.59Z"/>
      <path class="d" d="M208.46,86.39V49.99h11.28l9,17.16,9-17.16h11.28v36.4h-8.42v-24.8l-11.96,22.2-11.96-22.31v24.91h-8.22Z"/>
      <path class="d" d="M252.98,86.39l14.92-36.4h10.24l14.72,36.4h-9.67l-3.33-8.79h-14.2l-3.38,8.79h-9.31Zm15.39-15.91h8.84l-4.37-11.65-4.47,11.65Z"/>
      <path class="d" d="M296.81,86.39V49.99h19.19c2.39,0,4.51,.51,6.37,1.53,1.85,1.02,3.32,2.42,4.39,4.19,1.07,1.77,1.61,3.8,1.61,6.08s-.54,4.15-1.61,5.9c-1.08,1.75-2.55,3.13-4.42,4.13-1.87,1.01-3.99,1.51-6.34,1.51h-10.24v13.05h-8.94Zm8.94-20.44h9.2c1.32,0,2.37-.38,3.17-1.14,.8-.76,1.2-1.75,1.2-2.96s-.4-2.26-1.2-3.04c-.8-.78-1.85-1.17-3.17-1.17h-9.2v8.32Z"/>
    </g>
  </g>
</svg>