<?xml version="1.0" encoding="UTF-8"?>
<svg id="uuid-c4af039c-3dd0-47c1-b81a-63989093f347" data-name="圖層 2" xmlns="http://www.w3.org/2000/svg" width="121.03" height="48.41" viewBox="0 0 121.03 48.41">
  <defs>
    <style>
      .uuid-4c3cea45-5105-4b6c-92cc-fbb1cf799011 {
        fill: #0d131a;
      }
    </style>
  </defs>
  <g id="uuid-7ca72748-63de-40f5-bd6f-3ee2029024bd" data-name="設計">
    <g>
      <g>
        <path class="uuid-4c3cea45-5105-4b6c-92cc-fbb1cf799011" d="M34.38,11.94c-.73,.11-1.82,.26-2.4,.33-.15,.02-.28,.14-.3,.29l-4.72,29.16c-.02,.15,.11,.27,.26,.24,.83-.2,1.74-.48,2.47-.74,.12-.04,.21-.15,.23-.27l4.7-28.77c.02-.14-.1-.26-.24-.24Z"/>
        <path class="uuid-4c3cea45-5105-4b6c-92cc-fbb1cf799011" d="M22.17,16.09c-3.15,0-5.72,2.55-5.72,5.69s2.56,5.69,5.72,5.69,5.72-2.55,5.72-5.69-2.56-5.69-5.72-5.69Zm0,8.76c-1.7,0-3.08-1.38-3.08-3.07s1.38-3.07,3.08-3.07,3.08,1.38,3.08,3.07-1.38,3.07-3.08,3.07Z"/>
        <path class="uuid-4c3cea45-5105-4b6c-92cc-fbb1cf799011" d="M29.11,44.01c-3.28,1.05-7.22,1.63-11.35,1.63s-8.05-.56-11.34-1.63c-.15-.05-.3,.08-.27,.23l.4,2.39c.02,.13,.12,.24,.24,.28,3.2,.98,7.02,1.5,10.97,1.5s7.78-.53,10.97-1.51c.13-.04,.22-.15,.24-.28l.4-2.39c.03-.16-.12-.28-.27-.23Z"/>
        <path class="uuid-4c3cea45-5105-4b6c-92cc-fbb1cf799011" d="M35.26,6.58c-3.62,.62-8.42,1.04-13.8,1.18-.11,0-.18-.12-.13-.21L25.65,.32c.08-.14-.02-.32-.18-.32h-2.91c-.12,0-.24,.07-.3,.17l-4.44,7.45c-.06,.11-.18,.17-.31,.17-6.8-.02-12.93-.5-17.27-1.27-.14-.03-.27,.1-.24,.24l.37,2.26c.02,.15,.14,.26,.29,.29,3.95,.66,9.27,1.1,15.2,1.18,.11,0,.17,.12,.12,.21l-7.21,12.12c-.07,.11-.2,.16-.33,.12-.93-.29-1.88-.52-2.85-.68-.12-.02-.21-.11-.23-.23l-1.54-9.51c-.02-.15-.15-.27-.3-.29-.68-.09-1.66-.23-2.4-.34-.14-.02-.26,.1-.24,.24l4.72,28.82c.02,.13,.11,.23,.23,.27,.69,.24,1.76,.56,2.46,.74,.15,.04,.28-.09,.26-.24l-2.63-16.25c-.02-.1,.07-.18,.17-.16,3.68,.83,7.07,2.81,9.62,5.65,2.91,3.23,4.56,7.42,4.68,11.76,0,.16,.14,.28,.29,.27,.65-.04,1.84-.16,2.37-.22,.14-.02,.25-.14,.25-.28-.16-5.13-2.19-10.05-5.73-13.81-1.7-1.81-3.71-3.3-5.9-4.41-.15-.07-.2-.25-.12-.39l7.9-13.21c.06-.1,.18-.17,.3-.17,5.89-.07,11.13-.49,15.09-1.14,.15-.02,.26-.14,.29-.29l.37-2.26c.02-.14-.1-.26-.24-.24Z"/>
      </g>
      <g>
        <g>
          <polygon class="uuid-4c3cea45-5105-4b6c-92cc-fbb1cf799011" points="47.26 24.62 50.84 24.62 50.84 19.05 58.39 19.05 58.39 16.21 50.84 16.21 50.84 12.17 59.53 12.17 59.53 9.33 47.26 9.33 47.26 24.62"/>
          <rect class="uuid-4c3cea45-5105-4b6c-92cc-fbb1cf799011" x="63.51" y="9.33" width="3.58" height="15.29"/>
          <polygon class="uuid-4c3cea45-5105-4b6c-92cc-fbb1cf799011" points="72.39 24.62 75.97 24.62 75.97 19.05 83.52 19.05 83.52 16.21 75.97 16.21 75.97 12.17 84.66 12.17 84.66 9.33 72.39 9.33 72.39 24.62"/>
          <polygon class="uuid-4c3cea45-5105-4b6c-92cc-fbb1cf799011" points="87.91 12.22 93.49 12.22 93.49 24.62 97.05 24.62 97.05 12.22 102.63 12.22 102.63 9.33 87.91 9.33 87.91 12.22"/>
          <polygon class="uuid-4c3cea45-5105-4b6c-92cc-fbb1cf799011" points="121.03 9.33 117.56 9.33 113.06 15.87 108.57 9.33 104.77 9.33 111.13 19.18 111.13 24.62 114.71 24.62 114.71 19.17 121.03 9.33"/>
        </g>
        <g>
          <path class="uuid-4c3cea45-5105-4b6c-92cc-fbb1cf799011" d="M47.26,46.22v-15.29h3.61v12.41h8.94v2.88h-12.55Z"/>
          <polygon class="uuid-4c3cea45-5105-4b6c-92cc-fbb1cf799011" points="93.5 30.93 93.5 40.31 85.43 30.93 82.46 30.93 82.46 46.22 86 46.22 86 36.84 94.08 46.22 97.05 46.22 97.05 30.93 93.5 30.93"/>
          <path class="uuid-4c3cea45-5105-4b6c-92cc-fbb1cf799011" d="M75.94,46.22h3.76l-6.95-15.29h-3.54l-6.89,15.29h3.68l1.38-3.28h7.18l1.38,3.28Zm-7.43-5.96l2.46-5.83,2.46,5.83h-4.92Z"/>
        </g>
      </g>
    </g>
  </g>
</svg>