<?xml version="1.0" encoding="UTF-8"?>
<svg id="b" data-name="圖層 2" xmlns="http://www.w3.org/2000/svg" width="66.11mm" height="33.08mm" viewBox="0 0 187.4 93.77">
  <defs>
    <style>
      .d {
        fill: #b4cdbd;
      }

      .e {
        fill: #231815;
      }
    </style>
  </defs>
  <g id="c" data-name="圖層 1">
    <g>
      <path class="d" d="M119.52,27.06c-.03,.61-.08,1.22-.17,1.83-.05,.3-.09,.6-.15,.9l-.09,.45-.11,.5c-.55,2.67-.71,5.36-.67,8.03,.05,2.67,.33,5.34,.88,7.97,.56,2.62,1.37,5.23,2.7,7.67,.67,1.21,1.47,2.39,2.5,3.41,1.02,1.02,2.3,1.88,3.75,2.34h0c.4,.13,.86,.03,1.18-.29,1.96-1.99,3.83-4.1,5.5-6.39,1.66-2.29,3.14-4.77,4.14-7.47,1.02-2.69,1.52-5.59,1.49-8.46,0-1.44-.15-2.87-.41-4.27-.26-1.4-.59-2.78-1.03-4.13-.44-1.34-.94-2.66-1.52-3.94-.28-.65-.59-1.26-.89-1.89-.3-.62-.58-1.27-.93-1.89-1.34-2.5-3.06-4.73-4.92-6.81-1.86-2.08-3.87-4-5.98-5.79-2.11-1.8-4.31-3.48-6.6-5.02,2.18,1.69,4.24,3.53,6.23,5.43,1.98,1.91,3.87,3.91,5.6,6.03,1.71,2.12,3.28,4.38,4.47,6.79,.3,.6,.55,1.23,.83,1.86,.28,.63,.56,1.26,.8,1.89,.52,1.26,.95,2.54,1.32,3.83,.39,1.29,.66,2.61,.87,3.93,.2,1.32,.3,2.65,.27,3.97-.04,2.65-.59,5.26-1.55,7.72-.97,2.46-2.37,4.75-3.98,6.89-1.46,1.95-3.12,3.75-4.84,5.52-.78-.36-1.5-.87-2.14-1.52-.82-.81-1.5-1.81-2.08-2.88-1.16-2.14-1.91-4.56-2.42-7.02-.5-2.47-.78-5-.84-7.52-.06-2.53,.09-5.07,.58-7.5l.1-.46,.1-.51c.07-.34,.12-.68,.17-1.02,.1-.68,.15-1.37,.18-2.06,.05-1.37-.02-2.74-.19-4.08-.34-2.68-1.02-5.27-1.82-7.79-.8-2.52-1.73-4.97-2.67-7.4-.33-.85-.66-1.7-.99-2.54,.83,1.04,1.63,2.1,2.39,3.2,1.73,2.47,3.21,5.12,4.5,7.85,1.27,2.74,2.29,5.61,3.03,8.56,.37,1.47,.65,2.97,.86,4.48,.21,1.51,.34,3.03,.3,4.56,.29-3.05,0-6.15-.55-9.17-.55-3.03-1.47-6-2.62-8.87-1.17-2.86-2.61-5.62-4.27-8.24-1.66-2.62-3.54-5.1-5.6-7.42-.23-.26-.6-.37-.95-.26-.47,.15-.73,.66-.58,1.13v.02c.81,2.5,1.7,4.96,2.57,7.4,.88,2.44,1.75,4.88,2.49,7.33,.73,2.45,1.33,4.93,1.6,7.42,.14,1.24,.2,2.48,.15,3.71Z"/>
      <path class="d" d="M187.38,52.49c-.06-.94-.3-1.82-.63-2.64-.67-1.63-1.69-3.03-2.89-4.21-1.19-1.19-2.6-2.15-4.12-2.83-1.53-.66-3.19-1-4.8-.9,1.6,.23,3.1,.8,4.43,1.62,1.33,.81,2.49,1.87,3.47,3.04,.97,1.18,1.75,2.52,2.21,3.91,.22,.69,.35,1.4,.34,2.06,0,.05,0,.09,0,.13-2.01-2.31-4.19-4.49-6.63-6.41l-1.12-.85-.56-.42c-.19-.14-.39-.26-.58-.39l-1.17-.78c-.39-.26-.81-.48-1.22-.72-.8-.49-1.67-.88-2.51-1.3-.43-.19-.87-.37-1.31-.55-.22-.09-.43-.19-.66-.26l-.67-.23c-3.57-1.26-7.47-1.67-11.2-1.1-.47,.07-.93,.17-1.39,.26-.46,.11-.91,.22-1.36,.35-.9,.27-1.78,.59-2.63,.97-1.69,.76-3.31,1.72-4.66,2.96,1.56-.95,3.25-1.62,4.96-2.13,.86-.26,1.73-.45,2.6-.6,.44-.08,.88-.14,1.31-.2,.44-.04,.88-.09,1.32-.11,3.52-.2,7.02,.42,10.27,1.72l.61,.23c.2,.08,.4,.18,.6,.27l1.19,.55c.77,.41,1.57,.79,2.31,1.27,1.53,.87,2.95,1.93,4.36,2.99,.06,.04,.11,.09,.16,.14-.91-.38-1.82-.72-2.76-1-2.67-.83-5.44-1.31-8.22-1.62-2.78-.3-5.58-.37-8.37-.33-2.77,.07-6.9,.21-11.83,1.3-1.15,.33-2.27,.74-3.34,1.24-.03,.01-.06,.03-.09,.05,.79-.76,1.57-1.52,2.34-2.29l8.6-8.49c1.66-1.61,3.32-3.22,4.98-4.82,2.11,.61,4.39,.76,6.61,.33,1.34-.26,2.64-.72,3.86-1.36,1.22-.63,2.34-1.45,3.36-2.37,1.02-.92,1.92-1.96,2.72-3.06,.81-1.1,1.5-2.27,2.11-3.47,1.23-2.41,2.1-4.95,2.8-7.53,.03-.1,.04-.22,.04-.33,0-.67-.56-1.2-1.23-1.19h0c-2.64,.04-5.3,.36-7.88,1.06-2.57,.7-5.07,1.78-7.27,3.32l-.81,.59c-.13,.1-.27,.19-.4,.3l-.38,.33c-.5,.44-1.03,.85-1.46,1.36-.45,.49-.92,.96-1.31,1.5-.4,.53-.83,1.03-1.16,1.61-1.42,2.23-2.39,4.68-2.92,7.21,1.04-2.36,2.28-4.59,3.88-6.51,1.57-1.94,3.48-3.54,5.59-4.79,2.12-1.23,4.42-2.12,6.82-2.68,1.86-.44,3.77-.69,5.7-.8-.2,.69-.42,1.37-.66,2.05-.4,1.2-.88,2.36-1.41,3.49-1.05,2.27-2.4,4.39-4.08,6.19-.85,.9-1.8,1.68-2.83,2.35-1.03,.68-2.16,1.21-3.35,1.58-1.92,.63-4,.79-6.08,.6,1.15-1.1,2.3-2.21,3.48-3.29,1.48-1.35,2.96-2.71,4.5-4,1.54-1.29,3.08-2.58,4.83-3.62-.99,.26-1.93,.69-2.85,1.15-.92,.46-1.81,.97-2.68,1.51-1.75,1.07-3.41,2.27-5.03,3.5-3.23,2.49-6.26,5.23-9.18,8.06-1.43,1.45-2.87,2.88-4.25,4.37-.68,.75-1.37,1.5-2.05,2.26l-1.01,1.14c-.33,.38-.66,.77-.99,1.16-1.3,1.56-2.61,3.11-3.84,4.72-.25,.33-.5,.67-.75,1-.75,.53-1.48,1.08-2.18,1.67-.89,.77-1.73,1.59-2.52,2.45-.77,.88-1.53,1.77-2.21,2.72-.83,1.14-1.58,2.33-2.28,3.54-.62,.97-1.22,1.96-1.77,2.96-1.47,2.61-2.78,5.3-3.97,8.03-.6,1.37-1.16,2.75-1.7,4.14-.27,.7-.53,1.4-.78,2.1-.25,.7-.49,1.38-.75,2.04-.52,1.31-1.14,2.5-2.04,3.37,0,0-.63,.57-.72,.72-.18,.27-.28,.57-.27,.91,.02,.33,.12,.62,.35,.9,.11,.14,.55,.59,.55,.59,.06,.06,3,1.63,3.18,1.68,.34,.1,.69,.11,1.02,.02,.68-.19,1.13-.8,1.33-1.51l.31-1.16,.27-1.08,.34-1.42s1.25-7.01,3.15-13.45c.55-1.88,1.41-3.66,2.16-5.46,1.02-1.94,2.18-3.79,3.5-5.51,.65-.88,1.36-1.69,2.09-2.49,.75-.78,1.51-1.54,2.34-2.24,1.64-1.39,3.44-2.6,5.37-3.51,.96-.46,.69-.46,2.97-1.15,2.29-.69,5.85-1.03,7.19-1.18,1.35-.16,2.71-.27,4.07-.36,2.72-.19,5.44-.23,8.16-.12,2.72,.11,5.43,.4,8.1,.95,1.47,.31,2.93,.71,4.36,1.22,2.2,1.87,4.27,3.92,6.24,6.08l.05,.05c.07,.08,.15,.14,.24,.2,.5,.29,1.13,.12,1.42-.38,.54-.92,.72-1.96,.65-2.9Zm-66,32.77v.02h-.01v-.02Zm3.81-10.4h0l.02-.05v.05Z"/>
    </g>
    <g>
      <path class="e" d="M25.76,44.46c-.18,.86-.37,1.71-.54,2.58q-.32,1.56-1.91,1.89c-.83,.17-1.65,.34-2.65,.54-.2,.18,.33,.25,.45,.28,1.1,.23,2.21,.46,3.32,.68,.33,.06,.51,.18,.58,.56,.19,1.11,.44,2.21,.68,3.31,.03,.11,.14,.52,.28,.33,.05-.08,.32-1.37,.48-2.05,.12-.53,.26-1.06,.34-1.6,.05-.38,.24-.49,.58-.56,1.09-.21,2.17-.46,3.25-.69,.11-.02,.46-.11,.46-.2,0-.07-.57-.17-.79-.22-.96-.21-1.91-.41-2.87-.6-.36-.07-.57-.2-.65-.63-.21-1.11-.49-2.2-.74-3.3-.02-.1-.05-.22-.09-.31-.03-.04-.11-.07-.16,0"/>
      <path class="e" d="M8.18,32.71v-.09h-.14c.05,.09,0,.04,.14,.09Z"/>
      <path class="e" d="M9.19,32.57c-.14-.09-.37-.09-.64-.09-.05,.05,0,.05-.14,.09,.14,.09,.46,0,.78,0Z"/>
      <path class="e" d="M10.48,32.48h.09v-.14h-1.01c-.09,.04-.14,.04-.28,.04v.18c.51,0,.97,.09,1.2-.09Z"/>
      <path class="e" d="M53.99,85.12c.19-.87,.46-1.75,.33-2.76-.09-1.01,.33-1.8,.33-2.72l.05-1.61c.09-.46,.05-1.34-.04-1.8-.14-.51,.09-1.11,.14-1.38,.09-.41-.09-.88-.13-1.15-.09-.46,.09-.97,.05-1.43,0-1.15-.04-1.93-.27-3-.23-.88,.05-1.66-.64-2.31-.04-.09-.04-.18-.04-.27l.04,.18c-.18-.92,.33-1.06,.79-1.56,.46-.69,1.06-1.24,1.57-1.93,.46-.46,.6-1.15,1.07-1.61,0-.04,0-.09-.05-.14-.42,.23-.74,.69-1.15,.97-1.02,.92-2.12,1.24-2.59,2.44-.28-.69-.13-1.06-.55-1.89-.23-.51-.36-1.25-.55-1.84-.14-.46,.05-.78-.23-1.06-.23-.28-.64-.42-.78-.79,.05-.56-.09-.92-.32-1.57-.14-.32,.19-.65,0-.92-.18-.37-.64-.37-.83-.79-4.31-3.31-8.75,.3-8.75,.3-.51,.18-1.02,.41-1.48,.73l-.42,.28c-.23,.18-.51,.32-.65,.5-.23,.18-.97,.87-1.02,.88-.02,.02-.04,.05-.05,.07h0c-.35,.27-.77,.61-1.24,1.03l-1.89,1.7-2.54,1.93c-.37,.18-1.11,.69-1.48,.92-.19,.09-1.06,.41-1.2,.5-.32,.18-.92,.27-.83,.09-1.15-2.44-1.04-6.27-2.15-7.7-.28-.37-.87-.37-1.61-.37-.18,.14-.41,.04-.65,.14-.45,.27-1.1,.7-1.62,1.13v-.17c-.74,.14-2.4,1.88-2.91,2.25-.55,.41-1.06,.73-1.62,1.15-.42,.28-.69,.83-1.02,1.15-.55,.55-1.25,.96-1.8,1.56-.87-1.94-2.61-4.71-4.22-6.51-.97-.83-.92-1.66-1.47-2.4-.14-.14-.32-.23-.46-.32l-.14-.46c-.41-.6-1.01-1.06-1.42-1.66-.14-.18-.18-.51-.37-.69-.51-.51-3.03-3.69-3.31-3.78-.32-.69-.73-1.29-1.24-2.17-.87-1.43-2.02-3.42-1.55-5.67,.84-4.01,1.35-5.48,4.99-7.04,.55-.23,.97-.6,1.71-.69v-.14c-3.04,.68-5.58,2.38-6.6,5.01-.28,.74-.37,1.29-.6,2.03-.37,1.15-.56,1.33-.61,2.76l.09,1.48c1.23,5.12,4.12,9.04,5.86,13.74,.69,1.89,1.46,5.21,1.23,7.1-.05,.37,.18,.83,0,1.15-.33,3.22-.42,4.01-1.86,8.15-.09,.32-.33,1.71-.56,1.75-.33,.88-.28,1.29-.19,1.84,.05,0,.09,.78,.32,1.11,.23,.46,.74,.65,1.1,.79,.14-.05,.28,.28,.46,.23,.37,.09,.74,.42,1.06,.56,.28,.09,.65,0,.88,.14l.92,.23c.14-.05,.46,.09,.69-.05,.09-.14,0-.04,0-.23,.18-.09,.37-.18,.55-.23,.05-.09-.04-.28,.05-.32,.23-.14,.41,.14,.65,0,.18-.28,.42-.51,.6-.78,1.06-.69,1.38-1.06,2.03-2.16h.37v-.32c.6-.46,2.03-2.35,1.71-3.18,.14-.05,.18-.05,.42-.69,.46-.97,.15-2.99-.08-5.02-.04-.41-.04-.88-.32-1.43,0-.42,.65-1.84,.79-2.03,.83-.87,1.85-1.75,2.82-2.48,.65-.46,2.36-2.53,3.05-2.99v-.17c.43-.2,.9-.54,1.29-.84,.28-.18,.64-.18,.88-.46,.51,0,.69,.19,1.01,.51,.09,.51,.28,.69,.32,1.15,.09,.65,.04,1.06,.04,1.84,0,2.72,.31,3.78,.31,3.83,0,.41,.18,.78,.18,1.15,.46,.23,.69,.78,1.2,.97,.23,.14,1.11,.14,1.24,.1,.23-.14,.41-.28,.69-.37,.09-.05,.83-.32,.97-.5,.09,0,.09-.18,.97-.92,.32-.23,1.11-1.01,1.99-1.89,.19-.18,.37-.37,.69-.55-.05-.14,.09-.23,.19-.37,.69-.69,1.29-1.29,1.62-1.7,0,0,.92-.74,1.62-1.42,.14-.09,.28-.28,.37-.37,0,0,0-.01,0-.02h0c.42-.36,1.11-.99,1.34-1.13,.37-.23,.88-.46,1.11-.55h.32c.09,.78-.51,1.24-.83,1.79-.51,.74-1.9,3.68-1.58,4.88,.27,.97,.55,1.75,1.15,2.44,.32,.41,.87,.42,1.38,.65,2.12,.74,3.78-.13,5.21-1.09,.32-.18,.65-.23,.92-.46,.46-.41,.88-.88,1.34-1.29,0-.46-.04-.92,.14-1.2,.19-.32,.46-.18,.88-.14,.64,1.24,.96,2.08,1.6,3.09,.09,.09,.09,.23,.19,.32,.32,1.06-.98,1.98-1.44,2.76-.74,1.1-1.71,2.53-2.45,3.59-.23,.32-.37,.64-.51,1.01-1.11,1.66-2.5,4-3.47,6.44-.23,.23-.28,.64-.41,1.01-.37,.96-.6,1.89-.93,3.04-.42,1.57-.98,4.97-.29,6.82,.23,.69,.92,1.2,1.28,1.75,.14,.23,.23,.55,.41,.69,.23,.23,1.89,.6,2.53,.42,.55-.18,1.06-.09,1.71-.32,1.2-.41,2.31-1.42,3-2.3,.14-.19,.51-.19,.64-.32l.14-.69c.09-.14,.37-.18,.46-.32,.42-.6,.6-1.24,1.02-1.84,.09-.09,.23-.18,.32-.23v-.55l.6-2.02Zm-12.52-19.54c-.51,.18-1,.27-1.25,.1-.12-.05-.19-.1-.26-.15-.06-.05-.12-.11-.2-.17-.04-.03-.07-.07-.1-.12-.22-.32-.19-.9-.03-1.63,.14-.6,.74-1.52,1.02-1.89,.46-.74,1.16-1.8,1.57-2.53,.09-.18,.41-.18,.55-.32,.14-.18,.69-1.29,.69-1.38,2.55-.83,3.2-.31,3.31,.24-.08,.86-.79,7.36-5.3,7.85Zm9.33,22.98c-.69,.96-1.06,1.42-1.67,2.11-.23,.46-.51,.37-.88,.78-.6,.6-2.95,1.24-4.56,1.05-.51-.56-1.24-1.16-1.56-1.94-.87-2.26,.06-6.36,.8-8.2,.32-.78,.37-1.7,.74-2.35,.6-1.56,1.53-3.41,2.46-4.92,.14-.28,.55-.92,1.06-1.7l.05-.23c.88-1.38,2.03-2.62,3-3.73l.32-.37c.23-.41,1.25-1.28,1.38-1.06l.18,.32,.14,.51c.28,.46,.04,1.11,.13,1.47,.18,.65,.27,1.66,.45,2.4v1.01c.09,.28,.23,1.06,.32,1.34-.04,.18,.09,1.29,.09,1.52,.14,.74,.27,1.66,.13,2.26-.14,.69-.1,1.84-.1,2.39,0,.32,0,.6-.05,.92-.61,2.99-1.07,3.5-1.35,4.1v.41c-.23,.51-.83,1.52-1.11,1.89Z"/>
      <path class="e" d="M109.77,57.29c-.67,.84-1.12,1.17-2.14,2.05-1,.82-2.65,2.22-3.59,3-.55,.55-.74,.97-1.57,.87-.37-.46-1.33-.7-1.29-1.43-.46-.23-.74-.65-1.15-.92,.14-.18,.18-.32,.23-.55,0-.05-.28-.14-.28-.18-.09-.41,.19-.69,.05-1.01-.09-.18-.37-.23-.41-.51-.5-2.63-2.8-4.98-6.44-4.35h-.88c-1.01,.27-1.8,1.05-2.63,1.74l-.92,.55c-.65,.71-1.08,1.51-1.32,2.32-.63,.37-2.31,1.83-2.66,2.01-1.2,.83-1.76,1.56-2.91,2.34-.23,.18-.6,.55-.92,.69-1.11,.36-2.49-.97-2.95-1.34-.64-.6-1.29-1.25-1.56-2.21,0-.14,.05-.28,.05-.46-.05,0-.09-.05-.14-.05,0-.46-.14-.46-.18-.97l-.14-.14c-.09-.41,.09-.92-.04-1.47-.05-.09-.18-.14-.14-.37,0-.09,.14,0,.14-.09-.18-1.2-.87-2.44-1.33-3.83-.97-.46-1.61-.33-2.4,.55h-.18l-.23,.37c-.28,.32-.51,.32-.79,.6-.74,.74-.83,.92-1.52,1.98-1.11,1.61-1.81,3.45-2.55,5.52-.23,.65-.6,1.43-.74,2.21h-.23c0-.74-.23-1.25-.41-1.8-.55-2.07-1.14-3.78-2.48-4.48-1.75-.93-2.86,.59-3.78,1.37-.32,.28-.65,.6-.83,.97h-.05s0,.05,.05,.09c.6-.23,.69-.6,1.11-.92,.69-.55,1.75-1.47,2.86-1.24,.41,.09,.74,.23,1.15,.74,.92,1.15,1.01,2.81,1.6,4.89,.14,.51-.23,.78-.28,1.11-.23,.87,.13,1.8,.78,2.35,.78,.05,1.39-2.48,1.71-3.31,.32-.78,.65-1.84,.97-2.67,.23-.55,.19-1.06,.46-1.52,1.25-2.02,1.85-3.27,3.33-4.18,.78,.09,.6,.42,.78,1.2,.32,1.2,.18,1.43,.5,2.81,.04,.55-.05,1.06,.23,1.52l.04,.14c.04,1.84,.41,2.49,.96,3.74,.09,.28,.32,.28,.41,.51h.23c-.05,.14,0,.14-.09,.19,.18,.41,.37,.23,.69,.37,.23,.09,.51,.32,.74,.37,.6,.14,1.71-.32,2.4-.36v-.18c1.38-.64,2.49-1.38,3.74-2.11,.42-.27,.65-.74,1.2-.83,.09-.74,1.34-1.56,1.76-2.07,.11-.21,.92-1.02,1.52-1.5-.24,1.28,0,2.58,.64,3.68,.14,.05,.37,.14,.46,.28,.32,.32,.74,.74,1.1,1.06l.6,.28c.55,.51,1.56,2.08,2.76,1.57,.28,0,.51-.18,.74-.41,.46-.46,.51-2.07,.93-2.95,.69-1.47,1.07-3.32,1.44-5.48t.09,.05c.05,.09,0,0,.14,.14,.64,2.86,1.23,6.92,2.56,7.98,.78,.65,2.3,.7,3.91,.42,.51-.09,1.2-.59,1.52-1.06,0-.18,.05-.37,.09-.55,.23-.37,1.25-2.58,1.62-2.81,.55-.6,1.11-1.24,2.54-2.67l-.02-.02c.2-.15,.4-.32,.62-.53,.37-.37,.51-.64,.92-.87-.14-.23,0-.09-.23-.18Zm-16.23,5.3c-.6-.05-1.06-.09-1.75-.23-.37-.6-.78-1.29-.78-2.12,0-.78,.74-1.47,1.02-1.84,.88-1.15,1.94-2.25,3.83-1.46q.05,.18,.04,.37c-.09,0-.14,0-.23-.05-.56,1.84-1.44,3.64-2.13,5.34Z"/>
      <path class="e" d="M112.45,54.48q-.09,.14-.14,.32l.09-.05c.18-.14,.09-.09,.05-.28Z"/>
      <path class="e" d="M111.89,54.94q-.05,.14-.05,.32l.09,.05c0-.14,.09-.14,.14-.14-.09-.23,.05-.09-.18-.23Z"/>
      <path class="e" d="M112.63,54.12v.23h.23s.05-.04,.09-.04v-.23l-.32,.04Z"/>
      <path class="e" d="M111.15,55.77c-.19,.28-.51,.74-.79,.92v.14h.09c.19-.28,.55-.73,.88-.92-.14-.19,0-.05-.18-.14Z"/>
      <path class="e" d="M121.71,71.09c-.04-.69,.37-1.42,.52-2.12,.09-.41,.18-.41,.32-.83,.19-.6-.09-1.52,.33-1.8,0-.27,.14-.69,.14-1.01,0-.6,0-1.15,.1-1.94,.74-.27,2.86,.19,3.69-.36,.23,0,.51-.1,.74-.09-.41-.42-1.56-.79-2.25-.97-.74-.19-1.29-.28-1.98-.47-.04-1.43,0-2.67,0-3.87,0-.74-.08-1.7-.18-2.3-.18-.5,.1-1.61-.04-2.12,.04-.18,.09-2.03-.18-2.76-.1-.09-.18-.97-.23-1.02,0-.14,.04-.28,.05-.41l-.28-.23c-.13-.28,.19-.28,.09-.6-.14-.6-.64-1.06-.82-1.57,0-.27-.23-.51-.27-.78l-.28-.46c-.09,0-2.12,0-2.35,.18-.23,.14-.51,.46-.55,.74-.23,.42,.18,.79,.04,1.25-.14,.32-.87,1.24-1.11,1.56-.19,.19-.51,.32-.69,.55-.5,.5-.83,1.33-1.34,1.88-.1,.09-.28,.1-.38,.23-.55,.69-1.15,1.29-1.71,1.98,0,.09,.04,.14,.04,.23,.7-.51,1.21-1.19,1.71-1.75,1.43-1.42,3.37-2.66,4.39-4.46h.14c.55,1.15-.24,3.45-.47,4.42-.28,1.15-.46,2.07-.69,2.99-.42,1.66-.65,2.53-.93,3.77-.14,.55-.42,1.15-.46,1.89-1.66,.09-4.06,.96-5.03,.22h-.18c-.14,.05-.23,.18-.23,.32,1.43,.93,2.85,1.85,4.97,2.04l.05,.09c-.05,.83-.15,2.31,.04,2.91,.04,.14,.18,1.24,.14,1.52,.04,.32,.23,.92,.23,1.15,0,.88,.64,1.71,.5,1.89,.09,.14,.04,.09,.14,.19l.5,.92c.55,.83,3.59,2.95,4.79,2.13,.14-.46-1.01-2.35-1.01-3.14Z"/>
      <path class="e" d="M110.23,56.92c-.05,.09-.14,.05-.19,.23l.09,.09c.14-.14,.18-.14,.23-.18l-.05-.09-.09-.05Z"/>
      <path class="e" d="M166.87,70.19c.18-.55-.05-.64-.04-.88,.19-.6-.46-1.01-.32-1.29-.23-.41-.13-2.12-.13-3.04,.19-.14,.05-2.07,.05-2.12-.09-.18,.05-.14,.09-.23,0-.19-.23-.14-.14-.41,.05-.28,.19-.69-.18-2.44-.05,0-.09-.05-.09-.05-.14-.23,.14-.6-.04-.88,0-.14-.28-.32-.37-.41-.09-.28-.04-.46-.09-.69-.09-.05-.32-.23-.37-.32,0-.09,0-.18-.04-.28-.09-.05-.32-.05-.41-.09,0-.09,0-.28-.14-.32-.46-.19-1.84-.19-2.44,0-.28,.09-.78,.27-1.15,.32-.88,0-1.43,.23-1.57,.23-.83-.05-1.7-.6-2.12-1.11-.14-.09,.32-.74,.37-.92,.28-.46,.88-2.07,.6-2.35,.05-.46-.04-.55-.23-.69-1.25,.46-2.17,1.75-2.17,3.22,.05,.6,.09,1.43,.23,1.61,.04,.28-.88,1.66-1.11,1.84-.09,.09-.17,.15-.25,.21,0-.08,0-.14-.03-.16-.79,.6-1.94,1.75-2.54,2.34-.6,.69-1.2,1.01-1.89,1.52-.09,.09-.23,.37-.46,.51-.28,0-.6,.23-.83,.27-.14,0-.28,.32-.51,.51l-.83,.37c-.97,.09-.97-.69-1.24-1.39-.5-1.29-.13-2.99,.33-4.47,.23-.83,.1-2.58-.04-2.9-.04-1.66-3.22-.93-3.87-.33-.37,.32-1.06,1.52-1.3,2.07-.09,.55-.14,1.1-.19,1.61-.6,1.66-1.11,3.5-1.9,5.02-.6,1.15-2.13,2.62-2.77,2.62-.69-.46-.5-2.54-.68-3.04-.14-.09-.05-.05-.23,0-.14-.55,.14-.65,.05-.92-.05-.18-.09-.09-.05-.32-.05-.05-.14-.05-.23-.09,.05-.18,.05-.41,.14-.6-.14-.65-.36-2.12-.27-2.4-.18-.28-.05-.51-.28-.6-.05-.32-.09-.6-.23-.87-.18-.55-.27-.56-.69-1.06l-.37-.32c-.5-1.43-2.34-2.17-4.46-1.9-.74,.09-.55,.55-.28,1.11,.27,1.61,.36,3.64,.68,5.16,.23,.69,.04,1.15,.23,1.8,.14,.55,.46,1.43,.69,1.98,.18,.28,.51,.65,.64,.92,.5,1.2,.69,1.75,1.61,2.58,1.24,1.06,1.43,1.43,3.54,1.3,.32,0,.51,.14,.92,0,.74-.27,1.85-1.01,2.17-1.84-.05-.19-.09-.37-.04-.55,.09-.18,.23-.32,.28-.74l-.09-.14c.09,0,.23-.05,.32-.09,.05-.05,.56-1.01,.56-1.01,.05-.28-.23-.23-.14-.51,0-.14,.28-.14,.32-.23,.09-.18-.14-.46,.14-.69,.14-.09,.37,0,.46-.18,.14-.23,.09-.41,.19-.6,.6-.88,1.16-2.07,1.8-2.95,.37-.51,.6-1.34,1.07-1.7v-.09s.09,0,.14,.05c-.14,2.4,0,3.23,.54,4.93-.05,.23,0,.46,.04,.74,0,.09,.92,1.34,.96,1.38,.09,.18,.18,.14,.32,.32,.51,.05,.92,.28,1.38,.1,.55-.23,1.85-1.19,2.22-1.51,.46-.18,.83-.78,1.29-1.1,.28-.27,.65-.41,1.02-.78,.37-.32,.83-.92,1.29-1.38,.28-.27,.51-.27,.74-.64,.19-.18,.28-.55,.33-.69-.02-.04,0-.13,0-.23,.76-.29,1.41-.94,1.7-1.56,.51,0,.78,.51,1.2,.6,.14,0,.87,.19,1.01,.23,.37,.09,.69-.09,.97,.05,.41,.42,.14,.83,.32,1.15v.65c0,1.01-.05,2.58,.04,3.46,.55,2.95,1.19,4.15,2.61,5.95v.14c.18-.04,.37-.09,.46-.04,.19,.14,.23,.51,.46,.6,.32,.09,.55,.05,.88,.14l.51,.37c.37,.14,1.06-.04,1.34,.23,.46-.18,.18-.19,.32-.6,0-.09,.23-.28,.28-.41Zm-9.73-14.68s-.09,0-.09-.04c.05-.37-.04-.83,.1-1.06,.05-.32,.09-.37,.14-.55,.09,0,.18,0,.32-.05,.05,.14,.09,.23,.14,.28-.05,.42-.28,.97-.56,1.29-.05,.09-.05,.04-.05,.14Z"/>
      <path class="e" d="M183.1,66.27c-.18-.05-.51-.05-.6-.23-.51,.18-.6,.78-1.11,.87-1.84,.46-3.82-.29-4.51-1.49-.23-.37-.23-.88-.46-1.29,.09-.64,1.02-1.24,1.34-1.61,.41-.51,.51-1.1,.88-1.7,.19-.46,.28-.65,.23-.83l-.04-.41c.14-.97,.88-1.15,1.39-1.75,.37-.51,.14-1.15,.19-1.89-.14,.04-.09,.04-.23,.14,0-.18,0-.14,.05-.37-.09-.05-.23-.05-.28-.14-.14-.23-.09-.55-.18-.74-.14-.18-.23-.05-.41-.19,.05-.09,.05-.14,.05-.18-.32-.41-.88-.42-1.38-.65-.28-.09-.6-.51-.83-.6-.23-.14-.51-.05-.74-.05-.05-.05-.05-.09-.09-.18-.37-.14-1.71,.5-1.94,.64-.28,.14-.28,.46-.46,.55-.79,.97-1.57,1.89-2.08,3.17-.18,.46-.05,.69-.14,1.06-.05,.23-.23,.78-.19,1.06-.05,.69-.14,1.43-.19,2.16,.14,.46,.18,.97,.18,1.47,.14,.92,.41,1.57,.73,2.03,.69,.97,1.47,1.8,2.44,2.4,.51,.42,1.38,.6,1.98,.79,1.15,.42,2.03-.18,2.76,.15,.42-.09,.65-.14,.78-.23,.42-.28,.51-.37,.92-.46,.09,0,.23,0,.37,.05,.51-.32,1.11-.74,1.61-.96-.05-.23,0-.41-.04-.6Zm-5.66-5.08c-.23,.51-.83,.83-.97,1.33h-.32c-.14-.14-.09-.37-.14-.46,.05-.23,.09-.28,.23-1.24l.19-.92c-.09-.32,.28-.78,.19-1.24,.09-.41,.09-.6,.28-.74,.19-.28,.28-.32,.42-.46,.37-.32,.78,.09,.92,.51-.05,.92-.33,2.35-.79,3.22Z"/>
    </g>
    <g>
      <path class="e" d="M182.14,90.45h0s-.05-.05-.07-.07c-.08-.09-.09-.27-.09-.32-.03-.12-.01-.31,.02-.39,0-.15-.05-1.63-.09-2.83-.03-.94-.06-1.76-.06-1.86,0-.22-.01-1.27-.02-1.42,0-.12-.02-1.51,0-1.63,0-.04,0-.37,0-.66,0-.47,0-.79,0-.87,0-.07,0-.32,0-.54,0-.3,0-.49,0-.54,.01-.09,0-.18-.04-.32-.05-.15,.23-.45,.4-.62,.06-.07,.3-.02,.5,.03,.14,.04,.27,.06,.36,.07,.08,.01,.14,.02,.2,.04,.02,0,.05,.02,.07,.03,.12,.11,.07,.38,.04,.45,0,.04-.03,.33-.04,.58-.02,.34-.04,.74-.06,.9-.02,.16-.01,.6,0,.99,.02,.51,.02,.73,0,.79-.03,.13,.04,1.97,.09,3.18,.01,.05,.07,.38,0,.7-.06,.3,.13,2.84,.15,3.13,.02,.19,.07,.65,.09,.77,.02,.12,0,.23-.1,.33-.17,.2-.52,.31-.6,.3-.02,0-.05,0-.09,0-.09,.01-.21,.03-.31,0-.09-.02-.28-.16-.37-.24"/>
      <path class="e" d="M160.45,90.37c-.08-.13-.06-.33-.03-.56v-.04c.03-.22,.05-1.01,.05-1.08,0-.02,0-.11,0-.24,0-.33,.02-.94,0-1.12-.02-.24,.06-1.02,.08-1.18v-.02c.02-.15,.05-.4-.01-.76-.04-.26-.04-.63-.03-.92,0-.17,0-.31,0-.4-.01-.22,0-1.21,0-1.75,0-.15,0-.26,0-.32,0-.06,0-.17-.01-.3-.02-.38-.05-1.01,0-1.6,.06-.66,.03-.98,0-1.17,0-.03,0-.06,0-.09-.02-.21,.32-.31,.42-.34,.26-.19,.78,0,.8,.01,.03,.02,.06,.04,.09,.08,.07,.11,.14,.31,.11,.47-.03,.17-.06,2.23-.01,2.4h0c.06,.09,.05,.16,.04,.23,0,.06-.11,1.01-.11,1.02l-.02,.41c.46-.37,2.13-1.71,2.2-1.78,0,0,.53-.45,.62-.47,.04-.01,.29-.2,.39-.29,.09-.07,1.05-.82,1.21-.93,.04-.03,.14-.11,.27-.2,.45-.34,.87-.65,1-.69,.06-.02,.15-.03,.21,.05,0,.01,.01,.02,.02,.04,.01,.02,.02,.05,.06,.06,.06,.02,.11,.06,.15,.12,.03,.05,.05,.09,.06,.12,.02,.02,.04,.04,.05,.07,.15,.22,.16,.53,.11,.65-.02,.05-.04,.07-.08,.08-.06,.02-.53,.36-.67,.48-.13,.12-.75,.61-.86,.7-.05,.04-.14,.1-.27,.19-.2,.14-.45,.31-.57,.41-.1,.09-.5,.4-.88,.69-.33,.26-.64,.5-.69,.54-.03,.03-.11,.09-.21,.17-.28,.22-.76,.59-1.12,.95-.27,.26-.43,.36-.51,.41,.02,.02,.05,.05,.08,.09,.07,.09,.21,.24,.26,.26,.1,.04,.22,.13,.23,.13,.03,.02,.08,.07,.15,.14,.16,.15,.43,.41,.58,.51,.14,.09,.32,.27,.47,.41,.08,.08,.15,.15,.18,.17,.1,.07,1.33,1.19,1.45,1.31,.05,.05,.22,.22,.43,.43,.32,.32,.72,.73,.88,.9,.1,.11,.18,.21,.25,.3,.11,.15,.2,.26,.31,.29,.13,.04,.19,.14,.16,.27-.03,.1-.11,.21-.21,.26-.09,.05-.15,.16-.21,.26-.04,.08-.08,.14-.13,.18-.16,.11-.62-.3-.67-.36-.05-.06-.24-.21-.43-.38-.28-.24-.57-.48-.64-.57-.05-.06-.25-.24-.47-.42-.28-.24-.61-.52-.75-.68-.15-.17-.34-.34-.5-.48-.11-.1-.22-.19-.3-.27-.19-.2-1.21-1.1-1.52-1.35,0,.6,.05,3.33,.05,3.49,0,.03,0,.08,0,.14,.03,.6,.02,.72-.02,.77l-.02,.02h-.02s-.02,.03-.03,.04c-.08,.11-.25,.33-.57,.22-.17-.06-.34-.07-.48-.08-.16-.01-.28-.02-.33-.1"/>
      <path class="e" d="M179.99,84.39s-.08-.51-.09-.64c-.01-.13-.13-.76-.18-.91-.02-.05-.06-.2-.1-.36-.06-.24-.13-.49-.17-.57-.01-.03-.03-.06-.04-.1-.07-.16-.18-.43-.44-.8-.06-.09-.12-.18-.19-.28-.28-.41-.6-.88-.86-1.11l-.02-.02c-.31-.27-.47-.42-1.21-.75,0,0-.93-.38-1.65-.54,0,0-.49-.08-.73-.14-.2-.04-.48,0-.66,.02-.05,0-.09,.01-.12,.02h-.01s-.4,.14-.53,.18c-.05,.02-.08,.02-.11,.02-.05,0-.1,.01-.21,.06-.04,.02-.1,.04-.17,.07-.24,.09-.61,.23-.81,.37-.31,.21-.56,.37-.61,.4-.02,0-.05,.03-.09,.05-.06,.04-.24,.13-.28,.13-.09-.01-.22,.08-.39,.24l-.02,.02s-.11,.13-.24,.29c-.1,.13-.22,.27-.28,.33-.04,.05-.07,.08-.1,.11-.04,.05-.05,.07-.09,.08-.09,.03-.17,.08-.19,.21,0,.05-.08,.17-.19,.29-.04,.05-.12,.16-.21,.27-.05,.07-.1,.14-.15,.2,0,.01-.2,.35-.28,.62-.04,.13-.07,.19-.09,.23-.02,.05-.03,.07-.02,.11,0,.02-.05,.09-.07,.13-.01,.02-.02,.04-.03,.05-.04,.06-.16,.29-.21,.7-.02,.04-.07,.14-.06,.23,0,.03,0,.12-.02,.21-.02,.16-.04,.36-.02,.49,0,.05,.01,.11,.02,.18,.03,.29,.06,.51,.11,.6,0,.06,.03,.3,.09,.42,.03,.07,.06,.09,.08,.11,.01,.01,.02,.01,.03,.05,.01,.04,.03,.12,.04,.21,.02,.13,.05,.3,.09,.41,.04,.13,.09,.19,.12,.23,.02,.02,.02,.03,.03,.04v.04c.05,.12,.14,.42,.15,.52,.01,.08,.05,.13,.08,.16,.02,.02,.03,.03,.04,.05,.04,.11,.1,.27,.19,.38,.07,.09,.3,.33,.52,.52,.1,.09,.18,.16,.26,.21,.27,.19,.79,.55,.91,.62,.11,.07,1.03,.57,1.37,.7,.13,.05,.25,.1,.37,.16,.18,.08,.36,.16,.51,.2l.08,.02c.28,.08,.8,.22,1.04,.23,.07,0,.15,.02,.25,.04,.26,.05,.61,.12,1.04,.06,.37-.05,.51-.11,.59-.14,.04-.02,.06-.02,.08-.02h.02c.09,.02,.13,.01,.22-.08,.04-.04,.11-.06,.18-.08,.05-.01,.09-.03,.14-.05,.11-.05,.44-.23,.6-.32l.08-.05s.03-.02,.05-.02c0,0,.02,0,.05-.02,.06-.02,.12-.09,.18-.16,.04-.04,.09-.1,.11-.11,.07,0,.14-.06,.25-.17,.04-.03,.07-.07,.09-.08,.05-.03,.2-.17,.41-.38,.07-.07,.13-.13,.17-.16,.12-.11,.31-.34,.36-.51,0,0,.02-.08,.09-.15,.06-.07,.06-.12,.06-.16,0-.02,0-.03,0-.03,.06-.07,.22-.46,.25-.64,.02-.1,.11-.3,.18-.48,.05-.13,.1-.24,.13-.32,.06-.18,.19-.67,.23-.83,.09-.43,.09-.82,0-1.15Zm-.86,.88c-.05,.09-.04,.16-.04,.21,0,.02,0,.04,0,.05,0,.01-.01,.04-.02,.07-.02,.07-.06,.17-.07,.3,0,.13-.19,.46-.29,.64-.03,.04-.05,.08-.06,.12-.03,.06-.08,.17-.12,.27-.06,.15-.15,.35-.19,.38-.08,.08-.2,.23-.28,.48-.07,.23-.57,.66-.76,.83-.24,.21-.5,.41-.57,.46-.02,.01-.04,.03-.07,.06-.1,.08-.28,.23-.39,.23-.1,0-.17,.04-.25,.07-.07,.04-.13,.07-.22,.07-.18,0-.57,0-.64,0-.14-.05-.53-.14-.73-.16-.21-.01-.69-.1-.84-.15-.06-.02-.13-.04-.21-.06-.11-.03-.22-.06-.25-.08-.02,0-.04-.02-.06-.03-.05-.03-.12-.06-.21-.09-.02,0-.05-.01-.08-.02-.1-.03-.24-.07-.34-.14-.09-.06-.2-.1-.29-.13-.04-.01-.09-.03-.1-.04l-.02-.02s-.09-.09-.2-.13c-.08-.02-.17-.07-.36-.21-.09-.07-.16-.1-.24-.13-.09-.04-.18-.08-.31-.18-.11-.09-.26-.21-.41-.33-.19-.15-.37-.29-.44-.36-.09-.08-.2-.32-.27-.49-.02-.05-.04-.09-.06-.12-.05-.1-.04-.12-.02-.15,0-.01,.02-.03,.03-.06,.02-.08-.06-.18-.15-.3-.04-.04-.07-.09-.09-.12-.06-.1-.29-.75-.33-.89-.01-.03-.02-.07-.03-.11-.02-.09-.05-.21-.11-.36-.07-.15-.1-.41-.1-.74,0-.24,.12-.58,.16-.66,.03-.07,.08-.27,.13-.49l.02-.1c.03-.13,.09-.28,.13-.32,.05-.05,.09-.11,.14-.19l.09-.14c.08-.13,.21-.33,.28-.43,.08-.11,.23-.31,.23-.32,.08-.12,.37-.45,.5-.58,.08-.08,.21-.22,.26-.22,.02,0,.03,0,.05,0,.04,0,.08,0,.14-.02,.02-.01,.05-.03,.08-.06,.06-.05,.14-.11,.2-.11,.08,0,.15-.03,.27-.08,.07-.03,.14-.06,.24-.09,.29-.1,.59-.22,.68-.26h.02c.14-.07,.57-.24,.78-.27,.11-.02,.16-.04,.21-.06,.05-.02,.1-.04,.24-.06,.1-.01,.2-.03,.32-.05,.22-.04,.44-.07,.58-.05,.12,.02,.28,.03,.41,.04,.1,0,.2,0,.26,.02,.06,.01,.11,.04,.15,.07,.04,.03,.09,.05,.13,.04,.01,0,.08,0,.21,.08,.04,.02,.09,.06,.14,.1,.08,.06,.17,.13,.27,.17,.09,.04,.41,.3,.66,.52,.14,.12,.27,.23,.38,.31,.02,.01,.04,.03,.06,.05,.28,.25,.54,.7,.56,.74,0,0,0,.03,.01,.05,.02,.08,.05,.22,.22,.39,.2,.2,.38,.5,.38,.51,.03,.04,.17,.41,.17,.51,0,.11,.06,.23,.1,.31v.02s.03,.04,.05,.06c.04,.06,.08,.12,.09,.25,.02,.17,.11,.66,.13,.77-.05,.09-.03,.15-.01,.2,0,.03,.02,.06,.02,.09,0,.03,.01,.08,.02,.13,.02,.13,.07,.4,.03,.47Z"/>
    </g>
  </g>
</svg>