<?xml version="1.0" encoding="UTF-8"?>
<svg id="b" data-name="圖層 2" xmlns="http://www.w3.org/2000/svg" width="37.31mm" height="18.14mm" viewBox="0 0 105.77 51.43">
  <defs>
    <style>
      .d {
        fill: #b4cdbd;
      }

      .e {
        fill: #231815;
      }
    </style>
  </defs>
  <g id="c" data-name="图层 1">
    <g>
      <g>
        <path class="d" d="M70.96,12.83c-.02,.29-.04,.58-.08,.87-.02,.14-.04,.29-.07,.43l-.04,.21-.05,.23c-.26,1.27-.34,2.54-.32,3.81,.02,1.27,.15,2.53,.42,3.78,.27,1.24,.65,2.48,1.28,3.63,.32,.57,.7,1.13,1.19,1.62,.48,.48,1.09,.89,1.78,1.11h0c.19,.06,.41,.01,.56-.14,.93-.94,1.82-1.94,2.61-3.03,.79-1.08,1.49-2.26,1.96-3.54,.48-1.28,.72-2.65,.71-4.01,0-.68-.07-1.36-.19-2.02-.12-.66-.28-1.32-.49-1.96-.21-.64-.45-1.26-.72-1.87-.13-.31-.28-.6-.42-.89-.14-.3-.28-.6-.44-.89-.64-1.18-1.45-2.24-2.33-3.23-.88-.98-1.83-1.89-2.83-2.74-1-.85-2.04-1.65-3.13-2.38,1.03,.8,2.01,1.67,2.95,2.57,.94,.9,1.83,1.85,2.65,2.86,.81,1.01,1.55,2.07,2.12,3.22,.14,.28,.26,.58,.39,.88,.13,.3,.27,.6,.38,.9,.24,.6,.45,1.2,.63,1.82,.18,.61,.31,1.24,.41,1.86,.1,.63,.14,1.26,.13,1.88-.02,1.26-.28,2.49-.74,3.66-.46,1.17-1.12,2.25-1.89,3.27-.69,.92-1.48,1.78-2.29,2.62-.37-.17-.71-.41-1.01-.72-.39-.39-.71-.86-.99-1.36-.55-1.02-.9-2.16-1.15-3.33-.24-1.17-.37-2.37-.4-3.57-.03-1.2,.05-2.4,.28-3.55l.05-.22,.05-.24c.03-.16,.06-.32,.08-.49,.05-.32,.07-.65,.09-.98,.02-.65-.01-1.3-.09-1.93-.16-1.27-.49-2.5-.86-3.69-.38-1.19-.82-2.36-1.26-3.51-.16-.4-.31-.8-.47-1.21,.39,.49,.77,1,1.13,1.52,.82,1.17,1.52,2.42,2.13,3.72,.6,1.3,1.08,2.66,1.44,4.06,.17,.7,.31,1.41,.41,2.12,.1,.71,.16,1.44,.14,2.16,.14-1.45,0-2.91-.26-4.35-.26-1.44-.7-2.84-1.24-4.2-.55-1.36-1.23-2.66-2.02-3.9-.79-1.24-1.68-2.42-2.65-3.51-.11-.12-.28-.18-.45-.12-.22,.07-.35,.31-.28,.54h0c.38,1.2,.8,2.36,1.22,3.52,.42,1.16,.83,2.31,1.18,3.47,.35,1.16,.63,2.34,.76,3.52,.07,.59,.1,1.18,.07,1.76Z"/>
        <path class="d" d="M103.12,24.88c-.03-.45-.14-.86-.3-1.25-.32-.77-.8-1.43-1.37-2-.57-.57-1.23-1.02-1.95-1.34-.72-.31-1.51-.47-2.28-.43,.76,.11,1.47,.38,2.1,.77,.63,.38,1.18,.89,1.65,1.44,.46,.56,.83,1.2,1.05,1.85,.11,.33,.17,.66,.16,.98,0,.02,0,.04,0,.06-.95-1.09-1.99-2.13-3.14-3.04l-.53-.4-.27-.2c-.09-.06-.18-.12-.28-.19l-.56-.37c-.19-.12-.38-.23-.58-.34-.38-.23-.79-.42-1.19-.62-.2-.09-.41-.17-.62-.26-.1-.04-.21-.09-.31-.12l-.32-.11c-1.69-.6-3.54-.79-5.31-.52-.22,.03-.44,.08-.66,.12-.22,.05-.43,.1-.65,.16-.42,.13-.84,.28-1.24,.46-.8,.36-1.57,.81-2.21,1.4,.74-.45,1.54-.77,2.35-1.01,.41-.12,.82-.21,1.23-.29,.21-.04,.42-.06,.62-.09,.21-.02,.42-.04,.62-.05,1.67-.09,3.33,.2,4.87,.81l.29,.11c.1,.04,.19,.08,.28,.13l.57,.26c.37,.2,.74,.37,1.09,.6,.72,.41,1.4,.91,2.07,1.42,.03,.02,.05,.04,.08,.06-.43-.18-.86-.34-1.31-.48-1.27-.39-2.58-.62-3.89-.77-1.32-.14-2.64-.18-3.97-.16-1.31,.03-3.27,.1-5.61,.62-.54,.15-1.07,.35-1.58,.59-.01,0-.03,.02-.04,.02,.37-.36,.74-.72,1.11-1.08l4.08-4.02c.79-.76,1.57-1.53,2.36-2.28,1,.29,2.08,.36,3.13,.15,.63-.12,1.25-.34,1.83-.64,.58-.3,1.11-.69,1.59-1.12,.48-.44,.91-.93,1.29-1.45,.38-.52,.71-1.08,1-1.65,.58-1.14,1-2.35,1.33-3.57,.01-.05,.02-.1,.02-.16,0-.32-.27-.57-.58-.57h0c-1.25,.02-2.51,.17-3.73,.5-1.22,.33-2.4,.84-3.44,1.57l-.39,.28c-.06,.05-.13,.09-.19,.14l-.18,.16c-.24,.21-.49,.4-.69,.65-.21,.23-.44,.45-.62,.71-.19,.25-.39,.49-.55,.76-.67,1.06-1.13,2.22-1.38,3.41,.49-1.12,1.08-2.17,1.84-3.08,.75-.92,1.65-1.68,2.65-2.27,1-.58,2.1-1,3.23-1.27,.88-.21,1.79-.33,2.7-.38-.1,.33-.2,.65-.31,.97-.19,.57-.42,1.12-.67,1.66-.5,1.08-1.14,2.08-1.93,2.93-.4,.42-.85,.8-1.34,1.12-.49,.32-1.02,.57-1.59,.75-.91,.3-1.89,.38-2.88,.29,.55-.52,1.09-1.05,1.65-1.56,.7-.64,1.4-1.28,2.13-1.89,.73-.61,1.46-1.22,2.29-1.72-.47,.12-.92,.33-1.35,.54-.43,.22-.86,.46-1.27,.71-.83,.51-1.61,1.07-2.39,1.66-1.53,1.18-2.97,2.48-4.35,3.82-.68,.68-1.36,1.37-2.01,2.07-.32,.36-.65,.71-.97,1.07l-.48,.54c-.16,.18-.31,.37-.47,.55-.62,.74-1.24,1.47-1.82,2.24-.12,.16-.24,.32-.36,.48-.36,.25-.7,.51-1.03,.79-.42,.36-.82,.76-1.2,1.16-.37,.42-.73,.84-1.05,1.29-.39,.54-.75,1.1-1.08,1.68-.29,.46-.58,.93-.84,1.4-.7,1.24-1.32,2.51-1.88,3.81-.28,.65-.55,1.3-.81,1.96-.13,.33-.25,.66-.37,1-.12,.33-.23,.66-.36,.97-.25,.62-.54,1.19-.97,1.6,0,0-.3,.27-.34,.34-.09,.13-.13,.27-.13,.43,.01,.16,.06,.3,.17,.43,.05,.06,.26,.28,.26,.28,.03,.03,1.42,.77,1.51,.8,.16,.05,.33,.05,.48,0,.32-.09,.54-.38,.63-.72l.15-.55,.13-.51,.16-.67s.59-3.32,1.49-6.37c.26-.89,.67-1.73,1.02-2.59,.49-.92,1.03-1.8,1.66-2.61,.31-.42,.65-.8,.99-1.18,.36-.37,.72-.73,1.11-1.06,.78-.66,1.63-1.23,2.54-1.66,.46-.22,.32-.22,1.41-.55s2.77-.49,3.41-.56c.64-.07,1.28-.13,1.93-.17,1.29-.09,2.58-.11,3.87-.06,1.29,.05,2.57,.19,3.84,.45,.7,.15,1.39,.34,2.07,.58,1.04,.89,2.02,1.86,2.96,2.88l.02,.02s.07,.07,.12,.09c.24,.14,.54,.06,.67-.18,.25-.44,.34-.93,.31-1.37Zm-31.28,15.53h0Zm1.8-4.93h0v0Z"/>
      </g>
      <g>
        <g>
          <path class="e" d="M9.21,37.08L2.38,27.68l6.64-8.82h3.19l-6.9,8.37,7.35,9.85h-3.44ZM.1,37.08V18.86H2.65v9.48l.03-.04-.03,8.78H.1Z"/>
          <path class="e" d="M20.91,37.57c-2.61,0-4.78-.94-6.47-2.78-1.7-1.86-2.56-4.14-2.56-6.79s.86-4.94,2.57-6.82c1.7-1.87,3.87-2.81,6.46-2.81s4.75,.95,6.44,2.81c1.7,1.88,2.56,4.17,2.56,6.81s-.85,4.92-2.54,6.79c-1.68,1.86-3.85,2.8-6.46,2.8Zm-.01-16.72c-1.93,0-3.48,.69-4.63,2.04-1.13,1.34-1.71,2.99-1.71,4.9s.61,3.62,1.82,5.07c1.22,1.47,2.75,2.22,4.54,2.22,1.92,0,3.48-.71,4.64-2.12,1.14-1.39,1.72-3.13,1.72-5.17s-.58-3.59-1.73-4.92c-1.16-1.34-2.72-2.03-4.65-2.03Z"/>
          <rect class="e" x="33.53" y="18.86" width="2.55" height="18.22"/>
          <path class="e" d="M53.69,37.08V18.86h4.68c4.19,0,6.23,1.8,6.23,5.52,0,1.89-.47,3.32-1.41,4.24-.94,.93-2.38,1.4-4.29,1.4h-2.66v7.06h-2.55Zm2.55-8.95h1.91c2.51,0,3.84-1.3,3.84-3.75s-1.36-3.62-3.93-3.62h-1.82v7.37Z"/>
          <polygon class="e" points="68.17 37.08 68.16 18.86 70.71 18.86 70.71 35.02 76.4 35.02 76.4 37.08 68.17 37.08"/>
          <path class="e" d="M85.42,37.57c-4.5,0-6.68-2.54-6.68-7.76v-10.96h2.55v10.24c0,4.26,1.4,6.42,4.15,6.42s4.15-2.16,4.15-6.42v-10.24h2.52v10.96c0,5.22-2.19,7.76-6.68,7.76Z"/>
          <path class="e" d="M99.88,37.57c-2.27,0-4.03-1.08-5.37-3.29l1.5-1.48c.31,.6,.78,1.17,1.39,1.68,.78,.65,1.6,.98,2.45,.98,1.01,0,1.82-.35,2.41-1.05,.58-.68,.87-1.51,.87-2.48,0-.72-.22-1.36-.66-1.9-.27-.34-1-.95-4.12-2.33-2.16-.96-3.21-2.27-3.21-4.01,0-1.5,.5-2.78,1.48-3.8,.98-1.02,2.22-1.53,3.7-1.53,1.97,0,3.57,.61,4.74,1.82l-1.09,1.62c-.82-.98-1.85-1.48-3.06-1.48-.87,0-1.61,.27-2.21,.8-.61,.54-.92,1.26-.92,2.16s1.02,1.96,3.1,3.13c2.03,1.14,2.69,1.51,2.94,1.63,1.31,.98,1.94,2.09,1.94,3.4,0,1.83-.53,3.33-1.57,4.46-1.04,1.12-2.49,1.68-4.32,1.68Z"/>
        </g>
        <g>
          <path class="e" d="M4.24,45.69h-.22c-.11-.45-.33-.83-.68-1.16-.35-.33-.75-.49-1.2-.49-.3,0-.57,.09-.8,.27-.23,.18-.34,.41-.34,.68,0,.37,.3,.73,.9,1.07l1.66,.95c.6,.41,.9,.85,.9,1.31s-.19,.86-.57,1.17c-.38,.31-.89,.47-1.52,.47-.29,0-.6-.05-.94-.15-.34-.1-.54-.15-.6-.15-.2,0-.31,.1-.31,.3h-.21l-.31-1.9H.2c.45,1.1,1.14,1.65,2.07,1.65,.38,0,.7-.11,.95-.34,.26-.23,.39-.48,.39-.77s-.13-.54-.38-.76c-.25-.22-.72-.51-1.39-.86-.67-.35-1.1-.64-1.28-.86-.18-.22-.27-.49-.27-.81,0-.46,.17-.84,.52-1.11,.34-.28,.77-.42,1.28-.42,.2,0,.65,.1,1.37,.31,.18,0,.3-.1,.35-.31h.21l.22,1.91Z"/>
          <path class="e" d="M7.36,49.73c.33,0,.56-.05,.68-.15,.12-.1,.18-.32,.18-.65v-2.08c0-.37-.14-.55-.43-.55-.09,0-.22,.01-.39,.04v-.11c.57-.17,1.05-.32,1.45-.47l.04,.03v3.15c0,.31,.05,.52,.16,.63,.11,.11,.33,.17,.66,.17v.11h-2.35v-.11Zm1.12-5.97c.3,0,.45,.14,.45,.41s-.15,.41-.45,.41-.45-.14-.45-.41,.15-.41,.45-.41Z"/>
          <path class="e" d="M13.01,46.81c0-.4-.14-.6-.43-.6-.11,0-.22,.01-.32,.04v-.13c.44-.11,.88-.23,1.3-.37l.07,.02v.71c.63-.5,1.17-.75,1.61-.75,.51,0,.83,.25,.97,.76,.49-.51,1.04-.76,1.68-.76,.72,0,1.09,.53,1.09,1.59v1.85c0,.38,.26,.56,.77,.56v.11h-2.17v-.11c.34-.04,.55-.11,.63-.21,.07-.1,.11-.25,.11-.46v-1.89c0-.66-.27-.98-.8-.98s-.93,.18-1.19,.55v2.25c0,.49,.27,.74,.8,.74v.11h-2.22v-.11c.51,0,.76-.22,.76-.66v-1.95c0-.62-.26-.94-.77-.94-.28,0-.56,.08-.83,.24-.27,.16-.41,.27-.41,.33v2.48c0,.32,.26,.49,.77,.49v.11h-2.21v-.11c.52,0,.78-.22,.78-.65v-2.26Z"/>
          <path class="e" d="M22.72,46.75c0-.35-.14-.53-.43-.53h-.31v-.11c.36-.1,.81-.25,1.35-.46l.05,.02v.65l.02,.02c.39-.46,.89-.69,1.51-.69,.46,0,.84,.18,1.16,.53,.32,.35,.47,.82,.47,1.4,0,.62-.19,1.15-.58,1.6-.39,.45-.89,.68-1.5,.68-.43,0-.79-.13-1.09-.38v1.12c0,.28,.07,.47,.2,.56,.13,.09,.39,.14,.76,.14v.14h-2.39v-.13c.51,0,.77-.21,.77-.64v-3.91Zm.66,2.27c0,.11,.12,.24,.35,.36,.24,.13,.48,.19,.74,.19,.92,0,1.38-.58,1.38-1.73,0-.48-.12-.88-.37-1.19-.25-.31-.6-.47-1.06-.47-.19,0-.41,.06-.65,.18-.24,.12-.38,.26-.41,.41v2.24Z"/>
          <path class="e" d="M29.17,49.73c.56,0,.84-.22,.84-.67v-4.28c0-.37-.17-.55-.51-.55h-.36v-.11c.28-.06,.78-.2,1.49-.4l.04,.02v5.36c0,.43,.27,.64,.82,.64v.11h-2.33v-.11Z"/>
          <path class="e" d="M38.53,45.92c-.22,.03-.38,.17-.47,.41l-1.42,3.29c-.29,.71-.56,1.19-.8,1.44-.25,.25-.54,.37-.88,.37-.47,0-.71-.16-.71-.47,0-.24,.16-.36,.49-.36,.11,0,.24,.03,.37,.08,.13,.05,.23,.08,.3,.08,.15,0,.35-.24,.61-.72,.26-.48,.39-.77,.39-.89s-.2-.48-.61-1.1l-1.22-1.84c-.11-.16-.31-.26-.6-.31v-.11h2.05v.11c-.41,0-.61,.13-.61,.38,0,.09,.04,.19,.12,.32l1.22,1.91,.7-1.62c.06-.18,.11-.3,.14-.37,.06-.15,.08-.23,.08-.24,0-.25-.15-.37-.46-.37v-.11h1.34v.11Z"/>
          <path class="e" d="M49.44,44.04c-.41,0-.69,.07-.83,.2-.14,.13-.21,.35-.21,.64v4.33c0,.15,.04,.25,.13,.3,.09,.04,.38,.07,.87,.07,.95,0,1.6-.1,1.96-.3,.36-.2,.65-.53,.88-1h.22l-.47,1.56h-5.34v-.14c.66,0,.99-.28,.99-.83v-3.98c0-.56-.33-.84-.99-.84v-.14h2.8v.14Z"/>
          <path class="e" d="M59.44,49.52c-.26,.06-.49,.12-.68,.18-.26,.1-.47,.17-.62,.22l-.02-.83c-.57,.56-1.09,.84-1.55,.84-.72,0-1.09-.39-1.09-1.16v-2.25c0-.4-.24-.6-.71-.6v-.11h1.37v2.93c0,.45,.27,.68,.82,.68,.25,0,.5-.08,.74-.24,.24-.16,.36-.36,.36-.61v-2.04c0-.39-.27-.58-.82-.58v-.13h1.49v3.07c0,.36,.23,.53,.7,.53v.1Z"/>
          <path class="e" d="M64.01,48.05l-.8,1.09c-.13,.19-.19,.32-.19,.37,0,.15,.12,.22,.35,.22v.11h-1.43v-.11c.32,0,.58-.14,.78-.42l1.14-1.58-.94-1.34c-.22-.31-.52-.47-.91-.47v-.11h2.05v.11h-.05c-.28,0-.42,.09-.42,.28,0,.14,.2,.47,.59,.98,.45-.59,.68-.94,.68-1.05,0-.14-.12-.21-.36-.21v-.11h1.57v.11c-.37,0-.64,.12-.81,.36l-.89,1.19,1.26,1.78c.2,.29,.5,.45,.9,.48v.11h-1.99v-.11c.28,0,.42-.07,.42-.22,0-.09-.06-.22-.17-.38l-.76-1.08Z"/>
          <path class="e" d="M73.58,49.52c-.26,.06-.49,.12-.68,.18-.26,.1-.47,.17-.62,.22l-.02-.83c-.57,.56-1.09,.84-1.55,.84-.72,0-1.09-.39-1.09-1.16v-2.25c0-.4-.24-.6-.71-.6v-.11h1.37v2.93c0,.45,.27,.68,.82,.68,.25,0,.5-.08,.74-.24,.24-.16,.36-.36,.36-.61v-2.04c0-.39-.27-.58-.82-.58v-.13h1.49v3.07c0,.36,.23,.53,.7,.53v.1Z"/>
          <path class="e" d="M76.73,46.84c0-.37-.14-.55-.42-.55-.11,0-.23,.01-.34,.04v-.12c.49-.15,.95-.3,1.38-.46l.04,.02v.88c.48-.62,.9-.93,1.27-.93s.55,.16,.55,.49c0,.22-.12,.33-.37,.33-.12,0-.27-.07-.45-.2-.09-.06-.17-.1-.23-.1-.12,0-.28,.11-.47,.34-.2,.23-.3,.41-.3,.55v1.9c0,.46,.31,.7,.93,.7v.11h-2.37v-.11c.37-.05,.59-.13,.66-.22,.08-.1,.12-.24,.12-.42v-2.24Z"/>
          <path class="e" d="M81.47,49.73c.33,0,.56-.05,.68-.15,.12-.1,.18-.32,.18-.65v-2.08c0-.37-.14-.55-.43-.55-.09,0-.22,.01-.39,.04v-.11c.57-.17,1.05-.32,1.45-.47l.04,.03v3.15c0,.31,.05,.52,.16,.63,.11,.11,.33,.17,.66,.17v.11h-2.35v-.11Zm1.12-5.97c.3,0,.45,.14,.45,.41s-.15,.41-.45,.41-.45-.14-.45-.41,.15-.41,.45-.41Z"/>
          <path class="e" d="M90.83,47.8c0,.56-.2,1.05-.61,1.48-.4,.43-.93,.64-1.57,.64s-1.17-.2-1.58-.61c-.41-.4-.62-.91-.62-1.51s.2-1.1,.6-1.5c.4-.4,.91-.6,1.54-.6,.66,0,1.2,.19,1.61,.56,.41,.37,.62,.88,.62,1.52Zm-.72,.26c0-.59-.15-1.08-.45-1.48-.3-.4-.68-.61-1.13-.61-.37,0-.69,.13-.95,.39-.26,.26-.39,.6-.39,1.02,0,.66,.14,1.21,.42,1.65,.28,.44,.67,.66,1.16,.66,.39,0,.71-.14,.96-.43,.25-.29,.38-.68,.38-1.19Z"/>
          <path class="e" d="M97.99,49.52c-.26,.06-.49,.12-.68,.18-.26,.1-.47,.17-.62,.22l-.02-.83c-.57,.56-1.09,.84-1.55,.84-.72,0-1.09-.39-1.09-1.16v-2.25c0-.4-.24-.6-.71-.6v-.11h1.37v2.93c0,.45,.27,.68,.82,.68,.25,0,.5-.08,.74-.24,.24-.16,.36-.36,.36-.61v-2.04c0-.39-.27-.58-.82-.58v-.13h1.49v3.07c0,.36,.23,.53,.7,.53v.1Z"/>
          <path class="e" d="M103.31,47.02c-.15-.73-.52-1.1-1.12-1.1-.25,0-.45,.07-.6,.21-.15,.14-.23,.29-.23,.44,0,.25,.15,.45,.45,.61l1.07,.57c.58,.34,.88,.68,.88,1.02s-.14,.61-.43,.82c-.29,.21-.62,.32-1,.32-.18,0-.4-.03-.66-.1-.26-.07-.43-.1-.51-.1s-.15,.05-.23,.15h-.11v-1.4h.14c.22,.84,.65,1.26,1.3,1.26,.58,0,.88-.24,.88-.72,0-.25-.17-.47-.52-.65l-.57-.3c-.56-.3-.91-.53-1.04-.7-.13-.17-.2-.35-.2-.56,0-.31,.13-.57,.38-.78,.25-.21,.59-.32,1-.32,.16,0,.46,.07,.91,.21,.07,0,.14-.04,.2-.13h.08l.04,1.23h-.13Z"/>
        </g>
      </g>
    </g>
  </g>
</svg>