<?xml version="1.0" encoding="UTF-8"?>
<svg id="uuid-2fabc028-ed38-4296-99d9-7cc573b3acff" data-name="圖層 2" xmlns="http://www.w3.org/2000/svg" width="190.39" height="40.09" viewBox="0 0 190.39 40.09">
  <defs>
    <style>
      .uuid-e2d1a252-2f95-44a2-a0a2-2f6c41f66464 {
        fill: #ddc3a5;
      }

      .uuid-867ddbc7-32cb-4cfb-9a59-023b5a26dc2f {
        fill: #311e1b;
      }

      .uuid-9a86ee5d-4284-4cfa-85aa-a087717ec424 {
        fill: #35201c;
      }

      .uuid-6848db19-8051-4409-a383-d3ac1e76e06f {
        fill: #762a1f;
      }

      .uuid-e86b24f0-7264-458f-9f1b-a1900ec16169 {
        fill: #ddc0a4;
      }
    </style>
  </defs>
  <g id="uuid-b4a180bd-c579-4757-b16d-48b22e11673c" data-name="設計">
    <g>
      <g>
        <path class="uuid-9a86ee5d-4284-4cfa-85aa-a087717ec424" d="M89.92,15.32c-1.11-1.05-2.42-1.86-3.91-2.43-1.49-.57-3.12-.85-4.9-.85s-3.41,.29-4.9,.87c-1.49,.58-2.79,1.39-3.91,2.44-1.11,1.05-1.98,2.28-2.59,3.68-.61,1.4-.92,2.95-.92,4.65s.31,3.22,.92,4.63c.61,1.41,1.47,2.65,2.59,3.7,1.11,1.05,2.42,1.86,3.92,2.44,1.5,.58,3.14,.87,4.92,.87s3.38-.28,4.87-.85c1.49-.57,2.79-1.38,3.91-2.43,1.11-1.05,1.98-2.29,2.59-3.71,.61-1.43,.92-2.97,.92-4.65s-.31-3.25-.92-4.66c-.61-1.41-1.47-2.65-2.59-3.7Zm-2.3,11.27c-.35,.87-.85,1.63-1.49,2.28-.64,.65-1.39,1.16-2.23,1.51-.85,.35-1.77,.53-2.78,.53s-1.94-.18-2.8-.53c-.86-.35-1.6-.86-2.23-1.51-.63-.65-1.12-1.41-1.48-2.28-.35-.87-.53-1.84-.53-2.91s.18-2.04,.53-2.91c.35-.87,.85-1.63,1.48-2.28,.63-.65,1.38-1.16,2.23-1.51,.86-.35,1.79-.53,2.8-.53s1.93,.18,2.78,.53c.85,.35,1.59,.86,2.23,1.51,.64,.65,1.14,1.41,1.49,2.28,.35,.87,.53,1.84,.53,2.91s-.18,2.04-.53,2.91Z"/>
        <rect class="uuid-9a86ee5d-4284-4cfa-85aa-a087717ec424" x="97.49" y="12.49" width="5.21" height="22.38"/>
        <path class="uuid-9a86ee5d-4284-4cfa-85aa-a087717ec424" d="M59.57,22.32l7.06-9.83h-5.96l-5.99,8.34c-.86-.12-1.78-.18-2.76-.18-.47,0-.93,.02-1.37,.05V12.49h-5.15v22.38h5.15v-9.96c.45-.05,.9-.08,1.37-.08,5.29,0,9.34,3.3,9.34,10.04h5.24c0-4.36-1.72-9.85-6.94-12.55Z"/>
        <path class="uuid-9a86ee5d-4284-4cfa-85aa-a087717ec424" d="M190.37,23.26c-.29-3.34-3.14-6.49-9.04-6.2-5.78,.29-9.15,4.02-9.15,8.98,0,.49,.03,.96,.1,1.43,.17,1.16,.54,2.23,1.13,3.19,.82,1.35,1.98,2.42,3.47,3.19,1.49,.78,3.23,1.17,5.22,1.17,1.58,0,2.97-.24,4.18-.73,1.21-.49,2.21-1.18,3.01-2.09l-2.69-2.92c-.58,.56-1.23,.98-1.93,1.26-.7,.28-1.51,.42-2.41,.42-1.06,0-1.97-.19-2.72-.57-.76-.38-1.35-.92-1.78-1.64-.24-.39-.4-.83-.51-1.3h9.34c2.92,0,3.99-1.89,3.79-4.21Zm-5.3,1.07h-7.86s.59-3.27,4.37-3.53c2.97-.21,4.32,1.08,4.59,1.94,.24,.75,.07,1.59-1.1,1.59Z"/>
        <path class="uuid-9a86ee5d-4284-4cfa-85aa-a087717ec424" d="M178.84,14.04s-.09,.08-.11,.11c-.03,.05-.06,.11-.02,.13,.04,.02,.13,.03,.2,.04,.06,0,.13-.04,.19-.04,.07,0,.13-.02,.19-.03,.06,0,.12-.03,.19-.04,.06-.01,.13-.01,.19-.02s.13,0,.2-.02c.06-.01,.13-.02,.19-.03,.05,0,.11-.08,.17-.1,.06-.02,.15,0,.18,.09,.01,.04-.04,.09-.03,.14,0,.04,.01,.07-.01,.11-.02,.04-.03,.06-.1,.09-.04,.01-.09,.04-.14,.05-.05,.01-.1,.03-.06,.09,.05,.07,.1,.07,.16,.06,.06-.02,.13-.02,.19-.03,.06-.01,.1-.07,.16-.08,.06,0,.12-.01,.18-.02,.06,0,.13,.01,.19,0,.06,0,.11-.05,.17-.06,.06,0,.12,0,.18-.01,.06,0,.13,.02,.18,.02,.06,0,.12,0,.18,0,.06,0,.11-.04,.17-.05,.06,0,.12-.01,.18-.02,.06,0,.12-.02,.18-.03,.06,0,.12,0,.18,0,.06,0,.12-.02,.18-.02,.06,0,.12,.03,.18,.02,.06,0,.12,0,.18-.01s.12,.04,.18,.03c.06,0,.12,0,.18-.01,.06,0,.12-.04,.18-.04,.06,0,.12,.03,.18,.03,.06,0,.12,0,.19,0,.06,0,.12-.04,.18-.04,.06,0,.12,0,.19,0,.06,0,.12-.06,.18-.07,.06,0,.12-.02,.18-.03,.06-.01,.12-.03,.18-.05,.06-.01,.12-.02,.18-.04,.06-.02,.12-.04,.17-.06,.06-.02,.11-.05,.17-.07,.06-.02,.13,0,.19-.02,.06-.02,.11-.06,.17-.08,.06-.02,.13,0,.19-.03,.06-.03,.11-.07,.16-.09,.06-.03,.11-.07,.16-.1,.06-.03,.12-.04,.17-.07,.05-.03,.11-.05,.17-.08s.07-.13,.12-.17c.05-.04,.16,.01,.21-.02,.06-.03,.11-.06,.17-.09,.06-.03,.1-.09,.16-.12,.06-.03,.1-.1,.15-.14,.06-.04,.12-.06,.17-.1,.05-.04,.13-.05,.18-.09,.05-.05,.06-.14,.1-.19,.04-.05,.07-.11,.11-.17,.04-.06,.08-.12,.11-.19,.03-.06,.11-.11,.14-.18,.03-.07-.01-.15,0-.22,.02-.07,.06-.12,.05-.18,0-.07-.03-.12-.06-.16-.03-.04-.09-.06-.14-.08-.05-.03-.1-.04-.15-.06-.05-.02-.09-.07-.13-.09-.08-.05-.13-.06-.17-.03-.04,.04-.1,.1-.13,.17-.03,.06-.02,.12-.07,.15-.05,.03-.05,.13-.1,.17-.04,.03-.15,0-.16,0,0,0,0-.09,.03-.15,.02-.06,.02-.13,.05-.18,.03-.06,.12-.1,.14-.16,.02-.06,0-.13-.01-.18,0-.06-.02-.1-.06-.15-.03-.04-.06-.07-.11-.1-.04-.03-.06-.09-.12-.11-.06-.02-.02-.05,.01-.11,.02-.05,.04-.11,.06-.16,.02-.05-.03-.11-.06-.17-.02-.05-.02-.12-.06-.16-.03-.04-.06-.1-.09-.14-.04-.04-.13-.03-.17-.06-.05-.05-.09-.09-.11-.11-.07-.05-.12-.05-.15,0-.03,.05-.03,.15-.07,.17-.06,.03-.13,.03-.19,.05-.06,.03-.11,.1-.17,.13-.06,.03-.12,.06-.18,.1-.06,.04-.12,.07-.18,.11-.06,.04-.09,.11-.14,.16-.05,.04-.14,.04-.2,.08-.05,.04-.11,.08-.16,.12-.05,.04-.06,.14-.12,.18-.05,.04-.12,.07-.17,.11-.05,.04-.1,.1-.15,.14-.05,.03-.13,0-.19,.02-.05,.02-.1,.05-.16,.07-.05,.02-.11,.02-.17,.04-.06,.02-.11,.06-.16,.07-.07,.02-.14,.05-.2,.08-.07,.03-.11,.1-.18,.13-.06,.03-.15,.01-.22,.04-.06,.03-.11,.13-.18,.15-.06,.02-.13,.02-.19,.04-.06,.02-.13,.01-.19,.03-.06,.02-.12,.04-.18,.06-.06,.02-.13,0-.19,.02-.06,.02-.11,.1-.17,.11-.06,.02-.13-.01-.19,0-.06,.02-.12,.06-.18,.07-.06,.02-.12,.02-.18,.04-.06,.02-.12,.05-.18,.07-.06,.02-.12,.03-.18,.05-.06,.02-.12,.06-.18,.07-.06,.02-.13,0-.19,.02-.06,.02-.12,.05-.18,.06-.06,.01-.12,.04-.18,.05-.06,.01-.12,.02-.19,.03-.06,.02-.13,0-.19,.02-.06,.02-.12,.03-.19,.04-.06,.02-.11,.06-.17,.08-.06,.02-.11,.06-.17,.09-.06,.02-.13,.01-.19,.03s-.11,.05-.17,.08-.1,.06-.16,.09c-.06,.02-.14,.02-.19,.05-.05,.03-.12,.04-.18,.07-.05,.03-.08,.08-.13,.11-.05,.03-.08,.07-.13,.1-.05,.03-.11,.05-.16,.08-.04,.03-.09,.05-.15,.06-.05,.02-.11,.02-.16,.04-.04,.02-.05,.05-.08,.09-.02,.03,0,.06,0,.1,0,.03,0,.06,.02,.09,.02,.03,0,.07,.04,.1,.03,.03,.04,.07,.08,.09,.04,.02,.08,.05,.13,.07,.04,.02,.13,0,.18,.02,.05,.02,.08,.04,.14,.06,.05,.01,.17,.04,.17,.04Z"/>
        <g>
          <path class="uuid-9a86ee5d-4284-4cfa-85aa-a087717ec424" d="M129.91,35.01c-1.67,0-3.23-.27-4.66-.82-1.44-.55-2.68-1.33-3.73-2.34-1.05-1.01-1.87-2.2-2.46-3.56-.59-1.36-.88-2.86-.88-4.49s.29-3.13,.88-4.49c.59-1.36,1.41-2.55,2.48-3.56,1.06-1.01,2.31-1.79,3.75-2.34,1.43-.55,2.99-.82,4.66-.82,1.88,0,3.58,.33,5.11,.98,1.53,.65,2.81,1.61,3.84,2.86l-3.25,2.97c-.72-.85-1.54-1.49-2.46-1.92-.92-.43-1.92-.65-2.99-.65-1.01,0-1.94,.17-2.79,.51-.85,.34-1.58,.82-2.2,1.44-.62,.62-1.1,1.35-1.44,2.2-.34,.85-.51,1.79-.51,2.82s.17,1.97,.51,2.82c.34,.85,.82,1.58,1.44,2.2,.62,.62,1.35,1.1,2.2,1.44,.85,.34,1.78,.51,2.79,.51,1.07,0,2.07-.22,2.99-.67,.92-.44,1.74-1.09,2.46-1.94l3.25,2.97c-1.03,1.26-2.31,2.22-3.84,2.88-1.53,.66-3.24,.99-5.14,.99Z"/>
          <path class="uuid-9a86ee5d-4284-4cfa-85aa-a087717ec424" d="M146.92,34.88c-1.28,0-2.38-.22-3.31-.67-.93-.44-1.65-1.05-2.15-1.81-.51-.76-.76-1.62-.76-2.57s.24-1.83,.73-2.59c.48-.75,1.25-1.34,2.31-1.75,1.05-.41,2.44-.62,4.15-.62h4.4v2.79h-3.9c-1.14,0-1.92,.19-2.34,.56-.42,.37-.64,.84-.64,1.39,0,.62,.24,1.11,.73,1.47,.49,.36,1.14,.54,1.97,.54s1.56-.19,2.21-.56c.65-.37,1.11-.94,1.38-1.7l.74,2.26c-.35,1.03-.99,1.83-1.92,2.4-.93,.57-2.13,.85-3.59,.85Zm5.08-.25v-3.25l-.31-.71v-5.82c0-1.03-.31-1.84-.94-2.41-.63-.58-1.59-.87-2.89-.87-.89,0-1.76,.14-2.62,.42-.86,.28-1.6,.66-2.22,1.13l-1.7-3.38c.91-.66,2-1.16,3.28-1.5,1.28-.34,2.58-.51,3.9-.51,2.54,0,4.51,.6,5.92,1.8,1.4,1.2,2.11,3.07,2.11,5.61v9.51h-4.52Z"/>
          <path class="uuid-9a86ee5d-4284-4cfa-85aa-a087717ec424" d="M158.9,22.06v-3.72h11.55v3.72h-11.55Zm2.57,12.57V17.6c0-1.9,.56-3.41,1.67-4.52,1.12-1.11,2.71-1.67,4.77-1.67,.68,0,1.35,.07,2.01,.22,.66,.15,1.22,.36,1.67,.65l-1.27,3.53c-.27-.19-.57-.33-.9-.43-.33-.1-.68-.15-1.05-.15-.7,0-1.24,.2-1.63,.59-.38,.39-.57,1.01-.57,1.86v1.55l.15,2.04v13.38h-4.86Z"/>
        </g>
      </g>
      <g>
        <path class="uuid-9a86ee5d-4284-4cfa-85aa-a087717ec424" d="M29.19,8.65c-.16-.17-.38-.27-.61-.27h-3.68c.19-.74,.34-1.51,.48-2.25,.26-1.37,.53-2.79,1.08-4.09,.03-.08,.07-.15,.1-.23,.22-.5,.45-1.02,.41-1.58,0-.04-.02-.07-.06-.08-.27-.1-.48-.15-.64-.15-.34,0-.44,.21-.55,.42-.02,.05-.05,.1-.08,.15-.14,.25-.17,.53-.2,.81,0,.09-.02,.19-.03,.28-.05,.37-.19,.73-.33,1.08l-.06,.16c-.52,1.39-.87,2.87-1.2,4.3-.09,.39-.19,.79-.28,1.19l-22.23,.06c-.56,0-.99,.23-1.29,.67-.01,.02-.02,.04-.01,.06l4.01,29.43c.11,.77,.75,1.35,1.53,1.37,3.25,.07,6.03,.11,8.74,.11,2.88,0,5.83-.04,9.28-.12,1.12-.03,2.05-.85,2.21-1.96,1.3-8.96,2.65-18.63,3.64-28.72,.02-.23-.05-.46-.21-.63Z"/>
        <path class="uuid-e86b24f0-7264-458f-9f1b-a1900ec16169" d="M25.66,28.08c-.46,2.96-.9,5.96-1.23,8.94l-6.45-8.33c-.14-.18-.28-.36-.42-.55-.57-.75-1.15-1.52-1.83-2.13,2.48,.84,3.05,.42,5.41,1.01,.99,.25,3.04,.69,4.51,1.06Z"/>
        <path class="uuid-e2d1a252-2f95-44a2-a0a2-2f6c41f66464" d="M2.32,9.71c3.88,.12,7.81,.19,11.7,.19,1.52,0,3.05-.01,4.58-.03-.14,.46-.25,.77-.39,1.17-.07,.19-.14,.4-.23,.65-.35,1.03-.7,2.07-1.05,3.1l-3.4,8.97L5.79,14.07c-.73-.91-1.48-1.85-2.22-2.79-.51-.65-.82-1.04-1.24-1.58Z"/>
        <path class="uuid-e2d1a252-2f95-44a2-a0a2-2f6c41f66464" d="M20.92,25.51c-1.83-.46-3.73-.32-5.73-.85-.12-.03-.22-.11-.28-.22-.06-.11-.07-.24-.03-.36,.52-1.48,1.36-2.95,1.83-4.37,1.12-3.37,2.18-6.56,3.58-9.87,.96-.02,1.92-.04,2.88-.06-.21,.73-.44,1.46-.73,2.16-.06,.13-.11,.27-.17,.4-.12,.27-.24,.55-.34,.84-.2,.55-.33,1.14-.47,1.7-.04,.15-.08,.35-.02,.53,.09,.28,.38,.41,.64,.51,.14,.06,.27,.1,.41,.1,.03,0,.07,0,.1,0,.26-.05,.42-.28,.48-.48,.06-.19,.06-.38,.06-.57v-.08c.01-1.42,.51-2.79,1-4.12,.12-.34,.25-.68,.36-1.02,.99-.03,1.97-.06,2.95-.09h.02c.17,0,.32,.07,.44,.19,.11,.12,.17,.28,.16,.45-.37,5.03-1.18,10.13-1.97,15.07-.06,.38-.12,.77-.18,1.16-1.72-.39-3.4-.61-4.99-1.01Z"/>
        <path class="uuid-e2d1a252-2f95-44a2-a0a2-2f6c41f66464" d="M19.35,32.67c-.08-.09-.18-.22-.29-.4-.95-1.43-3.42-4.52-4.71-6.12-.2-.19-.41-.38-.61-.57-.77-.71-1.56-1.44-2.23-2.27-.42-.51-.79-1.07-1.15-1.61-.31-.46-.63-.94-.97-1.38-.66-.85-1.43-1.63-2.18-2.38-.2-.2-.39-.39-.59-.59-1.94-1.98-3.72-4.14-5.31-6.41,.41,3.07,.88,6.02,1.38,9.13,.61,3.81,1.24,7.75,1.75,11.92,0,0,0,.03,.01,.06l.26,2.18v.03s.46,3.65,.46,3.65c.03,.36,.33,.64,.69,.64,1.49,.02,2.84,.04,4.11,.05h.03s.1,0,.1,0c1.09,0,2.13,.01,3.13,.01,3.12,0,6.15-.04,10.43-.14,.06,0,.12-.01,.18-.03-1.8-1.64-3.18-3.73-4.49-5.79Z"/>
        <path class="uuid-6848db19-8051-4409-a383-d3ac1e76e06f" d="M5.87,27.18s-1.75,1.76-1.31,3.46c.43,1.7,2.44,6.14,6.48,7.48,4.04,1.33,6.09-1.82,6.64-2.86,.56-1.05,.61-3.94-.81-5.25s-3.98-3.68-5.4-4.07c-1.42-.39-4.47-.52-5.61,1.25Z"/>
        <path class="uuid-9a86ee5d-4284-4cfa-85aa-a087717ec424" d="M5.49,26.8c-.86,.88-1.63,2.2-1.53,3.46,.04,.54,.23,1.06,.43,1.56,.23,.58,.5,1.15,.8,1.7,1.55,2.78,4.31,5.42,7.69,5.44,1.46,.01,2.82-.59,3.86-1.59,.68-.66,1.37-1.53,1.64-2.46,.4-1.41,.25-3.14-.46-4.43-.37-.67-.97-1.15-1.52-1.66-.65-.59-1.31-1.17-2-1.72-.63-.5-1.29-1.01-2.01-1.38-.59-.3-1.2-.43-1.86-.51-1.43-.17-3.13-.05-4.32,.84-.32,.24-.58,.51-.8,.85-.38,.57,.54,1.1,.92,.54,.7-1.05,2.19-1.25,3.39-1.22,.6,.01,1.07,.06,1.65,.23,.05,.02,.11,.03,.16,.05,.09,.03,.06,.02,.12,.05,.14,.06,.27,.13,.4,.2,.31,.18,.61,.38,.9,.58,1.25,.89,2.39,1.95,3.51,2.99,.96,.89,1.16,2.37,1.03,3.63-.02,.23-.07,.51-.16,.78-.02,.05-.04,.11-.06,.16-.03,.08,.04-.07,0,0,0,.02-.02,.04-.03,.06-.04,.07-.07,.14-.11,.21-.09,.16-.18,.31-.28,.46-.06,.09-.12,.17-.18,.26-.02,.03-.1,.13-.04,.05-.04,.06-.09,.11-.13,.16-.74,.88-1.62,1.51-2.75,1.74-1.44,.29-2.99-.24-4.21-1.03-1.18-.75-2.14-1.81-2.9-2.97-.34-.52-.65-1.07-.91-1.63-.21-.44-.35-.79-.52-1.29-.18-.56-.22-1.07-.03-1.64,.1-.31,.26-.6,.43-.88,.17-.27,.28-.42,.44-.61,.07-.08,.14-.16,.21-.24,.48-.49-.27-1.24-.75-.75Z"/>
        <path class="uuid-867ddbc7-32cb-4cfb-9a59-023b5a26dc2f" d="M6.09,26.97s-.47,.97,.39,1.59c.86,.62,5.13,2.35,6,3.29,.87,.94,1.72,1.89,2.63,2.48l.87,.56s-.77-.58-1.8-1.74c-1.03-1.16-1.71-2.11-2.57-2.48-.86-.37-3.19-1.56-4.15-2.23-.96-.67-1.02-1.63-1.02-1.63l-.35,.16Z"/>
        <path class="uuid-9a86ee5d-4284-4cfa-85aa-a087717ec424" d="M5.86,26.83c-.35,.74-.12,1.56,.56,2.02,.63,.42,1.36,.72,2.05,1.05,.9,.43,1.8,.86,2.66,1.35,.33,.19,.66,.38,.96,.61,.45,.36,.81,.86,1.22,1.27,.57,.58,1.16,1.11,1.84,1.55,.23,.15,.46,.3,.69,.45,.31,.2,.56-.27,.28-.48,.07,.06-.03-.02-.07-.06-.11-.09-.22-.18-.32-.28-.37-.33-.73-.69-1.07-1.05-.76-.81-1.41-1.78-2.29-2.46-.59-.46-1.35-.71-2.01-1.05-.8-.41-1.6-.83-2.36-1.3-.42-.26-.8-.54-1.05-.98-.09-.15-.15-.31-.2-.48-.02-.06-.03-.12-.04-.18,0-.03,0,.05,0,0-.02-.22-.22-.33-.42-.24-.12,.05-.23,.11-.35,.16-.32,.15-.04,.63,.28,.48,.12-.05,.23-.11,.35-.16-.14-.08-.28-.16-.42-.24,.05,.68,.47,1.33,.99,1.74,.69,.55,1.51,.95,2.28,1.36,.73,.38,1.49,.7,2.22,1.09,.43,.23,.77,.58,1.1,.94,.42,.46,.82,.95,1.23,1.41,.57,.64,1.17,1.27,1.86,1.79,.09-.16,.19-.32,.28-.48-.7-.46-1.38-.9-1.99-1.48-.74-.71-1.34-1.55-2.22-2.1-1.5-.94-3.16-1.59-4.72-2.41-.32-.17-.7-.34-.86-.68-.09-.18-.1-.39-.07-.59,.01-.08,.04-.15,.06-.23,.02-.05,.04-.1,.02-.05,.15-.32-.33-.6-.48-.28Z"/>
      </g>
    </g>
  </g>
</svg>