<?xml version="1.0" encoding="UTF-8"?>
<svg id="uuid-7adfb299-00fc-4487-9a90-5f42c5b84e34" data-name="圖層 2" xmlns="http://www.w3.org/2000/svg" width="128.6" height="40.21" viewBox="0 0 128.6 40.21">
  <defs>
    <style>
      .uuid-34c64d10-0380-4e76-8ab1-09f85cc835ae {
        fill: #231815;
      }
    </style>
  </defs>
  <g id="uuid-374d6f51-1a2e-44b1-841a-2f88686daeba" data-name="設計">
    <g>
      <g>
        <g>
          <path class="uuid-34c64d10-0380-4e76-8ab1-09f85cc835ae" d="M11.2,22.75L2.89,11.33,10.97,.6h3.87L6.45,10.78l8.93,11.97h-4.18ZM.12,22.75V.6H3.22V12.13l.04-.05-.04,10.68H.12Z"/>
          <path class="uuid-34c64d10-0380-4e76-8ab1-09f85cc835ae" d="M25.42,23.36c-3.17,0-5.82-1.14-7.87-3.38-2.06-2.26-3.11-5.04-3.11-8.25s1.05-6.01,3.12-8.29C19.64,1.15,22.28,0,25.42,0s5.78,1.15,7.83,3.42c2.06,2.28,3.11,5.07,3.11,8.27s-1.04,5.99-3.09,8.26c-2.04,2.26-4.68,3.4-7.85,3.4Zm-.02-20.33c-2.34,0-4.24,.84-5.63,2.48-1.38,1.63-2.08,3.64-2.08,5.96s.74,4.4,2.21,6.17c1.48,1.79,3.34,2.69,5.52,2.69,2.33,0,4.23-.87,5.64-2.58,1.39-1.69,2.09-3.81,2.09-6.28s-.71-4.37-2.1-5.98c-1.41-1.64-3.31-2.46-5.65-2.46Z"/>
          <rect class="uuid-34c64d10-0380-4e76-8ab1-09f85cc835ae" x="40.77" y=".6" width="3.1" height="22.15"/>
          <path class="uuid-34c64d10-0380-4e76-8ab1-09f85cc835ae" d="M65.29,22.75V.6s5.69,0,5.69,0c5.1,0,7.58,2.19,7.58,6.71,0,2.3-.58,4.03-1.72,5.16-1.14,1.13-2.89,1.7-5.22,1.7h-3.23v8.58h-3.1Zm3.1-10.88h2.32c3.05,0,4.67-1.58,4.67-4.55s-1.65-4.4-4.78-4.4h-2.21V11.87Z"/>
          <polygon class="uuid-34c64d10-0380-4e76-8ab1-09f85cc835ae" points="82.88 22.75 82.88 .6 85.98 .6 85.98 20.26 92.9 20.26 92.9 22.75 82.88 22.75"/>
          <path class="uuid-34c64d10-0380-4e76-8ab1-09f85cc835ae" d="M103.86,23.36c-5.47,0-8.13-3.08-8.13-9.43V.6h3.1V13.06c0,5.18,1.7,7.8,5.05,7.8s5.05-2.63,5.05-7.8V.6h3.06V13.93c0,6.35-2.66,9.43-8.13,9.43Z"/>
          <path class="uuid-34c64d10-0380-4e76-8ab1-09f85cc835ae" d="M121.44,23.36c-2.76,0-4.9-1.31-6.53-4l1.82-1.8c.38,.73,.94,1.42,1.69,2.04,.95,.79,1.95,1.19,2.97,1.19,1.22,0,2.21-.43,2.93-1.27,.7-.83,1.06-1.84,1.06-3.02,0-.87-.27-1.65-.81-2.31-.33-.41-1.21-1.15-5-2.83-2.62-1.16-3.9-2.76-3.9-4.87,0-1.82,.6-3.38,1.8-4.62,1.19-1.24,2.7-1.86,4.49-1.86,2.4,0,4.34,.74,5.77,2.21l-1.33,1.97c-1-1.19-2.25-1.8-3.72-1.8-1.05,0-1.96,.33-2.68,.97-.74,.66-1.12,1.54-1.12,2.62s1.23,2.38,3.78,3.81c2.47,1.38,3.27,1.83,3.58,1.98,1.59,1.19,2.36,2.54,2.36,4.13,0,2.23-.64,4.05-1.91,5.42-1.26,1.36-3.03,2.05-5.25,2.05Z"/>
        </g>
        <g>
          <path class="uuid-34c64d10-0380-4e76-8ab1-09f85cc835ae" d="M50.56,16.7c.77,0,1.49,.31,2.03,.87,.52,.54,.83,1.27,.83,1.99,0,.8-.29,1.54-.83,2.11-.54,.57-1.26,.89-2.03,.89-1.58,0-2.86-1.34-2.86-3,0-1.55,1.31-2.86,2.86-2.86Zm-3.29,2.86c0,1.89,1.48,3.42,3.29,3.42,.89,0,1.72-.36,2.34-1.02,.61-.65,.94-1.5,.94-2.4,0-.83-.34-1.67-.95-2.29-.62-.64-1.46-1-2.34-1-1.78,0-3.29,1.5-3.29,3.29Z"/>
          <path class="uuid-34c64d10-0380-4e76-8ab1-09f85cc835ae" d="M50.56,17.42h.13c.4,0,.69,.02,1.01,.13,.52,.21,.73,.6,.73,1.08,0,.56-.39,1.2-1.2,1.2,.43,.28,.8,.8,.94,1.07l.53,.93h-1.07l-.53-.93c-.27-.4-.4-.54-.53-.67v-.94h.53c.34-.02,.4-.4,.4-.53s-.07-.53-.53-.53h-.4v-.8Zm-1.74,4.41v-4.41h1.74v.8h-.81v1.07h.81v.94h0s-.14-.13-.27-.27h-.54v1.87h-.93Z"/>
        </g>
      </g>
      <g>
        <path class="uuid-34c64d10-0380-4e76-8ab1-09f85cc835ae" d="M5.16,33.22h-.27c-.13-.54-.4-1.01-.83-1.41-.42-.4-.91-.6-1.46-.6-.37,0-.69,.11-.97,.33-.28,.22-.42,.5-.42,.83,0,.45,.36,.88,1.09,1.3l2.01,1.16c.73,.5,1.09,1.03,1.09,1.6s-.23,1.04-.69,1.42c-.46,.38-1.08,.57-1.85,.57-.35,0-.73-.06-1.14-.19-.41-.12-.65-.19-.73-.19-.25,0-.37,.12-.37,.36H.37l-.37-2.31H.24c.55,1.34,1.39,2.01,2.51,2.01,.46,0,.85-.14,1.16-.41,.31-.27,.47-.59,.47-.93s-.15-.66-.46-.93c-.31-.27-.87-.62-1.69-1.05-.82-.43-1.33-.78-1.55-1.04-.22-.27-.33-.59-.33-.98,0-.56,.21-1.02,.63-1.35,.42-.34,.94-.5,1.55-.5,.24,0,.8,.12,1.67,.37,.22,0,.36-.12,.42-.37h.26l.27,2.32Z"/>
        <path class="uuid-34c64d10-0380-4e76-8ab1-09f85cc835ae" d="M8.95,38.13c.4,0,.68-.06,.83-.18,.15-.12,.22-.38,.22-.8v-2.53c0-.45-.18-.67-.53-.67-.11,0-.27,.02-.47,.05v-.14c.69-.2,1.28-.39,1.76-.57l.05,.03v3.83c0,.38,.06,.64,.19,.77,.13,.14,.4,.2,.81,.2v.14h-2.86v-.14Zm1.36-7.26c.37,0,.55,.17,.55,.5s-.18,.5-.55,.5-.55-.17-.55-.5,.18-.5,.55-.5Z"/>
        <path class="uuid-34c64d10-0380-4e76-8ab1-09f85cc835ae" d="M15.82,34.59c0-.49-.18-.73-.53-.73-.14,0-.27,.02-.38,.05v-.16c.54-.13,1.06-.28,1.58-.45l.09,.02v.86c.77-.61,1.42-.92,1.96-.92,.62,0,1.01,.31,1.18,.93,.59-.62,1.27-.93,2.04-.93,.88,0,1.32,.65,1.32,1.94v2.25c0,.46,.31,.68,.94,.68v.14h-2.64v-.14c.42-.05,.67-.13,.76-.26,.09-.12,.13-.31,.13-.56v-2.3c0-.8-.33-1.2-.97-1.2s-1.13,.22-1.45,.67v2.74c0,.6,.32,.89,.97,.89v.14h-2.69v-.14c.62,0,.92-.27,.92-.8v-2.37c0-.76-.31-1.14-.94-1.14-.34,0-.68,.1-1.01,.29-.33,.19-.49,.33-.49,.41v3.02c0,.39,.31,.59,.94,.59v.14h-2.68v-.14c.63,0,.95-.26,.95-.79v-2.75Z"/>
        <path class="uuid-34c64d10-0380-4e76-8ab1-09f85cc835ae" d="M27.62,34.51c0-.43-.18-.64-.53-.64h-.37s0-.14,0-.14c.44-.12,.98-.3,1.64-.56l.06,.02v.79l.03,.02c.47-.56,1.08-.84,1.83-.84,.56,0,1.03,.21,1.41,.64,.38,.43,.58,1,.58,1.7,0,.75-.24,1.4-.71,1.95-.47,.55-1.08,.82-1.82,.82-.52,0-.96-.15-1.32-.46v1.36c0,.34,.08,.57,.24,.68,.16,.11,.47,.17,.92,.17v.17h-2.91v-.16c.62,0,.94-.26,.94-.78v-4.76Zm.81,2.76c0,.14,.14,.29,.43,.44,.29,.15,.59,.23,.9,.23,1.12,0,1.68-.7,1.68-2.1,0-.59-.15-1.07-.45-1.45-.3-.38-.73-.57-1.28-.57-.23,0-.49,.07-.79,.22-.29,.15-.46,.31-.49,.5v2.73Z"/>
        <path class="uuid-34c64d10-0380-4e76-8ab1-09f85cc835ae" d="M35.47,38.13c.68,0,1.03-.27,1.03-.81v-5.2c0-.45-.21-.67-.62-.67h-.44s0-.14,0-.14c.34-.08,.94-.24,1.81-.49l.05,.02v6.51c0,.52,.33,.78,1,.78v.14h-2.83v-.14Z"/>
        <path class="uuid-34c64d10-0380-4e76-8ab1-09f85cc835ae" d="M46.85,33.5c-.26,.04-.46,.21-.58,.5l-1.73,4.01c-.35,.87-.68,1.45-.98,1.75-.3,.3-.65,.45-1.06,.45-.57,0-.86-.19-.86-.57,0-.29,.2-.44,.59-.44,.14,0,.29,.03,.45,.1,.16,.07,.28,.1,.36,.1,.18,0,.43-.29,.74-.87,.32-.58,.47-.94,.47-1.08s-.25-.58-.74-1.34l-1.49-2.24c-.14-.19-.38-.32-.73-.38v-.13h2.49v.14c-.5,0-.74,.15-.74,.46,0,.11,.05,.24,.14,.38l1.49,2.32,.85-1.97c.08-.22,.13-.37,.17-.45,.07-.18,.1-.27,.1-.29,0-.3-.19-.45-.56-.45v-.14h1.63v.14Z"/>
        <path class="uuid-34c64d10-0380-4e76-8ab1-09f85cc835ae" d="M60.11,31.23c-.5,0-.84,.08-1.01,.24-.17,.16-.26,.42-.26,.78v5.27c0,.19,.05,.31,.16,.36,.11,.05,.46,.08,1.06,.08,1.15,0,1.95-.12,2.39-.36,.44-.24,.79-.65,1.06-1.22h.27l-.58,1.89h-6.49v-.17c.8,0,1.21-.34,1.21-1.01v-4.84c0-.68-.4-1.02-1.21-1.02v-.17h3.4v.17Z"/>
        <path class="uuid-34c64d10-0380-4e76-8ab1-09f85cc835ae" d="M72.27,37.88c-.32,.07-.59,.14-.82,.22-.32,.12-.57,.21-.76,.27l-.03-1.01c-.69,.68-1.32,1.02-1.89,1.02-.88,0-1.32-.47-1.32-1.42v-2.74c0-.49-.29-.73-.86-.73v-.13h1.67v3.56c0,.55,.33,.82,1,.82,.31,0,.61-.1,.9-.3s.44-.44,.44-.74v-2.48c0-.47-.33-.71-1-.71v-.16h1.81v3.74c0,.43,.28,.65,.85,.65v.13Z"/>
        <path class="uuid-34c64d10-0380-4e76-8ab1-09f85cc835ae" d="M77.83,36.09l-.98,1.32c-.15,.23-.23,.38-.23,.45,0,.18,.14,.27,.42,.27v.14h-1.74v-.14c.38,0,.7-.17,.95-.51l1.39-1.93-1.14-1.63c-.27-.38-.63-.57-1.1-.57v-.14h2.49v.14h-.06c-.34,0-.51,.11-.51,.34,0,.17,.24,.57,.72,1.2,.55-.71,.82-1.14,.82-1.28,0-.17-.15-.26-.44-.26v-.14h1.91v.14c-.44,0-.77,.15-.99,.44l-1.08,1.45,1.53,2.16c.24,.36,.6,.55,1.09,.58v.14h-2.42v-.14c.34,0,.51-.09,.51-.27,0-.11-.07-.26-.21-.46l-.92-1.31Z"/>
        <path class="uuid-34c64d10-0380-4e76-8ab1-09f85cc835ae" d="M89.46,37.88c-.32,.07-.59,.14-.82,.22-.32,.12-.57,.21-.76,.27l-.03-1.01c-.69,.68-1.32,1.02-1.89,1.02-.88,0-1.32-.47-1.32-1.42v-2.74c0-.49-.29-.73-.86-.73v-.13h1.67v3.56c0,.55,.33,.82,1,.82,.31,0,.61-.1,.9-.3s.44-.44,.44-.74v-2.48c0-.47-.33-.71-1-.71v-.16h1.81v3.74c0,.43,.28,.65,.85,.65v.13Z"/>
        <path class="uuid-34c64d10-0380-4e76-8ab1-09f85cc835ae" d="M93.3,34.63c0-.45-.17-.67-.51-.67-.14,0-.27,.02-.41,.05v-.15c.6-.18,1.16-.36,1.68-.56l.05,.02v1.07c.58-.75,1.1-1.13,1.55-1.13s.67,.2,.67,.59c0,.27-.15,.41-.45,.41-.15,0-.33-.08-.55-.24-.11-.08-.21-.12-.28-.12-.15,0-.34,.14-.58,.41-.24,.27-.36,.5-.36,.67v2.31c0,.57,.38,.85,1.13,.85v.14h-2.89v-.14c.44-.06,.71-.15,.81-.27,.09-.12,.14-.29,.14-.51v-2.73Z"/>
        <path class="uuid-34c64d10-0380-4e76-8ab1-09f85cc835ae" d="M99.06,38.13c.4,0,.68-.06,.83-.18,.15-.12,.22-.38,.22-.8v-2.53c0-.45-.18-.67-.53-.67-.11,0-.27,.02-.47,.05v-.14c.69-.2,1.28-.39,1.76-.57l.05,.03v3.83c0,.38,.06,.64,.19,.77,.13,.14,.4,.2,.81,.2v.14h-2.86v-.14Zm1.36-7.26c.37,0,.55,.17,.55,.5s-.18,.5-.55,.5-.55-.17-.55-.5,.18-.5,.55-.5Z"/>
        <path class="uuid-34c64d10-0380-4e76-8ab1-09f85cc835ae" d="M110.44,35.79c0,.68-.25,1.28-.74,1.81-.49,.52-1.13,.78-1.9,.78s-1.42-.25-1.92-.74c-.5-.49-.75-1.1-.75-1.83s.24-1.34,.73-1.82c.49-.48,1.11-.73,1.87-.73,.8,0,1.46,.23,1.96,.68,.5,.45,.75,1.07,.75,1.85Zm-.87,.31c0-.71-.18-1.31-.55-1.81-.36-.49-.82-.74-1.38-.74-.45,0-.84,.16-1.15,.47-.32,.31-.47,.73-.47,1.24,0,.8,.17,1.47,.51,2.01,.34,.53,.81,.8,1.41,.8,.47,0,.86-.17,1.17-.52,.31-.35,.46-.83,.46-1.45Z"/>
        <path class="uuid-34c64d10-0380-4e76-8ab1-09f85cc835ae" d="M119.15,37.88c-.32,.07-.59,.14-.82,.22-.32,.12-.57,.21-.76,.27l-.03-1.01c-.69,.68-1.32,1.02-1.89,1.02-.88,0-1.32-.47-1.32-1.42v-2.74c0-.49-.29-.73-.86-.73v-.13h1.67v3.56c0,.55,.33,.82,1,.82,.31,0,.61-.1,.9-.3,.3-.2,.44-.44,.44-.74v-2.48c0-.47-.33-.71-1-.71v-.16h1.81v3.74c0,.43,.28,.65,.85,.65v.13Z"/>
        <path class="uuid-34c64d10-0380-4e76-8ab1-09f85cc835ae" d="M125.61,34.85c-.18-.89-.63-1.34-1.36-1.34-.3,0-.54,.09-.72,.26-.18,.17-.28,.35-.28,.54,0,.3,.18,.55,.55,.74l1.3,.7c.71,.42,1.06,.83,1.06,1.24s-.18,.74-.53,1c-.35,.26-.76,.39-1.22,.39-.21,0-.48-.04-.8-.12-.32-.08-.53-.12-.62-.12s-.18,.06-.28,.19h-.13v-1.71h.17c.26,1.02,.79,1.53,1.58,1.53,.71,0,1.06-.29,1.06-.87,0-.31-.21-.57-.63-.79l-.69-.36c-.68-.36-1.11-.65-1.26-.85-.16-.21-.24-.43-.24-.68,0-.38,.15-.7,.46-.95,.31-.26,.71-.38,1.22-.38,.2,0,.56,.09,1.1,.26,.09,0,.17-.05,.24-.16h.1l.05,1.5h-.15Z"/>
      </g>
    </g>
  </g>
</svg>