<?xml version="1.0" encoding="UTF-8"?>
<svg id="b" data-name="圖層 2" xmlns="http://www.w3.org/2000/svg" width="336.93" height="34.21" viewBox="0 0 336.93 34.21">
  <g id="c" data-name="圖層 3">
    <path d="M14.67,34.21c-2.91,0-5.5-.71-7.7-2.1-2.2-1.39-3.93-3.36-5.15-5.84-1.21-2.46-1.82-5.38-1.82-8.66,0-3.5,.68-6.6,2.01-9.22,1.34-2.63,3.24-4.71,5.66-6.18C10.08,.74,12.93,0,16.14,0c1.86,0,3.73,.33,5.57,.97,1.85,.65,3.39,1.54,4.57,2.66l.34,.32-4.71,5.82-.39-.34c-.84-.72-1.74-1.26-2.67-1.59-.94-.33-2.04-.5-3.26-.5-1.63,0-3.02,.4-4.12,1.19-1.11,.8-1.96,1.97-2.54,3.5-.46,1.21-.74,2.66-.84,4.32,.85-.94,1.82-1.71,2.89-2.31,1.51-.83,3.12-1.26,4.8-1.26,2.19,0,4.15,.44,5.84,1.3,1.7,.87,3.05,2.09,4.01,3.63,.97,1.54,1.46,3.34,1.46,5.32,0,2.11-.54,4.03-1.62,5.72-1.07,1.68-2.56,3.02-4.42,3.99-1.86,.97-4,1.46-6.37,1.46Zm-6.16-12.45c.29,1.05,.7,1.99,1.22,2.77,.55,.83,1.23,1.49,2.02,1.93,.78,.44,1.64,.67,2.56,.67s1.77-.18,2.5-.52c.72-.35,1.29-.83,1.72-1.42,.42-.59,.62-1.25,.62-2.01s-.19-1.43-.56-2c-.38-.59-.9-1.04-1.57-1.37-.68-.33-1.5-.5-2.43-.5-1.24,0-2.4,.23-3.46,.69-.97,.43-1.85,1.02-2.61,1.76Z" style="fill: #0c131b;"/>
    <path d="M45.58,34.21c-3,0-5.66-.72-7.93-2.15-2.26-1.42-4.04-3.45-5.29-6.02-1.24-2.56-1.87-5.56-1.87-8.93s.63-6.42,1.87-8.96c1.25-2.56,3.03-4.58,5.29-6,2.26-1.42,4.93-2.15,7.93-2.15s5.66,.72,7.93,2.15c2.26,1.42,4.04,3.44,5.29,6,1.24,2.54,1.87,5.56,1.87,8.96s-.63,6.38-1.87,8.93c-1.25,2.57-3.03,4.6-5.29,6.02-2.26,1.42-4.93,2.15-7.93,2.15Zm0-26.77c-1.39,0-2.59,.38-3.59,1.12-1.01,.75-1.8,1.86-2.36,3.28-.57,1.45-.86,3.22-.86,5.27s.29,3.78,.86,5.25c.56,1.44,1.36,2.55,2.36,3.3,.99,.74,2.2,1.12,3.59,1.12s2.59-.38,3.59-1.12c1.01-.75,1.8-1.86,2.36-3.3,.57-1.47,.86-3.23,.86-5.25s-.29-3.82-.86-5.27c-.56-1.42-1.36-2.53-2.36-3.28-1-.74-2.2-1.12-3.59-1.12Z" style="fill: #0c131b;"/>
    <path d="M78.65,34.21c-3,0-5.66-.72-7.93-2.15-2.26-1.42-4.04-3.45-5.29-6.02-1.24-2.56-1.87-5.56-1.87-8.93s.63-6.42,1.87-8.96c1.25-2.56,3.03-4.58,5.29-6,2.26-1.42,4.93-2.15,7.93-2.15s5.66,.72,7.93,2.15c2.26,1.42,4.04,3.44,5.29,6,1.24,2.54,1.87,5.56,1.87,8.96s-.63,6.38-1.87,8.93c-1.25,2.57-3.03,4.6-5.29,6.02-2.26,1.42-4.93,2.15-7.93,2.15Zm0-26.77c-1.39,0-2.59,.38-3.59,1.12-1.01,.75-1.8,1.86-2.36,3.28-.57,1.45-.86,3.22-.86,5.27s.29,3.78,.86,5.25c.56,1.44,1.36,2.55,2.36,3.3,.99,.74,2.2,1.12,3.59,1.12s2.59-.38,3.59-1.12c1.01-.75,1.8-1.86,2.36-3.3,.57-1.47,.86-3.23,.86-5.25s-.29-3.82-.86-5.27c-.56-1.42-1.36-2.53-2.36-3.28-1-.74-2.2-1.12-3.59-1.12Z" style="fill: #0c131b;"/>
    <polygon points="116.33 28.05 116.33 20.04 108.83 20.04 108.83 13.52 116.33 13.52 116.33 5.52 123.04 5.52 123.04 13.52 130.53 13.52 130.53 20.04 123.04 20.04 123.04 28.05 116.33 28.05" style="fill: #0c131b;"/>
    <path d="M159.29,34.17c-2.66,0-5.32-.49-7.9-1.46-2.59-.97-4.93-2.33-6.96-4.04l-.36-.31,5.02-6.54,.4,.32c1.92,1.56,3.7,2.69,5.3,3.35,1.59,.66,3.3,1,5.1,1,1.18,0,2.18-.12,2.99-.35,.77-.22,1.36-.54,1.76-.95,.37-.38,.55-.82,.55-1.33,0-.73-.26-1.27-.81-1.67-.61-.44-1.7-.8-3.24-1.06l-7.09-1.24c-2.71-.48-4.83-1.54-6.31-3.14-1.49-1.62-2.25-3.7-2.25-6.18,0-2.18,.56-4.09,1.68-5.67,1.11-1.58,2.72-2.79,4.78-3.63,2.03-.82,4.47-1.23,7.25-1.23,2.43,0,4.92,.42,7.38,1.25,2.47,.83,4.64,2,6.46,3.47l.37,.3-4.76,6.65-.41-.32c-3.21-2.46-6.43-3.71-9.59-3.71-1.02,0-1.91,.11-2.64,.32-.7,.21-1.23,.49-1.58,.84-.32,.32-.47,.69-.47,1.14,0,.63,.23,1.1,.69,1.43,.53,.38,1.45,.7,2.72,.93l6.66,1.1c3.18,.5,5.65,1.59,7.33,3.22,1.7,1.66,2.57,3.82,2.57,6.43,0,2.27-.6,4.27-1.8,5.93-1.19,1.65-2.9,2.94-5.09,3.83-2.17,.88-4.77,1.33-7.73,1.33Z" style="fill: #0c131b;"/>
    <polygon points="185.7 33.71 185.7 8.5 175.17 8.5 175.17 .51 205.14 .51 205.14 8.5 194.61 8.5 194.61 33.71 185.7 33.71" style="fill: #0c131b;"/>
    <path d="M186.2,33.21V8h-10.53V1.01h28.98V8h-10.53v25.21h-7.91Z" style="fill: #0c131b;"/>
    <path d="M223.5,34.21c-2.48,0-4.81-.44-6.95-1.3-2.14-.86-4.03-2.09-5.63-3.65s-2.87-3.39-3.77-5.45c-.9-2.06-1.35-4.32-1.35-6.71s.46-4.64,1.35-6.71c.9-2.06,2.17-3.89,3.77-5.45,1.6-1.56,3.5-2.78,5.63-3.65,2.14-.86,4.47-1.3,6.95-1.3s4.81,.44,6.95,1.3c2.13,.86,4.03,2.09,5.63,3.65,1.6,1.56,2.87,3.39,3.77,5.45,.9,2.06,1.35,4.32,1.35,6.71s-.46,4.65-1.35,6.71c-.9,2.06-2.16,3.89-3.77,5.45-1.6,1.56-3.5,2.78-5.63,3.65-2.14,.86-4.48,1.3-6.95,1.3Zm0-25.94c-1.21,0-2.35,.23-3.39,.67-1.04,.45-1.95,1.07-2.72,1.85-.76,.78-1.37,1.71-1.8,2.78-.43,1.07-.65,2.24-.65,3.49s.22,2.48,.65,3.56c.43,1.08,1.04,2.03,1.8,2.8s1.68,1.4,2.72,1.85c1.04,.45,2.18,.67,3.39,.67s2.36-.23,3.39-.67c1.04-.45,1.95-1.07,2.72-1.85s1.37-1.72,1.8-2.8c.43-1.09,.65-2.27,.65-3.52s-.22-2.47-.65-3.54c-.43-1.07-1.04-2-1.8-2.78-.76-.78-1.68-1.4-2.72-1.85-1.04-.45-2.18-.67-3.39-.67Z" style="fill: #0c131b;"/>
    <path d="M265.75,33.71l-6.07-11.73h-5.22v11.73h-8.91V.51h16.97c2.28,0,4.33,.46,6.12,1.37,1.79,.91,3.21,2.2,4.22,3.81,1.01,1.62,1.53,3.5,1.53,5.58s-.59,4.04-1.75,5.71c-1.05,1.52-2.42,2.72-4.09,3.57l7.19,13.16h-9.98Zm-3.97-19.17c1.11,0,1.97-.29,2.63-.88,.65-.58,.96-1.32,.96-2.25s-.31-1.67-.96-2.25c-.66-.6-1.52-.88-2.63-.88h-7.32v6.27h7.32Z" style="fill: #0c131b;"/>
    <polygon points="278.57 33.71 278.57 .51 304.96 .51 304.96 8.36 287.48 8.36 287.48 13.16 299.03 13.16 299.03 20.78 287.48 20.78 287.48 25.85 305.15 25.85 305.15 33.71 278.57 33.71" style="fill: #0c131b;"/>
    <path d="M322.31,34.17c-2.66,0-5.32-.49-7.9-1.46-2.59-.97-4.93-2.33-6.96-4.04l-.36-.31,5.02-6.54,.4,.32c1.92,1.56,3.7,2.68,5.3,3.35,1.59,.66,3.3,1,5.1,1,1.18,0,2.18-.12,2.99-.35,.77-.22,1.36-.54,1.76-.95,.37-.38,.55-.82,.55-1.33,0-.73-.26-1.27-.81-1.67-.61-.44-1.7-.8-3.24-1.06l-7.09-1.24c-2.71-.48-4.83-1.54-6.31-3.14-1.49-1.62-2.25-3.7-2.25-6.18,0-2.18,.56-4.09,1.68-5.67,1.11-1.57,2.71-2.79,4.78-3.63,2.03-.82,4.47-1.23,7.25-1.23,2.43,0,4.92,.42,7.38,1.25,2.47,.83,4.64,2,6.46,3.47l.37,.3-4.76,6.65-.41-.32c-3.21-2.46-6.43-3.71-9.59-3.71-1.02,0-1.91,.11-2.64,.32-.7,.21-1.23,.49-1.58,.84-.32,.32-.47,.69-.47,1.14,0,.63,.23,1.1,.69,1.43,.53,.38,1.45,.7,2.72,.93l6.66,1.1c3.18,.5,5.65,1.59,7.33,3.22,1.7,1.66,2.57,3.82,2.57,6.43,0,2.27-.6,4.27-1.8,5.93-1.19,1.65-2.9,2.94-5.09,3.83-2.17,.88-4.77,1.33-7.73,1.33Z" style="fill: #0c131b;"/>
  </g>
</svg>