<?xml version="1.0" encoding="UTF-8"?>
<svg id="b" data-name="圖層 2" xmlns="http://www.w3.org/2000/svg" width="335.93" height="33.21" viewBox="0 0 335.93 33.21">
  <defs>
    <style>
      .d {
        fill: #0c131b;
      }
    </style>
  </defs>
  <g id="c" data-name="設計">
    <g>
      <path class="d" d="M14.17,33.21c-2.82,0-5.3-.67-7.43-2.02s-3.79-3.23-4.97-5.64c-1.18-2.41-1.77-5.22-1.77-8.44,0-3.43,.65-6.43,1.96-8.99,1.3-2.56,3.13-4.55,5.47-5.98C9.77,.71,12.51,0,15.64,0c1.81,0,3.61,.31,5.41,.94s3.26,1.48,4.39,2.55l-4.09,5.06c-.89-.77-1.83-1.33-2.83-1.68-1-.35-2.14-.53-3.43-.53-1.75,0-3.22,.43-4.42,1.29-1.2,.86-2.1,2.1-2.71,3.73-.61,1.63-.92,3.62-.92,5.98,1.01-1.44,2.24-2.56,3.68-3.36,1.44-.8,2.96-1.2,4.55-1.2,2.12,0,3.99,.41,5.61,1.24,1.62,.83,2.9,1.98,3.82,3.45,.92,1.47,1.38,3.16,1.38,5.06,0,2.02-.51,3.84-1.54,5.45-1.03,1.61-2.44,2.88-4.23,3.82-1.79,.94-3.84,1.4-6.14,1.4Zm-.09-14.9c-1.32,0-2.54,.25-3.66,.74-1.12,.49-2.11,1.18-2.97,2.07,.31,1.23,.76,2.29,1.36,3.2s1.33,1.6,2.18,2.09,1.79,.74,2.81,.74,1.92-.19,2.71-.57c.8-.38,1.43-.91,1.91-1.59,.47-.67,.71-1.44,.71-2.3s-.21-1.62-.64-2.28-1.02-1.17-1.77-1.54c-.75-.37-1.63-.55-2.65-.55Z"/>
      <path class="d" d="M45.08,33.21c-2.91,0-5.47-.69-7.66-2.07-2.19-1.38-3.89-3.32-5.11-5.82-1.21-2.5-1.82-5.41-1.82-8.72s.61-6.26,1.82-8.74c1.21-2.48,2.91-4.42,5.11-5.8,2.19-1.38,4.75-2.07,7.66-2.07s5.47,.69,7.66,2.07c2.19,1.38,3.89,3.31,5.11,5.8,1.21,2.48,1.82,5.4,1.82,8.74s-.61,6.22-1.82,8.72c-1.21,2.5-2.91,4.44-5.11,5.82-2.19,1.38-4.75,2.07-7.66,2.07Zm0-6.44c1.5,0,2.8-.41,3.89-1.22,1.09-.81,1.93-1.99,2.53-3.52,.6-1.53,.9-3.34,.9-5.43s-.3-3.93-.9-5.45c-.6-1.52-1.44-2.68-2.53-3.5-1.09-.81-2.38-1.22-3.89-1.22s-2.8,.41-3.89,1.22c-1.09,.81-1.93,1.98-2.53,3.5-.6,1.52-.9,3.33-.9,5.45s.3,3.89,.9,5.43c.6,1.53,1.44,2.71,2.53,3.52,1.09,.81,2.38,1.22,3.89,1.22Z"/>
      <path class="d" d="M78.15,33.21c-2.91,0-5.47-.69-7.66-2.07-2.19-1.38-3.89-3.32-5.11-5.82-1.21-2.5-1.82-5.41-1.82-8.72s.61-6.26,1.82-8.74c1.21-2.48,2.91-4.42,5.11-5.8,2.19-1.38,4.75-2.07,7.66-2.07s5.47,.69,7.66,2.07c2.19,1.38,3.89,3.31,5.11,5.8,1.21,2.48,1.82,5.4,1.82,8.74s-.61,6.22-1.82,8.72c-1.21,2.5-2.91,4.44-5.11,5.82-2.19,1.38-4.75,2.07-7.66,2.07Zm0-6.44c1.5,0,2.8-.41,3.89-1.22,1.09-.81,1.93-1.99,2.53-3.52,.6-1.53,.9-3.34,.9-5.43s-.3-3.93-.9-5.45c-.6-1.52-1.44-2.68-2.53-3.5-1.09-.81-2.38-1.22-3.89-1.22s-2.8,.41-3.89,1.22c-1.09,.81-1.93,1.98-2.53,3.5-.6,1.52-.9,3.33-.9,5.45s.3,3.89,.9,5.43c.6,1.53,1.44,2.71,2.53,3.52,1.09,.81,2.38,1.22,3.89,1.22Z"/>
      <path class="d" d="M116.33,27.05v-8h-7.5v-5.52h7.5V5.52h5.7V13.52h7.5v5.52h-7.5v8h-5.7Z"/>
      <path class="d" d="M158.79,33.17c-2.61,0-5.18-.47-7.73-1.43-2.55-.95-4.81-2.27-6.81-3.96l4.42-5.75c1.96,1.59,3.77,2.74,5.43,3.43,1.66,.69,3.42,1.04,5.29,1.04,1.23,0,2.27-.12,3.13-.37,.86-.25,1.52-.61,1.98-1.08,.46-.47,.69-1.04,.69-1.68,0-.89-.34-1.58-1.01-2.07-.67-.49-1.83-.87-3.45-1.15l-7.08-1.24c-2.61-.46-4.62-1.46-6.03-2.99-1.41-1.53-2.12-3.48-2.12-5.84,0-2.08,.53-3.88,1.59-5.38,1.06-1.5,2.58-2.65,4.55-3.45,1.98-.8,4.33-1.2,7.06-1.2,2.39,0,4.8,.41,7.22,1.22,2.42,.81,4.52,1.94,6.3,3.38l-4.19,5.84c-3.31-2.54-6.61-3.82-9.89-3.82-1.07,0-2,.12-2.78,.34-.78,.23-1.38,.55-1.79,.97s-.62,.91-.62,1.49c0,.8,.3,1.41,.9,1.84s1.57,.77,2.92,1.01l6.67,1.1c3.1,.49,5.45,1.52,7.06,3.08,1.61,1.56,2.42,3.59,2.42,6.07,0,2.18-.57,4.06-1.7,5.63-1.13,1.58-2.76,2.8-4.88,3.66s-4.63,1.29-7.54,1.29Z"/>
      <path class="d" d="M185.7,32.71V7.5h-10.53V.51h28.98V7.5h-10.53v25.21h-7.91Z"/>
      <path class="d" d="M223,33.21c-2.42,0-4.68-.42-6.76-1.26-2.09-.84-3.91-2.02-5.47-3.54-1.56-1.52-2.78-3.28-3.66-5.29s-1.31-4.18-1.31-6.51,.44-4.5,1.31-6.51c.87-2.01,2.09-3.77,3.66-5.29,1.56-1.52,3.39-2.7,5.47-3.54,2.08-.84,4.34-1.26,6.76-1.26s4.68,.42,6.76,1.26c2.08,.84,3.91,2.02,5.47,3.54,1.56,1.52,2.78,3.28,3.66,5.29,.87,2.01,1.31,4.18,1.31,6.51s-.44,4.5-1.31,6.51-2.09,3.77-3.66,5.29c-1.56,1.52-3.39,2.7-5.47,3.54-2.09,.84-4.34,1.26-6.76,1.26Zm0-7.27c1.29,0,2.48-.24,3.59-.71,1.1-.48,2.06-1.13,2.88-1.96s1.45-1.82,1.91-2.97c.46-1.15,.69-2.38,.69-3.7s-.23-2.59-.69-3.73c-.46-1.13-1.1-2.12-1.91-2.94-.81-.83-1.77-1.48-2.88-1.96-1.1-.48-2.3-.71-3.59-.71s-2.48,.24-3.59,.71c-1.1,.48-2.06,1.13-2.88,1.96-.81,.83-1.45,1.81-1.91,2.94-.46,1.13-.69,2.36-.69,3.68s.23,2.6,.69,3.75c.46,1.15,1.1,2.14,1.91,2.97s1.77,1.48,2.88,1.96c1.1,.48,2.3,.71,3.59,.71Z"/>
      <path class="d" d="M245.54,32.71V.51h16.47c2.21,0,4.17,.44,5.89,1.31,1.72,.87,3.06,2.09,4.02,3.63,.97,1.55,1.45,3.32,1.45,5.31s-.55,3.83-1.66,5.43c-1.1,1.59-2.56,2.81-4.37,3.63l7.04,12.88h-8.83l-6.07-11.73h-6.03v11.73h-7.91Zm7.91-18.17h7.82c1.23,0,2.21-.34,2.97-1.01,.75-.67,1.13-1.55,1.13-2.62s-.38-1.95-1.13-2.62c-.75-.67-1.74-1.01-2.97-1.01h-7.82v7.27Z"/>
      <path class="d" d="M278.57,32.71V.51h25.39V7.36h-17.48v5.8h11.55v6.62h-11.55v6.07h17.66v6.85h-25.58Z"/>
      <path class="d" d="M321.81,33.17c-2.61,0-5.18-.47-7.73-1.43-2.55-.95-4.81-2.27-6.81-3.96l4.42-5.75c1.96,1.59,3.77,2.74,5.43,3.43,1.66,.69,3.42,1.04,5.29,1.04,1.23,0,2.27-.12,3.13-.37,.86-.25,1.52-.61,1.98-1.08,.46-.47,.69-1.04,.69-1.68,0-.89-.34-1.58-1.01-2.07-.67-.49-1.83-.87-3.45-1.15l-7.08-1.24c-2.61-.46-4.62-1.46-6.03-2.99-1.41-1.53-2.12-3.48-2.12-5.84,0-2.08,.53-3.88,1.59-5.38s2.58-2.65,4.55-3.45c1.98-.8,4.33-1.2,7.06-1.2,2.39,0,4.8,.41,7.22,1.22,2.42,.81,4.52,1.94,6.3,3.38l-4.19,5.84c-3.31-2.54-6.61-3.82-9.89-3.82-1.07,0-2,.12-2.78,.34-.78,.23-1.38,.55-1.79,.97-.41,.41-.62,.91-.62,1.49,0,.8,.3,1.41,.9,1.84,.6,.43,1.57,.77,2.92,1.01l6.67,1.1c3.1,.49,5.45,1.52,7.06,3.08,1.61,1.56,2.42,3.59,2.42,6.07,0,2.18-.57,4.06-1.7,5.63-1.13,1.58-2.76,2.8-4.88,3.66s-4.63,1.29-7.54,1.29Z"/>
    </g>
  </g>
</svg>