<?xml version="1.0" encoding="UTF-8"?>
<svg id="b" data-name="圖層 2" xmlns="http://www.w3.org/2000/svg" width="1023.41" height="102.08" viewBox="0 0 1023.41 102.08">
  <defs>
    <style>
      .d {
        fill: none;
        stroke: #0c131b;
        stroke-miterlimit: 10;
      }
    </style>
  </defs>
  <g id="c" data-name="設計">
    <g>
      <path class="d" d="M43.62,101.58c-8.59,0-16.12-2.05-22.61-6.16-6.49-4.11-11.53-9.82-15.12-17.15-3.59-7.33-5.39-15.89-5.39-25.69,0-10.45,1.98-19.58,5.95-27.37,3.97-7.79,9.52-13.86,16.66-18.2C30.25,2.67,38.58,.5,48.1,.5c5.51,0,10.99,.96,16.45,2.87,5.46,1.91,9.92,4.5,13.37,7.77l-12.46,15.4c-2.71-2.33-5.58-4.04-8.61-5.11-3.03-1.07-6.51-1.61-10.43-1.61-5.32,0-9.8,1.31-13.44,3.92-3.64,2.61-6.39,6.39-8.26,11.34-1.87,4.95-2.8,11.01-2.8,18.2,3.08-4.39,6.81-7.79,11.2-10.22,4.39-2.43,9.01-3.64,13.86-3.64,6.44,0,12.13,1.26,17.08,3.78,4.95,2.52,8.82,6.02,11.62,10.5,2.8,4.48,4.2,9.61,4.2,15.4,0,6.16-1.56,11.69-4.69,16.59-3.13,4.9-7.42,8.77-12.88,11.62-5.46,2.85-11.69,4.27-18.69,4.27Zm-.28-45.36c-4.01,0-7.72,.75-11.13,2.24-3.41,1.49-6.42,3.59-9.03,6.3,.93,3.73,2.31,6.98,4.13,9.73,1.82,2.75,4.04,4.88,6.65,6.37,2.61,1.49,5.46,2.24,8.54,2.24s5.83-.58,8.26-1.75c2.43-1.17,4.36-2.78,5.81-4.83,1.45-2.05,2.17-4.39,2.17-7s-.65-4.92-1.96-6.93c-1.31-2.01-3.1-3.57-5.39-4.69-2.29-1.12-4.97-1.68-8.05-1.68Z"/>
      <path class="d" d="M137.7,101.58c-8.87,0-16.64-2.1-23.31-6.3-6.67-4.2-11.85-10.1-15.54-17.71-3.69-7.61-5.53-16.45-5.53-26.53s1.84-19.04,5.53-26.6c3.69-7.56,8.87-13.44,15.54-17.64,6.67-4.2,14.44-6.3,23.31-6.3s16.64,2.1,23.31,6.3c6.67,4.2,11.85,10.08,15.54,17.64,3.69,7.56,5.53,16.43,5.53,26.6s-1.84,18.92-5.53,26.53c-3.69,7.61-8.87,13.51-15.54,17.71-6.67,4.2-14.44,6.3-23.31,6.3Zm0-19.6c4.57,0,8.52-1.24,11.83-3.71,3.31-2.47,5.88-6.04,7.7-10.71,1.82-4.67,2.73-10.17,2.73-16.52s-.91-11.97-2.73-16.59-4.39-8.17-7.7-10.64c-3.31-2.47-7.26-3.71-11.83-3.71s-8.52,1.24-11.83,3.71c-3.31,2.47-5.88,6.02-7.7,10.64-1.82,4.62-2.73,10.15-2.73,16.59s.91,11.85,2.73,16.52c1.82,4.67,4.39,8.24,7.7,10.71,3.31,2.47,7.26,3.71,11.83,3.71Z"/>
      <path class="d" d="M238.36,101.58c-8.87,0-16.64-2.1-23.31-6.3-6.67-4.2-11.85-10.1-15.54-17.71-3.69-7.61-5.53-16.45-5.53-26.53s1.84-19.04,5.53-26.6c3.69-7.56,8.87-13.44,15.54-17.64,6.67-4.2,14.44-6.3,23.31-6.3s16.64,2.1,23.31,6.3c6.67,4.2,11.85,10.08,15.54,17.64,3.69,7.56,5.53,16.43,5.53,26.6s-1.84,18.92-5.53,26.53c-3.69,7.61-8.87,13.51-15.54,17.71-6.67,4.2-14.44,6.3-23.31,6.3Zm0-19.6c4.57,0,8.52-1.24,11.83-3.71,3.31-2.47,5.88-6.04,7.7-10.71,1.82-4.67,2.73-10.17,2.73-16.52s-.91-11.97-2.73-16.59c-1.82-4.62-4.39-8.17-7.7-10.64-3.31-2.47-7.26-3.71-11.83-3.71s-8.52,1.24-11.83,3.71c-3.31,2.47-5.88,6.02-7.7,10.64-1.82,4.62-2.73,10.15-2.73,16.59s.91,11.85,2.73,16.52c1.82,4.67,4.39,8.24,7.7,10.71,3.31,2.47,7.26,3.71,11.83,3.71Z"/>
      <path class="d" d="M354.55,82.82v-24.36h-22.82v-16.8h22.82V17.3h17.36v24.36h22.82v16.8h-22.82v24.36h-17.36Z"/>
      <path class="d" d="M483.77,101.44c-7.93,0-15.77-1.45-23.52-4.34-7.75-2.89-14.65-6.91-20.72-12.04l13.44-17.5c5.97,4.85,11.48,8.33,16.52,10.43,5.04,2.1,10.41,3.15,16.1,3.15,3.73,0,6.91-.37,9.52-1.12,2.61-.75,4.62-1.84,6.02-3.29,1.4-1.45,2.1-3.15,2.1-5.11,0-2.71-1.03-4.81-3.08-6.3-2.05-1.49-5.55-2.66-10.5-3.5l-21.56-3.78c-7.93-1.4-14.05-4.43-18.34-9.1-4.29-4.67-6.44-10.59-6.44-17.78,0-6.35,1.61-11.81,4.83-16.38,3.22-4.57,7.84-8.07,13.86-10.5,6.02-2.43,13.18-3.64,21.49-3.64,7.28,0,14.61,1.24,21.98,3.71,7.37,2.47,13.77,5.9,19.18,10.29l-12.74,17.78c-10.08-7.75-20.11-11.62-30.1-11.62-3.27,0-6.09,.35-8.47,1.05-2.38,.7-4.2,1.68-5.46,2.94-1.26,1.26-1.89,2.78-1.89,4.55,0,2.43,.91,4.29,2.73,5.6,1.82,1.31,4.78,2.33,8.89,3.08l20.3,3.36c9.43,1.49,16.59,4.62,21.49,9.38,4.9,4.76,7.35,10.92,7.35,18.48,0,6.63-1.73,12.34-5.18,17.15-3.45,4.81-8.4,8.52-14.84,11.13-6.44,2.61-14.09,3.92-22.96,3.92Z"/>
      <path class="d" d="M565.67,100.04V23.32h-32.06V2.04h88.2V23.32h-32.06V100.04h-24.08Z"/>
      <path class="d" d="M679.21,101.58c-7.38,0-14.23-1.28-20.58-3.85-6.35-2.57-11.9-6.16-16.66-10.78s-8.47-9.99-11.13-16.1c-2.66-6.11-3.99-12.72-3.99-19.81s1.33-13.7,3.99-19.81c2.66-6.11,6.37-11.48,11.13-16.1s10.31-8.21,16.66-10.78c6.35-2.57,13.21-3.85,20.58-3.85s14.23,1.28,20.58,3.85c6.35,2.57,11.9,6.16,16.66,10.78,4.76,4.62,8.47,9.99,11.13,16.1,2.66,6.11,3.99,12.72,3.99,19.81s-1.33,13.7-3.99,19.81c-2.66,6.11-6.37,11.48-11.13,16.1-4.76,4.62-10.31,8.21-16.66,10.78-6.35,2.57-13.21,3.85-20.58,3.85Zm0-22.12c3.92,0,7.56-.72,10.92-2.17,3.36-1.45,6.28-3.43,8.75-5.95,2.47-2.52,4.41-5.53,5.81-9.03s2.1-7.26,2.1-11.27-.7-7.89-2.1-11.34c-1.4-3.45-3.34-6.44-5.81-8.96-2.47-2.52-5.39-4.5-8.75-5.95-3.36-1.45-7-2.17-10.92-2.17s-7.56,.72-10.92,2.17c-3.36,1.45-6.28,3.43-8.75,5.95-2.47,2.52-4.41,5.51-5.81,8.96-1.4,3.45-2.1,7.19-2.1,11.2s.7,7.91,2.1,11.41,3.34,6.51,5.81,9.03c2.47,2.52,5.39,4.5,8.75,5.95,3.36,1.45,7,2.17,10.92,2.17Z"/>
      <path class="d" d="M747.81,100.04V2.04h50.12c6.72,0,12.69,1.33,17.92,3.99,5.23,2.66,9.31,6.35,12.25,11.06,2.94,4.71,4.41,10.1,4.41,16.17s-1.68,11.67-5.04,16.52c-3.36,4.85-7.79,8.54-13.3,11.06l21.42,39.2h-26.88l-18.48-35.7h-18.34v35.7h-24.08Zm24.08-55.3h23.8c3.73,0,6.74-1.03,9.03-3.08,2.29-2.05,3.43-4.71,3.43-7.98s-1.14-5.93-3.43-7.98c-2.29-2.05-5.3-3.08-9.03-3.08h-23.8v22.12Z"/>
      <path class="d" d="M848.33,100.04V2.04h77.28V22.9h-53.2v17.64h35.14v20.16h-35.14v18.48h53.76v20.86h-77.84Z"/>
      <path class="d" d="M979.93,101.44c-7.93,0-15.77-1.45-23.52-4.34-7.75-2.89-14.65-6.91-20.72-12.04l13.44-17.5c5.97,4.85,11.48,8.33,16.52,10.43,5.04,2.1,10.41,3.15,16.1,3.15,3.73,0,6.91-.37,9.52-1.12,2.61-.75,4.62-1.84,6.02-3.29,1.4-1.45,2.1-3.15,2.1-5.11,0-2.71-1.03-4.81-3.08-6.3-2.05-1.49-5.55-2.66-10.5-3.5l-21.56-3.78c-7.93-1.4-14.05-4.43-18.34-9.1-4.29-4.67-6.44-10.59-6.44-17.78,0-6.35,1.61-11.81,4.83-16.38,3.22-4.57,7.84-8.07,13.86-10.5,6.02-2.43,13.18-3.64,21.49-3.64,7.28,0,14.61,1.24,21.98,3.71,7.37,2.47,13.77,5.9,19.18,10.29l-12.74,17.78c-10.08-7.75-20.11-11.62-30.1-11.62-3.27,0-6.09,.35-8.47,1.05-2.38,.7-4.2,1.68-5.46,2.94-1.26,1.26-1.89,2.78-1.89,4.55,0,2.43,.91,4.29,2.73,5.6,1.82,1.31,4.78,2.33,8.89,3.08l20.3,3.36c9.43,1.49,16.59,4.62,21.49,9.38,4.9,4.76,7.35,10.92,7.35,18.48,0,6.63-1.73,12.34-5.18,17.15-3.45,4.81-8.4,8.52-14.84,11.13-6.44,2.61-14.09,3.92-22.96,3.92Z"/>
    </g>
  </g>
</svg>