<?xml version="1.0" encoding="UTF-8"?>
<svg id="_層_2" data-name="圖層 2" xmlns="http://www.w3.org/2000/svg" width="99.03" height="135.34" viewBox="0 0 99.03 135.34">
  <defs>
    <style>
      .cls-1, .cls-2 {
        fill: #e8b78a;
      }

      .cls-3 {
        fill: #fce9d4;
      }

      .cls-2 {
        stroke: #2d2a26;
        stroke-linecap: round;
        stroke-linejoin: round;
        stroke-width: 1.71px;
      }

      .cls-4 {
        fill: #f18a00;
      }

      .cls-5 {
        fill: #2d2a26;
      }
    </style>
  </defs>
  <g id="_層_3" data-name="圖層 3">
    <g>
      <g>
        <g>
          <path class="cls-1" d="M30.9,89.8c-.13,0-.26-.03-.38-.09-.08-.04-8.2-4.15-19.29-13.2-5.35-4.36-13.3-13.32-9.2-19.25,1.16-1.68,2.77-2.54,4.77-2.54,4.37,0,9.78,4.11,14.52,7.96,5.83,4.74,12.45,7.41,12.52,7.44,.37,.15,.59,.53,.53,.92l-2.61,18.03c-.04,.27-.21,.51-.45,.64-.12,.06-.26,.1-.4,.1Z"/>
          <path class="cls-5" d="M6.79,55.58c4.15,0,9.64,4.24,13.97,7.77,6.01,4.89,12.74,7.57,12.74,7.57l-2.61,18.02s-7.99-4-19.14-13.1c-4.62-3.77-12.88-12.54-9.04-18.1,1.06-1.54,2.47-2.17,4.07-2.17m0-1.71c-2.27,0-4.16,1-5.47,2.9-5.49,7.93,7.83,19.15,9.36,20.4,11.16,9.11,19.12,13.13,19.45,13.3,.24,.12,.5,.18,.77,.18s.54-.06,.79-.19c.49-.25,.82-.73,.9-1.27l2.61-18.02c.11-.78-.33-1.54-1.06-1.84-.06-.03-6.58-2.65-12.3-7.3-4.85-3.94-10.41-8.15-15.06-8.15h0Z"/>
        </g>
        <g>
          <path class="cls-1" d="M90.68,107.64c-5.12,0-7.57-7.23-9.35-12.5-.24-.71-.47-1.38-.68-1.98-1.92-5.33-4.94-19.9-5.07-20.52-.04-.22,0-.45,.12-.64l4.21-6.57c.14-.22,.37-.36,.62-.39,.03,0,.07,0,.1,0,.22,0,.44,.09,.6,.24,.41,.4,10.11,9.88,14.15,20.23,2.08,5.32,4.08,12.7,1.82,17.65-.91,1.99-2.43,3.38-4.51,4.12-.68,.24-1.35,.36-1.99,.36Z"/>
          <path class="cls-5" d="M80.62,65.9s9.93,9.63,13.95,19.92c3.82,9.78,4.16,18.41-2.18,20.65-.6,.21-1.17,.31-1.71,.31-5.15,0-7.49-9.09-9.23-13.92-1.92-5.33-5.04-20.4-5.04-20.4l4.21-6.57m0-1.71c-.07,0-.13,0-.2,.01-.51,.06-.97,.34-1.24,.78l-4.21,6.57c-.24,.38-.33,.83-.24,1.27,.13,.62,3.16,15.25,5.11,20.63,.22,.6,.44,1.26,.68,1.97,1.87,5.52,4.43,13.08,10.16,13.08,.74,0,1.51-.14,2.28-.41,2.31-.82,3.99-2.36,5.01-4.57,2.39-5.22,.34-12.85-1.8-18.32-4.11-10.52-13.94-20.12-14.35-20.53-.32-.31-.75-.48-1.19-.48h0Z"/>
        </g>
      </g>
      <path class="cls-1" d="M57.81,125.46c-.69,0-1.16-.02-1.35-.03-.19,.01-.66,.03-1.35,.03-5.17,0-22.4-1.2-26.9-16.67-2.65-9.14-1.74-19.73-.51-27.01,1.33-7.84,3.25-13.47,3.33-13.71l.29-.85h50.27l.29,.85c.08,.24,2,5.87,3.33,13.71,1.23,7.28,2.14,17.87-.52,27.01-4.49,15.47-21.72,16.67-26.89,16.67Z"/>
      <path class="cls-2" d="M85.4,82.94c1.13,7.21,1.82,17.18-.7,25.85-1.12,3.86-3.14,6.83-5.6,9.13h0l-.34,4.58c-.01,.18-.29,4.52-1.13,7.52l-.03,.11c-.73,2.49-3.1,4.26-5.76,4.3-1.48,.02-3.92,.06-5.96,.06-2.55,0-3.25-.06-3.55-.09-2.78-.35-3.67-3.21-3.96-4.15-.27-.87-.47-2.72-.61-4.81-.46,.01-.85,.02-1.19,.02-.39,0-.86,0-1.39-.03-.14,2.09-.34,3.94-.62,4.81-.29,.94-1.19,3.8-3.96,4.15-.3,.04-.99,.09-3.55,.09-2.04,0-4.47-.04-5.95-.06-2.67-.04-5.04-1.81-5.76-4.3l-.04-.11c-.83-3-1.11-7.35-1.12-7.52l-.34-4.57c-2.47-2.28-4.48-5.26-5.61-9.13-2.52-8.67-1.76-18.41-.62-25.62"/>
      <g>
        <g>
          <path class="cls-1" d="M51.14,75.75c-19.72,0-34.3-11.14-37.14-28.38-1.09-6.59-.31-12.81,2.31-18.49,.21-.45,.63-1.28,1.46-2.73-.73-.42-1.39-.97-1.98-1.64-1.62-1.82-2.27-4.03-1.87-6.38,.36-2.15,1.62-4.28,3.54-5.98,2.04-1.82,4.44-2.82,6.75-2.82,.66,0,1.31,.08,1.93,.25,1.45,.38,2.73,1.18,3.79,2.38,.4,.45,.74,.93,1.03,1.43,5.2-3.05,11.14-5.14,17.68-6.22,3.06-.51,6.12-.76,9.1-.76,3.31,0,6.53,.32,9.59,.94,.11-.57,.28-1.14,.52-1.7,.62-1.47,1.57-2.64,2.82-3.47,1.29-.85,2.88-1.31,4.59-1.31,1.47,0,2.97,.32,4.46,.95,2.36,1,4.24,2.6,5.27,4.52,1.13,2.1,1.23,4.39,.28,6.64-.34,.81-.79,1.54-1.34,2.17,5.63,4.76,9.13,11.13,10.42,18.94,1.67,10.08-.99,19.42-7.69,27.01-6.32,7.17-15.84,12.11-26.81,13.92-2.91,.48-5.84,.73-8.69,.73h0Z"/>
          <path class="cls-5" d="M75.24,1.71c1.33,0,2.74,.3,4.13,.88,4.38,1.84,6.86,5.85,5.09,10.05-.44,1.04-1.06,1.9-1.81,2.57h-.01c5.67,4.52,9.49,10.8,10.85,19.02,3.38,20.46-12.08,36.36-33.8,39.95-2.9,.48-5.76,.71-8.55,.71-18.14,0-33.37-9.94-36.3-27.67-1.09-6.62-.2-12.69,2.24-17.99,.58-1.25,1.88-3.45,1.88-3.45h0c-.92-.39-1.79-1-2.54-1.85-3.02-3.4-1.96-8,1.59-11.15,1.88-1.67,4.08-2.6,6.18-2.6,.58,0,1.16,.07,1.71,.22,1.23,.32,2.39,1.01,3.36,2.12,.58,.65,1.01,1.35,1.31,2.08,5.2-3.2,11.38-5.47,18.18-6.59,3.04-.5,6.04-.75,8.96-.75,3.59,0,7.06,.38,10.34,1.12h-.01c.05-.79,.23-1.6,.57-2.4,.57-1.36,1.44-2.38,2.51-3.09,1.18-.78,2.6-1.16,4.12-1.16m0-1.71c-1.88,0-3.63,.5-5.06,1.45-1.39,.92-2.45,2.22-3.14,3.85-.14,.34-.27,.69-.37,1.04-2.87-.53-5.87-.8-8.95-.8s-6.13,.26-9.24,.77c-6.34,1.05-12.14,3.03-17.25,5.91-.21-.29-.43-.58-.67-.85-1.18-1.32-2.59-2.21-4.21-2.64-.69-.18-1.41-.27-2.15-.27-2.52,0-5.12,1.08-7.32,3.03-2.06,1.83-3.42,4.13-3.81,6.48-.43,2.58,.3,5.1,2.08,7.09,.45,.51,.95,.96,1.48,1.35-.49,.87-.86,1.58-1.1,2.1-2.69,5.84-3.49,12.23-2.38,18.99,2.92,17.68,17.83,29.1,37.99,29.1,2.9,0,5.87-.25,8.83-.74,11.16-1.84,20.87-6.89,27.32-14.2,6.77-7.68,9.58-17.52,7.89-27.72-1.28-7.73-4.67-14.08-10.09-18.91,.37-.53,.69-1.1,.95-1.72,2.02-4.8-.5-9.97-6.01-12.29-1.6-.67-3.21-1.02-4.79-1.02h0Z"/>
        </g>
        <g>
          <g>
            <path class="cls-4" d="M81.49,11.42c1.11-2.62-.45-5.13-3.19-6.29-1.85-.78-3.77-.74-5.16,.18-.67,.44-1.21,1.08-1.57,1.93-.28,.67-.39,1.33-.36,1.97,3.18,.99,6.14,2.36,8.8,4.09,.62-.45,1.13-1.07,1.47-1.88Z"/>
            <path class="cls-4" d="M18.77,21.78c-1.89-2.13-1.23-5,1-6.98,1.5-1.33,3.33-1.91,4.94-1.49,.77,.2,1.49,.63,2.11,1.32,.48,.54,.8,1.14,.97,1.75-2.69,1.96-5.05,4.21-7.02,6.7-.73-.22-1.42-.65-2-1.31Z"/>
          </g>
          <path class="cls-3" d="M43.45,50.79c-.88,1.73-1.22,3.7-.87,5.85,1.09,6.62,7.99,9.8,15.63,8.54,7.65-1.26,13.15-6.49,12.05-13.11-1.09-6.62-7.95-9.56-15.59-8.3-5.17,.85-9.38,3.41-11.22,7.03"/>
          <path class="cls-5" d="M57.11,59.44c-.41,0-.77-.29-.84-.71l-.99-5.64c-.08-.47,.23-.91,.69-.99,.47-.08,.91,.23,.99,.69l.99,5.64c.08,.47-.23,.91-.69,.99-.05,0-.1,.01-.15,.01Z"/>
          <path class="cls-5" d="M59.28,49.96c.25,1.49-1.12,2.96-3.05,3.28-1.93,.32-3.69-.63-3.94-2.12-.25-1.49,1.12-2.96,3.05-3.28,1.93-.32,3.69,.63,3.94,2.12Z"/>
          <path class="cls-5" d="M68.11,39.04c-1.16,.19-1.94,1.29-1.75,2.45,.19,1.16,1.29,1.94,2.45,1.75,1.16-.19,1.94-1.29,1.75-2.45-.19-1.16-1.29-1.94-2.45-1.75Z"/>
          <path class="cls-5" d="M38.68,46.05c.19,1.16,1.29,1.95,2.45,1.75,1.16-.19,1.95-1.29,1.75-2.45-.19-1.16-1.29-1.95-2.45-1.75-1.16,.19-1.95,1.29-1.75,2.45Z"/>
        </g>
      </g>
      <path class="cls-2" d="M53.06,125.16h.05c2.26,.35,4.56,.34,6.82,0h0"/>
    </g>
  </g>
</svg>