<?xml version="1.0" encoding="UTF-8"?>
<svg id="_層_2" data-name="圖層 2" xmlns="http://www.w3.org/2000/svg" width="32.73" height="40.48" viewBox="0 0 32.73 40.48">
  <defs>
    <style>
      .cls-1 {
        fill: #e8b78a;
      }

      .cls-2 {
        fill: #fce9d4;
      }

      .cls-3 {
        fill: #f18a00;
      }

      .cls-4 {
        fill: #2d2a26;
      }
    </style>
  </defs>
  <g id="_層_3" data-name="圖層 3">
    <g>
      <g>
        <path class="cls-2" d="M31.47,12.73c-.43-.7-4.58-2.4-12.78-3.43-8.26-1.04-12.71-.4-13.24,.17l.59,26.06c0,.06,.01,.12,0,.18-.07,.58,2.56,2.47,8.91,3.27,6.26,.79,9.28-.34,9.44-.93h0s0-.09,.02-.14l7.05-25.18Z"/>
        <path class="cls-4" d="M18.84,8.07c-1.43-.18-13.84-1.66-14.6,1.07-.03,.07-.04,.15-.04,.23l.6,26.27v.02c-.05,1.02,.96,1.97,3.01,2.83,1.84,.77,4.32,1.38,6.99,1.72,2.67,.34,5.23,.36,7.19,.07,2.28-.34,3.5-1.05,3.64-2.11l7.04-25.13c.02-.06,.04-.12,.05-.18,.37-2.92-12.42-4.61-13.88-4.8Zm5.55,29.98c-.16,.59-3.18,1.72-9.44,.93-6.35-.8-8.98-2.69-8.91-3.27,0-.06,0-.12,0-.18l-.59-26.06c.54-.57,4.98-1.21,13.24-.17,8.2,1.03,12.35,2.73,12.78,3.43l-7.05,25.18s-.02,.09-.02,.13h0Z"/>
      </g>
      <path class="cls-3" d="M31.68,11.11c-.21-.69-.65-1.15-1.24-1.41-.15-.07-.31-.12-.49-.14h0c0-.23-.03-.46-.1-.67-.21-.69-.66-1.15-1.24-1.41-.29-.13-.63-.2-.98-.2,.02-.29,0-.57-.09-.85-.21-.69-.66-1.15-1.24-1.41-.58-.26-1.4-.27-2-.03-.18,.07-.34,.17-.49,.29-.23-.6-.64-1.02-1.18-1.26-.58-.26-1.4-.27-2-.03-.26,.1-.5,.28-.7,.49-.24-.43-.6-.73-1.03-.93-.58-.26-1.4-.27-2-.03-.42,.17-.78,.51-1.02,.9-.22-.62-.64-1.05-1.19-1.29-.58-.26-1.4-.27-2-.03-.65,.26-1.18,.91-1.3,1.58-.02,.09-.02,.18-.02,.27-.34,0-.67,.05-.96,.17-.65,.26-1.18,.91-1.3,1.58-.03,.17-.04,.34-.04,.5h0c-.12-.08-.26-.16-.4-.22-.58-.27-1.4-.27-2-.04-.66,.26-1.18,.91-1.31,1.59-.04,.22-.06,.45-.04,.67h0c.52,.55,1.28,1.11,3.1,1.67,.16,.11,1.39,.38,1.39,.38,1.32,.37,4.89,.94,4.89,.94,.67,.13,4.9,.58,9.31,.64,3.96,.06,7.56-.33,7.74-.59,.06-.37,.04-.75-.07-1.11Zm-4.6,.5h.02v.02s0-.02-.02-.02Z"/>
      <path class="cls-4" d="M4.87,9.45c1.18,1.12,2.77,1.59,4.32,1.93,1.76,.39,3.54,.71,5.32,.99,3.56,.56,7.17,.9,10.78,.88,2.08-.01,4.16-.13,6.23-.4,.85-.11,.66-1.44-.19-1.32-7,.91-14.08,.13-20.96-1.27-1.66-.34-3.41-.67-4.68-1.87-.26-.25-.73-.14-.94,.12-.24,.31-.14,.69,.12,.94h0Z"/>
      <path class="cls-4" d="M9.42,8.42s.05,.07,.07,.11c-.04-.07,0,0,0,.01,.01,.02,.02,.04,.03,.06,.04,.08,.07,.17,.1,.26,.01,.04,0,.03,0,0,0,.02,.01,.04,.02,.06,.01,.05,.02,.1,.03,.15,0,.04,.01,.09,.02,.13,0,.03,0,.17,0,.08,0,.09,0,.18-.02,.27,0,.05-.01,.1-.02,.15,0,.02-.01,.04-.01,.06-.01,.06,.02-.06,0,0-.03,.09-.06,.18-.1,.26,0,.02-.02,.04-.03,.06,0,0-.05,.09-.02,.04,.02-.04-.01,.02-.02,.03-.01,.02-.03,.05-.05,.07-.12,.17-.11,.43,.07,.55,.17,.12,.43,.11,.55-.07,.57-.83,.56-1.94-.01-2.77-.12-.17-.4-.2-.55-.07-.17,.14-.2,.37-.07,.55h0Z"/>
      <path class="cls-4" d="M13.04,8.16c.28-.38,.71-.64,1.16-.73,.49-.1,.95-.04,1.39,.22,.16,.09,.37-.03,.44-.18,.08-.18-.02-.35-.18-.44-1.09-.63-2.6-.28-3.35,.72-.26,.35,.27,.75,.53,.41h0Z"/>
      <path class="cls-4" d="M16.49,8.52s.09,.07,.13,.12l-.06-.06c.1,.1,.18,.21,.25,.32,.03,.04,.06,.06,.1,.08,.04,.03,.08,.04,.12,.04,.05,0,.09,0,.13-.01,.04,0,.08-.03,.12-.06,.07-.06,.12-.13,.13-.22v-.09c0-.06-.03-.11-.07-.16-.12-.19-.27-.36-.44-.5-.04-.03-.07-.05-.12-.05-.04-.02-.09-.02-.13-.01-.04,0-.08,.02-.12,.05-.04,.02-.07,.05-.1,.08-.05,.07-.08,.16-.07,.25,.02,.09,.06,.16,.13,.22h0Z"/>
      <path class="cls-4" d="M30.11,8.75c-.03-1.32-1.17-2.1-2.44-2.23-.04-.85-.52-1.64-1.34-2.05-.83-.42-1.74-.32-2.54,.04-.55-1.23-2.59-1.76-3.77-.98-.88-1.23-2.68-1.47-3.84-.51-1.31-1.75-5.04-1.14-5.4,.88-1.18-.09-2.26,.73-2.52,1.88-1.61-.35-3.26,.71-3.36,2.59-.04,.85,1.28,1.03,1.33,.17,.06-1.21,1.21-1.96,2.29-1.24,.45,.3,1.2-.01,1.07-.63-.23-1.08,.65-1.71,1.59-1.27,.13,.06,.63,.36,.77,.43,.3,.14,.61,.26,.93,.36,.21,.07,.45,.04,.51-.21,.07-.27-.2-.42-.41-.52-.29-.13-.56-.31-.71-.61-.12-.23-.22-.52-.12-.78,.07-.17,.2-.3,.35-.4,.36-.26,.83-.37,1.27-.37,.44,0,.92,.11,1.22,.45,.2,.23,.3,.53,.31,.83,.02,.67,1.07,.76,1.28,.16,.52-1.45,2.41-1.27,2.59,.28,.09,.77,1.2,.72,1.33-.01,.16-.95,2.47-.55,2.01,.46-.27,.6,.52,1.23,1.03,.79,.46-.4,1.02-.76,1.66-.71,.68,.06,1.36,.65,1.1,1.4-.16,.47,.19,.99,.71,.92,.84-.12,1.89,.16,1.72,1.2-.5,0-1.01,.23-1.3,.64-.1,.14-.09,.36,.06,.47,.14,.1,.36,.09,.47-.06,.43-.62,1.27-.36,1.78,0,.21,.15,.38,.34,.5,.57,.18,.35,.22,.76,.15,1.15-.15,.85,1.22,.98,1.37,.14,.24-1.33-.48-2.62-1.67-3.21ZM12.59,5.37h0Z"/>
      <path class="cls-4" d="M5.62,34.72c2.43,2.26,6.1,2.86,9.27,3.3,3.39,.47,6.87,.41,10.13-.72,.41-.14,.14-.76-.26-.62-3.15,1.09-6.51,1.12-9.78,.67-3.07-.42-6.6-.97-8.95-3.16-.32-.29-.72,.24-.41,.53h0Z"/>
      <g>
        <path class="cls-2" d="M25.73,1.85c-.26,.11-.51,.16-.75,.13-.05,0-.1-.02-.15-.03-.21-.05-.37-.16-.5-.28-.32,2.45-.63,5.58-.84,8.46l1.45-.13s0-.05,0-.07l.79-8.07Z"/>
        <path class="cls-2" d="M24.94,1.57c.24,.06,.51,0,.81-.17-.04-.31-.29-.56-.62-.6-.3-.03-.58,.14-.7,.4,.1,.14,.26,.31,.5,.37Z"/>
        <path class="cls-4" d="M26.55,1.63c.08-.81-.52-1.55-1.33-1.62-.8-.08-1.52,.48-1.62,1.29-.33,2.52-.67,5.83-.89,8.84-.02,.21,.14,.39,.34,.42h.02c.22,.02,.41-.15,.42-.36v-.07c.22-2.87,.53-6,.85-8.46-.25-.22-.36-.48-.37-.5-.04-.1,0-.22,.1-.26,.1-.04,.22,0,.26,.1,0,0,.04,.08,.11,.18,.12-.26,.4-.43,.7-.4,.32,.04,.58,.29,.62,.6,.1-.06,.19-.12,.29-.2,.09-.07,.21-.05,.28,.03,.07,.09,.05,.21-.03,.28-.19,.15-.38,.26-.56,.34l-.79,8.07s0,.05,0,.07c.02,.18,.15,.33,.35,.36,.22,.02,.41-.14,.43-.35l.82-8.37Z"/>
        <path class="cls-4" d="M24.99,1.98c.24,.03,.48-.01,.75-.13,.18-.08,.37-.19,.56-.34,.09-.07,.1-.19,.03-.28-.07-.09-.19-.1-.28-.03-.1,.08-.2,.14-.29,.2-.3,.17-.57,.23-.81,.17-.24-.06-.41-.24-.5-.37-.07-.1-.11-.17-.11-.18-.04-.1-.16-.15-.26-.1-.1,.04-.15,.16-.1,.26,0,.02,.12,.28,.37,.5,.13,.12,.29,.22,.5,.28,.05,.01,.1,.02,.15,.03Z"/>
      </g>
      <path class="cls-4" d="M22.61,12.18c-.17-.02-.31-.15-.34-.33-.19-1.17,.61-2.27,1.78-2.46,1.17-.19,2.27,.61,2.46,1.78,.03,.22-.11,.42-.33,.45-.22,.04-.42-.11-.45-.33-.12-.74-.81-1.24-1.55-1.12-.74,.12-1.24,.81-1.12,1.55,.03,.22-.11,.42-.33,.45-.04,0-.08,0-.11,0Z"/>
      <path class="cls-4" d="M16.06,10.75c-.2-.03-.36-.21-.34-.42,.07-1.18,1.09-2.08,2.27-2.01,1.18,.07,2.08,1.09,2.01,2.27-.01,.22-.2,.38-.42,.37-.22-.01-.38-.2-.37-.42,.04-.74-.52-1.39-1.27-1.43-.74-.04-1.39,.52-1.43,1.27-.01,.22-.2,.38-.42,.37h-.03Z"/>
      <path class="cls-4" d="M12.83,10.52s-.09-.02-.13-.04c-.19-.1-.27-.34-.17-.53,.14-.27,.17-.59,.08-.88-.09-.29-.3-.53-.57-.68-.57-.29-1.26-.07-1.56,.49-.1,.19-.34,.27-.53,.17-.19-.1-.27-.34-.17-.53,.49-.95,1.67-1.33,2.62-.83,.46,.24,.8,.64,.96,1.14,.16,.5,.11,1.02-.13,1.48-.08,.15-.24,.23-.4,.21Z"/>
      <path class="cls-4" d="M18.58,9.27c-.17-.02-.32-.16-.34-.34-.16-1.18,.57-2.01,1.37-2.31,.79-.3,1.89-.17,2.55,.81,.12,.18,.07,.43-.11,.55-.18,.12-.43,.07-.55-.11-.45-.66-1.15-.69-1.61-.52-.47,.18-.98,.67-.87,1.47,.03,.22-.12,.42-.34,.44-.04,0-.07,0-.1,0Z"/>
      <path class="cls-4" d="M15.19,7.33c-.13-.02-.24-.12-.26-.25-.11-.83,.4-1.41,.96-1.63,.67-.26,1.39-.03,1.79,.57,.09,.14,.06,.32-.08,.41-.14,.09-.32,.05-.41-.08-.3-.45-.78-.47-1.09-.35-.32,.12-.66,.45-.59,.99,.02,.16-.09,.31-.25,.33-.03,0-.05,0-.08,0Z"/>
      <g>
        <path class="cls-4" d="M18.88,29.49c-.73-.08-1.1-.12-1.83-.2h-.06l-.06,.49,.67,.07-.19,1.65,.61,.07,.19-1.65,.67,.07,.06-.5h-.06Z"/>
        <path class="cls-4" d="M14.4,29.27c-.1-.11-.22-.21-.36-.28-.14-.07-.3-.12-.47-.14-.17-.02-.34-.01-.49,.03-.15,.04-.29,.1-.41,.19-.12,.09-.22,.2-.3,.32-.08,.13-.13,.27-.15,.43-.02,.16,0,.31,.03,.45s.11,.27,.21,.39c.1,.11,.22,.21,.36,.28,.14,.07,.3,.12,.47,.14,.06,0,.12,.01,.17,.01,.11,0,.22-.01,.32-.04,.15-.04,.29-.1,.41-.19,.12-.09,.22-.2,.3-.33,.08-.13,.13-.28,.15-.43,.02-.16,0-.32-.04-.46-.04-.14-.12-.27-.21-.39Zm-.36,.77c-.01,.09-.04,.17-.08,.24-.04,.07-.09,.13-.15,.17-.06,.05-.13,.08-.21,.1-.08,.02-.16,.03-.24,.02s-.17-.03-.24-.07c-.07-.04-.13-.09-.17-.15-.05-.06-.08-.13-.1-.2-.02-.07-.03-.16-.01-.25,.01-.09,.04-.17,.08-.24,.04-.07,.09-.13,.15-.17,.06-.05,.13-.08,.21-.1,.05-.01,.11-.02,.17-.02,.03,0,.05,0,.08,0,.09,.01,.16,.03,.23,.07,.07,.04,.13,.09,.17,.15,.05,.06,.08,.13,.1,.2,.02,.07,.03,.16,.02,.25Z"/>
        <path class="cls-4" d="M15.03,29.12c-.1,.81-.15,1.22-.25,2.03v.06l.6,.07v-.06c.1-.81,.15-1.22,.25-2.03v-.06l-.6-.07v.06Z"/>
        <path class="cls-4" d="M20.04,30.05c-.13-.01-.26,0-.38,.05l.06-.53-.59-.06v.06c-.1,.81-.14,1.22-.23,2.03v.06l.58,.06,.1-.93c.02-.16,.17-.27,.33-.26,.08,0,.16,.05,.21,.11,.05,.06,.07,.13,.06,.21l-.1,.93,.59,.06,.1-.93c.02-.21-.04-.41-.17-.57-.14-.17-.34-.28-.56-.3Z"/>
        <path class="cls-4" d="M11.52,29.59c.28-.29,.43-.45,.73-.76l.08-.08-.7-.09-.02,.02c-.26,.27-.39,.4-.63,.66-.07-.02-.15-.03-.23-.04-.02,0-.05,0-.07,0l.1-.74-.6-.08v.06c-.12,.81-.17,1.22-.28,2.03v.06l.59,.08,.12-.91s.05,0,.07,0c.24,.03,.44,.13,.56,.29,.13,.17,.18,.39,.14,.66v.06l.6,.07v-.06c.03-.19,.07-.83-.46-1.23Z"/>
        <path class="cls-4" d="M22.63,31.27c.08-.07,.12-.18,.12-.32,0-.31-.22-.67-.85-.71-.56-.03-.95,.28-1.01,.78,0,.05,0,.09,0,.14,0,.12,.03,.23,.08,.32,.07,.14,.18,.26,.32,.35,.14,.09,.31,.14,.51,.16,.04,0,.09,0,.13,0,.11,0,.2-.01,.29-.04,.13-.04,.24-.09,.33-.18l.04-.04-.3-.38-.05,.04c-.05,.04-.11,.07-.17,.09-.06,.02-.13,.02-.21,.01-.09,0-.17-.03-.23-.07-.06-.04-.1-.08-.13-.14,0,0,0-.02-.01-.03,.3,.03,.48,.05,.8,.08,.14,.01,.25-.02,.34-.09Zm-.74-.56c.26,0,.35,.13,.36,.17,0,.02,0,.04,0,.05,0,0-.03,.01-.05,0l-.66-.06c.05-.07,.15-.18,.36-.17Z"/>
        <path class="cls-4" d="M21.58,29.98s0,.02,.01,.03l.02,.02h.02v.03h.03s.02,.02,.04,.03c.01,0,.02,0,.03,0h.04s.04,.05,.09,.04c.02,0,.03,0,.03,0h.02s.02,0,.02,0h.04s.02,0,.02,0v-.06h0l.02,.06h.12s.01,0,.02,0h.04s.02,0,.02,0h.02s.02,0,.02,0h.02v-.06h0l.02,.06h.08v-.02h.06l.02-.02h.04v-.02h.03v-.02h0l-.02-.04h0l.04,.05s.01,0,.02-.01c.01,0,.02-.01,.02-.01l-.03-.05h0l.04,.05h.03s.02-.04,.02-.03c0,0,.01-.01,.02-.02l.02-.03h0s0-.03,0-.04v-.03s0-.03,0-.05c0-.01-.02-.02-.03-.03h-.01l-.02,.02h0v-.03s0,0,0-.01h0s0-.04,0-.05c0,0,0-.02-.01-.03,0,0,0-.01-.01-.02l-.02-.02h0l-.03-.03h-.05l-.02,.02h0s-.02,.01-.02,.01l-.04,.02h-.01l-.04,.03s-.01,.01-.02,.02h-.04v.07h0l-.02-.06h-.04l-.02,.02h-.02s-.01,0-.02,.01h-.06s-.01,.01-.02,.01h-.07v.07l-.02-.06h-.06v.07l-.02-.06h-.04s-.02,0-.02,0c0,0-.02,0-.01,0h-.05l-.04,.02s-.02,.01-.01,0h-.01l-.04,.02s-.03,.02-.04,.03v.06h0Zm.22,.08v-.02h0v.03h0Zm.23,0h0Zm.24,0h0Zm.02,0h0Zm.02,0h0Zm.21-.08h0Zm.04-.04h0Zm-.3-.21h0Z"/>
        <path class="cls-4" d="M18.91,25.85s0,0,.01,0c.22-.03,.43-.07,.54-.1,.05-.01,.08-.05,.1-.09,.66-2.35,.98-3.5,1.62-5.86,0-.03,0-.07-.02-.09-.02-.03-.05-.04-.09-.04h0c-.15,0-.38,.01-.5,.02-.06,0-.11,.04-.12,.1-.65,2.38-.97,3.55-1.64,5.93,0,.03,0,.07,.02,.09,.02,.02,.05,.04,.08,.04Z"/>
        <path class="cls-4" d="M19.57,21.63c.07-.68-.43-1.3-1.11-1.37-.69-.08-1.31,.42-1.39,1.1-.04,.33,.06,.65,.26,.91,.21,.26,.51,.43,.85,.47,.04,0,.09,0,.13,0,.29,0,.57-.09,.79-.27,.26-.21,.43-.5,.46-.83Zm-.67-.07c-.03,.32-.33,.55-.65,.51-.16-.02-.3-.09-.4-.22-.1-.12-.14-.27-.12-.42,.03-.3,.29-.52,.59-.52,.02,0,.04,0,.06,0,.16,.02,.3,.09,.39,.21,.1,.12,.14,.27,.13,.43Z"/>
        <path class="cls-4" d="M19.13,26.91s.09-.05,.1-.09l.14-.49s0-.07-.02-.1c-.02-.03-.06-.04-.1-.03-.72,.15-1.55,.17-2.41,.08-.87-.1-1.67-.31-2.33-.6-.03-.01-.07-.01-.1,0-.03,.02-.05,.05-.04,.09l.02,.5c0,.05,.03,.09,.08,.12,.66,.29,1.45,.49,2.29,.58,.33,.04,.65,.06,.96,.06,.5,0,.97-.04,1.41-.12Z"/>
        <path class="cls-4" d="M14.14,18.46c.82,.24,1.91,.46,3.08,.61-.69,.91-1.04,1.37-1.76,2.29-.19-.08-.38-.15-.58-.21l-.08-2c0-.06-.04-.11-.1-.12-.14-.04-.34-.09-.49-.13-.03,0-.07,0-.09,.02-.03,.02-.04,.05-.04,.08,.1,2.43,.15,3.65,.26,6.08,0,.05,.03,.09,.07,.11,.15,.07,.36,.16,.5,.22,.03,.01,.07,0,.1-.01,.03-.02,.04-.05,.04-.09-.06-1.36-.09-2.04-.14-3.38,.72,.26,1.36,.74,1.8,1.36,.52,.73,.77,1.62,.69,2.5,0,.03,0,.06,.03,.09,.02,.02,.05,.04,.08,.04,.11,0,.28,0,.41,0,.04,0,.07,0,.1,0,.06,0,.11-.05,.12-.11,.09-1.08-.23-2.16-.89-3.03-.32-.42-.7-.78-1.14-1.06,.79-1.02,1.17-1.52,1.97-2.55,1.17,.11,2.29,.15,3.16,.1,.06,0,.1-.04,.12-.1l.12-.46s0-.07-.02-.09c-.02-.03-.05-.04-.09-.04-.77,.05-1.77,.03-2.82-.05,.4-.53,.61-.81,1.02-1.36,.02-.03,.03-.07,.01-.1-.01-.03-.05-.06-.09-.06l-.59-.06s-.09,.01-.12,.05c-.43,.58-.65,.87-1.09,1.44,0,0,0,0-.01,0-1.35-.15-2.6-.39-3.53-.67-.03,0-.07,0-.09,.02-.03,.02-.04,.05-.04,.08l.02,.48c0,.06,.04,.1,.09,.12Z"/>
      </g>
    </g>
    <g>
      <path class="cls-1" d="M5.41,28.36c-.09,0-.17,0-.26,0-1.39-.1-2.61-1.01-3.44-2.54-.78-1.44-1.12-3.28-.98-5.19,.29-3.93,2.6-7.01,5.25-7.01,.09,0,.17,0,.26,0,1.39,.1,2.61,1.01,3.44,2.54,.78,1.44,1.12,3.28,.98,5.19-.29,3.93-2.6,7.01-5.25,7.01Z"/>
      <path class="cls-4" d="M5.99,14.31c.07,0,.14,0,.2,0,2.35,.17,4.04,3.3,3.77,6.98-.26,3.58-2.28,6.36-4.55,6.36-.07,0-.14,0-.2,0-2.35-.17-4.04-3.3-3.77-6.98,.26-3.58,2.28-6.36,4.55-6.36m0-1.41h0C2.91,12.9,.36,16.19,.03,20.56c-.33,4.53,1.89,8.25,5.07,8.49,.1,0,.21,.01,.31,.01,3.07,0,5.63-3.29,5.95-7.66,.33-4.53-1.89-8.25-5.07-8.49-.1,0-.21-.01-.31-.01h0Z"/>
    </g>
  </g>
</svg>