<?xml version="1.0" encoding="UTF-8"?>
<svg id="_層_2" data-name="圖層 2" xmlns="http://www.w3.org/2000/svg" width="55.13" height="68.19" viewBox="0 0 55.13 68.19">
  <defs>
    <style>
      .cls-1 {
        fill: #e8b78a;
      }

      .cls-2 {
        fill: #fce9d4;
      }

      .cls-3 {
        fill: #f18a00;
      }

      .cls-4 {
        fill: #2d2a26;
      }
    </style>
  </defs>
  <g id="layout">
    <g>
      <g>
        <g>
          <path class="cls-2" d="M53.01,21.45c-.73-1.17-7.72-4.04-21.53-5.78-13.91-1.75-21.4-.68-22.31,.28l1,43.9c.02,.1,.02,.2,0,.3-.12,.98,4.3,4.16,15.01,5.51,10.54,1.33,15.63-.58,15.9-1.57h0c0-.08,.02-.16,.04-.23l11.88-42.41Z"/>
          <path class="cls-4" d="M31.74,13.59c-2.42-.3-23.31-2.79-24.6,1.8-.05,.12-.07,.26-.07,.39l1.01,44.26v.04c-.08,1.71,1.62,3.32,5.07,4.76,3.09,1.3,7.27,2.32,11.77,2.89,4.5,.57,8.8,.61,12.12,.12,3.84-.57,5.9-1.76,6.13-3.55l11.86-42.34c.04-.1,.07-.2,.08-.3,.62-4.92-20.92-7.77-23.37-8.08Zm9.34,50.49c-.27,.99-5.35,2.9-15.9,1.57-10.7-1.35-15.13-4.53-15.01-5.51,.01-.1,.01-.2,0-.3l-1-43.9c.9-.96,8.39-2.04,22.31-.28,13.81,1.74,20.8,4.6,21.53,5.78l-11.88,42.41c-.02,.07-.03,.15-.04,.22h0Z"/>
        </g>
        <path class="cls-3" d="M53.37,18.71c-.36-1.17-1.1-1.93-2.09-2.37-.26-.11-.52-.2-.82-.24h0c0-.39-.05-.77-.16-1.14-.35-1.16-1.1-1.94-2.09-2.38-.48-.22-1.06-.33-1.65-.34,.03-.48,0-.97-.15-1.43-.35-1.16-1.1-1.94-2.09-2.38-.98-.44-2.35-.46-3.37-.06-.3,.12-.58,.29-.83,.49-.38-1.01-1.08-1.72-1.98-2.13-.98-.44-2.35-.46-3.37-.06-.45,.18-.84,.48-1.19,.83-.41-.72-1.01-1.24-1.74-1.57-.98-.44-2.35-.46-3.37-.06-.71,.28-1.31,.85-1.72,1.52-.38-1.04-1.08-1.77-2-2.18-.98-.44-2.35-.46-3.37-.06-1.1,.43-1.99,1.53-2.2,2.67-.03,.15-.03,.3-.04,.45-.56,0-1.13,.09-1.61,.28-1.1,.43-1.99,1.53-2.2,2.67-.05,.28-.07,.57-.07,.85h0c-.2-.14-.43-.27-.67-.38-.98-.45-2.35-.46-3.36-.07-1.11,.44-1.99,1.53-2.2,2.67-.07,.37-.1,.76-.07,1.13h0c.87,.93,2.16,1.86,5.23,2.81,.28,.18,2.34,.65,2.34,.65,2.23,.62,8.24,1.58,8.24,1.58,1.14,.22,8.26,.97,15.69,1.08,6.67,.09,12.74-.56,13.04-.99,.11-.62,.06-1.27-.12-1.87Zm-7.76,.85h.03v.04s-.01-.03-.03-.04Z"/>
        <path class="cls-4" d="M8.2,15.92c1.99,1.88,4.67,2.67,7.28,3.25,2.96,.66,5.96,1.2,8.96,1.67,6,.95,12.07,1.52,18.16,1.49,3.51-.02,7.01-.23,10.49-.68,1.44-.19,1.12-2.42-.32-2.23-11.79,1.53-23.71,.22-35.3-2.13-2.79-.57-5.74-1.13-7.88-3.16-.44-.42-1.24-.24-1.58,.21-.4,.53-.23,1.16,.21,1.58h0Z"/>
        <path class="cls-4" d="M15.86,14.18c.04,.06,.08,.12,.12,.19-.07-.11,0,0,.01,.02,.02,.03,.03,.07,.05,.1,.07,.14,.13,.29,.17,.44,.02,.06,.01,.05,0,0,0,.04,.02,.07,.03,.11,.02,.08,.03,.16,.05,.25,.01,.07,.02,.15,.03,.22,0,.05,0,.28,.01,.13,0,.15-.01,.3-.03,.45-.01,.08-.02,.17-.04,.25,0,.04-.02,.07-.02,.11-.02,.1,.03-.11,0-.01-.05,.15-.1,.3-.17,.44-.02,.03-.03,.07-.05,.1,0,.02-.08,.15-.04,.07,.04-.07-.02,.03-.03,.05-.03,.04-.05,.08-.08,.12-.2,.29-.18,.72,.12,.93,.28,.2,.72,.18,.93-.12,.96-1.39,.95-3.28-.02-4.66-.2-.29-.67-.34-.93-.12-.29,.24-.33,.63-.12,.93h0Z"/>
        <path class="cls-4" d="M21.97,13.75c.48-.64,1.2-1.07,1.96-1.22,.83-.17,1.6-.06,2.35,.37,.26,.15,.63-.05,.74-.3,.13-.31-.04-.58-.3-.74-1.84-1.05-4.39-.47-5.64,1.21-.43,.58,.46,1.27,.89,.69h0Z"/>
        <path class="cls-4" d="M27.78,14.35c.08,.06,.15,.13,.22,.19l-.1-.1c.16,.16,.31,.35,.43,.54,.04,.06,.1,.11,.17,.14,.06,.04,.13,.07,.21,.08,.08,.01,.15,0,.22-.02,.07-.01,.14-.04,.19-.09,.11-.09,.2-.23,.21-.37v-.15c-.02-.1-.05-.19-.11-.26-.2-.32-.46-.6-.75-.84-.06-.05-.13-.08-.2-.09-.07-.03-.15-.03-.22-.02-.07,0-.14,.03-.2,.08-.07,.03-.12,.08-.16,.14-.08,.12-.14,.27-.11,.42,.03,.15,.1,.27,.21,.37h0Z"/>
        <path class="cls-4" d="M50.72,14.75c-.05-2.22-1.98-3.54-4.1-3.75-.07-1.43-.88-2.76-2.26-3.45-1.4-.7-2.93-.54-4.28,.07-.93-2.06-4.36-2.96-6.36-1.65-1.48-2.07-4.52-2.47-6.46-.86-2.2-2.95-8.48-1.92-9.1,1.48-1.99-.15-3.8,1.23-4.24,3.18-2.72-.58-5.49,1.19-5.66,4.36-.07,1.44,2.16,1.73,2.24,.28,.1-2.04,2.03-3.3,3.85-2.09,.75,.5,2.03-.02,1.8-1.06-.39-1.82,1.1-2.88,2.68-2.15,.22,.1,1.07,.61,1.3,.72,.51,.23,1.04,.44,1.57,.61,.35,.11,.75,.06,.86-.35,.12-.46-.33-.71-.68-.87-.49-.22-.94-.53-1.2-1.02-.21-.39-.38-.87-.2-1.31,.12-.28,.34-.5,.59-.68,.61-.43,1.4-.62,2.14-.63,.74,0,1.55,.19,2.06,.76,.35,.38,.5,.88,.51,1.39,.03,1.12,1.8,1.27,2.16,.27,.87-2.44,4.07-2.15,4.37,.47,.15,1.3,2.03,1.21,2.23-.02,.27-1.6,4.15-.92,3.38,.77-.46,1,.88,2.06,1.73,1.32,.78-.68,1.72-1.29,2.8-1.2,1.15,.1,2.29,1.09,1.85,2.35-.28,.8,.31,1.68,1.2,1.55,1.41-.2,3.19,.26,2.9,2.03-.85-.02-1.71,.38-2.19,1.07-.17,.24-.15,.61,.1,.79,.24,.17,.61,.15,.79-.1,.73-1.04,2.14-.61,3,0,.35,.24,.65,.57,.84,.95,.31,.59,.37,1.28,.26,1.94-.26,1.43,2.05,1.66,2.31,.23,.4-2.25-.81-4.42-2.81-5.4Zm-29.52-5.71h-.02s0-.01,.02,0Z"/>
        <path class="cls-4" d="M9.46,58.48c4.09,3.81,10.27,4.82,15.62,5.55,5.71,.78,11.57,.69,17.06-1.21,.69-.24,.24-1.27-.44-1.04-5.3,1.83-10.97,1.88-16.48,1.12-5.18-.71-11.12-1.64-15.08-5.33-.53-.5-1.21,.4-.69,.89h0Z"/>
        <g>
          <path class="cls-2" d="M43.35,3.12c-.44,.19-.86,.27-1.26,.22-.08-.01-.16-.03-.24-.05-.35-.09-.62-.27-.84-.47-.54,4.13-1.06,9.41-1.42,14.25l2.44-.22s-.02-.08-.01-.12l1.34-13.6Z"/>
          <path class="cls-2" d="M42.02,2.64c.4,.1,.86,0,1.37-.29-.07-.52-.5-.95-1.04-1.01-.51-.05-.97,.23-1.18,.68,.16,.23,.44,.52,.85,.63Z"/>
          <path class="cls-4" d="M44.72,2.75c.13-1.37-.88-2.61-2.24-2.74-1.35-.14-2.56,.82-2.74,2.17-.56,4.25-1.12,9.82-1.5,14.89-.03,.35,.23,.66,.58,.71h.03c.37,.03,.69-.24,.71-.61v-.11c.37-4.84,.9-10.11,1.43-14.25-.42-.37-.61-.81-.63-.84-.07-.17,0-.36,.18-.44,.17-.07,.36,0,.44,.17,0,0,.06,.13,.18,.3,.21-.44,.67-.73,1.18-.68,.55,.07,.97,.49,1.04,1.01,.16-.09,.33-.2,.5-.34,.15-.11,.35-.09,.47,.06,.11,.15,.09,.35-.06,.47-.32,.25-.64,.44-.95,.58l-1.34,13.6s0,.08,.01,.12c.03,.31,.26,.55,.58,.6,.37,.04,.69-.23,.73-.6l1.38-14.1Z"/>
          <path class="cls-4" d="M42.09,3.33c.4,.05,.82-.02,1.26-.22,.31-.13,.62-.32,.95-.58,.15-.11,.17-.32,.06-.47-.11-.15-.32-.17-.47-.06-.17,.13-.34,.24-.5,.34-.51,.29-.97,.39-1.37,.29-.41-.1-.69-.4-.85-.63-.12-.16-.18-.29-.18-.3-.07-.17-.27-.25-.44-.17-.17,.07-.25,.27-.18,.44,.01,.03,.21,.47,.63,.84,.22,.2,.49,.38,.84,.47,.08,.02,.16,.04,.24,.05Z"/>
        </g>
        <path class="cls-4" d="M38.08,20.51c-.29-.04-.53-.26-.57-.56-.31-1.97,1.03-3.82,3-4.14,1.97-.32,3.82,1.03,4.14,3,.06,.36-.19,.7-.55,.76-.36,.06-.7-.19-.76-.55-.2-1.24-1.37-2.09-2.61-1.89-1.24,.2-2.09,1.37-1.89,2.61,.06,.36-.19,.7-.55,.76-.06,.01-.13,.01-.19,0Z"/>
        <path class="cls-4" d="M27.05,18.11c-.35-.04-.6-.35-.58-.7,.12-1.99,1.83-3.51,3.82-3.39,1.99,.11,3.51,1.83,3.39,3.82-.02,.37-.34,.65-.7,.62-.37-.02-.65-.34-.62-.7,.08-1.25-.88-2.34-2.14-2.41-1.25-.08-2.34,.88-2.41,2.14-.02,.37-.34,.65-.7,.62-.01,0-.03,0-.04,0Z"/>
        <path class="cls-4" d="M21.61,17.72c-.08,0-.15-.03-.22-.07-.33-.17-.45-.57-.28-.9,.24-.46,.28-.99,.13-1.48-.16-.5-.5-.9-.96-1.14-.95-.49-2.13-.12-2.62,.83-.17,.33-.57,.45-.9,.28-.33-.17-.45-.57-.28-.9,.83-1.6,2.81-2.23,4.42-1.4,.78,.4,1.35,1.08,1.62,1.92,.26,.83,.19,1.72-.21,2.5-.13,.25-.41,.39-.67,.35Z"/>
        <path class="cls-4" d="M31.3,15.61c-.29-.04-.53-.27-.58-.57-.27-1.98,.97-3.38,2.31-3.9,1.34-.51,3.18-.28,4.29,1.37,.21,.31,.12,.72-.18,.92-.3,.2-.72,.12-.92-.18-.75-1.12-1.93-1.17-2.72-.87-.79,.3-1.65,1.13-1.47,2.47,.05,.36-.21,.7-.57,.75-.06,0-.12,0-.17,0Z"/>
        <path class="cls-4" d="M25.58,12.35c-.22-.03-.4-.2-.43-.43-.19-1.39,.68-2.38,1.62-2.74,1.13-.43,2.34-.04,3.02,.96,.15,.23,.09,.54-.14,.69-.23,.15-.54,.09-.69-.14-.51-.76-1.31-.79-1.84-.59-.53,.2-1.11,.76-.99,1.67,.04,.27-.15,.52-.43,.56-.04,0-.09,0-.13,0Z"/>
        <g>
          <path class="cls-4" d="M31.81,49.68c-1.23-.13-1.85-.2-3.08-.33h-.1l-.1,.83,1.13,.12-.32,2.78,1.02,.11,.32-2.78,1.13,.12,.09-.84h-.1Z"/>
          <path class="cls-4" d="M24.25,49.3c-.16-.19-.37-.35-.6-.47-.23-.12-.5-.2-.79-.23-.29-.03-.57-.02-.82,.04-.26,.06-.49,.17-.7,.31-.21,.15-.38,.33-.51,.54-.13,.21-.21,.46-.25,.73-.03,.27-.01,.53,.06,.77s.19,.46,.36,.65c.16,.19,.37,.35,.6,.47,.24,.12,.5,.2,.8,.24,.1,.01,.19,.02,.29,.02,.19,0,.36-.02,.53-.06,.26-.06,.49-.17,.7-.31,.21-.15,.38-.33,.51-.55,.13-.22,.21-.46,.25-.73,.03-.27,.01-.53-.06-.77-.07-.24-.19-.46-.36-.65Zm-.61,1.3c-.02,.15-.06,.28-.13,.4-.07,.11-.15,.21-.25,.29-.1,.08-.22,.14-.35,.17-.13,.03-.27,.04-.41,.03s-.28-.06-.4-.12c-.12-.06-.22-.15-.29-.25-.08-.1-.14-.22-.17-.34-.04-.13-.04-.27-.02-.42,.02-.15,.06-.28,.13-.4,.07-.11,.15-.21,.25-.29,.1-.08,.22-.14,.35-.17,.09-.02,.18-.04,.28-.03,.04,0,.09,0,.14,0,.15,.02,.28,.06,.39,.12,.12,.06,.21,.15,.29,.25,.08,.1,.14,.22,.18,.34,.04,.13,.04,.27,.03,.42Z"/>
          <path class="cls-4" d="M25.32,49.06c-.17,1.37-.25,2.05-.41,3.42v.1l1.01,.12v-.1c.18-1.37,.26-2.05,.42-3.42v-.1l-1.01-.12v.1Z"/>
          <path class="cls-4" d="M33.75,50.63c-.22-.02-.44,0-.65,.09l.1-.89-.99-.1v.1c-.16,1.37-.24,2.06-.39,3.43v.1l.98,.1,.17-1.57c.03-.27,.28-.46,.56-.43,.14,.01,.26,.08,.35,.19,.08,.1,.12,.22,.1,.36l-.17,1.56,.99,.1,.17-1.56c.04-.35-.06-.69-.29-.96-.23-.29-.56-.46-.94-.5Z"/>
          <path class="cls-4" d="M19.4,49.84c.47-.49,.73-.76,1.23-1.28l.14-.14-1.18-.15-.03,.04c-.43,.45-.65,.68-1.07,1.12-.13-.03-.26-.05-.39-.07-.04,0-.08,0-.12-.01l.16-1.25-1.01-.13v.1c-.19,1.37-.29,2.05-.47,3.42v.1l1,.13,.2-1.53s.08,0,.12,.01c.41,.05,.74,.22,.95,.49,.22,.28,.3,.66,.24,1.11v.1l1.01,.13v-.1c.05-.32,.12-1.4-.78-2.08Z"/>
          <path class="cls-4" d="M38.12,52.67c.14-.12,.21-.31,.21-.53,0-.52-.36-1.14-1.43-1.19-.94-.04-1.61,.47-1.7,1.32,0,.08-.01,.16,0,.24,0,.2,.05,.38,.14,.55,.12,.24,.3,.43,.53,.58,.24,.15,.52,.24,.85,.28,.07,0,.15,.01,.22,.01,.18,0,.34-.02,.5-.06,.21-.06,.4-.16,.55-.3l.07-.06-.5-.64-.08,.06c-.09,.07-.19,.12-.29,.15-.1,.03-.22,.04-.35,.02-.15-.01-.28-.05-.38-.12-.1-.06-.17-.14-.22-.24,0-.02-.02-.03-.02-.05,.51,.05,.8,.08,1.35,.13,.24,.02,.43-.03,.57-.15Zm-1.25-.95c.45,.01,.59,.21,.6,.29,0,.04,0,.08,0,.09-.01,.01-.04,.02-.09,.02l-1.11-.11c.08-.12,.25-.31,.6-.29Z"/>
          <path class="cls-4" d="M36.35,50.5s0,.03,.02,.04l.03,.04s.02,.01,.03,.02v.04l.05,.02s.03,.02,.07,.02c.02,0,.04,0,.04,0h.06c.02,.06,.07,.08,.15,.07,.03,0,.05-.01,.04-.01h.04s.03,0,.04,0h.07s.03,0,.03,0v-.1h0l.03,.1h.07l.12,.02s.02,0,.03,0h.06s.03,0,.03,0h.03s.04,0,.03,0h.04v-.1h0l.04,.09h.07s.02-.01,.02-.02h.05s.02,0,.02-.01h.05s.02-.01,.03-.02c0,0,.02,0,.03-.01l.06-.02h.03l.03-.02v-.02h0l-.04-.07h0l.07,.08s.02-.01,.03-.02c.02,0,.03-.02,.03-.02l-.04-.09h0l.07,.08,.05-.02s.04-.04,.03-.04c0,0,.02-.02,.03-.04l.04-.04v-.02s.02-.04,.02-.05v-.05s0-.05,0-.08c-.02-.03-.04-.04-.05-.04,0,0-.02,0-.02,0l-.04,.04v-.02l.02-.04s-.02-.01-.03-.02h0v-.02s0-.05-.01-.07c0-.01,0-.03-.02-.05,0,0,0-.02-.02-.03l-.04-.03h-.02l-.05-.05h-.09l-.03,.04h0s-.03,.02-.04,.02l-.06,.03s-.02,.01-.02,.02l-.06,.03s-.02,.02-.03,.03h-.01v.02h-.05v.11h0l-.03-.09s-.02,0-.03,0c-.02,0-.03,0-.04,.01-.01,0-.02,0-.03,.01h-.03s-.02,.02-.03,.02h-.1s-.02,.02-.03,.02h-.03s-.02,0-.03,.01h-.03s-.02,0-.03,.01l.02,.1-.05-.09s-.02,0-.02,0h-.04s-.02,0-.05,.01v.1l-.03-.1h-.07s-.03,.01-.03,.02c-.02,0-.03,0-.02,0h-.07s-.02,.02-.02,.02l-.07,.02s-.03,.02-.02,.02c-.01,0-.02,.01-.02,.01l-.06,.02s-.06,.04-.07,.05l-.02,.04v.07h0Zm.37,.14v-.03h0l.02,.05s-.01-.01-.02-.02Zm.39,.01h0Zm.4,0h0Zm.03,0h0Zm.03,0h0Zm.36-.14h0Zm.07-.07h0Zm-.5-.35h0Z"/>
          <path class="cls-4" d="M31.85,43.54s.02,0,.02,0c.37-.05,.73-.12,.92-.17,.08-.02,.14-.08,.16-.16,1.11-3.96,1.65-5.9,2.72-9.87,.01-.05,0-.11-.03-.15-.03-.04-.09-.07-.14-.06h0c-.26,.01-.64,.02-.85,.03-.1,0-.18,.07-.21,.16-1.09,4.02-1.64,5.98-2.76,10-.02,.06,0,.11,.04,.16,.03,.04,.08,.06,.13,.06Z"/>
          <path class="cls-4" d="M32.96,36.44c.12-1.15-.72-2.18-1.87-2.31-1.16-.13-2.2,.7-2.34,1.85-.06,.55,.09,1.09,.44,1.53,.35,.44,.86,.72,1.43,.78,.07,0,.15,.01,.22,.01,.48,0,.95-.16,1.34-.46,.44-.35,.72-.85,.78-1.41Zm-1.12-.12c-.06,.54-.55,.92-1.09,.86-.26-.03-.5-.16-.67-.37-.16-.2-.24-.46-.21-.71,.06-.5,.49-.87,.99-.87,.03,0,.07,0,.1,0,.26,.03,.5,.16,.66,.36,.17,.2,.24,.46,.21,.72Z"/>
          <path class="cls-4" d="M32.23,45.32c.08-.02,.15-.08,.17-.16l.23-.82c.02-.06,0-.12-.04-.16-.04-.05-.1-.06-.16-.05-1.21,.25-2.62,.29-4.07,.13-1.46-.16-2.82-.52-3.93-1.02-.06-.03-.12-.02-.17,.01-.05,.03-.08,.09-.08,.15l.04,.85c0,.09,.06,.16,.13,.19,1.11,.48,2.45,.82,3.87,.98,.55,.06,1.09,.09,1.62,.1,.84,0,1.64-.06,2.37-.2Z"/>
          <path class="cls-4" d="M23.81,31.1c1.38,.41,3.22,.77,5.18,1.02-1.17,1.54-1.76,2.31-2.96,3.87-.31-.14-.64-.26-.98-.36l-.14-3.38c0-.1-.07-.18-.17-.21-.23-.06-.57-.15-.82-.22-.05-.01-.11,0-.15,.03-.04,.03-.07,.09-.07,.14,.17,4.09,.26,6.14,.44,10.23,0,.08,.05,.15,.13,.19,.25,.12,.61,.28,.85,.36,.06,.02,.12,.01,.16-.02,.05-.03,.07-.09,.07-.15-.1-2.28-.15-3.44-.24-5.7,1.21,.44,2.29,1.25,3.04,2.3,.88,1.22,1.3,2.72,1.17,4.22,0,.05,.01,.11,.05,.15,.04,.04,.09,.06,.14,.07,.18,0,.48,.01,.69,.02,.07,0,.12,0,.17,0,.1,0,.19-.08,.2-.18,.15-1.82-.39-3.63-1.5-5.1-.53-.7-1.18-1.31-1.92-1.79,1.33-1.72,1.97-2.56,3.31-4.3,1.97,.19,3.86,.25,5.33,.16,.1,0,.18-.07,.2-.16l.21-.77c.01-.05,0-.11-.03-.15-.04-.04-.09-.06-.14-.06-1.3,.09-2.98,.05-4.75-.09,.68-.89,1.03-1.37,1.72-2.28,.04-.05,.05-.12,.02-.17-.02-.06-.08-.1-.16-.1l-.99-.11c-.07,0-.15,.02-.2,.09-.73,.97-1.1,1.46-1.83,2.43,0,0-.02,0-.02,0-2.28-.26-4.39-.66-5.94-1.14-.05-.02-.11,0-.16,.03-.04,.03-.07,.09-.07,.14l.03,.8c0,.09,.07,.18,.16,.2Z"/>
        </g>
      </g>
      <g>
        <path class="cls-1" d="M9.11,47.77c-.14,0-.29,0-.43-.02-4.69-.35-7.96-6.07-7.44-13.03,.49-6.62,4.37-11.81,8.84-11.81,.14,0,.29,0,.43,.02,2.34,.17,4.39,1.69,5.79,4.28,1.31,2.42,1.89,5.53,1.65,8.75-.49,6.62-4.37,11.81-8.84,11.81Z"/>
        <path class="cls-4" d="M10.08,24.1c.11,0,.23,0,.35,.01,3.96,.29,6.81,5.56,6.35,11.76-.44,6.02-3.84,10.72-7.66,10.72-.11,0-.23,0-.35-.01-3.97-.29-6.81-5.56-6.35-11.76,.45-6.02,3.84-10.72,7.66-10.72m0-2.37h0c-5.17,0-9.48,5.55-10.03,12.91-.25,3.45,.38,6.78,1.79,9.4,1.57,2.92,4.03,4.7,6.74,4.9,.17,.01,.35,.02,.52,.02,5.17,0,9.48-5.55,10.03-12.91,.56-7.62-3.19-13.91-8.54-14.3-.17-.01-.35-.02-.52-.02h0Z"/>
      </g>
    </g>
  </g>
</svg>