<?xml version="1.0" encoding="UTF-8"?>
<svg id="b" data-name="圖層 2" xmlns="http://www.w3.org/2000/svg" width="142.72" height="198.14" viewBox="0 0 142.72 198.14">
  <g id="c" data-name="設計">
    <g id="d" data-name="KOI 主 2">
      <path d="M142.54,105.91c-2.29-26.2-24.57-50.84-70.84-48.54C26.39,59.63,0,88.88,0,127.76c0,3.82,.26,7.54,.81,11.19,1.31,9.1,4.23,17.44,8.84,25.02,6.43,10.59,15.48,18.93,27.16,25.03,11.68,6.1,25.3,9.15,40.87,9.15,12.35,0,23.27-1.91,32.75-5.72,9.48-3.81,17.34-9.27,23.61-16.39l-21.07-22.87c-4.57,4.41-9.61,7.71-15.1,9.91-5.5,2.2-11.81,3.3-18.91,3.3-8.29,0-15.4-1.48-21.32-4.45-5.93-2.96-10.58-7.24-13.96-12.83-1.86-3.07-3.16-6.5-3.99-10.19l73.17-.06c22.9,0,31.29-14.77,29.69-32.95Zm-41.56,8.39l-61.54,.1s4.6-25.68,34.26-27.75c23.28-1.62,33.81,8.47,35.93,15.18,1.85,5.84,.52,12.48-8.65,12.48Z"/>
      <path d="M52.25,33.69s-.69,.64-.83,.87c-.26,.42-.46,.85-.12,1.02,.31,.16,1.02,.25,1.6,.27,.47,.02,1.02-.3,1.52-.33,.51-.04,.99-.13,1.5-.2,.5-.07,.97-.21,1.47-.3,.5-.08,1.02-.09,1.51-.18s1.03-.06,1.53-.14c.5-.08,1-.15,1.51-.21,.43-.05,.84-.64,1.34-.8,.48-.16,1.2,.06,1.42,.72,.1,.29-.29,.71-.23,1.07,.06,.34,.1,.55-.1,.87-.17,.27-.27,.48-.78,.68-.3,.12-.72,.28-1.12,.35-.41,.08-.77,.25-.49,.69,.36,.58,.82,.54,1.23,.44,.46-.12,1.05-.18,1.48-.26,.46-.08,.78-.59,1.24-.66,.46-.08,.95-.08,1.41-.15,.46-.07,.99,.11,1.45,.04,.46-.06,.87-.4,1.34-.46,.46-.06,.95-.03,1.42-.08,.47-.05,.98,.18,1.45,.13,.47-.05,.94,0,1.41-.04s.9-.35,1.37-.39c.47-.04,.93-.12,1.4-.15,.47-.04,.93-.18,1.4-.22,.47-.03,.94-.05,1.41-.08s.94-.13,1.41-.16c.47-.02,.95,.21,1.42,.2,.47-.02,.94-.07,1.41-.09s.95,.28,1.42,.26,.94-.07,1.41-.08c.47-.01,.94-.32,1.41-.33,.47-.01,.95,.25,1.42,.24,.48,0,.98,.05,1.46,.02,.48-.02,.95-.28,1.43-.32,.48-.04,.97,0,1.45-.05,.48-.06,.91-.45,1.38-.52,.48-.07,.95-.14,1.42-.23,.47-.09,.92-.26,1.39-.37,.47-.11,.94-.19,1.4-.31,.46-.12,.9-.32,1.36-.45s.88-.36,1.34-.52c.46-.15,1.02,0,1.47-.16,.45-.17,.85-.47,1.3-.66,.45-.18,1.03-.06,1.47-.26,.44-.2,.83-.53,1.27-.74,.44-.21,.82-.53,1.25-.76,.43-.23,.94-.32,1.36-.56,.43-.24,.9-.41,1.32-.66,.42-.26,.52-1.04,.94-1.31,.42-.28,1.23,.09,1.67-.17,.44-.26,.89-.47,1.34-.72,.45-.25,.8-.7,1.25-.95,.45-.26,.76-.79,1.19-1.07,.44-.28,.91-.5,1.32-.81,.42-.32,1.05-.38,1.43-.73,.39-.36,.43-1.1,.77-1.51,.34-.41,.55-.88,.83-1.35,.3-.49,.6-.96,.87-1.47,.27-.5,.89-.85,1.11-1.39,.21-.52-.1-1.17,.03-1.76,.13-.56,.47-.98,.43-1.38-.06-.51-.21-.92-.47-1.24-.26-.34-.69-.44-1.07-.65-.37-.21-.78-.3-1.17-.46-.41-.17-.72-.54-1.05-.73-.6-.35-1.04-.45-1.32-.2-.32,.28-.78,.79-.99,1.31-.2,.5-.16,.94-.54,1.2-.36,.25-.42,1.02-.82,1.31-.33,.23-1.21,.08-1.23,.06-.05-.06,.07-.74,.26-1.2,.19-.45,.16-.99,.37-1.44,.21-.46,.93-.77,1.08-1.22,.15-.49-.08-.99-.09-1.44-.02-.44-.2-.76-.46-1.15-.21-.31-.48-.54-.89-.81-.31-.21-.49-.7-.94-.88-.44-.18-.12-.4,.08-.88,.17-.41,.33-.89,.49-1.25,.17-.38-.21-.85-.46-1.35-.17-.35-.19-.91-.48-1.27-.26-.33-.44-.79-.73-1.09-.32-.32-1.01-.21-1.31-.47-.42-.36-.69-.73-.88-.88-.54-.41-.94-.36-1.14-.04-.24,.38-.2,1.18-.55,1.32-.49,.2-1.03,.2-1.5,.43-.48,.24-.85,.76-1.31,1.03-.47,.27-.95,.46-1.39,.76-.45,.3-.94,.52-1.37,.83s-.68,.89-1.11,1.22-1.12,.28-1.54,.62c-.42,.33-.86,.63-1.28,.96-.41,.33-.5,1.06-.92,1.39-.41,.32-.93,.53-1.35,.84-.42,.31-.75,.77-1.18,1.07-.36,.25-1.04-.03-1.49,.17-.41,.18-.79,.42-1.24,.58-.43,.15-.88,.17-1.32,.32-.44,.14-.86,.45-1.28,.58-.54,.17-1.08,.39-1.58,.63-.51,.24-.88,.76-1.38,1.02-.49,.26-1.17,.11-1.68,.35-.49,.23-.84,.99-1.39,1.15-.48,.14-.98,.14-1.46,.29s-.99,.11-1.47,.26c-.48,.14-.94,.35-1.42,.49-.48,.14-1.02,0-1.49,.14-.48,.14-.85,.75-1.32,.89-.48,.14-1.03-.08-1.51,.06-.48,.14-.92,.44-1.39,.57s-.97,.2-1.44,.33c-.48,.13-.93,.38-1.41,.51s-.96,.24-1.44,.37c-.48,.13-.92,.45-1.39,.57-.48,.13-1,.05-1.48,.17-.48,.12-.93,.38-1.41,.5-.48,.12-.95,.29-1.44,.4-.48,.11-.97,.13-1.45,.25-.48,.12-1.02,0-1.5,.12-.47,.13-.98,.21-1.45,.35-.47,.14-.88,.49-1.35,.64s-.84,.51-1.31,.67c-.46,.16-1.03,.1-1.49,.27-.46,.17-.86,.43-1.31,.61-.45,.18-.79,.48-1.23,.67-.44,.19-1.06,.16-1.49,.36-.43,.2-.97,.3-1.38,.52-.41,.21-.6,.62-.99,.85-.39,.22-.62,.54-.99,.78s-.88,.37-1.23,.62c-.32,.22-.74,.38-1.14,.49-.41,.12-.87,.17-1.23,.32-.34,.15-.43,.38-.6,.68-.15,.27-.07,.49-.06,.77,.01,.26,.05,.48,.19,.74,.13,.24,.07,.54,.31,.77,.22,.22,.33,.51,.62,.71,.29,.19,.64,.37,.99,.54,.34,.16,1.01,.03,1.4,.16,.39,.13,.66,.35,1.08,.44,.42,.09,1.37,.28,1.37,.28Z"/>
    </g>
  </g>
</svg>