<?xml version="1.0" encoding="UTF-8"?>
<svg id="b" data-name="圖層 2" xmlns="http://www.w3.org/2000/svg" width="169.62" height="171.18" viewBox="0 0 169.62 171.18">
  <g id="c" data-name="footer">
    <path d="M89.96,171.18c-16.87,0-32.12-3.8-45.76-11.4-13.64-7.6-24.42-17.85-32.33-30.77C3.95,116.1,0,101.63,0,85.59s3.8-30.51,11.4-43.42c7.6-12.91,17.96-23.16,31.08-30.77C55.6,3.8,70.18,0,86.22,0s30.61,3.9,43.11,11.72c12.49,7.81,22.33,18.48,29.52,32.02,7.18,13.54,10.78,29.05,10.78,46.54v12.49H51.85c2.29,5.21,5.36,9.79,9.22,13.74,3.85,3.96,8.48,7.03,13.9,9.22,5.41,2.19,11.25,3.28,17.49,3.28,6.87,0,13.12-1.09,18.74-3.28,5.62-2.19,10.41-5.26,14.37-9.22l33.42,29.67c-10.41,8.75-21.09,15.1-32.02,19.05-10.93,3.95-23.27,5.94-37.02,5.94ZM50.92,67.47H119.95c-1.67-5.41-4.22-10.04-7.66-13.9-3.44-3.85-7.45-6.87-12.03-9.06-4.58-2.19-9.58-3.28-14.99-3.28s-10.73,1.04-15.31,3.12c-4.59,2.08-8.49,5.05-11.72,8.9-3.23,3.85-5.68,8.59-7.34,14.21Z" style="fill: #231814;"/>
  </g>
</svg>