<?xml version="1.0" encoding="UTF-8"?>
<svg id="b" data-name="圖層 2" xmlns="http://www.w3.org/2000/svg" width="202.9" height="217.26" viewBox="0 0 202.9 217.26">
  <g id="c" data-name="footer">
    <path d="M133.05,208.88c13.81-5.56,26.09-13.35,36.49-23.13,10.4-9.78,18.65-21.32,24.52-34.29,5.87-12.97,8.84-27.16,8.84-42.19s-2.98-29.65-8.84-42.82c-5.87-13.18-14.12-24.88-24.52-34.77-10.41-9.89-22.68-17.72-36.48-23.28C119.24,2.82,104.09,0,88.02,0H0V217.26H88.02c16.07,0,31.22-2.82,45.03-8.38Zm-80.71-37.7V46.08h34.43c8.59,0,16.72,1.65,24.18,4.9,7.45,3.26,14.09,7.77,19.74,13.42,5.66,5.66,10.13,12.41,13.27,20.06,3.14,7.66,4.74,16,4.74,24.79s-1.59,16.73-4.74,24.17c-3.14,7.44-7.61,14.08-13.27,19.74-5.66,5.66-12.3,10.13-19.75,13.27-7.45,3.14-15.58,4.74-24.17,4.74H52.33Z" style="fill: #231814;"/>
  </g>
</svg>