<?xml version="1.0" encoding="UTF-8"?>
<svg id="b" data-name="圖層 2" xmlns="http://www.w3.org/2000/svg" width="2655.62" height="365.46" viewBox="0 0 2655.62 365.46">
  <g id="c" data-name="footer">
    <g>
      <g>
        <polygon points="0 91.36 84.3 233.78 113.59 184.24 58.61 91.36 0 91.36" style="fill: #ea5504;"/>
        <polygon points="168.75 91.36 39.78 308.59 98.4 308.59 226.97 91.36 168.75 91.36" style="fill: #231814;"/>
      </g>
      <rect x="1444.76" y="91.36" width="50.6" height="218.66" style="fill: #231814;"/>
      <path d="M459.48,313.17c-12.91,0-24.32-2.81-34.21-8.43-9.89-5.62-17.65-13.48-23.27-23.59-5.62-10.1-8.43-21.6-8.43-34.52v-101.83h50.6v94.96c0,8.96,2.76,16.2,8.28,21.71,5.51,5.52,12.75,8.28,21.71,8.28,6.45,0,12.18-1.14,17.18-3.44,5-2.29,9.16-5.51,12.5-9.68v-111.83h50.6v165.24h-50.6v-11.25c-12.5,9.58-27.28,14.37-44.36,14.37Z" style="fill: #231814;"/>
      <path d="M608.13,310.02V144.78h50.6v16.55c5.41-6.66,11.76-11.71,19.05-15.15,7.29-3.44,15.41-5.16,24.36-5.16,8.95,.21,15.31,1.56,19.06,4.06v44.04c-3.33-1.66-7.08-2.91-11.25-3.75-4.17-.83-8.43-1.25-12.81-1.25-7.92,0-15.26,1.83-22.02,5.47-6.77,3.64-12.24,8.8-16.4,15.46v104.96h-50.6Z" style="fill: #231814;"/>
      <path d="M995.79,300.94c13.81-5.56,26.09-13.35,36.49-23.13,10.4-9.78,18.65-21.32,24.52-34.29,5.87-12.97,8.84-27.16,8.84-42.19s-2.98-29.65-8.84-42.82c-5.87-13.18-14.12-24.88-24.52-34.77-10.41-9.89-22.68-17.72-36.48-23.28-13.81-5.57-28.96-8.38-45.03-8.38h-88.02v217.26h88.02c16.07,0,31.22-2.82,45.03-8.38Zm-80.71-37.7v-125.1h34.43c8.59,0,16.72,1.65,24.18,4.9,7.45,3.26,14.09,7.77,19.74,13.42,5.66,5.66,10.13,12.41,13.27,20.06,3.14,7.66,4.74,16,4.74,24.79s-1.59,16.73-4.74,24.17c-3.14,7.44-7.61,14.08-13.27,19.74-5.66,5.66-12.3,10.13-19.75,13.27-7.45,3.14-15.58,4.74-24.17,4.74h-34.43Z" style="fill: #231814;"/>
      <path d="M2031.94,301.27c11.49-5.33,20.54-12.87,26.89-22.4,6.35-9.53,9.57-20.69,9.57-33.19,0-9.8-2.85-18.92-8.47-27.1-5.64-8.2-13.39-14.95-23.02-20.08l-1-.53,.93-.65c7.58-5.33,13.66-11.93,18.07-19.61,4.39-7.67,6.62-16.01,6.62-24.8,0-11.87-3.22-22.51-9.56-31.62-6.36-9.12-15.25-16.34-26.43-21.47-11.22-5.14-24.41-7.74-39.22-7.74h-107.7v217.26h113.01c15.24,0,28.8-2.71,40.31-8.05Zm-100.99-166.56h51.93c8.04,0,14.5,2,19.19,5.94,4.72,3.98,7.12,9.46,7.12,16.31s-2.39,12.07-7.11,16.15c-4.69,4.05-11.15,6.11-19.2,6.11h-51.93v-44.51Zm0,131.97v-47.63h56.61c8.46,0,15.28,2.16,20.29,6.42,5.03,4.29,7.58,10.14,7.58,17.4s-2.55,13.11-7.58,17.4c-5,4.25-11.82,6.41-20.29,6.41h-56.61Z" style="fill: #231814;"/>
      <path d="M2203.48,310.02c-16.87,0-32.12-3.8-45.76-11.4-13.64-7.6-24.42-17.85-32.33-30.77-7.92-12.91-11.87-27.38-11.87-43.42s3.8-30.51,11.4-43.42c7.6-12.91,17.96-23.16,31.08-30.77,13.12-7.6,27.69-11.4,43.73-11.4s30.61,3.9,43.11,11.72c12.49,7.81,22.33,18.48,29.52,32.02,7.18,13.54,10.78,29.05,10.78,46.54v12.49h-117.77c2.29,5.21,5.36,9.79,9.22,13.74,3.85,3.96,8.48,7.03,13.9,9.22,5.41,2.19,11.25,3.28,17.49,3.28,6.87,0,13.12-1.09,18.74-3.28,5.62-2.19,10.41-5.26,14.37-9.22l33.42,29.67c-10.41,8.75-21.09,15.1-32.02,19.05-10.93,3.95-23.27,5.94-37.02,5.94Zm-39.04-103.71h69.03c-1.67-5.41-4.22-10.04-7.66-13.9-3.44-3.85-7.45-6.87-12.03-9.06-4.58-2.19-9.58-3.28-14.99-3.28s-10.73,1.04-15.31,3.12c-4.59,2.08-8.49,5.05-11.72,8.9-3.23,3.85-5.68,8.59-7.34,14.21Z" style="fill: #231814;"/>
      <path d="M265.45,190.77c-48.16,0-87.34,39.18-87.34,87.34s39.18,87.34,87.34,87.34,87.34-39.18,87.34-87.34-39.18-87.34-87.34-87.34Zm40.74,87.34c0,22.46-18.28,40.73-40.74,40.73s-40.74-18.27-40.74-40.73,18.28-40.73,40.74-40.73,40.74,18.27,40.74,40.73Z" style="fill: #ea5504;"/>
      <path d="M2618.77,310.75c-19.79,0-34.73-4.42-44.82-13.27-10.1-8.85-15.15-21.92-15.15-39.2v-71.53h-33.42v-42.17h33.42v-53.22h50.6v53.22h46.23v42.17h-46.23v61.53c0,7.29,1.61,12.45,4.84,15.46,3.23,3.02,8.9,4.53,17.02,4.53,4.16,0,7.96-.26,11.4-.78,3.44-.52,7.23-1.4,11.4-2.66v40.92c-4.59,1.46-10.41,2.66-17.49,3.59-7.08,.94-13.02,1.4-17.81,1.4Z" style="fill: #231814;"/>
      <path d="M1339.94,309.82V144.58h50.6v165.24h-50.6Z" style="fill: #231814;"/>
      <path d="M1365.24,0c-32.06,0-58.14,26.08-58.14,58.15s26.08,58.14,58.14,58.14,58.15-26.08,58.15-58.14S1397.3,0,1365.24,0Zm19.42,58.15c0,10.7-8.71,19.41-19.42,19.41s-19.41-8.71-19.41-19.41,8.71-19.41,19.41-19.41,19.42,8.71,19.42,19.41Z" style="fill: #ea5504;"/>
      <path d="M2448.23,204.54v21.67c-10.27-16.24-30.82-25.52-52.04-25.52-44.03,0-75.57,37.62-75.57,84.36s33.29,80.27,74.72,80.27c22.21,0,42.6-10.01,52.88-26.91v24.2h44.76V204.54h-44.76Zm-45.3,111.37c-19.69,0-35.7-16.02-35.7-35.7s16.02-35.7,35.7-35.7,35.71,16.01,35.71,35.7-16.02,35.7-35.71,35.7Z" style="fill: #ea5504;"/>
      <path d="M1237.42,95.21v21.68c-10.27-16.24-30.82-25.52-52.04-25.52-44.03,0-75.56,37.62-75.56,84.36s33.29,80.27,74.72,80.27c22.2,0,42.6-10.01,52.88-26.91v24.19h44.76V95.21h-44.76Zm-45.3,112.98c-19.69,0-35.7-16.01-35.7-35.7s16.01-35.7,35.7-35.7,35.71,16.01,35.71,35.7-16.02,35.7-35.71,35.7Z" style="fill: #231814;"/>
      <polygon points="1542.72 144.58 1627.02 286.98 1656.33 237.5 1601.34 144.58 1542.72 144.58" style="fill: #231814;"/>
      <polygon points="1711.47 144.58 1580.34 365.46 1638.58 365.46 1769.7 144.58 1711.47 144.58" style="fill: #ea5504;"/>
    </g>
  </g>
</svg>