<?xml version="1.0" encoding="UTF-8"?>
<svg id="b" data-name="圖層 2" xmlns="http://www.w3.org/2000/svg" width="160.87" height="168.37" viewBox="0 0 160.87 168.37">
  <g id="c" data-name="footer">
    <path d="M65.91,168.37c-12.91,0-24.32-2.81-34.21-8.43-9.89-5.62-17.65-13.48-23.27-23.59C2.81,126.25,0,114.75,0,101.83V0H50.6V94.96c0,8.96,2.76,16.2,8.28,21.71,5.51,5.52,12.75,8.28,21.71,8.28,6.45,0,12.18-1.14,17.18-3.44,5-2.29,9.16-5.51,12.5-9.68V0h50.6V165.24h-50.6v-11.25c-12.5,9.58-27.28,14.37-44.36,14.37Z" style="fill: #231814;"/>
  </g>
</svg>