<?xml version="1.0" encoding="UTF-8"?>
<svg id="b" data-name="圖層 2" xmlns="http://www.w3.org/2000/svg" width="622.18" height="29.14" viewBox="0 0 622.18 29.14">
  <g id="c" data-name="layout">
    <g>
      <path d="M0,26.23V3.13H11.58c1.52,0,2.85,.31,4.01,.92,1.16,.62,2.07,1.47,2.74,2.56,.67,1.09,1.01,2.35,1.01,3.78s-.34,2.58-1.01,3.66c-.67,1.08-1.59,1.92-2.76,2.54s-2.5,.92-3.99,.92H4.78v8.71H0ZM4.78,13.56h6.27c1.03,0,1.86-.29,2.49-.86,.63-.57,.94-1.33,.94-2.28s-.31-1.74-.94-2.31c-.63-.57-1.46-.86-2.49-.86H4.78v6.3Z" style="fill: #0d131a;"/>
      <path d="M23.3,26.23V3.13h11.29c1.56,0,2.94,.3,4.14,.91,1.2,.61,2.14,1.45,2.82,2.52,.68,1.08,1.02,2.32,1.02,3.73s-.41,2.77-1.24,3.89c-.82,1.12-1.92,1.96-3.28,2.51l5.11,9.54h-5.35l-4.52-8.84h-5.21v8.84h-4.78Zm4.78-12.77h6.07c1.08,0,1.94-.29,2.59-.86s.97-1.32,.97-2.24-.32-1.67-.97-2.24c-.65-.57-1.51-.86-2.59-.86h-6.07v6.2Z" style="fill: #0d131a;"/>
      <path d="M57.85,26.59c-1.72,0-3.31-.3-4.79-.91-1.47-.6-2.77-1.45-3.88-2.54-1.11-1.09-1.98-2.35-2.61-3.79-.63-1.44-.94-3-.94-4.67s.31-3.23,.94-4.67c.63-1.44,1.5-2.71,2.61-3.79s2.4-1.94,3.88-2.54c1.47-.6,3.07-.91,4.79-.91s3.32,.3,4.8,.91c1.48,.61,2.78,1.45,3.89,2.54s1.97,2.35,2.59,3.79c.62,1.44,.92,3,.92,4.67s-.31,3.23-.92,4.67c-.62,1.44-1.48,2.71-2.59,3.79-1.11,1.09-2.41,1.94-3.89,2.54-1.49,.61-3.09,.91-4.8,.91Zm0-4.39c1.06,0,2.02-.19,2.9-.58s1.65-.91,2.31-1.58c.66-.67,1.18-1.47,1.55-2.39,.37-.92,.56-1.91,.56-2.97s-.19-2.07-.56-2.99c-.37-.91-.89-1.71-1.55-2.38-.66-.67-1.43-1.2-2.31-1.58s-1.85-.58-2.9-.58-1.99,.19-2.87,.58-1.65,.91-2.31,1.58c-.66,.67-1.18,1.46-1.55,2.38-.37,.91-.56,1.9-.56,2.95s.19,2.08,.56,3c.37,.92,.89,1.72,1.55,2.39,.66,.67,1.43,1.2,2.31,1.58s1.84,.58,2.87,.58Z" style="fill: #0d131a;"/>
      <path d="M74.18,26.23V3.13h17.85V7.29h-13.07v5.45h8.68v4.03h-8.68v9.47h-4.78Z" style="fill: #0d131a;"/>
      <path d="M96.1,26.23V3.13h17.75V7.29h-12.97v5.28h8.55v4.03h-8.55v5.48h13.1v4.16h-17.89Z" style="fill: #0d131a;"/>
      <path d="M126.46,26.56c-1.87,0-3.7-.35-5.48-1.04-1.78-.69-3.37-1.68-4.75-2.95l2.74-3.43c1.34,1.17,2.63,2.02,3.88,2.56,1.24,.54,2.56,.81,3.94,.81,.97,0,1.8-.12,2.51-.35,.7-.23,1.25-.57,1.63-1.01,.38-.44,.58-.96,.58-1.55,0-.79-.29-1.4-.86-1.83-.57-.43-1.55-.76-2.94-1.01l-4.59-.79c-1.96-.33-3.45-1.02-4.47-2.08-1.02-1.06-1.53-2.42-1.53-4.09,0-1.43,.37-2.67,1.11-3.73,.74-1.06,1.78-1.86,3.13-2.43,1.35-.56,2.96-.84,4.83-.84,1.69,0,3.38,.29,5.07,.86,1.68,.57,3.17,1.36,4.47,2.38l-2.57,3.56c-2.42-1.85-4.85-2.77-7.29-2.77-.86,0-1.61,.11-2.24,.33-.64,.22-1.13,.52-1.47,.91-.34,.38-.51,.84-.51,1.37,0,.7,.25,1.25,.76,1.63,.51,.38,1.35,.68,2.54,.87l4.36,.73c2.31,.38,4.04,1.11,5.18,2.2,1.14,1.09,1.72,2.52,1.72,4.31,0,1.5-.4,2.8-1.19,3.91-.79,1.11-1.92,1.97-3.38,2.57-1.46,.6-3.18,.91-5.16,.91Z" style="fill: #0d131a;"/>
      <path d="M148.43,26.56c-1.87,0-3.7-.35-5.48-1.04-1.78-.69-3.37-1.68-4.75-2.95l2.74-3.43c1.34,1.17,2.63,2.02,3.88,2.56,1.24,.54,2.56,.81,3.94,.81,.97,0,1.8-.12,2.51-.35,.7-.23,1.25-.57,1.63-1.01,.38-.44,.58-.96,.58-1.55,0-.79-.29-1.4-.86-1.83-.57-.43-1.55-.76-2.94-1.01l-4.59-.79c-1.96-.33-3.45-1.02-4.47-2.08-1.02-1.06-1.53-2.42-1.53-4.09,0-1.43,.37-2.67,1.11-3.73,.74-1.06,1.78-1.86,3.13-2.43,1.35-.56,2.96-.84,4.83-.84,1.69,0,3.38,.29,5.07,.86,1.68,.57,3.17,1.36,4.47,2.38l-2.57,3.56c-2.42-1.85-4.85-2.77-7.29-2.77-.86,0-1.61,.11-2.24,.33-.64,.22-1.13,.52-1.47,.91-.34,.38-.51,.84-.51,1.37,0,.7,.25,1.25,.76,1.63,.51,.38,1.35,.68,2.54,.87l4.36,.73c2.31,.38,4.04,1.11,5.18,2.2,1.14,1.09,1.72,2.52,1.72,4.31,0,1.5-.4,2.8-1.19,3.91-.79,1.11-1.92,1.97-3.38,2.57-1.46,.6-3.18,.91-5.16,.91Z" style="fill: #0d131a;"/>
      <path d="M161.83,26.23V3.13h4.78V26.23h-4.78Z" style="fill: #0d131a;"/>
      <path d="M182.95,26.59c-1.72,0-3.31-.3-4.79-.91-1.47-.6-2.77-1.45-3.88-2.54-1.11-1.09-1.98-2.35-2.61-3.79-.63-1.44-.94-3-.94-4.67s.31-3.23,.94-4.67c.63-1.44,1.5-2.71,2.61-3.79s2.4-1.94,3.88-2.54c1.47-.6,3.07-.91,4.79-.91s3.32,.3,4.8,.91c1.48,.61,2.78,1.45,3.89,2.54s1.97,2.35,2.59,3.79c.62,1.44,.92,3,.92,4.67s-.31,3.23-.92,4.67c-.62,1.44-1.48,2.71-2.59,3.79-1.11,1.09-2.41,1.94-3.89,2.54-1.49,.61-3.09,.91-4.8,.91Zm0-4.39c1.06,0,2.02-.19,2.9-.58s1.65-.91,2.31-1.58c.66-.67,1.18-1.47,1.55-2.39,.37-.92,.56-1.91,.56-2.97s-.19-2.07-.56-2.99c-.37-.91-.89-1.71-1.55-2.38-.66-.67-1.43-1.2-2.31-1.58s-1.85-.58-2.9-.58-1.99,.19-2.87,.58-1.65,.91-2.31,1.58c-.66,.67-1.18,1.46-1.55,2.38-.37,.91-.56,1.9-.56,2.95s.19,2.08,.56,3c.37,.92,.89,1.72,1.55,2.39,.66,.67,1.43,1.2,2.31,1.58s1.84,.58,2.87,.58Z" style="fill: #0d131a;"/>
      <path d="M199.28,26.23V3.13h4.55l11.48,14.92V3.13h4.49V26.23h-4.22l-11.78-15.44v15.44h-4.52Z" style="fill: #0d131a;"/>
      <path d="M222.62,26.23l9.5-23.1h5.51l9.41,23.1h-5.18l-2.34-6.07h-9.54l-2.38,6.07h-4.98Zm8.84-9.9h6.6l-3.3-8.51-3.3,8.51Z" style="fill: #0d131a;"/>
      <path d="M249.81,26.23V3.13h4.78V22.01h12.64v4.22h-17.42Z" style="fill: #0d131a;"/>
      <path d="M278.81,26.23V3.13h4.55l11.48,14.92V3.13h4.49V26.23h-4.22l-11.78-15.44v15.44h-4.52Z" style="fill: #0d131a;"/>
      <path d="M304.35,26.23V3.13h17.75V7.29h-12.97v5.28h8.55v4.03h-8.55v5.48h13.1v4.16h-17.89Z" style="fill: #0d131a;"/>
      <path d="M324.62,26.23l9.5-23.1h5.51l9.41,23.1h-5.18l-2.34-6.07h-9.54l-2.38,6.07h-4.98Zm8.84-9.9h6.6l-3.3-8.51-3.3,8.51Z" style="fill: #0d131a;"/>
      <path d="M353.85,26.23V7.35h-7.79V3.13h20.33V7.35h-7.75V26.23h-4.79Z" style="fill: #0d131a;"/>
      <path d="M369.89,26.23V3.13h4.55l11.48,14.92V3.13h4.49V26.23h-4.22l-11.78-15.44v15.44h-4.52Z" style="fill: #0d131a;"/>
      <path d="M395.43,26.23V3.13h17.75V7.29h-12.97v5.28h8.55v4.03h-8.55v5.48h13.1v4.16h-17.89Z" style="fill: #0d131a;"/>
      <path d="M425.79,26.56c-1.87,0-3.7-.35-5.48-1.04-1.78-.69-3.37-1.68-4.75-2.95l2.74-3.43c1.34,1.17,2.63,2.02,3.88,2.56,1.24,.54,2.56,.81,3.94,.81,.97,0,1.8-.12,2.51-.35,.7-.23,1.25-.57,1.63-1.01,.38-.44,.58-.96,.58-1.55,0-.79-.29-1.4-.86-1.83-.57-.43-1.55-.76-2.94-1.01l-4.59-.79c-1.96-.33-3.45-1.02-4.47-2.08-1.02-1.06-1.53-2.42-1.53-4.09,0-1.43,.37-2.67,1.11-3.73,.74-1.06,1.78-1.86,3.13-2.43,1.35-.56,2.96-.84,4.83-.84,1.69,0,3.38,.29,5.07,.86,1.68,.57,3.17,1.36,4.47,2.38l-2.57,3.56c-2.42-1.85-4.85-2.77-7.29-2.77-.86,0-1.61,.11-2.24,.33-.64,.22-1.13,.52-1.47,.91-.34,.38-.51,.84-.51,1.37,0,.7,.25,1.25,.76,1.63,.51,.38,1.35,.68,2.54,.87l4.36,.73c2.31,.38,4.04,1.11,5.18,2.2,1.14,1.09,1.72,2.52,1.72,4.31,0,1.5-.4,2.8-1.19,3.91-.79,1.11-1.92,1.97-3.38,2.57-1.46,.6-3.18,.91-5.16,.91Z" style="fill: #0d131a;"/>
      <path d="M447.77,26.56c-1.87,0-3.7-.35-5.48-1.04-1.78-.69-3.37-1.68-4.75-2.95l2.74-3.43c1.34,1.17,2.63,2.02,3.88,2.56,1.24,.54,2.56,.81,3.94,.81,.97,0,1.8-.12,2.51-.35,.7-.23,1.25-.57,1.63-1.01,.38-.44,.58-.96,.58-1.55,0-.79-.29-1.4-.86-1.83-.57-.43-1.55-.76-2.94-1.01l-4.59-.79c-1.96-.33-3.45-1.02-4.47-2.08-1.02-1.06-1.53-2.42-1.53-4.09,0-1.43,.37-2.67,1.11-3.73,.74-1.06,1.78-1.86,3.13-2.43,1.35-.56,2.96-.84,4.83-.84,1.69,0,3.38,.29,5.07,.86,1.68,.57,3.17,1.36,4.47,2.38l-2.57,3.56c-2.42-1.85-4.85-2.77-7.29-2.77-.86,0-1.61,.11-2.24,.33-.64,.22-1.13,.52-1.47,.91-.34,.38-.51,.84-.51,1.37,0,.7,.25,1.25,.76,1.63,.51,.38,1.35,.68,2.54,.87l4.36,.73c2.31,.38,4.04,1.11,5.18,2.2,1.14,1.09,1.72,2.52,1.72,4.31,0,1.5-.4,2.8-1.19,3.91-.79,1.11-1.92,1.97-3.38,2.57-1.46,.6-3.18,.91-5.16,.91Z" style="fill: #0d131a;"/>
      <path d="M509.28,12.5c-.25,.9-.53,1.77-.74,2.6h12.12l.59-.19,2.85,1.64c-2.11,2.23-4.81,4.93-7.41,7.47,1.67,.65,3.19,1.3,4.31,1.89l-2.14,3.22c-3.22-1.86-9.89-4.34-14.79-5.64l1.95-2.79c2.05,.5,4.46,1.18,6.85,1.98,1.43-1.39,2.91-2.82,4.22-4.15h-13.74c.62-1.71,1.3-3.81,1.98-6.05h-7.32v-3.54h8.34c.25-.9,.5-1.74,.71-2.64h-6.48V2.82h7.41c.22-.99,.43-1.89,.65-2.82h3.91c-.22,.93-.47,1.86-.71,2.82h11.5v3.5h-12.37l-.71,2.64h15.29v3.54h-16.28Z" style="fill: #0d131a;"/>
      <path d="M557.55,23.81v3.69h-27.72v-3.69h8V.37h3.81V23.81h4.06V.37h3.81V17.46c1.55-2.95,3.41-7.35,4.43-10.88l3.32,1.58c-1.36,3.91-3.32,8.28-4.93,11.25l-2.82-1.43v5.83h8.03Zm-23.63-4.59c-.68-2.98-2.29-7.94-3.72-11.75l3.38-.99c1.46,3.63,3.26,8.5,4.03,11.44l-3.69,1.3Z" style="fill: #0d131a;"/>
      <path d="M571,9.15h5.58v3.41h-5.58v1.09c1.55,1.24,4.59,3.97,5.39,4.71l-2.11,3.13c-.77-.96-2.08-2.45-3.29-3.78v11.16h-3.72v-10.95c-1.36,2.79-2.98,5.36-4.65,7.13-.37-1.12-1.3-2.67-1.89-3.63,2.2-2.14,4.5-5.64,5.89-8.87h-5.21v-3.41h5.86v-3.81c-1.74,.34-3.47,.62-5.12,.84-.16-.84-.65-2.11-1.08-2.88,4.5-.68,9.46-1.83,12.46-3.19l2.6,2.82c-1.52,.62-3.29,1.15-5.15,1.61v4.62Zm11.04,11.91h-3.69V3.72h3.69V21.05Zm6.57-20.56V24.34c0,2.2-.43,3.16-1.71,3.78s-3.32,.74-6.17,.74c-.15-1.08-.71-2.79-1.27-3.84,2.02,.09,4.03,.09,4.65,.09,.59-.03,.84-.19,.84-.81V.5h3.66Z" style="fill: #0d131a;"/>
      <path d="M597.94,18.39c-1.15-.87-3.54-2.39-5.24-3.41l2.17-2.48c1.61,.9,4.06,2.26,5.3,3.13l-2.23,2.76Zm-4.68,7.66c1.71-1.64,4.15-4.4,6.23-7.01l2.14,2.67c-1.74,2.39-3.78,4.93-5.74,7.19l-2.64-2.85Zm6.39-21.12h-6.17V1.71h6.17V0h3.6V1.71h3.19v3.22h-3.19v2.05h-3.6v-2.05Zm-2.88,1.49c1.58,.9,4.06,2.23,5.33,3.01l-2.17,2.76c-1.21-.77-3.66-2.26-5.27-3.25l2.11-2.51Zm23.16,3.19c-1.3,1.98-3.1,3.69-5.21,5.18,2.29,.84,4.87,1.46,7.47,1.86-.74,.74-1.71,2.11-2.14,3.04-.47-.09-.96-.19-1.43-.31v9.52h-3.63v-1.24h-8.25v1.24h-3.47v-9.08c-.4,.12-.84,.22-1.24,.31-.34-.87-1.15-2.26-1.8-2.95,2.64-.5,5.4-1.33,7.88-2.39-.84-.59-1.64-1.24-2.39-1.95-.9,.9-1.89,1.77-2.95,2.57-.59-.68-1.74-1.74-2.54-2.2,3.07-2.05,5.46-4.77,6.85-6.98l3.53,.71c-.31,.46-.65,.93-.99,1.39h7.35l.59-.15,2.36,1.43Zm-1.86,9.61c-2.33-.62-4.59-1.43-6.64-2.48-1.95,1.02-4.03,1.8-6.14,2.48h12.77Zm-3.07,5.61v-2.82h-8.25v2.82h8.25Zm-7.01-13.83c.87,.81,1.98,1.55,3.26,2.23,1.18-.68,2.26-1.43,3.16-2.23h-6.42Zm3.1-6.11h-3.07V1.67h3.07V0h3.6V1.67h6.26v3.22h-6.26v2.08h-3.6v-2.08Z" style="fill: #0d131a;"/>
    </g>
  </g>
</svg>