<?xml version="1.0" encoding="UTF-8"?>
<svg id="b" data-name="圖層 2" xmlns="http://www.w3.org/2000/svg" width="173.68" height="47.46" viewBox="0 0 173.68 47.46">
  <g id="c" data-name="layout">
    <g>
      <line x1="12.84" x2="12.84" y2="24.38" style="fill: none; stroke: #fff; stroke-miterlimit: 10; stroke-width: 2.35px;"/>
      <path d="M1.54,8.29c.55-.35,1.28-.19,1.63,.36l9.67,15.19,9.67-15.19c.35-.55,1.08-.71,1.63-.36s.71,1.08,.36,1.63L13.83,26.67c-.22,.34-.59,.54-.99,.54s-.78-.21-.99-.54L1.18,9.92c-.12-.2-.18-.42-.18-.63,0-.39,.19-.77,.54-1Z" style="fill: #fff;"/>
    </g>
    <g>
      <path d="M3.3,47.46c-1.07-.62-1.88-1.45-2.45-2.48-.57-1.03-.85-2.21-.85-3.54s.28-2.51,.85-3.54c.57-1.04,1.38-1.86,2.45-2.48l.7,.83c-.89,.54-1.58,1.25-2.05,2.15s-.71,1.91-.71,3.04,.24,2.14,.71,3.04,1.16,1.61,2.05,2.14l-.7,.84Z" style="fill: #fff;"/>
      <path d="M12.3,44.8c-.73,0-1.43-.14-2.11-.43-.68-.29-1.27-.69-1.79-1.21l.83-.96c.49,.49,1,.84,1.51,1.08,.52,.23,1.05,.35,1.62,.35,.44,0,.83-.06,1.16-.19s.59-.31,.77-.54c.18-.23,.27-.5,.27-.79,0-.41-.14-.72-.43-.94s-.76-.38-1.42-.49l-1.52-.25c-.83-.15-1.45-.42-1.87-.81s-.62-.91-.62-1.56c0-.52,.14-.98,.42-1.37,.28-.39,.67-.7,1.18-.92s1.09-.33,1.76-.33,1.31,.11,1.94,.32c.64,.21,1.21,.52,1.72,.92l-.75,1.04c-.98-.75-1.97-1.12-2.98-1.12-.4,0-.75,.06-1.04,.17-.29,.11-.52,.27-.69,.47-.16,.2-.25,.44-.25,.71,0,.37,.13,.66,.38,.85,.25,.2,.67,.34,1.25,.42l1.47,.25c.96,.16,1.67,.44,2.12,.84s.68,.97,.68,1.68c0,.55-.15,1.04-.46,1.46-.3,.42-.73,.75-1.27,.98-.55,.23-1.18,.35-1.9,.35Z" style="fill: #fff;"/>
      <path d="M20.85,44.79c-.63,0-1.21-.15-1.73-.46s-.93-.71-1.23-1.24c-.3-.52-.45-1.1-.45-1.74s.15-1.22,.46-1.74,.71-.93,1.23-1.23,1.09-.46,1.72-.46c.5,0,.99,.1,1.45,.29,.46,.19,.86,.46,1.2,.81l-.81,.9c-.25-.28-.53-.49-.85-.62s-.64-.21-.98-.21c-.4,0-.76,.1-1.09,.3s-.58,.47-.77,.82c-.19,.35-.29,.73-.29,1.16s.1,.81,.29,1.16c.19,.35,.45,.62,.78,.83,.33,.2,.7,.3,1.1,.3,.34,0,.65-.07,.95-.2,.29-.13,.57-.33,.83-.59l.79,.83c-.35,.36-.75,.63-1.2,.82s-.93,.29-1.42,.29Z" style="fill: #fff;"/>
      <path d="M25.1,44.67v-6.62h1.3v.84c.21-.31,.47-.56,.77-.73,.31-.18,.66-.27,1.05-.27,.27,0,.49,.05,.66,.12v1.17c-.12-.05-.25-.09-.38-.11-.13-.02-.26-.03-.39-.03-.38,0-.72,.1-1.01,.31-.29,.2-.53,.5-.7,.89v4.43h-1.3Z" style="fill: #fff;"/>
      <path d="M33.28,44.8c-.64,0-1.22-.15-1.75-.46-.52-.3-.94-.71-1.24-1.23-.3-.52-.46-1.1-.46-1.74s.15-1.22,.46-1.74c.3-.52,.72-.93,1.24-1.24s1.11-.46,1.75-.46,1.23,.15,1.75,.46,.93,.72,1.23,1.24c.3,.52,.46,1.1,.46,1.74s-.15,1.22-.46,1.74c-.3,.52-.71,.93-1.23,1.23-.52,.3-1.1,.46-1.75,.46Zm0-1.14c.41,0,.78-.1,1.1-.31,.33-.2,.59-.48,.78-.83,.19-.35,.29-.74,.29-1.17s-.1-.81-.29-1.15c-.19-.34-.46-.62-.78-.83-.33-.21-.69-.31-1.1-.31s-.77,.1-1.1,.31-.58,.48-.78,.83c-.2,.34-.29,.73-.29,1.15s.1,.82,.29,1.17c.19,.35,.45,.62,.78,.83,.33,.2,.7,.31,1.1,.31Z" style="fill: #fff;"/>
      <path d="M38.54,44.67v-9.1l1.3-.25v9.35h-1.3Z" style="fill: #fff;"/>
      <path d="M41.96,44.67v-9.1l1.3-.25v9.35h-1.3Z" style="fill: #fff;"/>
      <path d="M49.67,44.67v-5.53h-1.53v-1.09h1.53v-1c0-.69,.19-1.22,.58-1.59s.94-.55,1.66-.55c.18,0,.35,.01,.51,.03,.16,.02,.31,.05,.44,.1v1.12c-.16-.04-.29-.08-.42-.1s-.26-.03-.4-.03c-.36,0-.64,.08-.81,.25-.18,.17-.27,.44-.27,.8v.96h1.9v1.09h-1.9v5.53h-1.29Z" style="fill: #fff;"/>
      <path d="M57.26,44.8c-.64,0-1.22-.15-1.75-.46-.52-.3-.94-.71-1.24-1.23-.3-.52-.46-1.1-.46-1.74s.15-1.22,.46-1.74c.3-.52,.72-.93,1.24-1.24s1.11-.46,1.75-.46,1.23,.15,1.75,.46,.93,.72,1.23,1.24c.3,.52,.46,1.1,.46,1.74s-.15,1.22-.46,1.74c-.3,.52-.71,.93-1.23,1.23-.52,.3-1.1,.46-1.75,.46Zm0-1.14c.41,0,.78-.1,1.1-.31,.33-.2,.59-.48,.78-.83,.19-.35,.29-.74,.29-1.17s-.1-.81-.29-1.15c-.19-.34-.46-.62-.78-.83-.33-.21-.69-.31-1.1-.31s-.77,.1-1.1,.31-.58,.48-.78,.83c-.2,.34-.29,.73-.29,1.15s.1,.82,.29,1.17c.19,.35,.45,.62,.78,.83,.33,.2,.7,.31,1.1,.31Z" style="fill: #fff;"/>
      <path d="M62.53,44.67v-6.62h1.3v.84c.21-.31,.47-.56,.77-.73,.31-.18,.66-.27,1.05-.27,.27,0,.49,.05,.66,.12v1.17c-.12-.05-.25-.09-.38-.11-.13-.02-.26-.03-.39-.03-.38,0-.72,.1-1.01,.31-.29,.2-.53,.5-.7,.89v4.43h-1.3Z" style="fill: #fff;"/>
      <path d="M71.68,47.46c-.14,0-.27,0-.39-.02-.12-.01-.22-.03-.3-.06v-1.14c.16,.03,.35,.05,.57,.05,.61,0,1.04-.33,1.31-.97l.29-.64-2.65-6.63h1.44l1.92,5.04,2.13-5.04h1.4l-3.2,7.44c-.21,.47-.43,.85-.66,1.14-.23,.29-.5,.5-.81,.64-.3,.13-.66,.2-1.07,.2Z" style="fill: #fff;"/>
      <path d="M81.75,44.8c-.64,0-1.22-.15-1.75-.46-.52-.3-.94-.71-1.24-1.23-.3-.52-.46-1.1-.46-1.74s.15-1.22,.46-1.74c.3-.52,.72-.93,1.24-1.24s1.11-.46,1.75-.46,1.23,.15,1.75,.46,.93,.72,1.23,1.24c.3,.52,.46,1.1,.46,1.74s-.15,1.22-.46,1.74c-.3,.52-.71,.93-1.23,1.23-.52,.3-1.1,.46-1.75,.46Zm0-1.14c.41,0,.78-.1,1.1-.31,.33-.2,.59-.48,.78-.83,.19-.35,.29-.74,.29-1.17s-.1-.81-.29-1.15c-.19-.34-.46-.62-.78-.83-.33-.21-.69-.31-1.1-.31s-.77,.1-1.1,.31-.58,.48-.78,.83c-.2,.34-.29,.73-.29,1.15s.1,.82,.29,1.17c.19,.35,.45,.62,.78,.83,.33,.2,.7,.31,1.1,.31Z" style="fill: #fff;"/>
      <path d="M89.58,44.8c-.51,0-.96-.11-1.35-.33-.39-.22-.69-.52-.91-.92s-.32-.85-.32-1.36v-4.15h1.29v3.93c0,.52,.15,.93,.45,1.24,.3,.3,.7,.46,1.2,.46,.35,0,.67-.08,.95-.23s.5-.37,.68-.64v-4.75h1.3v6.62h-1.3v-.68c-.51,.54-1.17,.81-1.98,.81Z" style="fill: #fff;"/>
      <path d="M94.97,44.67v-6.62h1.3v.84c.21-.31,.47-.56,.77-.73,.31-.18,.66-.27,1.05-.27,.27,0,.49,.05,.66,.12v1.17c-.12-.05-.25-.09-.38-.11-.13-.02-.26-.03-.39-.03-.38,0-.72,.1-1.01,.31-.29,.2-.53,.5-.7,.89v4.43h-1.3Z" style="fill: #fff;"/>
      <path d="M106.73,44.77c-.62,0-1.18-.15-1.69-.45-.51-.3-.91-.71-1.21-1.23-.29-.52-.44-1.09-.44-1.74s.15-1.22,.45-1.73,.7-.92,1.22-1.22c.51-.3,1.08-.46,1.7-.46,.36,0,.71,.06,1.05,.17,.34,.11,.65,.28,.94,.49v-3.04l1.3-.25v9.35h-1.29v-.64c-.56,.49-1.24,.74-2.03,.74Zm.17-1.13c.38,0,.73-.07,1.05-.21,.32-.14,.58-.34,.8-.6v-2.98c-.22-.24-.48-.44-.8-.58-.32-.14-.67-.21-1.05-.21-.42,0-.79,.1-1.13,.3-.34,.2-.61,.47-.81,.81-.2,.34-.3,.73-.3,1.16s.1,.82,.3,1.17c.2,.35,.47,.62,.81,.83,.34,.2,.71,.3,1.13,.3Z" style="fill: #fff;"/>
      <path d="M114.25,44.79c-.48,0-.9-.08-1.26-.25-.36-.17-.65-.41-.86-.71-.21-.3-.31-.65-.31-1.05,0-.62,.24-1.12,.71-1.47,.48-.36,1.13-.54,1.96-.54,.65,0,1.25,.13,1.81,.38v-.7c0-.48-.14-.83-.41-1.07-.27-.23-.67-.35-1.2-.35-.3,0-.62,.05-.95,.14-.33,.09-.7,.23-1.1,.42l-.48-.98c.5-.23,.97-.4,1.4-.51,.43-.11,.87-.16,1.31-.16,.86,0,1.52,.2,2,.61,.47,.41,.71,.99,.71,1.74v4.39h-1.27v-.57c-.29,.23-.61,.41-.95,.52-.34,.11-.71,.17-1.1,.17Zm-1.18-2.04c0,.32,.14,.58,.41,.78,.27,.2,.63,.3,1.07,.3,.35,0,.67-.05,.96-.16,.29-.1,.56-.26,.8-.48v-1.12c-.25-.15-.51-.25-.79-.32-.27-.06-.58-.1-.92-.1-.48,0-.85,.1-1.12,.29s-.41,.46-.41,.8Z" style="fill: #fff;"/>
      <path d="M120.31,36.99c-.22,0-.4-.08-.56-.24-.16-.16-.23-.35-.23-.57s.08-.41,.23-.57c.16-.15,.34-.23,.56-.23s.42,.08,.57,.23c.16,.15,.23,.34,.23,.57s-.08,.41-.23,.57c-.16,.16-.35,.24-.57,.24Zm-.65,7.68v-6.62h1.3v6.62h-1.3Z" style="fill: #fff;"/>
      <path d="M123.08,44.67v-9.1l1.3-.25v9.35h-1.3Z" style="fill: #fff;"/>
      <path d="M126.94,47.46c-.14,0-.27,0-.39-.02-.12-.01-.22-.03-.3-.06v-1.14c.16,.03,.35,.05,.57,.05,.61,0,1.04-.33,1.31-.97l.29-.64-2.65-6.63h1.44l1.92,5.04,2.13-5.04h1.4l-3.2,7.44c-.21,.47-.43,.85-.66,1.14-.23,.29-.5,.5-.81,.64-.3,.13-.66,.2-1.07,.2Z" style="fill: #fff;"/>
      <path d="M137.37,44.67v-9.1l1.3-.25v3.35c.55-.49,1.23-.73,2.02-.73,.62,0,1.19,.15,1.7,.46,.51,.3,.91,.71,1.2,1.22,.29,.51,.44,1.09,.44,1.73s-.15,1.22-.45,1.74c-.3,.52-.7,.92-1.21,1.23-.51,.3-1.08,.45-1.71,.45-.36,0-.72-.06-1.06-.17-.34-.12-.66-.28-.94-.5v.57h-1.29Zm3.15-1.03c.42,0,.8-.1,1.14-.3s.6-.47,.8-.81c.2-.34,.3-.73,.3-1.16s-.1-.82-.3-1.17c-.2-.35-.47-.62-.8-.82s-.71-.3-1.14-.3c-.37,0-.72,.07-1.04,.21-.32,.14-.59,.33-.81,.58v2.99c.22,.24,.49,.43,.81,.57,.33,.14,.67,.21,1.03,.21Z" style="fill: #fff;"/>
      <path d="M149.02,44.79c-.65,0-1.24-.15-1.76-.46-.52-.3-.94-.71-1.25-1.24-.31-.52-.46-1.1-.46-1.74s.15-1.21,.44-1.72c.29-.52,.69-.93,1.2-1.24,.5-.31,1.06-.46,1.68-.46s1.16,.15,1.64,.46,.86,.72,1.14,1.25c.28,.52,.42,1.12,.42,1.77v.36h-5.21c.07,.36,.21,.69,.41,.97,.2,.29,.46,.51,.78,.68,.32,.17,.66,.25,1.03,.25,.32,0,.63-.05,.93-.15,.3-.1,.55-.24,.75-.44l.83,.82c-.39,.29-.79,.51-1.2,.66-.41,.14-.86,.21-1.36,.21Zm-2.16-3.98h3.91c-.05-.35-.17-.65-.36-.92s-.42-.47-.69-.62-.57-.23-.89-.23-.63,.07-.91,.22c-.28,.15-.51,.35-.7,.62-.19,.26-.31,.57-.37,.93Z" style="fill: #fff;"/>
      <path d="M155.88,44.79c-.48,0-.9-.08-1.26-.25-.36-.17-.65-.41-.86-.71-.21-.3-.31-.65-.31-1.05,0-.62,.24-1.12,.71-1.47,.48-.36,1.13-.54,1.96-.54,.65,0,1.25,.13,1.81,.38v-.7c0-.48-.14-.83-.41-1.07-.27-.23-.67-.35-1.2-.35-.3,0-.62,.05-.95,.14-.33,.09-.7,.23-1.1,.42l-.48-.98c.5-.23,.97-.4,1.4-.51,.43-.11,.87-.16,1.31-.16,.86,0,1.52,.2,2,.61,.47,.41,.71,.99,.71,1.74v4.39h-1.27v-.57c-.29,.23-.61,.41-.95,.52-.34,.11-.71,.17-1.1,.17Zm-1.18-2.04c0,.32,.14,.58,.41,.78,.27,.2,.63,.3,1.07,.3,.35,0,.67-.05,.96-.16,.29-.1,.56-.26,.8-.48v-1.12c-.25-.15-.51-.25-.79-.32-.27-.06-.58-.1-.92-.1-.48,0-.85,.1-1.12,.29s-.41,.46-.41,.8Z" style="fill: #fff;"/>
      <path d="M163.93,44.79c-.64,0-1.13-.15-1.47-.45-.34-.3-.51-.74-.51-1.31v-3.89h-1.4v-1.09h1.4v-1.69l1.29-.31v2h1.95v1.09h-1.95v3.59c0,.34,.08,.58,.23,.72,.15,.14,.4,.21,.75,.21,.18,0,.34-.01,.49-.04s.3-.07,.46-.12v1.09c-.17,.06-.38,.11-.6,.14s-.44,.05-.63,.05Z" style="fill: #fff;"/>
      <path d="M170.37,35.37c1.07,.62,1.88,1.45,2.45,2.48,.57,1.03,.85,2.21,.85,3.54s-.28,2.51-.85,3.54c-.57,1.04-1.38,1.86-2.45,2.48l-.7-.83c.89-.54,1.58-1.25,2.05-2.15s.71-1.91,.71-3.04-.24-2.14-.71-3.04-1.16-1.61-2.05-2.14l.7-.84Z" style="fill: #fff;"/>
    </g>
  </g>
</svg>