<?xml version="1.0" encoding="UTF-8"?>
<svg id="b" data-name="圖層 2" xmlns="http://www.w3.org/2000/svg" width="45.43" height="72.23" viewBox="0 0 45.43 72.23">
  <defs>
    <style>
      .d {
        fill: #fff;
      }
    </style>
  </defs>
  <g id="c" data-name="layout">
    <g>
      <path class="d" d="M10.59,71.3l-10.59,.92,.5-1.55,8.99-.7-6.88-5.86,.48-1.48,8.05,6.98-.54,1.69Z"/>
      <path class="d" d="M14.32,60.88c-.25,.68-.63,1.23-1.14,1.66-.51,.43-1.08,.71-1.73,.83-.64,.12-1.29,.07-1.94-.17-.64-.24-1.16-.61-1.57-1.11s-.67-1.07-.78-1.71c-.12-.64-.05-1.28,.18-1.92,.24-.64,.6-1.15,1.1-1.53s1.06-.62,1.7-.71c.64-.1,1.29-.02,1.95,.23l.37,.14-2.02,5.42c.39,.06,.78,.04,1.14-.06,.37-.1,.7-.29,.98-.56,.29-.27,.5-.59,.65-.98,.12-.33,.19-.67,.21-1.02,.02-.35-.04-.66-.15-.94l1.15-.56c.15,.52,.21,1.02,.2,1.5-.01,.48-.12,.98-.31,1.49Zm-4.85,.75l1.51-4.07c-.37-.08-.72-.07-1.06,.03s-.64,.25-.9,.48c-.26,.23-.45,.51-.57,.84-.13,.34-.17,.69-.13,1.03,.04,.34,.16,.66,.35,.95,.19,.29,.46,.54,.79,.73Z"/>
      <path class="d" d="M9.17,51.01c-.09,.22-.25,.38-.48,.47s-.45,.1-.66,0c-.22-.09-.38-.25-.46-.47-.08-.22-.08-.44,0-.67,.09-.23,.25-.4,.47-.49s.44-.1,.66,0c.22,.09,.37,.25,.46,.47,.09,.23,.09,.45,0,.69Zm7.38,3.81l-6.59-2.71,.55-1.33,6.59,2.71-.55,1.33Z"/>
      <path class="d" d="M18.95,49.1l-7.33-1.1,.58-1.27,5.36,.88-4.07-3.7,.52-1.13,5.46,.65-4.17-3.47,.56-1.23,5.62,4.84-.57,1.26-5.43-.67,4.06,3.68-.58,1.27Z"/>
      <path class="d" d="M25.7,35.02l-6.22-3.48,.7-1.26,.6,.33c-.21-.75-.12-1.48,.29-2.2,.24-.44,.55-.77,.93-1.01,.38-.24,.78-.36,1.21-.39-.19-.46-.27-.92-.25-1.38s.17-.92,.42-1.37c.27-.48,.6-.84,1.01-1.08,.4-.24,.85-.36,1.33-.37,.48,0,.96,.13,1.44,.4l3.91,2.19-.7,1.26-3.7-2.07c-.49-.27-.95-.36-1.38-.25-.43,.11-.77,.39-1.02,.84-.17,.31-.26,.63-.26,.96,0,.33,.09,.67,.27,1.01,.09,.03,.18,.06,.28,.11,.09,.04,.19,.09,.28,.14l3.91,2.19-.7,1.25-3.7-2.07c-.49-.27-.95-.36-1.38-.25-.43,.11-.77,.39-1.02,.84-.17,.3-.26,.61-.27,.92,0,.31,.06,.63,.22,.95l4.52,2.53-.7,1.26Z"/>
      <path class="d" d="M34.8,19.73c-.38,.6-.87,1.06-1.45,1.38-.59,.32-1.21,.47-1.86,.45s-1.27-.21-1.85-.58-1.02-.85-1.31-1.43c-.29-.58-.42-1.21-.39-1.88,.03-.67,.24-1.3,.62-1.9,.39-.61,.87-1.07,1.46-1.38,.59-.31,1.21-.46,1.86-.44,.65,.02,1.27,.21,1.85,.58s1.02,.85,1.31,1.43,.42,1.21,.39,1.87-.24,1.3-.63,1.91Zm-1.04-.66c.24-.38,.37-.79,.38-1.21s-.08-.83-.29-1.21-.5-.69-.89-.94c-.39-.24-.79-.37-1.22-.39-.43-.01-.83,.07-1.21,.25-.38,.18-.69,.47-.94,.85s-.37,.78-.37,1.21c0,.42,.09,.83,.29,1.21,.2,.38,.49,.69,.87,.94,.39,.25,.81,.39,1.23,.41s.83-.06,1.21-.25c.38-.19,.69-.48,.93-.86Z"/>
      <path class="d" d="M38.47,13.87l-5.86-4.05,.82-1.19,.75,.52c-.15-.38-.2-.77-.16-1.16,.04-.39,.18-.76,.42-1.12,.18-.24,.35-.42,.52-.53l1.04,.72c-.12,.08-.23,.17-.34,.28-.1,.11-.19,.22-.27,.34-.24,.35-.36,.72-.37,1.11,0,.39,.11,.79,.35,1.19l3.93,2.71-.82,1.19Z"/>
      <path class="d" d="M44.48,5.68c-.43,.58-.95,1-1.56,1.27-.61,.27-1.24,.38-1.89,.31-.65-.06-1.26-.3-1.81-.71-.55-.41-.94-.91-1.19-1.5-.25-.59-.34-1.21-.27-1.86,.07-.64,.31-1.24,.71-1.79,.41-.55,.9-.93,1.48-1.16,.58-.23,1.19-.29,1.83-.21s1.24,.34,1.81,.77l.31,.23-3.46,4.63c.36,.17,.73,.26,1.11,.26,.38,0,.75-.08,1.1-.26,.35-.17,.65-.43,.9-.76,.21-.29,.38-.59,.49-.92,.11-.33,.15-.64,.12-.94l1.26-.21c0,.54-.08,1.03-.23,1.49s-.39,.91-.72,1.35Zm-4.87-.64l2.6-3.48c-.33-.18-.68-.27-1.03-.27-.35,0-.68,.07-1,.21-.31,.15-.58,.36-.79,.65-.22,.29-.36,.61-.41,.95s-.03,.68,.07,1.02,.29,.65,.56,.93Z"/>
    </g>
  </g>
</svg>