<?xml version="1.0" encoding="UTF-8"?>
<svg id="b" data-name="圖層 2" xmlns="http://www.w3.org/2000/svg" width="653.75" height="32.84" viewBox="0 0 653.75 32.84">
  <g id="c" data-name="layout">
    <g>
      <path d="M12.28,26.93c-1.72,0-3.32-.3-4.82-.91-1.5-.61-2.8-1.45-3.91-2.52s-1.98-2.34-2.61-3.78c-.63-1.44-.94-3-.94-4.67s.31-3.26,.94-4.7c.63-1.44,1.5-2.7,2.62-3.78,1.12-1.08,2.43-1.92,3.91-2.52,1.48-.6,3.09-.91,4.8-.91,1.28,0,2.51,.18,3.7,.53,1.19,.35,2.29,.85,3.32,1.48,1.02,.64,1.9,1.41,2.62,2.31l-3.23,3.2c-.84-1.03-1.8-1.81-2.89-2.34-1.09-.53-2.26-.79-3.51-.79-1.03,0-2,.19-2.9,.58-.9,.38-1.68,.91-2.34,1.58-.66,.67-1.18,1.46-1.55,2.38-.37,.91-.56,1.91-.56,2.99s.19,2.04,.56,2.95c.37,.91,.9,1.71,1.58,2.38,.68,.67,1.48,1.19,2.39,1.57,.91,.38,1.91,.56,2.99,.56,1.21,0,2.34-.25,3.4-.76,1.06-.51,1.99-1.23,2.81-2.18l3.13,3.1c-.73,.88-1.6,1.64-2.61,2.28-1.01,.64-2.11,1.13-3.28,1.47-1.18,.34-2.38,.51-3.61,.51Z" style="fill: #0d131a;"/>
      <path d="M25.41,26.6V3.5h4.78V12.81h10.63V3.5h4.78V26.6h-4.78v-9.47h-10.63v9.47h-4.78Z" style="fill: #0d131a;"/>
      <path d="M50.62,26.6V3.5h17.75V7.66h-12.97v5.28h8.55v4.03h-8.55v5.48h13.1v4.16h-17.89Z" style="fill: #0d131a;"/>
      <path d="M76.39,26.6l-5.12-23.1h4.92l3.14,15.64,4.49-15.64h4.52l4.49,15.61,3.13-15.61h4.75l-5.08,23.1h-5.05l-4.55-16.1-4.62,16.1h-5.02Z" style="fill: #0d131a;"/>
      <path d="M111.97,26.6v-8.84l-9.44-14.26h5.51l6.47,10.03,6.5-10.03h5.21l-9.47,14.29v8.81h-4.78Z" style="fill: #0d131a;"/>
      <path d="M147.74,26.97c-1.72,0-3.31-.3-4.79-.91-1.47-.6-2.77-1.45-3.89-2.54-1.12-1.09-2-2.35-2.62-3.79-.63-1.44-.94-3-.94-4.67s.31-3.23,.94-4.67c.63-1.44,1.49-2.71,2.59-3.79,1.1-1.09,2.39-1.94,3.88-2.54,1.48-.6,3.07-.91,4.77-.91,1.91,0,3.72,.38,5.41,1.14,1.69,.76,3.09,1.82,4.19,3.18l-3.33,3.07c-.79-.99-1.73-1.74-2.8-2.24-1.08-.51-2.23-.76-3.46-.76-1.03,0-1.99,.19-2.87,.58-.88,.38-1.65,.91-2.31,1.58s-1.17,1.46-1.53,2.38c-.36,.91-.54,1.91-.54,2.99s.19,2.08,.56,3c.37,.92,.9,1.72,1.57,2.39,.67,.67,1.45,1.2,2.34,1.58,.89,.38,1.86,.58,2.92,.58s2.09-.2,2.97-.61,1.62-.98,2.23-1.72,1.01-1.57,1.2-2.49h-6.83v-4.16h11.95v1.45c0,1.72-.29,3.29-.87,4.74-.58,1.44-1.39,2.7-2.43,3.76-1.03,1.07-2.26,1.9-3.66,2.49-1.41,.59-2.95,.89-4.62,.89Z" style="fill: #0d131a;"/>
      <path d="M174.73,26.97c-1.72,0-3.31-.3-4.79-.91-1.47-.6-2.77-1.45-3.88-2.54-1.11-1.09-1.98-2.35-2.61-3.79-.63-1.44-.94-3-.94-4.67s.31-3.23,.94-4.67c.63-1.44,1.5-2.71,2.61-3.79s2.4-1.94,3.88-2.54c1.47-.6,3.07-.91,4.79-.91s3.32,.3,4.8,.91c1.48,.61,2.78,1.45,3.89,2.54s1.97,2.35,2.59,3.79c.62,1.44,.92,3,.92,4.67s-.31,3.23-.92,4.67c-.62,1.44-1.48,2.71-2.59,3.79-1.11,1.09-2.41,1.94-3.89,2.54-1.49,.61-3.09,.91-4.8,.91Zm0-4.39c1.06,0,2.02-.19,2.9-.58s1.65-.91,2.31-1.58c.66-.67,1.18-1.47,1.55-2.39,.37-.92,.56-1.91,.56-2.97s-.19-2.07-.56-2.99c-.37-.91-.89-1.71-1.55-2.38-.66-.67-1.43-1.2-2.31-1.58s-1.85-.58-2.9-.58-1.99,.19-2.87,.58-1.65,.91-2.31,1.58c-.66,.67-1.18,1.46-1.55,2.38-.37,.91-.56,1.9-.56,2.95s.19,2.08,.56,3c.37,.92,.89,1.72,1.55,2.39,.66,.67,1.43,1.2,2.31,1.58s1.84,.58,2.87,.58Z" style="fill: #0d131a;"/>
      <path d="M191.07,26.6V3.5h4.78V22.38h12.64v4.22h-17.42Z" style="fill: #0d131a;"/>
      <path d="M212.62,26.6V3.5h8.88c1.74,0,3.34,.29,4.82,.87,1.47,.58,2.76,1.4,3.86,2.46,1.1,1.06,1.96,2.29,2.59,3.7,.63,1.41,.94,2.93,.94,4.55s-.31,3.17-.92,4.55c-.62,1.39-1.48,2.6-2.59,3.65s-2.4,1.86-3.88,2.44c-1.47,.58-3.08,.87-4.82,.87h-8.88Zm4.78-4.26h4.03c1.03,0,2-.18,2.89-.54,.89-.36,1.67-.87,2.34-1.53,.67-.66,1.19-1.43,1.55-2.31,.36-.88,.54-1.84,.54-2.87s-.19-2-.56-2.89c-.37-.89-.89-1.67-1.55-2.33-.66-.66-1.44-1.18-2.33-1.55-.89-.37-1.85-.56-2.89-.56h-4.03v14.59Z" style="fill: #0d131a;"/>
      <path d="M237.79,26.6V3.5h17.75V7.66h-12.97v5.28h8.55v4.03h-8.55v5.48h13.1v4.16h-17.89Z" style="fill: #0d131a;"/>
      <path d="M259.9,26.6V3.5h4.55l11.48,14.92V3.5h4.49V26.6h-4.22l-11.78-15.44v15.44h-4.52Z" style="fill: #0d131a;"/>
      <path d="M292.9,26.6V3.5h10.86c1.56,0,2.93,.26,4.11,.79,1.18,.53,2.09,1.27,2.74,2.23,.65,.96,.97,2.06,.97,3.32,0,1.01-.26,1.94-.78,2.79-.52,.85-1.22,1.53-2.1,2.06,1.12,.53,2.01,1.24,2.67,2.15s.99,1.92,.99,3.07c0,1.32-.34,2.49-1.01,3.5-.67,1.01-1.62,1.8-2.84,2.36-1.22,.56-2.63,.84-4.24,.84h-11.38Zm4.78-13.66h5.78c1.03,0,1.85-.25,2.46-.74,.6-.5,.91-1.16,.91-2s-.3-1.5-.91-2c-.61-.5-1.42-.74-2.46-.74h-5.78v5.48Zm0,9.7h6.24c1.1,0,1.98-.27,2.64-.81,.66-.54,.99-1.26,.99-2.16s-.33-1.66-.99-2.19c-.66-.54-1.54-.81-2.64-.81h-6.24v5.97Z" style="fill: #0d131a;"/>
      <path d="M326.4,26.93c-2.09,0-3.9-.42-5.43-1.25-1.53-.84-2.71-2.03-3.55-3.58-.84-1.55-1.25-3.37-1.25-5.46V3.5h4.79v13.13c0,1.19,.23,2.23,.68,3.12,.45,.89,1.09,1.57,1.91,2.05,.83,.47,1.79,.71,2.89,.71s2.06-.24,2.87-.71c.81-.47,1.45-1.15,1.9-2.05,.45-.89,.68-1.93,.68-3.12V3.5h4.75v13.13c0,2.07-.42,3.88-1.25,5.43-.84,1.55-2.02,2.75-3.55,3.6-1.53,.85-3.34,1.27-5.43,1.27Z" style="fill: #0d131a;"/>
      <path d="M341.28,26.6V3.5h10.86c1.56,0,2.93,.26,4.11,.79,1.18,.53,2.09,1.27,2.74,2.23,.65,.96,.97,2.06,.97,3.32,0,1.01-.26,1.94-.78,2.79-.52,.85-1.22,1.53-2.1,2.06,1.12,.53,2.01,1.24,2.67,2.15s.99,1.92,.99,3.07c0,1.32-.34,2.49-1.01,3.5-.67,1.01-1.62,1.8-2.84,2.36-1.22,.56-2.63,.84-4.24,.84h-11.38Zm4.78-13.66h5.78c1.03,0,1.85-.25,2.46-.74,.6-.5,.91-1.16,.91-2s-.3-1.5-.91-2c-.61-.5-1.42-.74-2.46-.74h-5.78v5.48Zm0,9.7h6.24c1.1,0,1.98-.27,2.64-.81,.66-.54,.99-1.26,.99-2.16s-.33-1.66-.99-2.19c-.66-.54-1.54-.81-2.64-.81h-6.24v5.97Z" style="fill: #0d131a;"/>
      <path d="M364.91,26.6V3.5h10.86c1.56,0,2.93,.26,4.11,.79,1.18,.53,2.09,1.27,2.74,2.23,.65,.96,.97,2.06,.97,3.32,0,1.01-.26,1.94-.78,2.79-.52,.85-1.22,1.53-2.1,2.06,1.12,.53,2.01,1.24,2.67,2.15s.99,1.92,.99,3.07c0,1.32-.34,2.49-1.01,3.5-.67,1.01-1.62,1.8-2.84,2.36-1.22,.56-2.63,.84-4.24,.84h-11.38Zm4.78-13.66h5.78c1.03,0,1.85-.25,2.46-.74,.6-.5,.91-1.16,.91-2s-.3-1.5-.91-2c-.61-.5-1.42-.74-2.46-.74h-5.78v5.48Zm0,9.7h6.24c1.1,0,1.98-.27,2.64-.81,.66-.54,.99-1.26,.99-2.16s-.33-1.66-.99-2.19c-.66-.54-1.54-.81-2.64-.81h-6.24v5.97Z" style="fill: #0d131a;"/>
      <path d="M388.54,26.6V3.5h4.78V22.38h12.64v4.22h-17.42Z" style="fill: #0d131a;"/>
      <path d="M410.09,26.6V3.5h17.75V7.66h-12.97v5.28h8.55v4.03h-8.55v5.48h13.1v4.16h-17.89Z" style="fill: #0d131a;"/>
      <path d="M490.6,32.15c-.78,.37-2.17,.68-3.84,.68-4.68,0-7.94-2.51-9.52-5.98-4.9-.93-8.15-5.27-8.15-11.81,0-7.47,4.19-11.81,10.26-11.81s10.26,4.37,10.26,11.81c0,6.26-2.98,10.48-7.53,11.66,1.05,1.74,3.13,2.45,5.21,2.45,.99,0,1.86-.16,2.51-.37l.81,3.38Zm-11.25-8.87c3.41,0,5.58-3.1,5.58-8.25s-2.17-7.88-5.58-7.88-5.58,2.95-5.58,7.88,2.17,8.25,5.58,8.25Z" style="fill: #0d131a;"/>
      <path d="M497.69,1.67h9.18V11.69h-5.64c-.03,1.27-.06,2.54-.12,3.72h5.74s-.03,.96-.06,1.43c-.31,6.91-.68,9.86-1.58,10.88-.65,.84-1.3,1.12-2.33,1.27-.84,.09-2.26,.12-3.75,.06-.06-1.12-.5-2.6-1.12-3.57,1.33,.09,2.6,.12,3.22,.12,.47,0,.78-.06,1.09-.34,.47-.53,.77-2.36,1.02-6.7h-5.58c.25-2.67,.4-6.85,.4-10.17h5.18v-3.44h-5.64V1.67Zm28.25,22.42h-7.47v5.21h-3.81v-5.21h-7.72v-3.19h7.72v-1.86h-6.11V6.98h8.37c1.15-1.86,2.45-4.56,3.16-6.63l3.72,1.05c-.96,1.92-2.11,3.97-3.16,5.58h4.22v12.06h-6.39v1.86h7.47v3.19Zm-13.49-17.33c-.56-1.33-1.83-3.44-2.85-4.96l2.95-1.36c1.08,1.49,2.33,3.41,2.95,4.71l-3.04,1.61Zm-.56,4.87h2.76v-1.8h-2.76v1.8Zm2.76,4.53v-1.86h-2.76v1.86h2.76Zm6.7-6.33h-2.88v1.8h2.88v-1.8Zm0,4.46h-2.88v1.86h2.88v-1.86Z" style="fill: #0d131a;"/>
      <path d="M548.6,23.6c3.04,1.05,6.33,2.29,8.37,3.19l-2.64,2.48c-2.05-1.02-5.55-2.54-8.9-3.75l1.71-1.92h-8.43l2.73,1.92c-2.48,1.52-6.48,3.07-9.64,3.88-.62-.74-1.74-1.89-2.57-2.61,2.98-.68,6.57-2.01,8.62-3.19h-5.46V12.62h21.98v10.98h-5.77Zm8.62-15.88v3.35h-27.91v-3.35h7.29v-1.86h-5.08V2.61h5.08V.34h3.75V2.61h5.8V.34h3.81V2.61h5.12v3.25h-5.12v1.86h7.26Zm-21.27,9.15h5.36v-1.71h-5.36v1.71Zm0,4.19h5.36v-1.8h-5.36v1.8Zm4.4-13.33h5.8v-1.86h-5.8v1.86Zm10.29,7.44h-5.49v1.71h5.49v-1.71Zm0,4.09h-5.49v1.8h5.49v-1.8Z" style="fill: #0d131a;"/>
      <path d="M576.93,12.68v3.22h9.89v3.32h-4.9l3.1,1.12c-1.09,1.74-2.29,3.6-3.26,4.93h6.67v3.38h-26.82v-3.38h6.11c-.5-1.43-1.55-3.47-2.57-5.02l2.45-1.02h-4.5v-3.32h9.86v-3.22h-6.29v-1.52c-1.3,.62-2.64,1.18-4,1.67-.5-1.08-1.52-2.48-2.45-3.41,5.83-1.67,11.41-4.81,14.36-9.43l3.5,1.58c-.28,.4-.56,.81-.87,1.24,3.04,2.73,8.06,5.3,12.71,6.6-.84,.81-1.98,2.26-2.54,3.22-1.4-.5-2.82-1.12-4.22-1.8v1.83h-6.23Zm-8.65,6.54c1.09,1.52,2.26,3.57,2.7,4.93l-2.54,1.12h4.53v-6.05h-4.68Zm12.15-9.92c-1.95-1.21-3.78-2.57-5.36-4.03-1.49,1.55-3.19,2.85-5.02,4.03h10.39Zm-3.5,9.92v6.05h3.88l-2.08-.87c.96-1.4,2.11-3.57,2.73-5.18h-4.53Z" style="fill: #0d131a;"/>
      <path d="M603.5,23.29c-3.6,1.05-7.47,2.08-10.54,2.95l-.68-3.53c1.08-.22,2.36-.53,3.75-.87v-7.44h-3.35v-3.38h3.35V5.55h-3.57V2.11h10.57v3.44h-3.57v5.46h2.82v3.38h-2.82v6.54l3.6-.96,.43,3.32Zm10.6-22.08c-.19,.43-.4,.9-.62,1.3,2.17,2.64,5.61,5.24,8.71,6.76-.87,.65-2.05,2.02-2.64,2.98-2.64-1.61-5.52-4.19-7.81-6.88-2.11,2.98-4.87,5.4-8.12,7.22-.5-.78-1.67-2.11-2.42-2.73,4.28-2.14,7.81-5.8,9.55-9.67l3.35,1.02Zm6.39,17.39c-3.1,5.55-8.5,8.81-15.32,10.7-.43-.99-1.3-2.29-2.14-3.19,6.29-1.36,11.57-4.12,14.17-8.81l3.29,1.3Zm-6.2-8.31c-1.95,2.51-4.93,4.81-7.63,6.23-.53-.71-1.46-1.8-2.33-2.45,2.54-1.12,5.55-3.04,7.1-4.99l2.85,1.21Zm3.13,3.94c-2.6,3.69-6.67,6.73-10.76,8.65-.5-.84-1.46-1.98-2.33-2.73,3.84-1.49,7.94-4.19,10.05-7.26l3.04,1.33Z" style="fill: #0d131a;"/>
      <path d="M635.05,23.38c-3.5,.99-7.29,2.02-10.26,2.85l-.68-3.53c1.08-.25,2.36-.56,3.75-.87v-7.44h-3.38v-3.38h3.38V5.55h-3.6V2.11h10.67v3.44h-3.57v5.46h3.04v3.38h-3.04v6.51c1.09-.28,2.14-.56,3.22-.87l.47,3.35Zm12.06-6.79c1.61,3.19,4.12,6.36,6.64,8.15-.78,.68-1.98,1.98-2.6,2.88-1.95-1.74-3.81-4.4-5.33-7.32v8.96h-3.54v-8.8c-1.8,3.1-4.19,5.8-6.79,7.53-.56-.87-1.67-2.17-2.42-2.82,3.16-1.77,6.05-5.09,7.81-8.59h-5.89v-3.32h7.29v-4.25h-3.16c-.53,1.39-1.12,2.7-1.8,3.72-.59-.53-2.08-1.43-2.88-1.86,1.58-2.14,2.48-5.61,2.95-9.05l3.35,.59c-.19,1.12-.37,2.2-.62,3.29h2.17V.37h3.54V5.71h5.86v3.32h-5.86v4.25h7.22v3.32h-5.92Z" style="fill: #0d131a;"/>
    </g>
  </g>
</svg>