<?xml version="1.0" encoding="UTF-8"?>
<svg id="b" data-name="圖層 2" xmlns="http://www.w3.org/2000/svg" width="685.71" height="29.58" viewBox="0 0 685.71 29.58">
  <g id="c" data-name="layout">
    <g>
      <path d="M0,26.63V3.53H11.58c1.52,0,2.85,.31,4.01,.92,1.16,.62,2.07,1.47,2.74,2.56,.67,1.09,1.01,2.35,1.01,3.78s-.34,2.58-1.01,3.66c-.67,1.08-1.59,1.92-2.76,2.54s-2.5,.92-3.99,.92H4.78v8.71H0ZM4.78,13.96h6.27c1.03,0,1.86-.29,2.49-.86,.63-.57,.94-1.33,.94-2.28s-.31-1.74-.94-2.31c-.63-.57-1.46-.86-2.49-.86H4.78v6.3Z" style="fill: #0d131a;"/>
      <path d="M23.3,26.63V3.53h11.29c1.56,0,2.94,.3,4.14,.91,1.2,.61,2.14,1.45,2.82,2.52,.68,1.08,1.02,2.32,1.02,3.73s-.41,2.77-1.24,3.89c-.82,1.12-1.92,1.96-3.28,2.51l5.11,9.54h-5.35l-4.52-8.84h-5.21v8.84h-4.78Zm4.78-12.77h6.07c1.08,0,1.94-.29,2.59-.86s.97-1.32,.97-2.24-.32-1.67-.97-2.24c-.65-.57-1.51-.86-2.59-.86h-6.07v6.2Z" style="fill: #0d131a;"/>
      <path d="M46.53,26.63V3.53h17.75V7.69h-12.97v5.28h8.55v4.03h-8.55v5.48h13.1v4.16h-17.89Z" style="fill: #0d131a;"/>
      <path d="M78.67,26.96c-1.72,0-3.32-.3-4.82-.91-1.5-.61-2.8-1.45-3.91-2.52s-1.98-2.34-2.61-3.78c-.63-1.44-.94-3-.94-4.67s.31-3.26,.94-4.7c.63-1.44,1.5-2.7,2.62-3.78,1.12-1.08,2.43-1.92,3.91-2.52,1.48-.6,3.09-.91,4.8-.91,1.28,0,2.51,.18,3.7,.53,1.19,.35,2.29,.85,3.32,1.48,1.02,.64,1.9,1.41,2.62,2.31l-3.23,3.2c-.84-1.03-1.8-1.81-2.89-2.34-1.09-.53-2.26-.79-3.51-.79-1.03,0-2,.19-2.9,.58-.9,.38-1.68,.91-2.34,1.58-.66,.67-1.18,1.46-1.55,2.38-.37,.91-.56,1.91-.56,2.99s.19,2.04,.56,2.95c.37,.91,.9,1.71,1.58,2.38,.68,.67,1.48,1.19,2.39,1.57,.91,.38,1.91,.56,2.99,.56,1.21,0,2.34-.25,3.4-.76,1.06-.51,1.99-1.23,2.81-2.18l3.13,3.1c-.73,.88-1.6,1.64-2.61,2.28-1.01,.64-2.11,1.13-3.28,1.47-1.18,.34-2.38,.51-3.61,.51Z" style="fill: #0d131a;"/>
      <path d="M91.81,26.63V3.53h4.78V26.63h-4.78Z" style="fill: #0d131a;"/>
      <path d="M109.86,26.96c-1.87,0-3.7-.35-5.48-1.04-1.78-.69-3.37-1.68-4.75-2.95l2.74-3.43c1.34,1.17,2.63,2.02,3.88,2.56,1.24,.54,2.56,.81,3.94,.81,.97,0,1.8-.12,2.51-.35,.7-.23,1.25-.57,1.63-1.01,.38-.44,.58-.96,.58-1.55,0-.79-.29-1.4-.86-1.83-.57-.43-1.55-.76-2.94-1.01l-4.59-.79c-1.96-.33-3.45-1.02-4.47-2.08-1.02-1.06-1.53-2.42-1.53-4.09,0-1.43,.37-2.67,1.11-3.73,.74-1.06,1.78-1.86,3.13-2.43,1.35-.56,2.96-.84,4.83-.84,1.69,0,3.38,.29,5.07,.86,1.68,.57,3.17,1.36,4.47,2.38l-2.57,3.56c-2.42-1.85-4.85-2.77-7.29-2.77-.86,0-1.61,.11-2.24,.33-.64,.22-1.13,.52-1.47,.91-.34,.38-.51,.84-.51,1.37,0,.7,.25,1.25,.76,1.63,.51,.38,1.35,.68,2.54,.87l4.36,.73c2.31,.38,4.04,1.11,5.18,2.2,1.14,1.09,1.72,2.52,1.72,4.31,0,1.5-.4,2.8-1.19,3.91-.79,1.11-1.92,1.97-3.38,2.57-1.46,.6-3.18,.91-5.16,.91Z" style="fill: #0d131a;"/>
      <path d="M123.25,26.63V3.53h4.78V26.63h-4.78Z" style="fill: #0d131a;"/>
      <path d="M144.37,27c-1.72,0-3.31-.3-4.79-.91-1.47-.6-2.77-1.45-3.88-2.54-1.11-1.09-1.98-2.35-2.61-3.79-.63-1.44-.94-3-.94-4.67s.31-3.23,.94-4.67c.63-1.44,1.5-2.71,2.61-3.79s2.4-1.94,3.88-2.54c1.47-.6,3.07-.91,4.79-.91s3.32,.3,4.8,.91c1.48,.61,2.78,1.45,3.89,2.54s1.97,2.35,2.59,3.79c.62,1.44,.92,3,.92,4.67s-.31,3.23-.92,4.67c-.62,1.44-1.48,2.71-2.59,3.79-1.11,1.09-2.41,1.94-3.89,2.54-1.49,.61-3.09,.91-4.8,.91Zm0-4.39c1.06,0,2.02-.19,2.9-.58s1.65-.91,2.31-1.58c.66-.67,1.18-1.47,1.55-2.39,.37-.92,.56-1.91,.56-2.97s-.19-2.07-.56-2.99c-.37-.91-.89-1.71-1.55-2.38-.66-.67-1.43-1.2-2.31-1.58s-1.85-.58-2.9-.58-1.99,.19-2.87,.58-1.65,.91-2.31,1.58c-.66,.67-1.18,1.46-1.55,2.38-.37,.91-.56,1.9-.56,2.95s.19,2.08,.56,3c.37,.92,.89,1.72,1.55,2.39,.66,.67,1.43,1.2,2.31,1.58s1.84,.58,2.87,.58Z" style="fill: #0d131a;"/>
      <path d="M160.71,26.63V3.53h4.55l11.48,14.92V3.53h4.49V26.63h-4.22l-11.78-15.44v15.44h-4.52Z" style="fill: #0d131a;"/>
      <path d="M191.5,26.63l9.5-23.1h5.51l9.41,23.1h-5.18l-2.34-6.07h-9.54l-2.38,6.07h-4.98Zm8.84-9.9h6.6l-3.3-8.51-3.3,8.51Z" style="fill: #0d131a;"/>
      <path d="M218.69,26.63V3.53h4.55l11.48,14.92V3.53h4.49V26.63h-4.22l-11.78-15.44v15.44h-4.52Z" style="fill: #0d131a;"/>
      <path d="M244.23,26.63V3.53h8.88c1.74,0,3.34,.29,4.82,.87,1.47,.58,2.76,1.4,3.86,2.46,1.1,1.06,1.96,2.29,2.59,3.7,.63,1.41,.94,2.93,.94,4.55s-.31,3.17-.92,4.55c-.62,1.39-1.48,2.6-2.59,3.65s-2.4,1.86-3.88,2.44c-1.47,.58-3.08,.87-4.82,.87h-8.88Zm4.78-4.26h4.03c1.03,0,2-.18,2.89-.54,.89-.36,1.67-.87,2.34-1.53,.67-.66,1.19-1.43,1.55-2.31,.36-.88,.54-1.84,.54-2.87s-.19-2-.56-2.89c-.37-.89-.89-1.67-1.55-2.33-.66-.66-1.44-1.18-2.33-1.55-.89-.37-1.85-.56-2.89-.56h-4.03v14.59Z" style="fill: #0d131a;"/>
      <path d="M288.25,26.96c-1.72,0-3.32-.3-4.82-.91-1.5-.61-2.8-1.45-3.91-2.52s-1.98-2.34-2.61-3.78c-.63-1.44-.94-3-.94-4.67s.31-3.26,.94-4.7c.63-1.44,1.5-2.7,2.62-3.78,1.12-1.08,2.43-1.92,3.91-2.52,1.48-.6,3.09-.91,4.8-.91,1.28,0,2.51,.18,3.7,.53,1.19,.35,2.29,.85,3.32,1.48,1.02,.64,1.9,1.41,2.62,2.31l-3.23,3.2c-.84-1.03-1.8-1.81-2.89-2.34-1.09-.53-2.26-.79-3.51-.79-1.03,0-2,.19-2.9,.58-.9,.38-1.68,.91-2.34,1.58-.66,.67-1.18,1.46-1.55,2.38-.37,.91-.56,1.91-.56,2.99s.19,2.04,.56,2.95c.37,.91,.9,1.71,1.58,2.38,.68,.67,1.48,1.19,2.39,1.57,.91,.38,1.91,.56,2.99,.56,1.21,0,2.34-.25,3.4-.76,1.06-.51,1.99-1.23,2.81-2.18l3.13,3.1c-.73,.88-1.6,1.64-2.61,2.28-1.01,.64-2.11,1.13-3.28,1.47-1.18,.34-2.38,.51-3.61,.51Z" style="fill: #0d131a;"/>
      <path d="M312.21,27c-1.72,0-3.31-.3-4.79-.91-1.47-.6-2.77-1.45-3.88-2.54-1.11-1.09-1.98-2.35-2.61-3.79-.63-1.44-.94-3-.94-4.67s.31-3.23,.94-4.67c.63-1.44,1.5-2.71,2.61-3.79s2.4-1.94,3.88-2.54c1.47-.6,3.07-.91,4.79-.91s3.32,.3,4.8,.91c1.48,.61,2.78,1.45,3.89,2.54s1.97,2.35,2.59,3.79c.62,1.44,.92,3,.92,4.67s-.31,3.23-.92,4.67c-.62,1.44-1.48,2.71-2.59,3.79-1.11,1.09-2.41,1.94-3.89,2.54-1.49,.61-3.09,.91-4.8,.91Zm0-4.39c1.06,0,2.02-.19,2.9-.58s1.65-.91,2.31-1.58c.66-.67,1.18-1.47,1.55-2.39,.37-.92,.56-1.91,.56-2.97s-.19-2.07-.56-2.99c-.37-.91-.89-1.71-1.55-2.38-.66-.67-1.43-1.2-2.31-1.58s-1.85-.58-2.9-.58-1.99,.19-2.87,.58-1.65,.91-2.31,1.58c-.66,.67-1.18,1.46-1.55,2.38-.37,.91-.56,1.9-.56,2.95s.19,2.08,.56,3c.37,.92,.89,1.72,1.55,2.39,.66,.67,1.43,1.2,2.31,1.58s1.84,.58,2.87,.58Z" style="fill: #0d131a;"/>
      <path d="M328.54,26.63V3.53h4.55l11.48,14.92V3.53h4.49V26.63h-4.22l-11.78-15.44v15.44h-4.52Z" style="fill: #0d131a;"/>
      <path d="M362.33,26.96c-1.87,0-3.7-.35-5.48-1.04-1.78-.69-3.37-1.68-4.75-2.95l2.74-3.43c1.34,1.17,2.63,2.02,3.88,2.56,1.24,.54,2.56,.81,3.94,.81,.97,0,1.8-.12,2.51-.35,.7-.23,1.25-.57,1.63-1.01,.38-.44,.58-.96,.58-1.55,0-.79-.29-1.4-.86-1.83-.57-.43-1.55-.76-2.94-1.01l-4.59-.79c-1.96-.33-3.45-1.02-4.47-2.08-1.02-1.06-1.53-2.42-1.53-4.09,0-1.43,.37-2.67,1.11-3.73,.74-1.06,1.78-1.86,3.13-2.43,1.35-.56,2.96-.84,4.83-.84,1.69,0,3.38,.29,5.07,.86,1.68,.57,3.17,1.36,4.47,2.38l-2.57,3.56c-2.42-1.85-4.85-2.77-7.29-2.77-.86,0-1.61,.11-2.24,.33-.64,.22-1.13,.52-1.47,.91-.34,.38-.51,.84-.51,1.37,0,.7,.25,1.25,.76,1.63,.51,.38,1.35,.68,2.54,.87l4.36,.73c2.31,.38,4.04,1.11,5.18,2.2,1.14,1.09,1.72,2.52,1.72,4.31,0,1.5-.4,2.8-1.19,3.91-.79,1.11-1.92,1.97-3.38,2.57-1.46,.6-3.18,.91-5.16,.91Z" style="fill: #0d131a;"/>
      <path d="M375.73,26.63V3.53h4.78V26.63h-4.78Z" style="fill: #0d131a;"/>
      <path d="M393.78,26.96c-1.87,0-3.7-.35-5.48-1.04-1.78-.69-3.37-1.68-4.75-2.95l2.74-3.43c1.34,1.17,2.63,2.02,3.88,2.56,1.24,.54,2.56,.81,3.94,.81,.97,0,1.8-.12,2.51-.35,.7-.23,1.25-.57,1.63-1.01,.38-.44,.58-.96,.58-1.55,0-.79-.29-1.4-.86-1.83-.57-.43-1.55-.76-2.94-1.01l-4.59-.79c-1.96-.33-3.45-1.02-4.47-2.08-1.02-1.06-1.53-2.42-1.53-4.09,0-1.43,.37-2.67,1.11-3.73,.74-1.06,1.78-1.86,3.13-2.43,1.35-.56,2.96-.84,4.83-.84,1.69,0,3.38,.29,5.07,.86,1.68,.57,3.17,1.36,4.47,2.38l-2.57,3.56c-2.42-1.85-4.85-2.77-7.29-2.77-.86,0-1.61,.11-2.24,.33-.64,.22-1.13,.52-1.47,.91-.34,.38-.51,.84-.51,1.37,0,.7,.25,1.25,.76,1.63,.51,.38,1.35,.68,2.54,.87l4.36,.73c2.31,.38,4.04,1.11,5.18,2.2,1.14,1.09,1.72,2.52,1.72,4.31,0,1.5-.4,2.8-1.19,3.91-.79,1.11-1.92,1.97-3.38,2.57-1.46,.6-3.18,.91-5.16,.91Z" style="fill: #0d131a;"/>
      <path d="M412.99,26.63V7.76h-7.79V3.53h20.33V7.76h-7.75V26.63h-4.79Z" style="fill: #0d131a;"/>
      <path d="M429.03,26.63V3.53h17.75V7.69h-12.97v5.28h8.55v4.03h-8.55v5.48h13.1v4.16h-17.89Z" style="fill: #0d131a;"/>
      <path d="M451.14,26.63V3.53h4.55l11.48,14.92V3.53h4.49V26.63h-4.22l-11.78-15.44v15.44h-4.52Z" style="fill: #0d131a;"/>
      <path d="M488.06,26.96c-1.72,0-3.32-.3-4.82-.91-1.5-.61-2.8-1.45-3.91-2.52s-1.98-2.34-2.61-3.78c-.63-1.44-.94-3-.94-4.67s.31-3.26,.94-4.7c.63-1.44,1.5-2.7,2.62-3.78,1.12-1.08,2.43-1.92,3.91-2.52,1.48-.6,3.09-.91,4.8-.91,1.28,0,2.51,.18,3.7,.53,1.19,.35,2.29,.85,3.32,1.48,1.02,.64,1.9,1.41,2.62,2.31l-3.23,3.2c-.84-1.03-1.8-1.81-2.89-2.34-1.09-.53-2.26-.79-3.51-.79-1.03,0-2,.19-2.9,.58-.9,.38-1.68,.91-2.34,1.58-.66,.67-1.18,1.46-1.55,2.38-.37,.91-.56,1.91-.56,2.99s.19,2.04,.56,2.95c.37,.91,.9,1.71,1.58,2.38,.68,.67,1.48,1.19,2.39,1.57,.91,.38,1.91,.56,2.99,.56,1.21,0,2.34-.25,3.4-.76,1.06-.51,1.99-1.23,2.81-2.18l3.13,3.1c-.73,.88-1.6,1.64-2.61,2.28-1.01,.64-2.11,1.13-3.28,1.47-1.18,.34-2.38,.51-3.61,.51Z" style="fill: #0d131a;"/>
      <path d="M507.86,26.63v-8.84l-9.44-14.26h5.51l6.47,10.03,6.5-10.03h5.21l-9.47,14.29v8.81h-4.78Z" style="fill: #0d131a;"/>
      <path d="M589.99,10.33v2.63h-17.61v-2.63h6.88v-1.37h-5.64v-2.45h5.64v-1.24h-6.42v-1.18c-.81,2.05-1.67,4.25-2.33,5.71l-2.05-.78v1.64h3.32v3.41h-3.32v2.17l1.3-.9c.62,.71,2.73,3.75,3.22,4.5l-2.33,2.67c-.46-1.21-1.43-3.25-2.2-4.71v11.53h-3.22v-10.26c-.68,2.64-1.67,5.24-2.98,6.76-.31-1.08-.99-2.73-1.52-3.78,1.24-1.58,2.42-4.43,2.85-6.79l1.64,.59v-1.77h-3.97v-3.41h3.97V.4h3.22v7.94c.62-1.74,1.27-4.16,1.61-5.89l2.76,.87v-.68h6.42V.37h3.57V2.64h6.76v2.63h-6.76v1.24h6.14v2.45h-6.14v1.37h7.16Zm-27.44-.68c-.19-1.8-.78-4.56-1.33-6.64l2.54-.62c.59,2.08,1.24,4.81,1.49,6.57l-2.7,.68Zm25.95,16.34c0,1.55-.28,2.36-1.36,2.82-1.02,.47-2.48,.53-4.43,.5-.12-.87-.56-2.11-.96-2.91,1.15,.03,2.45,.03,2.82,.03,.4,0,.53-.12,.53-.46v-1.3h-8.4c-.37,1.8-1.09,3.57-2.26,4.93-.53-.65-1.89-1.92-2.57-2.33,1.8-2.17,1.98-5.08,1.98-7.5v-5.52h14.67v11.75Zm-3.41-3.72v-1.49h-7.94c-.03,.5-.06,.99-.09,1.49h8.03Zm-7.94-5.33v1.46h7.94v-1.46h-7.94Z" style="fill: #0d131a;"/>
      <path d="M596.65,10.7c-.68-1.98-2.36-5.21-3.72-7.6l3.32-1.49c1.43,2.29,3.19,5.39,4.03,7.35l-3.63,1.74Zm-3.69,15.63c1.33-2.57,3.13-6.7,4.53-10.6l3.44,1.67c-1.27,3.66-2.76,7.44-4.09,10.54l-3.88-1.61Zm28.84,1.02h-15.78v2.02h-3.38V13.24c-.71,.93-1.46,1.83-2.2,2.6-.56-.71-1.86-2.08-2.57-2.7,3.19-2.92,5.86-7.66,7.35-12.56l3.41,.84c-.5,1.46-1.05,2.88-1.67,4.28h5.55c-.56-1.21-1.4-2.67-2.11-3.81l3.16-1.43c.99,1.36,2.08,3.19,2.64,4.4l-1.61,.84h6.73v3.19h-6.11v2.95h5.52v3.16h-5.52v2.88h5.46v3.16h-5.46v3.01h6.6v3.29Zm-10.2-18.45h-5.58v2.95h5.58v-2.95Zm0,6.11h-5.58v2.88h5.58v-2.88Zm-5.58,9.05h5.58v-3.01h-5.58v3.01Z" style="fill: #0d131a;"/>
      <path d="M651.3,3.41V28.65h-4.06v-2.45h-16.43v2.51h-3.88V3.41h24.37Zm-4.06,18.98V7.16h-16.43v15.22h16.43Z" style="fill: #0d131a;"/>
      <path d="M684.04,7.81c-1.12,2.95-2.73,5.58-4.68,7.81,.74,5.83,1.86,9.98,2.82,9.98,.43,0,.71-1.58,.81-4.96,.68,.84,1.83,1.64,2.73,2.02-.53,5.12-1.52,6.45-4,6.45-2.7,0-4.43-4.46-5.46-10.6-.59,.46-1.21,.87-1.83,1.27-.28-.37-.77-.87-1.27-1.4h-3.66c.87,1.4,1.92,3.22,2.39,4.28l-2.42,1.3c-.34-.93-1.05-2.29-1.74-3.57v5.21c0,.81,.12,.9,.9,.9h2.23c.71,0,.87-.46,.93-3.29,.47,.34,1.27,.68,1.98,.9-.43-1.05-.87-2.11-1.27-3.04l2.42-.93c.99,2.11,2.2,4.93,2.79,6.6l-2.6,1.12c-.19-.68-.5-1.58-.87-2.54-.34,2.85-1.15,3.66-3.07,3.66h-3.01c-2.73,0-3.35-.81-3.35-3.35v-5.27h2.88l-.59-1.05,1.92-.93h-5.95v-7.16h10.11v5.3c.9-.56,1.74-1.21,2.51-1.92-.31-2.7-.5-5.58-.65-8.43h-12.74v1.33h11.88v2.45h-11.88c-.06,5.52-.62,13.89-3.29,19.44-.62-.59-2.14-1.64-2.95-1.92,2.6-5.36,2.85-13.15,2.85-18.26V3.25h16.03c-.03-.96-.06-1.92-.06-2.88h3.57v.99l1.95-1.36c.99,.71,2.39,1.74,3.1,2.39l-1.15,.87h2.48v2.92h-6.29c.06,1.58,.16,3.16,.28,4.68,.77-1.21,1.4-2.48,1.89-3.88l3.32,.84Zm-23.19,19.44c.53-1.92,1.12-4.81,1.4-6.88l2.36,.9c-.31,1.95-.81,5.02-1.21,6.95l-2.54-.96Zm9.46-13.55h-4.22v2.23h4.22v-2.23Zm10.08-10.45c-.59-.53-1.3-1.08-1.92-1.58v1.58h1.92Z" style="fill: #0d131a;"/>
    </g>
  </g>
</svg>