<svg xmlns="http://www.w3.org/2000/svg" width="39.09" height="45.59" viewBox="0 0 39.09 45.59">
  <defs>
    <style>
      .a {
        fill: #da5e29;
      }

      .b {
        fill: #ecae4b;
      }

      .c {
        fill: #211815;
      }
    </style>
  </defs>
  <g>
    <path class="a" d="M30.35,0A8.75,8.75,0,0,0,21.6,8.74h2a6.78,6.78,0,0,1,.5-2.55l5.83,3.37,5.81,3.35a6.75,6.75,0,0,1-5.35,2.62v2A8.75,8.75,0,0,0,30.35,0Zm5.37,4.6L31.26,7.17V2A6.77,6.77,0,0,1,35.72,4.6ZM29.43,2V7.17L25,4.6A6.77,6.77,0,0,1,29.43,2Zm2.75,6.74,4.45-2.57a6.59,6.59,0,0,1,.51,2.55,6.76,6.76,0,0,1-.52,2.59Z"/>
    <path class="b" d="M26.33,13a159.61,159.61,0,0,1-20.4,0l4.33,27.1a27.78,27.78,0,0,0,11.73,0Z"/>
    <g>
      <path class="c" d="M31.1,12.44c-.66.11-1.64.24-2.17.3a.32.32,0,0,0-.27.27L24.39,39.52a.19.19,0,0,0,.23.21c.75-.18,1.58-.44,2.24-.67a.33.33,0,0,0,.21-.25l4.25-26.15A.19.19,0,0,0,31.1,12.44Z"/>
      <path class="c" d="M5.56,41.8,5.92,44a.34.34,0,0,0,.22.26,34.8,34.8,0,0,0,9.93,1.36A34.54,34.54,0,0,0,26,44.22a.31.31,0,0,0,.22-.25l.36-2.17a.19.19,0,0,0-.25-.21,34.24,34.24,0,0,1-10.26,1.47A33.66,33.66,0,0,1,5.81,41.59.19.19,0,0,0,5.56,41.8Z"/>
      <path class="c" d="M.34,9.8a.31.31,0,0,0,.26.26,98.82,98.82,0,0,0,15.59,1.09A98.91,98.91,0,0,0,31.52,10.1a.31.31,0,0,0,.26-.26l.34-2a.19.19,0,0,0-.22-.22A98.61,98.61,0,0,1,16.19,8.68a96.88,96.88,0,0,1-16-1.16A.19.19,0,0,0,0,7.74Z"/>
      <path class="c" d="M7.76,39.5,3.48,13a.35.35,0,0,0-.29-.28c-.23,0-1.4-.18-2.17-.3a.2.2,0,0,0-.18.06.21.21,0,0,0-.06.18L5,38.8a.33.33,0,0,0,.22.27c.45.16,1.34.45,2.24.67h0a.2.2,0,0,0,.14-.06A.23.23,0,0,0,7.76,39.5Z"/>
    </g>
  </g>
</svg>
