<?xml version="1.0" encoding="UTF-8"?>
<svg id="b" data-name="圖層 2" xmlns="http://www.w3.org/2000/svg" width="847.57" height="29.39" viewBox="0 0 847.57 29.39">
  <g id="c" data-name="layout">
    <g>
      <path d="M10.23,26.81c-1.87,0-3.7-.35-5.48-1.04-1.78-.69-3.37-1.68-4.75-2.95l2.74-3.43c1.34,1.17,2.63,2.02,3.88,2.56,1.24,.54,2.56,.81,3.94,.81,.97,0,1.8-.12,2.51-.35,.7-.23,1.25-.57,1.63-1.01,.38-.44,.58-.96,.58-1.55,0-.79-.29-1.4-.86-1.83-.57-.43-1.55-.76-2.94-1.01l-4.59-.79c-1.96-.33-3.45-1.02-4.47-2.08-1.02-1.06-1.53-2.42-1.53-4.09,0-1.43,.37-2.67,1.11-3.73,.74-1.06,1.78-1.86,3.13-2.43,1.35-.56,2.96-.84,4.83-.84,1.69,0,3.38,.29,5.07,.86,1.68,.57,3.17,1.36,4.47,2.38l-2.57,3.56c-2.42-1.85-4.85-2.77-7.29-2.77-.86,0-1.61,.11-2.24,.33-.64,.22-1.13,.52-1.47,.91-.34,.38-.51,.84-.51,1.37,0,.7,.25,1.25,.76,1.63,.51,.38,1.35,.68,2.54,.87l4.36,.73c2.31,.38,4.04,1.11,5.18,2.2,1.14,1.09,1.72,2.52,1.72,4.31,0,1.5-.4,2.8-1.19,3.91-.79,1.11-1.92,1.97-3.38,2.57-1.46,.6-3.18,.91-5.16,.91Z" style="fill: #0d131a;"/>
      <path d="M23.63,26.48V3.38h4.78V12.68h10.63V3.38h4.78V26.48h-4.78v-9.47h-10.63v9.47h-4.78Z" style="fill: #0d131a;"/>
      <path d="M46.63,26.48L56.13,3.38h5.51l9.41,23.1h-5.18l-2.34-6.07h-9.54l-2.38,6.07h-4.98Zm8.84-9.9h6.6l-3.3-8.51-3.3,8.51Z" style="fill: #0d131a;"/>
      <path d="M73.82,26.48V3.38h11.29c1.56,0,2.94,.3,4.14,.91,1.2,.61,2.14,1.45,2.82,2.52,.68,1.08,1.02,2.32,1.02,3.73s-.41,2.77-1.24,3.89c-.82,1.12-1.92,1.96-3.28,2.51l5.11,9.54h-5.35l-4.52-8.84h-5.21v8.84h-4.78Zm4.78-12.77h6.07c1.08,0,1.94-.29,2.59-.86s.97-1.32,.97-2.24-.32-1.67-.97-2.24c-.65-.57-1.51-.86-2.59-.86h-6.07v6.2Z" style="fill: #0d131a;"/>
      <path d="M97.05,26.48V3.38h17.75V7.54h-12.97v5.28h8.55v4.03h-8.55v5.48h13.1v4.16h-17.89Z" style="fill: #0d131a;"/>
      <path d="M132.92,26.48V7.6h-7.79V3.38h20.33V7.6h-7.75V26.48h-4.79Z" style="fill: #0d131a;"/>
      <path d="M148.96,26.48V3.38h4.78V12.68h10.63V3.38h4.78V26.48h-4.78v-9.47h-10.63v9.47h-4.78Z" style="fill: #0d131a;"/>
      <path d="M174.17,26.48V3.38h17.75V7.54h-12.97v5.28h8.55v4.03h-8.55v5.48h13.1v4.16h-17.89Z" style="fill: #0d131a;"/>
      <path d="M203.74,26.48V3.38h6.14l6.34,12.44,6.34-12.44h6.14V26.48h-4.52V9.48l-8.02,15.34-7.99-15.41V26.48h-4.42Z" style="fill: #0d131a;"/>
      <path d="M244.99,26.84c-1.72,0-3.31-.3-4.79-.91-1.47-.6-2.77-1.45-3.88-2.54-1.11-1.09-1.98-2.35-2.61-3.79-.63-1.44-.94-3-.94-4.67s.31-3.23,.94-4.67c.63-1.44,1.5-2.71,2.61-3.79s2.4-1.94,3.88-2.54c1.47-.6,3.07-.91,4.79-.91s3.32,.3,4.8,.91c1.48,.61,2.78,1.45,3.89,2.54s1.97,2.35,2.59,3.79c.62,1.44,.92,3,.92,4.67s-.31,3.23-.92,4.67c-.62,1.44-1.48,2.71-2.59,3.79-1.11,1.09-2.41,1.94-3.89,2.54-1.49,.61-3.09,.91-4.8,.91Zm0-4.39c1.06,0,2.02-.19,2.9-.58s1.65-.91,2.31-1.58c.66-.67,1.18-1.47,1.55-2.39,.37-.92,.56-1.91,.56-2.97s-.19-2.07-.56-2.99c-.37-.91-.89-1.71-1.55-2.38-.66-.67-1.43-1.2-2.31-1.58s-1.85-.58-2.9-.58-1.99,.19-2.87,.58-1.65,.91-2.31,1.58c-.66,.67-1.18,1.46-1.55,2.38-.37,.91-.56,1.9-.56,2.95s.19,2.08,.56,3c.37,.92,.89,1.72,1.55,2.39,.66,.67,1.43,1.2,2.31,1.58s1.84,.58,2.87,.58Z" style="fill: #0d131a;"/>
      <path d="M261.32,26.48V3.38h6.14l6.34,12.44,6.34-12.44h6.14V26.48h-4.52V9.48l-8.02,15.34-7.99-15.41V26.48h-4.42Z" style="fill: #0d131a;"/>
      <path d="M291.25,26.48V3.38h17.75V7.54h-12.97v5.28h8.55v4.03h-8.55v5.48h13.1v4.16h-17.89Z" style="fill: #0d131a;"/>
      <path d="M313.36,26.48V3.38h4.55l11.48,14.92V3.38h4.49V26.48h-4.22l-11.78-15.44v15.44h-4.52Z" style="fill: #0d131a;"/>
      <path d="M345.21,26.48V7.6h-7.79V3.38h20.33V7.6h-7.75V26.48h-4.79Z" style="fill: #0d131a;"/>
      <path d="M380.02,26.84c-1.72,0-3.31-.3-4.79-.91-1.47-.6-2.77-1.45-3.88-2.54-1.11-1.09-1.98-2.35-2.61-3.79-.63-1.44-.94-3-.94-4.67s.31-3.23,.94-4.67c.63-1.44,1.5-2.71,2.61-3.79s2.4-1.94,3.88-2.54c1.47-.6,3.07-.91,4.79-.91s3.32,.3,4.8,.91c1.48,.61,2.78,1.45,3.89,2.54s1.97,2.35,2.59,3.79c.62,1.44,.92,3,.92,4.67s-.31,3.23-.92,4.67c-.62,1.44-1.48,2.71-2.59,3.79-1.11,1.09-2.41,1.94-3.89,2.54-1.49,.61-3.09,.91-4.8,.91Zm0-4.39c1.06,0,2.02-.19,2.9-.58s1.65-.91,2.31-1.58c.66-.67,1.18-1.47,1.55-2.39,.37-.92,.56-1.91,.56-2.97s-.19-2.07-.56-2.99c-.37-.91-.89-1.71-1.55-2.38-.66-.67-1.43-1.2-2.31-1.58s-1.85-.58-2.9-.58-1.99,.19-2.87,.58-1.65,.91-2.31,1.58c-.66,.67-1.18,1.46-1.55,2.38-.37,.91-.56,1.9-.56,2.95s.19,2.08,.56,3c.37,.92,.89,1.72,1.55,2.39,.66,.67,1.43,1.2,2.31,1.58s1.84,.58,2.87,.58Z" style="fill: #0d131a;"/>
      <path d="M396.36,26.48V3.38h17.85V7.54h-13.07v5.45h8.68v4.03h-8.68v9.47h-4.78Z" style="fill: #0d131a;"/>
      <path d="M425.73,26.48V3.38h4.78V12.68h10.63V3.38h4.78V26.48h-4.78v-9.47h-10.63v9.47h-4.78Z" style="fill: #0d131a;"/>
      <path d="M448.73,26.48l9.5-23.1h5.51l9.41,23.1h-5.18l-2.34-6.07h-9.54l-2.38,6.07h-4.98Zm8.84-9.9h6.6l-3.3-8.51-3.3,8.51Z" style="fill: #0d131a;"/>
      <path d="M475.92,26.48V3.38h11.58c1.52,0,2.85,.31,4.01,.92,1.16,.62,2.07,1.47,2.74,2.56,.67,1.09,1.01,2.35,1.01,3.78s-.34,2.58-1.01,3.66c-.67,1.08-1.59,1.92-2.76,2.54s-2.5,.92-3.99,.92h-6.8v8.71h-4.78Zm4.78-12.67h6.27c1.03,0,1.86-.29,2.49-.86,.63-.57,.94-1.33,.94-2.28s-.31-1.74-.94-2.31c-.63-.57-1.46-.86-2.49-.86h-6.27v6.3Z" style="fill: #0d131a;"/>
      <path d="M499.22,26.48V3.38h11.58c1.52,0,2.85,.31,4.01,.92,1.16,.62,2.07,1.47,2.74,2.56,.67,1.09,1.01,2.35,1.01,3.78s-.34,2.58-1.01,3.66c-.67,1.08-1.59,1.92-2.76,2.54s-2.5,.92-3.99,.92h-6.8v8.71h-4.78Zm4.78-12.67h6.27c1.03,0,1.86-.29,2.49-.86,.63-.57,.94-1.33,.94-2.28s-.31-1.74-.94-2.31c-.63-.57-1.46-.86-2.49-.86h-6.27v6.3Z" style="fill: #0d131a;"/>
      <path d="M522.52,26.48V3.38h4.78V26.48h-4.78Z" style="fill: #0d131a;"/>
      <path d="M532.32,26.48V3.38h4.55l11.48,14.92V3.38h4.49V26.48h-4.22l-11.78-15.44v15.44h-4.52Z" style="fill: #0d131a;"/>
      <path d="M557.86,26.48V3.38h17.75V7.54h-12.97v5.28h8.55v4.03h-8.55v5.48h13.1v4.16h-17.89Z" style="fill: #0d131a;"/>
      <path d="M588.22,26.81c-1.87,0-3.7-.35-5.48-1.04-1.78-.69-3.37-1.68-4.75-2.95l2.74-3.43c1.34,1.17,2.63,2.02,3.88,2.56,1.24,.54,2.56,.81,3.94,.81,.97,0,1.8-.12,2.51-.35,.7-.23,1.25-.57,1.63-1.01,.38-.44,.58-.96,.58-1.55,0-.79-.29-1.4-.86-1.83-.57-.43-1.55-.76-2.94-1.01l-4.59-.79c-1.96-.33-3.45-1.02-4.47-2.08-1.02-1.06-1.53-2.42-1.53-4.09,0-1.43,.37-2.67,1.11-3.73,.74-1.06,1.78-1.86,3.13-2.43,1.35-.56,2.96-.84,4.83-.84,1.69,0,3.38,.29,5.07,.86,1.68,.57,3.17,1.36,4.47,2.38l-2.57,3.56c-2.42-1.85-4.85-2.77-7.29-2.77-.86,0-1.61,.11-2.24,.33-.64,.22-1.13,.52-1.47,.91-.34,.38-.51,.84-.51,1.37,0,.7,.25,1.25,.76,1.63,.51,.38,1.35,.68,2.54,.87l4.36,.73c2.31,.38,4.04,1.11,5.18,2.2,1.14,1.09,1.72,2.52,1.72,4.31,0,1.5-.4,2.8-1.19,3.91-.79,1.11-1.92,1.97-3.38,2.57-1.46,.6-3.18,.91-5.16,.91Z" style="fill: #0d131a;"/>
      <path d="M610.2,26.81c-1.87,0-3.7-.35-5.48-1.04-1.78-.69-3.37-1.68-4.75-2.95l2.74-3.43c1.34,1.17,2.63,2.02,3.88,2.56,1.24,.54,2.56,.81,3.94,.81,.97,0,1.8-.12,2.51-.35,.7-.23,1.25-.57,1.63-1.01,.38-.44,.58-.96,.58-1.55,0-.79-.29-1.4-.86-1.83-.57-.43-1.55-.76-2.94-1.01l-4.59-.79c-1.96-.33-3.45-1.02-4.47-2.08-1.02-1.06-1.53-2.42-1.53-4.09,0-1.43,.37-2.67,1.11-3.73,.74-1.06,1.78-1.86,3.13-2.43,1.35-.56,2.96-.84,4.83-.84,1.69,0,3.38,.29,5.07,.86,1.68,.57,3.17,1.36,4.47,2.38l-2.57,3.56c-2.42-1.85-4.85-2.77-7.29-2.77-.86,0-1.61,.11-2.24,.33-.64,.22-1.13,.52-1.47,.91-.34,.38-.51,.84-.51,1.37,0,.7,.25,1.25,.76,1.63,.51,.38,1.35,.68,2.54,.87l4.36,.73c2.31,.38,4.04,1.11,5.18,2.2,1.14,1.09,1.72,2.52,1.72,4.31,0,1.5-.4,2.8-1.19,3.91-.79,1.11-1.92,1.97-3.38,2.57-1.46,.6-3.18,.91-5.16,.91Z" style="fill: #0d131a;"/>
      <path d="M680.26,.68c1.43,4.53,4.59,8.93,8.9,11.16-.74,.78-2.02,2.36-2.6,3.41-.81-.53-1.61-1.15-2.36-1.8-.34,9.15-.71,12.71-1.8,13.98-.77,1.02-1.61,1.33-2.82,1.49-1.05,.16-2.85,.16-4.68,.09-.06-1.12-.56-2.67-1.21-3.72,1.71,.12,3.32,.15,4.09,.15,.56,0,.9-.06,1.24-.43,.62-.68,.96-3.44,1.24-9.89h-6.11c-.78,5.95-2.79,11.25-10.82,14.26-.46-1.05-1.55-2.57-2.45-3.41,7.01-2.26,8.62-6.36,9.24-10.85h-5.24v-2.05c-.74,.81-1.52,1.55-2.33,2.23-.65-.74-2.23-2.11-3.1-2.73,3.5-2.51,6.26-6.67,7.69-11.32l3.88,.93c-1.15,3.47-2.85,6.7-4.87,9.33h16.06c-2.02-2.2-3.6-4.81-4.68-7.41h-4.93V.68h7.66Z" style="fill: #0d131a;"/>
      <path d="M720.03,23.56h-12.03v2.2c0,1.83-.56,2.57-2.02,3.04-1.46,.4-3.5,.37-6.2,.37-.25-.93-.78-2.17-1.27-3.01,1.8,.06,4.22,.06,4.74,.06,.62-.03,.81-.16,.81-.62v-2.05h-11.94v-3.13h11.94v-1.3h.03l-.03-.03c1.3-.28,2.64-.68,3.91-1.15h-12.81v-2.88h18.73l.78-.16,2.36,2.05c-2.51,1.33-5.52,2.54-8.65,3.47h11.66v3.13Zm-.5-17.95h-26.94V2.51h11.41c-.19-.65-.4-1.33-.65-1.86l3.81-.65c.37,.74,.74,1.64,.99,2.51h11.38v3.1Zm-23.38,8.22V7.04h20.06v6.79h-20.06Zm3.69-2.54h12.46v-1.74h-12.46v1.74Z" style="fill: #0d131a;"/>
      <path d="M722.94,14.42c.74-2.08,1.3-5.52,1.52-8.09l2.64,.34c-.12,2.7-.68,6.33-1.4,8.71l-2.76-.96Zm9.24-1.95c-.25-1.12-.77-2.7-1.4-4.19V29.14h-3.66V.22h3.66V6.05l1.67-.71c.96,1.86,2.02,4.34,2.42,5.86l-2.7,1.27Zm10.67,5.02c-.96,4.43-3.29,8.78-8.65,11.84-.5-.81-1.8-2.17-2.6-2.85,4.71-2.29,6.7-5.58,7.53-8.99h-6.17v-3.5h6.67c.09-.99,.09-1.92,.09-2.85v-2.82h-5.33v-3.41h5.33V.22h3.72V4.9h6.73V13.98h1.95v3.5h-9.27Zm3.22,.12c2.02,3.01,4.87,7.1,6.2,9.55l-3.35,1.89c-1.18-2.48-3.91-6.76-5.92-9.89l3.07-1.55Zm-2.64-6.45c0,.93-.03,1.86-.09,2.82h3.22v-5.67h-3.13v2.85Z" style="fill: #0d131a;"/>
      <path d="M764.45,18.91c-1.67,2.92-4.25,6.26-6.26,8.37-.71-.62-2.23-1.77-3.1-2.29,2.11-1.83,4.4-4.71,5.8-7.29l3.57,1.21Zm7.75-3.01v8.84c0,2.02-.4,3.01-1.71,3.63-1.27,.59-3.16,.68-5.77,.65-.16-1.05-.68-2.7-1.24-3.75,1.71,.06,3.57,.03,4.15,.03,.53,0,.74-.12,.74-.62V15.91h-6.39c-1.8,0-3.6,.16-3.91,.5-.19-.77-.77-2.45-1.21-3.38,.53-.22,.84-.9,1.12-2.01,.22-1.05,.96-5.08,.96-8.74,7.26-.16,15.53-.74,20.87-1.83l1.86,3.32c-5.3,1.12-12.56,1.64-19.1,1.8-.22,2.26-.65,4.65-1.08,6.63h6.88V6.85h3.81v5.33h10.6v3.72h-10.6Zm6.17,1.83c1.95,2.42,4.53,5.74,5.67,7.91l-3.5,1.58c-1.02-2.14-3.44-5.58-5.4-8.12l3.22-1.37Z" style="fill: #0d131a;"/>
      <path d="M798.65,23.47h-7.16v2.48h-3.47V2.63h10.63V23.47Zm-7.16-17.55v5.39h3.72V5.92h-3.72Zm3.72,14.23v-5.61h-3.72v5.61h3.72Zm20.71-10.57h-3.16v14.7c0,2.23-.47,3.19-1.86,3.78-1.36,.59-3.53,.68-6.64,.65-.16-1.02-.74-2.67-1.3-3.72,2.17,.09,4.46,.09,5.12,.09s.93-.22,.93-.87V9.58h-9.18v-3.66h9.18V.43h3.75V5.92h3.16v3.66Zm-11.38,10.73c-.93-1.8-2.92-4.84-4.4-7.1l3.04-1.61c1.52,2.14,3.63,5.02,4.62,6.82l-3.26,1.89Z" style="fill: #0d131a;"/>
      <path d="M843.01,25.05c.84,0,1.02-.43,1.15-2.92,.78,.59,2.36,1.21,3.41,1.43-.47,3.91-1.43,5.02-4.22,5.02h-3.88c-3.57,0-4.43-1.15-4.43-4.74V14.91h-4.06c-.62,6.42-2.14,11.5-9.95,14.39-.43-.99-1.43-2.45-2.29-3.19,6.85-2.23,7.91-6.14,8.34-11.19h-7.6v-3.6h11.72V.12h3.91V11.32h11.75v3.6h-8.03v8.9c0,1.12,.16,1.24,1.21,1.24h2.98Zm-17.15-14.88c-.81-1.74-2.76-4.5-4.43-6.54l2.95-1.71c1.71,1.89,3.75,4.56,4.68,6.29l-3.19,1.95Zm19.84-6.64c-1.61,2.42-3.53,4.96-5.08,6.6l-3.22-1.33c1.52-1.77,3.38-4.56,4.4-6.7l3.91,1.43Z" style="fill: #0d131a;"/>
    </g>
  </g>
</svg>