<?xml version="1.0" encoding="UTF-8"?>
<svg id="b" data-name="圖層 2" xmlns="http://www.w3.org/2000/svg" width="482.25" height="29.3" viewBox="0 0 482.25 29.3">
  <g id="c" data-name="layout">
    <g>
      <path d="M0,26.29V3.19H17.85V7.35H4.78v5.45H13.46v4.03H4.78v9.47H0Z" style="fill: #0d131a;"/>
      <path d="M21.91,26.29V3.19h4.78V26.29h-4.78Z" style="fill: #0d131a;"/>
      <path d="M31.71,26.29V3.19h4.55l11.48,14.92V3.19h4.49V26.29h-4.22l-11.78-15.44v15.44h-4.52Z" style="fill: #0d131a;"/>
      <path d="M57.25,26.29V3.19h17.75V7.35h-12.97v5.28h8.55v4.03h-8.55v5.48h13.1v4.16h-17.89Z" style="fill: #0d131a;"/>
      <path d="M86.82,26.29V3.19h4.78V26.29h-4.78Z" style="fill: #0d131a;"/>
      <path d="M96.62,26.29V3.19h4.55l11.48,14.92V3.19h4.49V26.29h-4.22l-11.78-15.44v15.44h-4.52Z" style="fill: #0d131a;"/>
      <path d="M133.52,26.66c-1.72,0-3.31-.3-4.79-.91-1.47-.6-2.77-1.45-3.89-2.54-1.12-1.09-2-2.35-2.62-3.79-.63-1.44-.94-3-.94-4.67s.31-3.23,.94-4.67c.63-1.44,1.49-2.71,2.59-3.79,1.1-1.09,2.39-1.94,3.88-2.54,1.48-.6,3.07-.91,4.77-.91,1.91,0,3.72,.38,5.41,1.14,1.69,.76,3.09,1.82,4.19,3.18l-3.33,3.07c-.79-.99-1.73-1.74-2.8-2.24-1.08-.51-2.23-.76-3.46-.76-1.03,0-1.99,.19-2.87,.58-.88,.38-1.65,.91-2.31,1.58s-1.17,1.46-1.53,2.38c-.36,.91-.54,1.91-.54,2.99s.19,2.08,.56,3c.37,.92,.9,1.72,1.57,2.39,.67,.67,1.45,1.2,2.34,1.58,.89,.38,1.86,.58,2.92,.58s2.09-.2,2.97-.61,1.62-.98,2.23-1.72,1.01-1.57,1.2-2.49h-6.83v-4.16h11.95v1.45c0,1.72-.29,3.29-.87,4.74-.58,1.44-1.39,2.7-2.43,3.76-1.03,1.07-2.26,1.9-3.66,2.49-1.41,.59-2.95,.89-4.62,.89Z" style="fill: #0d131a;"/>
      <path d="M149.19,26.29V3.19h11.29c1.56,0,2.94,.3,4.14,.91,1.2,.61,2.14,1.45,2.82,2.52,.68,1.08,1.02,2.32,1.02,3.73s-.41,2.77-1.24,3.89c-.82,1.12-1.92,1.96-3.28,2.51l5.11,9.54h-5.35l-4.52-8.84h-5.21v8.84h-4.78Zm4.78-12.77h6.07c1.08,0,1.94-.29,2.59-.86s.97-1.32,.97-2.24-.32-1.67-.97-2.24c-.65-.57-1.51-.86-2.59-.86h-6.07v6.2Z" style="fill: #0d131a;"/>
      <path d="M172.42,26.29V3.19h17.75V7.35h-12.97v5.28h8.55v4.03h-8.55v5.48h13.1v4.16h-17.89Z" style="fill: #0d131a;"/>
      <path d="M194.53,26.29V3.19h8.88c1.74,0,3.34,.29,4.82,.87,1.47,.58,2.76,1.4,3.86,2.46,1.1,1.06,1.96,2.29,2.59,3.7,.63,1.41,.94,2.93,.94,4.55s-.31,3.17-.92,4.55c-.62,1.39-1.48,2.6-2.59,3.65s-2.4,1.86-3.88,2.44c-1.47,.58-3.08,.87-4.82,.87h-8.88Zm4.78-4.26h4.03c1.03,0,2-.18,2.89-.54,.89-.36,1.67-.87,2.34-1.53,.67-.66,1.19-1.43,1.55-2.31,.36-.88,.54-1.84,.54-2.87s-.19-2-.56-2.89c-.37-.89-.89-1.67-1.55-2.33-.66-.66-1.44-1.18-2.33-1.55-.89-.37-1.85-.56-2.89-.56h-4.03v14.59Z" style="fill: #0d131a;"/>
      <path d="M219.71,26.29V3.19h4.78V26.29h-4.78Z" style="fill: #0d131a;"/>
      <path d="M229.51,26.29V3.19h17.75V7.35h-12.97v5.28h8.55v4.03h-8.55v5.48h13.1v4.16h-17.89Z" style="fill: #0d131a;"/>
      <path d="M251.62,26.29V3.19h4.55l11.48,14.92V3.19h4.49V26.29h-4.22l-11.78-15.44v15.44h-4.52Z" style="fill: #0d131a;"/>
      <path d="M283.47,26.29V7.42h-7.79V3.19h20.33V7.42h-7.75V26.29h-4.79Z" style="fill: #0d131a;"/>
      <path d="M308.08,26.62c-1.87,0-3.7-.35-5.48-1.04-1.78-.69-3.37-1.68-4.75-2.95l2.74-3.43c1.34,1.17,2.63,2.02,3.88,2.56,1.24,.54,2.56,.81,3.94,.81,.97,0,1.8-.12,2.51-.35,.7-.23,1.25-.57,1.63-1.01,.38-.44,.58-.96,.58-1.55,0-.79-.29-1.4-.86-1.83-.57-.43-1.55-.76-2.94-1.01l-4.59-.79c-1.96-.33-3.45-1.02-4.47-2.08-1.02-1.06-1.53-2.42-1.53-4.09,0-1.43,.37-2.67,1.11-3.73,.74-1.06,1.78-1.86,3.13-2.43,1.35-.56,2.96-.84,4.83-.84,1.69,0,3.38,.29,5.07,.86,1.68,.57,3.17,1.36,4.47,2.38l-2.57,3.56c-2.42-1.85-4.85-2.77-7.29-2.77-.86,0-1.61,.11-2.24,.33-.64,.22-1.13,.52-1.47,.91-.34,.38-.51,.84-.51,1.37,0,.7,.25,1.25,.76,1.63,.51,.38,1.35,.68,2.54,.87l4.36,.73c2.31,.38,4.04,1.11,5.18,2.2,1.14,1.09,1.72,2.52,1.72,4.31,0,1.5-.4,2.8-1.19,3.91-.79,1.11-1.92,1.97-3.38,2.57-1.46,.6-3.18,.91-5.16,.91Z" style="fill: #0d131a;"/>
      <path d="M385.77,14.76h-22.35v1.43c0,3.72-.56,9.3-3.16,12.84-.59-.71-2.14-2.14-2.88-2.6,2.17-3.04,2.39-7.22,2.39-10.26v-4.62h7.47V4.68h-7.5V1.52h25.11v3.16h-7.75v6.85h8.68v3.22Zm-21.7-9.89c1.02,1.61,1.89,3.84,2.23,5.33l-3.35,1.18c-.25-1.49-1.12-3.78-2.02-5.43l3.13-1.08Zm6.79,6.67h2.57V4.68h-2.57v6.85Zm6.88-1.08c.84-1.52,1.8-3.88,2.29-5.58l3.88,1.05c-1.09,2.02-2.23,4.12-3.16,5.52l-3.01-.99Z" style="fill: #0d131a;"/>
      <path d="M396.9,22.29c.84,.16,1.58,.9,2.98,1.74,1.92,1.15,4.59,1.3,7.78,1.3s7.88-.25,10.85-.68c-.37,.99-.96,2.82-.99,3.81-2.29,.16-6.91,.31-9.92,.31-3.69,0-6.11-.37-8.22-1.58-1.24-.71-2.2-1.64-2.88-1.64-1.18,0-2.85,1.8-4.53,3.75l-2.45-3.22c1.24-1.12,2.57-2.08,3.84-2.79v-7.94h-3.41v-3.41h6.95v10.36Zm-2.36-14.17c-.87-1.49-2.91-3.63-4.65-5.15l2.79-2.08c1.77,1.4,3.91,3.44,4.9,4.87l-3.04,2.36Zm12.59,5.67c-.59,4.4-2.08,7.88-7.22,10.01-.43-.96-1.4-2.36-2.23-3.07,4.16-1.49,5.27-3.91,5.71-6.95h-5.05v-3.19h8.43v-3.6h-3.88c-.62,1.15-1.27,2.17-1.98,3.01-.71-.59-2.2-1.52-3.04-1.95,1.67-1.71,3.01-4.4,3.72-7.1l3.47,.78c-.22,.71-.47,1.46-.74,2.17h2.45V.19h3.66V3.91h6.42v3.1h-6.42v3.6h7.69v3.19h-5.36v5.43c0,.87,.09,.96,.59,.96h1.3c.5,0,.62-.4,.71-3.22,.68,.62,2.2,1.21,3.22,1.43-.37,4.12-1.3,5.18-3.54,5.18h-2.36c-2.95,0-3.57-1.08-3.57-4.34v-5.43h-1.98Z" style="fill: #0d131a;"/>
      <path d="M433.42,16.96c-1.12,.31-2.2,.68-3.35,1.02v11.04h-3.38v-10.01c-1.67,.5-3.22,.99-4.65,1.36l-.9-3.5c1.55-.34,3.44-.84,5.55-1.43v-5.92h-2.08c-.34,1.52-.71,2.85-1.15,3.97-.56-.46-1.92-1.3-2.6-1.71,.96-2.45,1.49-6.33,1.77-9.98l3.07,.53c-.12,1.24-.28,2.45-.46,3.69h1.46V.06h3.38V6.02h2.57v3.5h-2.57v4.99l2.85-.81,.5,3.25Zm16.68-12.12s-.03,1.24-.06,1.67c-.59,13.83-1.15,18.88-2.33,20.43-.71,1.05-1.4,1.4-2.42,1.61-.87,.15-2.17,.15-3.5,.09-.09-1.05-.46-2.57-1.02-3.6,1.15,.12,2.17,.12,2.76,.12,.47,0,.78-.12,1.15-.59,.78-.99,1.33-5.21,1.83-16.34h-.15c-1.52,7.81-4.71,15.88-9.7,20-.71-.71-1.98-1.61-3.01-2.14,4.96-3.57,8.06-10.6,9.61-17.86h-1.46c-1.36,5.05-3.97,10.6-7.1,13.58-.68-.71-1.86-1.55-2.82-2.08,3.07-2.42,5.49-7.01,6.85-11.5h-1.58c-.9,2.14-1.98,4.06-3.19,5.55-.59-.59-2.05-1.61-2.79-2.08,2.45-2.7,4.15-7.13,5.08-11.69l3.35,.62c-.31,1.43-.71,2.82-1.15,4.19h11.66Z" style="fill: #0d131a;"/>
      <path d="M462.53,15.01c.62,.84,2.95,4.71,3.41,5.67l-2.54,2.76c-.43-1.36-1.27-3.47-2.05-5.18v10.73h-3.41v-11.07c-.71,3.1-1.86,6.36-3.47,8.15-.31-1.3-1.12-3.16-1.67-4.4,1.3-1.55,2.51-4.4,3.01-6.76l2.14,.74v-1.92h-4.68v-3.44h4.68V.03h3.41V10.29h4.59v3.44h-4.59v2.11l1.18-.84Zm-7.88-5.24c-.06-1.92-.68-4.9-1.43-7.16l2.57-.65c.84,2.26,1.49,5.18,1.61,7.1l-2.76,.71Zm11.84-7.32c-.81,2.48-1.71,5.4-2.48,7.19l-2.36-.65c.68-1.95,1.4-5.02,1.74-7.19l3.1,.65Zm12.03,18.14v8.37h-3.47v-7.75l-8.65,1.55-.56-3.44,9.21-1.64V0h3.47V17.05l3.16-.59,.56,3.44-3.72,.68Zm-10.6-11.25c1.8,.96,4.09,2.48,5.21,3.57l-1.86,2.95c-1.02-1.12-3.29-2.79-5.08-3.84l1.74-2.67Zm4.5-1.12c-.96-1.21-3.1-2.88-4.81-4.03l1.77-2.48c1.74,1.02,3.94,2.6,4.93,3.75l-1.89,2.76Z" style="fill: #0d131a;"/>
    </g>
  </g>
</svg>