<?xml version="1.0" encoding="UTF-8"?>
<svg id="b" data-name="圖層 2" xmlns="http://www.w3.org/2000/svg" width="490.09" height="29.11" viewBox="0 0 490.09 29.11">
  <g id="c" data-name="layout">
    <g>
      <path d="M0,26.23V3.13H17.85V7.29H4.78v5.45H13.46v4.03H4.78v9.47H0Z" style="fill: #0d131a;"/>
      <path d="M21.91,26.23V3.13h11.29c1.56,0,2.94,.3,4.14,.91,1.2,.61,2.14,1.45,2.82,2.52,.68,1.08,1.02,2.32,1.02,3.73s-.41,2.77-1.24,3.89c-.82,1.12-1.92,1.96-3.28,2.51l5.11,9.54h-5.35l-4.52-8.84h-5.21v8.84h-4.78Zm4.78-12.77h6.07c1.08,0,1.94-.29,2.59-.86s.97-1.32,.97-2.24-.32-1.67-.97-2.24c-.65-.57-1.51-.86-2.59-.86h-6.07v6.2Z" style="fill: #0d131a;"/>
      <path d="M45.14,26.23V3.13h17.75V7.29h-12.97v5.28h8.55v4.03h-8.55v5.48h13.1v4.16h-17.89Z" style="fill: #0d131a;"/>
      <path d="M75.5,26.56c-1.87,0-3.7-.35-5.48-1.04-1.78-.69-3.37-1.68-4.75-2.95l2.74-3.43c1.34,1.17,2.63,2.02,3.88,2.56,1.24,.54,2.56,.81,3.94,.81,.97,0,1.8-.12,2.51-.35,.7-.23,1.25-.57,1.63-1.01,.38-.44,.58-.96,.58-1.55,0-.79-.29-1.4-.86-1.83-.57-.43-1.55-.76-2.94-1.01l-4.59-.79c-1.96-.33-3.45-1.02-4.47-2.08-1.02-1.06-1.53-2.42-1.53-4.09,0-1.43,.37-2.67,1.11-3.73,.74-1.06,1.78-1.86,3.13-2.43,1.35-.56,2.96-.84,4.83-.84,1.69,0,3.38,.29,5.07,.86,1.68,.57,3.17,1.36,4.47,2.38l-2.57,3.56c-2.42-1.85-4.85-2.77-7.29-2.77-.86,0-1.61,.11-2.24,.33-.64,.22-1.13,.52-1.47,.91-.34,.38-.51,.84-.51,1.37,0,.7,.25,1.25,.76,1.63,.51,.38,1.35,.68,2.54,.87l4.36,.73c2.31,.38,4.04,1.11,5.18,2.2,1.14,1.09,1.72,2.52,1.72,4.31,0,1.5-.4,2.8-1.19,3.91-.79,1.11-1.92,1.97-3.38,2.57-1.46,.6-3.18,.91-5.16,.91Z" style="fill: #0d131a;"/>
      <path d="M88.9,26.23V3.13h4.78V12.44h10.63V3.13h4.78V26.23h-4.78v-9.47h-10.63v9.47h-4.78Z" style="fill: #0d131a;"/>
      <path d="M127.87,26.23V7.35h-7.79V3.13h20.33V7.35h-7.75V26.23h-4.79Z" style="fill: #0d131a;"/>
      <path d="M143.91,26.23V3.13h17.75V7.29h-12.97v5.28h8.55v4.03h-8.55v5.48h13.1v4.16h-17.89Z" style="fill: #0d131a;"/>
      <path d="M164.17,26.23l9.5-23.1h5.51l9.41,23.1h-5.18l-2.34-6.07h-9.54l-2.38,6.07h-4.98Zm8.84-9.9h6.6l-3.3-8.51-3.3,8.51Z" style="fill: #0d131a;"/>
      <path d="M196.61,26.23l9.5-23.1h5.51l9.41,23.1h-5.18l-2.34-6.07h-9.54l-2.38,6.07h-4.98Zm8.84-9.9h6.6l-3.3-8.51-3.3,8.51Z" style="fill: #0d131a;"/>
      <path d="M223.8,26.23V3.13h11.29c1.56,0,2.94,.3,4.14,.91,1.2,.61,2.14,1.45,2.82,2.52,.68,1.08,1.02,2.32,1.02,3.73s-.41,2.77-1.24,3.89c-.82,1.12-1.92,1.96-3.28,2.51l5.11,9.54h-5.35l-4.52-8.84h-5.21v8.84h-4.78Zm4.78-12.77h6.07c1.08,0,1.94-.29,2.59-.86s.97-1.32,.97-2.24-.32-1.67-.97-2.24c-.65-.57-1.51-.86-2.59-.86h-6.07v6.2Z" style="fill: #0d131a;"/>
      <path d="M258.35,26.59c-1.72,0-3.31-.3-4.79-.91-1.47-.6-2.77-1.45-3.88-2.54-1.11-1.09-1.98-2.35-2.61-3.79-.63-1.44-.94-3-.94-4.67s.31-3.23,.94-4.67c.63-1.44,1.5-2.71,2.61-3.79s2.4-1.94,3.88-2.54c1.47-.6,3.07-.91,4.79-.91s3.32,.3,4.8,.91c1.48,.61,2.78,1.45,3.89,2.54s1.97,2.35,2.59,3.79c.62,1.44,.92,3,.92,4.67s-.31,3.23-.92,4.67c-.62,1.44-1.48,2.71-2.59,3.79-1.11,1.09-2.41,1.94-3.89,2.54-1.49,.61-3.09,.91-4.8,.91Zm0-4.39c1.06,0,2.02-.19,2.9-.58s1.65-.91,2.31-1.58c.66-.67,1.18-1.47,1.55-2.39,.37-.92,.56-1.91,.56-2.97s-.19-2.07-.56-2.99c-.37-.91-.89-1.71-1.55-2.38-.66-.67-1.43-1.2-2.31-1.58s-1.85-.58-2.9-.58-1.99,.19-2.87,.58-1.65,.91-2.31,1.58c-.66,.67-1.18,1.46-1.55,2.38-.37,.91-.56,1.9-.56,2.95s.19,2.08,.56,3c.37,.92,.89,1.72,1.55,2.39,.66,.67,1.43,1.2,2.31,1.58s1.84,.58,2.87,.58Z" style="fill: #0d131a;"/>
      <path d="M274.69,26.23V3.13h6.14l6.34,12.44,6.34-12.44h6.14V26.23h-4.52V9.24l-8.02,15.34-7.99-15.41V26.23h-4.42Z" style="fill: #0d131a;"/>
      <path d="M302.41,26.23l9.5-23.1h5.51l9.41,23.1h-5.18l-2.34-6.07h-9.54l-2.38,6.07h-4.98Zm8.84-9.9h6.6l-3.3-8.51-3.3,8.51Z" style="fill: #0d131a;"/>
      <path d="M375.79,18.51c.31,.99,.96,2.42,1.4,3.1-5.71,4.9-6.76,5.83-7.29,6.64-.31-.84-1.21-2.42-1.8-3.13,.68-.43,1.58-1.52,1.58-2.95V12.9h-3.69v-3.54h7.29v11.25l2.51-2.11Zm-4.06-10.73c-.84-1.43-2.76-3.66-4.25-5.21l2.51-2.11c1.49,1.46,3.54,3.53,4.46,4.93l-2.73,2.39Zm11.72,6.73v-4.28c-1.58,2.02-3.72,3.81-5.95,4.96h12.68c-.22,1.24-.47,2.57-.71,3.81h4.53s-.03,.84-.06,1.24c-.34,4.65-.74,6.73-1.49,7.54-.59,.68-1.27,.9-2.17,.99-.78,.09-2.11,.09-3.6,.03-.03-.9-.37-2.08-.87-2.88,1.21,.12,2.36,.12,2.85,.12,.4,0,.68-.03,.96-.28,.34-.37,.59-1.43,.84-3.84h-4.87c.25-1.02,.53-2.29,.77-3.63h-2.6c-.37,5.05-1.61,8.65-6.36,10.82-.37-.87-1.36-2.17-2.11-2.82,3.75-1.58,4.59-4.19,4.9-8h-2.95v-2.98l-.19,.09c-.53-.84-1.55-2.05-2.26-2.67,2.14-.84,4.31-2.29,5.89-3.91h-4.46v-3.1h7.22v-1.67c-1.92,.12-3.91,.22-5.71,.25-.06-.81-.5-2.02-.84-2.76,4.87-.19,10.42-.71,13.77-1.55l2.33,2.7c-1.74,.43-3.81,.78-5.98,1.02v2.01h7.41v3.1h-4.9c1.52,1.58,3.57,3.07,5.46,3.94-.71,.62-1.77,1.8-2.29,2.64-2.02-1.15-4.09-3.04-5.67-5.08v4.19h-3.57Z" style="fill: #0d131a;"/>
      <path d="M413.92,0c-.03,1.3-.09,2.98-.22,4.84,.43,4.19,2.33,15.88,13.15,20.65-1.15,.9-2.2,2.14-2.7,3.19-6.88-3.29-10.32-9.33-12.12-14.67-1.71,5.46-4.96,11.07-11.41,14.85-.65-.99-1.83-2.17-3.07-3.01,12.59-6.73,12-20.62,12.12-25.86h4.25Z" style="fill: #0d131a;"/>
      <path d="M446.62,7.66c-.19,.28-.4,.56-.62,.84,2.95,2.33,7.88,4.37,12.5,5.33-.78,.74-1.8,2.14-2.33,3.04-4.34-1.18-8.93-3.47-12.25-6.23-3.19,2.95-7.53,4.99-12.43,6.36-.4-.87-1.49-2.36-2.17-3.04,6.02-1.4,11.41-4.03,14.01-7.6l3.29,1.3Zm-6.91,14.14c-1.61,2.54-4.31,4.87-6.73,6.29-.71-.65-2.23-1.8-3.13-2.36,2.45-1.12,4.87-3.04,6.14-5.02l3.72,1.09Zm-3.94-15.78h-5.83V2.7h5.83V0h3.72V2.7h3.54v3.32h-3.54v2.92h-3.72v-2.92Zm10.02,13.98v8.93h-3.84v-8.93h-8.56v-3.38h8.56v-3.16h3.84v3.16h8.19v3.38h-8.19Zm2.64-14.01h-4.03V2.7h4.03V0h3.72V2.7h5.58v3.29h-5.58v2.95h-3.72v-2.95Zm2.08,14.51c2.29,1.52,5.27,3.84,6.7,5.49l-3.07,2.11c-1.3-1.58-4.19-4.06-6.51-5.74l2.88-1.86Z" style="fill: #0d131a;"/>
      <path d="M473.72,15.78v-4.4c-1.95,2.02-4.4,3.78-7.01,5.12h18.82v12.4h-3.88v-.93h-11.69v.96h-3.69v-12.22c-.96,.46-1.89,.87-2.88,1.18-.56-.87-1.71-2.36-2.51-3.13,3.32-.9,6.67-2.54,9.18-4.46h-8.22v-3.29h11.88v-2.17c-2.82,.25-5.64,.4-8.37,.47-.09-.9-.53-2.29-.9-3.13,6.79-.25,14.51-.99,19.16-2.14l2.6,2.95c-2.57,.65-5.55,1.12-8.65,1.49v2.54h11.94v3.29h-7.44c3.07,1.71,6.2,3.66,8.03,5.15l-2.2,2.82c-2.2-1.98-6.54-4.81-10.32-6.88v4.4h-3.84Zm-3.75,3.5v1.67h11.69v-1.67h-11.69Zm11.69,5.89v-1.71h-11.69v1.71h11.69Z" style="fill: #0d131a;"/>
    </g>
  </g>
</svg>