<?xml version="1.0" encoding="UTF-8"?>
<svg id="uuid-68f80de8-c611-4c21-94f7-0e3012f130c6" data-name="圖層 2" xmlns="http://www.w3.org/2000/svg" width="175.63" height="110.48" viewBox="0 0 175.63 110.48">
  <defs>
    <style>
      .uuid-043a6436-49ca-4921-8a22-d9a876085b54 {
        fill: #008f67;
      }

      .uuid-6807665f-cec2-4b71-9c39-749ca75591a6 {
        fill: #0d131a;
      }
    </style>
  </defs>
  <g id="uuid-d337ef58-b9c8-4672-a684-113b0350eb4f" data-name="layout">
    <g>
      <path class="uuid-043a6436-49ca-4921-8a22-d9a876085b54" d="M54.07,98.28l1.15,7c.06,.39,.34,.7,.71,.82,9.32,2.86,20.45,4.39,31.95,4.39s22.65-1.55,31.96-4.41c.37-.11,.64-.43,.71-.81l1.17-6.98c.08-.46-.35-.82-.79-.68-9.55,3.08-21.04,4.76-33.05,4.76s-23.46-1.63-33.02-4.75c-.44-.14-.87,.22-.79,.68Z"/>
      <path class="uuid-043a6436-49ca-4921-8a22-d9a876085b54" d="M37.24,7.32c.07,.43,.4,.77,.83,.85,12.8,2.16,30.56,3.5,50.19,3.5,19.36,0,36.65-1.28,49.37-3.37,.43-.07,.77-.41,.84-.85l1.07-6.6c.07-.42-.29-.78-.7-.7-12.82,2.2-30.75,3.57-50.58,3.57S49.75,2.29,36.88,0c-.42-.07-.78,.29-.71,.7l1.08,6.61Z"/>
      <g>
        <path class="uuid-6807665f-cec2-4b71-9c39-749ca75591a6" d="M0,69.84v-31.5H12.78c2.34,0,4.51,.41,6.53,1.22,2.01,.81,3.77,1.93,5.29,3.38,1.51,1.44,2.7,3.12,3.56,5.04,.85,1.92,1.28,3.99,1.28,6.21s-.43,4.23-1.28,6.12c-.86,1.89-2.04,3.55-3.56,4.97-1.51,1.43-3.28,2.54-5.29,3.35-2.01,.81-4.18,1.22-6.53,1.22H0Zm7.74-6.84h4.86c1.23,0,2.38-.22,3.44-.67,1.06-.45,2-1.08,2.81-1.89,.81-.81,1.44-1.75,1.89-2.81,.45-1.06,.67-2.21,.67-3.44s-.23-2.44-.67-3.53c-.45-1.09-1.08-2.05-1.89-2.86-.81-.81-1.75-1.45-2.81-1.91-1.07-.46-2.21-.7-3.44-.7H7.74v17.82Z"/>
        <path class="uuid-6807665f-cec2-4b71-9c39-749ca75591a6" d="M34.65,69.84v-31.5h16.11c2.16,0,4.08,.43,5.76,1.28,1.68,.85,2.99,2.04,3.94,3.55,.94,1.52,1.42,3.25,1.42,5.2s-.54,3.75-1.62,5.31c-1.08,1.56-2.5,2.75-4.27,3.55l6.88,12.6h-8.64l-5.94-11.48h-5.9v11.48h-7.74Zm7.74-17.77h7.65c1.2,0,2.17-.33,2.9-.99,.74-.66,1.1-1.51,1.1-2.57s-.37-1.9-1.1-2.56c-.74-.66-1.7-.99-2.9-.99h-7.65v7.11Z"/>
        <path class="uuid-6807665f-cec2-4b71-9c39-749ca75591a6" d="M66.96,69.84v-31.5h7.74v31.5h-7.74Z"/>
        <path class="uuid-6807665f-cec2-4b71-9c39-749ca75591a6" d="M81.04,69.84v-31.5h7.29l14.31,18.27v-18.27h7.29v31.5h-6.84l-14.76-18.99v18.99h-7.29Z"/>
        <path class="uuid-6807665f-cec2-4b71-9c39-749ca75591a6" d="M116.28,69.84v-31.5h7.74v13.77l12.74-13.77h9.36l-14.58,14.8,15.39,16.7h-10.26l-12.65-14.45v14.45h-7.74Z"/>
        <path class="uuid-6807665f-cec2-4b71-9c39-749ca75591a6" d="M161.82,70.29c-2.55,0-5.07-.46-7.56-1.4-2.49-.93-4.71-2.22-6.66-3.87l4.32-5.62c1.92,1.56,3.69,2.68,5.31,3.35,1.62,.67,3.34,1.01,5.17,1.01,1.2,0,2.22-.12,3.06-.36,.84-.24,1.48-.59,1.93-1.06,.45-.46,.67-1.01,.67-1.64,0-.87-.33-1.54-.99-2.02-.66-.48-1.79-.85-3.38-1.12l-6.93-1.22c-2.55-.45-4.52-1.42-5.89-2.93-1.38-1.5-2.07-3.4-2.07-5.71,0-2.04,.52-3.79,1.55-5.27,1.04-1.47,2.52-2.59,4.46-3.38,1.93-.78,4.24-1.17,6.91-1.17,2.34,0,4.7,.4,7.07,1.19,2.37,.8,4.42,1.9,6.17,3.31l-4.1,5.71c-3.24-2.49-6.46-3.73-9.67-3.73-1.05,0-1.96,.11-2.72,.34-.76,.23-1.35,.54-1.75,.95s-.61,.89-.61,1.46c0,.78,.29,1.38,.88,1.8,.58,.42,1.54,.75,2.86,.99l6.52,1.08c3.03,.48,5.33,1.48,6.91,3.01,1.57,1.53,2.36,3.51,2.36,5.94,0,2.13-.56,3.97-1.67,5.51-1.11,1.55-2.7,2.74-4.77,3.58-2.07,.84-4.53,1.26-7.38,1.26Z"/>
      </g>
    </g>
  </g>
</svg>