<?xml version="1.0" encoding="UTF-8"?>
<svg id="b" data-name="圖層 2" xmlns="http://www.w3.org/2000/svg" width="32.11" height="44.2" viewBox="0 0 32.11 44.2">
  <defs>
    <style>
      .d {
        fill: #211815;
      }

      .e {
        fill: #008f67;
      }

      .f {
        fill: #c8c8c9;
      }
    </style>
  </defs>
  <g id="c" data-name="layout">
    <g>
      <path class="f" d="M16.99,1.81c2.18,.36,4.25,1.27,5.99,2.64l.2,.17c.76,.65,1.28,1.5,1.51,2.46,.11,.47,.13,.99,.06,1.54l-.52,3.68c-2.66,.25-5.4,.38-8.19,.38s-5.58-.13-8.25-.39l-.47-2.79c-.28-1.68,.42-3.34,1.78-4.22,.88-.57,1.66-.59,2.35-.61,.07,0,.13,0,.2,0,2.95-.09,4.59-1.81,5.31-2.82,.01-.02,.03-.02,.03-.03m0-1.81c-.6,0-1.16,.29-1.51,.79-.64,.91-1.88,1.99-3.88,2.05-.78,.02-2.06-.02-3.48,.91-1.99,1.3-2.97,3.7-2.58,6.04l.69,4.16c3.15,.36,6.44,.54,9.81,.54s6.64-.18,9.79-.54l.72-5.08c.1-.74,.09-1.49-.09-2.22-.33-1.35-1.07-2.53-2.09-3.41h0C22.37,1.6,19.94,.46,17.29,.02c-.1-.02-.2-.02-.3-.02h0Z"/>
      <g>
        <path class="d" d="M31.1,11.05c-.66,.1-1.65,.23-2.17,.3-.14,.02-.25,.13-.27,.26l-4.27,26.5c-.02,.14,.1,.25,.24,.22,.75-.18,1.58-.44,2.24-.67,.11-.04,.19-.13,.21-.25l4.25-26.14c.02-.13-.09-.24-.22-.22Z"/>
        <path class="d" d="M5.56,40.41l.36,2.17c.02,.12,.1,.22,.22,.25,2.89,.89,6.35,1.36,9.92,1.36s7.03-.48,9.93-1.37c.12-.04,.2-.13,.22-.25l.36-2.17c.02-.14-.11-.26-.25-.21-2.97,.96-6.53,1.48-10.27,1.48s-7.29-.51-10.25-1.48c-.14-.04-.27,.07-.25,.21Z"/>
        <path class="d" d="M.34,8.41c.02,.13,.12,.24,.26,.26,3.97,.67,9.49,1.09,15.59,1.09,6.01,0,11.38-.4,15.33-1.05,.14-.02,.24-.13,.26-.26l.33-2.05c.02-.13-.09-.24-.22-.22-3.98,.68-9.55,1.11-15.71,1.11S4.22,6.85,.22,6.14c-.13-.02-.24,.09-.22,.22l.33,2.05Z"/>
        <path class="d" d="M7.76,38.11L3.48,11.58c-.02-.15-.14-.26-.29-.28-.23-.03-1.4-.18-2.17-.3-.07-.01-.13,.01-.18,.06-.05,.05-.07,.11-.06,.18l4.26,26.18c.02,.12,.1,.22,.22,.26,.45,.16,1.34,.46,2.24,.67,.02,0,.03,0,.05,0,.05,0,.1-.02,.14-.06,.05-.05,.08-.12,.06-.19Z"/>
      </g>
      <path class="e" d="M16.06,16.17c-3.26,0-6.46-.17-9.53-.5l3.66,22.93c3.76,.85,8.09,.85,11.73,.03l3.67-22.96c-3.07,.33-6.27,.5-9.53,.5Z"/>
    </g>
  </g>
</svg>