<?xml version="1.0" encoding="UTF-8"?>
<svg id="b" data-name="圖層 2" xmlns="http://www.w3.org/2000/svg" width="592.28" height="29.3" viewBox="0 0 592.28 29.3">
  <g id="c" data-name="layout">
    <g>
      <path d="M0,26.32V3.22H17.75V7.38H4.78v5.28H13.33v4.03H4.78v5.48h13.1v4.16H0Z" style="fill: #0d131a;"/>
      <path d="M22.11,26.32V3.22h4.55l11.48,14.92V3.22h4.49V26.32h-4.22l-11.78-15.44v15.44h-4.52Z" style="fill: #0d131a;"/>
      <path d="M53.95,26.32V7.45h-7.79V3.22h20.33V7.45h-7.75V26.32h-4.79Z" style="fill: #0d131a;"/>
      <path d="M69.99,26.32V3.22h4.78V12.53h10.63V3.22h4.78V26.32h-4.78v-9.47h-10.63v9.47h-4.78Z" style="fill: #0d131a;"/>
      <path d="M105.07,26.65c-2.09,0-3.9-.42-5.43-1.25-1.53-.84-2.71-2.03-3.55-3.58-.84-1.55-1.25-3.37-1.25-5.46V3.22h4.79v13.13c0,1.19,.23,2.23,.68,3.12,.45,.89,1.09,1.57,1.91,2.05,.83,.47,1.79,.71,2.89,.71s2.06-.24,2.87-.71c.81-.47,1.45-1.15,1.9-2.05,.45-.89,.68-1.93,.68-3.12V3.22h4.75v13.13c0,2.07-.42,3.88-1.25,5.43-.84,1.55-2.02,2.75-3.55,3.6-1.53,.85-3.34,1.27-5.43,1.27Z" style="fill: #0d131a;"/>
      <path d="M128.2,26.65c-1.87,0-3.7-.35-5.48-1.04-1.78-.69-3.37-1.68-4.75-2.95l2.74-3.43c1.34,1.17,2.63,2.02,3.88,2.56,1.24,.54,2.56,.81,3.94,.81,.97,0,1.8-.12,2.51-.35,.7-.23,1.25-.57,1.63-1.01,.38-.44,.58-.96,.58-1.55,0-.79-.29-1.4-.86-1.83-.57-.43-1.55-.76-2.94-1.01l-4.59-.79c-1.96-.33-3.45-1.02-4.47-2.08-1.02-1.06-1.53-2.42-1.53-4.09,0-1.43,.37-2.67,1.11-3.73,.74-1.06,1.78-1.86,3.13-2.43,1.35-.56,2.96-.84,4.83-.84,1.69,0,3.38,.29,5.07,.86,1.68,.57,3.17,1.36,4.47,2.38l-2.57,3.56c-2.42-1.85-4.85-2.77-7.29-2.77-.86,0-1.61,.11-2.24,.33-.64,.22-1.13,.52-1.47,.91-.34,.38-.51,.84-.51,1.37,0,.7,.25,1.25,.76,1.63,.51,.38,1.35,.68,2.54,.87l4.36,.73c2.31,.38,4.04,1.11,5.18,2.2,1.14,1.09,1.72,2.52,1.72,4.31,0,1.5-.4,2.8-1.19,3.91-.79,1.11-1.92,1.97-3.38,2.57-1.46,.6-3.18,.91-5.16,.91Z" style="fill: #0d131a;"/>
      <path d="M141.6,26.32V3.22h4.78V26.32h-4.78Z" style="fill: #0d131a;"/>
      <path d="M149.19,26.32l9.5-23.1h5.51l9.41,23.1h-5.18l-2.34-6.07h-9.54l-2.38,6.07h-4.98Zm8.84-9.9h6.6l-3.3-8.51-3.3,8.51Z" style="fill: #0d131a;"/>
      <path d="M185.13,26.65c-1.87,0-3.7-.35-5.48-1.04-1.78-.69-3.37-1.68-4.75-2.95l2.74-3.43c1.34,1.17,2.63,2.02,3.88,2.56,1.24,.54,2.56,.81,3.94,.81,.97,0,1.8-.12,2.51-.35,.7-.23,1.25-.57,1.63-1.01,.38-.44,.58-.96,.58-1.55,0-.79-.29-1.4-.86-1.83-.57-.43-1.55-.76-2.94-1.01l-4.59-.79c-1.96-.33-3.45-1.02-4.47-2.08-1.02-1.06-1.53-2.42-1.53-4.09,0-1.43,.37-2.67,1.11-3.73,.74-1.06,1.78-1.86,3.13-2.43,1.35-.56,2.96-.84,4.83-.84,1.69,0,3.38,.29,5.07,.86,1.68,.57,3.17,1.36,4.47,2.38l-2.57,3.56c-2.42-1.85-4.85-2.77-7.29-2.77-.86,0-1.61,.11-2.24,.33-.64,.22-1.13,.52-1.47,.91-.34,.38-.51,.84-.51,1.37,0,.7,.25,1.25,.76,1.63,.51,.38,1.35,.68,2.54,.87l4.36,.73c2.31,.38,4.04,1.11,5.18,2.2,1.14,1.09,1.72,2.52,1.72,4.31,0,1.5-.4,2.8-1.19,3.91-.79,1.11-1.92,1.97-3.38,2.57-1.46,.6-3.18,.91-5.16,.91Z" style="fill: #0d131a;"/>
      <path d="M204.33,26.32V7.45h-7.79V3.22h20.33V7.45h-7.75V26.32h-4.79Z" style="fill: #0d131a;"/>
      <path d="M220.37,26.32V3.22h4.78V26.32h-4.78Z" style="fill: #0d131a;"/>
      <path d="M241.56,26.65c-1.72,0-3.32-.3-4.82-.91-1.5-.61-2.8-1.45-3.91-2.52s-1.98-2.34-2.61-3.78c-.63-1.44-.94-3-.94-4.67s.31-3.26,.94-4.7c.63-1.44,1.5-2.7,2.62-3.78,1.12-1.08,2.43-1.92,3.91-2.52,1.48-.6,3.09-.91,4.8-.91,1.28,0,2.51,.18,3.7,.53,1.19,.35,2.29,.85,3.32,1.48,1.02,.64,1.9,1.41,2.62,2.31l-3.23,3.2c-.84-1.03-1.8-1.81-2.89-2.34-1.09-.53-2.26-.79-3.51-.79-1.03,0-2,.19-2.9,.58-.9,.38-1.68,.91-2.34,1.58-.66,.67-1.18,1.46-1.55,2.38-.37,.91-.56,1.91-.56,2.99s.19,2.04,.56,2.95c.37,.91,.9,1.71,1.58,2.38,.68,.67,1.48,1.19,2.39,1.57,.91,.38,1.91,.56,2.99,.56,1.21,0,2.34-.25,3.4-.76,1.06-.51,1.99-1.23,2.81-2.18l3.13,3.1c-.73,.88-1.6,1.64-2.61,2.28-1.01,.64-2.11,1.13-3.28,1.47-1.18,.34-2.38,.51-3.61,.51Z" style="fill: #0d131a;"/>
      <path d="M270.4,26.65c-1.87,0-3.7-.35-5.48-1.04-1.78-.69-3.37-1.68-4.75-2.95l2.74-3.43c1.34,1.17,2.63,2.02,3.88,2.56,1.24,.54,2.56,.81,3.94,.81,.97,0,1.8-.12,2.51-.35,.7-.23,1.25-.57,1.63-1.01,.38-.44,.58-.96,.58-1.55,0-.79-.29-1.4-.86-1.83-.57-.43-1.55-.76-2.94-1.01l-4.59-.79c-1.96-.33-3.45-1.02-4.47-2.08-1.02-1.06-1.53-2.42-1.53-4.09,0-1.43,.37-2.67,1.11-3.73,.74-1.06,1.78-1.86,3.13-2.43,1.35-.56,2.96-.84,4.83-.84,1.69,0,3.38,.29,5.07,.86,1.68,.57,3.17,1.36,4.47,2.38l-2.57,3.56c-2.42-1.85-4.85-2.77-7.29-2.77-.86,0-1.61,.11-2.24,.33-.64,.22-1.13,.52-1.47,.91-.34,.38-.51,.84-.51,1.37,0,.7,.25,1.25,.76,1.63,.51,.38,1.35,.68,2.54,.87l4.36,.73c2.31,.38,4.04,1.11,5.18,2.2,1.14,1.09,1.72,2.52,1.72,4.31,0,1.5-.4,2.8-1.19,3.91-.79,1.11-1.92,1.97-3.38,2.57-1.46,.6-3.18,.91-5.16,.91Z" style="fill: #0d131a;"/>
      <path d="M283.8,26.32V3.22h17.75V7.38h-12.97v5.28h8.55v4.03h-8.55v5.48h13.1v4.16h-17.89Z" style="fill: #0d131a;"/>
      <path d="M305.91,26.32V3.22h11.29c1.56,0,2.94,.3,4.14,.91,1.2,.61,2.14,1.45,2.82,2.52,.68,1.08,1.02,2.32,1.02,3.73s-.41,2.77-1.24,3.89c-.82,1.12-1.92,1.96-3.28,2.51l5.11,9.54h-5.35l-4.52-8.84h-5.21v8.84h-4.78Zm4.78-12.77h6.07c1.08,0,1.94-.29,2.59-.86s.97-1.32,.97-2.24-.32-1.67-.97-2.24c-.65-.57-1.51-.86-2.59-.86h-6.07v6.2Z" style="fill: #0d131a;"/>
      <path d="M335.8,26.32l-9.37-23.1h5.18l7.06,18.18,7.23-18.18h4.95l-9.5,23.1h-5.54Z" style="fill: #0d131a;"/>
      <path d="M353.62,26.32V3.22h4.78V26.32h-4.78Z" style="fill: #0d131a;"/>
      <path d="M374.81,26.65c-1.72,0-3.32-.3-4.82-.91-1.5-.61-2.8-1.45-3.91-2.52s-1.98-2.34-2.61-3.78c-.63-1.44-.94-3-.94-4.67s.31-3.26,.94-4.7c.63-1.44,1.5-2.7,2.62-3.78,1.12-1.08,2.43-1.92,3.91-2.52,1.48-.6,3.09-.91,4.8-.91,1.28,0,2.51,.18,3.7,.53,1.19,.35,2.29,.85,3.32,1.48,1.02,.64,1.9,1.41,2.62,2.31l-3.23,3.2c-.84-1.03-1.8-1.81-2.89-2.34-1.09-.53-2.26-.79-3.51-.79-1.03,0-2,.19-2.9,.58-.9,.38-1.68,.91-2.34,1.58-.66,.67-1.18,1.46-1.55,2.38-.37,.91-.56,1.91-.56,2.99s.19,2.04,.56,2.95c.37,.91,.9,1.71,1.58,2.38,.68,.67,1.48,1.19,2.39,1.57,.91,.38,1.91,.56,2.99,.56,1.21,0,2.34-.25,3.4-.76,1.06-.51,1.99-1.23,2.81-2.18l3.13,3.1c-.73,.88-1.6,1.64-2.61,2.28-1.01,.64-2.11,1.13-3.28,1.47-1.18,.34-2.38,.51-3.61,.51Z" style="fill: #0d131a;"/>
      <path d="M387.94,26.32V3.22h17.75V7.38h-12.97v5.28h8.55v4.03h-8.55v5.48h13.1v4.16h-17.89Z" style="fill: #0d131a;"/>
      <path d="M418.3,26.65c-1.87,0-3.7-.35-5.48-1.04-1.78-.69-3.37-1.68-4.75-2.95l2.74-3.43c1.34,1.17,2.63,2.02,3.88,2.56,1.24,.54,2.56,.81,3.94,.81,.97,0,1.8-.12,2.51-.35,.7-.23,1.25-.57,1.63-1.01,.38-.44,.58-.96,.58-1.55,0-.79-.29-1.4-.86-1.83-.57-.43-1.55-.76-2.94-1.01l-4.59-.79c-1.96-.33-3.45-1.02-4.47-2.08-1.02-1.06-1.53-2.42-1.53-4.09,0-1.43,.37-2.67,1.11-3.73,.74-1.06,1.78-1.86,3.13-2.43,1.35-.56,2.96-.84,4.83-.84,1.69,0,3.38,.29,5.07,.86,1.68,.57,3.17,1.36,4.47,2.38l-2.57,3.56c-2.42-1.85-4.85-2.77-7.29-2.77-.86,0-1.61,.11-2.24,.33-.64,.22-1.13,.52-1.47,.91-.34,.38-.51,.84-.51,1.37,0,.7,.25,1.25,.76,1.63,.51,.38,1.35,.68,2.54,.87l4.36,.73c2.31,.38,4.04,1.11,5.18,2.2,1.14,1.09,1.72,2.52,1.72,4.31,0,1.5-.4,2.8-1.19,3.91-.79,1.11-1.92,1.97-3.38,2.57-1.46,.6-3.18,.91-5.16,.91Z" style="fill: #0d131a;"/>
      <path d="M468.03,27.72c1.24-1.49,2.82-3.91,3.78-6.08l3.53,.93c-.96,2.23-2.54,4.87-3.81,6.57l-3.5-1.43Zm19.94-9.12c-.71-.65-1.77-1.43-2.95-2.23-.99,2.11-2.48,3.81-4.68,5.18-.43-.87-1.46-2.11-2.29-2.73,1.89-1.18,3.16-2.6,3.97-4.37-.9-.56-1.77-1.12-2.57-1.58l.06-.09-3.26,.84v3.78c0,1.67-.31,2.54-1.33,3.1-1.02,.53-2.48,.62-4.56,.62-.09-.96-.56-2.36-.99-3.32,1.27,.06,2.54,.06,2.95,.06,.4-.03,.56-.12,.56-.53v-2.85l-4.09,1.02-.71-3.57c1.33-.25,3.01-.62,4.81-1.02v-3.35h-4.12v-3.38h4.12V.12h3.38V4.19h3.19v3.38h-3.19v2.57c.99-.25,2.02-.5,3.04-.74l.34,3.19,1.55-2.29c.56,.31,1.18,.65,1.83,1.02,.25-1.18,.4-2.45,.5-3.88h-3.54v-3.1h3.66c.03-1.36,.06-2.79,.06-4.34h3.47c-.03,1.55-.03,2.98-.09,4.34h6.23c-.37,8.59-.5,13.49,.46,13.46,.43,0,.62-.9,.71-3.07,.68,.56,1.89,1.15,2.73,1.33-.34,3.81-1.3,4.93-3.57,4.93-3.97,0-3.97-5.21-3.81-13.55h-2.88c-.16,2.11-.4,4.03-.81,5.71,1.46,.9,2.76,1.77,3.66,2.48l-1.83,2.98Zm-7.47,3.94c.4,1.86,.74,4.28,.78,5.8l-3.63,.5c0-1.49-.22-4-.59-5.95l3.44-.34Zm6.36-.28c.77,1.8,1.55,4.22,1.8,5.77l-3.66,.71c-.19-1.52-.9-4-1.61-5.92l3.47-.56Zm6.11-.84c1.4,1.86,3.13,4.43,3.91,6.17l-3.5,1.55c-.65-1.64-2.29-4.37-3.69-6.39l3.29-1.33Z" style="fill: #0d131a;"/>
      <path d="M499.43,14.26c.68-2.08,1.3-5.52,1.55-8.09l2.79,.4c-.19,2.67-.78,6.33-1.46,8.71l-2.88-1.02Zm29.05-4.4v2.64h-18.98v-2.61l-.71,.4c-.25-.9-.71-2.14-1.24-3.32V28.96h-3.38V.03h3.38V4.9l1.61-.74c.74,1.55,1.74,3.6,2.14,4.81l-1.71,.9h7.44v-1.33h-5.74v-2.48h5.74v-1.24h-6.82V2.17h6.82V.06h3.66V2.17h6.82v2.64h-6.82v1.24h5.86v2.48h-5.86v1.33h7.78Zm-1.64,15.66c0,1.61-.31,2.48-1.46,2.98-1.05,.53-2.6,.53-4.74,.53-.12-.9-.59-2.23-.99-3.13,1.27,.09,2.73,.06,3.13,.06s.56-.12,.56-.5v-1.05h-9.21c-.4,1.8-1.12,3.53-2.26,4.9-.5-.68-1.95-1.98-2.64-2.45,1.77-2.17,1.92-5.15,1.92-7.57v-5.61h15.69v11.84Zm-3.5-3.66v-1.43h-8.77c0,.46-.03,.93-.06,1.43h8.84Zm-8.74-5.61v1.58h8.74v-1.58h-8.74Z" style="fill: #0d131a;"/>
      <path d="M543.11,24.99c0,1.71-.25,2.73-1.27,3.35-.96,.59-2.29,.68-4.31,.68-.09-.96-.53-2.63-.99-3.57,1.12,.06,2.26,.03,2.64,.03s.53-.12,.53-.56v-6.14h-3.26c-.28,3.63-.9,7.44-2.17,10.26-.65-.53-2.17-1.4-2.98-1.71,1.92-4.22,2.05-10.42,2.05-14.95V1.15h9.77V24.99Zm-3.41-9.67v-3.75h-3.04v.84c0,.93,0,1.89-.03,2.92h3.07Zm-3.04-10.76v3.6h3.04v-3.6h-3.04Zm23.38,7.97c-.71,4.19-1.98,7.6-3.72,10.39,1.33,1.36,2.88,2.51,4.59,3.25-.74,.68-1.77,1.98-2.29,2.88-1.61-.9-3.1-2.05-4.4-3.38-1.18,1.3-2.54,2.42-4.06,3.32-.37-.71-1.15-1.8-1.83-2.48v2.54h-3.5V1.18h14.26V7.16c0,1.61-.34,2.48-1.64,2.98-1.21,.47-2.98,.47-5.33,.47-.16-.96-.65-2.2-1.08-3.1,1.55,.09,3.38,.09,3.88,.06,.5-.03,.65-.12,.65-.5v-2.48h-7.22v7.35h8.96l.56-.12,2.2,.71Zm-11.72,13.58c1.4-.78,2.64-1.86,3.78-3.16-1.52-2.26-2.67-4.87-3.6-7.69h-.19v10.85Zm3.32-10.85c.62,1.71,1.43,3.35,2.39,4.84,.84-1.46,1.52-3.1,2.02-4.84h-4.4Z" style="fill: #0d131a;"/>
      <path d="M590.11,4.34c-1.86,2.7-4.53,4.81-7.72,6.45,2.95,.65,6.29,1.02,9.89,1.18-.74,.81-1.58,2.26-2.05,3.22-4.74-.34-8.96-1.09-12.46-2.39-3.97,1.36-8.34,2.23-12.71,2.76-.25-.93-.87-2.39-1.43-3.22,3.38-.28,6.76-.81,9.86-1.61-1.21-.71-2.26-1.58-3.26-2.57-1.05,.74-2.2,1.49-3.5,2.14-.43-.87-1.46-2.26-2.14-2.85,4.37-1.98,7.26-4.77,8.84-7.41l3.75,.78c-.46,.74-.96,1.49-1.52,2.2h11.6l.53-.16,2.33,1.49Zm-.37,12.9s-.09,.99-.19,1.49c-.68,5.27-1.46,7.75-2.6,8.74-.9,.84-1.89,1.08-3.29,1.15-1.15,.06-3.13,.06-5.18-.03-.06-.96-.53-2.29-1.15-3.16,2.02,.19,4.25,.22,5.18,.22,.65,0,1.08-.03,1.49-.34,.62-.5,1.21-2.02,1.67-4.93h-8.28c-2.11,4.53-5.77,7.04-11.38,8.59-.37-.78-1.46-2.33-2.14-3.04,4.53-.93,7.66-2.6,9.46-5.55h-7.41v-3.13h8.77c.19-.84,.37-1.67,.5-2.64l3.81,.31c-.15,.84-.31,1.58-.53,2.33h11.26Zm-17.12-10.98c1.27,1.3,2.98,2.36,5.12,3.19,2.48-.9,4.65-2.02,6.36-3.38h-11.25l-.22,.19Z" style="fill: #0d131a;"/>
    </g>
  </g>
</svg>