<?xml version="1.0" encoding="UTF-8"?>
<svg id="b" data-name="圖層 2" xmlns="http://www.w3.org/2000/svg" width="616.73" height="28.93" viewBox="0 0 616.73 28.93">
  <g id="c" data-name="layout">
    <g>
      <path d="M0,26.23V3.13H4.78V12.44H15.41V3.13h4.78V26.23h-4.78v-9.47H4.78v9.47H0Z" style="fill: #0d131a;"/>
      <path d="M23,26.23L32.5,3.13h5.51l9.41,23.1h-5.18l-2.34-6.07h-9.54l-2.38,6.07h-4.98Zm8.84-9.9h6.6l-3.3-8.51-3.3,8.51Z" style="fill: #0d131a;"/>
      <path d="M50.19,26.23V3.13h4.55l11.48,14.92V3.13h4.49V26.23h-4.22l-11.78-15.44v15.44h-4.52Z" style="fill: #0d131a;"/>
      <path d="M75.73,26.23V3.13h8.88c1.74,0,3.34,.29,4.82,.87,1.47,.58,2.76,1.4,3.86,2.46,1.1,1.06,1.96,2.29,2.59,3.7,.63,1.41,.94,2.93,.94,4.55s-.31,3.17-.92,4.55c-.62,1.39-1.48,2.6-2.59,3.65s-2.4,1.86-3.88,2.44c-1.47,.58-3.08,.87-4.82,.87h-8.88Zm4.78-4.26h4.03c1.03,0,2-.18,2.89-.54,.89-.36,1.67-.87,2.34-1.53,.67-.66,1.19-1.43,1.55-2.31,.36-.88,.54-1.84,.54-2.87s-.19-2-.56-2.89c-.37-.89-.89-1.67-1.55-2.33-.66-.66-1.44-1.18-2.33-1.55-.89-.37-1.85-.56-2.89-.56h-4.03v14.59Z" style="fill: #0d131a;"/>
      <path d="M100.52,18.74v-3.83h12.41v3.83h-12.41Z" style="fill: #0d131a;"/>
      <path d="M117.18,26.23V3.13h6.14l6.34,12.44,6.34-12.44h6.14V26.23h-4.52V9.24l-8.02,15.34-7.99-15.41V26.23h-4.42Z" style="fill: #0d131a;"/>
      <path d="M144.9,26.23l9.5-23.1h5.51l9.41,23.1h-5.18l-2.34-6.07h-9.54l-2.38,6.07h-4.98Zm8.84-9.9h6.6l-3.3-8.51-3.3,8.51Z" style="fill: #0d131a;"/>
      <path d="M172.09,26.23V3.13h8.88c1.74,0,3.34,.29,4.82,.87,1.47,.58,2.76,1.4,3.86,2.46,1.1,1.06,1.96,2.29,2.59,3.7,.63,1.41,.94,2.93,.94,4.55s-.31,3.17-.92,4.55c-.62,1.39-1.48,2.6-2.59,3.65s-2.4,1.86-3.88,2.44c-1.47,.58-3.08,.87-4.82,.87h-8.88Zm4.78-4.26h4.03c1.03,0,2-.18,2.89-.54,.89-.36,1.67-.87,2.34-1.53,.67-.66,1.19-1.43,1.55-2.31,.36-.88,.54-1.84,.54-2.87s-.19-2-.56-2.89c-.37-.89-.89-1.67-1.55-2.33-.66-.66-1.44-1.18-2.33-1.55-.89-.37-1.85-.56-2.89-.56h-4.03v14.59Z" style="fill: #0d131a;"/>
      <path d="M197.27,26.23V3.13h17.75V7.29h-12.97v5.28h8.55v4.03h-8.55v5.48h13.1v4.16h-17.89Z" style="fill: #0d131a;"/>
      <path d="M224.63,26.23l9.5-23.1h5.51l9.41,23.1h-5.18l-2.34-6.07h-9.54l-2.38,6.07h-4.98Zm8.84-9.9h6.6l-3.3-8.51-3.3,8.51Z" style="fill: #0d131a;"/>
      <path d="M251.82,26.23V3.13h11.29c1.56,0,2.94,.3,4.14,.91,1.2,.61,2.14,1.45,2.82,2.52,.68,1.08,1.02,2.32,1.02,3.73s-.41,2.77-1.24,3.89c-.82,1.12-1.92,1.96-3.28,2.51l5.11,9.54h-5.35l-4.52-8.84h-5.21v8.84h-4.78Zm4.78-12.77h6.07c1.08,0,1.94-.29,2.59-.86s.97-1.32,.97-2.24-.32-1.67-.97-2.24c-.65-.57-1.51-.86-2.59-.86h-6.07v6.2Z" style="fill: #0d131a;"/>
      <path d="M281.12,26.23V7.35h-7.79V3.13h20.33V7.35h-7.75V26.23h-4.79Z" style="fill: #0d131a;"/>
      <path d="M297.16,26.23V3.13h4.78V26.23h-4.78Z" style="fill: #0d131a;"/>
      <path d="M315.21,26.56c-1.87,0-3.7-.35-5.48-1.04-1.78-.69-3.37-1.68-4.75-2.95l2.74-3.43c1.34,1.17,2.63,2.02,3.88,2.56,1.24,.54,2.56,.81,3.94,.81,.97,0,1.8-.12,2.51-.35,.7-.23,1.25-.57,1.63-1.01,.38-.44,.58-.96,.58-1.55,0-.79-.29-1.4-.86-1.83-.57-.43-1.55-.76-2.94-1.01l-4.59-.79c-1.96-.33-3.45-1.02-4.47-2.08-1.02-1.06-1.53-2.42-1.53-4.09,0-1.43,.37-2.67,1.11-3.73,.74-1.06,1.78-1.86,3.13-2.43,1.35-.56,2.96-.84,4.83-.84,1.69,0,3.38,.29,5.07,.86,1.68,.57,3.17,1.36,4.47,2.38l-2.57,3.56c-2.42-1.85-4.85-2.77-7.29-2.77-.86,0-1.61,.11-2.24,.33-.64,.22-1.13,.52-1.47,.91-.34,.38-.51,.84-.51,1.37,0,.7,.25,1.25,.76,1.63,.51,.38,1.35,.68,2.54,.87l4.36,.73c2.31,.38,4.04,1.11,5.18,2.2,1.14,1.09,1.72,2.52,1.72,4.31,0,1.5-.4,2.8-1.19,3.91-.79,1.11-1.92,1.97-3.38,2.57-1.46,.6-3.18,.91-5.16,.91Z" style="fill: #0d131a;"/>
      <path d="M326.07,26.23l9.5-23.1h5.51l9.41,23.1h-5.18l-2.34-6.07h-9.54l-2.38,6.07h-4.98Zm8.84-9.9h6.6l-3.3-8.51-3.3,8.51Z" style="fill: #0d131a;"/>
      <path d="M353.26,26.23V3.13h4.55l11.48,14.92V3.13h4.49V26.23h-4.22l-11.78-15.44v15.44h-4.52Z" style="fill: #0d131a;"/>
      <path d="M392.56,26.23V7.35h-7.79V3.13h20.33V7.35h-7.75V26.23h-4.79Z" style="fill: #0d131a;"/>
      <path d="M408.6,26.23V3.13h17.75V7.29h-12.97v5.28h8.55v4.03h-8.55v5.48h13.1v4.16h-17.89Z" style="fill: #0d131a;"/>
      <path d="M428.86,26.23l9.5-23.1h5.51l9.41,23.1h-5.18l-2.34-6.07h-9.54l-2.38,6.07h-4.98Zm8.84-9.9h6.6l-3.3-8.51-3.3,8.51Z" style="fill: #0d131a;"/>
      <path d="M503.85,22.97v5.95h-3.38v-5.33c-2.73,.47-5.33,.93-7.53,1.3l-.71-3.41,1.86-.25V4.46h-1.4V1.18h12.65v3.29h-1.49v15.25l1.61-.25,.22,3.16-1.83,.34Zm-6.42-18.51v3.22h3.04v-3.22h-3.04Zm0,9.52h3.04v-3.29h-3.04v3.29Zm3.04,6.29v-3.29h-3.04v3.75l3.04-.46Zm11.38-.34c-1.02,3.44-2.82,6.79-4.74,8.9-.68-.59-2.17-1.58-3.04-2.08,1.92-1.8,3.44-4.71,4.25-7.63l3.53,.81Zm8-3.29h-13.67V1.95h13.67v14.7Zm-3.66-11.19h-6.48v7.66h6.48V5.46Zm1.24,13.52c1.58,2.64,3.32,6.08,3.94,8.37l-3.5,1.4c-.53-2.23-2.17-5.83-3.69-8.56l3.26-1.21Z" style="fill: #0d131a;"/>
      <path d="M540.37,0c-.03,1.3-.09,2.98-.22,4.84,.43,4.19,2.33,15.88,13.15,20.65-1.15,.9-2.2,2.14-2.7,3.19-6.88-3.29-10.32-9.33-12.12-14.67-1.71,5.46-4.96,11.07-11.41,14.85-.65-.99-1.83-2.17-3.07-3.01,12.59-6.73,12-20.62,12.12-25.86h4.25Z" style="fill: #0d131a;"/>
      <path d="M566.56,9.74h6.79v3.32h-6.79v2.26h6.05v7.91c0,1.43-.22,2.29-1.12,2.82-.87,.53-2.05,.59-3.6,.56-.09-.93-.5-2.23-.9-3.13,.87,.06,1.61,.06,1.92,.03,.28,0,.37-.06,.37-.37v-4.53h-2.73v10.29h-3.5v-10.29h-2.54v7.84h-3.29V15.32h5.83v-2.26h-7.04v-3.32h2.33c-.81-.4-2.08-.93-2.79-1.18,1.27-1.95,2.29-5.08,2.85-8.03l3.38,.71c-.19,.96-.43,1.89-.71,2.82h1.98V.15h3.5v3.91h5.55v3.35h-5.55v2.33Zm-3.5,0v-2.33h-3.13c-.34,.87-.71,1.64-1.05,2.33h4.19Zm15.13,10.23h-3.44V2.51h3.44V19.97Zm5.64-19.47V24.56c0,1.98-.4,2.98-1.52,3.6-1.15,.59-2.95,.71-5.33,.71-.12-1.02-.62-2.64-1.08-3.72,1.58,.06,3.19,.06,3.72,.06,.5-.03,.68-.15,.68-.68V.5h3.53Z" style="fill: #0d131a;"/>
      <path d="M604.85,7.66c-.19,.28-.4,.56-.62,.84,2.95,2.33,7.88,4.37,12.5,5.33-.78,.74-1.8,2.14-2.33,3.04-4.34-1.18-8.93-3.47-12.25-6.23-3.19,2.95-7.53,4.99-12.43,6.36-.4-.87-1.49-2.36-2.17-3.04,6.02-1.4,11.41-4.03,14.01-7.6l3.29,1.3Zm-6.91,14.14c-1.61,2.54-4.31,4.87-6.73,6.29-.71-.65-2.23-1.8-3.13-2.36,2.45-1.12,4.87-3.04,6.14-5.02l3.72,1.09Zm-3.94-15.78h-5.83V2.7h5.83V0h3.72V2.7h3.54v3.32h-3.54v2.92h-3.72v-2.92Zm10.02,13.98v8.93h-3.84v-8.93h-8.56v-3.38h8.56v-3.16h3.84v3.16h8.19v3.38h-8.19Zm2.64-14.01h-4.03V2.7h4.03V0h3.72V2.7h5.58v3.29h-5.58v2.95h-3.72v-2.95Zm2.08,14.51c2.29,1.52,5.27,3.84,6.7,5.49l-3.07,2.11c-1.3-1.58-4.19-4.06-6.51-5.74l2.88-1.86Z" style="fill: #0d131a;"/>
    </g>
  </g>
</svg>