<?xml version="1.0" encoding="UTF-8"?>
<svg id="c" data-name="圖層 2" xmlns="http://www.w3.org/2000/svg" width="52.48" height="20.41" xmlns:xlink="http://www.w3.org/1999/xlink" viewBox="0 0 52.48 20.41">
  <defs>
    <style>
      .e {
        fill: #009265;
      }

      .f {
        fill: #0d131a;
      }
    </style>
    <symbol id="a" data-name="EXPRESS-6" viewBox="0 0 158.84 61.77">
      <g>
        <g>
          <path class="e" d="M46.39,61.46v-19.15c0-1.59,1.29-2.88,2.88-2.88h8.17c1.45,0,2.72,.29,3.82,.88,1.1,.59,1.97,1.4,2.6,2.44,.63,1.04,.94,2.24,.94,3.6s-.31,2.47-.94,3.49c-.63,1.03-1.5,1.84-2.61,2.42-1.11,.59-2.38,.88-3.81,.88h-6.48v8.31h-4.56Zm4.56-12.09h5.98c.99,0,1.78-.27,2.38-.82,.6-.55,.9-1.27,.9-2.17s-.3-1.66-.9-2.2c-.6-.55-1.39-.82-2.38-.82h-5.98v6.01Z"/>
          <path class="e" d="M124.66,61.77c-1.78,0-3.53-.33-5.22-.99-1.7-.66-3.21-1.6-4.53-2.82l2.61-3.27c1.28,1.13,2.51,1.95,3.7,2.45,1.19,.5,2.44,.76,3.76,.76,.92,0,1.72-.11,2.39-.33,.67-.22,1.19-.54,1.56-.96,.37-.42,.55-.91,.55-1.48,0-.76-.27-1.34-.82-1.75-.55-.41-1.48-.73-2.8-.96l-4.38-.76c-1.87-.31-3.29-.98-4.26-1.98-.98-1.01-1.46-2.31-1.46-3.9,0-1.36,.35-2.55,1.05-3.56,.7-1.01,1.7-1.78,2.99-2.31,1.29-.54,2.83-.8,4.61-.8,1.62,0,3.23,.27,4.83,.82,1.61,.55,3.03,1.3,4.26,2.27l-2.45,3.4c-2.31-1.76-4.63-2.64-6.96-2.64-.82,0-1.53,.11-2.14,.31-.61,.21-1.08,.5-1.4,.87-.33,.37-.49,.8-.49,1.31,0,.67,.24,1.19,.72,1.56,.48,.37,1.29,.65,2.42,.83l4.15,.69c2.2,.36,3.85,1.05,4.94,2.09,1.09,1.04,1.64,2.41,1.64,4.11,0,1.43-.38,2.67-1.13,3.73-.76,1.06-1.83,1.88-3.23,2.45-1.4,.58-3.04,.87-4.93,.87Z"/>
          <path class="e" d="M147.95,61.77c-1.78,0-3.53-.33-5.22-.99-1.7-.66-3.21-1.6-4.53-2.82l2.61-3.27c1.28,1.13,2.51,1.95,3.7,2.45,1.19,.5,2.44,.76,3.76,.76,.92,0,1.72-.11,2.39-.33,.67-.22,1.19-.54,1.56-.96,.37-.42,.55-.91,.55-1.48,0-.76-.27-1.34-.82-1.75-.55-.41-1.48-.73-2.8-.96l-4.38-.76c-1.87-.31-3.29-.98-4.26-1.98-.98-1.01-1.46-2.31-1.46-3.9,0-1.36,.35-2.55,1.05-3.56,.7-1.01,1.7-1.78,2.99-2.31,1.29-.54,2.83-.8,4.61-.8,1.62,0,3.23,.27,4.83,.82,1.61,.55,3.03,1.3,4.26,2.27l-2.45,3.4c-2.31-1.76-4.63-2.64-6.96-2.64-.82,0-1.53,.11-2.14,.31-.61,.21-1.08,.5-1.4,.87-.33,.37-.49,.8-.49,1.31,0,.67,.24,1.19,.72,1.56,.48,.37,1.29,.65,2.42,.83l4.15,.69c2.2,.36,3.85,1.05,4.94,2.09,1.09,1.04,1.64,2.41,1.64,4.11,0,1.43-.38,2.67-1.13,3.73-.76,1.06-1.83,1.88-3.23,2.46-1.4,.58-3.04,.87-4.93,.87Z"/>
          <polygon class="e" points="26.94 39.45 21.49 39.45 28.09 47.68 30.42 43.93 26.94 39.45"/>
          <path class="e" d="M16.89,43.51v-4.03H2.88c-1.59,0-2.88,1.29-2.88,2.88v16.18c0,1.59,1.29,2.88,2.88,2.88h14.01v-4.03H3.9l.05-4.97H15.7v-4.03H3.98l.05-4.88h12.86Z"/>
          <path class="e" d="M27.35,61.46l5.64-9.07c2.27,2.15,3.64,5.12,3.76,8.31,0,.26,0,.51,0,.77h4.32c0-.31,0-.62,0-.93-.18-4.63-2.29-8.91-5.76-11.87l5.73-9.21h-5.65l-13.71,22.01h5.67Z"/>
          <path class="e" d="M110.19,43.51v-4.03h-14.01c-1.59,0-2.88,1.29-2.88,2.88v16.18c0,1.59,1.29,2.88,2.88,2.88h14.01v-4.03h-12.99l.05-4.97h11.75v-4.03h-11.71l.05-4.88h12.86Z"/>
          <path class="e" d="M84.49,51.98c1.93-1.26,3.2-3.44,3.2-5.91h0c0-3.65-2.99-6.64-6.64-6.64h-8.89c-1.59,0-2.88,1.29-2.88,2.88v19.24l4.55-.05v-8.37h5.81c2.84,1.84,4.59,5.02,4.59,8.42h4.03c0-3.59-1.38-7-3.77-9.57Zm-10.66-8.53h6.46c1.5,0,2.79,1.22,2.79,2.71v.22c0,1.49-1.29,2.71-2.79,2.71h-6.46v-5.64Z"/>
        </g>
        <g>
          <polygon class="f" points="86.3 7.91 94.79 7.91 94.79 29.39 100.92 29.39 100.92 7.91 109.41 7.91 109.41 2.91 86.3 2.91 86.3 7.91"/>
          <path class="f" d="M52.66,6.26c-1.32-1.24-2.86-2.2-4.62-2.87-1.76-.67-3.69-1.01-5.8-1.01s-4.04,.34-5.8,1.03c-1.76,.68-3.3,1.65-4.62,2.89-1.32,1.24-2.34,2.69-3.06,4.35-.72,1.66-1.08,3.49-1.08,5.49s.36,3.8,1.08,5.48c.72,1.67,1.74,3.13,3.06,4.37,1.32,1.24,2.86,2.21,4.64,2.89,1.77,.68,3.71,1.03,5.82,1.03s4-.34,5.76-1.01c1.76-.67,3.3-1.63,4.62-2.87,1.32-1.24,2.34-2.71,3.06-4.39,.72-1.69,1.08-3.52,1.08-5.49s-.36-3.84-1.08-5.51c-.72-1.67-1.74-3.13-3.06-4.37Zm-2.72,13.33c-.42,1.03-1.01,1.93-1.77,2.7-.76,.77-1.64,1.37-2.64,1.79-1,.42-2.1,.63-3.29,.63s-2.29-.21-3.31-.63c-1.01-.42-1.89-1.01-2.64-1.79-.75-.77-1.33-1.67-1.75-2.7-.42-1.03-.63-2.17-.63-3.44s.21-2.41,.63-3.44c.42-1.03,1-1.93,1.75-2.7,.75-.77,1.63-1.37,2.64-1.79,1.01-.42,2.12-.63,3.31-.63s2.29,.21,3.29,.63c1,.42,1.88,1.01,2.64,1.79,.76,.77,1.35,1.67,1.77,2.7,.42,1.03,.63,2.17,.63,3.44s-.21,2.41-.63,3.44Z"/>
          <rect class="f" x="61.61" y="2.91" width="6.16" height="26.47"/>
          <path class="f" d="M124.52,8.64c-2.04,0-3.92,.65-5.46,1.74V2.91h-5.91V29.39h5.91v-11.34c0-2.49,2.02-4.51,4.51-4.51s4.51,2.02,4.51,4.51v.06h0v11.28h5.91v-11.28c0-5.23-4.24-9.46-9.46-9.46Z"/>
          <path class="f" d="M16.75,14.54L25.1,2.91h-7.04l-7.08,9.86c-1.02-.14-2.1-.22-3.26-.22-.56,0-1.1,.02-1.62,.06V2.91H0V29.39H6.09v-11.79c.53-.06,1.07-.09,1.62-.09,6.26,0,11.05,3.91,11.05,11.88h6.2c0-5.15-2.03-11.64-8.21-14.85Z"/>
          <path class="f" d="M158.81,15.99c-.35-3.96-3.71-7.68-10.69-7.33-6.84,.34-10.82,4.76-10.82,10.63,0,.58,.04,1.14,.12,1.69,.2,1.37,.64,2.63,1.33,3.78,.97,1.6,2.34,2.86,4.1,3.78,1.76,.92,3.82,1.38,6.17,1.38,1.86,0,3.51-.29,4.94-.86,1.43-.58,2.62-1.4,3.56-2.47l-3.18-3.45c-.69,.67-1.45,1.16-2.28,1.5-.83,.33-1.78,.5-2.86,.5-1.25,0-2.33-.22-3.22-.67-.89-.45-1.6-1.09-2.11-1.94-.28-.46-.48-.98-.6-1.54h11.05c3.46,0,4.72-2.24,4.48-4.98Zm-6.27,1.27h-9.29s.69-3.86,5.17-4.18c3.51-.24,5.1,1.28,5.42,2.29,.28,.88,.08,1.88-1.31,1.88Z"/>
          <path class="f" d="M145.18,5.09s-.1,.1-.13,.13c-.04,.06-.07,.13-.02,.15,.05,.02,.15,.04,.24,.04,.07,0,.15-.04,.23-.05,.08,0,.15-.02,.23-.03,.08-.01,.15-.03,.22-.04,.08-.01,.15-.01,.23-.03,.07-.01,.16,0,.23-.02,.08-.01,.15-.02,.23-.03,.06,0,.13-.1,.2-.12,.07-.02,.18,0,.21,.11,.01,.04-.04,.11-.03,.16,0,.05,.02,.08-.01,.13-.03,.04-.04,.07-.12,.1-.05,.02-.11,.04-.17,.05-.06,.01-.12,.04-.07,.1,.05,.09,.12,.08,.19,.07,.07-.02,.16-.03,.22-.04,.07-.01,.12-.09,.19-.1s.14-.01,.21-.02c.07-.01,.15,.02,.22,0,.07,0,.13-.06,.2-.07,.07,0,.14,0,.21-.01,.07,0,.15,.03,.22,.02,.07,0,.14,0,.21,0,.07,0,.14-.05,.21-.06,.07,0,.14-.02,.21-.02,.07,0,.14-.03,.21-.03,.07,0,.14,0,.21-.01,.07,0,.14-.02,.21-.02,.07,0,.14,.03,.22,.03,.07,0,.14-.01,.21-.01,.07,0,.14,.04,.21,.04,.07,0,.14-.01,.21-.01,.07,0,.14-.05,.21-.05,.07,0,.14,.04,.21,.04,.07,0,.15,0,.22,0,.07,0,.14-.04,.22-.05,.07,0,.15,0,.22,0,.07,0,.14-.07,.21-.08,.07-.01,.14-.02,.21-.04,.07-.01,.14-.04,.21-.06,.07-.02,.14-.03,.21-.05,.07-.02,.14-.05,.21-.07,.07-.02,.13-.05,.2-.08,.07-.02,.15,0,.22-.02,.07-.03,.13-.07,.2-.1,.07-.03,.16,0,.22-.04,.07-.03,.13-.08,.19-.11,.07-.03,.12-.08,.19-.11,.07-.03,.14-.05,.21-.08,.06-.04,.14-.06,.2-.1,.06-.04,.08-.16,.14-.2,.06-.04,.19,.01,.25-.03,.07-.04,.13-.07,.2-.11,.07-.04,.12-.1,.19-.14,.07-.04,.11-.12,.18-.16,.07-.04,.14-.08,.2-.12,.06-.05,.16-.06,.22-.11,.06-.05,.07-.17,.12-.23,.05-.06,.08-.13,.13-.2,.04-.07,.09-.15,.13-.22,.04-.08,.13-.13,.17-.21,.03-.08-.02-.18,0-.27,.02-.08,.07-.15,.06-.21,0-.08-.03-.14-.07-.19-.04-.05-.1-.07-.16-.1-.06-.03-.12-.05-.18-.07-.06-.03-.11-.08-.16-.11-.09-.05-.16-.07-.2-.03-.05,.04-.12,.12-.15,.2-.03,.08-.02,.14-.08,.18-.05,.04-.06,.15-.12,.2-.05,.04-.18,.01-.19,0,0,0,.01-.11,.04-.18,.03-.07,.02-.15,.06-.22,.03-.07,.14-.12,.16-.18,.02-.07-.01-.15-.01-.22,0-.07-.03-.11-.07-.17-.03-.05-.07-.08-.13-.12-.05-.03-.07-.11-.14-.13-.07-.03-.02-.06,.01-.13,.03-.06,.05-.13,.07-.19,.03-.06-.03-.13-.07-.2-.03-.05-.03-.14-.07-.19-.04-.05-.07-.12-.11-.16-.05-.05-.15-.03-.2-.07-.06-.06-.1-.11-.13-.13-.08-.06-.14-.05-.17,0-.04,.06-.03,.18-.08,.2-.07,.03-.15,.03-.23,.07-.07,.04-.13,.11-.2,.15-.07,.04-.14,.07-.21,.11-.07,.04-.14,.08-.21,.13-.07,.05-.1,.13-.17,.18-.06,.05-.17,.04-.23,.09-.06,.05-.13,.09-.19,.15-.06,.05-.08,.16-.14,.21-.06,.05-.14,.08-.2,.13-.06,.05-.11,.12-.18,.16-.05,.04-.16,0-.23,.03-.06,.03-.12,.06-.19,.09-.06,.02-.13,.03-.2,.05-.07,.02-.13,.07-.19,.09-.08,.03-.16,.06-.24,.1-.08,.04-.13,.11-.21,.15-.07,.04-.18,.02-.25,.05-.07,.03-.13,.15-.21,.17-.07,.02-.15,.02-.22,.04-.07,.02-.15,.02-.22,.04-.07,.02-.14,.05-.21,.07-.07,.02-.15,0-.23,.02-.07,.02-.13,.11-.2,.13-.07,.02-.16-.01-.23,0-.07,.02-.14,.07-.21,.09-.07,.02-.15,.03-.22,.05-.07,.02-.14,.06-.21,.08-.07,.02-.14,.04-.22,.06-.07,.02-.14,.07-.21,.09-.07,.02-.15,0-.22,.03-.07,.02-.14,.06-.21,.08-.07,.02-.14,.04-.22,.06-.07,.02-.15,.02-.22,.04-.07,.02-.15,0-.23,.02-.07,.02-.15,.03-.22,.05-.07,.02-.13,.07-.2,.1-.07,.02-.13,.08-.2,.1-.07,.02-.16,.02-.22,.04-.07,.03-.13,.06-.2,.09-.07,.03-.12,.07-.19,.1-.07,.03-.16,.02-.22,.05-.06,.03-.15,.05-.21,.08-.06,.03-.09,.09-.15,.13-.06,.03-.09,.08-.15,.12-.06,.04-.13,.06-.19,.09-.05,.03-.11,.06-.17,.07-.06,.02-.13,.03-.19,.05-.05,.02-.06,.06-.09,.1-.02,.04-.01,.07,0,.12,0,.04,0,.07,.03,.11,.02,.04,.01,.08,.05,.12,.03,.03,.05,.08,.09,.11,.04,.03,.1,.06,.15,.08,.05,.02,.15,0,.21,.02,.06,.02,.1,.05,.16,.07,.06,.01,.21,.04,.21,.04Z"/>
        </g>
      </g>
    </symbol>
  </defs>
  <g id="d" data-name="layout">
    <use width="158.84" height="61.77" transform="scale(.33)" xlink:href="#a"/>
  </g>
</svg>