<?xml version="1.0" encoding="UTF-8"?>
<svg id="_層_2" data-name="圖層 2" xmlns="http://www.w3.org/2000/svg" width="113.33" height="51.33" viewBox="0 0 113.33 51.33">
  <defs>
    <style>
      .cls-1 {
        fill: #ea5504;
      }
    </style>
  </defs>
  <g id="_層_3" data-name="圖層 3">
    <g>
      <path class="cls-1" d="M15.8,50.65c-1.97,.71-3.93,.87-5.88,.48-1.95-.38-3.79-1.3-5.51-2.74-1.72-1.44-2.94-3.09-3.67-4.95C0,41.57-.18,39.62,.18,37.57h1.84c-.27,1.74-.09,3.4,.55,4.99,.64,1.59,1.7,3,3.17,4.23,1.46,1.22,3.03,2.01,4.72,2.37s3.35,.24,5.01-.34l.33,1.83Z"/>
      <path class="cls-1" d="M9.95,29.95l-3.26,2.68-.81-.99,3.26-2.68-.93-1.13,1.11-.91,.93,1.13,1.98-1.62,.81,.99-1.98,1.62,.88,1.07-1.11,.91-.88-1.07Zm10.73-5.78c-2.42,3.13-6.91,7.38-10.77,10.68-.26-.25-.75-.6-1.05-.77,3.76-3.27,8.19-7.43,10.2-10.06l1.62,.14Zm-6.46,12.24c-.75-.47-2.11-.96-3.25-1.19l.61-1.18c1.18,.17,2.54,.63,3.3,1.09l-.66,1.27Zm7.23-2.96c2.4,.21,5.47-.46,7.94-1.65-.06,.46-.06,1.19,.04,1.62-2.66,1.07-6.04,1.6-8.77,1.14l3.26,3.97-1.17,.96-3.17-3.86c-.19,2.77-1.3,5.98-2.74,8.36-.44-.16-1.12-.29-1.57-.34,1.49-2.18,2.71-5.15,3.02-7.61l-5.18,4.25-.84-1.02,6.15-5.05-.96-1.17,1.17-.96,.96,1.17,6.29-5.17,.84,1.02-5.27,4.33Zm-5.31-8.61l-2.23,1.83-.81-.99,2.23-1.83-.91-1.11,1.1-.9,.91,1.11,3.04-2.5,.81,.99-3.04,2.5,.8,.97-1.1,.9-.8-.97Zm1.51,7.98c-.62-.53-1.78-1.13-2.8-1.48l.75-1.13c1.01,.28,2.18,.85,2.81,1.37l-.76,1.25Zm4.3-7.52c.22,1.53,.41,3.34,.43,4.59l-1.23,.33c-.06-1.27-.37-3.16-.7-4.42l1.5-.51Z"/>
      <path class="cls-1" d="M45.85,21.17l-7.28,3.73,1.62,3.17-1.33,.68-1.62-3.17-7.18,3.67-.63-1.23,7.18-3.67-.87-1.69-5.5,2.81-3.62-7.09,3.28-1.68c-.76-.51-1.97-1.17-2.98-1.57l.83-1.1c1.16,.42,2.53,1.09,3.26,1.63l-.54,.75,4.29-2.2c.19-1.17,.28-2.79,.25-3.9l1.65-.24c-.09,1.1-.25,2.36-.42,3.39l2.97-1.52,3.63,7.09-5.75,2.94,.87,1.69,7.28-3.73,.63,1.23Zm-16.41-.46l4.2-2.15-.96-1.87-4.2,2.15,.96,1.87Zm5.72,.82l-.97-1.91-4.2,2.15,.98,1.91,4.2-2.15Zm3.27-7.79l-4.42,2.26,.96,1.87,4.42-2.26-.96-1.87Zm1.5,2.94l-4.42,2.26,.97,1.91,4.42-2.26-.98-1.91Z"/>
      <path class="cls-1" d="M48.35,9.21c-.68-.6-2.02-1.45-3.12-1.98l.75-.99c1.09,.5,2.45,1.27,3.15,1.85l-.78,1.12Zm.79,5.11c-.72-.53-2.15-1.22-3.3-1.66l.68-1.07c1.12,.38,2.56,1.03,3.3,1.56l-.68,1.18Zm2.08,2.03c-.21,2.07-.56,4.56-.95,6.43l-1.4-.43c.38-1.59,.83-4.24,1.06-6.48l1.29,.48Zm1.58-9l3.75-1.01,.35,1.29-1.26,.34c.26,2.27,.34,4.34,.24,6.27,1.36,1.27,2.54,2.53,3.28,3.57l-.94,1.12c-.6-.85-1.48-1.88-2.52-2.91-.32,2.28-1.01,4.35-2.16,6.13-.27-.22-.91-.61-1.28-.77,1.31-1.84,2-4.06,2.23-6.58-1.16-1.1-2.43-2.21-3.63-3.12l.84-.95c.94,.72,1.92,1.51,2.89,2.35,.02-1.48-.06-3.09-.26-4.75l-4.44,1.19-.35-1.29,3.25-.87c-.46-.62-1.28-1.6-2-2.3l1.05-.8c.71,.66,1.61,1.6,2.07,2.22l-1.07,.87Zm8.52,8.6l-1.26,.34-3.06-11.4,1.26-.34,3.06,11.4Zm-.43-14.32l4.31,16.03c.21,.79,.12,1.21-.28,1.57-.43,.34-1.17,.58-2.41,.92-.15-.33-.5-.84-.77-1.16,.87-.21,1.67-.43,1.89-.51,.25-.07,.33-.17,.25-.44L59.58,1.99l1.31-.35Z"/>
      <path class="cls-1" d="M69.84,7.19l-1.44,.09-.35-5.59,1.44-.09,.35,5.59Zm13.15,9.2c.76-.05,.9-.32,.85-2.12,.35,.2,.95,.38,1.35,.46-.04,2.25-.45,2.81-2,2.91l-3.47,.21c-1.94,.12-2.46-.23-2.55-1.64l-.19-3.13c-.33,1.84-1.94,3.97-7.88,5.78-.2-.33-.65-.86-1.01-1.14,7.13-1.98,7.51-4.25,7.41-5.85l-.09-1.54,1.52-.09,.1,1.58c.02,.4,.01,.82-.06,1.27l1.5-.09,.19,3.11c.03,.48,.19,.55,1.13,.49l3.21-.2Zm-11.07-1.74l-1.46,.09-.39-6.31,12.31-.76,.38,6.19-1.52,.09-.3-4.87-9.34,.58,.31,4.99Zm2.11-7.06l-1.46,.09-.44-7.17,1.46-.09,.44,7.17Zm3.88-4.25c-.44,1.33-.99,2.51-1.59,3.42-.29-.18-.94-.54-1.3-.68,1.11-1.53,1.89-3.82,2.29-6.09l1.45,.19c-.12,.59-.27,1.22-.43,1.79l6.01-.37,.08,1.34-6.51,.4Zm2.04,.23c1.09,.85,2.29,2.08,2.87,2.93l-1.28,.74c-.54-.89-1.74-2.18-2.81-3.07l1.22-.6Z"/>
      <path class="cls-1" d="M100.22,6.28l3.88,5.55-4.98,4.37c-.58,.5-1.1,.72-1.56,.67-.37-.04-.71-.22-1-.54-.35-.28-.49-.65-.44-1.11,.05-.46,.24-.82,.55-1.07l1.66-1.5-8.38-.99c-.42-.05-.75-.23-1-.54-.29-.36-.38-.78-.28-1.24,.09-.37,.26-.65,.53-.86,.31-.25,.68-.37,1.11-.37l8.38,.99-1.21-1.7c-.28-.46-.39-.87-.35-1.24,.09-.37,.32-.69,.68-.98,.3-.15,.62-.26,.96-.31,.56,.02,1.05,.31,1.45,.88Z"/>
      <path class="cls-1" d="M110.03,3.91c1.48,1.47,2.47,3.18,2.96,5.11,.49,1.93,.46,3.98-.11,6.15-.56,2.17-1.53,3.99-2.9,5.44-1.37,1.46-3.06,2.46-5.07,3.02l-.8-1.66c1.69-.5,3.12-1.38,4.28-2.64,1.16-1.26,1.98-2.82,2.46-4.68,.48-1.84,.52-3.6,.12-5.28s-1.22-3.13-2.46-4.38l1.51-1.09Z"/>
    </g>
  </g>
</svg>