<?xml version="1.0" encoding="UTF-8"?>
<svg id="_層_2" data-name="圖層 2" xmlns="http://www.w3.org/2000/svg" width="112.12" height="52.08" viewBox="0 0 112.12 52.08">
  <defs>
    <style>
      .cls-1 {
        fill: #ea5504;
      }
    </style>
  </defs>
  <g id="_層_3" data-name="圖層 3">
    <g>
      <path class="cls-1" d="M17.82,50.48c-1.8,1.07-3.69,1.6-5.68,1.59s-3.97-.55-5.93-1.64c-1.96-1.09-3.48-2.47-4.55-4.16-1.07-1.69-1.62-3.58-1.66-5.66l1.81-.36c.06,1.76,.56,3.36,1.49,4.8,.93,1.44,2.24,2.62,3.92,3.55,1.67,.92,3.36,1.4,5.08,1.43s3.33-.4,4.85-1.29l.68,1.73Z"/>
      <path class="cls-1" d="M11.05,25.43c3.29,.58,7.61-.04,10.75-1.4,0,.42,.11,1.21,.24,1.62-3.12,1.19-7.17,1.68-10.54,1.33,.42,3.23,.07,7.61-.79,10.67-.4-.13-1.04-.19-1.5-.17,.88-2.59,1.32-6.31,1.1-9.26l-2.47,2.57-1.01-.97,4.21-4.38Zm11.35,11.02l5.4-5.62,.98,.94-11.71,12.18-.98-.94,5.25-5.46-2.39-2.3-3.88,4.04-.95-.91,3.88-4.04-2.21-2.12-3.28,3.42-.97-.93,7.73-8.05,.97,.93-3.39,3.53,2.21,2.12,3.93-4.09,.95,.91-3.93,4.1,2.39,2.3Z"/>
      <path class="cls-1" d="M34.02,24.42c-1.6,1.69-3.3,3.49-4.58,4.89l-.98-1.1c.53-.53,1.19-1.19,1.92-1.94l-2.68-4.8-1.96,1.09-.68-1.22,1.96-1.09-2.12-3.79-2.1,1.17-.68-1.22,5.33-2.97,.68,1.22-2.01,1.12,2.12,3.79,1.76-.98,.68,1.22-1.76,.99,2.48,4.44,1.77-1.88,.86,1.08Zm6.28-12.07c-.21,1.76-.55,3.95-.94,5.45,1.73,1.26,3.57,1.92,5.88,2.15-.17,.39-.31,.97-.28,1.44-2.77-.36-4.92-1.26-6.97-3.01l2.73,4.89c.44,.79,.43,1.27,.08,1.74-.37,.53-1.14,1-2.5,1.76-.26-.31-.79-.75-1.17-.99,1.03-.53,1.91-1.05,2.18-1.19,.27-.17,.33-.32,.16-.62l-2.3-4.12c-.62,2.25-1.31,4.51-1.87,6.29l-1.43-.67c.64-1.64,1.61-4.43,2.5-7.06l-2.54-4.54-4.23,2.36-.67-1.21,4.23-2.36-1.69-3.02,1.26-.7,1.69,3.02,4.58-2.55,.67,1.21-4.58,2.55,.35,.63c1.01,1.27,1.94,2.33,2.89,3.17,.28-1.46,.48-3.29,.5-4.61l1.48-.02Zm-8.84,4.27c1.32,.57,2.9,1.45,3.71,2.17l-.78,1.1c-.8-.7-2.36-1.64-3.67-2.23l.75-1.04Zm5.72-6.49c-.74-.34-2.06-.66-3.13-.77l.37-1.1c1.04,.11,2.38,.37,3.11,.65l-.35,1.22Z"/>
      <path class="cls-1" d="M49.17,13.88l1.24,5.48c.18,.8,.09,1.21-.34,1.55-.4,.34-1.12,.56-2.36,.82-.14-.34-.45-.88-.73-1.25,.84-.17,1.62-.35,1.84-.4,.23-.05,.31-.15,.25-.45l-1.14-5.01c-.76,.46-1.48,.87-2.14,1.24l-.67-1.3c.67-.38,1.53-.86,2.48-1.38l-.97-4.27-2.42,.55-.3-1.35,2.42-.55-.88-3.9,1.34-.31,.89,3.9,2.2-.5,.31,1.35-2.2,.5,.88,3.86,1.88-1.1,.5,1.28-2.06,1.23Zm9.33-3.45l.54,2.4,3.74-.85,1.38,6.1-1.33,.3-.16-.72-5.99,1.36,.18,.8-1.27,.29-1.4-6.18,3.45-.78-.54-2.4-3.84,.87c.48,2.93,.7,6.32-.4,9.09-.3-.22-.99-.49-1.36-.55,1.33-3.44,.55-7.71-.15-10.79l-1.33-5.85,10.22-2.32,1.14,5.01-3.67,.83,.49,2.14,4.33-.98,.28,1.25-4.33,.98Zm-6.77-5.97l.56,2.48,7.43-1.69-.56-2.48-7.43,1.69Zm5.1,5.04l-.49-2.14-3.76,.85,.19,.84c.1,.43,.19,.84,.28,1.31l3.78-.86Zm4.91,4.01l-5.99,1.36,.67,2.94,5.99-1.36-.67-2.94Z"/>
      <path class="cls-1" d="M65.82,17.31c1.09-.86,2.16-2.43,2.86-3.88l1.39,.41c-.71,1.54-1.79,3.18-2.91,4.18l-1.34-.71Zm15.93-4.64l-13.29-.46,.22-6.36,5.74,.2,.21-6.06,1.48,.05-.07,2.14,7.56,.26-.05,1.4-7.56-.26-.09,2.52,6.08,.21-.22,6.36Zm-1.33-5.01l-10.38-.36-.12,3.56,10.37,.36,.12-3.56Zm-7.14,6.34c.22,1.27,.38,2.92,.37,3.88l-1.49,.15c.03-1-.09-2.67-.3-3.95l1.42-.07Zm4.02-.02c.58,1.22,1.16,2.86,1.37,3.87l-1.45,.29c-.17-.99-.71-2.67-1.27-3.91l1.35-.25Zm4.03-.24c.98,1.29,2.06,2.99,2.52,4.13l-1.42,.51c-.42-1.12-1.46-2.87-2.42-4.19l1.32-.46Z"/>
      <path class="cls-1" d="M99.79,9.58l2.88,6.13-5.65,3.46c-.65,.39-1.21,.52-1.66,.39-.36-.11-.66-.34-.89-.7-.29-.33-.37-.72-.24-1.17,.13-.45,.37-.77,.72-.96l1.89-1.2-8.09-2.4c-.4-.12-.7-.35-.89-.7-.22-.41-.24-.83-.07-1.27,.15-.35,.37-.6,.66-.76,.35-.19,.73-.25,1.15-.17l8.09,2.4-.91-1.88c-.2-.5-.24-.93-.13-1.29,.15-.35,.43-.63,.84-.85,.32-.1,.66-.15,1-.14,.55,.12,.98,.49,1.28,1.11Z"/>
      <path class="cls-1" d="M110.39,9.46c1.11,1.77,1.69,3.65,1.73,5.64,.04,1.99-.45,3.98-1.49,5.97-1.04,1.99-2.39,3.54-4.05,4.65-1.66,1.11-3.54,1.71-5.62,1.79l-.4-1.8c1.76-.11,3.35-.64,4.76-1.61,1.41-.97,2.57-2.3,3.46-4,.88-1.69,1.32-3.4,1.31-5.11-.01-1.72-.48-3.32-1.41-4.82l1.71-.72Z"/>
    </g>
  </g>
</svg>