<?xml version="1.0" encoding="UTF-8"?>
<svg id="_層_2" data-name="圖層 2" xmlns="http://www.w3.org/2000/svg" width="42.9" height="27.96" viewBox="0 0 42.9 27.96">
  <defs>
    <style>
      .cls-1 {
        fill: #f4ddbe;
      }
    </style>
  </defs>
  <g id="_層_3" data-name="圖層 3">
    <g>
      <path class="cls-1" d="M3.24,23.58c-1.9-2.24-2.85-4.62-3.24-7.22l.9-.26c.39,2.48,1.55,4.8,3.21,6.74,1.65,1.94,3.76,3.48,6.13,4.25l-.39,.86c-2.51-.82-4.7-2.13-6.61-4.38Z"/>
      <path class="cls-1" d="M8.72,12.21l-2.78,1.52-.46-.84,2.78-1.52-.53-.96,.95-.52,.53,.96,1.68-.92,.46,.84-1.68,.92,.5,.91-.95,.52-.5-.91Zm8.71-2.78c-2.22,1.97-6.11,4.48-9.42,6.38-.16-.22-.47-.55-.67-.71,3.22-1.89,7.07-4.34,8.91-6l1.17,.33Zm-6.46,8.13c-.49-.45-1.42-1-2.23-1.32l.61-.78c.84,.29,1.78,.82,2.28,1.26l-.67,.84Zm5.74-1.18c1.74,.48,4.1,.42,6.08-.12-.11,.33-.21,.87-.2,1.2-2.11,.42-4.67,.34-6.62-.37l1.85,3.38-1,.55-1.8-3.29c-.52,2.01-1.79,4.23-3.18,5.78-.3-.18-.79-.37-1.11-.47,1.4-1.4,2.71-3.42,3.28-5.19l-4.41,2.42-.48-.87,5.24-2.87-.55-1,1-.55,.55,1,5.35-2.94,.48,.87-4.49,2.46Zm-2.72-7.08l-1.89,1.04-.46-.84,1.89-1.04-.52-.95,.93-.51,.52,.95,2.59-1.42,.46,.84-2.59,1.42,.46,.83-.93,.51-.46-.83Zm0,6.09c-.38-.48-1.16-1.08-1.86-1.48l.71-.73c.71,.35,1.49,.93,1.88,1.4l-.73,.81Zm4.22-4.95c-.05,1.16-.16,2.52-.32,3.44l-.95,.08c.13-.95,.16-2.38,.09-3.35l1.18-.17Z"/>
      <path class="cls-1" d="M36.49,10.98l-5.92,1.61,.7,2.58-1.08,.3-.7-2.58-5.83,1.59-.27-1,5.83-1.59-.37-1.37-4.47,1.22-1.57-5.76,2.66-.72c-.48-.49-1.26-1.16-1.95-1.61l.78-.68c.78,.49,1.69,1.19,2.14,1.7l-.51,.46,3.49-.95c.32-.83,.63-2.01,.79-2.82l1.25,.08c-.23,.79-.55,1.69-.83,2.42l2.42-.66,1.57,5.76-4.67,1.27,.37,1.37,5.92-1.61,.27,1Zm-11.97-2.87l3.41-.93-.41-1.52-3.41,.93,.41,1.52Zm4.07,1.49l-.42-1.55-3.41,.93,.42,1.55,3.41-.93Zm3.6-5.21l-3.59,.98,.41,1.52,3.59-.98-.41-1.52Zm.65,2.39l-3.59,.98,.42,1.55,3.59-.98-.42-1.55Z"/>
      <path class="cls-1" d="M40.47,14.84c1.08-2.24,1.47-4.83,1.23-7.37-.24-2.54-1.11-4.99-2.59-7l.8-.47c1.6,2.09,2.65,4.44,2.93,7.36,.28,2.94-.31,5.43-1.49,7.8l-.88-.32Z"/>
    </g>
  </g>
</svg>