<?xml version="1.0" encoding="UTF-8"?>
<svg id="_層_2" data-name="圖層 2" xmlns="http://www.w3.org/2000/svg" width="44.61" height="18.94" viewBox="0 0 44.61 18.94">
  <defs>
    <style>
      .cls-1 {
        fill: #f4ddbe;
      }
    </style>
  </defs>
  <g id="_層_3" data-name="圖層 3">
    <g>
      <path class="cls-1" d="M1.26,12.9C.05,10.22-.2,7.67,.14,5.07h.94c-.31,2.5,.17,5.04,1.21,7.37s2.65,4.38,4.71,5.79l-.61,.72c-2.18-1.48-3.93-3.35-5.14-6.04Z"/>
      <path class="cls-1" d="M10.71,9.56l.74,4.15c.11,.61,.03,.91-.31,1.15-.31,.24-.86,.38-1.79,.53-.09-.26-.3-.68-.51-.96,.64-.1,1.23-.21,1.39-.23,.18-.03,.24-.1,.2-.33l-.68-3.8c-.58,.32-1.14,.6-1.65,.86l-.45-1c.52-.26,1.17-.59,1.9-.95l-.58-3.23-1.83,.33-.18-1.02,1.83-.33-.53-2.95,1.02-.18,.53,2.95,1.67-.3,.18,1.02-1.67,.3,.52,2.92,1.45-.76,.33,.98-1.59,.85Zm7.11-2.26l.32,1.82,2.84-.51,.83,4.62-1,.18-.1-.55-4.53,.81,.11,.61-.96,.17-.84-4.68,2.62-.47-.33-1.82-2.91,.52c.26,2.21,.3,4.76-.61,6.8-.21-.18-.73-.4-1-.46,1.12-2.53,.68-5.76,.26-8.09l-.79-4.43L19.46,.43l.68,3.8-2.78,.5,.29,1.62,3.28-.59,.17,.95-3.28,.59ZM12.95,2.59l.33,1.88,5.63-1.01-.34-1.88-5.63,1.01Zm3.65,3.95l-.29-1.62-2.85,.51,.11,.63c.06,.33,.11,.64,.16,.99l2.87-.51Zm3.54,3.18l-4.53,.81,.4,2.23,4.53-.81-.4-2.23Z"/>
      <path class="cls-1" d="M23.15,12.71c.84-.61,1.69-1.75,2.25-2.83l1.03,.35c-.58,1.13-1.43,2.33-2.3,3.05l-.98-.57Zm12.07-3.01l-9.94-.73,.35-4.76,4.29,.32,.33-4.53,1.11,.08-.12,1.6,5.65,.42-.08,1.05-5.65-.42-.14,1.88,4.55,.33-.35,4.76Zm-.85-3.79l-7.76-.57-.2,2.66,7.76,.57,.2-2.66Zm-5.54,4.54c.12,.96,.2,2.2,.16,2.91l-1.12,.07c.05-.75,.01-2-.11-2.97h1.07Zm3.01,.09c.4,.93,.79,2.18,.91,2.94l-1.1,.17c-.1-.74-.45-2.02-.83-2.96l1.02-.15Zm3.03-.06c.69,1,1.45,2.3,1.77,3.17l-1.08,.34c-.28-.85-1.01-2.19-1.69-3.21l1-.3Z"/>
      <path class="cls-1" d="M38.93,16.54c1.86-1.66,3.21-3.89,3.96-6.33,.75-2.44,.89-5.03,.29-7.46l.92-.13c.68,2.55,.75,5.11-.12,7.92-.87,2.82-2.37,4.89-4.36,6.63l-.68-.63Z"/>
    </g>
  </g>
</svg>