<?xml version="1.0" encoding="UTF-8"?>
<svg id="b" data-name="圖層 2" xmlns="http://www.w3.org/2000/svg" width="63.02" height="38.07" viewBox="0 0 63.02 38.07">
  <g id="c" data-name="menu">
    <g>
      <path d="M12.67,34.27c-.54,1.11-1.3,1.99-2.28,2.64-.98,.65-2.13,1.03-3.46,1.13-1.32,.11-2.52-.08-3.6-.57-1.08-.48-1.97-1.23-2.66-2.24l.77-.77c.61,.85,1.37,1.47,2.3,1.88,.93,.4,1.96,.56,3.09,.47,1.12-.09,2.11-.41,2.97-.96,.86-.55,1.51-1.29,1.97-2.22l.9,.63Z" style="fill: #f4ddbe;"/>
      <path d="M1.72,25.84l-.93,2.58-.78-.28,.93-2.58-.89-.32,.32-.88,.89,.32,.57-1.56,.78,.28-.57,1.56,.84,.31-.32,.88-.84-.31Zm1.76-4.91l-.64,1.76-.78-.28,.64-1.76-.88-.32,.31-.87,.88,.32,.87-2.41,.78,.28-.87,2.41,.77,.28-.31,.87-.77-.28Zm2.31-1.89c-.32,2.55-1.41,6.42-2.47,9.54-.23-.06-.62-.09-.84-.08,1.02-3.07,2.11-6.87,2.36-9l.95-.46Zm.45,8.98c-.58-.01-1.5,.16-2.21,.42l-.05-.86c.71-.29,1.63-.49,2.21-.49l.05,.93Zm.72-3.14c-.52-.09-1.37-.04-2.05,.1l.04-.88c.66-.18,1.5-.25,2.02-.17v.95Zm2.32-.91c1.41-.68,2.91-2.07,3.89-3.56,.12,.28,.36,.68,.56,.89-1.13,1.48-2.85,2.9-4.52,3.55l3.14,1.14-.34,.93-3.06-1.11c.81,1.61,1.26,3.77,1.24,5.58-.3,.06-.72,.21-.99,.33,.11-1.72-.2-3.78-.84-5.25l-1.48,4.09-.81-.29,1.76-4.86-.93-.34,.34-.93,.93,.34,1.8-4.97,.81,.29-1.51,4.17Zm-2.42-4.72c.63,.78,1.34,1.73,1.76,2.42l-.57,.59c-.46-.69-1.26-1.64-1.86-2.24l.67-.78Z" style="fill: #fbe0bc;"/>
      <path d="M21.94,11.87l-4.17,3.3,1.44,1.81-.76,.61-1.44-1.81-4.11,3.25-.56-.7,4.11-3.25-.77-.97-3.15,2.49-3.21-4.06,1.88-1.49c-.55-.23-1.4-.5-2.1-.62l.39-.81c.79,.12,1.75,.37,2.29,.63l-.25,.54,2.46-1.95c-.03-.77-.18-1.82-.34-2.52l1.02-.36c.08,.71,.14,1.53,.16,2.21l1.7-1.35,3.21,4.06-3.29,2.61,.77,.97,4.17-3.3,.56,.7Zm-10.52,1.8l2.41-1.91-.85-1.07-2.41,1.9,.85,1.07Zm3.75-.2l-.86-1.09-2.41,1.91,.86,1.09,2.41-1.9Zm1.1-5.38l-2.53,2,.85,1.07,2.53-2-.85-1.07Zm1.33,1.68l-2.53,2,.86,1.09,2.53-2-.86-1.09Z" style="fill: #fbe0bc;"/>
      <path d="M25.99,1.66l.83-.22-.54,13.21-.84,.22,.55-13.21Z" style="fill: #fbe0bc;"/>
      <path d="M34.26,7.06l-.3,3.64c-.04,.53-.18,.77-.52,.9-.31,.13-.81,.13-1.62,.05-.02-.24-.1-.63-.21-.92,.56,.06,1.07,.1,1.22,.11,.16,.01,.22-.03,.24-.23l.27-3.33c-.56,.14-1.09,.25-1.57,.35l-.16-.94c.49-.1,1.11-.23,1.8-.37l.23-2.84-1.61-.13,.07-.89,1.61,.13,.21-2.59,.89,.07-.21,2.59,1.46,.12-.07,.89-1.46-.12-.21,2.57,1.38-.32,.06,.89-1.52,.36Zm6.46-.32l-.13,1.59,2.49,.21-.33,4.05-.88-.07,.04-.48-3.98-.33-.04,.53-.84-.07,.34-4.11,2.29,.19,.13-1.59-2.55-.21c-.27,1.91-.8,4.06-2.02,5.56-.14-.19-.52-.5-.73-.61,1.5-1.87,1.85-4.67,2.01-6.72l.32-3.89,6.79,.56-.27,3.33-2.44-.2-.12,1.43,2.88,.24-.07,.83-2.88-.24Zm-.85-.91l.12-1.43-2.5-.21-.05,.56c-.02,.28-.05,.56-.08,.87l2.51,.21Zm-2.18-4.12l-.14,1.65,4.94,.41,.14-1.65-4.94-.41Zm4.44,7.57l-3.98-.33-.16,1.96,3.98,.33,.16-1.96Z" style="fill: #fbe0bc;"/>
      <path d="M43.57,12.28c.89-.14,2-.68,2.86-1.28l.65,.68c-.9,.64-2.03,1.22-2.99,1.43l-.53-.83Zm10.49,2.49l-7.37-4.53,2.16-3.52,3.18,1.95,2.06-3.36,.82,.5-.73,1.19,4.19,2.57-.48,.78-4.19-2.57-.86,1.4,3.37,2.07-2.16,3.52Zm-5.21-1.97c-.28,.79-.72,1.77-1.04,2.31l-.89-.39c.34-.55,.81-1.53,1.1-2.33l.83,.42Zm6.07-1.29l-5.75-3.53-1.21,1.97,5.75,3.53,1.21-1.97Zm-3.79,2.57c-.06,.88-.26,1.99-.47,2.63l-.91-.3c.22-.61,.46-1.73,.54-2.61l.84,.29Zm2.36,1.16c.14,1.04,.2,2.35,.1,3.14l-.97-.17c.12-.77,.1-2.09-.02-3.14l.89,.17Z" style="fill: #fbe0bc;"/>
      <path d="M63.02,15.58c.05,1.23-.21,2.37-.78,3.4-.57,1.03-1.41,1.9-2.53,2.62-1.12,.71-2.27,1.11-3.45,1.18s-2.31-.17-3.4-.74l.33-1.04c.93,.46,1.9,.66,2.91,.58,1.01-.08,1.99-.42,2.95-1.03,.95-.6,1.68-1.35,2.18-2.23,.5-.88,.74-1.84,.7-2.88l1.09,.14Z" style="fill: #f4ddbe;"/>
    </g>
  </g>
</svg>