<?xml version="1.0" encoding="UTF-8"?>
<svg id="b" data-name="圖層 2" xmlns="http://www.w3.org/2000/svg" width="89.19" height="84.33" xmlns:xlink="http://www.w3.org/1999/xlink" viewBox="0 0 89.19 84.33">
  <defs>
    <style>
      .e {
        fill: #e8b78a;
      }

      .f {
        fill: #f4ddbe;
      }

      .g {
        fill: #fce9d4;
      }

      .h {
        clip-path: url(#d);
      }

      .i {
        fill: #f18a00;
      }

      .j {
        fill: none;
      }

      .k {
        fill: #2e2a26;
      }

      .l {
        fill: #2d2a26;
      }
    </style>
    <clipPath id="d">
      <path class="j" d="M89.19,42.15c0,6.06-1.12,11.68-3.31,16.84-2.22,5.17-5.34,9.66-9.37,13.46-4.05,3.81-8.77,6.72-14.15,8.79-5.4,2.06-11.29,3.09-17.65,3.09s-12.38-1.04-17.82-3.14c-5.43-2.1-10.17-5.06-14.2-8.86-4.03-3.79-7.16-8.26-9.37-13.39-2.22-5.13-3.31-10.72-3.31-16.78s1.1-11.74,3.31-16.82c2.22-5.09,5.34-9.54,9.37-13.35,4.03-3.79,8.75-6.74,14.15-8.84,5.4-2.1,11.32-3.14,17.76-3.14s12.37,1.02,17.76,3.09c5.38,2.06,10.09,4.98,14.15,8.79,4.03,3.81,7.16,8.28,9.37,13.41,2.2,5.11,3.31,10.76,3.31,16.87Z"/>
    </clipPath>
  </defs>
  <g id="c" data-name="layout">
    <g>
      <g>
        <path class="k" d="M89.19,42.15c0,6.06-1.12,11.68-3.31,16.84-2.22,5.17-5.34,9.66-9.37,13.46-4.05,3.81-8.77,6.72-14.15,8.79-5.4,2.06-11.29,3.09-17.65,3.09s-12.38-1.04-17.82-3.14c-5.43-2.1-10.17-5.06-14.2-8.86-4.03-3.79-7.16-8.26-9.37-13.39-2.22-5.13-3.31-10.72-3.31-16.78s1.1-11.74,3.31-16.82c2.22-5.09,5.34-9.54,9.37-13.35,4.03-3.79,8.75-6.74,14.15-8.84,5.4-2.1,11.32-3.14,17.76-3.14s12.37,1.02,17.76,3.09c5.38,2.06,10.09,4.98,14.15,8.79,4.03,3.81,7.16,8.28,9.37,13.41,2.2,5.11,3.31,10.76,3.31,16.87Z"/>
        <g class="h">
          <g>
            <path class="e" d="M74.7,39.94c.05,.03-.04-.04,0,0,.62-.65,1.11-1.46,1.42-2.43,1.27-3.88-1.25-7.27-5.3-8.59-2.73-.89-5.47-.61-7.34,.87-.9,.71-1.6,1.69-2.01,2.94-.24,.75-.35,1.48-.33,2.19h.01c-5.41-.76-11.29-.39-17.26,1.12-5.98,1.51-11.33,4-15.73,7.24-.32-.63-.76-1.22-1.32-1.76-.96-.91-2.04-1.44-3.16-1.64-2.35-.41-4.89,.64-6.87,2.72-2.93,3.08-3.54,7.26-.59,10.07,.73,.7,1.55,1.18,2.4,1.46,.04-.07-.99,2.04-1.42,3.22-1.79,4.91-2.13,10.4-.66,16.23,4.55,18.01,22.93,25.54,42.05,20.71,19.12-4.83,31.73-20.17,27.19-38.19-1.82-7.23-5.7-12.56-11.11-16.16Z"/>
            <g>
              <g>
                <path class="i" d="M73.39,36.65c.79-2.43-.78-4.55-3.31-5.37-1.71-.56-3.42-.38-4.59,.54-.56,.44-1,1.06-1.26,1.84-.2,.62-.25,1.22-.17,1.79,2.91,.65,5.66,1.65,8.16,2.99,.52-.45,.93-1.04,1.17-1.79Z"/>
                <path class="i" d="M18.18,50.58c-1.85-1.76-1.47-4.38,.37-6.3,1.24-1.3,2.83-1.96,4.3-1.7,.7,.12,1.38,.45,1.98,1.02,.47,.45,.8,.95,1,1.49-2.26,1.95-4.2,4.13-5.76,6.5-.67-.15-1.31-.48-1.88-1.02Z"/>
              </g>
              <path class="g" d="M42.37,74.64c-.66,1.61-.82,3.4-.34,5.28,1.47,5.83,7.86,8.15,14.59,6.45,6.73-1.7,11.25-6.78,9.78-12.6-1.47-5.83-7.81-7.94-14.54-6.24-4.55,1.15-8.12,3.75-9.49,7.11"/>
              <path class="l" d="M55.21,81.33c-.36,.03-.71-.2-.8-.57l-1.31-4.96c-.11-.41,.14-.83,.55-.94,.41-.11,.83,.14,.94,.55l1.31,4.96c.11,.41-.14,.83-.55,.94-.04,.01-.09,.02-.13,.02Z"/>
              <path class="l" d="M56.45,72.71c.33,1.31-.78,2.72-2.48,3.15-1.7,.43-3.34-.29-3.68-1.6-.33-1.31,.78-2.72,2.48-3.15,1.7-.43,3.34,.29,3.68,1.6Z"/>
              <path class="l" d="M63.51,62.31c-1.02,.26-1.64,1.3-1.38,2.31,.26,1.02,1.3,1.64,2.31,1.38,1.02-.26,1.64-1.3,1.38-2.31-.26-1.02-1.3-1.64-2.32-1.38Z"/>
              <path class="l" d="M37.76,70.76c.26,1.02,1.29,1.64,2.31,1.38,1.02-.26,1.64-1.29,1.38-2.31-.26-1.02-1.29-1.64-2.31-1.38-1.02,.26-1.64,1.29-1.38,2.31Z"/>
            </g>
          </g>
        </g>
      </g>
      <g>
        <path class="f" d="M33.03,28.13c-1.21-2.68-1.46-5.23-1.12-7.84h.94c-.31,2.5,.17,5.04,1.21,7.37s2.65,4.38,4.71,5.79l-.61,.72c-2.18-1.48-3.93-3.35-5.14-6.04Z"/>
        <path class="f" d="M42.48,24.79l.74,4.15c.11,.61,.03,.91-.31,1.15-.31,.24-.86,.38-1.79,.53-.09-.26-.3-.68-.51-.96,.64-.1,1.23-.21,1.39-.23,.18-.03,.24-.1,.2-.33l-.68-3.8c-.58,.32-1.14,.6-1.65,.86l-.45-1c.52-.26,1.17-.59,1.9-.95l-.58-3.23-1.83,.33-.18-1.02,1.83-.33-.53-2.95,1.02-.18,.53,2.95,1.67-.3,.18,1.02-1.67,.3,.52,2.92,1.45-.76,.33,.98-1.59,.85Zm7.11-2.26l.32,1.82,2.84-.51,.83,4.62-1,.18-.1-.55-4.53,.81,.11,.61-.96,.17-.84-4.68,2.62-.47-.33-1.82-2.91,.52c.26,2.21,.3,4.76-.61,6.8-.21-.18-.73-.4-1-.46,1.12-2.53,.68-5.76,.26-8.09l-.79-4.43,7.74-1.38,.68,3.8-2.78,.5,.29,1.62,3.28-.59,.17,.95-3.28,.59Zm-4.87-4.71l.33,1.88,5.63-1.01-.34-1.88-5.63,1.01Zm3.65,3.95l-.29-1.62-2.85,.51,.11,.63c.06,.33,.11,.64,.16,.99l2.87-.51Zm3.54,3.18l-4.53,.81,.4,2.23,4.53-.81-.4-2.23Z"/>
        <path class="f" d="M54.92,27.94c.84-.61,1.69-1.75,2.25-2.83l1.03,.35c-.58,1.13-1.43,2.33-2.3,3.05l-.98-.57Zm12.07-3.01l-9.94-.73,.35-4.76,4.29,.32,.33-4.53,1.11,.08-.12,1.6,5.65,.42-.08,1.05-5.65-.42-.14,1.88,4.55,.33-.35,4.76Zm-.85-3.79l-7.76-.57-.2,2.66,7.76,.57,.2-2.66Zm-5.54,4.54c.12,.96,.2,2.2,.16,2.91l-1.12,.07c.05-.75,.01-2-.11-2.97h1.07Zm3.01,.09c.4,.93,.79,2.18,.91,2.94l-1.1,.17c-.1-.74-.45-2.02-.83-2.96l1.02-.15Zm3.03-.06c.69,1,1.45,2.3,1.77,3.17l-1.08,.34c-.28-.85-1.01-2.19-1.69-3.21l1-.3Z"/>
        <path class="f" d="M70.7,31.77c1.86-1.66,3.21-3.89,3.96-6.33,.75-2.44,.89-5.03,.29-7.46l.92-.13c.68,2.55,.75,5.11-.12,7.92-.87,2.82-2.37,4.89-4.36,6.63l-.68-.63Z"/>
      </g>
      <g>
        <path class="f" d="M10.61,24.61c-1.9-2.24-2.85-4.62-3.24-7.22l.9-.26c.39,2.48,1.55,4.8,3.21,6.74,1.65,1.94,3.76,3.48,6.13,4.25l-.39,.86c-2.51-.82-4.7-2.13-6.61-4.38Z"/>
        <path class="f" d="M16.1,13.25l-2.78,1.52-.46-.84,2.78-1.52-.53-.96,.95-.52,.53,.96,1.68-.92,.46,.84-1.68,.92,.5,.91-.95,.52-.5-.91Zm8.71-2.78c-2.22,1.97-6.11,4.48-9.42,6.38-.16-.22-.47-.55-.67-.71,3.22-1.89,7.07-4.34,8.91-6l1.17,.33Zm-6.46,8.13c-.49-.45-1.42-1-2.23-1.33l.61-.78c.84,.29,1.78,.82,2.28,1.26l-.67,.84Zm5.74-1.18c1.74,.48,4.1,.42,6.08-.12-.11,.33-.21,.87-.2,1.2-2.11,.42-4.67,.34-6.62-.37l1.85,3.38-1,.55-1.8-3.29c-.52,2.01-1.79,4.23-3.18,5.78-.3-.18-.79-.37-1.11-.47,1.4-1.4,2.71-3.42,3.28-5.19l-4.41,2.42-.48-.87,5.24-2.87-.55-1,1-.55,.55,1,5.35-2.94,.48,.87-4.49,2.46Zm-2.72-7.08l-1.89,1.04-.46-.84,1.89-1.04-.52-.95,.93-.51,.52,.95,2.59-1.42,.46,.84-2.59,1.42,.46,.83-.93,.51-.46-.83Zm0,6.09c-.38-.48-1.16-1.08-1.86-1.48l.71-.73c.71,.35,1.49,.93,1.88,1.4l-.73,.81Zm4.22-4.95c-.05,1.16-.16,2.52-.32,3.44l-.95,.08c.13-.95,.16-2.38,.09-3.35l1.18-.17Z"/>
        <path class="f" d="M43.86,12.01l-5.92,1.61,.7,2.57-1.08,.29-.7-2.57-5.83,1.59-.27-1,5.83-1.59-.37-1.38-4.47,1.22-1.57-5.76,2.66-.72c-.48-.49-1.26-1.16-1.95-1.61l.78-.68c.78,.49,1.69,1.19,2.14,1.7l-.51,.46,3.49-.95c.32-.83,.63-2.01,.79-2.82l1.25,.08c-.23,.79-.55,1.69-.83,2.42l2.42-.66,1.57,5.76-4.67,1.27,.37,1.37,5.92-1.61,.27,1Zm-11.97-2.86l3.41-.93-.41-1.52-3.41,.93,.41,1.52Zm4.07,1.49l-.42-1.55-3.41,.93,.42,1.55,3.41-.93Zm3.6-5.21l-3.59,.98,.41,1.52,3.59-.98-.41-1.52Zm.65,2.39l-3.59,.98,.42,1.55,3.59-.98-.42-1.55Z"/>
        <path class="f" d="M47.84,15.87c1.08-2.24,1.47-4.83,1.23-7.37-.24-2.54-1.11-4.99-2.59-7l.8-.47c1.6,2.09,2.65,4.44,2.93,7.36,.28,2.94-.31,5.43-1.49,7.8l-.88-.32Z"/>
      </g>
    </g>
  </g>
</svg>