<?xml version="1.0" encoding="UTF-8"?>
<svg id="b" data-name="圖層 2" xmlns="http://www.w3.org/2000/svg" width="374.94" height="456.43" viewBox="0 0 374.94 456.43">
  <defs>
    <style>
      .d {
        fill: #0c1219;
      }

      .e {
        fill: #ea5504;
      }
    </style>
  </defs>
  <g id="c" data-name="圖層 1">
    <g>
      <path class="e" d="M309.32,0H0V254.08c24.31,36.26,54.26,69.62,89.75,98.74,83.76,68.74,184.66,102.71,285.19,103.61V65.04c-14.29,.02-28.69-4.61-40.77-14.17-16.18-12.82-24.68-31.72-24.85-50.87Z"/>
      <g>
        <path class="d" d="M91.22,316.12c-.17-.59-.18-1.2-.03-1.81s.45-1.14,.9-1.6,.97-.79,1.57-.97,1.2-.19,1.81-.04c.61,.14,1.14,.45,1.62,.9,.48,.46,.8,.98,.98,1.58s.19,1.19,.03,1.79-.45,1.13-.9,1.6c-.45,.47-.98,.8-1.58,.97-.61,.18-1.2,.19-1.81,.04-.61-.14-1.14-.45-1.61-.9s-.79-.97-.97-1.58v.02Zm2.69,1.93c.51,.12,1.01,.1,1.52-.05,.5-.15,.95-.43,1.33-.82s.64-.85,.77-1.35c.13-.5,.12-1-.02-1.49-.14-.5-.42-.94-.81-1.33-.41-.39-.86-.64-1.37-.76s-1.01-.11-1.52,.04-.94,.42-1.32,.83c-.38,.4-.64,.85-.77,1.36s-.12,1.01,.02,1.51,.41,.95,.81,1.33,.85,.64,1.36,.75h0Zm-1.24-2.31c-.11-.35-.13-.69-.04-1.04s.26-.66,.54-.95c.28-.28,.58-.47,.93-.57,.34-.1,.69-.1,1.05,0,.35,.09,.67,.28,.97,.57,.27,.25,.46,.55,.56,.85,.1,.31,.12,.62,.05,.92l-.86-.16c.08-.38-.03-.72-.34-1.02-.23-.23-.5-.33-.82-.33s-.58,.14-.83,.4-.37,.54-.37,.85c0,.3,.13,.57,.37,.8,.31,.3,.65,.39,1.03,.3l.21,.84c-.3,.09-.63,.09-.94,0-.32-.09-.61-.26-.88-.52-.3-.28-.49-.59-.61-.94h0Z"/>
        <path class="d" d="M101.29,324.67l-.74,.81-3.79-3.5,.59-.64,3.84-.05c.43,0,.76-.06,1-.15,.23-.09,.42-.22,.57-.37,.22-.24,.31-.5,.27-.77s-.22-.56-.54-.85c-.52-.49-1.1-.68-1.7-.57l-.19-1.13c.45-.09,.91-.05,1.4,.12,.47,.16,.92,.44,1.35,.83,.56,.51,.88,1.05,.97,1.63s-.07,1.09-.49,1.54c-.26,.28-.55,.49-.9,.63s-.82,.21-1.45,.22l-2.58,.05,2.43,2.23h0Z"/>
        <path class="d" d="M102.04,326.39c-.14-.5-.12-1.04,.06-1.62,.17-.57,.51-1.14,1-1.69,.5-.55,1.02-.95,1.58-1.19s1.09-.31,1.6-.23,.98,.31,1.4,.68,.7,.81,.84,1.32c.14,.51,.12,1.04-.05,1.63s-.51,1.14-1,1.69c-.5,.55-1.02,.95-1.58,1.19s-1.09,.31-1.61,.23c-.52-.08-.99-.31-1.41-.69s-.7-.81-.84-1.32h.01Zm2.88,.8c.49-.11,1.02-.48,1.56-1.09,.55-.61,.85-1.17,.91-1.67s-.1-.92-.47-1.26c-.36-.33-.79-.44-1.29-.32s-1.02,.48-1.56,1.09c-.55,.61-.85,1.17-.91,1.67s.1,.92,.46,1.25c.37,.34,.8,.44,1.3,.33Z"/>
        <path class="d" d="M109.98,332.37l-.73,.83-3.89-3.39,.57-.66,3.83-.17c.44-.02,.77-.08,1-.17s.42-.23,.56-.39c.21-.25,.29-.51,.25-.79s-.23-.55-.56-.83c-.54-.47-1.11-.64-1.72-.53l-.22-1.13c.45-.1,.92-.07,1.39,.08s.94,.42,1.37,.79c.57,.5,.91,1.04,1.01,1.6s-.04,1.08-.45,1.56c-.25,.28-.55,.51-.89,.65-.34,.15-.82,.23-1.44,.26l-2.58,.11,2.49,2.17h0Z"/>
        <path class="d" d="M115.18,336.14l-.95-.8-1.04,1.21-.96-.81,1.03-1.21-2.93-2.48,.58-.68,5.55-1.21,1.06,.9-5.26,1.18,1.74,1.48,.92-1.08,.93,.79-.92,1.08,.95,.8-.72,.84h.02Z"/>
        <path class="d" d="M120.17,338.5l-1.58,.18-1.13,1.39-1.01-.82,4.41-5.43,1.01,.82-2.27,2.79,4.95-.6,1.14,.92-4.25,.57-.02,4.97-1.18-.96-.07-3.83h0Z"/>
        <path class="d" d="M122.86,343.96c-.26-.6-.35-1.21-.27-1.85s.33-1.22,.76-1.75,.93-.91,1.53-1.14c.59-.23,1.21-.29,1.86-.19,.64,.11,1.24,.38,1.8,.83s.97,.96,1.23,1.56c.26,.6,.35,1.21,.27,1.85s-.33,1.22-.76,1.76-.93,.92-1.53,1.15c-.59,.23-1.21,.28-1.86,.18-.64-.11-1.24-.38-1.8-.83s-.97-.96-1.23-1.56h0Zm3.12,1.18c.43,.06,.83,.01,1.24-.15s.75-.43,1.03-.8,.47-.77,.53-1.19c.06-.43,.01-.83-.15-1.24s-.43-.74-.8-1.02c-.37-.29-.76-.47-1.18-.53s-.83-.02-1.24,.15-.75,.43-1.03,.8c-.29,.37-.47,.77-.53,1.19-.06,.43-.01,.84,.15,1.24s.43,.74,.79,1.02c.37,.29,.76,.47,1.18,.53h0Z"/>
        <path class="d" d="M132.16,342.79l1.03,.79-4.26,5.55-1.03-.79,4.26-5.55Z"/>
        <path class="d" d="M136.63,347.56l-1.87-1.39,.65-.89,4.78,3.54-.65,.89-1.87-1.39-3.51,4.74-1.04-.77,3.51-4.74h0Z"/>
        <path class="d" d="M142.97,353.52c.1,.56-.07,1.15-.53,1.78l-1.78,2.48-1.02-.73,1.7-2.35c.27-.38,.39-.73,.35-1.05s-.23-.6-.55-.83c-.37-.27-.75-.37-1.12-.3-.38,.06-.72,.31-1.03,.74l-1.58,2.19-1.02-.73,4.33-6.02,1.02,.73-1.58,2.19c.3-.05,.6-.05,.91,.04s.63,.24,.92,.45c.55,.39,.87,.87,.97,1.43v-.03Z"/>
        <path class="d" d="M147.05,359.48l-3.43-2.39c-.17,.36-.19,.73-.06,1.09s.37,.68,.75,.95c.48,.33,.99,.45,1.52,.36l.11,1.01c-.36,.1-.73,.1-1.12,.01-.38-.09-.76-.26-1.14-.53-.48-.34-.84-.73-1.07-1.18-.24-.45-.33-.91-.29-1.4,.04-.48,.21-.94,.51-1.37,.29-.43,.67-.74,1.09-.95s.89-.28,1.37-.24c.48,.06,.93,.22,1.37,.53,.43,.29,.75,.66,.95,1.08s.29,.87,.23,1.35-.24,.94-.54,1.38c-.05,.07-.12,.17-.23,.29h0Zm-2.01-3.57c-.37,.04-.68,.2-.96,.49l2.49,1.74c.17-.35,.23-.7,.13-1.05-.09-.35-.29-.64-.63-.88-.32-.23-.68-.32-1.03-.29h0Zm3.17-1.93l1.21,.84-2.21,.13-.88-.62,1.89-.35h0Z"/>
        <path class="d" d="M153.12,364.36l-2.92-1.94-1.47,.97-1.12-.74,6.5-4.07,1.06,.71-1.26,7.57-1.13-.75,.31-1.73v-.02Zm.22-1.08l.6-3.28-2.79,1.81,2.19,1.46h0Z"/>
        <path class="d" d="M158.13,361.21l1.09,.71-3.21,4.96,3.07,1.99-.6,.92-4.16-2.7,3.79-5.88h0Z"/>
        <path class="d" d="M162.75,364.19l1.1,.69-3.14,5,3.1,1.94-.59,.94-4.2-2.64,3.72-5.93h0Z"/>
        <path class="d" d="M169.66,376.64l-.17-2.49c-.06-.03-.13-.07-.24-.13l-1.35-.81-1.05,1.75-1.12-.67,3.6-6.01,2.47,1.48c.52,.31,.93,.67,1.21,1.07,.28,.41,.43,.83,.45,1.27s-.11,.88-.37,1.32c-.27,.45-.61,.77-1.03,.97-.42,.19-.88,.25-1.38,.16l.2,2.81-1.2-.72h-.02Zm2.44-5c-.13-.36-.44-.68-.92-.97l-1.3-.78-1.43,2.39,1.3,.78c.49,.29,.92,.4,1.3,.35s.68-.28,.91-.66c.23-.39,.28-.75,.16-1.11h0Z"/>
        <path class="d" d="M175.19,371.77l1.12,.65-3.53,6.05-1.12-.65,3.53-6.05Z"/>
        <path class="d" d="M179.99,378.47l1.07,.6-1.38,2.43c-.45,.08-.93,.06-1.42-.05-.49-.1-.96-.28-1.4-.53-.62-.36-1.1-.81-1.45-1.36s-.52-1.15-.54-1.79,.15-1.25,.49-1.85,.78-1.05,1.34-1.37,1.15-.46,1.82-.44c.65,.02,1.3,.2,1.92,.56,.51,.29,.93,.64,1.25,1.04,.32,.4,.53,.85,.63,1.34l-1.1,.29c-.2-.73-.63-1.28-1.28-1.65-.43-.24-.86-.37-1.29-.38-.43-.01-.84,.1-1.22,.31s-.68,.53-.91,.96c-.23,.4-.34,.82-.34,1.26,0,.43,.12,.83,.35,1.21,.23,.37,.55,.68,.97,.93,.47,.27,.95,.4,1.43,.4l1.08-1.89h-.03Z"/>
        <path class="d" d="M189.23,379.65l-3.35,6.15-1.14-.62,1.44-2.63-3.18-1.73-1.44,2.63-1.14-.62,3.35-6.15,1.14,.62-1.38,2.54,3.18,1.73,1.38-2.54,1.14,.62Z"/>
        <path class="d" d="M191.17,381.91l-2.05-1.08,.51-.98,5.26,2.76-.51,.98-2.05-1.08-2.74,5.23-1.16-.6,2.74-5.23Z"/>
        <path class="d" d="M192.68,389.21c-.38-.37-.65-.72-.79-1.08l.86-.7c.15,.33,.38,.65,.69,.97s.65,.57,1.03,.76c.46,.24,.85,.34,1.15,.3,.31-.03,.51-.17,.65-.41,.09-.18,.1-.36,.04-.54s-.19-.36-.35-.52c-.16-.16-.4-.38-.69-.63-.42-.35-.74-.67-.98-.93-.24-.26-.39-.56-.49-.92-.09-.34-.03-.73,.18-1.14,.17-.34,.43-.61,.76-.79s.73-.26,1.19-.25,.97,.18,1.52,.46c.38,.2,.73,.43,1.05,.71s.57,.58,.75,.9l-.82,.72c-.2-.3-.41-.56-.67-.8-.25-.23-.52-.43-.81-.56-.45-.24-.84-.32-1.13-.29-.3,.04-.52,.19-.65,.44-.09,.18-.1,.36-.02,.53,.07,.18,.19,.35,.35,.52,.16,.16,.39,.38,.69,.63,.41,.34,.74,.64,.98,.92,.24,.27,.4,.57,.49,.92,.09,.34,.03,.72-.17,1.13-.17,.34-.43,.61-.75,.79-.32,.18-.73,.26-1.19,.24-.46-.03-.98-.18-1.52-.46-.48-.24-.91-.54-1.29-.91h-.03Z"/>
        <path class="d" d="M203.57,394.74l-.39-2.47c-.06-.02-.14-.06-.25-.11l-1.43-.69-.89,1.84-1.17-.57,3.04-6.31,2.6,1.25c.54,.27,.98,.58,1.29,.95,.32,.37,.51,.79,.56,1.23,.06,.44-.03,.89-.26,1.36-.23,.48-.54,.83-.93,1.05s-.85,.33-1.36,.29l.46,2.78-1.27-.61h0Zm1.99-5.2c-.16-.34-.5-.64-1.01-.89l-1.37-.66-1.21,2.51,1.37,.66c.51,.24,.95,.33,1.32,.23,.37-.1,.66-.34,.85-.74s.22-.78,.06-1.12h0Z"/>
        <path class="d" d="M210.88,396.94l-.45,.99-4.77-2.21,2.94-6.35,4.63,2.15-.45,.99-3.46-1.6-.77,1.65,3.07,1.42-.45,.97-3.07-1.42-.81,1.75,3.59,1.66h0Z"/>
        <path class="d" d="M211.97,398.49c-.4-.34-.68-.7-.84-1.04l.83-.74c.17,.32,.42,.64,.74,.94s.67,.54,1.06,.7c.48,.21,.86,.3,1.17,.24,.3-.04,.51-.2,.62-.45,.08-.18,.08-.36,0-.54-.08-.18-.2-.35-.37-.5-.17-.15-.41-.35-.72-.59-.43-.34-.78-.63-1.03-.87-.25-.25-.43-.55-.54-.89-.11-.35-.06-.72,.12-1.14,.15-.35,.4-.63,.72-.84,.32-.2,.71-.31,1.18-.3s.97,.12,1.54,.38c.39,.18,.75,.39,1.09,.66,.33,.26,.6,.55,.79,.85l-.79,.76c-.21-.29-.45-.55-.71-.76-.26-.22-.55-.4-.83-.53-.47-.21-.85-.29-1.15-.23s-.51,.22-.62,.48c-.08,.18-.08,.36,0,.53,.08,.17,.2,.34,.37,.5,.17,.15,.41,.35,.72,.59,.42,.32,.76,.61,1.01,.86s.44,.56,.54,.89,.07,.71-.12,1.13c-.15,.35-.4,.63-.72,.83s-.71,.3-1.18,.3c-.46,0-.98-.12-1.54-.38-.5-.22-.94-.5-1.34-.85h0Z"/>
        <path class="d" d="M221.96,401.81l-.43,1.01-4.82-2.07,2.76-6.43,4.7,2.02-.43,1.01-3.5-1.51-.72,1.68,3.1,1.34-.42,.99-3.1-1.34-.76,1.77,3.63,1.55h0Z"/>
        <path class="d" d="M226.73,404.95l-.55-2.44c-.06,0-.15-.05-.25-.09l-1.46-.6-.78,1.89-1.2-.49,2.66-6.48,2.67,1.09c.56,.23,1.01,.53,1.35,.88s.55,.75,.63,1.19c.08,.43,.02,.89-.17,1.37-.2,.49-.49,.86-.87,1.11s-.83,.37-1.34,.37l.61,2.73-1.3-.53h0Zm1.67-5.31c-.18-.33-.53-.61-1.06-.82l-1.4-.57-1.06,2.58,1.41,.58c.53,.22,.96,.27,1.33,.16,.37-.12,.63-.38,.8-.79s.17-.79-.01-1.12h0Z"/>
        <path class="d" d="M237.39,401.63l-5.4,5.4-1.19-.47-.3-7.63,1.32,.51,.2,5.88,4.16-4.17,1.21,.47h0Z"/>
        <path class="d" d="M240.44,409.07l-.38,1.02-4.91-1.84,2.45-6.55,4.79,1.79-.39,1.02-3.56-1.33-.64,1.7,3.17,1.18-.37,1-3.17-1.18-.68,1.81,3.7,1.39v-.02Z"/>
        <path class="d" d="M243.35,403.85l2.89,1.03c.71,.25,1.28,.61,1.73,1.08s.73,1.01,.86,1.62c.13,.61,.07,1.24-.16,1.89s-.59,1.18-1.07,1.57-1.04,.63-1.69,.71-1.32-.01-2.02-.25l-2.89-1.03,2.35-6.59v-.03Zm.85,6.56c.48,.17,.94,.23,1.38,.17,.43-.06,.81-.21,1.13-.49,.33-.27,.56-.64,.72-1.09,.17-.45,.2-.88,.13-1.29-.08-.41-.27-.78-.57-1.1-.3-.32-.7-.56-1.18-.73l-1.6-.57-1.61,4.52,1.6,.57h0Z"/>
        <path class="d" d="M247.99,412.73c-.1-.2-.11-.42-.03-.64,.08-.23,.22-.4,.41-.49s.41-.1,.63-.02c.22,.08,.38,.21,.48,.41,.1,.19,.11,.41,.03,.65-.08,.23-.22,.39-.42,.48-.2,.1-.41,.11-.63,.03-.21-.08-.37-.21-.47-.41h0Z"/>
      </g>
    </g>
  </g>
</svg>