<?xml version="1.0" encoding="UTF-8"?>
<svg id="b" data-name="圖層 2" xmlns="http://www.w3.org/2000/svg" width="78.87" height="22.06" viewBox="0 0 78.87 22.06">
  <defs>
    <style>
      .d {
        fill: #0c131b;
      }

      .e {
        fill: none;
        stroke: #0c131b;
        stroke-miterlimit: 10;
        stroke-width: 1.5px;
      }
    </style>
  </defs>
  <g id="c" data-name="設計">
    <g>
      <g>
        <line class="e" x1="71.32" y1=".62" x2="71.32" y2="12.33"/>
        <path class="d" d="M64.12,2.08c.35-.22,.81-.12,1.04,.23l6.16,9.68,6.16-9.68c.22-.35,.69-.45,1.04-.23,.35,.22,.45,.69,.23,1.04l-6.8,10.67c-.14,.22-.38,.35-.63,.35s-.5-.13-.63-.35l-6.8-10.67c-.08-.13-.12-.27-.12-.4,0-.25,.12-.49,.35-.63Z"/>
      </g>
      <g>
        <path d="M1.17,14.14V0H5.55l3.49,6.67L12.54,0h4.38V14.14h-3.27V4.5l-4.65,8.62L4.36,4.46V14.14H1.17Z"/>
        <path d="M24.95,14.34c-1.09,0-2.08-.25-2.96-.74-.88-.49-1.58-1.15-2.09-1.99s-.77-1.77-.77-2.81,.25-1.97,.74-2.81,1.16-1.5,2.01-1.99c.85-.49,1.79-.74,2.83-.74s1.98,.25,2.79,.76c.81,.5,1.44,1.2,1.91,2.07,.46,.88,.7,1.88,.7,3.01v.81h-7.62c.15,.34,.35,.63,.6,.89,.25,.26,.55,.46,.9,.6,.35,.14,.73,.21,1.13,.21,.44,0,.85-.07,1.21-.21,.36-.14,.67-.34,.93-.6l2.16,1.92c-.67,.57-1.36,.98-2.07,1.23s-1.5,.38-2.39,.38Zm-2.52-6.71h4.46c-.11-.35-.27-.65-.49-.9-.22-.25-.48-.44-.78-.58-.3-.14-.62-.21-.97-.21s-.69,.07-.99,.2c-.3,.13-.55,.33-.76,.58-.21,.25-.37,.56-.47,.92Z"/>
        <path d="M32.14,14.14V3.45h3.27v.73c.81-.62,1.76-.93,2.87-.93,.83,0,1.57,.18,2.21,.54,.64,.36,1.14,.87,1.5,1.51,.36,.65,.55,1.39,.55,2.24v6.58h-3.27V8c0-.59-.18-1.06-.53-1.41-.35-.35-.82-.52-1.41-.52-.42,0-.78,.07-1.1,.22-.32,.15-.59,.36-.82,.63v7.23h-3.27Z"/>
        <path d="M49.06,14.34c-.83,0-1.57-.18-2.21-.55-.64-.36-1.14-.87-1.5-1.52-.36-.65-.55-1.4-.55-2.23V3.45h3.27v6.14c0,.58,.18,1.05,.54,1.4,.36,.36,.82,.54,1.4,.54,.42,0,.79-.07,1.11-.22,.32-.15,.59-.36,.81-.63V3.45h3.27V14.14h-3.27v-.73c-.81,.62-1.76,.93-2.87,.93Z"/>
      </g>
      <rect y="17.79" width="78.68" height="4.26"/>
    </g>
  </g>
</svg>