<?xml version="1.0" encoding="UTF-8"?>
<svg id="b" data-name="圖層 2" xmlns="http://www.w3.org/2000/svg" width="36.26" height="36.01" viewBox="0 0 36.26 36.01">
  <defs>
    <style>
      .d {
        fill: #9e9e9f;
      }
    </style>
  </defs>
  <g id="c" data-name="layout">
    <path class="d" d="M36.02,8.21C35.84,3.47,32.75,.19,27.99,.08,21.39-.06,14.76,.01,8.14,.07c-1.52,.01-3,.46-4.32,1.29C1.32,2.94,.31,5.38,.19,8.18,.05,12.23-.01,16.28,0,20.33c.01,2.84,.03,5.7,.35,8.53,.38,3.37,2.23,5.75,5.63,6.59,1.51,.38,3.11,.55,4.67,.55,5.72,.03,11.43,0,17.14-.12,4.85-.1,8.05-3.35,8.23-8.17,.1-3.24,.16-6.47,.25-9.69-.09-3.28-.13-6.54-.25-9.81ZM18.08,29.34c-6.27,0-11.39-5.14-11.36-11.4,.01-6.25,5.15-11.36,11.42-11.35,6.22,.03,11.33,5.14,11.33,11.38s-5.12,11.39-11.39,11.38ZM29.82,9.24c-1.47-.01-2.58-1.16-2.57-2.67,0-1.52,1.16-2.64,2.7-2.63,1.47,.01,2.6,1.19,2.6,2.68-.01,1.51-1.18,2.61-2.73,2.61Zm-11.69,1.36c-4.06,0-7.39,3.31-7.4,7.34,0,4.06,3.32,7.39,7.37,7.39s7.36-3.32,7.36-7.39-3.32-7.34-7.33-7.34Z"/>
  </g>
</svg>