<?xml version="1.0" encoding="UTF-8"?>
<svg id="b" data-name="圖層 2" xmlns="http://www.w3.org/2000/svg" width="35.02" height="35" viewBox="0 0 35.02 35">
  <defs>
    <style>
      .d {
        fill: #9e9e9f;
      }
    </style>
  </defs>
  <g id="c" data-name="layout">
    <path class="d" d="M17.5,0C7.84,0,0,7.84,0,17.5s7.84,17.51,17.5,17.51,17.52-7.84,17.52-17.51S27.17,0,17.5,0Zm-.78,25.16c-1.32,1.19-2.71,1.15-2.71,1.15-3.75-.03-4.18-3.23-4.18-3.23-.37-2.08,.86-3.47,.86-3.47l4.01-4.21c.74-.67,1.74-.92,1.74-.92,2.45-.69,3.98,.96,3.98,.96,.57,.68,.1,1.37,.1,1.37-.77,.9-1.61,.19-1.61,.19-1.53-1.19-2.85,.07-2.85,.07l-3.63,3.84c-.05,.08-.31,.5-.31,.5-.75,2.14,1.2,2.68,1.2,2.68,1.29,.17,1.95-.57,1.95-.57l2.03-2.14c1.69,.97,2.84,.23,2.84,.23l-3.42,3.55Zm9.31-9.69l-4.11,4.12c-.75,.64-1.76,.88-1.76,.88-2.47,.62-3.96-1.06-3.96-1.06-.56-.69-.06-1.38-.06-1.38,.8-.87,1.61-.15,1.61-.15,1.5,1.24,2.85,0,2.85,0l3.73-3.76c.05-.07,.32-.49,.32-.49,.8-2.12-1.13-2.7-1.13-2.7-1.29-.21-1.96,.52-1.96,.52l-2.08,2.09c-1.54-.93-2.67-.39-2.82-.31l3.48-3.45c1.35-1.16,2.75-1.09,2.75-1.09,3.74,.12,4.11,3.33,4.11,3.33,.32,2.09-.95,3.45-.95,3.45Z"/>
  </g>
</svg>