<?xml version="1.0" encoding="UTF-8"?>
<svg id="b" data-name="圖層 2" xmlns="http://www.w3.org/2000/svg" width="192.88" height="182.36" viewBox="0 0 192.88 182.36">
  <g id="c" data-name="設計">
    <g id="d" data-name="KOI 主 2">
      <path d="M165.43,25.69c-8.73-8.23-18.93-14.56-30.59-19.02C123.17,2.23,110.37,0,96.44,0s-26.73,2.27-38.4,6.8c-11.67,4.53-21.87,10.92-30.59,19.14-8.73,8.23-15.48,17.84-20.27,28.84C2.39,65.78,0,77.92,0,91.18s2.39,25.19,7.18,36.27c4.79,11.08,11.54,20.74,20.27,28.97,8.73,8.23,18.97,14.61,30.72,19.14,11.75,4.54,24.59,6.8,38.53,6.8s26.48-2.23,38.15-6.68c11.66-4.45,21.86-10.79,30.59-19.01,8.73-8.23,15.49-17.92,20.27-29.09,4.78-11.16,7.18-23.3,7.18-36.4s-2.39-25.44-7.18-36.52c-4.78-11.08-11.54-20.74-20.27-28.97Zm-18,88.28c-2.77,6.8-6.67,12.76-11.71,17.88-5.04,5.13-10.87,9.07-17.5,11.84-6.63,2.77-13.89,4.16-21.78,4.16s-15.19-1.38-21.91-4.16c-6.72-2.77-12.55-6.71-17.5-11.84-4.95-5.12-8.81-11.08-11.58-17.88-2.77-6.8-4.15-14.4-4.15-22.8s1.39-15.99,4.15-22.8c2.77-6.8,6.63-12.76,11.58-17.88,4.95-5.12,10.78-9.07,17.5-11.84,6.71-2.77,14.01-4.16,21.91-4.16s15.15,1.38,21.78,4.16c6.63,2.77,12.46,6.72,17.5,11.84,5.04,5.12,8.94,11.08,11.71,17.88,2.77,6.8,4.15,14.4,4.15,22.8s-1.38,15.99-4.15,22.8Z"/>
    </g>
  </g>
</svg>