<?xml version="1.0" encoding="UTF-8"?>
<svg id="b" data-name="圖層 2" xmlns="http://www.w3.org/2000/svg" width="606.07" height="294.64" viewBox="0 0 606.07 294.64">
  <defs>
    <style>
      .d {
        fill: #0c131b;
      }

      .e {
        fill: #f7e0c0;
      }
    </style>
  </defs>
  <g id="c" data-name="設計">
    <g>
      <g>
        <path class="d" d="M14.96,114.28c-2.11,0-4.07-.37-5.88-1.1-1.81-.73-3.4-1.76-4.76-3.08-1.36-1.32-2.42-2.85-3.18-4.6-.76-1.75-1.14-3.63-1.14-5.66s.38-3.91,1.14-5.66,1.82-3.28,3.18-4.6c1.36-1.32,2.95-2.35,4.76-3.08,1.81-.73,3.77-1.1,5.88-1.1s4.07,.37,5.88,1.1c1.81,.73,3.4,1.76,4.76,3.08,1.36,1.32,2.42,2.85,3.18,4.6,.76,1.75,1.14,3.63,1.14,5.66s-.38,3.91-1.14,5.66c-.76,1.75-1.82,3.28-3.18,4.6-1.36,1.32-2.95,2.35-4.76,3.08-1.81,.73-3.77,1.1-5.88,1.1Zm0-6.32c1.12,0,2.16-.21,3.12-.62,.96-.41,1.79-.98,2.5-1.7,.71-.72,1.26-1.58,1.66-2.58,.4-1,.6-2.07,.6-3.22s-.2-2.25-.6-3.24c-.4-.99-.95-1.84-1.66-2.56-.71-.72-1.54-1.29-2.5-1.7-.96-.41-2-.62-3.12-.62s-2.16,.21-3.12,.62c-.96,.41-1.79,.98-2.5,1.7-.71,.72-1.26,1.57-1.66,2.56-.4,.99-.6,2.05-.6,3.2s.2,2.26,.6,3.26,.95,1.86,1.66,2.58c.71,.72,1.54,1.29,2.5,1.7,.96,.41,2,.62,3.12,.62Z"/>
        <path class="d" d="M41.68,113.84l-11.32-28h7.44l7.96,20.84,8.12-20.84h7.16l-11.48,28h-7.88Z"/>
        <path class="d" d="M64.08,113.84v-28h22.08v5.96h-15.2v5.04h10.04v5.76h-10.04v5.28h15.36v5.96h-22.24Z"/>
        <path class="d" d="M91.36,113.84v-28h14.32c1.92,0,3.63,.38,5.12,1.14,1.49,.76,2.66,1.81,3.5,3.16,.84,1.35,1.26,2.89,1.26,4.62s-.48,3.33-1.44,4.72c-.96,1.39-2.23,2.44-3.8,3.16l6.12,11.2h-7.68l-5.28-10.2h-5.24v10.2h-6.88Zm6.88-15.8h6.8c1.07,0,1.93-.29,2.58-.88,.65-.59,.98-1.35,.98-2.28s-.33-1.69-.98-2.28c-.65-.59-1.51-.88-2.58-.88h-6.8v6.32Z"/>
        <path class="d" d="M130.8,114.24c-2.27,0-4.51-.41-6.72-1.24-2.21-.83-4.19-1.97-5.92-3.44l3.84-5c1.71,1.39,3.28,2.38,4.72,2.98,1.44,.6,2.97,.9,4.6,.9,1.07,0,1.97-.11,2.72-.32,.75-.21,1.32-.53,1.72-.94,.4-.41,.6-.9,.6-1.46,0-.77-.29-1.37-.88-1.8-.59-.43-1.59-.76-3-1l-6.16-1.08c-2.27-.4-4.01-1.27-5.24-2.6-1.23-1.33-1.84-3.03-1.84-5.08,0-1.81,.46-3.37,1.38-4.68,.92-1.31,2.24-2.31,3.96-3,1.72-.69,3.77-1.04,6.14-1.04,2.08,0,4.17,.35,6.28,1.06,2.11,.71,3.93,1.69,5.48,2.94l-3.64,5.08c-2.88-2.21-5.75-3.32-8.6-3.32-.93,0-1.74,.1-2.42,.3s-1.2,.48-1.56,.84c-.36,.36-.54,.79-.54,1.3,0,.69,.26,1.23,.78,1.6,.52,.37,1.37,.67,2.54,.88l5.8,.96c2.69,.43,4.74,1.32,6.14,2.68,1.4,1.36,2.1,3.12,2.1,5.28,0,1.89-.49,3.53-1.48,4.9-.99,1.37-2.4,2.43-4.24,3.18-1.84,.75-4.03,1.12-6.56,1.12Z"/>
        <path class="d" d="M147.24,113.84v-28h22.08v5.96h-15.2v5.04h10.04v5.76h-10.04v5.28h15.36v5.96h-22.24Z"/>
        <path class="d" d="M172.32,113.84l11.48-28h7.88l11.32,28h-7.44l-2.56-6.76h-10.92l-2.6,6.76h-7.16Zm11.84-12.24h6.8l-3.36-8.96-3.44,8.96Z"/>
        <path class="d" d="M216.96,114.24c-2.27,0-4.51-.41-6.72-1.24-2.21-.83-4.19-1.97-5.92-3.44l3.84-5c1.71,1.39,3.28,2.38,4.72,2.98,1.44,.6,2.97,.9,4.6,.9,1.07,0,1.97-.11,2.72-.32,.75-.21,1.32-.53,1.72-.94,.4-.41,.6-.9,.6-1.46,0-.77-.29-1.37-.88-1.8-.59-.43-1.59-.76-3-1l-6.16-1.08c-2.27-.4-4.01-1.27-5.24-2.6-1.23-1.33-1.84-3.03-1.84-5.08,0-1.81,.46-3.37,1.38-4.68,.92-1.31,2.24-2.31,3.96-3,1.72-.69,3.77-1.04,6.14-1.04,2.08,0,4.17,.35,6.28,1.06,2.11,.71,3.93,1.69,5.48,2.94l-3.64,5.08c-2.88-2.21-5.75-3.32-8.6-3.32-.93,0-1.74,.1-2.42,.3s-1.2,.48-1.56,.84c-.36,.36-.54,.79-.54,1.3,0,.69,.26,1.23,.78,1.6,.52,.37,1.37,.67,2.54,.88l5.8,.96c2.69,.43,4.74,1.32,6.14,2.68,1.4,1.36,2.1,3.12,2.1,5.28,0,1.89-.49,3.53-1.48,4.9-.99,1.37-2.4,2.43-4.24,3.18-1.84,.75-4.03,1.12-6.56,1.12Z"/>
        <path class="d" d="M256.24,114.24c-2.13,0-4.11-.37-5.94-1.1-1.83-.73-3.42-1.75-4.78-3.06-1.36-1.31-2.42-2.83-3.18-4.58-.76-1.75-1.14-3.63-1.14-5.66s.38-3.95,1.14-5.7,1.83-3.27,3.2-4.58c1.37-1.31,2.97-2.33,4.8-3.06,1.83-.73,3.79-1.1,5.9-1.1,1.55,0,3.07,.23,4.56,.68,1.49,.45,2.87,1.09,4.14,1.9,1.27,.81,2.33,1.78,3.18,2.9l-4.64,4.56c-.99-1.25-2.09-2.19-3.3-2.8-1.21-.61-2.53-.92-3.94-.92-1.12,0-2.17,.21-3.14,.62-.97,.41-1.82,.98-2.54,1.7-.72,.72-1.28,1.57-1.68,2.56-.4,.99-.6,2.07-.6,3.24s.21,2.21,.62,3.18c.41,.97,.99,1.83,1.72,2.56,.73,.73,1.6,1.3,2.6,1.7,1,.4,2.09,.6,3.26,.6,1.36,0,2.62-.29,3.78-.88,1.16-.59,2.21-1.45,3.14-2.6l4.52,4.44c-.85,1.09-1.91,2.05-3.16,2.86-1.25,.81-2.61,1.44-4.08,1.88s-2.95,.66-4.44,.66Z"/>
        <path class="d" d="M285.2,114.28c-2.11,0-4.07-.37-5.88-1.1-1.81-.73-3.4-1.76-4.76-3.08-1.36-1.32-2.42-2.85-3.18-4.6-.76-1.75-1.14-3.63-1.14-5.66s.38-3.91,1.14-5.66,1.82-3.28,3.18-4.6c1.36-1.32,2.95-2.35,4.76-3.08,1.81-.73,3.77-1.1,5.88-1.1s4.07,.37,5.88,1.1c1.81,.73,3.4,1.76,4.76,3.08,1.36,1.32,2.42,2.85,3.18,4.6,.76,1.75,1.14,3.63,1.14,5.66s-.38,3.91-1.14,5.66c-.76,1.75-1.82,3.28-3.18,4.6-1.36,1.32-2.95,2.35-4.76,3.08-1.81,.73-3.77,1.1-5.88,1.1Zm0-6.32c1.12,0,2.16-.21,3.12-.62,.96-.41,1.79-.98,2.5-1.7,.71-.72,1.26-1.58,1.66-2.58,.4-1,.6-2.07,.6-3.22s-.2-2.25-.6-3.24c-.4-.99-.95-1.84-1.66-2.56-.71-.72-1.54-1.29-2.5-1.7-.96-.41-2-.62-3.12-.62s-2.16,.21-3.12,.62c-.96,.41-1.79,.98-2.5,1.7-.71,.72-1.26,1.57-1.66,2.56-.4,.99-.6,2.05-.6,3.2s.2,2.26,.6,3.26,.95,1.86,1.66,2.58c.71,.72,1.54,1.29,2.5,1.7,.96,.41,2,.62,3.12,.62Z"/>
        <path class="d" d="M304.8,113.84v-28h6.88v21.92h14.76v6.08h-21.64Z"/>
        <path class="d" d="M331.28,113.84v-28h6.88v21.92h14.76v6.08h-21.64Z"/>
        <path class="d" d="M355.56,113.84l11.48-28h7.88l11.32,28h-7.44l-2.56-6.76h-10.92l-2.6,6.76h-7.16Zm11.84-12.24h6.8l-3.36-8.96-3.44,8.96Z"/>
        <path class="d" d="M389.28,113.84v-28h13.88c1.92,0,3.61,.33,5.06,1,1.45,.67,2.59,1.59,3.42,2.78s1.24,2.55,1.24,4.1c0,1.15-.29,2.22-.86,3.22s-1.35,1.85-2.34,2.54c1.25,.67,2.25,1.53,2.98,2.6,.73,1.07,1.1,2.24,1.1,3.52,0,1.63-.41,3.06-1.24,4.3-.83,1.24-1.99,2.21-3.48,2.9-1.49,.69-3.23,1.04-5.2,1.04h-14.56Zm6.88-16.84h6.56c1.01,0,1.81-.25,2.4-.76,.59-.51,.88-1.17,.88-2s-.29-1.53-.88-2.02c-.59-.49-1.39-.74-2.4-.74h-6.56v5.52Zm0,11.2h7.16c1.07,0,1.91-.27,2.54-.8,.63-.53,.94-1.25,.94-2.16s-.31-1.63-.94-2.16c-.63-.53-1.47-.8-2.54-.8h-7.16v5.92Z"/>
        <path class="d" d="M432.04,114.28c-2.11,0-4.07-.37-5.88-1.1-1.81-.73-3.4-1.76-4.76-3.08-1.36-1.32-2.42-2.85-3.18-4.6-.76-1.75-1.14-3.63-1.14-5.66s.38-3.91,1.14-5.66,1.82-3.28,3.18-4.6c1.36-1.32,2.95-2.35,4.76-3.08,1.81-.73,3.77-1.1,5.88-1.1s4.07,.37,5.88,1.1c1.81,.73,3.4,1.76,4.76,3.08,1.36,1.32,2.42,2.85,3.18,4.6,.76,1.75,1.14,3.63,1.14,5.66s-.38,3.91-1.14,5.66c-.76,1.75-1.82,3.28-3.18,4.6-1.36,1.32-2.95,2.35-4.76,3.08-1.81,.73-3.77,1.1-5.88,1.1Zm0-6.32c1.12,0,2.16-.21,3.12-.62,.96-.41,1.79-.98,2.5-1.7,.71-.72,1.26-1.58,1.66-2.58,.4-1,.6-2.07,.6-3.22s-.2-2.25-.6-3.24c-.4-.99-.95-1.84-1.66-2.56-.71-.72-1.54-1.29-2.5-1.7-.96-.41-2-.62-3.12-.62s-2.16,.21-3.12,.62c-.96,.41-1.79,.98-2.5,1.7-.71,.72-1.26,1.57-1.66,2.56-.4,.99-.6,2.05-.6,3.2s.2,2.26,.6,3.26,.95,1.86,1.66,2.58c.71,.72,1.54,1.29,2.5,1.7,.96,.41,2,.62,3.12,.62Z"/>
        <path class="d" d="M451.64,113.84v-28h14.32c1.92,0,3.63,.38,5.12,1.14,1.49,.76,2.66,1.81,3.5,3.16,.84,1.35,1.26,2.89,1.26,4.62s-.48,3.33-1.44,4.72c-.96,1.39-2.23,2.44-3.8,3.16l6.12,11.2h-7.68l-5.28-10.2h-5.24v10.2h-6.88Zm6.88-15.8h6.8c1.07,0,1.93-.29,2.58-.88,.65-.59,.98-1.35,.98-2.28s-.33-1.69-.98-2.28c-.65-.59-1.51-.88-2.58-.88h-6.8v6.32Z"/>
        <path class="d" d="M478.16,113.84l11.48-28h7.88l11.32,28h-7.44l-2.56-6.76h-10.92l-2.6,6.76h-7.16Zm11.84-12.24h6.8l-3.36-8.96-3.44,8.96Z"/>
        <path class="d" d="M514.24,113.84v-21.92h-9.16v-6.08h25.2v6.08h-9.16v21.92h-6.88Z"/>
        <path class="d" d="M534.32,113.84v-28h6.88v28h-6.88Z"/>
        <path class="d" d="M560.79,114.28c-2.11,0-4.07-.37-5.88-1.1-1.81-.73-3.4-1.76-4.76-3.08-1.36-1.32-2.42-2.85-3.18-4.6-.76-1.75-1.14-3.63-1.14-5.66s.38-3.91,1.14-5.66,1.82-3.28,3.18-4.6c1.36-1.32,2.95-2.35,4.76-3.08,1.81-.73,3.77-1.1,5.88-1.1s4.07,.37,5.88,1.1c1.81,.73,3.4,1.76,4.76,3.08,1.36,1.32,2.42,2.85,3.18,4.6,.76,1.75,1.14,3.63,1.14,5.66s-.38,3.91-1.14,5.66c-.76,1.75-1.82,3.28-3.18,4.6-1.36,1.32-2.95,2.35-4.76,3.08-1.81,.73-3.77,1.1-5.88,1.1Zm0-6.32c1.12,0,2.16-.21,3.12-.62,.96-.41,1.79-.98,2.5-1.7,.71-.72,1.26-1.58,1.66-2.58,.4-1,.6-2.07,.6-3.22s-.2-2.25-.6-3.24c-.4-.99-.95-1.84-1.66-2.56-.71-.72-1.54-1.29-2.5-1.7-.96-.41-2-.62-3.12-.62s-2.16,.21-3.12,.62c-.96,.41-1.79,.98-2.5,1.7-.71,.72-1.26,1.57-1.66,2.56-.4,.99-.6,2.05-.6,3.2s.2,2.26,.6,3.26,.95,1.86,1.66,2.58c.71,.72,1.54,1.29,2.5,1.7,.96,.41,2,.62,3.12,.62Z"/>
        <path class="d" d="M580.39,113.84v-28h6.48l12.72,16.24v-16.24h6.48v28h-6.08l-13.12-16.88v16.88h-6.48Z"/>
        <path class="d" d="M93,162.28l11.48-28h7.88l11.32,28h-7.44l-2.56-6.76h-10.92l-2.6,6.76h-7.16Zm11.84-12.24h6.8l-3.36-8.96-3.44,8.96Z"/>
        <path class="d" d="M126.72,162.28v-28h14.76c1.84,0,3.47,.39,4.9,1.18,1.43,.79,2.55,1.86,3.38,3.22,.83,1.36,1.24,2.92,1.24,4.68s-.41,3.19-1.24,4.54c-.83,1.35-1.96,2.41-3.4,3.18-1.44,.77-3.07,1.16-4.88,1.16h-7.88v10.04h-6.88Zm6.88-15.72h7.08c1.01,0,1.83-.29,2.44-.88,.61-.59,.92-1.35,.92-2.28s-.31-1.74-.92-2.34-1.43-.9-2.44-.9h-7.08v6.4Z"/>
        <path class="d" d="M155.52,162.28v-28h14.76c1.84,0,3.47,.39,4.9,1.18,1.43,.79,2.55,1.86,3.38,3.22,.83,1.36,1.24,2.92,1.24,4.68s-.41,3.19-1.24,4.54c-.83,1.35-1.96,2.41-3.4,3.18-1.44,.77-3.07,1.16-4.88,1.16h-7.88v10.04h-6.88Zm6.88-15.72h7.08c1.01,0,1.83-.29,2.44-.88,.61-.59,.92-1.35,.92-2.28s-.31-1.74-.92-2.34-1.43-.9-2.44-.9h-7.08v6.4Z"/>
        <path class="d" d="M184.32,162.28v-28h6.88v21.92h14.76v6.08h-21.64Z"/>
        <path class="d" d="M210.8,162.28v-28h6.88v28h-6.88Z"/>
        <path class="d" d="M237.36,162.68c-2.13,0-4.11-.37-5.94-1.1-1.83-.73-3.42-1.75-4.78-3.06-1.36-1.31-2.42-2.83-3.18-4.58-.76-1.75-1.14-3.63-1.14-5.66s.38-3.95,1.14-5.7c.76-1.75,1.83-3.27,3.2-4.58,1.37-1.31,2.97-2.33,4.8-3.06,1.83-.73,3.79-1.1,5.9-1.1,1.55,0,3.07,.23,4.56,.68,1.49,.45,2.87,1.09,4.14,1.9,1.27,.81,2.33,1.78,3.18,2.9l-4.64,4.56c-.99-1.25-2.09-2.19-3.3-2.8-1.21-.61-2.53-.92-3.94-.92-1.12,0-2.17,.21-3.14,.62-.97,.41-1.82,.98-2.54,1.7-.72,.72-1.28,1.57-1.68,2.56-.4,.99-.6,2.07-.6,3.24s.21,2.21,.62,3.18c.41,.97,.99,1.83,1.72,2.56,.73,.73,1.6,1.3,2.6,1.7s2.09,.6,3.26,.6c1.36,0,2.62-.29,3.78-.88,1.16-.59,2.21-1.45,3.14-2.6l4.52,4.44c-.85,1.09-1.91,2.05-3.16,2.86-1.25,.81-2.61,1.44-4.08,1.88s-2.95,.66-4.44,.66Z"/>
        <path class="d" d="M250.36,162.28l11.48-28h7.88l11.32,28h-7.44l-2.56-6.76h-10.92l-2.6,6.76h-7.16Zm11.84-12.24h6.8l-3.36-8.96-3.44,8.96Z"/>
        <path class="d" d="M286.44,162.28v-21.92h-9.16v-6.08h25.2v6.08h-9.16v21.92h-6.88Z"/>
        <path class="d" d="M306.52,162.28v-28h6.88v28h-6.88Z"/>
        <path class="d" d="M333,162.72c-2.11,0-4.07-.37-5.88-1.1-1.81-.73-3.4-1.76-4.76-3.08-1.36-1.32-2.42-2.85-3.18-4.6-.76-1.75-1.14-3.63-1.14-5.66s.38-3.91,1.14-5.66c.76-1.75,1.82-3.28,3.18-4.6,1.36-1.32,2.95-2.35,4.76-3.08,1.81-.73,3.77-1.1,5.88-1.1s4.07,.37,5.88,1.1c1.81,.73,3.4,1.76,4.76,3.08,1.36,1.32,2.42,2.85,3.18,4.6,.76,1.75,1.14,3.63,1.14,5.66s-.38,3.91-1.14,5.66c-.76,1.75-1.82,3.28-3.18,4.6-1.36,1.32-2.95,2.35-4.76,3.08-1.81,.73-3.77,1.1-5.88,1.1Zm0-6.32c1.12,0,2.16-.21,3.12-.62,.96-.41,1.79-.98,2.5-1.7,.71-.72,1.26-1.58,1.66-2.58,.4-1,.6-2.07,.6-3.22s-.2-2.25-.6-3.24c-.4-.99-.95-1.84-1.66-2.56-.71-.72-1.54-1.29-2.5-1.7-.96-.41-2-.62-3.12-.62s-2.16,.21-3.12,.62c-.96,.41-1.79,.98-2.5,1.7-.71,.72-1.26,1.57-1.66,2.56-.4,.99-.6,2.05-.6,3.2s.2,2.26,.6,3.26,.95,1.86,1.66,2.58c.71,.72,1.54,1.29,2.5,1.7,.96,.41,2,.62,3.12,.62Z"/>
        <path class="d" d="M352.6,162.28v-28h6.48l12.72,16.24v-16.24h6.48v28h-6.08l-13.12-16.88v16.88h-6.48Z"/>
        <path class="d" d="M392.72,162.28v-28h22.24v5.96h-15.36v5.24h10.24v5.76h-10.24v11.04h-6.88Z"/>
        <path class="d" d="M431.96,162.72c-2.11,0-4.07-.37-5.88-1.1-1.81-.73-3.4-1.76-4.76-3.08-1.36-1.32-2.42-2.85-3.18-4.6-.76-1.75-1.14-3.63-1.14-5.66s.38-3.91,1.14-5.66c.76-1.75,1.82-3.28,3.18-4.6,1.36-1.32,2.95-2.35,4.76-3.08,1.81-.73,3.77-1.1,5.88-1.1s4.07,.37,5.88,1.1c1.81,.73,3.4,1.76,4.76,3.08,1.36,1.32,2.42,2.85,3.18,4.6,.76,1.75,1.14,3.63,1.14,5.66s-.38,3.91-1.14,5.66c-.76,1.75-1.82,3.28-3.18,4.6-1.36,1.32-2.95,2.35-4.76,3.08-1.81,.73-3.77,1.1-5.88,1.1Zm0-6.32c1.12,0,2.16-.21,3.12-.62,.96-.41,1.79-.98,2.5-1.7,.71-.72,1.26-1.58,1.66-2.58,.4-1,.6-2.07,.6-3.22s-.2-2.25-.6-3.24c-.4-.99-.95-1.84-1.66-2.56-.71-.72-1.54-1.29-2.5-1.7-.96-.41-2-.62-3.12-.62s-2.16,.21-3.12,.62c-.96,.41-1.79,.98-2.5,1.7-.71,.72-1.26,1.57-1.66,2.56-.4,.99-.6,2.05-.6,3.2s.2,2.26,.6,3.26,.95,1.86,1.66,2.58c.71,.72,1.54,1.29,2.5,1.7,.96,.41,2,.62,3.12,.62Z"/>
        <path class="d" d="M451.55,162.28v-28h14.32c1.92,0,3.63,.38,5.12,1.14,1.49,.76,2.66,1.81,3.5,3.16,.84,1.35,1.26,2.89,1.26,4.62s-.48,3.33-1.44,4.72c-.96,1.39-2.23,2.44-3.8,3.16l6.12,11.2h-7.68l-5.28-10.2h-5.24v10.2h-6.88Zm6.88-15.8h6.8c1.07,0,1.93-.29,2.58-.88,.65-.59,.98-1.35,.98-2.28s-.33-1.69-.98-2.28c-.65-.59-1.51-.88-2.58-.88h-6.8v6.32Z"/>
        <path class="d" d="M480.28,162.28v-28h8.68l6.92,13.2,6.92-13.2h8.68v28h-6.48v-19.08l-9.2,17.08-9.2-17.16v19.16h-6.32Z"/>
      </g>
      <g>
        <path class="d" d="M122.43,206.49c-.88-.88-2.76-2.08-4.21-2.86l1.66-2.11c1.46,.65,3.38,1.79,4.32,2.63l-1.77,2.34Zm-3.54,9.44c1.07-2,2.5-5.3,3.61-8.35l2.37,1.72c-.96,2.76-2.13,5.77-3.28,8.32l-2.7-1.69Zm5.25-16.74c-.94-.88-2.96-2.13-4.47-2.94l1.72-2.08c1.51,.7,3.56,1.85,4.6,2.68l-1.85,2.34Zm16.3,9.57c-.08,1.04-.16,1.95-.23,2.76h1.59v2.63h-1.92c-.21,1.25-.47,1.98-.78,2.42-.6,.81-1.25,1.04-2.11,1.17-.78,.13-2.03,.13-3.25,.05-.05-.73-.36-1.82-.81-2.52,1.14,.1,2.16,.1,2.68,.1,.44,0,.68-.08,.96-.42,.1-.16,.23-.39,.34-.81h-10.74c.29-1.48,.6-3.38,.88-5.38h-2.31v-2.81h2.68c.18-1.4,.34-2.81,.47-4.13-.31,.47-.65,.91-.96,1.33-.6-.47-1.92-1.3-2.65-1.69,1.74-1.85,3.28-4.84,4.16-7.7l2.99,.75c-.21,.6-.44,1.25-.7,1.87h11.05v2.76h-12.32c-.31,.6-.6,1.17-.94,1.72h12.3s0,.91-.03,1.3c-.05,1.38-.13,2.63-.18,3.8h1.85v2.81h-2Zm-10.53,0c-.13,.96-.26,1.87-.39,2.76h3.93c-.62-.7-1.51-1.51-2.26-2.13l.99-.62h-2.26Zm.68-5.28c-.1,.83-.21,1.64-.31,2.47h3.51c-.52-.62-1.25-1.33-1.9-1.9l.88-.57h-2.18Zm6.76,8.03c.1-.78,.18-1.66,.26-2.76h-4.19c.86,.7,1.79,1.53,2.31,2.18l-.83,.57h2.44Zm-3.33-8.03c.73,.65,1.53,1.4,1.98,1.98l-.73,.49h2.5c.03-.78,.08-1.59,.1-2.47h-3.85Z"/>
        <path class="d" d="M178.67,197.42l2.21,.62c-1.2,10.53-4.99,16.93-10.76,19.94-.52-.75-1.82-2.05-2.6-2.6,2.96-1.38,5.36-3.54,7.02-6.6-.86-1.09-2.13-2.44-3.35-3.69-.42,.73-.86,1.4-1.3,1.98-.55-.52-1.9-1.51-2.6-1.98,2.26-2.6,3.8-6.89,4.6-11.36l3.12,.55c-.23,1.12-.49,2.18-.78,3.25h3.85l.6-.1Zm-5.41,3.04c-.23,.68-.47,1.3-.73,1.92,1.04,1.01,2.34,2.21,3.35,3.3,.57-1.56,.99-3.3,1.3-5.23h-3.93Zm16.12,9.1c-.86-1.27-2.6-3.17-4.19-4.86v13.34h-3.28v-24.29h3.28v8.63l1.14-.83c1.79,1.77,4.42,4.32,5.67,5.9l-2.63,2.11Z"/>
        <path class="d" d="M232.02,195.05c-.29,.39-.57,.78-.86,1.14,3.33,3.09,6.79,4.86,10.3,6.14-.81,.73-1.72,1.87-2.13,2.83-1.25-.6-2.52-1.22-3.74-1.92v1.69h-13v-1.27c-1.14,.7-2.31,1.35-3.48,1.9-.49-.88-1.4-2.05-2.26-2.83,4.78-1.9,9.7-5.04,12.43-9.1l2.76,1.43Zm-11.13,12.12h16.77v10.74h-3.3v-1.04h-10.3v1.14h-3.17v-10.84Zm3.17,2.73v4.11h10.3v-4.11h-10.3Zm9.72-7.8c-1.48-1.01-2.99-2.21-4.52-3.72-1.33,1.38-2.76,2.6-4.29,3.72h8.81Z"/>
        <path class="d" d="M275,194.79c-.68,1.82-1.53,3.67-2.5,5.41v17.81h-3.12v-13c-.55,.65-1.09,1.3-1.61,1.87-.29-.75-1.17-2.52-1.72-3.3,2.37-2.34,4.63-6.03,5.93-9.72l3.02,.94Zm8.24,6.14v2.73h6.73v2.81h-6.73v2.94h7.07v2.86h-7.07v5.77h-3.17v-17.11h-.99c-1.04,1.92-2.24,3.69-3.41,5.04-.49-.57-1.72-1.66-2.37-2.16,2.29-2.34,4.34-6.08,5.51-9.8l2.99,.75c-.36,1.09-.78,2.16-1.27,3.22h10.09v2.94h-7.38Z"/>
        <path class="d" d="M338.38,197.21v15.39h-3.22v-1.25h-5.77v6.66h-3.25v-6.66h-5.64v1.38h-3.09v-15.52h8.74v-3.48h3.25v3.48h9Zm-17.89,2.96v2.63h5.64v-2.63h-5.64Zm5.64,8.22v-2.76h-5.64v2.76h5.64Zm3.25-8.22v2.63h5.77v-2.63h-5.77Zm5.77,8.22v-2.76h-5.77v2.76h5.77Z"/>
        <path class="d" d="M374.45,200.43h-9.21v-2.44h3.95c-.23-.99-.78-2.34-1.22-3.41l2.6-.75c.52,1.09,1.12,2.55,1.4,3.46l-2.05,.7h4.52v2.44Zm-.73,6.99h-7.8v-2.34h7.8v2.34Zm.03,9.18h-5.2v1.04h-2.63v-8.89h7.83v7.85Zm-7.8-15.05h7.8v2.34h-7.8v-2.34Zm2.6,9.65v2.99h2.52v-2.99h-2.52Zm19.55,4.03c0,1.3-.23,1.98-1.14,2.37-.86,.39-2.08,.44-3.72,.42-.1-.73-.47-1.77-.81-2.44,.96,.03,2.05,.03,2.37,.03,.34,0,.44-.1,.44-.39v-1.09h-7.05c-.31,1.51-.91,2.99-1.9,4.13-.44-.55-1.59-1.61-2.18-1.95,1.53-1.82,1.69-4.26,1.69-6.29v-4.63h12.3v9.85Zm1.25-13.13v2.21h-14.77v-2.21h5.77v-1.14h-4.73v-2.05h4.73v-1.04h-5.38v-2.21h5.38v-1.9h2.99v1.9h5.67v2.21h-5.67v1.04h5.15v2.05h-5.15v1.14h6.01Zm-4.11,10.01v-1.25h-6.66c-.03,.42-.05,.83-.08,1.25h6.73Zm-6.66-4.47v1.22h6.66v-1.22h-6.66Z"/>
        <path class="d" d="M437.76,208.54c-1.46,1.09-3.17,2.16-4.65,3.04,1.59,1.38,3.54,2.47,5.88,3.12-.68,.62-1.59,1.9-2.03,2.73-5.38-1.85-8.61-5.62-10.56-11-.99,1.01-2.13,2-3.35,2.89v4.42l5.62-1.53c.08,.83,.31,2.08,.52,2.76-7.44,2.21-8.61,2.57-9.39,3.04-.18-.73-.81-2.11-1.27-2.73,.57-.29,1.3-.91,1.3-2.05v-1.9c-1.2,.62-2.37,1.17-3.56,1.59-.42-.7-1.35-1.87-2-2.5,2.91-.88,6.01-2.47,8.29-4.26h-7.38v-2.63h9.85v-1.46h-7.46v-2.47h7.46v-1.35h-8.74v-2.63h8.74v-1.87h3.12v1.87h9.05v2.63h-9.05v1.35h8.03v2.47h-8.03v1.46h9.93v2.63h-8.74c.49,1.3,1.2,2.47,2,3.54,1.38-.94,2.86-2.11,3.85-3.04l2.57,1.9Z"/>
        <path class="d" d="M487.62,214.73h-10.11v3.3h-3.17v-3.3h-9.88v-2.65h9.88v-1.35h-7.41v-9.75h18.43v9.75h-7.85v1.35h10.11v2.65Zm-12.35-14.77h-9.28v-5.2h9.28v5.2Zm-2.89-3.35h-3.64v1.51h3.64v-1.51Zm-2.44,8.14h4.39v-1.38h-4.39v1.38Zm4.39,3.61v-1.4h-4.39v1.4h4.39Zm11.86-8.4h-9.33v-5.2h9.33v5.2Zm-4,3.41h-4.68v1.38h4.68v-1.38Zm0,3.59h-4.68v1.4h4.68v-1.4Zm1.12-10.35h-3.72v1.51h3.72v-1.51Z"/>
      </g>
      <g>
        <path class="e" d="M223.18,265.3l2.77,16.82c.15,.93,.81,1.69,1.71,1.97,22.4,6.87,49.18,10.56,76.82,10.56s54.45-3.72,76.85-10.6c.89-.27,1.55-1.04,1.7-1.96l2.82-16.79c.18-1.09-.85-1.98-1.9-1.64-22.97,7.41-50.58,11.44-79.46,11.44s-56.4-3.91-79.38-11.43c-1.06-.35-2.09,.54-1.91,1.64Z"/>
        <path class="e" d="M182.72,17.6c.17,1.04,.97,1.86,2.01,2.04,30.77,5.2,73.47,8.42,120.67,8.42,46.55,0,88.12-3.09,118.69-8.09,1.05-.17,1.85-.99,2.02-2.04l2.58-15.88c.16-1-.69-1.86-1.69-1.69-30.83,5.29-73.92,8.58-121.6,8.58S212.8,5.52,181.84,.02c-1-.18-1.87,.68-1.71,1.69l2.59,15.89Z"/>
      </g>
    </g>
  </g>
</svg>