<?xml version="1.0" encoding="UTF-8"?>
<svg id="b" data-name="圖層 2" xmlns="http://www.w3.org/2000/svg" width="52.43" height="54.92" viewBox="0 0 52.43 54.92">
  <defs>
    <style>
      .d {
        fill: #fff;
      }

      .e {
        opacity: .6;
      }
    </style>
  </defs>
  <g id="c" data-name="lightbox">
    <g class="e">
      <path class="d" d="M3.55,54.92c-1.15-.67-2.03-1.56-2.64-2.67s-.92-2.38-.92-3.81,.3-2.7,.92-3.82,1.49-2,2.64-2.67l.76,.9c-.96,.58-1.7,1.35-2.21,2.31-.51,.96-.77,2.05-.77,3.28s.26,2.3,.77,3.27,1.25,1.73,2.21,2.3l-.76,.91Z"/>
      <path class="d" d="M10.29,41.6h3.2c2.12,0,3.64,.67,3.64,2.54,0,.98-.54,1.92-1.47,2.23v.07c1.18,.25,2.03,1.05,2.03,2.45,0,2.04-1.67,3.03-3.95,3.03h-3.45v-10.31Zm3.01,4.3c1.57,0,2.23-.59,2.23-1.56,0-1.08-.73-1.48-2.19-1.48h-1.43v3.04h1.39Zm.25,4.73c1.61,0,2.54-.57,2.54-1.83,0-1.16-.9-1.67-2.54-1.67h-1.64v3.5h1.64Z"/>
      <path class="d" d="M19.67,49.86c0-1.65,1.4-2.51,4.61-2.86-.01-.9-.34-1.68-1.47-1.68-.81,0-1.57,.36-2.23,.79l-.6-1.09c.8-.5,1.88-1.01,3.11-1.01,1.92,0,2.8,1.22,2.8,3.26v4.64h-1.32l-.14-.88h-.04c-.7,.6-1.53,1.06-2.45,1.06-1.33,0-2.27-.87-2.27-2.23Zm4.61,.06v-1.89c-2.28,.28-3.05,.85-3.05,1.72,0,.76,.52,1.06,1.21,1.06s1.22-.32,1.85-.9Z"/>
      <path class="d" d="M28.25,48.07c0-2.58,1.78-4.06,3.81-4.06,.98,0,1.7,.39,2.26,.88l-.8,1.05c-.42-.38-.85-.6-1.39-.6-1.29,0-2.21,1.09-2.21,2.73s.88,2.7,2.17,2.7c.64,0,1.22-.31,1.68-.7l.66,1.06c-.7,.63-1.61,.95-2.49,.95-2.09,0-3.68-1.47-3.68-4.02Z"/>
      <path class="d" d="M36.67,40.74h1.57v7.2h.04l3.03-3.74h1.78l-2.62,3.12,2.91,4.58h-1.75l-2.09-3.49-1.3,1.5v1.99h-1.57v-11.16Z"/>
      <path class="d" d="M48.87,41.9c1.15,.67,2.03,1.56,2.64,2.67s.92,2.38,.92,3.81-.3,2.7-.92,3.82-1.49,2-2.64,2.67l-.76-.9c.96-.58,1.7-1.35,2.21-2.31s.77-2.05,.77-3.28-.26-2.3-.77-3.27-1.25-1.73-2.21-2.3l.76-.91Z"/>
    </g>
    <g>
      <rect class="d" x="7.17" y="15.61" width="35.69" height="3.45"/>
      <path class="d" d="M30.73,.8c.51,.8,.27,1.87-.53,2.38L7.96,17.34l22.23,14.16c.8,.51,1.04,1.58,.53,2.38s-1.58,1.03-2.38,.53L3.83,18.79c-.49-.32-.8-.86-.8-1.45s.3-1.14,.8-1.45L28.34,.27c.29-.18,.61-.27,.93-.27,.57,0,1.13,.28,1.46,.8Z"/>
    </g>
  </g>
</svg>