<?xml version="1.0" encoding="UTF-8"?>
<svg id="b" data-name="圖層 2" xmlns="http://www.w3.org/2000/svg" width="36.03" height="33.92" viewBox="0 0 36.03 33.92">
  <g id="c" data-name="設計">
    <path d="M34.47,32.23c-.09-.58-.21-1.45-.27-1.91-.02-.12-.11-.22-.23-.24l-23.36-3.77c-.12-.02-.22,.09-.19,.21,.16,.66,.39,1.39,.59,1.97,.03,.1,.12,.17,.22,.18l23.04,3.75c.11,.02,.21-.08,.19-.19Z" style="fill: #ea5406; stroke: #ea5406; stroke-miterlimit: 10; stroke-width: 3px;"/>
    <path d="M4.84,7.72l-1.92,.32c-.11,.02-.19,.09-.22,.19-.78,2.55-1.2,5.6-1.2,8.75s.42,6.2,1.21,8.75c.03,.1,.12,.18,.22,.19l1.91,.32c.12,.02,.23-.1,.19-.22-.84-2.62-1.3-5.76-1.3-9.05s.45-6.42,1.3-9.04c.04-.12-.06-.24-.19-.22Z" style="fill: #ea5406; stroke: #ea5406; stroke-miterlimit: 10; stroke-width: 3px;"/>
    <path d="M10.62,7.65l23.39-3.77c.13-.02,.23-.12,.25-.25,.03-.2,.16-1.23,.27-1.91,0-.06,0-.12-.05-.16-.04-.04-.1-.06-.16-.05L11.24,5.26c-.11,.02-.2,.09-.23,.19-.14,.4-.4,1.18-.59,1.97,0,.01,0,.03,0,.04,0,.05,.02,.09,.05,.13,.04,.05,.1,.07,.16,.06Z" style="fill: #ea5406; stroke: #ea5406; stroke-miterlimit: 10; stroke-width: 3px;"/>
  </g>
</svg>