<?xml version="1.0" encoding="UTF-8"?>
<svg id="b" data-name="圖層 2" xmlns="http://www.w3.org/2000/svg" width="297.33" height="297.33" viewBox="0 0 297.33 297.33">
  <g id="c" data-name="layout">
    <rect width="297.33" height="297.33" style="fill: none;"/>
    <g>
      <path d="M22.02,70.72l-11.25-1.81,.92-1.48,9.52,1.63-5.61-7.9,.88-1.42,6.54,9.36-1.01,1.61Z" style="fill: #fff;"/>
      <path d="M28.71,61.01c-.46,.62-1.01,1.09-1.66,1.38-.65,.3-1.32,.42-2.03,.36-.7-.06-1.35-.3-1.95-.74-.59-.43-1.02-.96-1.3-1.6-.28-.63-.38-1.3-.31-1.99,.06-.69,.31-1.33,.74-1.92,.43-.59,.96-1.01,1.58-1.26,.62-.25,1.27-.33,1.96-.24,.69,.09,1.34,.35,1.95,.8l.34,.25-3.65,5.01c.39,.18,.79,.27,1.2,.27s.8-.1,1.18-.29c.38-.19,.69-.47,.95-.82,.23-.31,.4-.64,.51-.99,.12-.35,.15-.69,.12-1.01l1.35-.24c0,.58-.08,1.11-.23,1.6-.15,.49-.4,.98-.75,1.45Zm-5.22-.63l2.74-3.76c-.36-.19-.73-.28-1.11-.28-.38,0-.73,.08-1.06,.24-.33,.16-.61,.39-.84,.7-.23,.32-.37,.66-.43,1.02s-.03,.73,.09,1.09c.12,.36,.32,.69,.61,.99Z" style="fill: #fff;"/>
      <path d="M26.38,49.3c-.16,.2-.37,.31-.63,.34-.26,.03-.49-.04-.68-.2-.2-.16-.31-.37-.33-.63-.02-.25,.05-.48,.22-.68,.17-.21,.38-.33,.63-.36,.25-.03,.48,.03,.68,.2,.19,.16,.3,.37,.33,.63,.03,.26-.04,.49-.21,.7Zm6.39,6.2l-5.92-4.82,.98-1.2,5.92,4.82-.98,1.2Z" style="fill: #fff;"/>
      <path d="M37.01,50.42l-7.1-3.56,1.02-1.1,5.16,2.68-2.91-5.12,.9-.98,5.34,2.48-3.09-4.93,.98-1.07,4.12,6.8-1.01,1.09-5.31-2.5,2.91,5.1-1.02,1.1Z" style="fill: #fff;"/>
      <path d="M48.6,38.54l-4.9-5.85,1.18-.99,.47,.56c.07-.83,.45-1.53,1.13-2.1,.41-.34,.85-.56,1.32-.65,.47-.09,.92-.07,1.36,.07-.02-.53,.08-1.03,.28-1.48,.2-.45,.52-.85,.94-1.21,.45-.38,.92-.61,1.42-.7,.5-.09,.99-.04,1.47,.14,.48,.18,.91,.5,1.29,.95l3.08,3.68-1.18,.99-2.92-3.48c-.39-.46-.81-.72-1.28-.77-.47-.06-.92,.09-1.35,.45-.29,.25-.5,.53-.63,.86s-.17,.7-.11,1.11c.08,.06,.16,.13,.24,.21,.08,.08,.15,.16,.22,.24l3.08,3.68-1.17,.98-2.92-3.48c-.39-.46-.81-.72-1.28-.77-.47-.06-.92,.09-1.35,.45-.28,.24-.49,.51-.62,.82-.13,.31-.18,.65-.14,1.03l3.56,4.26-1.19,.99Z" style="fill: #fff;"/>
      <path d="M63.62,26.91c-.62,.44-1.29,.69-2,.76-.71,.07-1.39-.04-2.03-.32-.64-.29-1.17-.73-1.59-1.34-.42-.61-.66-1.26-.71-1.96-.05-.7,.08-1.37,.39-2.02,.31-.65,.77-1.19,1.4-1.63,.63-.44,1.31-.69,2.02-.76,.71-.06,1.38,.05,2.02,.33,.64,.29,1.17,.73,1.59,1.34,.42,.61,.66,1.26,.71,1.96,.05,.7-.08,1.37-.39,2.01-.31,.64-.78,1.18-1.41,1.62Zm-.75-1.08c.4-.28,.69-.62,.88-1.04,.19-.42,.26-.85,.21-1.31-.04-.46-.21-.89-.49-1.3-.28-.4-.63-.7-1.04-.89s-.85-.27-1.31-.25c-.45,.02-.88,.17-1.28,.45-.4,.28-.69,.62-.87,1.04-.18,.42-.25,.86-.21,1.31,.04,.46,.19,.89,.47,1.29,.29,.41,.64,.71,1.05,.91,.42,.2,.85,.28,1.31,.25,.46-.03,.88-.19,1.28-.46Z" style="fill: #fff;"/>
      <path d="M69.64,22.73l-3.97-6.52,1.32-.8,.51,.83c.02-.44,.14-.84,.34-1.2,.21-.37,.51-.67,.9-.91,.28-.16,.53-.26,.74-.29l.7,1.15c-.15,.02-.3,.07-.45,.12-.14,.06-.28,.13-.42,.21-.39,.24-.67,.55-.85,.93-.18,.38-.24,.82-.18,1.31l2.66,4.37-1.32,.8Z" style="fill: #fff;"/>
      <path d="M79.1,17.43c-.68,.36-1.38,.54-2.09,.52-.72-.02-1.38-.2-1.98-.56-.61-.36-1.08-.86-1.43-1.52-.34-.64-.5-1.31-.47-2,.03-.69,.22-1.33,.58-1.93,.36-.59,.86-1.06,1.51-1.41s1.3-.49,1.97-.45c.67,.05,1.29,.26,1.87,.64,.58,.38,1.05,.9,1.41,1.57l.2,.37-5.47,2.91c.27,.33,.59,.59,.96,.76s.76,.26,1.19,.25c.42,0,.83-.12,1.22-.33,.34-.18,.63-.4,.89-.67,.26-.27,.44-.55,.55-.86l1.32,.37c-.25,.52-.55,.97-.91,1.34-.35,.38-.79,.7-1.31,.98Zm-4.42-2.85l4.1-2.19c-.24-.32-.53-.57-.87-.73-.34-.17-.69-.25-1.06-.25-.37,0-.72,.09-1.06,.27-.35,.18-.62,.43-.84,.73-.21,.31-.34,.64-.39,1.02-.05,.37-.01,.76,.12,1.15Z" style="fill: #fff;"/>
    </g>
  </g>
</svg>