<?xml version="1.0" encoding="UTF-8"?>
<svg id="b" data-name="圖層 2" xmlns="http://www.w3.org/2000/svg" width="103.84" height="25.66" viewBox="0 0 103.84 25.66">
  <defs>
    <style>
      .d {
        fill: #ff4d00;
      }
    </style>
  </defs>
  <g id="c" data-name="設計">
    <g>
      <rect class="d" x="10.06" width="2.22" height="22.99"/>
      <path class="d" d="M.51,7.82c.52-.33,1.2-.18,1.53,.34l9.12,14.32,9.12-14.32c.33-.52,1.02-.67,1.53-.34s.67,1.02,.34,1.53l-10.06,15.79c-.2,.32-.56,.51-.94,.51s-.73-.2-.94-.51L.17,9.35c-.12-.19-.17-.39-.17-.6,0-.37,.18-.73,.51-.94Z"/>
    </g>
    <g>
      <path d="M31.61,24.26V5.36h5.86l4.67,8.91,4.67-8.91h5.86V24.26h-4.37V11.38l-6.21,11.53-6.21-11.58v12.93h-4.27Z"/>
      <path d="M63.39,24.53c-1.46,0-2.78-.33-3.96-.99-1.18-.66-2.11-1.54-2.79-2.66-.68-1.12-1.03-2.37-1.03-3.75s.33-2.64,.99-3.75,1.55-2,2.69-2.66,2.39-.99,3.78-.99,2.65,.34,3.73,1.01,1.93,1.6,2.55,2.77,.93,2.51,.93,4.02v1.08h-10.18c.2,.45,.46,.85,.8,1.19s.73,.61,1.2,.8c.47,.19,.97,.28,1.51,.28,.59,0,1.13-.09,1.62-.28,.49-.19,.9-.46,1.24-.8l2.89,2.57c-.9,.76-1.82,1.3-2.77,1.65-.95,.34-2.01,.51-3.2,.51Zm-3.38-8.96h5.97c-.14-.47-.37-.87-.66-1.2s-.64-.59-1.04-.78c-.4-.19-.83-.28-1.3-.28s-.93,.09-1.32,.27c-.4,.18-.73,.44-1.01,.77-.28,.33-.49,.74-.63,1.23Z"/>
      <path d="M73,24.26V9.98h4.37v.97c1.08-.83,2.36-1.24,3.83-1.24,1.12,0,2.1,.24,2.96,.73,.85,.49,1.53,1.16,2.01,2.03,.49,.86,.73,1.86,.73,3v8.8h-4.37v-8.21c0-.79-.23-1.42-.7-1.89s-1.1-.7-1.89-.7c-.56,0-1.05,.1-1.47,.3s-.79,.48-1.09,.84v9.67h-4.37Z"/>
      <path d="M95.63,24.53c-1.12,0-2.1-.24-2.96-.73-.86-.49-1.53-1.17-2.01-2.04-.49-.87-.73-1.87-.73-2.98V9.98h4.37v8.21c0,.77,.24,1.4,.71,1.88,.48,.48,1.1,.71,1.88,.71,.56,0,1.05-.1,1.49-.3,.43-.2,.79-.48,1.08-.84V9.98h4.37v14.28h-4.37v-.97c-1.08,.83-2.36,1.24-3.83,1.24Z"/>
    </g>
  </g>
</svg>