<?xml version="1.0" encoding="UTF-8"?>
<svg id="b" data-name="圖層 2" xmlns="http://www.w3.org/2000/svg" width="170.03" height="63.35" viewBox="0 0 170.03 63.35">
  <defs>
    <style>
      .d {
        fill: none;
        stroke: #0d131a;
        stroke-miterlimit: 10;
        stroke-width: 3px;
      }

      .e {
        fill: #0d131a;
      }
    </style>
  </defs>
  <g id="c" data-name="layout">
    <g>
      <path class="e" d="M3.56,63.35c-1.15-.67-2.03-1.56-2.64-2.67-.61-1.11-.92-2.38-.92-3.81s.31-2.7,.92-3.82c.61-1.12,1.49-2,2.64-2.67l.76,.9c-.96,.58-1.7,1.35-2.21,2.31-.51,.96-.77,2.05-.77,3.28s.26,2.3,.77,3.27,1.25,1.73,2.21,2.3l-.76,.91Z"/>
      <path class="e" d="M13.24,60.48c-.78,0-1.54-.15-2.27-.46-.73-.31-1.37-.74-1.93-1.3l.9-1.04c.53,.52,1.08,.91,1.63,1.16,.56,.25,1.14,.38,1.74,.38,.48,0,.89-.07,1.25-.2,.36-.13,.64-.33,.83-.58,.2-.25,.29-.54,.29-.85,0-.44-.15-.77-.46-1.01-.31-.23-.82-.41-1.53-.53l-1.64-.27c-.9-.16-1.57-.45-2.01-.87s-.67-.98-.67-1.68c0-.56,.15-1.05,.45-1.48,.3-.42,.72-.75,1.27-.99,.55-.23,1.18-.35,1.9-.35s1.41,.11,2.09,.34,1.3,.56,1.85,.99l-.81,1.12c-1.05-.8-2.12-1.2-3.21-1.2-.43,0-.8,.06-1.12,.18s-.56,.29-.74,.51c-.18,.22-.27,.47-.27,.76,0,.4,.14,.71,.41,.92,.27,.21,.72,.36,1.34,.46l1.58,.27c1.04,.17,1.8,.47,2.28,.91,.48,.44,.73,1.04,.73,1.81,0,.6-.16,1.12-.49,1.58s-.78,.8-1.37,1.06-1.27,.38-2.04,.38Z"/>
      <path class="e" d="M22.46,60.47c-.68,0-1.3-.16-1.86-.49-.56-.33-1-.77-1.32-1.33-.32-.56-.48-1.18-.48-1.88s.16-1.31,.49-1.87c.33-.55,.77-1,1.32-1.33,.56-.33,1.17-.5,1.85-.5,.54,0,1.06,.1,1.56,.31s.93,.5,1.29,.87l-.87,.97c-.27-.3-.57-.52-.91-.67s-.69-.22-1.05-.22c-.43,0-.82,.11-1.17,.32-.35,.21-.63,.51-.83,.88-.21,.37-.31,.79-.31,1.25s.1,.87,.31,1.25c.21,.37,.48,.67,.84,.89,.35,.22,.75,.33,1.19,.33,.36,0,.7-.07,1.02-.22,.32-.14,.62-.36,.9-.64l.85,.9c-.37,.38-.81,.68-1.29,.88-.49,.21-1,.31-1.53,.31Z"/>
      <path class="e" d="M27.03,60.35v-7.13h1.4v.91c.22-.34,.5-.6,.83-.79,.33-.19,.71-.29,1.13-.29,.29,0,.53,.05,.71,.13v1.26c-.13-.06-.27-.1-.41-.12-.14-.02-.28-.03-.42-.03-.41,0-.77,.11-1.09,.33-.32,.22-.57,.54-.76,.96v4.77h-1.4Z"/>
      <path class="e" d="M35.84,60.48c-.69,0-1.32-.16-1.88-.49-.56-.33-1.01-.77-1.34-1.33-.33-.56-.49-1.19-.49-1.88s.16-1.32,.49-1.88c.33-.56,.77-1.01,1.34-1.34,.56-.33,1.19-.5,1.88-.5s1.33,.17,1.89,.5c.56,.33,1,.78,1.33,1.34,.33,.56,.49,1.18,.49,1.88s-.16,1.32-.49,1.88c-.33,.56-.77,1-1.33,1.33-.56,.33-1.19,.49-1.89,.49Zm0-1.23c.44,0,.84-.11,1.19-.33,.35-.22,.63-.52,.84-.89,.21-.37,.31-.79,.31-1.26s-.1-.87-.31-1.24c-.21-.37-.49-.67-.84-.89-.35-.22-.74-.34-1.18-.34s-.83,.11-1.18,.34c-.35,.22-.63,.52-.84,.89-.21,.37-.31,.78-.31,1.24s.1,.89,.31,1.26c.21,.37,.48,.67,.84,.89,.35,.22,.75,.33,1.19,.33Z"/>
      <path class="e" d="M41.51,60.35v-9.8l1.4-.27v10.07h-1.4Z"/>
      <path class="e" d="M45.19,60.35v-9.8l1.4-.27v10.07h-1.4Z"/>
      <path class="e" d="M55.48,60.47c-.69,0-1.22-.16-1.58-.48-.36-.32-.55-.79-.55-1.41v-4.19h-1.51v-1.18h1.51v-1.82l1.39-.34v2.16h2.1v1.18h-2.1v3.86c0,.36,.08,.62,.24,.78,.16,.15,.43,.23,.81,.23,.2,0,.37-.01,.52-.04,.15-.03,.32-.07,.5-.13v1.18c-.19,.07-.4,.11-.65,.15-.25,.03-.47,.05-.68,.05Z"/>
      <path class="e" d="M61.77,60.48c-.69,0-1.32-.16-1.88-.49-.56-.33-1.01-.77-1.34-1.33-.33-.56-.49-1.19-.49-1.88s.16-1.32,.49-1.88c.33-.56,.77-1.01,1.34-1.34,.56-.33,1.19-.5,1.88-.5s1.33,.17,1.89,.5c.56,.33,1,.78,1.33,1.34,.33,.56,.49,1.18,.49,1.88s-.16,1.32-.49,1.88c-.33,.56-.77,1-1.33,1.33-.56,.33-1.19,.49-1.89,.49Zm0-1.23c.44,0,.84-.11,1.19-.33,.35-.22,.63-.52,.84-.89,.21-.37,.31-.79,.31-1.26s-.1-.87-.31-1.24c-.21-.37-.49-.67-.84-.89-.35-.22-.74-.34-1.18-.34s-.83,.11-1.18,.34c-.35,.22-.63,.52-.84,.89-.21,.37-.31,.78-.31,1.24s.1,.89,.31,1.26c.21,.37,.48,.67,.84,.89,.35,.22,.75,.33,1.19,.33Z"/>
      <path class="e" d="M74.41,60.47c-.7,0-1.33-.16-1.9-.49-.56-.33-1.01-.77-1.34-1.33-.33-.56-.5-1.18-.5-1.88s.16-1.3,.48-1.85,.75-1,1.29-1.33c.54-.33,1.14-.5,1.81-.5s1.25,.17,1.76,.5,.92,.78,1.23,1.34c.3,.57,.46,1.2,.46,1.91v.39h-5.61c.07,.39,.22,.74,.44,1.05,.22,.31,.5,.55,.84,.73,.34,.18,.71,.27,1.11,.27,.35,0,.68-.05,1-.16,.32-.11,.59-.26,.81-.47l.9,.88c-.42,.32-.85,.55-1.29,.71-.44,.15-.93,.23-1.46,.23Zm-2.32-4.28h4.21c-.06-.37-.18-.7-.38-.99-.2-.29-.45-.51-.74-.67-.29-.16-.61-.24-.96-.24s-.68,.08-.98,.24c-.3,.16-.55,.38-.75,.67-.2,.29-.33,.62-.4,1Z"/>
      <path class="e" d="M78.34,60.35l2.77-3.65-2.66-3.47h1.64l1.83,2.44,1.83-2.44h1.58l-2.63,3.46,2.8,3.67h-1.64l-1.97-2.63-1.97,2.63h-1.58Z"/>
      <path class="e" d="M87.01,63.2v-9.98h1.39v.69c.6-.53,1.33-.8,2.18-.8,.67,0,1.28,.16,1.83,.49,.55,.33,.98,.77,1.29,1.32,.32,.55,.48,1.17,.48,1.86s-.16,1.31-.48,1.87c-.32,.56-.76,1-1.3,1.32s-1.16,.49-1.84,.49c-.39,0-.77-.06-1.13-.19-.36-.13-.7-.31-1.01-.54v3.47h-1.4Zm3.39-3.96c.46,0,.87-.11,1.23-.32s.65-.51,.86-.88c.21-.37,.32-.79,.32-1.25s-.11-.89-.32-1.26c-.21-.37-.5-.67-.86-.88-.36-.21-.77-.32-1.23-.32-.4,0-.77,.07-1.12,.22-.35,.15-.64,.36-.87,.63v3.22c.23,.26,.52,.47,.88,.62s.72,.22,1.11,.22Z"/>
      <path class="e" d="M96.14,60.35v-9.8l1.4-.27v10.07h-1.4Z"/>
      <path class="e" d="M103.21,60.48c-.69,0-1.32-.16-1.88-.49-.56-.33-1.01-.77-1.34-1.33-.33-.56-.49-1.19-.49-1.88s.16-1.32,.49-1.88c.33-.56,.77-1.01,1.34-1.34,.56-.33,1.19-.5,1.88-.5s1.33,.17,1.89,.5c.56,.33,1,.78,1.33,1.34,.33,.56,.49,1.18,.49,1.88s-.16,1.32-.49,1.88c-.33,.56-.77,1-1.33,1.33-.56,.33-1.19,.49-1.89,.49Zm0-1.23c.44,0,.84-.11,1.19-.33,.35-.22,.63-.52,.84-.89,.21-.37,.31-.79,.31-1.26s-.1-.87-.31-1.24c-.21-.37-.49-.67-.84-.89-.35-.22-.74-.34-1.18-.34s-.83,.11-1.18,.34c-.35,.22-.63,.52-.84,.89-.21,.37-.31,.78-.31,1.24s.1,.89,.31,1.26c.21,.37,.48,.67,.84,.89,.35,.22,.75,.33,1.19,.33Z"/>
      <path class="e" d="M108.88,60.35v-7.13h1.4v.91c.22-.34,.5-.6,.83-.79,.33-.19,.71-.29,1.13-.29,.29,0,.53,.05,.71,.13v1.26c-.13-.06-.27-.1-.41-.12-.14-.02-.28-.03-.42-.03-.41,0-.77,.11-1.09,.33-.32,.22-.57,.54-.76,.96v4.77h-1.4Z"/>
      <path class="e" d="M117.71,60.47c-.7,0-1.33-.16-1.9-.49-.56-.33-1.01-.77-1.34-1.33-.33-.56-.5-1.18-.5-1.88s.16-1.3,.48-1.85,.75-1,1.29-1.33c.54-.33,1.14-.5,1.81-.5s1.25,.17,1.76,.5,.92,.78,1.23,1.34c.3,.57,.46,1.2,.46,1.91v.39h-5.61c.07,.39,.22,.74,.44,1.05,.22,.31,.5,.55,.84,.73,.34,.18,.71,.27,1.11,.27,.35,0,.68-.05,1-.16,.32-.11,.59-.26,.81-.47l.9,.88c-.42,.32-.85,.55-1.29,.71-.44,.15-.93,.23-1.46,.23Zm-2.32-4.28h4.21c-.06-.37-.18-.7-.38-.99-.2-.29-.45-.51-.74-.67-.29-.16-.61-.24-.96-.24s-.68,.08-.98,.24c-.3,.16-.55,.38-.75,.67-.2,.29-.33,.62-.4,1Z"/>
      <path class="e" d="M126.5,60.35v-7.13h1.4v.69c.53-.55,1.2-.83,2-.83,.49,0,.92,.11,1.29,.32,.38,.21,.68,.5,.9,.87,.3-.39,.65-.69,1.05-.89,.4-.2,.85-.3,1.36-.3,.53,0,1,.12,1.39,.35,.4,.23,.71,.56,.94,.98,.23,.42,.34,.91,.34,1.46v4.48h-1.4v-4.24c0-.56-.15-1-.44-1.32-.29-.32-.69-.48-1.2-.48-.35,0-.66,.08-.94,.24-.28,.16-.52,.4-.73,.73,.02,.09,.03,.19,.04,.29,0,.1,.01,.21,.01,.31v4.48h-1.39v-4.24c0-.56-.15-1-.44-1.32-.29-.32-.69-.48-1.2-.48-.34,0-.64,.07-.91,.22-.27,.14-.5,.36-.7,.65v5.18h-1.4Z"/>
      <path class="e" d="M142.81,60.48c-.69,0-1.32-.16-1.88-.49-.56-.33-1.01-.77-1.34-1.33-.33-.56-.49-1.19-.49-1.88s.16-1.32,.49-1.88c.33-.56,.77-1.01,1.34-1.34,.56-.33,1.19-.5,1.88-.5s1.33,.17,1.89,.5c.56,.33,1,.78,1.33,1.34,.33,.56,.49,1.18,.49,1.88s-.16,1.32-.49,1.88c-.33,.56-.77,1-1.33,1.33-.56,.33-1.19,.49-1.89,.49Zm0-1.23c.44,0,.84-.11,1.19-.33,.35-.22,.63-.52,.84-.89,.21-.37,.31-.79,.31-1.26s-.1-.87-.31-1.24c-.21-.37-.49-.67-.84-.89-.35-.22-.74-.34-1.18-.34s-.83,.11-1.18,.34c-.35,.22-.63,.52-.84,.89-.21,.37-.31,.78-.31,1.24s.1,.89,.31,1.26c.21,.37,.48,.67,.84,.89,.35,.22,.75,.33,1.19,.33Z"/>
      <path class="e" d="M148.48,60.35v-7.13h1.4v.91c.22-.34,.5-.6,.83-.79,.33-.19,.71-.29,1.13-.29,.29,0,.53,.05,.71,.13v1.26c-.13-.06-.27-.1-.41-.12-.14-.02-.28-.03-.42-.03-.41,0-.77,.11-1.09,.33-.32,.22-.57,.54-.76,.96v4.77h-1.4Z"/>
      <path class="e" d="M157.31,60.47c-.7,0-1.33-.16-1.9-.49-.56-.33-1.01-.77-1.34-1.33-.33-.56-.5-1.18-.5-1.88s.16-1.3,.48-1.85,.75-1,1.29-1.33c.54-.33,1.14-.5,1.81-.5s1.25,.17,1.76,.5,.92,.78,1.23,1.34c.3,.57,.46,1.2,.46,1.91v.39h-5.61c.07,.39,.22,.74,.44,1.05,.22,.31,.5,.55,.84,.73,.34,.18,.71,.27,1.11,.27,.35,0,.68-.05,1-.16,.32-.11,.59-.26,.81-.47l.9,.88c-.42,.32-.85,.55-1.29,.71-.44,.15-.93,.23-1.46,.23Zm-2.32-4.28h4.21c-.06-.37-.18-.7-.38-.99-.2-.29-.45-.51-.74-.67-.29-.16-.61-.24-.96-.24s-.68,.08-.98,.24c-.3,.16-.55,.38-.75,.67-.2,.29-.33,.62-.4,1Z"/>
      <path class="e" d="M166.47,50.34c1.15,.67,2.03,1.56,2.64,2.67s.92,2.38,.92,3.81-.31,2.7-.92,3.82-1.49,2-2.64,2.67l-.76-.9c.96-.58,1.7-1.35,2.21-2.31s.77-2.05,.77-3.28-.26-2.3-.77-3.27-1.25-1.73-2.21-2.3l.76-.91Z"/>
    </g>
    <g>
      <line class="d" x1="26.38" x2="26.38" y2="31.07"/>
      <path class="e" d="M11.98,10.57c.7-.45,1.63-.24,2.07,.46l12.33,19.36,12.33-19.36c.45-.7,1.37-.91,2.07-.46,.7,.45,.9,1.38,.46,2.07l-13.59,21.34c-.28,.43-.75,.69-1.27,.69s-.99-.26-1.27-.69L11.52,12.64c-.16-.25-.23-.53-.23-.81,0-.5,.25-.98,.69-1.27Z"/>
    </g>
  </g>
</svg>