<?xml version="1.0" encoding="UTF-8"?>
<svg id="b" data-name="圖層 2" xmlns="http://www.w3.org/2000/svg" width="19.26" height="36.5" viewBox="0 0 19.26 36.5">
  <defs>
    <style>
      .d {
        fill: #9e9e9f;
      }
    </style>
  </defs>
  <g id="c" data-name="layout">
    <path class="d" d="M19.26,.77c-.03,1.6,0,3.17,0,4.74q0,.64-.64,.64c-1.38,.03-2.72,0-4.07,.13-1.12,.1-1.86,.87-1.92,1.99-.1,1.67-.06,3.33-.1,5,0,0,.03,.03,.1,.13h6.31c.03,.13,.03,.19,.03,.26-.26,1.99-.51,3.94-.77,5.93-.03,.32-.22,.35-.48,.35h-5.16v16.57H5.64V20.41c.03-.42-.13-.48-.48-.48H.51c-.38,0-.51-.06-.51-.45v-5.64c0-.38,.13-.51,.48-.48H5.09c.16,0,.35-.03,.54-.03v-.77c.06-2.05-.13-4.1,.22-6.12,.42-2.21,1.51-4.01,3.43-5.19,1.41-.87,2.95-1.25,4.58-1.25s3.24,.16,4.84,.19c.42,.03,.58,.16,.54,.58Z"/>
  </g>
</svg>