<?xml version="1.0" encoding="UTF-8"?>
<svg id="_層_2" data-name="圖層 2" xmlns="http://www.w3.org/2000/svg" width="43.99" height="55.38" viewBox="0 0 43.99 55.38">
  <defs>
    <style>
      .cls-1 {
        fill: none;
        stroke: #0d131a;
        stroke-miterlimit: 10;
        stroke-width: 3px;
      }

      .cls-2 {
        fill: #0d131a;
      }
    </style>
  </defs>
  <g id="footer">
    <g>
      <g>
        <path class="cls-2" d="M3.56,55.27c-1.15-.67-2.03-1.56-2.64-2.67-.61-1.11-.92-2.38-.92-3.81s.31-2.7,.92-3.82c.61-1.12,1.49-2,2.64-2.67l.76,.9c-.96,.58-1.7,1.35-2.21,2.31-.51,.96-.77,2.05-.77,3.28s.26,2.3,.77,3.27c.51,.97,1.25,1.73,2.21,2.3l-.76,.91Z"/>
        <path class="cls-2" d="M12.39,43.31h-3.03v-1.36h7.69v1.36h-3.04v8.95h-1.62v-8.95Z"/>
        <path class="cls-2" d="M17.68,48.42c0-2.58,1.72-4.06,3.63-4.06s3.63,1.49,3.63,4.06-1.72,4.02-3.63,4.02-3.63-1.47-3.63-4.02Zm5.6,0c0-1.64-.76-2.73-1.97-2.73s-1.96,1.09-1.96,2.73,.76,2.7,1.96,2.7,1.97-1.08,1.97-2.7Z"/>
        <path class="cls-2" d="M27.46,44.56h1.32l.13,.84h.04c.67-.56,1.51-1.04,2.37-1.04,1.96,0,3.05,1.55,3.05,3.92,0,2.65-1.58,4.16-3.32,4.16-.69,0-1.37-.31-2.03-.87l.04,1.32v2.49h-1.6v-10.83Zm5.24,3.75c0-1.61-.52-2.61-1.81-2.61-.6,0-1.18,.31-1.84,.94v3.77c.6,.52,1.21,.7,1.68,.7,1.12,0,1.96-1,1.96-2.8Z"/>
        <path class="cls-2" d="M40.43,42.25c1.15,.67,2.03,1.56,2.64,2.67s.92,2.38,.92,3.81-.31,2.7-.92,3.82-1.49,2-2.64,2.67l-.76-.9c.96-.58,1.7-1.35,2.21-2.31s.77-2.05,.77-3.28-.26-2.3-.77-3.27-1.25-1.73-2.21-2.3l.76-.91Z"/>
      </g>
      <g>
        <line class="cls-1" x1="28.8" y1="34.68" x2="28.8" y2="3.61"/>
        <path class="cls-2" d="M43.2,24.11c-.7,.45-1.63,.24-2.07-.46L28.8,4.29l-12.33,19.36c-.45,.7-1.37,.91-2.07,.46-.7-.45-.9-1.38-.46-2.07L27.53,.69c.28-.43,.75-.69,1.27-.69s.99,.26,1.27,.69l13.59,21.34c.16,.25,.23,.53,.23,.81,0,.5-.25,.98-.69,1.27Z"/>
      </g>
    </g>
  </g>
</svg>