<?xml version="1.0" encoding="UTF-8"?>
<svg id="b" data-name="圖層 2" xmlns="http://www.w3.org/2000/svg" width="36.26" height="36.01" viewBox="0 0 36.26 36.01">
  <defs>
    <style>
      .d {
        fill: #9e9e9f;
      }
    </style>
  </defs>
  <g id="c" data-name="layout">
    <path class="d" d="M36.02,8.21C35.85,3.47,32.75,.19,27.99,.08,21.4-.06,14.76,.01,8.14,.07c-1.52,.01-3,.46-4.32,1.29C1.32,2.94,.31,5.38,.19,8.18,.05,12.23,0,16.28,0,20.33c.02,2.84,.03,5.71,.35,8.53,.37,3.36,2.22,5.74,5.63,6.59,1.51,.37,3.11,.55,4.67,.55,5.72,.03,11.44,0,17.14-.12,4.84-.09,8.06-3.34,8.23-8.17,.1-3.23,.15-6.47,.24-9.69-.09-3.28-.13-6.55-.24-9.81Zm-12.41,1.37q0,.45-.45,.45c-.95,.02-1.88,0-2.81,.09-.78,.06-1.29,.59-1.33,1.37-.07,1.15-.05,2.3-.07,3.46,0,0,.02,.03,.07,.09h4.36c.03,.09,.03,.13,.03,.18-.19,1.38-.36,2.73-.54,4.1-.02,.23-.16,.25-.33,.25h-3.57v11.46h-4.79v-11.13c.02-.29-.09-.33-.33-.33h-3.22c-.27,0-.35-.04-.35-.31v-3.9c0-.27,.08-.35,.33-.33h3.2c.1,0,.24-.02,.37-.02v-.54c.04-1.41-.09-2.83,.16-4.24,.29-1.53,1.04-2.77,2.37-3.59,.98-.59,2.05-.86,3.18-.86s2.24,.11,3.34,.13c.29,.02,.4,.11,.38,.39-.02,1.11,0,2.2,0,3.28Z"/>
  </g>
</svg>