<?xml version="1.0" encoding="UTF-8"?>
<svg id="b" data-name="圖層 2" xmlns="http://www.w3.org/2000/svg" width="40.45" height="36.94" viewBox="0 0 40.45 36.94">
  <defs>
    <style>
      .d {
        fill: #0c131b;
      }

      .e {
        fill: none;
        stroke: #0c131b;
        stroke-miterlimit: 10;
        stroke-width: 1.85px;
      }
    </style>
  </defs>
  <g id="c" data-name="設計">
    <g>
      <path d="M3.33,36.94c-1.07-.62-1.88-1.45-2.45-2.48-.57-1.03-.85-2.21-.85-3.54s.28-2.51,.85-3.54c.57-1.04,1.38-1.86,2.45-2.48l.7,.83c-.89,.54-1.58,1.25-2.05,2.15s-.71,1.91-.71,3.04,.24,2.14,.71,3.04,1.16,1.61,2.05,2.14l-.7,.84Z"/>
      <path d="M10.74,29.82c-.47,.17-.95,.31-1.43,.48v3.64c0,.53-.12,.78-.44,.94-.3,.16-.79,.19-1.61,.18-.04-.23-.16-.62-.29-.9,.56,.01,1.07,.01,1.21,.01,.17,0,.23-.05,.23-.25v-3.34c-.53,.18-1.04,.34-1.51,.48l-.23-.94c.48-.12,1.08-.3,1.74-.51v-2.85h-1.6v-.9h1.6v-2.59h.9v2.59h1.43v.9h-1.43v2.56l1.31-.4,.12,.88Zm4.33,4.2c.38,.05,.79,.08,1.22,.08,.31,0,2.08,0,2.51-.01-.13,.21-.25,.61-.29,.86h-2.26c-1.87,0-3.24-.35-4.08-2.17-.36,.97-.87,1.77-1.56,2.38-.14-.16-.51-.46-.71-.58,1.16-.91,1.73-2.37,1.94-4.29l.9,.1c-.07,.48-.14,.96-.26,1.39,.38,1.09,.95,1.69,1.69,2v-4.11h-3.17v-.82h7.41v.82h-3.33v1.52h2.69v.79h-2.69v2.04Zm2.61-6.1h-6.1v-4.21h6.1v4.21Zm-.92-3.48h-4.29v1.03h4.29v-1.03Zm0,1.7h-4.29v1.04h4.29v-1.04Z"/>
      <path d="M30.68,28.87c-.53,1.33-1.26,2.42-2.17,3.29,1.34,1.01,3.05,1.7,5.13,2.03-.21,.21-.47,.6-.6,.87-2.15-.42-3.89-1.16-5.27-2.28-1.43,1.13-3.21,1.86-5.3,2.39-.1-.23-.39-.66-.58-.87,2.08-.43,3.83-1.12,5.19-2.16-.9-.87-1.59-1.95-2.11-3.21l.86-.26c.44,1.11,1.11,2.08,1.95,2.87,.83-.79,1.48-1.77,1.91-2.95l.99,.27Zm2.63-2.86h-11.15v-.95h5.4c-.18-.46-.55-1.09-.86-1.6l.9-.31c.36,.52,.78,1.23,.96,1.68l-.58,.23h5.34v.95Zm-6.98,.77c-.87,1.1-2.24,2.26-3.38,3-.17-.2-.53-.56-.74-.73,1.14-.65,2.42-1.65,3.2-2.64l.92,.36Zm3.69-.39c1.18,.81,2.64,1.98,3.34,2.81l-.79,.62c-.65-.82-2.09-2.05-3.29-2.87l.74-.56Z"/>
      <path d="M37.15,24.85c1.07,.62,1.88,1.45,2.45,2.48,.57,1.03,.85,2.21,.85,3.54s-.28,2.51-.85,3.54c-.57,1.04-1.38,1.86-2.45,2.48l-.7-.83c.89-.54,1.58-1.25,2.05-2.15s.71-1.91,.71-3.04-.24-2.14-.71-3.04-1.16-1.61-2.05-2.14l.7-.84Z"/>
    </g>
    <g>
      <line class="e" y1="9.31" x2="19.18" y2="9.31"/>
      <path class="d" d="M6.52,18.2c-.27-.43-.15-1,.29-1.28l11.95-7.61L6.81,1.71c-.43-.27-.56-.85-.29-1.28C6.8,0,7.37-.13,7.8,.14l13.17,8.39c.27,.17,.43,.46,.43,.78s-.16,.61-.43,.78L7.8,18.49c-.16,.1-.33,.14-.5,.14-.31,0-.61-.15-.78-.43Z"/>
    </g>
  </g>
</svg>