<?xml version="1.0" encoding="UTF-8"?>
<svg id="uuid-1fdc3927-c6de-43a6-9e0f-ac47a4b5e2b1" data-name="圖層 2" xmlns="http://www.w3.org/2000/svg" width="135.18" height="110.48" viewBox="0 0 135.18 110.48">
  <defs>
    <style>
      .uuid-56995c17-8ee5-4ce3-87be-4f0576ec932c {
        fill: #ecae4b;
      }

      .uuid-efd6df14-da20-43be-8806-be35a3e8f33a {
        fill: #0d131a;
      }
    </style>
  </defs>
  <g id="uuid-50796f54-5431-4a37-b4a2-fe76ba88ffd2" data-name="layout">
    <g>
      <path class="uuid-56995c17-8ee5-4ce3-87be-4f0576ec932c" d="M33.84,98.28l1.15,7c.06,.39,.34,.7,.71,.82,9.32,2.86,20.45,4.39,31.95,4.39s22.65-1.55,31.96-4.41c.37-.11,.64-.43,.71-.81l1.17-6.98c.08-.46-.35-.82-.79-.68-9.55,3.08-21.04,4.76-33.05,4.76s-23.46-1.63-33.02-4.75c-.44-.14-.87,.22-.79,.68Z"/>
      <path class="uuid-56995c17-8ee5-4ce3-87be-4f0576ec932c" d="M17.01,7.32c.07,.43,.4,.77,.83,.85,12.8,2.16,30.56,3.5,50.19,3.5,19.36,0,36.65-1.28,49.37-3.37,.43-.07,.77-.41,.84-.85l1.07-6.6c.07-.42-.29-.78-.7-.7-12.82,2.2-30.75,3.57-50.58,3.57S29.52,2.29,16.65,0c-.42-.07-.78,.29-.71,.7l1.08,6.61Z"/>
      <g>
        <path class="uuid-efd6df14-da20-43be-8806-be35a3e8f33a" d="M0,69.84v-31.5H7.29l14.31,18.27v-18.27h7.29v31.5h-6.84L7.29,50.85v18.99H0Z"/>
        <path class="uuid-efd6df14-da20-43be-8806-be35a3e8f33a" d="M35.23,69.84v-31.5h24.84v6.71h-17.1v5.67h11.29v6.48h-11.29v5.94h17.28v6.71h-25.02Z"/>
        <path class="uuid-efd6df14-da20-43be-8806-be35a3e8f33a" d="M70.92,69.84l-7.02-31.5h7.96l3.83,19.44,5.49-19.44h7.24l5.49,19.44,3.83-19.44h7.7l-7.02,31.5h-8.19l-5.54-20.07-5.58,20.07h-8.19Z"/>
        <path class="uuid-efd6df14-da20-43be-8806-be35a3e8f33a" d="M121.36,70.29c-2.55,0-5.07-.46-7.56-1.4-2.49-.93-4.71-2.22-6.66-3.87l4.32-5.62c1.92,1.56,3.69,2.68,5.31,3.35,1.62,.67,3.34,1.01,5.17,1.01,1.2,0,2.22-.12,3.06-.36,.84-.24,1.48-.59,1.93-1.06,.45-.46,.67-1.01,.67-1.64,0-.87-.33-1.54-.99-2.03-.66-.48-1.79-.85-3.38-1.12l-6.93-1.21c-2.55-.45-4.52-1.42-5.89-2.92-1.38-1.5-2.07-3.4-2.07-5.72,0-2.04,.52-3.79,1.55-5.26,1.04-1.47,2.52-2.59,4.46-3.38,1.93-.78,4.24-1.17,6.91-1.17,2.34,0,4.7,.4,7.07,1.19,2.37,.79,4.42,1.9,6.17,3.31l-4.1,5.72c-3.24-2.49-6.46-3.74-9.67-3.74-1.05,0-1.96,.11-2.72,.34-.76,.22-1.35,.54-1.75,.94s-.61,.89-.61,1.46c0,.78,.29,1.38,.88,1.8,.58,.42,1.54,.75,2.86,.99l6.52,1.08c3.03,.48,5.33,1.48,6.91,3.02,1.57,1.53,2.36,3.51,2.36,5.94,0,2.13-.56,3.97-1.67,5.51-1.11,1.55-2.7,2.74-4.77,3.58-2.07,.84-4.53,1.26-7.38,1.26Z"/>
      </g>
    </g>
  </g>
</svg>