<?xml version="1.0" encoding="UTF-8"?>
<svg id="b" data-name="圖層 2" xmlns="http://www.w3.org/2000/svg" width="32.12" height="38.07" viewBox="0 0 32.12 38.07">
  <defs>
    <style>
      .d {
        fill: #211815;
      }

      .e {
        fill: #f4e0c4;
      }

      .f {
        fill: #da5e29;
      }
    </style>
  </defs>
  <g id="c" data-name="圖層 6">
    <g>
      <g>
        <path class="e" d="M26.33,5.47c-6.06,.45-14.31,.44-20.39,.02l4.33,27.1c3.76,.85,8.1,.85,11.73,.03L26.33,5.47Z"/>
        <g>
          <path class="d" d="M31.1,4.92c-.66,.1-1.65,.23-2.17,.3-.14,.02-.25,.13-.27,.26l-4.27,26.51c-.02,.14,.1,.25,.23,.22,.75-.18,1.58-.44,2.24-.67,.11-.04,.19-.13,.21-.25L31.32,5.14c.02-.13-.09-.24-.22-.22Z"/>
          <path class="d" d="M5.56,34.28l.36,2.17c.02,.12,.1,.22,.22,.25,2.89,.89,6.35,1.36,9.93,1.36s7.03-.48,9.93-1.37c.12-.04,.2-.13,.22-.25l.36-2.17c.02-.14-.11-.26-.25-.21-2.97,.96-6.54,1.48-10.27,1.48s-7.29-.51-10.26-1.48c-.14-.04-.27,.07-.25,.21Z"/>
          <path class="d" d="M.34,2.27c.02,.13,.12,.24,.26,.26,3.98,.67,9.49,1.09,15.59,1.09,6.01,0,11.39-.4,15.34-1.05,.14-.02,.24-.13,.26-.26l.33-2.05c.02-.13-.09-.24-.22-.22-3.98,.68-9.55,1.11-15.71,1.11S4.22,.71,.22,0C.09-.02-.02,.09,0,.22L.34,2.27Z"/>
          <path class="d" d="M7.76,31.98L3.48,5.44c-.02-.15-.14-.26-.29-.28-.23-.03-1.4-.18-2.17-.3-.07-.01-.13,.01-.18,.06-.05,.05-.07,.11-.06,.18L5.04,31.28c.02,.12,.1,.22,.22,.26,.45,.16,1.34,.46,2.24,.67,.02,0,.03,0,.05,0,.05,0,.1-.02,.14-.06,.05-.05,.08-.12,.06-.19Z"/>
        </g>
      </g>
      <circle class="f" cx="12.41" cy="17.37" r="2.55"/>
      <circle class="f" cx="18.1" cy="21.83" r="2.55"/>
      <circle class="f" cx="14.14" cy="28.25" r="2.55"/>
    </g>
  </g>
</svg>